%TF.GenerationSoftware,KiCad,Pcbnew,7.0.2*%
%TF.CreationDate,2023-07-27T00:00:23+05:00*%
%TF.ProjectId,id4,6964342e-6b69-4636-9164-5f7063625858,1*%
%TF.SameCoordinates,Original*%
%TF.FileFunction,Copper,L1,Top*%
%TF.FilePolarity,Positive*%
%FSLAX46Y46*%
G04 Gerber Fmt 4.6, Leading zero omitted, Abs format (unit mm)*
G04 Created by KiCad (PCBNEW 7.0.2) date 2023-07-27 00:00:23*
%MOMM*%
%LPD*%
G01*
G04 APERTURE LIST*
%TA.AperFunction,SMDPad,CuDef*%
%ADD10R,1.700000X1.000000*%
%TD*%
%TA.AperFunction,ComponentPad*%
%ADD11O,1.070000X1.800000*%
%TD*%
%TA.AperFunction,SMDPad,CuDef*%
%ADD12R,1.500000X1.000000*%
%TD*%
%TA.AperFunction,ComponentPad*%
%ADD13R,1.308000X1.308000*%
%TD*%
%TA.AperFunction,ComponentPad*%
%ADD14C,1.308000*%
%TD*%
%TA.AperFunction,ComponentPad*%
%ADD15R,1.524000X1.524000*%
%TD*%
%TA.AperFunction,ComponentPad*%
%ADD16C,1.524000*%
%TD*%
%TA.AperFunction,ViaPad*%
%ADD17C,0.800000*%
%TD*%
%TA.AperFunction,Conductor*%
%ADD18C,0.300000*%
%TD*%
%TA.AperFunction,Conductor*%
%ADD19C,0.600000*%
%TD*%
%TA.AperFunction,Conductor*%
%ADD20C,0.800000*%
%TD*%
%TA.AperFunction,Profile*%
%ADD21C,0.150000*%
%TD*%
%TA.AperFunction,Profile*%
%ADD22C,0.200000*%
%TD*%
G04 APERTURE END LIST*
D10*
%TO.P,SW1,1,1*%
%TO.N,VCC_5*%
X138557000Y-113030000D03*
X144857000Y-113030000D03*
%TO.P,SW1,2,2*%
%TO.N,GPIO_35*%
X138557000Y-116830000D03*
X144857000Y-116830000D03*
%TD*%
D11*
%TO.P,D1,1,RK*%
%TO.N,Net-(D1-RK)*%
X120650000Y-59690000D03*
%TO.P,D1,2,GK*%
%TO.N,Net-(D1-GK)*%
X121920000Y-59690000D03*
%TO.P,D1,3,BK*%
%TO.N,Net-(D1-BK)*%
X123190000Y-59690000D03*
%TO.P,D1,4,A*%
%TO.N,VCC_5*%
X124460000Y-59690000D03*
%TD*%
%TO.P,D5,1,RK*%
%TO.N,Net-(D5-RK)*%
X120650000Y-120650000D03*
%TO.P,D5,2,GK*%
%TO.N,Net-(D5-GK)*%
X121920000Y-120650000D03*
%TO.P,D5,3,BK*%
%TO.N,Net-(D5-BK)*%
X123190000Y-120650000D03*
%TO.P,D5,4,A*%
%TO.N,VCC_5*%
X124460000Y-120650000D03*
%TD*%
%TO.P,D4,1,RK*%
%TO.N,Net-(D4-RK)*%
X217805000Y-120650000D03*
%TO.P,D4,2,GK*%
%TO.N,Net-(D4-GK)*%
X219075000Y-120650000D03*
%TO.P,D4,3,BK*%
%TO.N,Net-(D4-BK)*%
X220345000Y-120650000D03*
%TO.P,D4,4,A*%
%TO.N,VCC_5*%
X221615000Y-120650000D03*
%TD*%
%TO.P,D3,1,RK*%
%TO.N,Net-(D3-RK)*%
X217805000Y-59690000D03*
%TO.P,D3,2,GK*%
%TO.N,Net-(D3-GK)*%
X219075000Y-59690000D03*
%TO.P,D3,3,BK*%
%TO.N,Net-(D3-BK)*%
X220345000Y-59690000D03*
%TO.P,D3,4,A*%
%TO.N,VCC_5*%
X221615000Y-59690000D03*
%TD*%
D12*
%TO.P,dynamic1,1,1*%
%TO.N,Net-(U2-SPK1)*%
X143500000Y-89950000D03*
%TO.P,dynamic1,2,2*%
%TO.N,Net-(U2-SPK2)*%
X143500000Y-91250000D03*
%TD*%
D10*
%TO.P,SW2,1,1*%
%TO.N,VCC_5*%
X123215000Y-92715000D03*
X129515000Y-92715000D03*
%TO.P,SW2,2,2*%
%TO.N,GPIO_39*%
X123215000Y-96515000D03*
X129515000Y-96515000D03*
%TD*%
D13*
%TO.P,U2,1,VCC*%
%TO.N,VCC_5*%
X120483000Y-65278000D03*
D14*
%TO.P,U2,2,RX*%
%TO.N,GPIO_17*%
X120483000Y-67818000D03*
%TO.P,U2,3,TX*%
%TO.N,GPIO_16*%
X120483000Y-70358000D03*
%TO.P,U2,4,DAC_R*%
%TO.N,unconnected-(U2-DAC_R-Pad4)*%
X120483000Y-72898000D03*
%TO.P,U2,5,DAC_L*%
%TO.N,unconnected-(U2-DAC_L-Pad5)*%
X120483000Y-75438000D03*
%TO.P,U2,6,SPK1*%
%TO.N,Net-(U2-SPK1)*%
X120483000Y-77978000D03*
%TO.P,U2,7,GND*%
%TO.N,GND*%
X120483000Y-80518000D03*
%TO.P,U2,8,SPK2*%
%TO.N,Net-(U2-SPK2)*%
X120483000Y-83058000D03*
%TO.P,U2,9,IO1*%
%TO.N,unconnected-(U2-IO1-Pad9)*%
X138517000Y-83058000D03*
%TO.P,U2,10,GND*%
%TO.N,GND*%
X138517000Y-80518000D03*
%TO.P,U2,11,IO2*%
%TO.N,unconnected-(U2-IO2-Pad11)*%
X138517000Y-77978000D03*
%TO.P,U2,12,ADKEY1*%
%TO.N,unconnected-(U2-ADKEY1-Pad12)*%
X138517000Y-75438000D03*
%TO.P,U2,13,ADKEY2*%
%TO.N,unconnected-(U2-ADKEY2-Pad13)*%
X138517000Y-72898000D03*
%TO.P,U2,14,USB+*%
%TO.N,unconnected-(U2-USB+-Pad14)*%
X138517000Y-70358000D03*
%TO.P,U2,15,USB-*%
%TO.N,unconnected-(U2-USB--Pad15)*%
X138517000Y-67818000D03*
%TO.P,U2,16,BUSY*%
%TO.N,GPIO_36*%
X138517000Y-65278000D03*
%TD*%
D15*
%TO.P,U1,1,EN*%
%TO.N,unconnected-(U1-EN-Pad1)*%
X196050000Y-69875800D03*
D16*
%TO.P,U1,2,SENSOR_VP*%
%TO.N,GPIO_36*%
X196050000Y-72415800D03*
%TO.P,U1,3,SENSOR_VN*%
%TO.N,GPIO_39*%
X196050000Y-74955800D03*
%TO.P,U1,4,IO34*%
%TO.N,GPIO_34*%
X196050000Y-77495800D03*
%TO.P,U1,5,IO35*%
%TO.N,GPIO_35*%
X196050000Y-80035800D03*
%TO.P,U1,6,IO32*%
%TO.N,GPIO_32*%
X196050000Y-82575800D03*
%TO.P,U1,7,IO33*%
%TO.N,GPIO_33*%
X196050000Y-85115800D03*
%TO.P,U1,8,IO25*%
%TO.N,unconnected-(U1-IO25-Pad8)*%
X196050000Y-87655800D03*
%TO.P,U1,9,IO26*%
%TO.N,unconnected-(U1-IO26-Pad9)*%
X196050000Y-90195800D03*
%TO.P,U1,10,IO27*%
%TO.N,GPIO_27*%
X196050000Y-92735800D03*
%TO.P,U1,11,IO14*%
%TO.N,GPIO_14*%
X196050000Y-95275800D03*
%TO.P,U1,12,IO12*%
%TO.N,GPIO_12*%
X196050000Y-97815800D03*
%TO.P,U1,13,IO13*%
%TO.N,GPIO_13*%
X196050000Y-100355800D03*
%TO.P,U1,14,GND*%
%TO.N,GND*%
X196050000Y-102895800D03*
%TO.P,U1,15,VIN*%
%TO.N,VCC_5*%
X196050000Y-105435800D03*
%TO.P,U1,16,3V3*%
%TO.N,unconnected-(U1-3V3-Pad16)*%
X221450000Y-105435800D03*
%TO.P,U1,17,GND*%
%TO.N,GND*%
X221450000Y-102895800D03*
%TO.P,U1,18,IO15*%
%TO.N,GPIO_15*%
X221450000Y-100355800D03*
%TO.P,U1,19,IO2*%
%TO.N,GPIO_2*%
X221450000Y-97815800D03*
%TO.P,U1,20,IO4*%
%TO.N,GPIO_4*%
X221450000Y-95275800D03*
%TO.P,U1,21,IO16*%
%TO.N,GPIO_16*%
X221450000Y-92735800D03*
%TO.P,U1,22,IO17*%
%TO.N,GPIO_17*%
X221450000Y-90195800D03*
%TO.P,U1,23,IO5*%
%TO.N,GPIO_5*%
X221450000Y-87655800D03*
%TO.P,U1,24,IO18*%
%TO.N,GPIO_18*%
X221450000Y-85115800D03*
%TO.P,U1,25,IO19*%
%TO.N,GPIO_19*%
X221450000Y-82575800D03*
%TO.P,U1,26,IO21*%
%TO.N,GPIO_21*%
X221450000Y-80035800D03*
%TO.P,U1,27,RXD0/IO3*%
%TO.N,unconnected-(U1-RXD0{slash}IO3-Pad27)*%
X221450000Y-77495800D03*
%TO.P,U1,28,TXD0/IO1*%
%TO.N,unconnected-(U1-TXD0{slash}IO1-Pad28)*%
X221450000Y-74955800D03*
%TO.P,U1,29,IO22*%
%TO.N,GPIO_22*%
X221450000Y-72415800D03*
%TO.P,U1,30,IO23*%
%TO.N,GPIO_23*%
X221450000Y-69875800D03*
%TD*%
D10*
%TO.P,SW3,1,1*%
%TO.N,VCC_5*%
X130835000Y-102875000D03*
X137135000Y-102875000D03*
%TO.P,SW3,2,2*%
%TO.N,GPIO_34*%
X130835000Y-106675000D03*
X137135000Y-106675000D03*
%TD*%
D11*
%TO.P,D2,1,RK*%
%TO.N,Net-(D2-RK)*%
X165100000Y-59690000D03*
%TO.P,D2,2,GK*%
%TO.N,Net-(D2-GK)*%
X166370000Y-59690000D03*
%TO.P,D2,3,BK*%
%TO.N,Net-(D2-BK)*%
X167640000Y-59690000D03*
%TO.P,D2,4,A*%
%TO.N,VCC_5*%
X168910000Y-59690000D03*
%TD*%
D17*
%TO.N,GPIO_15*%
X218440000Y-100330000D03*
X156210000Y-78232000D03*
%TO.N,GPIO_2*%
X218440000Y-97790000D03*
X156210000Y-72644000D03*
%TO.N,GPIO_4*%
X156184600Y-68681600D03*
X218440000Y-95250000D03*
%TO.N,GPIO_5*%
X176276000Y-76454000D03*
%TO.N,GPIO_35*%
X147574000Y-116840000D03*
X177038000Y-88392000D03*
%TO.N,GPIO_39*%
X132207000Y-96520000D03*
X174498000Y-85852000D03*
%TO.N,GPIO_34*%
X175768000Y-87122000D03*
X139827000Y-106680000D03*
%TD*%
D18*
%TO.N,GPIO_15*%
X218440000Y-100330000D02*
X217424000Y-99314000D01*
X217424000Y-99314000D02*
X177292000Y-99314000D01*
X177292000Y-99314000D02*
X156210000Y-78232000D01*
%TO.N,GPIO_2*%
X157226000Y-78646960D02*
X157226000Y-73660000D01*
X157226000Y-73660000D02*
X156210000Y-72644000D01*
X217341000Y-98889000D02*
X177468040Y-98889000D01*
X218440000Y-97790000D02*
X217341000Y-98889000D01*
X177468040Y-98889000D02*
X157226000Y-78646960D01*
%TO.N,GPIO_4*%
X216916000Y-96774000D02*
X175954080Y-96774000D01*
X157651000Y-70148000D02*
X156184600Y-68681600D01*
X157651000Y-78470920D02*
X157651000Y-70148000D01*
X175954080Y-96774000D02*
X157651000Y-78470920D01*
X218440000Y-95250000D02*
X216916000Y-96774000D01*
%TO.N,GPIO_5*%
X196596000Y-73660000D02*
X210591800Y-87655800D01*
X210591800Y-87655800D02*
X221450000Y-87655800D01*
X176276000Y-76454000D02*
X179070000Y-73660000D01*
X179070000Y-73660000D02*
X196596000Y-73660000D01*
D19*
%TO.N,GPIO_35*%
X144857000Y-116830000D02*
X147564000Y-116830000D01*
D18*
X183455240Y-80035800D02*
X177038000Y-86453040D01*
X196050000Y-80035800D02*
X183455240Y-80035800D01*
X177038000Y-86453040D02*
X177038000Y-88392000D01*
D19*
X138557000Y-116830000D02*
X144857000Y-116830000D01*
X147564000Y-116830000D02*
X147574000Y-116840000D01*
D18*
%TO.N,GPIO_39*%
X176436960Y-85852000D02*
X174498000Y-85852000D01*
D19*
X129520000Y-96520000D02*
X129515000Y-96515000D01*
D18*
X196050000Y-74955800D02*
X196050000Y-75984000D01*
X192848200Y-79185800D02*
X183103160Y-79185800D01*
D19*
X123215000Y-96515000D02*
X129515000Y-96515000D01*
D18*
X183103160Y-79185800D02*
X176436960Y-85852000D01*
X196050000Y-75984000D02*
X192848200Y-79185800D01*
D19*
X132207000Y-96520000D02*
X129520000Y-96520000D01*
%TO.N,GPIO_34*%
X139827000Y-106680000D02*
X137140000Y-106680000D01*
X137140000Y-106680000D02*
X137135000Y-106675000D01*
X130835000Y-106675000D02*
X137135000Y-106675000D01*
D18*
X183279200Y-79610800D02*
X175768000Y-87122000D01*
X193935000Y-79610800D02*
X183279200Y-79610800D01*
X196050000Y-77495800D02*
X193935000Y-79610800D01*
%TO.N,GPIO_36*%
X156841675Y-65785000D02*
X157735000Y-66678325D01*
X157735000Y-67031880D02*
X163118920Y-72415800D01*
X155494323Y-65869000D02*
X155578323Y-65785000D01*
X155578323Y-65785000D02*
X156841675Y-65785000D01*
X157735000Y-66678325D02*
X157735000Y-67031880D01*
X163118920Y-72415800D02*
X196050000Y-72415800D01*
X138517000Y-65278000D02*
X139108000Y-65869000D01*
X139108000Y-65869000D02*
X155494323Y-65869000D01*
%TO.N,GPIO_16*%
X158076000Y-78294880D02*
X176130120Y-96349000D01*
X158076000Y-68574960D02*
X158076000Y-78294880D01*
X156885000Y-67030405D02*
X156885000Y-67383960D01*
X120483000Y-70271000D02*
X124035000Y-66719000D01*
X176130120Y-96349000D02*
X216386405Y-96349000D01*
X216386405Y-96349000D02*
X219999605Y-92735800D01*
X120483000Y-70358000D02*
X120483000Y-70271000D01*
X156489595Y-66635000D02*
X156885000Y-67030405D01*
X155846405Y-66719000D02*
X155930405Y-66635000D01*
X155930405Y-66635000D02*
X156489595Y-66635000D01*
X219999605Y-92735800D02*
X221450000Y-92735800D01*
X156885000Y-67383960D02*
X158076000Y-68574960D01*
X124035000Y-66719000D02*
X155846405Y-66719000D01*
%TO.N,GPIO_17*%
X122334960Y-67818000D02*
X123858960Y-66294000D01*
X217794100Y-94238800D02*
X221450000Y-90582900D01*
X158501000Y-68398920D02*
X158501000Y-78118840D01*
X155754364Y-66210000D02*
X156665635Y-66210000D01*
X176306160Y-95924000D02*
X193935260Y-95924000D01*
X157310000Y-66854365D02*
X157310000Y-67207920D01*
X157310000Y-67207920D02*
X158501000Y-68398920D01*
X120483000Y-67818000D02*
X122334960Y-67818000D01*
X193935260Y-95924000D02*
X195620460Y-94238800D01*
X156665635Y-66210000D02*
X157310000Y-66854365D01*
X195620460Y-94238800D02*
X217794100Y-94238800D01*
X221450000Y-90582900D02*
X221450000Y-90195800D01*
X123858960Y-66294000D02*
X155670364Y-66294000D01*
X155670364Y-66294000D02*
X155754364Y-66210000D01*
X158501000Y-78118840D02*
X176306160Y-95924000D01*
D20*
%TO.N,Net-(U2-SPK1)*%
X136940000Y-89950000D02*
X124968000Y-77978000D01*
X124968000Y-77978000D02*
X120483000Y-77978000D01*
X143500000Y-89950000D02*
X136940000Y-89950000D01*
%TO.N,Net-(U2-SPK2)*%
X143500000Y-91250000D02*
X135954000Y-91250000D01*
X127762000Y-83058000D02*
X120483000Y-83058000D01*
X135954000Y-91250000D02*
X127762000Y-83058000D01*
%TD*%
%TA.AperFunction,Conductor*%
%TO.N,VCC_5*%
G36*
X220965274Y-54629685D02*
G01*
X221011029Y-54682489D01*
X221012204Y-54685143D01*
X222123000Y-57277000D01*
X224607629Y-58341841D01*
X224714846Y-58387791D01*
X224768711Y-58432292D01*
X224789966Y-58498850D01*
X224790000Y-58501765D01*
X224789999Y-121838638D01*
X224770314Y-121905677D01*
X224717510Y-121951432D01*
X224715363Y-121952389D01*
X222097600Y-123088400D01*
X222097599Y-123088400D01*
X221012021Y-125654315D01*
X220967771Y-125708387D01*
X220901312Y-125729951D01*
X220897821Y-125730000D01*
X121998692Y-125730000D01*
X121931653Y-125710315D01*
X121886495Y-125658799D01*
X120700800Y-123139200D01*
X120700799Y-123139199D01*
X118181201Y-121953505D01*
X118128924Y-121907149D01*
X118110000Y-121841308D01*
X118110000Y-121069091D01*
X119514500Y-121069091D01*
X119514779Y-121072021D01*
X119514780Y-121072025D01*
X119529948Y-121230874D01*
X119591043Y-121438944D01*
X119690408Y-121631684D01*
X119690410Y-121631687D01*
X119690412Y-121631690D01*
X119824462Y-121802149D01*
X119957050Y-121917037D01*
X119988350Y-121944159D01*
X120089998Y-122002845D01*
X120176151Y-122052585D01*
X120381078Y-122123511D01*
X120595725Y-122154373D01*
X120812334Y-122144055D01*
X121023075Y-122092929D01*
X121111416Y-122052585D01*
X121231104Y-121997926D01*
X121231917Y-121999707D01*
X121283971Y-121981686D01*
X121351871Y-121998152D01*
X121446151Y-122052585D01*
X121651078Y-122123511D01*
X121865725Y-122154373D01*
X122082334Y-122144055D01*
X122293075Y-122092929D01*
X122381416Y-122052585D01*
X122501104Y-121997926D01*
X122501917Y-121999707D01*
X122553971Y-121981686D01*
X122621871Y-121998152D01*
X122716151Y-122052585D01*
X122921078Y-122123511D01*
X123135725Y-122154373D01*
X123352334Y-122144055D01*
X123563075Y-122092929D01*
X123760332Y-122002845D01*
X123848743Y-121939887D01*
X123914765Y-121917037D01*
X123979120Y-121931538D01*
X124062003Y-121975840D01*
X124210000Y-122020734D01*
X124210000Y-121546252D01*
X124218881Y-121500168D01*
X124284460Y-121336362D01*
X124325500Y-121123427D01*
X124325500Y-120919620D01*
X124403920Y-120950000D01*
X124487802Y-120950000D01*
X124570250Y-120934588D01*
X124626111Y-120900000D01*
X124710000Y-120900000D01*
X124710000Y-122020734D01*
X124857996Y-121975840D01*
X125037795Y-121879735D01*
X125195397Y-121750397D01*
X125324735Y-121592795D01*
X125420839Y-121412998D01*
X125480025Y-121217892D01*
X125494680Y-121069091D01*
X216669500Y-121069091D01*
X216669779Y-121072021D01*
X216669780Y-121072025D01*
X216684948Y-121230874D01*
X216746043Y-121438944D01*
X216845408Y-121631684D01*
X216845410Y-121631687D01*
X216845412Y-121631690D01*
X216979462Y-121802149D01*
X217112050Y-121917037D01*
X217143350Y-121944159D01*
X217244998Y-122002845D01*
X217331151Y-122052585D01*
X217536078Y-122123511D01*
X217750725Y-122154373D01*
X217967334Y-122144055D01*
X218178075Y-122092929D01*
X218266416Y-122052585D01*
X218386104Y-121997926D01*
X218386917Y-121999707D01*
X218438971Y-121981686D01*
X218506871Y-121998152D01*
X218601151Y-122052585D01*
X218806078Y-122123511D01*
X219020725Y-122154373D01*
X219237334Y-122144055D01*
X219448075Y-122092929D01*
X219536416Y-122052585D01*
X219656104Y-121997926D01*
X219656917Y-121999707D01*
X219708971Y-121981686D01*
X219776871Y-121998152D01*
X219871151Y-122052585D01*
X220076078Y-122123511D01*
X220290725Y-122154373D01*
X220507334Y-122144055D01*
X220718075Y-122092929D01*
X220915332Y-122002845D01*
X221003743Y-121939887D01*
X221069765Y-121917037D01*
X221134120Y-121931538D01*
X221217003Y-121975840D01*
X221365000Y-122020734D01*
X221365000Y-121546252D01*
X221373881Y-121500168D01*
X221439460Y-121336362D01*
X221480500Y-121123427D01*
X221480500Y-120919620D01*
X221558920Y-120950000D01*
X221642802Y-120950000D01*
X221725250Y-120934588D01*
X221781111Y-120900000D01*
X221865000Y-120900000D01*
X221865000Y-122020734D01*
X222012996Y-121975840D01*
X222192795Y-121879735D01*
X222350397Y-121750397D01*
X222479735Y-121592795D01*
X222575839Y-121412998D01*
X222635025Y-121217892D01*
X222649701Y-121068882D01*
X222650000Y-121062798D01*
X222650000Y-120900000D01*
X221865000Y-120900000D01*
X221781111Y-120900000D01*
X221820610Y-120875543D01*
X221888201Y-120786038D01*
X221918895Y-120678160D01*
X221908546Y-120566479D01*
X221858552Y-120466078D01*
X221775666Y-120390516D01*
X221671080Y-120350000D01*
X221587198Y-120350000D01*
X221504750Y-120365412D01*
X221480500Y-120380427D01*
X221480500Y-120230909D01*
X221465052Y-120069128D01*
X221403957Y-119861058D01*
X221394006Y-119841756D01*
X221378784Y-119812228D01*
X221365000Y-119755409D01*
X221365000Y-119279264D01*
X221865000Y-119279264D01*
X221865000Y-120400000D01*
X222650000Y-120400000D01*
X222650000Y-120237201D01*
X222649701Y-120231117D01*
X222635025Y-120082107D01*
X222575839Y-119887001D01*
X222479735Y-119707204D01*
X222350397Y-119549602D01*
X222192795Y-119420264D01*
X222012994Y-119324157D01*
X221865001Y-119279264D01*
X221865000Y-119279264D01*
X221365000Y-119279264D01*
X221364999Y-119279264D01*
X221217007Y-119324157D01*
X221139496Y-119365587D01*
X221071093Y-119379828D01*
X221018180Y-119359552D01*
X221016905Y-119361762D01*
X220818850Y-119247415D01*
X220613921Y-119176488D01*
X220399276Y-119145627D01*
X220399275Y-119145627D01*
X220290970Y-119150785D01*
X220182665Y-119155945D01*
X219971925Y-119207071D01*
X219763897Y-119302074D01*
X219763084Y-119300294D01*
X219711012Y-119318314D01*
X219643118Y-119301841D01*
X219548850Y-119247415D01*
X219343921Y-119176488D01*
X219129276Y-119145627D01*
X219129275Y-119145627D01*
X219020970Y-119150785D01*
X218912665Y-119155945D01*
X218701925Y-119207071D01*
X218493897Y-119302074D01*
X218493084Y-119300294D01*
X218441012Y-119318314D01*
X218373118Y-119301841D01*
X218278850Y-119247415D01*
X218073921Y-119176488D01*
X217859276Y-119145627D01*
X217859275Y-119145627D01*
X217750970Y-119150785D01*
X217642665Y-119155945D01*
X217431925Y-119207071D01*
X217234664Y-119297156D01*
X217058025Y-119422941D01*
X216908376Y-119579889D01*
X216791137Y-119762314D01*
X216710539Y-119963640D01*
X216669500Y-120176571D01*
X216669500Y-120176573D01*
X216669500Y-121069091D01*
X125494680Y-121069091D01*
X125494701Y-121068882D01*
X125495000Y-121062798D01*
X125495000Y-120900000D01*
X124710000Y-120900000D01*
X124626111Y-120900000D01*
X124665610Y-120875543D01*
X124733201Y-120786038D01*
X124763895Y-120678160D01*
X124753546Y-120566479D01*
X124703552Y-120466078D01*
X124620666Y-120390516D01*
X124516080Y-120350000D01*
X124432198Y-120350000D01*
X124349750Y-120365412D01*
X124325499Y-120380427D01*
X124325500Y-120230909D01*
X124310052Y-120069128D01*
X124248957Y-119861058D01*
X124223783Y-119812228D01*
X124209999Y-119755409D01*
X124209999Y-119279264D01*
X124710000Y-119279264D01*
X124710000Y-120400000D01*
X125495000Y-120400000D01*
X125495000Y-120237201D01*
X125494701Y-120231117D01*
X125480025Y-120082107D01*
X125420839Y-119887001D01*
X125324735Y-119707204D01*
X125195397Y-119549602D01*
X125037795Y-119420264D01*
X124857994Y-119324157D01*
X124710001Y-119279264D01*
X124710000Y-119279264D01*
X124209999Y-119279264D01*
X124062007Y-119324157D01*
X123984496Y-119365587D01*
X123916093Y-119379828D01*
X123863180Y-119359552D01*
X123861905Y-119361762D01*
X123663850Y-119247415D01*
X123458921Y-119176488D01*
X123244276Y-119145627D01*
X123244275Y-119145627D01*
X123135970Y-119150786D01*
X123027665Y-119155945D01*
X122816925Y-119207071D01*
X122608897Y-119302074D01*
X122608084Y-119300294D01*
X122556012Y-119318314D01*
X122488118Y-119301841D01*
X122393850Y-119247415D01*
X122188921Y-119176488D01*
X121974276Y-119145627D01*
X121974275Y-119145627D01*
X121865970Y-119150786D01*
X121757665Y-119155945D01*
X121546925Y-119207071D01*
X121338897Y-119302074D01*
X121338084Y-119300294D01*
X121286012Y-119318314D01*
X121218118Y-119301841D01*
X121123850Y-119247415D01*
X120918921Y-119176488D01*
X120704276Y-119145627D01*
X120704275Y-119145627D01*
X120595970Y-119150786D01*
X120487665Y-119155945D01*
X120276925Y-119207071D01*
X120079664Y-119297156D01*
X119903025Y-119422941D01*
X119753376Y-119579889D01*
X119636137Y-119762314D01*
X119555539Y-119963640D01*
X119514500Y-120176571D01*
X119514500Y-120176573D01*
X119514500Y-121069091D01*
X118110000Y-121069091D01*
X118110000Y-117365320D01*
X137106500Y-117365320D01*
X137106501Y-117369360D01*
X137107029Y-117373373D01*
X137107030Y-117373384D01*
X137121955Y-117486760D01*
X137182464Y-117632841D01*
X137278717Y-117758282D01*
X137392176Y-117845341D01*
X137404159Y-117854536D01*
X137550238Y-117915044D01*
X137667639Y-117930500D01*
X139446360Y-117930499D01*
X139563762Y-117915044D01*
X139709841Y-117854536D01*
X139796214Y-117788259D01*
X139838095Y-117756124D01*
X139903264Y-117730930D01*
X139913581Y-117730500D01*
X143500419Y-117730500D01*
X143567458Y-117750185D01*
X143575905Y-117756124D01*
X143692176Y-117845341D01*
X143704159Y-117854536D01*
X143850238Y-117915044D01*
X143967639Y-117930500D01*
X145746360Y-117930499D01*
X145863762Y-117915044D01*
X146009841Y-117854536D01*
X146096214Y-117788259D01*
X146138095Y-117756124D01*
X146203264Y-117730930D01*
X146213581Y-117730500D01*
X147086533Y-117730500D01*
X147144985Y-117745141D01*
X147189273Y-117768814D01*
X147377868Y-117826024D01*
X147574000Y-117845341D01*
X147770132Y-117826024D01*
X147958727Y-117768814D01*
X148132538Y-117675910D01*
X148284883Y-117550883D01*
X148409910Y-117398538D01*
X148502814Y-117224727D01*
X148560024Y-117036132D01*
X148579341Y-116840000D01*
X148560024Y-116643868D01*
X148502814Y-116455273D01*
X148409910Y-116281462D01*
X148284883Y-116129117D01*
X148132538Y-116004090D01*
X148110091Y-115992091D01*
X147958726Y-115911185D01*
X147770133Y-115853976D01*
X147574000Y-115834659D01*
X147377866Y-115853976D01*
X147189274Y-115911185D01*
X147185422Y-115913244D01*
X147182400Y-115914859D01*
X147123950Y-115929500D01*
X146213581Y-115929500D01*
X146146542Y-115909815D01*
X146138095Y-115903876D01*
X146009840Y-115805463D01*
X145863762Y-115744956D01*
X145750380Y-115730029D01*
X145750378Y-115730028D01*
X145746361Y-115729500D01*
X145742307Y-115729500D01*
X143971694Y-115729500D01*
X143971678Y-115729500D01*
X143967640Y-115729501D01*
X143963627Y-115730029D01*
X143963615Y-115730030D01*
X143850239Y-115744955D01*
X143704158Y-115805464D01*
X143575905Y-115903876D01*
X143510736Y-115929070D01*
X143500419Y-115929500D01*
X139913581Y-115929500D01*
X139846542Y-115909815D01*
X139838095Y-115903876D01*
X139709840Y-115805463D01*
X139563762Y-115744956D01*
X139450380Y-115730029D01*
X139450378Y-115730028D01*
X139446361Y-115729500D01*
X139442307Y-115729500D01*
X137671694Y-115729500D01*
X137671678Y-115729500D01*
X137667640Y-115729501D01*
X137663627Y-115730029D01*
X137663615Y-115730030D01*
X137550239Y-115744955D01*
X137404158Y-115805464D01*
X137278717Y-115901717D01*
X137182463Y-116027159D01*
X137121956Y-116173237D01*
X137121956Y-116173238D01*
X137106500Y-116290639D01*
X137106500Y-116294691D01*
X137106500Y-116294692D01*
X137106500Y-117365305D01*
X137106500Y-117365320D01*
X118110000Y-117365320D01*
X118110000Y-113280000D01*
X137207000Y-113280000D01*
X137207000Y-113574518D01*
X137207354Y-113581132D01*
X137213400Y-113637371D01*
X137263647Y-113772089D01*
X137349811Y-113887188D01*
X137464910Y-113973352D01*
X137599628Y-114023599D01*
X137655867Y-114029645D01*
X137662482Y-114030000D01*
X138307000Y-114030000D01*
X138307000Y-113280000D01*
X138807000Y-113280000D01*
X138807000Y-114030000D01*
X139451518Y-114030000D01*
X139458132Y-114029645D01*
X139514371Y-114023599D01*
X139649089Y-113973352D01*
X139764188Y-113887188D01*
X139850352Y-113772089D01*
X139900599Y-113637371D01*
X139906645Y-113581132D01*
X139907000Y-113574518D01*
X139907000Y-113280000D01*
X143507000Y-113280000D01*
X143507000Y-113574518D01*
X143507354Y-113581132D01*
X143513400Y-113637371D01*
X143563647Y-113772089D01*
X143649811Y-113887188D01*
X143764910Y-113973352D01*
X143899628Y-114023599D01*
X143955867Y-114029645D01*
X143962482Y-114030000D01*
X144607000Y-114030000D01*
X144607000Y-113280000D01*
X145107000Y-113280000D01*
X145107000Y-114030000D01*
X145751518Y-114030000D01*
X145758132Y-114029645D01*
X145814371Y-114023599D01*
X145949089Y-113973352D01*
X146064188Y-113887188D01*
X146150352Y-113772089D01*
X146200599Y-113637371D01*
X146206645Y-113581132D01*
X146207000Y-113574518D01*
X146207000Y-113280000D01*
X145107000Y-113280000D01*
X144607000Y-113280000D01*
X143507000Y-113280000D01*
X139907000Y-113280000D01*
X138807000Y-113280000D01*
X138307000Y-113280000D01*
X137207000Y-113280000D01*
X118110000Y-113280000D01*
X118110000Y-112780000D01*
X137207000Y-112780000D01*
X138307000Y-112780000D01*
X138307000Y-112030000D01*
X138807000Y-112030000D01*
X138807000Y-112780000D01*
X139907000Y-112780000D01*
X143507000Y-112780000D01*
X144607000Y-112780000D01*
X144607000Y-112030000D01*
X145107000Y-112030000D01*
X145107000Y-112780000D01*
X146207000Y-112780000D01*
X146207000Y-112485481D01*
X146206645Y-112478867D01*
X146200599Y-112422628D01*
X146150352Y-112287910D01*
X146064188Y-112172811D01*
X145949089Y-112086647D01*
X145814371Y-112036400D01*
X145758132Y-112030354D01*
X145751518Y-112030000D01*
X145107000Y-112030000D01*
X144607000Y-112030000D01*
X143962482Y-112030000D01*
X143955867Y-112030354D01*
X143899628Y-112036400D01*
X143764910Y-112086647D01*
X143649811Y-112172811D01*
X143563647Y-112287910D01*
X143513400Y-112422628D01*
X143507354Y-112478867D01*
X143507000Y-112485481D01*
X143507000Y-112780000D01*
X139907000Y-112780000D01*
X139907000Y-112485481D01*
X139906645Y-112478867D01*
X139900599Y-112422628D01*
X139850352Y-112287910D01*
X139764188Y-112172811D01*
X139649089Y-112086647D01*
X139514371Y-112036400D01*
X139458132Y-112030354D01*
X139451518Y-112030000D01*
X138807000Y-112030000D01*
X138307000Y-112030000D01*
X137662482Y-112030000D01*
X137655867Y-112030354D01*
X137599628Y-112036400D01*
X137464910Y-112086647D01*
X137349811Y-112172811D01*
X137263647Y-112287910D01*
X137213400Y-112422628D01*
X137207354Y-112478867D01*
X137207000Y-112485481D01*
X137207000Y-112780000D01*
X118110000Y-112780000D01*
X118110000Y-107210320D01*
X129384500Y-107210320D01*
X129384501Y-107214360D01*
X129385029Y-107218373D01*
X129385030Y-107218384D01*
X129399955Y-107331760D01*
X129460464Y-107477841D01*
X129556717Y-107603282D01*
X129563927Y-107608814D01*
X129682159Y-107699536D01*
X129828238Y-107760044D01*
X129945639Y-107775500D01*
X131724360Y-107775499D01*
X131841762Y-107760044D01*
X131987841Y-107699536D01*
X132106073Y-107608814D01*
X132116095Y-107601124D01*
X132181264Y-107575930D01*
X132191581Y-107575500D01*
X135778419Y-107575500D01*
X135845458Y-107595185D01*
X135853905Y-107601124D01*
X135863927Y-107608814D01*
X135982159Y-107699536D01*
X136128238Y-107760044D01*
X136245639Y-107775500D01*
X138024360Y-107775499D01*
X138141762Y-107760044D01*
X138287841Y-107699536D01*
X138406073Y-107608814D01*
X138409579Y-107606124D01*
X138474748Y-107580930D01*
X138485065Y-107580500D01*
X139358242Y-107580500D01*
X139416693Y-107595141D01*
X139442273Y-107608814D01*
X139630868Y-107666024D01*
X139827000Y-107685341D01*
X140023132Y-107666024D01*
X140211727Y-107608814D01*
X140385538Y-107515910D01*
X140537883Y-107390883D01*
X140662910Y-107238538D01*
X140755814Y-107064727D01*
X140813024Y-106876132D01*
X140832341Y-106680000D01*
X140813024Y-106483868D01*
X140755814Y-106295273D01*
X140662910Y-106121462D01*
X140537883Y-105969117D01*
X140385538Y-105844090D01*
X140334482Y-105816800D01*
X140211726Y-105751185D01*
X140023133Y-105693976D01*
X139925066Y-105684317D01*
X139827000Y-105674659D01*
X139826999Y-105674659D01*
X139630866Y-105693976D01*
X139442273Y-105751185D01*
X139426129Y-105759815D01*
X139416693Y-105764858D01*
X139358242Y-105779500D01*
X138498097Y-105779500D01*
X138431058Y-105759815D01*
X138422611Y-105753876D01*
X138287840Y-105650463D01*
X138141762Y-105589956D01*
X138028380Y-105575029D01*
X138028378Y-105575028D01*
X138024361Y-105574500D01*
X138020307Y-105574500D01*
X136249694Y-105574500D01*
X136249678Y-105574500D01*
X136245640Y-105574501D01*
X136241627Y-105575029D01*
X136241615Y-105575030D01*
X136128239Y-105589955D01*
X135982158Y-105650464D01*
X135853905Y-105748876D01*
X135788736Y-105774070D01*
X135778419Y-105774500D01*
X132191581Y-105774500D01*
X132124542Y-105754815D01*
X132116095Y-105748876D01*
X131987840Y-105650463D01*
X131841762Y-105589956D01*
X131728380Y-105575029D01*
X131728378Y-105575028D01*
X131724361Y-105574500D01*
X131720307Y-105574500D01*
X129949694Y-105574500D01*
X129949678Y-105574500D01*
X129945640Y-105574501D01*
X129941627Y-105575029D01*
X129941615Y-105575030D01*
X129828239Y-105589955D01*
X129682158Y-105650464D01*
X129556717Y-105746717D01*
X129460463Y-105872159D01*
X129399956Y-106018237D01*
X129399956Y-106018238D01*
X129384500Y-106135639D01*
X129384500Y-106139691D01*
X129384500Y-106139692D01*
X129384500Y-107210305D01*
X129384500Y-107210320D01*
X118110000Y-107210320D01*
X118110000Y-103125000D01*
X129485000Y-103125000D01*
X129485000Y-103419518D01*
X129485354Y-103426132D01*
X129491400Y-103482371D01*
X129541647Y-103617089D01*
X129627811Y-103732188D01*
X129742910Y-103818352D01*
X129877628Y-103868599D01*
X129933867Y-103874645D01*
X129940482Y-103875000D01*
X130585000Y-103875000D01*
X130585000Y-103125000D01*
X131085000Y-103125000D01*
X131085000Y-103875000D01*
X131729518Y-103875000D01*
X131736132Y-103874645D01*
X131792371Y-103868599D01*
X131927089Y-103818352D01*
X132042188Y-103732188D01*
X132128352Y-103617089D01*
X132178599Y-103482371D01*
X132184645Y-103426132D01*
X132185000Y-103419518D01*
X132185000Y-103125000D01*
X135785000Y-103125000D01*
X135785000Y-103419518D01*
X135785354Y-103426132D01*
X135791400Y-103482371D01*
X135841647Y-103617089D01*
X135927811Y-103732188D01*
X136042910Y-103818352D01*
X136177628Y-103868599D01*
X136233867Y-103874645D01*
X136240482Y-103875000D01*
X136885000Y-103875000D01*
X136885000Y-103125000D01*
X137385000Y-103125000D01*
X137385000Y-103875000D01*
X138029518Y-103875000D01*
X138036132Y-103874645D01*
X138092371Y-103868599D01*
X138227089Y-103818352D01*
X138342188Y-103732188D01*
X138428352Y-103617089D01*
X138478599Y-103482371D01*
X138484645Y-103426132D01*
X138485000Y-103419518D01*
X138485000Y-103125000D01*
X137385000Y-103125000D01*
X136885000Y-103125000D01*
X135785000Y-103125000D01*
X132185000Y-103125000D01*
X131085000Y-103125000D01*
X130585000Y-103125000D01*
X129485000Y-103125000D01*
X118110000Y-103125000D01*
X118110000Y-102625000D01*
X129485000Y-102625000D01*
X130585000Y-102625000D01*
X130585000Y-101875000D01*
X131085000Y-101875000D01*
X131085000Y-102625000D01*
X132185000Y-102625000D01*
X135785000Y-102625000D01*
X136885000Y-102625000D01*
X136885000Y-101875000D01*
X137385000Y-101875000D01*
X137385000Y-102625000D01*
X138485000Y-102625000D01*
X138485000Y-102330481D01*
X138484645Y-102323867D01*
X138478599Y-102267628D01*
X138428352Y-102132910D01*
X138342188Y-102017811D01*
X138227089Y-101931647D01*
X138092371Y-101881400D01*
X138036132Y-101875354D01*
X138029518Y-101875000D01*
X137385000Y-101875000D01*
X136885000Y-101875000D01*
X136240482Y-101875000D01*
X136233867Y-101875354D01*
X136177628Y-101881400D01*
X136042910Y-101931647D01*
X135927811Y-102017811D01*
X135841647Y-102132910D01*
X135791400Y-102267628D01*
X135785354Y-102323867D01*
X135785000Y-102330481D01*
X135785000Y-102625000D01*
X132185000Y-102625000D01*
X132185000Y-102330481D01*
X132184645Y-102323867D01*
X132178599Y-102267628D01*
X132128352Y-102132910D01*
X132042188Y-102017811D01*
X131927089Y-101931647D01*
X131792371Y-101881400D01*
X131736132Y-101875354D01*
X131729518Y-101875000D01*
X131085000Y-101875000D01*
X130585000Y-101875000D01*
X129940482Y-101875000D01*
X129933867Y-101875354D01*
X129877628Y-101881400D01*
X129742910Y-101931647D01*
X129627811Y-102017811D01*
X129541647Y-102132910D01*
X129491400Y-102267628D01*
X129485354Y-102323867D01*
X129485000Y-102330481D01*
X129485000Y-102625000D01*
X118110000Y-102625000D01*
X118110000Y-97050320D01*
X121764500Y-97050320D01*
X121764501Y-97054360D01*
X121765029Y-97058373D01*
X121765030Y-97058384D01*
X121779955Y-97171760D01*
X121840464Y-97317841D01*
X121936717Y-97443282D01*
X122048805Y-97529289D01*
X122062159Y-97539536D01*
X122208238Y-97600044D01*
X122325639Y-97615500D01*
X124104360Y-97615499D01*
X124221762Y-97600044D01*
X124367841Y-97539536D01*
X124454214Y-97473259D01*
X124496095Y-97441124D01*
X124561264Y-97415930D01*
X124571581Y-97415500D01*
X128158419Y-97415500D01*
X128225458Y-97435185D01*
X128233905Y-97441124D01*
X128348805Y-97529289D01*
X128362159Y-97539536D01*
X128508238Y-97600044D01*
X128625639Y-97615500D01*
X130404360Y-97615499D01*
X130521762Y-97600044D01*
X130667841Y-97539536D01*
X130744119Y-97481005D01*
X130789579Y-97446124D01*
X130854748Y-97420930D01*
X130865065Y-97420500D01*
X131738242Y-97420500D01*
X131796693Y-97435141D01*
X131822273Y-97448814D01*
X132010868Y-97506024D01*
X132207000Y-97525341D01*
X132403132Y-97506024D01*
X132591727Y-97448814D01*
X132765538Y-97355910D01*
X132917883Y-97230883D01*
X133042910Y-97078538D01*
X133135814Y-96904727D01*
X133193024Y-96716132D01*
X133212341Y-96520000D01*
X133193024Y-96323868D01*
X133135814Y-96135273D01*
X133042910Y-95961462D01*
X132917883Y-95809117D01*
X132765538Y-95684090D01*
X132743091Y-95672092D01*
X132591726Y-95591185D01*
X132403133Y-95533976D01*
X132305065Y-95524317D01*
X132207000Y-95514659D01*
X132206999Y-95514659D01*
X132010866Y-95533976D01*
X131822273Y-95591185D01*
X131808589Y-95598500D01*
X131796693Y-95604858D01*
X131738242Y-95619500D01*
X130878097Y-95619500D01*
X130811058Y-95599815D01*
X130802611Y-95593876D01*
X130667840Y-95490463D01*
X130521762Y-95429956D01*
X130408380Y-95415029D01*
X130408378Y-95415028D01*
X130404361Y-95414500D01*
X130400307Y-95414500D01*
X128629694Y-95414500D01*
X128629678Y-95414500D01*
X128625640Y-95414501D01*
X128621627Y-95415029D01*
X128621615Y-95415030D01*
X128508239Y-95429955D01*
X128362158Y-95490464D01*
X128233905Y-95588876D01*
X128168736Y-95614070D01*
X128158419Y-95614500D01*
X124571581Y-95614500D01*
X124504542Y-95594815D01*
X124496095Y-95588876D01*
X124367840Y-95490463D01*
X124221762Y-95429956D01*
X124108380Y-95415029D01*
X124108378Y-95415028D01*
X124104361Y-95414500D01*
X124100307Y-95414500D01*
X122329694Y-95414500D01*
X122329678Y-95414500D01*
X122325640Y-95414501D01*
X122321627Y-95415029D01*
X122321615Y-95415030D01*
X122208239Y-95429955D01*
X122062158Y-95490464D01*
X121936717Y-95586717D01*
X121840463Y-95712159D01*
X121779956Y-95858237D01*
X121766443Y-95960883D01*
X121764500Y-95975639D01*
X121764500Y-95979691D01*
X121764500Y-95979692D01*
X121764500Y-97050305D01*
X121764500Y-97050320D01*
X118110000Y-97050320D01*
X118110000Y-92965000D01*
X121865000Y-92965000D01*
X121865000Y-93259518D01*
X121865354Y-93266132D01*
X121871400Y-93322371D01*
X121921647Y-93457089D01*
X122007811Y-93572188D01*
X122122910Y-93658352D01*
X122257628Y-93708599D01*
X122313867Y-93714645D01*
X122320482Y-93715000D01*
X122965000Y-93715000D01*
X122965000Y-92965000D01*
X123465000Y-92965000D01*
X123465000Y-93715000D01*
X124109518Y-93715000D01*
X124116132Y-93714645D01*
X124172371Y-93708599D01*
X124307089Y-93658352D01*
X124422188Y-93572188D01*
X124508352Y-93457089D01*
X124558599Y-93322371D01*
X124564645Y-93266132D01*
X124565000Y-93259518D01*
X124565000Y-92965000D01*
X128165000Y-92965000D01*
X128165000Y-93259518D01*
X128165354Y-93266132D01*
X128171400Y-93322371D01*
X128221647Y-93457089D01*
X128307811Y-93572188D01*
X128422910Y-93658352D01*
X128557628Y-93708599D01*
X128613867Y-93714645D01*
X128620482Y-93715000D01*
X129265000Y-93715000D01*
X129265000Y-92965000D01*
X129765000Y-92965000D01*
X129765000Y-93715000D01*
X130409518Y-93715000D01*
X130416132Y-93714645D01*
X130472371Y-93708599D01*
X130607089Y-93658352D01*
X130722188Y-93572188D01*
X130808352Y-93457089D01*
X130858599Y-93322371D01*
X130864645Y-93266132D01*
X130865000Y-93259518D01*
X130865000Y-92965000D01*
X129765000Y-92965000D01*
X129265000Y-92965000D01*
X128165000Y-92965000D01*
X124565000Y-92965000D01*
X123465000Y-92965000D01*
X122965000Y-92965000D01*
X121865000Y-92965000D01*
X118110000Y-92965000D01*
X118110000Y-92465000D01*
X121865000Y-92465000D01*
X122965000Y-92465000D01*
X122965000Y-91715000D01*
X123465000Y-91715000D01*
X123465000Y-92465000D01*
X124565000Y-92465000D01*
X128165000Y-92465000D01*
X129265000Y-92465000D01*
X129265000Y-91715000D01*
X129765000Y-91715000D01*
X129765000Y-92465000D01*
X130865000Y-92465000D01*
X130865000Y-92170481D01*
X130864645Y-92163867D01*
X130858599Y-92107628D01*
X130808352Y-91972910D01*
X130722188Y-91857811D01*
X130607089Y-91771647D01*
X130472371Y-91721400D01*
X130416132Y-91715354D01*
X130409518Y-91715000D01*
X129765000Y-91715000D01*
X129265000Y-91715000D01*
X128620482Y-91715000D01*
X128613867Y-91715354D01*
X128557628Y-91721400D01*
X128422910Y-91771647D01*
X128307811Y-91857811D01*
X128221647Y-91972910D01*
X128171400Y-92107628D01*
X128165354Y-92163867D01*
X128165000Y-92170481D01*
X128165000Y-92465000D01*
X124565000Y-92465000D01*
X124565000Y-92170481D01*
X124564645Y-92163867D01*
X124558599Y-92107628D01*
X124508352Y-91972910D01*
X124422188Y-91857811D01*
X124307089Y-91771647D01*
X124172371Y-91721400D01*
X124116132Y-91715354D01*
X124109518Y-91715000D01*
X123465000Y-91715000D01*
X122965000Y-91715000D01*
X122320482Y-91715000D01*
X122313867Y-91715354D01*
X122257628Y-91721400D01*
X122122910Y-91771647D01*
X122007811Y-91857811D01*
X121921647Y-91972910D01*
X121871400Y-92107628D01*
X121865354Y-92163867D01*
X121865000Y-92170481D01*
X121865000Y-92465000D01*
X118110000Y-92465000D01*
X118110000Y-83057999D01*
X119223707Y-83057999D01*
X119242838Y-83276671D01*
X119242839Y-83276674D01*
X119299653Y-83488703D01*
X119392421Y-83687646D01*
X119518326Y-83867457D01*
X119673543Y-84022674D01*
X119853354Y-84148579D01*
X120052297Y-84241347D01*
X120264326Y-84298161D01*
X120410108Y-84310914D01*
X120482999Y-84317292D01*
X120482999Y-84317291D01*
X120483000Y-84317292D01*
X120701674Y-84298161D01*
X120913703Y-84241347D01*
X121112646Y-84148579D01*
X121138320Y-84130601D01*
X121209267Y-84080925D01*
X121275473Y-84058598D01*
X121280390Y-84058500D01*
X127296217Y-84058500D01*
X127363256Y-84078185D01*
X127383898Y-84094819D01*
X135236449Y-91947370D01*
X135238642Y-91949619D01*
X135298941Y-92013053D01*
X135347358Y-92046752D01*
X135354870Y-92052417D01*
X135388317Y-92079688D01*
X135400593Y-92089698D01*
X135427559Y-92103784D01*
X135440975Y-92111912D01*
X135465951Y-92129295D01*
X135479559Y-92135134D01*
X135520156Y-92152557D01*
X135528654Y-92156592D01*
X135580951Y-92183910D01*
X135595811Y-92188161D01*
X135610191Y-92192276D01*
X135624983Y-92197542D01*
X135652937Y-92209538D01*
X135652942Y-92209540D01*
X135710714Y-92221412D01*
X135719862Y-92223657D01*
X135776582Y-92239887D01*
X135806916Y-92242196D01*
X135822453Y-92244374D01*
X135852259Y-92250500D01*
X135911243Y-92250500D01*
X135920657Y-92250858D01*
X135979477Y-92255337D01*
X136009652Y-92251493D01*
X136025318Y-92250500D01*
X142373742Y-92250500D01*
X142440781Y-92270185D01*
X142446699Y-92274346D01*
X142489033Y-92291881D01*
X142593238Y-92335044D01*
X142710639Y-92350500D01*
X144289360Y-92350499D01*
X144406762Y-92335044D01*
X144552841Y-92274536D01*
X144678282Y-92178282D01*
X144774536Y-92052841D01*
X144835044Y-91906762D01*
X144850500Y-91789361D01*
X144850499Y-90710640D01*
X144846954Y-90683712D01*
X144838065Y-90616183D01*
X144838065Y-90583815D01*
X144840460Y-90565616D01*
X144850500Y-90489361D01*
X144850499Y-89410640D01*
X144835044Y-89293238D01*
X144774536Y-89147159D01*
X144740561Y-89102882D01*
X144678282Y-89021717D01*
X144552840Y-88925463D01*
X144406762Y-88864956D01*
X144293380Y-88850029D01*
X144293378Y-88850028D01*
X144289361Y-88849500D01*
X144285307Y-88849500D01*
X142714694Y-88849500D01*
X142714678Y-88849500D01*
X142710640Y-88849501D01*
X142706627Y-88850029D01*
X142706615Y-88850030D01*
X142593239Y-88864955D01*
X142432077Y-88931711D01*
X142431646Y-88930672D01*
X142384059Y-88949070D01*
X142373742Y-88949500D01*
X137405782Y-88949500D01*
X137338743Y-88929815D01*
X137318101Y-88913181D01*
X125685567Y-77280647D01*
X125683412Y-77278438D01*
X125623059Y-77214947D01*
X125574640Y-77181246D01*
X125567118Y-77175575D01*
X125554004Y-77164882D01*
X125521407Y-77138302D01*
X125521408Y-77138302D01*
X125521405Y-77138300D01*
X125494440Y-77124215D01*
X125481019Y-77116084D01*
X125456049Y-77098705D01*
X125456048Y-77098704D01*
X125456046Y-77098703D01*
X125401845Y-77075443D01*
X125393336Y-77071402D01*
X125341053Y-77044092D01*
X125335126Y-77042396D01*
X125311798Y-77035721D01*
X125297020Y-77030459D01*
X125269058Y-77018460D01*
X125211272Y-77006583D01*
X125202128Y-77004338D01*
X125145421Y-76988113D01*
X125115075Y-76985802D01*
X125099534Y-76983622D01*
X125069742Y-76977500D01*
X125069741Y-76977500D01*
X125010758Y-76977500D01*
X125001344Y-76977142D01*
X124992198Y-76976445D01*
X124942524Y-76972663D01*
X124942523Y-76972663D01*
X124942522Y-76972663D01*
X124912349Y-76976506D01*
X124896683Y-76977500D01*
X121280390Y-76977500D01*
X121213351Y-76957815D01*
X121209267Y-76955075D01*
X121112645Y-76887420D01*
X120968880Y-76820382D01*
X120916440Y-76774210D01*
X120897288Y-76707017D01*
X120917504Y-76640135D01*
X120968880Y-76595618D01*
X121112642Y-76528581D01*
X121112642Y-76528580D01*
X121112646Y-76528579D01*
X121292457Y-76402674D01*
X121447674Y-76247457D01*
X121573579Y-76067646D01*
X121666347Y-75868703D01*
X121723161Y-75656674D01*
X121742292Y-75438000D01*
X121723161Y-75219326D01*
X121666347Y-75007297D01*
X121573579Y-74808354D01*
X121447674Y-74628543D01*
X121292457Y-74473326D01*
X121112646Y-74347421D01*
X121112642Y-74347418D01*
X120968880Y-74280382D01*
X120916440Y-74234210D01*
X120897288Y-74167017D01*
X120917504Y-74100135D01*
X120968880Y-74055618D01*
X121112642Y-73988581D01*
X121112642Y-73988580D01*
X121112646Y-73988579D01*
X121292457Y-73862674D01*
X121447674Y-73707457D01*
X121573579Y-73527646D01*
X121666347Y-73328703D01*
X121723161Y-73116674D01*
X121742292Y-72898000D01*
X121723161Y-72679326D01*
X121666347Y-72467297D01*
X121573579Y-72268354D01*
X121447674Y-72088543D01*
X121292457Y-71933326D01*
X121145243Y-71830246D01*
X121112642Y-71807418D01*
X120968880Y-71740382D01*
X120916440Y-71694210D01*
X120897288Y-71627017D01*
X120917504Y-71560135D01*
X120968880Y-71515618D01*
X121112642Y-71448581D01*
X121112642Y-71448580D01*
X121112646Y-71448579D01*
X121292457Y-71322674D01*
X121447674Y-71167457D01*
X121573579Y-70987646D01*
X121666347Y-70788703D01*
X121723161Y-70576674D01*
X121742292Y-70358000D01*
X121724410Y-70153597D01*
X121738177Y-70085097D01*
X121760254Y-70055112D01*
X124309547Y-67505819D01*
X124370871Y-67472334D01*
X124397229Y-67469500D01*
X137152875Y-67469500D01*
X137219914Y-67489185D01*
X137265669Y-67541989D01*
X137276403Y-67604307D01*
X137257707Y-67818000D01*
X137276838Y-68036671D01*
X137276839Y-68036674D01*
X137333653Y-68248703D01*
X137426421Y-68447646D01*
X137552326Y-68627457D01*
X137707543Y-68782674D01*
X137887354Y-68908579D01*
X137991278Y-68957039D01*
X138031120Y-68975618D01*
X138083559Y-69021790D01*
X138102711Y-69088984D01*
X138082495Y-69155865D01*
X138031120Y-69200382D01*
X137978114Y-69225099D01*
X137887354Y-69267421D01*
X137708747Y-69392483D01*
X137707539Y-69393329D01*
X137552329Y-69548539D01*
X137552326Y-69548542D01*
X137552326Y-69548543D01*
X137444433Y-69702631D01*
X137426420Y-69728356D01*
X137333653Y-69927295D01*
X137276838Y-70139328D01*
X137257707Y-70358000D01*
X137276838Y-70576671D01*
X137303764Y-70677160D01*
X137333653Y-70788703D01*
X137426421Y-70987646D01*
X137552326Y-71167457D01*
X137707543Y-71322674D01*
X137887354Y-71448579D01*
X137998022Y-71500184D01*
X138031120Y-71515618D01*
X138083559Y-71561790D01*
X138102711Y-71628984D01*
X138082495Y-71695865D01*
X138031120Y-71740382D01*
X137936429Y-71784537D01*
X137887354Y-71807421D01*
X137707543Y-71933326D01*
X137707539Y-71933329D01*
X137552329Y-72088539D01*
X137552326Y-72088542D01*
X137552326Y-72088543D01*
X137480746Y-72190771D01*
X137426420Y-72268356D01*
X137333653Y-72467295D01*
X137276838Y-72679328D01*
X137257707Y-72897999D01*
X137276838Y-73116671D01*
X137333653Y-73328704D01*
X137376999Y-73421659D01*
X137426421Y-73527646D01*
X137552326Y-73707457D01*
X137707543Y-73862674D01*
X137887354Y-73988579D01*
X137998022Y-74040184D01*
X138031120Y-74055618D01*
X138083559Y-74101790D01*
X138102711Y-74168984D01*
X138082495Y-74235865D01*
X138031120Y-74280382D01*
X137978114Y-74305099D01*
X137887354Y-74347421D01*
X137769155Y-74430185D01*
X137707539Y-74473329D01*
X137552329Y-74628539D01*
X137552326Y-74628542D01*
X137552326Y-74628543D01*
X137480746Y-74730771D01*
X137426420Y-74808356D01*
X137333653Y-75007295D01*
X137276838Y-75219328D01*
X137257707Y-75438000D01*
X137276838Y-75656671D01*
X137333653Y-75868704D01*
X137370319Y-75947335D01*
X137426421Y-76067646D01*
X137552326Y-76247457D01*
X137707543Y-76402674D01*
X137887354Y-76528579D01*
X138031119Y-76595617D01*
X138083559Y-76641789D01*
X138102711Y-76708982D01*
X138082496Y-76775863D01*
X138031120Y-76820381D01*
X137887356Y-76887420D01*
X137887354Y-76887421D01*
X137707543Y-77013326D01*
X137707539Y-77013329D01*
X137552329Y-77168539D01*
X137552326Y-77168542D01*
X137552326Y-77168543D01*
X137480746Y-77270771D01*
X137426420Y-77348356D01*
X137333653Y-77547295D01*
X137276838Y-77759328D01*
X137257707Y-77978000D01*
X137276838Y-78196671D01*
X137333653Y-78408704D01*
X137376685Y-78500986D01*
X137426421Y-78607646D01*
X137552326Y-78787457D01*
X137707543Y-78942674D01*
X137887354Y-79068579D01*
X137998022Y-79120184D01*
X138031120Y-79135618D01*
X138083559Y-79181790D01*
X138102711Y-79248984D01*
X138082495Y-79315865D01*
X138031120Y-79360382D01*
X137978114Y-79385099D01*
X137887354Y-79427421D01*
X137707543Y-79553326D01*
X137707539Y-79553329D01*
X137552329Y-79708539D01*
X137552326Y-79708542D01*
X137552326Y-79708543D01*
X137480746Y-79810771D01*
X137426420Y-79888356D01*
X137333653Y-80087295D01*
X137276838Y-80299328D01*
X137257707Y-80518000D01*
X137276838Y-80736671D01*
X137314046Y-80875532D01*
X137333653Y-80948703D01*
X137426421Y-81147646D01*
X137552326Y-81327457D01*
X137707543Y-81482674D01*
X137887354Y-81608579D01*
X137998022Y-81660184D01*
X138031120Y-81675618D01*
X138083559Y-81721790D01*
X138102711Y-81788984D01*
X138082495Y-81855865D01*
X138031120Y-81900382D01*
X137978114Y-81925099D01*
X137887354Y-81967421D01*
X137790734Y-82035075D01*
X137707539Y-82093329D01*
X137552329Y-82248539D01*
X137552326Y-82248542D01*
X137552326Y-82248543D01*
X137480746Y-82350771D01*
X137426420Y-82428356D01*
X137333653Y-82627295D01*
X137276838Y-82839328D01*
X137257707Y-83058000D01*
X137276838Y-83276671D01*
X137276839Y-83276674D01*
X137333653Y-83488703D01*
X137426421Y-83687646D01*
X137552326Y-83867457D01*
X137707543Y-84022674D01*
X137887354Y-84148579D01*
X138086297Y-84241347D01*
X138298326Y-84298161D01*
X138517000Y-84317292D01*
X138735674Y-84298161D01*
X138947703Y-84241347D01*
X139146646Y-84148579D01*
X139326457Y-84022674D01*
X139481674Y-83867457D01*
X139607579Y-83687646D01*
X139700347Y-83488703D01*
X139757161Y-83276674D01*
X139776292Y-83058000D01*
X139757161Y-82839326D01*
X139700347Y-82627297D01*
X139607579Y-82428354D01*
X139481674Y-82248543D01*
X139326457Y-82093326D01*
X139146646Y-81967421D01*
X139146642Y-81967418D01*
X139002880Y-81900382D01*
X138950440Y-81854210D01*
X138931288Y-81787017D01*
X138951504Y-81720135D01*
X139002880Y-81675618D01*
X139146642Y-81608581D01*
X139146642Y-81608580D01*
X139146646Y-81608579D01*
X139326457Y-81482674D01*
X139481674Y-81327457D01*
X139607579Y-81147646D01*
X139700347Y-80948703D01*
X139757161Y-80736674D01*
X139776292Y-80518000D01*
X139757161Y-80299326D01*
X139700347Y-80087297D01*
X139607579Y-79888354D01*
X139481674Y-79708543D01*
X139326457Y-79553326D01*
X139146646Y-79427421D01*
X139146642Y-79427418D01*
X139002880Y-79360382D01*
X138950440Y-79314210D01*
X138931288Y-79247017D01*
X138951504Y-79180135D01*
X139002880Y-79135618D01*
X139146642Y-79068581D01*
X139146642Y-79068580D01*
X139146646Y-79068579D01*
X139326457Y-78942674D01*
X139481674Y-78787457D01*
X139607579Y-78607646D01*
X139700347Y-78408703D01*
X139757161Y-78196674D01*
X139776292Y-77978000D01*
X139757161Y-77759326D01*
X139700347Y-77547297D01*
X139607579Y-77348354D01*
X139481674Y-77168543D01*
X139326457Y-77013326D01*
X139146646Y-76887421D01*
X139099306Y-76865346D01*
X139002879Y-76820381D01*
X138950440Y-76774208D01*
X138931288Y-76707015D01*
X138951504Y-76640134D01*
X139002875Y-76595619D01*
X139146646Y-76528579D01*
X139326457Y-76402674D01*
X139481674Y-76247457D01*
X139607579Y-76067646D01*
X139700347Y-75868703D01*
X139757161Y-75656674D01*
X139776292Y-75438000D01*
X139757161Y-75219326D01*
X139700347Y-75007297D01*
X139607579Y-74808354D01*
X139481674Y-74628543D01*
X139326457Y-74473326D01*
X139146646Y-74347421D01*
X139146642Y-74347418D01*
X139002880Y-74280382D01*
X138950440Y-74234210D01*
X138931288Y-74167017D01*
X138951504Y-74100135D01*
X139002880Y-74055618D01*
X139146642Y-73988581D01*
X139146642Y-73988580D01*
X139146646Y-73988579D01*
X139326457Y-73862674D01*
X139481674Y-73707457D01*
X139607579Y-73527646D01*
X139700347Y-73328703D01*
X139757161Y-73116674D01*
X139776292Y-72898000D01*
X139757161Y-72679326D01*
X139700347Y-72467297D01*
X139607579Y-72268354D01*
X139481674Y-72088543D01*
X139326457Y-71933326D01*
X139179243Y-71830246D01*
X139146642Y-71807418D01*
X139002880Y-71740382D01*
X138950440Y-71694210D01*
X138931288Y-71627017D01*
X138951504Y-71560135D01*
X139002880Y-71515618D01*
X139146642Y-71448581D01*
X139146642Y-71448580D01*
X139146646Y-71448579D01*
X139326457Y-71322674D01*
X139481674Y-71167457D01*
X139607579Y-70987646D01*
X139700347Y-70788703D01*
X139757161Y-70576674D01*
X139776292Y-70358000D01*
X139757161Y-70139326D01*
X139700347Y-69927297D01*
X139607579Y-69728354D01*
X139481674Y-69548543D01*
X139326457Y-69393326D01*
X139146646Y-69267421D01*
X139146642Y-69267418D01*
X139002880Y-69200382D01*
X138950440Y-69154210D01*
X138931288Y-69087017D01*
X138951504Y-69020135D01*
X139002880Y-68975618D01*
X139146642Y-68908581D01*
X139146642Y-68908580D01*
X139146646Y-68908579D01*
X139326457Y-68782674D01*
X139481674Y-68627457D01*
X139607579Y-68447646D01*
X139700347Y-68248703D01*
X139757161Y-68036674D01*
X139776292Y-67818000D01*
X139757596Y-67604307D01*
X139771364Y-67535807D01*
X139819979Y-67485624D01*
X139881125Y-67469500D01*
X155782699Y-67469500D01*
X155800669Y-67470809D01*
X155804725Y-67471402D01*
X155824428Y-67474289D01*
X155873773Y-67469972D01*
X155884581Y-67469500D01*
X155886493Y-67469500D01*
X155890114Y-67469500D01*
X155892627Y-67469206D01*
X155960479Y-67484902D01*
X156009231Y-67534952D01*
X156023185Y-67603414D01*
X155997911Y-67668552D01*
X155941432Y-67709686D01*
X155935624Y-67711605D01*
X155799873Y-67752785D01*
X155626063Y-67845689D01*
X155473717Y-67970717D01*
X155348689Y-68123063D01*
X155255785Y-68296873D01*
X155198576Y-68485466D01*
X155179259Y-68681600D01*
X155198576Y-68877733D01*
X155255785Y-69066326D01*
X155327440Y-69200382D01*
X155348690Y-69240138D01*
X155473717Y-69392483D01*
X155626062Y-69517510D01*
X155799873Y-69610414D01*
X155988468Y-69667624D01*
X156078297Y-69676471D01*
X156143085Y-69702631D01*
X156153825Y-69712193D01*
X156864181Y-70422548D01*
X156897666Y-70483871D01*
X156900500Y-70510229D01*
X156900500Y-71671743D01*
X156880815Y-71738782D01*
X156828011Y-71784537D01*
X156758853Y-71794481D01*
X156718048Y-71781102D01*
X156638872Y-71738782D01*
X156594727Y-71715186D01*
X156525579Y-71694210D01*
X156406133Y-71657976D01*
X156210000Y-71638659D01*
X156013866Y-71657976D01*
X155825273Y-71715185D01*
X155651463Y-71808089D01*
X155499117Y-71933117D01*
X155374089Y-72085463D01*
X155281185Y-72259273D01*
X155223976Y-72447866D01*
X155222062Y-72467297D01*
X155204659Y-72644000D01*
X155214317Y-72742066D01*
X155223976Y-72840133D01*
X155281185Y-73028726D01*
X155345058Y-73148223D01*
X155374090Y-73202538D01*
X155499117Y-73354883D01*
X155651462Y-73479910D01*
X155825273Y-73572814D01*
X156013868Y-73630024D01*
X156103697Y-73638871D01*
X156168485Y-73665031D01*
X156179225Y-73674593D01*
X156439182Y-73934550D01*
X156472666Y-73995871D01*
X156475500Y-74022229D01*
X156475500Y-77115995D01*
X156455815Y-77183034D01*
X156403011Y-77228789D01*
X156339346Y-77239398D01*
X156210000Y-77226659D01*
X156013866Y-77245976D01*
X155825273Y-77303185D01*
X155651463Y-77396089D01*
X155499117Y-77521117D01*
X155374089Y-77673463D01*
X155281185Y-77847273D01*
X155223976Y-78035866D01*
X155204659Y-78232000D01*
X155223976Y-78428133D01*
X155281185Y-78616726D01*
X155360867Y-78765800D01*
X155374090Y-78790538D01*
X155499117Y-78942883D01*
X155651462Y-79067910D01*
X155825273Y-79160814D01*
X156013868Y-79218024D01*
X156103697Y-79226871D01*
X156168485Y-79253031D01*
X156179225Y-79262593D01*
X176716267Y-99799634D01*
X176728048Y-99813266D01*
X176742389Y-99832529D01*
X176780339Y-99864373D01*
X176788314Y-99871681D01*
X176792223Y-99875590D01*
X176795055Y-99877829D01*
X176795065Y-99877838D01*
X176816542Y-99894819D01*
X176819298Y-99897063D01*
X176876786Y-99945302D01*
X176876788Y-99945303D01*
X176877757Y-99946116D01*
X176894177Y-99956576D01*
X176895321Y-99957109D01*
X176895323Y-99957111D01*
X176963357Y-99988835D01*
X176966456Y-99990335D01*
X177033567Y-100024040D01*
X177034704Y-100024611D01*
X177053084Y-100030998D01*
X177054321Y-100031253D01*
X177054327Y-100031256D01*
X177127862Y-100046439D01*
X177131209Y-100047181D01*
X177204279Y-100064500D01*
X177204281Y-100064500D01*
X177205505Y-100064790D01*
X177224876Y-100066769D01*
X177226140Y-100066732D01*
X177226144Y-100066733D01*
X177301110Y-100064552D01*
X177304716Y-100064500D01*
X194572268Y-100064500D01*
X194639307Y-100084185D01*
X194685062Y-100136989D01*
X194695844Y-100198740D01*
X194682829Y-100355800D01*
X194701475Y-100580823D01*
X194701475Y-100580825D01*
X194701476Y-100580829D01*
X194756907Y-100799719D01*
X194847610Y-101006501D01*
X194971111Y-101195533D01*
X195124041Y-101361660D01*
X195302229Y-101500349D01*
X195332526Y-101516745D01*
X195332528Y-101516746D01*
X195382118Y-101565966D01*
X195397225Y-101634182D01*
X195373054Y-101699738D01*
X195332528Y-101734854D01*
X195302230Y-101751250D01*
X195124040Y-101889940D01*
X194971112Y-102056066D01*
X194847609Y-102245101D01*
X194756908Y-102451877D01*
X194701475Y-102670776D01*
X194682829Y-102895800D01*
X194701475Y-103120823D01*
X194701475Y-103120825D01*
X194701476Y-103120829D01*
X194756907Y-103339719D01*
X194847610Y-103546501D01*
X194971111Y-103735533D01*
X195124041Y-103901660D01*
X195302229Y-104040349D01*
X195434566Y-104111966D01*
X195484155Y-104161185D01*
X195499263Y-104229401D01*
X195475093Y-104294957D01*
X195427954Y-104333401D01*
X195416591Y-104338699D01*
X195351812Y-104384058D01*
X195351811Y-104384058D01*
X196022554Y-105054800D01*
X196018431Y-105054800D01*
X195924579Y-105070461D01*
X195812749Y-105130980D01*
X195726629Y-105224531D01*
X195675552Y-105340977D01*
X195669894Y-105409246D01*
X194998258Y-104737612D01*
X194952900Y-104802389D01*
X194859578Y-105002519D01*
X194802424Y-105215821D01*
X194783178Y-105435800D01*
X194802424Y-105655778D01*
X194859579Y-105869081D01*
X194952898Y-106069206D01*
X194998258Y-106133987D01*
X195665096Y-105467149D01*
X195665051Y-105467698D01*
X195696266Y-105590962D01*
X195765813Y-105697412D01*
X195866157Y-105775513D01*
X195986422Y-105816800D01*
X196022553Y-105816800D01*
X195351812Y-106487540D01*
X195416593Y-106532901D01*
X195616718Y-106626220D01*
X195830021Y-106683375D01*
X196049999Y-106702621D01*
X196269978Y-106683375D01*
X196483281Y-106626220D01*
X196683408Y-106532900D01*
X196748187Y-106487540D01*
X196077448Y-105816800D01*
X196081569Y-105816800D01*
X196175421Y-105801139D01*
X196287251Y-105740620D01*
X196373371Y-105647069D01*
X196424448Y-105530623D01*
X196430105Y-105462352D01*
X197101740Y-106133986D01*
X197147100Y-106069208D01*
X197240420Y-105869081D01*
X197297575Y-105655778D01*
X197316821Y-105435800D01*
X197297575Y-105215821D01*
X197240421Y-105002520D01*
X197147098Y-104802389D01*
X197101740Y-104737611D01*
X196434903Y-105404448D01*
X196434949Y-105403902D01*
X196403734Y-105280638D01*
X196334187Y-105174188D01*
X196233843Y-105096087D01*
X196113578Y-105054800D01*
X196077447Y-105054800D01*
X196748187Y-104384058D01*
X196683408Y-104338700D01*
X196672047Y-104333402D01*
X196619608Y-104287229D01*
X196600456Y-104220036D01*
X196620672Y-104153155D01*
X196665432Y-104111966D01*
X196797771Y-104040349D01*
X196975959Y-103901660D01*
X197128889Y-103735533D01*
X197252390Y-103546501D01*
X197343093Y-103339719D01*
X197398524Y-103120829D01*
X197417170Y-102895800D01*
X197398524Y-102670771D01*
X197343093Y-102451881D01*
X197252390Y-102245099D01*
X197128889Y-102056067D01*
X196975959Y-101889940D01*
X196797771Y-101751251D01*
X196767471Y-101734853D01*
X196717882Y-101685636D01*
X196702774Y-101617419D01*
X196726944Y-101551863D01*
X196767471Y-101516746D01*
X196797771Y-101500349D01*
X196975959Y-101361660D01*
X197128889Y-101195533D01*
X197252390Y-101006501D01*
X197343093Y-100799719D01*
X197398524Y-100580829D01*
X197417170Y-100355800D01*
X197404155Y-100198740D01*
X197418237Y-100130304D01*
X197467082Y-100080345D01*
X197527732Y-100064500D01*
X217061770Y-100064500D01*
X217128809Y-100084185D01*
X217149451Y-100100819D01*
X217409405Y-100360773D01*
X217442890Y-100422096D01*
X217445127Y-100436298D01*
X217453976Y-100526135D01*
X217511185Y-100714726D01*
X217511186Y-100714727D01*
X217604090Y-100888538D01*
X217729117Y-101040883D01*
X217881462Y-101165910D01*
X218055273Y-101258814D01*
X218243868Y-101316024D01*
X218440000Y-101335341D01*
X218636132Y-101316024D01*
X218824727Y-101258814D01*
X218998538Y-101165910D01*
X219150883Y-101040883D01*
X219275910Y-100888538D01*
X219368814Y-100714727D01*
X219426024Y-100526132D01*
X219445341Y-100330000D01*
X219426024Y-100133868D01*
X219368814Y-99945273D01*
X219275910Y-99771462D01*
X219150883Y-99619117D01*
X218998538Y-99494090D01*
X218976091Y-99482092D01*
X218824726Y-99401185D01*
X218636135Y-99343976D01*
X218546298Y-99335127D01*
X218481512Y-99308965D01*
X218470773Y-99299405D01*
X218319048Y-99147680D01*
X218285563Y-99086357D01*
X218290547Y-99016665D01*
X218319044Y-98972322D01*
X218470775Y-98820591D01*
X218532096Y-98787108D01*
X218546295Y-98784871D01*
X218636132Y-98776024D01*
X218824727Y-98718814D01*
X218998538Y-98625910D01*
X219150883Y-98500883D01*
X219275910Y-98348538D01*
X219368814Y-98174727D01*
X219426024Y-97986132D01*
X219445341Y-97790000D01*
X219426024Y-97593868D01*
X219368814Y-97405273D01*
X219275910Y-97231462D01*
X219150883Y-97079117D01*
X218998538Y-96954090D01*
X218976091Y-96942092D01*
X218824726Y-96861185D01*
X218636133Y-96803976D01*
X218538065Y-96794317D01*
X218440000Y-96784659D01*
X218439999Y-96784659D01*
X218259887Y-96802398D01*
X218191241Y-96789379D01*
X218140531Y-96741314D01*
X218123856Y-96673463D01*
X218146512Y-96607368D01*
X218160046Y-96591320D01*
X218470775Y-96280591D01*
X218532096Y-96247108D01*
X218546295Y-96244871D01*
X218636132Y-96236024D01*
X218824727Y-96178814D01*
X218998538Y-96085910D01*
X219150883Y-95960883D01*
X219275910Y-95808538D01*
X219368814Y-95634727D01*
X219426024Y-95446132D01*
X219445341Y-95250000D01*
X219426024Y-95053868D01*
X219368814Y-94865273D01*
X219275910Y-94691462D01*
X219270308Y-94684636D01*
X219242995Y-94620331D01*
X219254784Y-94551463D01*
X219278477Y-94518294D01*
X220207893Y-93588878D01*
X220269214Y-93555395D01*
X220338906Y-93560379D01*
X220386801Y-93592577D01*
X220524041Y-93741660D01*
X220702229Y-93880349D01*
X220732526Y-93896745D01*
X220732528Y-93896746D01*
X220782118Y-93945966D01*
X220797225Y-94014182D01*
X220773054Y-94079738D01*
X220732528Y-94114854D01*
X220702230Y-94131250D01*
X220524040Y-94269940D01*
X220382366Y-94423840D01*
X220371111Y-94436067D01*
X220295719Y-94551463D01*
X220247609Y-94625101D01*
X220156908Y-94831877D01*
X220101475Y-95050776D01*
X220082829Y-95275799D01*
X220101475Y-95500823D01*
X220101475Y-95500825D01*
X220101476Y-95500829D01*
X220156907Y-95719719D01*
X220247610Y-95926501D01*
X220371111Y-96115533D01*
X220524041Y-96281660D01*
X220702229Y-96420349D01*
X220732522Y-96436743D01*
X220732528Y-96436746D01*
X220782118Y-96485966D01*
X220797225Y-96554182D01*
X220773054Y-96619738D01*
X220732528Y-96654854D01*
X220702230Y-96671250D01*
X220524040Y-96809940D01*
X220391343Y-96954089D01*
X220371111Y-96976067D01*
X220303785Y-97079117D01*
X220247609Y-97165101D01*
X220156908Y-97371877D01*
X220156906Y-97371881D01*
X220156907Y-97371881D01*
X220101595Y-97590304D01*
X220101475Y-97590776D01*
X220082829Y-97815799D01*
X220101475Y-98040823D01*
X220101475Y-98040825D01*
X220101476Y-98040829D01*
X220156907Y-98259719D01*
X220247610Y-98466501D01*
X220371111Y-98655533D01*
X220524041Y-98821660D01*
X220702229Y-98960349D01*
X220724346Y-98972318D01*
X220732528Y-98976746D01*
X220782118Y-99025966D01*
X220797225Y-99094182D01*
X220773054Y-99159738D01*
X220732528Y-99194854D01*
X220702230Y-99211250D01*
X220524040Y-99349940D01*
X220371112Y-99516066D01*
X220247609Y-99705101D01*
X220156908Y-99911877D01*
X220156906Y-99911881D01*
X220156907Y-99911881D01*
X220101595Y-100130304D01*
X220101475Y-100130776D01*
X220082829Y-100355800D01*
X220101475Y-100580823D01*
X220101475Y-100580825D01*
X220101476Y-100580829D01*
X220156907Y-100799719D01*
X220247610Y-101006501D01*
X220371111Y-101195533D01*
X220524041Y-101361660D01*
X220702229Y-101500349D01*
X220732526Y-101516745D01*
X220732528Y-101516746D01*
X220782118Y-101565966D01*
X220797225Y-101634182D01*
X220773054Y-101699738D01*
X220732528Y-101734854D01*
X220702230Y-101751250D01*
X220524040Y-101889940D01*
X220371112Y-102056066D01*
X220247609Y-102245101D01*
X220156908Y-102451877D01*
X220101475Y-102670776D01*
X220082829Y-102895800D01*
X220101475Y-103120823D01*
X220101475Y-103120825D01*
X220101476Y-103120829D01*
X220156907Y-103339719D01*
X220247610Y-103546501D01*
X220371111Y-103735533D01*
X220524041Y-103901660D01*
X220702229Y-104040349D01*
X220732525Y-104056744D01*
X220782117Y-104105963D01*
X220797226Y-104174179D01*
X220773055Y-104239735D01*
X220732530Y-104274852D01*
X220702230Y-104291250D01*
X220524040Y-104429940D01*
X220371112Y-104596066D01*
X220247609Y-104785101D01*
X220156908Y-104991877D01*
X220101475Y-105210776D01*
X220082829Y-105435800D01*
X220101475Y-105660823D01*
X220101475Y-105660825D01*
X220101476Y-105660829D01*
X220156907Y-105879719D01*
X220247610Y-106086501D01*
X220371111Y-106275533D01*
X220524041Y-106441660D01*
X220702229Y-106580349D01*
X220900814Y-106687818D01*
X221114380Y-106761135D01*
X221337100Y-106798300D01*
X221562900Y-106798300D01*
X221785620Y-106761135D01*
X221999186Y-106687818D01*
X222197771Y-106580349D01*
X222375959Y-106441660D01*
X222528889Y-106275533D01*
X222652390Y-106086501D01*
X222743093Y-105879719D01*
X222798524Y-105660829D01*
X222817170Y-105435800D01*
X222798524Y-105210771D01*
X222743093Y-104991881D01*
X222652390Y-104785099D01*
X222528889Y-104596067D01*
X222375959Y-104429940D01*
X222197771Y-104291251D01*
X222167471Y-104274853D01*
X222117882Y-104225636D01*
X222102774Y-104157419D01*
X222126944Y-104091863D01*
X222167471Y-104056746D01*
X222197771Y-104040349D01*
X222375959Y-103901660D01*
X222528889Y-103735533D01*
X222652390Y-103546501D01*
X222743093Y-103339719D01*
X222798524Y-103120829D01*
X222817170Y-102895800D01*
X222798524Y-102670771D01*
X222743093Y-102451881D01*
X222652390Y-102245099D01*
X222528889Y-102056067D01*
X222375959Y-101889940D01*
X222197771Y-101751251D01*
X222167471Y-101734853D01*
X222117882Y-101685636D01*
X222102774Y-101617419D01*
X222126944Y-101551863D01*
X222167471Y-101516746D01*
X222197771Y-101500349D01*
X222375959Y-101361660D01*
X222528889Y-101195533D01*
X222652390Y-101006501D01*
X222743093Y-100799719D01*
X222798524Y-100580829D01*
X222817170Y-100355800D01*
X222798524Y-100130771D01*
X222743093Y-99911881D01*
X222652390Y-99705099D01*
X222528889Y-99516067D01*
X222375959Y-99349940D01*
X222197771Y-99211251D01*
X222167471Y-99194853D01*
X222117882Y-99145636D01*
X222102774Y-99077419D01*
X222126944Y-99011863D01*
X222167471Y-98976746D01*
X222197771Y-98960349D01*
X222375959Y-98821660D01*
X222528889Y-98655533D01*
X222652390Y-98466501D01*
X222743093Y-98259719D01*
X222798524Y-98040829D01*
X222817170Y-97815800D01*
X222798524Y-97590771D01*
X222743093Y-97371881D01*
X222652390Y-97165099D01*
X222528889Y-96976067D01*
X222375959Y-96809940D01*
X222197771Y-96671251D01*
X222167469Y-96654852D01*
X222117881Y-96605632D01*
X222102774Y-96537415D01*
X222126946Y-96471860D01*
X222167470Y-96436746D01*
X222197771Y-96420349D01*
X222375959Y-96281660D01*
X222528889Y-96115533D01*
X222652390Y-95926501D01*
X222743093Y-95719719D01*
X222798524Y-95500829D01*
X222817170Y-95275800D01*
X222798524Y-95050771D01*
X222743093Y-94831881D01*
X222652390Y-94625099D01*
X222528889Y-94436067D01*
X222375959Y-94269940D01*
X222197771Y-94131251D01*
X222167471Y-94114853D01*
X222117882Y-94065636D01*
X222102774Y-93997419D01*
X222126944Y-93931863D01*
X222167471Y-93896746D01*
X222197771Y-93880349D01*
X222375959Y-93741660D01*
X222528889Y-93575533D01*
X222652390Y-93386501D01*
X222743093Y-93179719D01*
X222798524Y-92960829D01*
X222817170Y-92735800D01*
X222798524Y-92510771D01*
X222743093Y-92291881D01*
X222652390Y-92085099D01*
X222528889Y-91896067D01*
X222375959Y-91729940D01*
X222197771Y-91591251D01*
X222167471Y-91574853D01*
X222117882Y-91525636D01*
X222102774Y-91457419D01*
X222126944Y-91391863D01*
X222167471Y-91356746D01*
X222197771Y-91340349D01*
X222375959Y-91201660D01*
X222528889Y-91035533D01*
X222652390Y-90846501D01*
X222743093Y-90639719D01*
X222798524Y-90420829D01*
X222817170Y-90195800D01*
X222798524Y-89970771D01*
X222743093Y-89751881D01*
X222652390Y-89545099D01*
X222528889Y-89356067D01*
X222375959Y-89189940D01*
X222197771Y-89051251D01*
X222167471Y-89034853D01*
X222117882Y-88985636D01*
X222102774Y-88917419D01*
X222126944Y-88851863D01*
X222167471Y-88816746D01*
X222197771Y-88800349D01*
X222375959Y-88661660D01*
X222528889Y-88495533D01*
X222652390Y-88306501D01*
X222743093Y-88099719D01*
X222798524Y-87880829D01*
X222817170Y-87655800D01*
X222798524Y-87430771D01*
X222743093Y-87211881D01*
X222652390Y-87005099D01*
X222528889Y-86816067D01*
X222375959Y-86649940D01*
X222197771Y-86511251D01*
X222167469Y-86494852D01*
X222117881Y-86445632D01*
X222102774Y-86377415D01*
X222126946Y-86311860D01*
X222167470Y-86276746D01*
X222197771Y-86260349D01*
X222375959Y-86121660D01*
X222528889Y-85955533D01*
X222652390Y-85766501D01*
X222743093Y-85559719D01*
X222798524Y-85340829D01*
X222817170Y-85115800D01*
X222798524Y-84890771D01*
X222743093Y-84671881D01*
X222652390Y-84465099D01*
X222528889Y-84276067D01*
X222375959Y-84109940D01*
X222197771Y-83971251D01*
X222167471Y-83954853D01*
X222117882Y-83905636D01*
X222102774Y-83837419D01*
X222126944Y-83771863D01*
X222167471Y-83736746D01*
X222197771Y-83720349D01*
X222375959Y-83581660D01*
X222528889Y-83415533D01*
X222652390Y-83226501D01*
X222743093Y-83019719D01*
X222798524Y-82800829D01*
X222817170Y-82575800D01*
X222798524Y-82350771D01*
X222743093Y-82131881D01*
X222652390Y-81925099D01*
X222528889Y-81736067D01*
X222375959Y-81569940D01*
X222197771Y-81431251D01*
X222167471Y-81414853D01*
X222117882Y-81365636D01*
X222102774Y-81297419D01*
X222126944Y-81231863D01*
X222167471Y-81196746D01*
X222197771Y-81180349D01*
X222375959Y-81041660D01*
X222528889Y-80875533D01*
X222652390Y-80686501D01*
X222743093Y-80479719D01*
X222798524Y-80260829D01*
X222817170Y-80035800D01*
X222798524Y-79810771D01*
X222743093Y-79591881D01*
X222652390Y-79385099D01*
X222528889Y-79196067D01*
X222375959Y-79029940D01*
X222197771Y-78891251D01*
X222167471Y-78874853D01*
X222117882Y-78825636D01*
X222102774Y-78757419D01*
X222126944Y-78691863D01*
X222167471Y-78656746D01*
X222197771Y-78640349D01*
X222375959Y-78501660D01*
X222528889Y-78335533D01*
X222652390Y-78146501D01*
X222743093Y-77939719D01*
X222798524Y-77720829D01*
X222817170Y-77495800D01*
X222798524Y-77270771D01*
X222743093Y-77051881D01*
X222652390Y-76845099D01*
X222528889Y-76656067D01*
X222375959Y-76489940D01*
X222197771Y-76351251D01*
X222167469Y-76334852D01*
X222117881Y-76285632D01*
X222102774Y-76217415D01*
X222126946Y-76151860D01*
X222167470Y-76116746D01*
X222197771Y-76100349D01*
X222375959Y-75961660D01*
X222528889Y-75795533D01*
X222652390Y-75606501D01*
X222743093Y-75399719D01*
X222798524Y-75180829D01*
X222817170Y-74955800D01*
X222798524Y-74730771D01*
X222743093Y-74511881D01*
X222652390Y-74305099D01*
X222528889Y-74116067D01*
X222375959Y-73949940D01*
X222197771Y-73811251D01*
X222167471Y-73794853D01*
X222117882Y-73745636D01*
X222102774Y-73677419D01*
X222126944Y-73611863D01*
X222167471Y-73576746D01*
X222197771Y-73560349D01*
X222375959Y-73421660D01*
X222528889Y-73255533D01*
X222652390Y-73066501D01*
X222743093Y-72859719D01*
X222798524Y-72640829D01*
X222817170Y-72415800D01*
X222798524Y-72190771D01*
X222743093Y-71971881D01*
X222652390Y-71765099D01*
X222528889Y-71576067D01*
X222375959Y-71409940D01*
X222197771Y-71271251D01*
X222167471Y-71254853D01*
X222117882Y-71205636D01*
X222102774Y-71137419D01*
X222126944Y-71071863D01*
X222167471Y-71036746D01*
X222197771Y-71020349D01*
X222375959Y-70881660D01*
X222528889Y-70715533D01*
X222652390Y-70526501D01*
X222743093Y-70319719D01*
X222798524Y-70100829D01*
X222817170Y-69875800D01*
X222798524Y-69650771D01*
X222743093Y-69431881D01*
X222652390Y-69225099D01*
X222528889Y-69036067D01*
X222375959Y-68869940D01*
X222197771Y-68731251D01*
X221999186Y-68623782D01*
X221999182Y-68623780D01*
X221999181Y-68623780D01*
X221785621Y-68550465D01*
X221562900Y-68513300D01*
X221337100Y-68513300D01*
X221114378Y-68550465D01*
X220900818Y-68623780D01*
X220702227Y-68731252D01*
X220524040Y-68869940D01*
X220443862Y-68957038D01*
X220371111Y-69036067D01*
X220247610Y-69225099D01*
X220247609Y-69225101D01*
X220156908Y-69431877D01*
X220101475Y-69650776D01*
X220082829Y-69875799D01*
X220101475Y-70100823D01*
X220101475Y-70100825D01*
X220101476Y-70100829D01*
X220114839Y-70153597D01*
X220156908Y-70319722D01*
X220202012Y-70422548D01*
X220247610Y-70526501D01*
X220371111Y-70715533D01*
X220524041Y-70881660D01*
X220702229Y-71020349D01*
X220732526Y-71036745D01*
X220732528Y-71036746D01*
X220782118Y-71085966D01*
X220797225Y-71154182D01*
X220773054Y-71219738D01*
X220732528Y-71254854D01*
X220702230Y-71271250D01*
X220524040Y-71409940D01*
X220426758Y-71515618D01*
X220371111Y-71576067D01*
X220247610Y-71765099D01*
X220247609Y-71765101D01*
X220156908Y-71971877D01*
X220101475Y-72190776D01*
X220082829Y-72415799D01*
X220101475Y-72640823D01*
X220101475Y-72640825D01*
X220101476Y-72640829D01*
X220151947Y-72840132D01*
X220156908Y-72859722D01*
X220175205Y-72901434D01*
X220247610Y-73066501D01*
X220371111Y-73255533D01*
X220524041Y-73421660D01*
X220702229Y-73560349D01*
X220732526Y-73576745D01*
X220732528Y-73576746D01*
X220782118Y-73625966D01*
X220797225Y-73694182D01*
X220773054Y-73759738D01*
X220732528Y-73794854D01*
X220702230Y-73811250D01*
X220524040Y-73949940D01*
X220426758Y-74055618D01*
X220371111Y-74116067D01*
X220247610Y-74305099D01*
X220247609Y-74305101D01*
X220156908Y-74511877D01*
X220101475Y-74730776D01*
X220082829Y-74955800D01*
X220101475Y-75180823D01*
X220101475Y-75180825D01*
X220101476Y-75180829D01*
X220156907Y-75399719D01*
X220156908Y-75399722D01*
X220182966Y-75459127D01*
X220247610Y-75606501D01*
X220371111Y-75795533D01*
X220524041Y-75961660D01*
X220702229Y-76100349D01*
X220732522Y-76116743D01*
X220732528Y-76116746D01*
X220782118Y-76165966D01*
X220797225Y-76234182D01*
X220773054Y-76299738D01*
X220732528Y-76334854D01*
X220702230Y-76351250D01*
X220524040Y-76489940D01*
X220459269Y-76560301D01*
X220371111Y-76656067D01*
X220251774Y-76838726D01*
X220247609Y-76845101D01*
X220156908Y-77051877D01*
X220156906Y-77051881D01*
X220156907Y-77051881D01*
X220102427Y-77267018D01*
X220101475Y-77270776D01*
X220082829Y-77495800D01*
X220101475Y-77720823D01*
X220101475Y-77720825D01*
X220101476Y-77720829D01*
X220156907Y-77939719D01*
X220156908Y-77939722D01*
X220199081Y-78035866D01*
X220247610Y-78146501D01*
X220371111Y-78335533D01*
X220500610Y-78476207D01*
X220523420Y-78500986D01*
X220524041Y-78501660D01*
X220702229Y-78640349D01*
X220732526Y-78656745D01*
X220732528Y-78656746D01*
X220782118Y-78705966D01*
X220797225Y-78774182D01*
X220773054Y-78839738D01*
X220732528Y-78874854D01*
X220702230Y-78891250D01*
X220524040Y-79029940D01*
X220403073Y-79161347D01*
X220371111Y-79196067D01*
X220247610Y-79385099D01*
X220247609Y-79385101D01*
X220156908Y-79591877D01*
X220101475Y-79810776D01*
X220082829Y-80035800D01*
X220101475Y-80260823D01*
X220101475Y-80260825D01*
X220101476Y-80260829D01*
X220156907Y-80479719D01*
X220156908Y-80479722D01*
X220202258Y-80583110D01*
X220247610Y-80686501D01*
X220371111Y-80875533D01*
X220524041Y-81041660D01*
X220702229Y-81180349D01*
X220732526Y-81196745D01*
X220732528Y-81196746D01*
X220782118Y-81245966D01*
X220797225Y-81314182D01*
X220773054Y-81379738D01*
X220732528Y-81414854D01*
X220702230Y-81431250D01*
X220524040Y-81569940D01*
X220426758Y-81675618D01*
X220371111Y-81736067D01*
X220259342Y-81907142D01*
X220247609Y-81925101D01*
X220156908Y-82131877D01*
X220101475Y-82350776D01*
X220082829Y-82575799D01*
X220101475Y-82800823D01*
X220101475Y-82800825D01*
X220101476Y-82800829D01*
X220156907Y-83019719D01*
X220156908Y-83019722D01*
X220202258Y-83123110D01*
X220247610Y-83226501D01*
X220371111Y-83415533D01*
X220524041Y-83581660D01*
X220702229Y-83720349D01*
X220732526Y-83736745D01*
X220732528Y-83736746D01*
X220782118Y-83785966D01*
X220797225Y-83854182D01*
X220773054Y-83919738D01*
X220732528Y-83954854D01*
X220702230Y-83971250D01*
X220524040Y-84109940D01*
X220488472Y-84148578D01*
X220371111Y-84276067D01*
X220247610Y-84465099D01*
X220247609Y-84465101D01*
X220156908Y-84671877D01*
X220101475Y-84890776D01*
X220082829Y-85115800D01*
X220101475Y-85340823D01*
X220101475Y-85340825D01*
X220101476Y-85340829D01*
X220156907Y-85559719D01*
X220247610Y-85766501D01*
X220371111Y-85955533D01*
X220524041Y-86121660D01*
X220702229Y-86260349D01*
X220732525Y-86276744D01*
X220782117Y-86325963D01*
X220797226Y-86394179D01*
X220773055Y-86459735D01*
X220732530Y-86494852D01*
X220702230Y-86511250D01*
X220524040Y-86649940D01*
X220371110Y-86816067D01*
X220349514Y-86849123D01*
X220296367Y-86894479D01*
X220245706Y-86905300D01*
X210954030Y-86905300D01*
X210886991Y-86885615D01*
X210866349Y-86868981D01*
X197249096Y-73251728D01*
X197215611Y-73190405D01*
X197220595Y-73120713D01*
X197232965Y-73096231D01*
X197252390Y-73066501D01*
X197343093Y-72859719D01*
X197398524Y-72640829D01*
X197417170Y-72415800D01*
X197398524Y-72190771D01*
X197343093Y-71971881D01*
X197252390Y-71765099D01*
X197128889Y-71576067D01*
X196975959Y-71409940D01*
X196975955Y-71409937D01*
X196969516Y-71402942D01*
X196938594Y-71340287D01*
X196946454Y-71270861D01*
X196990601Y-71216706D01*
X197013292Y-71204398D01*
X197114841Y-71162336D01*
X197240282Y-71066082D01*
X197336536Y-70940641D01*
X197397044Y-70794562D01*
X197412500Y-70677161D01*
X197412499Y-69074440D01*
X197397044Y-68957038D01*
X197336536Y-68810959D01*
X197275374Y-68731251D01*
X197240282Y-68685517D01*
X197114840Y-68589263D01*
X196968762Y-68528756D01*
X196855380Y-68513829D01*
X196855378Y-68513828D01*
X196851361Y-68513300D01*
X196847307Y-68513300D01*
X195252694Y-68513300D01*
X195252678Y-68513300D01*
X195248640Y-68513301D01*
X195244627Y-68513829D01*
X195244615Y-68513830D01*
X195131239Y-68528755D01*
X194985158Y-68589264D01*
X194859717Y-68685517D01*
X194763463Y-68810959D01*
X194702956Y-68957037D01*
X194697123Y-69001347D01*
X194687500Y-69074439D01*
X194687500Y-69078491D01*
X194687500Y-69078492D01*
X194687500Y-70673105D01*
X194687500Y-70673120D01*
X194687501Y-70677160D01*
X194688029Y-70681173D01*
X194688030Y-70681184D01*
X194702955Y-70794560D01*
X194763464Y-70940641D01*
X194859717Y-71066082D01*
X194985159Y-71162336D01*
X195086705Y-71204398D01*
X195141109Y-71248239D01*
X195163174Y-71314533D01*
X195145895Y-71382232D01*
X195130483Y-71402942D01*
X194971110Y-71576067D01*
X194949514Y-71609123D01*
X194896367Y-71654479D01*
X194845706Y-71665300D01*
X163481149Y-71665300D01*
X163414110Y-71645615D01*
X163393468Y-71628981D01*
X158524647Y-66760159D01*
X158491162Y-66698836D01*
X158488800Y-66683289D01*
X158485970Y-66650951D01*
X158485499Y-66640131D01*
X158485500Y-66634616D01*
X158481898Y-66603803D01*
X158481534Y-66600240D01*
X158474888Y-66524267D01*
X158470674Y-66505260D01*
X158464441Y-66488135D01*
X158444571Y-66433542D01*
X158443424Y-66430242D01*
X158419814Y-66358990D01*
X158419812Y-66358987D01*
X158419415Y-66357788D01*
X158410929Y-66340261D01*
X158410237Y-66339209D01*
X158410237Y-66339208D01*
X158369025Y-66276549D01*
X158367106Y-66273537D01*
X158327048Y-66208592D01*
X158314750Y-66193497D01*
X158259290Y-66141173D01*
X158256703Y-66138660D01*
X157417403Y-65299360D01*
X157405621Y-65285727D01*
X157399868Y-65278000D01*
X157391285Y-65266470D01*
X157353342Y-65234631D01*
X157345366Y-65227323D01*
X157344004Y-65225961D01*
X157341452Y-65223409D01*
X157317119Y-65204169D01*
X157314322Y-65201890D01*
X157255926Y-65152890D01*
X157239496Y-65142422D01*
X157170366Y-65110186D01*
X157167122Y-65108615D01*
X157098981Y-65074394D01*
X157080578Y-65067997D01*
X157005886Y-65052574D01*
X157002367Y-65051794D01*
X156928165Y-65034208D01*
X156908796Y-65032229D01*
X156832544Y-65034448D01*
X156828938Y-65034500D01*
X155642029Y-65034500D01*
X155624059Y-65033191D01*
X155610176Y-65031157D01*
X155600300Y-65029711D01*
X155600299Y-65029711D01*
X155550954Y-65034028D01*
X155540147Y-65034500D01*
X155534614Y-65034500D01*
X155531053Y-65034916D01*
X155531038Y-65034917D01*
X155503824Y-65038098D01*
X155500239Y-65038464D01*
X155424284Y-65045109D01*
X155405244Y-65049330D01*
X155333555Y-65075421D01*
X155330154Y-65076603D01*
X155257799Y-65100579D01*
X155237722Y-65110303D01*
X155235787Y-65111008D01*
X155193338Y-65118500D01*
X139868165Y-65118500D01*
X139801126Y-65098815D01*
X139755371Y-65046011D01*
X139748390Y-65026594D01*
X139700347Y-64847297D01*
X139607579Y-64648354D01*
X139481674Y-64468543D01*
X139326457Y-64313326D01*
X139146646Y-64187421D01*
X139054921Y-64144649D01*
X138947704Y-64094653D01*
X138735671Y-64037838D01*
X138517000Y-64018707D01*
X138298328Y-64037838D01*
X138086295Y-64094653D01*
X137901881Y-64180647D01*
X137887354Y-64187421D01*
X137707543Y-64313326D01*
X137707539Y-64313329D01*
X137552329Y-64468539D01*
X137552326Y-64468542D01*
X137552326Y-64468543D01*
X137474647Y-64579481D01*
X137426420Y-64648356D01*
X137333653Y-64847295D01*
X137276838Y-65059328D01*
X137257707Y-65278000D01*
X137269141Y-65408693D01*
X137255374Y-65477193D01*
X137206759Y-65527376D01*
X137145613Y-65543500D01*
X123922666Y-65543500D01*
X123904696Y-65542191D01*
X123890813Y-65540157D01*
X123880937Y-65538711D01*
X123880936Y-65538711D01*
X123831594Y-65543028D01*
X123820787Y-65543500D01*
X123815251Y-65543500D01*
X123811690Y-65543916D01*
X123811675Y-65543917D01*
X123784444Y-65547100D01*
X123780860Y-65547466D01*
X123704910Y-65554111D01*
X123685886Y-65558328D01*
X123614211Y-65584415D01*
X123610809Y-65585597D01*
X123538430Y-65609582D01*
X123520889Y-65618074D01*
X123457157Y-65659991D01*
X123454116Y-65661928D01*
X123389240Y-65701943D01*
X123374125Y-65714256D01*
X123321792Y-65769725D01*
X123319280Y-65772311D01*
X122060411Y-67031181D01*
X121999088Y-67064666D01*
X121972730Y-67067500D01*
X121553506Y-67067500D01*
X121486467Y-67047815D01*
X121451931Y-67014623D01*
X121447673Y-67008542D01*
X121292460Y-66853329D01*
X121292457Y-66853326D01*
X121112646Y-66727421D01*
X120986036Y-66668382D01*
X120933597Y-66622210D01*
X120914445Y-66555016D01*
X120934661Y-66488135D01*
X120987826Y-66442801D01*
X121038441Y-66432000D01*
X121181518Y-66432000D01*
X121188132Y-66431645D01*
X121244371Y-66425599D01*
X121379089Y-66375352D01*
X121494188Y-66289188D01*
X121580352Y-66174089D01*
X121630599Y-66039371D01*
X121636645Y-65983132D01*
X121637000Y-65976518D01*
X121637000Y-65528000D01*
X120798686Y-65528000D01*
X120810641Y-65516045D01*
X120868165Y-65403148D01*
X120887986Y-65278000D01*
X120868165Y-65152852D01*
X120810641Y-65039955D01*
X120798686Y-65028000D01*
X121637000Y-65028000D01*
X121637000Y-64579481D01*
X121636645Y-64572867D01*
X121630599Y-64516628D01*
X121580352Y-64381910D01*
X121494188Y-64266811D01*
X121379089Y-64180647D01*
X121244371Y-64130400D01*
X121188132Y-64124354D01*
X121181518Y-64124000D01*
X120733000Y-64124000D01*
X120733000Y-64962314D01*
X120721045Y-64950359D01*
X120608148Y-64892835D01*
X120514481Y-64878000D01*
X120451519Y-64878000D01*
X120357852Y-64892835D01*
X120244955Y-64950359D01*
X120233000Y-64962314D01*
X120233000Y-64124000D01*
X119784482Y-64124000D01*
X119777867Y-64124354D01*
X119721628Y-64130400D01*
X119586910Y-64180647D01*
X119471811Y-64266811D01*
X119385647Y-64381910D01*
X119335400Y-64516628D01*
X119329354Y-64572867D01*
X119329000Y-64579481D01*
X119329000Y-65028000D01*
X120167314Y-65028000D01*
X120155359Y-65039955D01*
X120097835Y-65152852D01*
X120078014Y-65278000D01*
X120097835Y-65403148D01*
X120155359Y-65516045D01*
X120167314Y-65528000D01*
X119329000Y-65528000D01*
X119329000Y-65976518D01*
X119329354Y-65983132D01*
X119335400Y-66039371D01*
X119385647Y-66174089D01*
X119471811Y-66289188D01*
X119586910Y-66375352D01*
X119721628Y-66425599D01*
X119777867Y-66431645D01*
X119784482Y-66432000D01*
X119927559Y-66432000D01*
X119994598Y-66451685D01*
X120040353Y-66504489D01*
X120050297Y-66573647D01*
X120021272Y-66637203D01*
X119979963Y-66668382D01*
X119853354Y-66727421D01*
X119673543Y-66853326D01*
X119673539Y-66853329D01*
X119518329Y-67008539D01*
X119518326Y-67008542D01*
X119518326Y-67008543D01*
X119479029Y-67064666D01*
X119392420Y-67188356D01*
X119299653Y-67387295D01*
X119242838Y-67599328D01*
X119223707Y-67818000D01*
X119242838Y-68036671D01*
X119242839Y-68036674D01*
X119299653Y-68248703D01*
X119392421Y-68447646D01*
X119518326Y-68627457D01*
X119673543Y-68782674D01*
X119853354Y-68908579D01*
X119957278Y-68957039D01*
X119997120Y-68975618D01*
X120049559Y-69021790D01*
X120068711Y-69088984D01*
X120048495Y-69155865D01*
X119997120Y-69200382D01*
X119944114Y-69225099D01*
X119853354Y-69267421D01*
X119674747Y-69392483D01*
X119673539Y-69393329D01*
X119518329Y-69548539D01*
X119518326Y-69548542D01*
X119518326Y-69548543D01*
X119410433Y-69702631D01*
X119392420Y-69728356D01*
X119299653Y-69927295D01*
X119242838Y-70139328D01*
X119223707Y-70358000D01*
X119242838Y-70576671D01*
X119269764Y-70677160D01*
X119299653Y-70788703D01*
X119392421Y-70987646D01*
X119518326Y-71167457D01*
X119673543Y-71322674D01*
X119853354Y-71448579D01*
X119964022Y-71500184D01*
X119997120Y-71515618D01*
X120049559Y-71561790D01*
X120068711Y-71628984D01*
X120048495Y-71695865D01*
X119997120Y-71740382D01*
X119902429Y-71784537D01*
X119853354Y-71807421D01*
X119673543Y-71933326D01*
X119673539Y-71933329D01*
X119518329Y-72088539D01*
X119518326Y-72088542D01*
X119518326Y-72088543D01*
X119446746Y-72190771D01*
X119392420Y-72268356D01*
X119299653Y-72467295D01*
X119242838Y-72679328D01*
X119223707Y-72897999D01*
X119242838Y-73116671D01*
X119299653Y-73328704D01*
X119342999Y-73421659D01*
X119392421Y-73527646D01*
X119518326Y-73707457D01*
X119673543Y-73862674D01*
X119853354Y-73988579D01*
X119964022Y-74040184D01*
X119997120Y-74055618D01*
X120049559Y-74101790D01*
X120068711Y-74168984D01*
X120048495Y-74235865D01*
X119997120Y-74280382D01*
X119944114Y-74305099D01*
X119853354Y-74347421D01*
X119735155Y-74430185D01*
X119673539Y-74473329D01*
X119518329Y-74628539D01*
X119518326Y-74628542D01*
X119518326Y-74628543D01*
X119446746Y-74730771D01*
X119392420Y-74808356D01*
X119299653Y-75007295D01*
X119242838Y-75219328D01*
X119223707Y-75437999D01*
X119242838Y-75656671D01*
X119299653Y-75868704D01*
X119336319Y-75947335D01*
X119392421Y-76067646D01*
X119518326Y-76247457D01*
X119673543Y-76402674D01*
X119853354Y-76528579D01*
X119921383Y-76560301D01*
X119997120Y-76595618D01*
X120049559Y-76641790D01*
X120068711Y-76708984D01*
X120048495Y-76775865D01*
X119997120Y-76820382D01*
X119957781Y-76838726D01*
X119853354Y-76887421D01*
X119673543Y-77013326D01*
X119673539Y-77013329D01*
X119518329Y-77168539D01*
X119518326Y-77168542D01*
X119518326Y-77168543D01*
X119446746Y-77270771D01*
X119392420Y-77348356D01*
X119299653Y-77547295D01*
X119242838Y-77759328D01*
X119223707Y-77977999D01*
X119242838Y-78196671D01*
X119299653Y-78408704D01*
X119342685Y-78500986D01*
X119392421Y-78607646D01*
X119518326Y-78787457D01*
X119673543Y-78942674D01*
X119853354Y-79068579D01*
X119964022Y-79120184D01*
X119997120Y-79135618D01*
X120049559Y-79181790D01*
X120068711Y-79248984D01*
X120048495Y-79315865D01*
X119997120Y-79360382D01*
X119944114Y-79385099D01*
X119853354Y-79427421D01*
X119673543Y-79553326D01*
X119673539Y-79553329D01*
X119518329Y-79708539D01*
X119518326Y-79708542D01*
X119518326Y-79708543D01*
X119446746Y-79810771D01*
X119392420Y-79888356D01*
X119299653Y-80087295D01*
X119242838Y-80299328D01*
X119223707Y-80517999D01*
X119242838Y-80736671D01*
X119280046Y-80875532D01*
X119299653Y-80948703D01*
X119392421Y-81147646D01*
X119518326Y-81327457D01*
X119673543Y-81482674D01*
X119853354Y-81608579D01*
X119964022Y-81660184D01*
X119997120Y-81675618D01*
X120049559Y-81721790D01*
X120068711Y-81788984D01*
X120048495Y-81855865D01*
X119997120Y-81900382D01*
X119944114Y-81925099D01*
X119853354Y-81967421D01*
X119756734Y-82035075D01*
X119673539Y-82093329D01*
X119518329Y-82248539D01*
X119518326Y-82248542D01*
X119518326Y-82248543D01*
X119446746Y-82350771D01*
X119392420Y-82428356D01*
X119299653Y-82627295D01*
X119242838Y-82839328D01*
X119223707Y-83057999D01*
X118110000Y-83057999D01*
X118110000Y-60109091D01*
X119514500Y-60109091D01*
X119514779Y-60112021D01*
X119514780Y-60112025D01*
X119529948Y-60270874D01*
X119591043Y-60478944D01*
X119690408Y-60671684D01*
X119690410Y-60671687D01*
X119690412Y-60671690D01*
X119824462Y-60842149D01*
X119914001Y-60919735D01*
X119988350Y-60984159D01*
X120089998Y-61042845D01*
X120176151Y-61092585D01*
X120381078Y-61163511D01*
X120595725Y-61194373D01*
X120812334Y-61184055D01*
X121023075Y-61132929D01*
X121111416Y-61092585D01*
X121231104Y-61037926D01*
X121231917Y-61039707D01*
X121283971Y-61021686D01*
X121351871Y-61038152D01*
X121446151Y-61092585D01*
X121651078Y-61163511D01*
X121865725Y-61194373D01*
X122082334Y-61184055D01*
X122293075Y-61132929D01*
X122381416Y-61092585D01*
X122501104Y-61037926D01*
X122501917Y-61039707D01*
X122553971Y-61021686D01*
X122621871Y-61038152D01*
X122716151Y-61092585D01*
X122921078Y-61163511D01*
X123135725Y-61194373D01*
X123352334Y-61184055D01*
X123563075Y-61132929D01*
X123760332Y-61042845D01*
X123848743Y-60979887D01*
X123914765Y-60957037D01*
X123979120Y-60971538D01*
X124062003Y-61015840D01*
X124210000Y-61060734D01*
X124210000Y-60586252D01*
X124218881Y-60540168D01*
X124284460Y-60376362D01*
X124325500Y-60163427D01*
X124325500Y-59959620D01*
X124403920Y-59990000D01*
X124487802Y-59990000D01*
X124570250Y-59974588D01*
X124626111Y-59940000D01*
X124710000Y-59940000D01*
X124710000Y-61060734D01*
X124857996Y-61015840D01*
X125037795Y-60919735D01*
X125195397Y-60790397D01*
X125324735Y-60632795D01*
X125420839Y-60452998D01*
X125480025Y-60257892D01*
X125494680Y-60109091D01*
X163964500Y-60109091D01*
X163964779Y-60112021D01*
X163964780Y-60112025D01*
X163979948Y-60270874D01*
X164041043Y-60478944D01*
X164140408Y-60671684D01*
X164140410Y-60671687D01*
X164140412Y-60671690D01*
X164274462Y-60842149D01*
X164364001Y-60919735D01*
X164438350Y-60984159D01*
X164539998Y-61042845D01*
X164626151Y-61092585D01*
X164831078Y-61163511D01*
X165045725Y-61194373D01*
X165262334Y-61184055D01*
X165473075Y-61132929D01*
X165561416Y-61092585D01*
X165681104Y-61037926D01*
X165681917Y-61039707D01*
X165733971Y-61021686D01*
X165801871Y-61038152D01*
X165896151Y-61092585D01*
X166101078Y-61163511D01*
X166315725Y-61194373D01*
X166532334Y-61184055D01*
X166743075Y-61132929D01*
X166831416Y-61092585D01*
X166951104Y-61037926D01*
X166951917Y-61039707D01*
X167003971Y-61021686D01*
X167071871Y-61038152D01*
X167166151Y-61092585D01*
X167371078Y-61163511D01*
X167585725Y-61194373D01*
X167802334Y-61184055D01*
X168013075Y-61132929D01*
X168210332Y-61042845D01*
X168298743Y-60979887D01*
X168364765Y-60957037D01*
X168429120Y-60971538D01*
X168512003Y-61015840D01*
X168660000Y-61060734D01*
X168660000Y-60586252D01*
X168668881Y-60540168D01*
X168734460Y-60376362D01*
X168775500Y-60163427D01*
X168775500Y-59959620D01*
X168853920Y-59990000D01*
X168937802Y-59990000D01*
X169020250Y-59974588D01*
X169076111Y-59940000D01*
X169160000Y-59940000D01*
X169160000Y-61060734D01*
X169307996Y-61015840D01*
X169487795Y-60919735D01*
X169645397Y-60790397D01*
X169774735Y-60632795D01*
X169870839Y-60452998D01*
X169930025Y-60257892D01*
X169944680Y-60109091D01*
X216669500Y-60109091D01*
X216669779Y-60112021D01*
X216669780Y-60112025D01*
X216684948Y-60270874D01*
X216746043Y-60478944D01*
X216845408Y-60671684D01*
X216845410Y-60671687D01*
X216845412Y-60671690D01*
X216979462Y-60842149D01*
X217069001Y-60919735D01*
X217143350Y-60984159D01*
X217244998Y-61042845D01*
X217331151Y-61092585D01*
X217536078Y-61163511D01*
X217750725Y-61194373D01*
X217967334Y-61184055D01*
X218178075Y-61132929D01*
X218266416Y-61092585D01*
X218386104Y-61037926D01*
X218386917Y-61039707D01*
X218438971Y-61021686D01*
X218506871Y-61038152D01*
X218601151Y-61092585D01*
X218806078Y-61163511D01*
X219020725Y-61194373D01*
X219237334Y-61184055D01*
X219448075Y-61132929D01*
X219536416Y-61092585D01*
X219656104Y-61037926D01*
X219656917Y-61039707D01*
X219708971Y-61021686D01*
X219776871Y-61038152D01*
X219871151Y-61092585D01*
X220076078Y-61163511D01*
X220290725Y-61194373D01*
X220507334Y-61184055D01*
X220718075Y-61132929D01*
X220915332Y-61042845D01*
X221003743Y-60979887D01*
X221069765Y-60957037D01*
X221134120Y-60971538D01*
X221217003Y-61015840D01*
X221365000Y-61060734D01*
X221365000Y-60586252D01*
X221373881Y-60540168D01*
X221439460Y-60376362D01*
X221480500Y-60163427D01*
X221480500Y-59959620D01*
X221558920Y-59990000D01*
X221642802Y-59990000D01*
X221725250Y-59974588D01*
X221781111Y-59940000D01*
X221865000Y-59940000D01*
X221865000Y-61060734D01*
X222012996Y-61015840D01*
X222192795Y-60919735D01*
X222350397Y-60790397D01*
X222479735Y-60632795D01*
X222575839Y-60452998D01*
X222635025Y-60257892D01*
X222649701Y-60108882D01*
X222650000Y-60102798D01*
X222650000Y-59940000D01*
X221865000Y-59940000D01*
X221781111Y-59940000D01*
X221820610Y-59915543D01*
X221888201Y-59826038D01*
X221918895Y-59718160D01*
X221908546Y-59606479D01*
X221858552Y-59506078D01*
X221775666Y-59430516D01*
X221671080Y-59390000D01*
X221587198Y-59390000D01*
X221504750Y-59405412D01*
X221480500Y-59420427D01*
X221480500Y-59270909D01*
X221465052Y-59109128D01*
X221403957Y-58901058D01*
X221394006Y-58881756D01*
X221378784Y-58852228D01*
X221365000Y-58795409D01*
X221365000Y-58319264D01*
X221865000Y-58319264D01*
X221865000Y-59440000D01*
X222650000Y-59440000D01*
X222650000Y-59277201D01*
X222649701Y-59271117D01*
X222635025Y-59122107D01*
X222575839Y-58927001D01*
X222479735Y-58747204D01*
X222350397Y-58589602D01*
X222192795Y-58460264D01*
X222012994Y-58364157D01*
X221865001Y-58319264D01*
X221865000Y-58319264D01*
X221365000Y-58319264D01*
X221364999Y-58319264D01*
X221217007Y-58364157D01*
X221139496Y-58405587D01*
X221071093Y-58419828D01*
X221018180Y-58399552D01*
X221016905Y-58401762D01*
X220818850Y-58287415D01*
X220613921Y-58216488D01*
X220399276Y-58185627D01*
X220399275Y-58185627D01*
X220290970Y-58190786D01*
X220182665Y-58195945D01*
X219971925Y-58247071D01*
X219763897Y-58342074D01*
X219763084Y-58340294D01*
X219711012Y-58358314D01*
X219643118Y-58341841D01*
X219548850Y-58287415D01*
X219343921Y-58216488D01*
X219129276Y-58185627D01*
X219129275Y-58185627D01*
X219020970Y-58190786D01*
X218912665Y-58195945D01*
X218701925Y-58247071D01*
X218493897Y-58342074D01*
X218493084Y-58340294D01*
X218441012Y-58358314D01*
X218373118Y-58341841D01*
X218278850Y-58287415D01*
X218073921Y-58216488D01*
X217859276Y-58185627D01*
X217859275Y-58185627D01*
X217750970Y-58190786D01*
X217642665Y-58195945D01*
X217431925Y-58247071D01*
X217234664Y-58337156D01*
X217058025Y-58462941D01*
X217058023Y-58462942D01*
X217058023Y-58462943D01*
X216986599Y-58537851D01*
X216908376Y-58619889D01*
X216791137Y-58802314D01*
X216710539Y-59003640D01*
X216669500Y-59216571D01*
X216669500Y-59216573D01*
X216669500Y-60109091D01*
X169944680Y-60109091D01*
X169944701Y-60108882D01*
X169945000Y-60102798D01*
X169945000Y-59940000D01*
X169160000Y-59940000D01*
X169076111Y-59940000D01*
X169115610Y-59915543D01*
X169183201Y-59826038D01*
X169213895Y-59718160D01*
X169203546Y-59606479D01*
X169153552Y-59506078D01*
X169070666Y-59430516D01*
X168966080Y-59390000D01*
X168882198Y-59390000D01*
X168799750Y-59405412D01*
X168775500Y-59420427D01*
X168775500Y-59270909D01*
X168760052Y-59109128D01*
X168698957Y-58901058D01*
X168689006Y-58881756D01*
X168673784Y-58852228D01*
X168660000Y-58795409D01*
X168660000Y-58319264D01*
X169160000Y-58319264D01*
X169160000Y-59440000D01*
X169945000Y-59440000D01*
X169945000Y-59277201D01*
X169944701Y-59271117D01*
X169930025Y-59122107D01*
X169870839Y-58927001D01*
X169774735Y-58747204D01*
X169645397Y-58589602D01*
X169487795Y-58460264D01*
X169307994Y-58364157D01*
X169160001Y-58319264D01*
X169160000Y-58319264D01*
X168660000Y-58319264D01*
X168659999Y-58319264D01*
X168512007Y-58364157D01*
X168434496Y-58405587D01*
X168366093Y-58419828D01*
X168313180Y-58399552D01*
X168311905Y-58401762D01*
X168113850Y-58287415D01*
X167908921Y-58216488D01*
X167694276Y-58185627D01*
X167694275Y-58185627D01*
X167585970Y-58190786D01*
X167477665Y-58195945D01*
X167266925Y-58247071D01*
X167058897Y-58342074D01*
X167058084Y-58340294D01*
X167006012Y-58358314D01*
X166938118Y-58341841D01*
X166843850Y-58287415D01*
X166638921Y-58216488D01*
X166424276Y-58185627D01*
X166424275Y-58185627D01*
X166315970Y-58190786D01*
X166207665Y-58195945D01*
X165996925Y-58247071D01*
X165788897Y-58342074D01*
X165788084Y-58340294D01*
X165736012Y-58358314D01*
X165668118Y-58341841D01*
X165573850Y-58287415D01*
X165368921Y-58216488D01*
X165154276Y-58185627D01*
X165154275Y-58185627D01*
X165045970Y-58190786D01*
X164937665Y-58195945D01*
X164726925Y-58247071D01*
X164529664Y-58337156D01*
X164353025Y-58462941D01*
X164353023Y-58462942D01*
X164353023Y-58462943D01*
X164281599Y-58537851D01*
X164203376Y-58619889D01*
X164086137Y-58802314D01*
X164005539Y-59003640D01*
X163964500Y-59216571D01*
X163964500Y-59216573D01*
X163964500Y-60109091D01*
X125494680Y-60109091D01*
X125494701Y-60108882D01*
X125495000Y-60102798D01*
X125495000Y-59940000D01*
X124710000Y-59940000D01*
X124626111Y-59940000D01*
X124665610Y-59915543D01*
X124733201Y-59826038D01*
X124763895Y-59718160D01*
X124753546Y-59606479D01*
X124703552Y-59506078D01*
X124620666Y-59430516D01*
X124516080Y-59390000D01*
X124432198Y-59390000D01*
X124349750Y-59405412D01*
X124325499Y-59420427D01*
X124325500Y-59270909D01*
X124310052Y-59109128D01*
X124248957Y-58901058D01*
X124223783Y-58852228D01*
X124209999Y-58795409D01*
X124209999Y-58319264D01*
X124710000Y-58319264D01*
X124710000Y-59440000D01*
X125495000Y-59440000D01*
X125495000Y-59277201D01*
X125494701Y-59271117D01*
X125480025Y-59122107D01*
X125420839Y-58927001D01*
X125324735Y-58747204D01*
X125195397Y-58589602D01*
X125037795Y-58460264D01*
X124857994Y-58364157D01*
X124710001Y-58319264D01*
X124710000Y-58319264D01*
X124209999Y-58319264D01*
X124062007Y-58364157D01*
X123984496Y-58405587D01*
X123916093Y-58419828D01*
X123863180Y-58399552D01*
X123861905Y-58401762D01*
X123663850Y-58287415D01*
X123458921Y-58216488D01*
X123244276Y-58185627D01*
X123244275Y-58185627D01*
X123135970Y-58190786D01*
X123027665Y-58195945D01*
X122816925Y-58247071D01*
X122608897Y-58342074D01*
X122608084Y-58340294D01*
X122556012Y-58358314D01*
X122488118Y-58341841D01*
X122393850Y-58287415D01*
X122188921Y-58216488D01*
X121974276Y-58185627D01*
X121974275Y-58185627D01*
X121865970Y-58190786D01*
X121757665Y-58195945D01*
X121546925Y-58247071D01*
X121338897Y-58342074D01*
X121338084Y-58340294D01*
X121286012Y-58358314D01*
X121218118Y-58341841D01*
X121123850Y-58287415D01*
X120918921Y-58216488D01*
X120704276Y-58185627D01*
X120704275Y-58185627D01*
X120595970Y-58190786D01*
X120487665Y-58195945D01*
X120276925Y-58247071D01*
X120079664Y-58337156D01*
X119903025Y-58462941D01*
X119903023Y-58462942D01*
X119903023Y-58462943D01*
X119831599Y-58537851D01*
X119753376Y-58619889D01*
X119636137Y-58802314D01*
X119555539Y-59003640D01*
X119514500Y-59216571D01*
X119514500Y-59216573D01*
X119514500Y-60109091D01*
X118110000Y-60109091D01*
X118110000Y-58498691D01*
X118129685Y-58431652D01*
X118181199Y-58386494D01*
X120700800Y-57200800D01*
X121187238Y-56167117D01*
X121886495Y-54681201D01*
X121932851Y-54628924D01*
X121998692Y-54610000D01*
X220898235Y-54610000D01*
X220965274Y-54629685D01*
G37*
%TD.AperFunction*%
%TD*%
D21*
X120904000Y-55880000D02*
G75*
G03*
X120904000Y-55880000I-1524000J0D01*
G01*
X225044000Y-124460000D02*
G75*
G03*
X225044000Y-124460000I-1524000J0D01*
G01*
X120904000Y-124460000D02*
G75*
G03*
X120904000Y-124460000I-1524000J0D01*
G01*
D22*
X116840000Y-53340000D02*
X226060000Y-53340000D01*
X226060000Y-127000000D01*
X116840000Y-127000000D01*
X116840000Y-53340000D01*
D21*
X225044000Y-55880000D02*
G75*
G03*
X225044000Y-55880000I-1524000J0D01*
G01*
M02*
