%TF.GenerationSoftware,KiCad,Pcbnew,7.0.2-6a45011f42~172~ubuntu22.10.1*%
%TF.CreationDate,2023-10-02T13:31:42+05:00*%
%TF.ProjectId,id4,6964342e-6b69-4636-9164-5f7063625858,1*%
%TF.SameCoordinates,Original*%
%TF.FileFunction,Soldermask,Bot*%
%TF.FilePolarity,Negative*%
%FSLAX46Y46*%
G04 Gerber Fmt 4.6, Leading zero omitted, Abs format (unit mm)*
G04 Created by KiCad (PCBNEW 7.0.2-6a45011f42~172~ubuntu22.10.1) date 2023-10-02 13:31:42*
%MOMM*%
%LPD*%
G01*
G04 APERTURE LIST*
G04 Aperture macros list*
%AMRoundRect*
0 Rectangle with rounded corners*
0 $1 Rounding radius*
0 $2 $3 $4 $5 $6 $7 $8 $9 X,Y pos of 4 corners*
0 Add a 4 corners polygon primitive as box body*
4,1,4,$2,$3,$4,$5,$6,$7,$8,$9,$2,$3,0*
0 Add four circle primitives for the rounded corners*
1,1,$1+$1,$2,$3*
1,1,$1+$1,$4,$5*
1,1,$1+$1,$6,$7*
1,1,$1+$1,$8,$9*
0 Add four rect primitives between the rounded corners*
20,1,$1+$1,$2,$3,$4,$5,0*
20,1,$1+$1,$4,$5,$6,$7,0*
20,1,$1+$1,$6,$7,$8,$9,0*
20,1,$1+$1,$8,$9,$2,$3,0*%
G04 Aperture macros list end*
%ADD10O,1.070000X1.800000*%
%ADD11R,1.308000X1.308000*%
%ADD12C,1.308000*%
%ADD13R,1.524000X1.524000*%
%ADD14C,1.524000*%
%ADD15RoundRect,0.150000X-0.150000X0.587500X-0.150000X-0.587500X0.150000X-0.587500X0.150000X0.587500X0*%
%ADD16RoundRect,0.250000X0.625000X-0.312500X0.625000X0.312500X-0.625000X0.312500X-0.625000X-0.312500X0*%
%ADD17RoundRect,0.250000X-0.312500X-0.625000X0.312500X-0.625000X0.312500X0.625000X-0.312500X0.625000X0*%
%ADD18RoundRect,0.250000X-0.625000X0.312500X-0.625000X-0.312500X0.625000X-0.312500X0.625000X0.312500X0*%
%ADD19RoundRect,0.150000X0.150000X-0.587500X0.150000X0.587500X-0.150000X0.587500X-0.150000X-0.587500X0*%
%ADD20RoundRect,0.150000X0.587500X0.150000X-0.587500X0.150000X-0.587500X-0.150000X0.587500X-0.150000X0*%
%ADD21C,0.800000*%
%TA.AperFunction,Profile*%
%ADD22C,0.150000*%
%TD*%
%TA.AperFunction,Profile*%
%ADD23C,0.200000*%
%TD*%
G04 APERTURE END LIST*
D10*
%TO.C,D1*%
X120650000Y-59690000D03*
X121920000Y-59690000D03*
X123190000Y-59690000D03*
X124460000Y-59690000D03*
%TD*%
%TO.C,D5*%
X120650000Y-120650000D03*
X121920000Y-120650000D03*
X123190000Y-120650000D03*
X124460000Y-120650000D03*
%TD*%
%TO.C,D4*%
X217805000Y-120650000D03*
X219075000Y-120650000D03*
X220345000Y-120650000D03*
X221615000Y-120650000D03*
%TD*%
%TO.C,D3*%
X217805000Y-59690000D03*
X219075000Y-59690000D03*
X220345000Y-59690000D03*
X221615000Y-59690000D03*
%TD*%
D11*
%TO.C,U2*%
X120483000Y-65278000D03*
D12*
X120483000Y-67818000D03*
X120483000Y-70358000D03*
X120483000Y-72898000D03*
X120483000Y-75438000D03*
X120483000Y-77978000D03*
X120483000Y-80518000D03*
X120483000Y-83058000D03*
X138517000Y-83058000D03*
X138517000Y-80518000D03*
X138517000Y-77978000D03*
X138517000Y-75438000D03*
X138517000Y-72898000D03*
X138517000Y-70358000D03*
X138517000Y-67818000D03*
X138517000Y-65278000D03*
%TD*%
D13*
%TO.C,U1*%
X196050000Y-69875800D03*
D14*
X196050000Y-72415800D03*
X196050000Y-74955800D03*
X196050000Y-77495800D03*
X196050000Y-80035800D03*
X196050000Y-82575800D03*
X196050000Y-85115800D03*
X196050000Y-87655800D03*
X196050000Y-90195800D03*
X196050000Y-92735800D03*
X196050000Y-95275800D03*
X196050000Y-97815800D03*
X196050000Y-100355800D03*
X196050000Y-102895800D03*
X196050000Y-105435800D03*
X221450000Y-105435800D03*
X221450000Y-102895800D03*
X221450000Y-100355800D03*
X221450000Y-97815800D03*
X221450000Y-95275800D03*
X221450000Y-92735800D03*
X221450000Y-90195800D03*
X221450000Y-87655800D03*
X221450000Y-85115800D03*
X221450000Y-82575800D03*
X221450000Y-80035800D03*
X221450000Y-77495800D03*
X221450000Y-74955800D03*
X221450000Y-72415800D03*
X221450000Y-69875800D03*
%TD*%
D10*
%TO.C,D2*%
X165100000Y-59690000D03*
X166370000Y-59690000D03*
X167640000Y-59690000D03*
X168910000Y-59690000D03*
%TD*%
D15*
%TO.C,Q4*%
X179800000Y-111397500D03*
X181700000Y-111397500D03*
X180750000Y-113272500D03*
%TD*%
D16*
%TO.C,R5*%
X153750000Y-72662000D03*
X153750000Y-69737000D03*
%TD*%
D17*
%TO.C,R18*%
X179287500Y-76500000D03*
X182212500Y-76500000D03*
%TD*%
D18*
%TO.C,R21*%
X170500000Y-64537500D03*
X170500000Y-67462500D03*
%TD*%
D19*
%TO.C,Q7*%
X192200000Y-72375000D03*
X190300000Y-72375000D03*
X191250000Y-70500000D03*
%TD*%
D17*
%TO.C,R23*%
X166037500Y-76250000D03*
X168962500Y-76250000D03*
%TD*%
D16*
%TO.C,R27*%
X171750000Y-119212500D03*
X171750000Y-116287500D03*
%TD*%
D18*
%TO.C,R13*%
X191250000Y-65037500D03*
X191250000Y-67962500D03*
%TD*%
D19*
%TO.C,Q10*%
X163547200Y-72625000D03*
X161647200Y-72625000D03*
X162597200Y-70750000D03*
%TD*%
D16*
%TO.C,R6*%
X153750000Y-67212500D03*
X153750000Y-64287500D03*
%TD*%
%TO.C,R26*%
X166250000Y-119212500D03*
X166250000Y-116287500D03*
%TD*%
%TO.C,R22*%
X163677600Y-75946000D03*
X163677600Y-78871000D03*
%TD*%
D19*
%TO.C,Q9*%
X181950000Y-72375000D03*
X180050000Y-72375000D03*
X181000000Y-70500000D03*
%TD*%
D15*
%TO.C,Q15*%
X170800000Y-111562500D03*
X172700000Y-111562500D03*
X171750000Y-113437500D03*
%TD*%
D17*
%TO.C,R3*%
X142325000Y-65750000D03*
X145250000Y-65750000D03*
%TD*%
D18*
%TO.C,R14*%
X186000000Y-65037500D03*
X186000000Y-67962500D03*
%TD*%
D17*
%TO.C,R17*%
X184537500Y-76500000D03*
X187462500Y-76500000D03*
%TD*%
%TO.C,R24*%
X171037500Y-76250000D03*
X173962500Y-76250000D03*
%TD*%
D20*
%TO.C,Q3*%
X149975500Y-70188000D03*
X149975500Y-72088000D03*
X148100500Y-71138000D03*
%TD*%
D19*
%TO.C,Q8*%
X186950000Y-72375000D03*
X185050000Y-72375000D03*
X186000000Y-70500000D03*
%TD*%
D16*
%TO.C,R25*%
X160750000Y-119250000D03*
X160750000Y-116325000D03*
%TD*%
D17*
%TO.C,R1*%
X142325000Y-76500000D03*
X145250000Y-76500000D03*
%TD*%
D18*
%TO.C,R15*%
X181000000Y-65037500D03*
X181000000Y-67962500D03*
%TD*%
%TO.C,R30*%
X172750000Y-105537500D03*
X172750000Y-108462500D03*
%TD*%
%TO.C,R12*%
X192750000Y-105575000D03*
X192750000Y-108500000D03*
%TD*%
D17*
%TO.C,R2*%
X142325000Y-71250000D03*
X145250000Y-71250000D03*
%TD*%
D18*
%TO.C,R10*%
X181750000Y-105575000D03*
X181750000Y-108500000D03*
%TD*%
%TO.C,R20*%
X166750000Y-64537500D03*
X166750000Y-67462500D03*
%TD*%
D15*
%TO.C,Q6*%
X190800000Y-111397500D03*
X192700000Y-111397500D03*
X191750000Y-113272500D03*
%TD*%
D16*
%TO.C,R16*%
X192176400Y-78627700D03*
X192176400Y-75702700D03*
%TD*%
%TO.C,R8*%
X186250000Y-119272500D03*
X186250000Y-116347500D03*
%TD*%
%TO.C,R4*%
X153750000Y-78250000D03*
X153750000Y-75325000D03*
%TD*%
D18*
%TO.C,R28*%
X161750000Y-105500000D03*
X161750000Y-108425000D03*
%TD*%
D16*
%TO.C,R7*%
X180750000Y-119235000D03*
X180750000Y-116310000D03*
%TD*%
D15*
%TO.C,Q14*%
X165250000Y-111500000D03*
X167150000Y-111500000D03*
X166200000Y-113375000D03*
%TD*%
D18*
%TO.C,R11*%
X187250000Y-105575000D03*
X187250000Y-108500000D03*
%TD*%
D19*
%TO.C,Q11*%
X168450000Y-72625000D03*
X166550000Y-72625000D03*
X167500000Y-70750000D03*
%TD*%
D15*
%TO.C,Q5*%
X185300000Y-111397500D03*
X187200000Y-111397500D03*
X186250000Y-113272500D03*
%TD*%
D18*
%TO.C,R19*%
X163000000Y-64537500D03*
X163000000Y-67462500D03*
%TD*%
D15*
%TO.C,Q13*%
X159800000Y-111500000D03*
X161700000Y-111500000D03*
X160750000Y-113375000D03*
%TD*%
D20*
%TO.C,Q1*%
X149975500Y-75522000D03*
X149975500Y-77422000D03*
X148100500Y-76472000D03*
%TD*%
D18*
%TO.C,R29*%
X167250000Y-105537500D03*
X167250000Y-108462500D03*
%TD*%
D16*
%TO.C,R9*%
X191750000Y-119250000D03*
X191750000Y-116325000D03*
%TD*%
D19*
%TO.C,Q12*%
X173450000Y-72625000D03*
X171550000Y-72625000D03*
X172500000Y-70750000D03*
%TD*%
D20*
%TO.C,Q2*%
X149937500Y-64800000D03*
X149937500Y-66700000D03*
X148062500Y-65750000D03*
%TD*%
D21*
X218440000Y-100330000D03*
X156210000Y-78232000D03*
X218440000Y-97790000D03*
X156210000Y-72644000D03*
X156184600Y-68681600D03*
X218440000Y-95250000D03*
X172364400Y-79705200D03*
X147574000Y-116840000D03*
X177038000Y-88392000D03*
X132207000Y-96520000D03*
X174498000Y-85852000D03*
X175768000Y-87122000D03*
X139827000Y-106680000D03*
D22*
X120904000Y-55880000D02*
G75*
G03*
X120904000Y-55880000I-1524000J0D01*
G01*
X225044000Y-124460000D02*
G75*
G03*
X225044000Y-124460000I-1524000J0D01*
G01*
X120904000Y-124460000D02*
G75*
G03*
X120904000Y-124460000I-1524000J0D01*
G01*
D23*
X116840000Y-53340000D02*
X226060000Y-53340000D01*
X226060000Y-127000000D01*
X116840000Y-127000000D01*
X116840000Y-53340000D01*
D22*
X225044000Y-55880000D02*
G75*
G03*
X225044000Y-55880000I-1524000J0D01*
G01*
M02*
