%TF.GenerationSoftware,KiCad,Pcbnew,7.0.2-6a45011f42~172~ubuntu22.10.1*%
%TF.CreationDate,2023-07-27T16:52:51+05:00*%
%TF.ProjectId,id4,6964342e-6b69-4636-9164-5f7063625858,1*%
%TF.SameCoordinates,Original*%
%TF.FileFunction,Paste,Bot*%
%TF.FilePolarity,Positive*%
%FSLAX46Y46*%
G04 Gerber Fmt 4.6, Leading zero omitted, Abs format (unit mm)*
G04 Created by KiCad (PCBNEW 7.0.2-6a45011f42~172~ubuntu22.10.1) date 2023-07-27 16:52:51*
%MOMM*%
%LPD*%
G01*
G04 APERTURE LIST*
G04 Aperture macros list*
%AMRoundRect*
0 Rectangle with rounded corners*
0 $1 Rounding radius*
0 $2 $3 $4 $5 $6 $7 $8 $9 X,Y pos of 4 corners*
0 Add a 4 corners polygon primitive as box body*
4,1,4,$2,$3,$4,$5,$6,$7,$8,$9,$2,$3,0*
0 Add four circle primitives for the rounded corners*
1,1,$1+$1,$2,$3*
1,1,$1+$1,$4,$5*
1,1,$1+$1,$6,$7*
1,1,$1+$1,$8,$9*
0 Add four rect primitives between the rounded corners*
20,1,$1+$1,$2,$3,$4,$5,0*
20,1,$1+$1,$4,$5,$6,$7,0*
20,1,$1+$1,$6,$7,$8,$9,0*
20,1,$1+$1,$8,$9,$2,$3,0*%
G04 Aperture macros list end*
%ADD10RoundRect,0.150000X-0.150000X0.587500X-0.150000X-0.587500X0.150000X-0.587500X0.150000X0.587500X0*%
%ADD11RoundRect,0.250000X0.625000X-0.312500X0.625000X0.312500X-0.625000X0.312500X-0.625000X-0.312500X0*%
%ADD12RoundRect,0.250000X0.312500X0.625000X-0.312500X0.625000X-0.312500X-0.625000X0.312500X-0.625000X0*%
%ADD13RoundRect,0.250000X-0.625000X0.312500X-0.625000X-0.312500X0.625000X-0.312500X0.625000X0.312500X0*%
%ADD14RoundRect,0.150000X0.150000X-0.587500X0.150000X0.587500X-0.150000X0.587500X-0.150000X-0.587500X0*%
%ADD15RoundRect,0.250000X-0.312500X-0.625000X0.312500X-0.625000X0.312500X0.625000X-0.312500X0.625000X0*%
%ADD16RoundRect,0.150000X0.587500X0.150000X-0.587500X0.150000X-0.587500X-0.150000X0.587500X-0.150000X0*%
%TA.AperFunction,Profile*%
%ADD17C,0.150000*%
%TD*%
%TA.AperFunction,Profile*%
%ADD18C,0.200000*%
%TD*%
G04 APERTURE END LIST*
D10*
%TO.C,Q4*%
X179800000Y-111397500D03*
X181700000Y-111397500D03*
X180750000Y-113272500D03*
%TD*%
D11*
%TO.C,R5*%
X153750000Y-72662000D03*
X153750000Y-69737000D03*
%TD*%
D12*
%TO.C,R18*%
X182212500Y-76500000D03*
X179287500Y-76500000D03*
%TD*%
D13*
%TO.C,R21*%
X170500000Y-64537500D03*
X170500000Y-67462500D03*
%TD*%
D14*
%TO.C,Q7*%
X192200000Y-72375000D03*
X190300000Y-72375000D03*
X191250000Y-70500000D03*
%TD*%
D12*
%TO.C,R23*%
X168962500Y-76250000D03*
X166037500Y-76250000D03*
%TD*%
D11*
%TO.C,R27*%
X171750000Y-119212500D03*
X171750000Y-116287500D03*
%TD*%
D13*
%TO.C,R13*%
X191250000Y-65037500D03*
X191250000Y-67962500D03*
%TD*%
D14*
%TO.C,Q10*%
X163547200Y-72625000D03*
X161647200Y-72625000D03*
X162597200Y-70750000D03*
%TD*%
D11*
%TO.C,R6*%
X153750000Y-67212500D03*
X153750000Y-64287500D03*
%TD*%
%TO.C,R26*%
X166250000Y-119212500D03*
X166250000Y-116287500D03*
%TD*%
D12*
%TO.C,R22*%
X163887500Y-76250000D03*
X160962500Y-76250000D03*
%TD*%
D14*
%TO.C,Q9*%
X181950000Y-72375000D03*
X180050000Y-72375000D03*
X181000000Y-70500000D03*
%TD*%
D10*
%TO.C,Q15*%
X170800000Y-111562500D03*
X172700000Y-111562500D03*
X171750000Y-113437500D03*
%TD*%
D15*
%TO.C,R3*%
X142325000Y-65750000D03*
X145250000Y-65750000D03*
%TD*%
D13*
%TO.C,R14*%
X186000000Y-65037500D03*
X186000000Y-67962500D03*
%TD*%
D12*
%TO.C,R17*%
X187462500Y-76500000D03*
X184537500Y-76500000D03*
%TD*%
%TO.C,R24*%
X173962500Y-76250000D03*
X171037500Y-76250000D03*
%TD*%
D16*
%TO.C,Q3*%
X149975500Y-70188000D03*
X149975500Y-72088000D03*
X148100500Y-71138000D03*
%TD*%
D14*
%TO.C,Q8*%
X186950000Y-72375000D03*
X185050000Y-72375000D03*
X186000000Y-70500000D03*
%TD*%
D11*
%TO.C,R25*%
X160750000Y-119250000D03*
X160750000Y-116325000D03*
%TD*%
D15*
%TO.C,R1*%
X142325000Y-76500000D03*
X145250000Y-76500000D03*
%TD*%
D13*
%TO.C,R15*%
X181000000Y-65037500D03*
X181000000Y-67962500D03*
%TD*%
%TO.C,R30*%
X172750000Y-105537500D03*
X172750000Y-108462500D03*
%TD*%
%TO.C,R12*%
X192750000Y-105575000D03*
X192750000Y-108500000D03*
%TD*%
D15*
%TO.C,R2*%
X142325000Y-71250000D03*
X145250000Y-71250000D03*
%TD*%
D13*
%TO.C,R10*%
X181750000Y-105575000D03*
X181750000Y-108500000D03*
%TD*%
%TO.C,R20*%
X166750000Y-64537500D03*
X166750000Y-67462500D03*
%TD*%
D10*
%TO.C,Q6*%
X190800000Y-111397500D03*
X192700000Y-111397500D03*
X191750000Y-113272500D03*
%TD*%
D12*
%TO.C,R16*%
X192712500Y-76500000D03*
X189787500Y-76500000D03*
%TD*%
D11*
%TO.C,R8*%
X186250000Y-119272500D03*
X186250000Y-116347500D03*
%TD*%
%TO.C,R4*%
X153750000Y-78250000D03*
X153750000Y-75325000D03*
%TD*%
D13*
%TO.C,R28*%
X161750000Y-105500000D03*
X161750000Y-108425000D03*
%TD*%
D11*
%TO.C,R7*%
X180750000Y-119235000D03*
X180750000Y-116310000D03*
%TD*%
D10*
%TO.C,Q14*%
X165250000Y-111500000D03*
X167150000Y-111500000D03*
X166200000Y-113375000D03*
%TD*%
D13*
%TO.C,R11*%
X187250000Y-105575000D03*
X187250000Y-108500000D03*
%TD*%
D14*
%TO.C,Q11*%
X168450000Y-72625000D03*
X166550000Y-72625000D03*
X167500000Y-70750000D03*
%TD*%
D10*
%TO.C,Q5*%
X185300000Y-111397500D03*
X187200000Y-111397500D03*
X186250000Y-113272500D03*
%TD*%
D13*
%TO.C,R19*%
X163000000Y-64537500D03*
X163000000Y-67462500D03*
%TD*%
D10*
%TO.C,Q13*%
X159800000Y-111500000D03*
X161700000Y-111500000D03*
X160750000Y-113375000D03*
%TD*%
D16*
%TO.C,Q1*%
X149975500Y-75522000D03*
X149975500Y-77422000D03*
X148100500Y-76472000D03*
%TD*%
D13*
%TO.C,R29*%
X167250000Y-105537500D03*
X167250000Y-108462500D03*
%TD*%
D11*
%TO.C,R9*%
X191750000Y-119250000D03*
X191750000Y-116325000D03*
%TD*%
D14*
%TO.C,Q12*%
X173450000Y-72625000D03*
X171550000Y-72625000D03*
X172500000Y-70750000D03*
%TD*%
D16*
%TO.C,Q2*%
X149937500Y-64800000D03*
X149937500Y-66700000D03*
X148062500Y-65750000D03*
%TD*%
D17*
X120904000Y-55880000D02*
G75*
G03*
X120904000Y-55880000I-1524000J0D01*
G01*
X225044000Y-124460000D02*
G75*
G03*
X225044000Y-124460000I-1524000J0D01*
G01*
X120904000Y-124460000D02*
G75*
G03*
X120904000Y-124460000I-1524000J0D01*
G01*
D18*
X116840000Y-53340000D02*
X226060000Y-53340000D01*
X226060000Y-127000000D01*
X116840000Y-127000000D01*
X116840000Y-53340000D01*
D17*
X225044000Y-55880000D02*
G75*
G03*
X225044000Y-55880000I-1524000J0D01*
G01*
M02*
