%TF.GenerationSoftware,KiCad,Pcbnew,7.0.2-6a45011f42~172~ubuntu22.10.1*%
%TF.CreationDate,2023-07-27T16:52:50+05:00*%
%TF.ProjectId,id4,6964342e-6b69-4636-9164-5f7063625858,1*%
%TF.SameCoordinates,Original*%
%TF.FileFunction,Copper,L1,Top*%
%TF.FilePolarity,Positive*%
%FSLAX46Y46*%
G04 Gerber Fmt 4.6, Leading zero omitted, Abs format (unit mm)*
G04 Created by KiCad (PCBNEW 7.0.2-6a45011f42~172~ubuntu22.10.1) date 2023-07-27 16:52:50*
%MOMM*%
%LPD*%
G01*
G04 APERTURE LIST*
%TA.AperFunction,SMDPad,CuDef*%
%ADD10R,1.700000X1.000000*%
%TD*%
%TA.AperFunction,ComponentPad*%
%ADD11O,1.070000X1.800000*%
%TD*%
%TA.AperFunction,SMDPad,CuDef*%
%ADD12R,1.500000X1.000000*%
%TD*%
%TA.AperFunction,ComponentPad*%
%ADD13R,1.308000X1.308000*%
%TD*%
%TA.AperFunction,ComponentPad*%
%ADD14C,1.308000*%
%TD*%
%TA.AperFunction,ComponentPad*%
%ADD15R,1.524000X1.524000*%
%TD*%
%TA.AperFunction,ComponentPad*%
%ADD16C,1.524000*%
%TD*%
%TA.AperFunction,ViaPad*%
%ADD17C,0.800000*%
%TD*%
%TA.AperFunction,Conductor*%
%ADD18C,0.300000*%
%TD*%
%TA.AperFunction,Conductor*%
%ADD19C,0.600000*%
%TD*%
%TA.AperFunction,Conductor*%
%ADD20C,0.800000*%
%TD*%
%TA.AperFunction,Profile*%
%ADD21C,0.150000*%
%TD*%
%TA.AperFunction,Profile*%
%ADD22C,0.200000*%
%TD*%
G04 APERTURE END LIST*
D10*
%TO.P,SW1,1,1*%
%TO.N,VCC_5*%
X138557000Y-113030000D03*
X144857000Y-113030000D03*
%TO.P,SW1,2,2*%
%TO.N,GPIO_35*%
X138557000Y-116830000D03*
X144857000Y-116830000D03*
%TD*%
D11*
%TO.P,D1,1,RK*%
%TO.N,Net-(D1-RK)*%
X120650000Y-59690000D03*
%TO.P,D1,2,GK*%
%TO.N,Net-(D1-GK)*%
X121920000Y-59690000D03*
%TO.P,D1,3,BK*%
%TO.N,Net-(D1-BK)*%
X123190000Y-59690000D03*
%TO.P,D1,4,A*%
%TO.N,VCC_5*%
X124460000Y-59690000D03*
%TD*%
%TO.P,D5,1,RK*%
%TO.N,Net-(D5-RK)*%
X120650000Y-120650000D03*
%TO.P,D5,2,GK*%
%TO.N,Net-(D5-GK)*%
X121920000Y-120650000D03*
%TO.P,D5,3,BK*%
%TO.N,Net-(D5-BK)*%
X123190000Y-120650000D03*
%TO.P,D5,4,A*%
%TO.N,VCC_5*%
X124460000Y-120650000D03*
%TD*%
%TO.P,D4,1,RK*%
%TO.N,Net-(D4-RK)*%
X217805000Y-120650000D03*
%TO.P,D4,2,GK*%
%TO.N,Net-(D4-GK)*%
X219075000Y-120650000D03*
%TO.P,D4,3,BK*%
%TO.N,Net-(D4-BK)*%
X220345000Y-120650000D03*
%TO.P,D4,4,A*%
%TO.N,VCC_5*%
X221615000Y-120650000D03*
%TD*%
%TO.P,D3,1,RK*%
%TO.N,Net-(D3-RK)*%
X217805000Y-59690000D03*
%TO.P,D3,2,GK*%
%TO.N,Net-(D3-GK)*%
X219075000Y-59690000D03*
%TO.P,D3,3,BK*%
%TO.N,Net-(D3-BK)*%
X220345000Y-59690000D03*
%TO.P,D3,4,A*%
%TO.N,VCC_5*%
X221615000Y-59690000D03*
%TD*%
D12*
%TO.P,dynamic1,1,1*%
%TO.N,Net-(U2-SPK1)*%
X143500000Y-89950000D03*
%TO.P,dynamic1,2,2*%
%TO.N,Net-(U2-SPK2)*%
X143500000Y-91250000D03*
%TD*%
D10*
%TO.P,SW2,1,1*%
%TO.N,VCC_5*%
X123215000Y-92715000D03*
X129515000Y-92715000D03*
%TO.P,SW2,2,2*%
%TO.N,GPIO_39*%
X123215000Y-96515000D03*
X129515000Y-96515000D03*
%TD*%
D13*
%TO.P,U2,1,VCC*%
%TO.N,VCC_5*%
X120483000Y-65278000D03*
D14*
%TO.P,U2,2,RX*%
%TO.N,GPIO_17*%
X120483000Y-67818000D03*
%TO.P,U2,3,TX*%
%TO.N,GPIO_16*%
X120483000Y-70358000D03*
%TO.P,U2,4,DAC_R*%
%TO.N,unconnected-(U2-DAC_R-Pad4)*%
X120483000Y-72898000D03*
%TO.P,U2,5,DAC_L*%
%TO.N,unconnected-(U2-DAC_L-Pad5)*%
X120483000Y-75438000D03*
%TO.P,U2,6,SPK1*%
%TO.N,Net-(U2-SPK1)*%
X120483000Y-77978000D03*
%TO.P,U2,7,GND*%
%TO.N,GND*%
X120483000Y-80518000D03*
%TO.P,U2,8,SPK2*%
%TO.N,Net-(U2-SPK2)*%
X120483000Y-83058000D03*
%TO.P,U2,9,IO1*%
%TO.N,unconnected-(U2-IO1-Pad9)*%
X138517000Y-83058000D03*
%TO.P,U2,10,GND*%
%TO.N,GND*%
X138517000Y-80518000D03*
%TO.P,U2,11,IO2*%
%TO.N,unconnected-(U2-IO2-Pad11)*%
X138517000Y-77978000D03*
%TO.P,U2,12,ADKEY1*%
%TO.N,unconnected-(U2-ADKEY1-Pad12)*%
X138517000Y-75438000D03*
%TO.P,U2,13,ADKEY2*%
%TO.N,unconnected-(U2-ADKEY2-Pad13)*%
X138517000Y-72898000D03*
%TO.P,U2,14,USB+*%
%TO.N,unconnected-(U2-USB+-Pad14)*%
X138517000Y-70358000D03*
%TO.P,U2,15,USB-*%
%TO.N,unconnected-(U2-USB--Pad15)*%
X138517000Y-67818000D03*
%TO.P,U2,16,BUSY*%
%TO.N,GPIO_36*%
X138517000Y-65278000D03*
%TD*%
D15*
%TO.P,U1,1,EN*%
%TO.N,unconnected-(U1-EN-Pad1)*%
X196050000Y-69875800D03*
D16*
%TO.P,U1,2,SENSOR_VP*%
%TO.N,GPIO_36*%
X196050000Y-72415800D03*
%TO.P,U1,3,SENSOR_VN*%
%TO.N,GPIO_39*%
X196050000Y-74955800D03*
%TO.P,U1,4,IO34*%
%TO.N,GPIO_34*%
X196050000Y-77495800D03*
%TO.P,U1,5,IO35*%
%TO.N,GPIO_35*%
X196050000Y-80035800D03*
%TO.P,U1,6,IO32*%
%TO.N,GPIO_32*%
X196050000Y-82575800D03*
%TO.P,U1,7,IO33*%
%TO.N,GPIO_33*%
X196050000Y-85115800D03*
%TO.P,U1,8,IO25*%
%TO.N,unconnected-(U1-IO25-Pad8)*%
X196050000Y-87655800D03*
%TO.P,U1,9,IO26*%
%TO.N,unconnected-(U1-IO26-Pad9)*%
X196050000Y-90195800D03*
%TO.P,U1,10,IO27*%
%TO.N,GPIO_27*%
X196050000Y-92735800D03*
%TO.P,U1,11,IO14*%
%TO.N,GPIO_14*%
X196050000Y-95275800D03*
%TO.P,U1,12,IO12*%
%TO.N,GPIO_12*%
X196050000Y-97815800D03*
%TO.P,U1,13,IO13*%
%TO.N,GPIO_13*%
X196050000Y-100355800D03*
%TO.P,U1,14,GND*%
%TO.N,GND*%
X196050000Y-102895800D03*
%TO.P,U1,15,VIN*%
%TO.N,VCC_5*%
X196050000Y-105435800D03*
%TO.P,U1,16,3V3*%
%TO.N,unconnected-(U1-3V3-Pad16)*%
X221450000Y-105435800D03*
%TO.P,U1,17,GND*%
%TO.N,GND*%
X221450000Y-102895800D03*
%TO.P,U1,18,IO15*%
%TO.N,GPIO_15*%
X221450000Y-100355800D03*
%TO.P,U1,19,IO2*%
%TO.N,GPIO_2*%
X221450000Y-97815800D03*
%TO.P,U1,20,IO4*%
%TO.N,GPIO_4*%
X221450000Y-95275800D03*
%TO.P,U1,21,IO16*%
%TO.N,GPIO_16*%
X221450000Y-92735800D03*
%TO.P,U1,22,IO17*%
%TO.N,GPIO_17*%
X221450000Y-90195800D03*
%TO.P,U1,23,IO5*%
%TO.N,GPIO_5*%
X221450000Y-87655800D03*
%TO.P,U1,24,IO18*%
%TO.N,GPIO_18*%
X221450000Y-85115800D03*
%TO.P,U1,25,IO19*%
%TO.N,GPIO_19*%
X221450000Y-82575800D03*
%TO.P,U1,26,IO21*%
%TO.N,GPIO_21*%
X221450000Y-80035800D03*
%TO.P,U1,27,RXD0/IO3*%
%TO.N,unconnected-(U1-RXD0{slash}IO3-Pad27)*%
X221450000Y-77495800D03*
%TO.P,U1,28,TXD0/IO1*%
%TO.N,unconnected-(U1-TXD0{slash}IO1-Pad28)*%
X221450000Y-74955800D03*
%TO.P,U1,29,IO22*%
%TO.N,GPIO_22*%
X221450000Y-72415800D03*
%TO.P,U1,30,IO23*%
%TO.N,GPIO_23*%
X221450000Y-69875800D03*
%TD*%
D10*
%TO.P,SW3,1,1*%
%TO.N,VCC_5*%
X130835000Y-102875000D03*
X137135000Y-102875000D03*
%TO.P,SW3,2,2*%
%TO.N,GPIO_34*%
X130835000Y-106675000D03*
X137135000Y-106675000D03*
%TD*%
D11*
%TO.P,D2,1,RK*%
%TO.N,Net-(D2-RK)*%
X165100000Y-59690000D03*
%TO.P,D2,2,GK*%
%TO.N,Net-(D2-GK)*%
X166370000Y-59690000D03*
%TO.P,D2,3,BK*%
%TO.N,Net-(D2-BK)*%
X167640000Y-59690000D03*
%TO.P,D2,4,A*%
%TO.N,VCC_5*%
X168910000Y-59690000D03*
%TD*%
D17*
%TO.N,GPIO_15*%
X218440000Y-100330000D03*
X156210000Y-78232000D03*
%TO.N,GPIO_2*%
X218440000Y-97790000D03*
X156210000Y-72644000D03*
%TO.N,GPIO_4*%
X156184600Y-68681600D03*
X218440000Y-95250000D03*
%TO.N,GPIO_5*%
X176276000Y-76454000D03*
%TO.N,GPIO_35*%
X147574000Y-116840000D03*
X177038000Y-88392000D03*
%TO.N,GPIO_39*%
X132207000Y-96520000D03*
X174498000Y-85852000D03*
%TO.N,GPIO_34*%
X175768000Y-87122000D03*
X139827000Y-106680000D03*
%TD*%
D18*
%TO.N,GPIO_15*%
X218440000Y-100330000D02*
X217424000Y-99314000D01*
X217424000Y-99314000D02*
X177292000Y-99314000D01*
X177292000Y-99314000D02*
X156210000Y-78232000D01*
%TO.N,GPIO_2*%
X157226000Y-78646960D02*
X157226000Y-73660000D01*
X157226000Y-73660000D02*
X156210000Y-72644000D01*
X217341000Y-98889000D02*
X177468040Y-98889000D01*
X218440000Y-97790000D02*
X217341000Y-98889000D01*
X177468040Y-98889000D02*
X157226000Y-78646960D01*
%TO.N,GPIO_4*%
X216916000Y-96774000D02*
X175954080Y-96774000D01*
X157651000Y-70148000D02*
X156184600Y-68681600D01*
X157651000Y-78470920D02*
X157651000Y-70148000D01*
X175954080Y-96774000D02*
X157651000Y-78470920D01*
X218440000Y-95250000D02*
X216916000Y-96774000D01*
%TO.N,GPIO_5*%
X196596000Y-73660000D02*
X210591800Y-87655800D01*
X210591800Y-87655800D02*
X221450000Y-87655800D01*
X176276000Y-76454000D02*
X179070000Y-73660000D01*
X179070000Y-73660000D02*
X196596000Y-73660000D01*
D19*
%TO.N,GPIO_35*%
X144857000Y-116830000D02*
X147564000Y-116830000D01*
D18*
X183455240Y-80035800D02*
X177038000Y-86453040D01*
X196050000Y-80035800D02*
X183455240Y-80035800D01*
X177038000Y-86453040D02*
X177038000Y-88392000D01*
D19*
X138557000Y-116830000D02*
X144857000Y-116830000D01*
X147564000Y-116830000D02*
X147574000Y-116840000D01*
D18*
%TO.N,GPIO_39*%
X176436960Y-85852000D02*
X174498000Y-85852000D01*
D19*
X129520000Y-96520000D02*
X129515000Y-96515000D01*
D18*
X196050000Y-74955800D02*
X196050000Y-75984000D01*
X192848200Y-79185800D02*
X183103160Y-79185800D01*
D19*
X123215000Y-96515000D02*
X129515000Y-96515000D01*
D18*
X183103160Y-79185800D02*
X176436960Y-85852000D01*
X196050000Y-75984000D02*
X192848200Y-79185800D01*
D19*
X132207000Y-96520000D02*
X129520000Y-96520000D01*
%TO.N,GPIO_34*%
X139827000Y-106680000D02*
X137140000Y-106680000D01*
X137140000Y-106680000D02*
X137135000Y-106675000D01*
X130835000Y-106675000D02*
X137135000Y-106675000D01*
D18*
X183279200Y-79610800D02*
X175768000Y-87122000D01*
X193935000Y-79610800D02*
X183279200Y-79610800D01*
X196050000Y-77495800D02*
X193935000Y-79610800D01*
%TO.N,GPIO_36*%
X156841675Y-65785000D02*
X157735000Y-66678325D01*
X157735000Y-67031880D02*
X163118920Y-72415800D01*
X155494323Y-65869000D02*
X155578323Y-65785000D01*
X155578323Y-65785000D02*
X156841675Y-65785000D01*
X157735000Y-66678325D02*
X157735000Y-67031880D01*
X163118920Y-72415800D02*
X196050000Y-72415800D01*
X138517000Y-65278000D02*
X139108000Y-65869000D01*
X139108000Y-65869000D02*
X155494323Y-65869000D01*
%TO.N,GPIO_16*%
X158076000Y-78294880D02*
X176130120Y-96349000D01*
X158076000Y-68574960D02*
X158076000Y-78294880D01*
X156885000Y-67030405D02*
X156885000Y-67383960D01*
X120483000Y-70271000D02*
X124035000Y-66719000D01*
X176130120Y-96349000D02*
X216386405Y-96349000D01*
X216386405Y-96349000D02*
X219999605Y-92735800D01*
X120483000Y-70358000D02*
X120483000Y-70271000D01*
X156489595Y-66635000D02*
X156885000Y-67030405D01*
X155846405Y-66719000D02*
X155930405Y-66635000D01*
X155930405Y-66635000D02*
X156489595Y-66635000D01*
X219999605Y-92735800D02*
X221450000Y-92735800D01*
X156885000Y-67383960D02*
X158076000Y-68574960D01*
X124035000Y-66719000D02*
X155846405Y-66719000D01*
%TO.N,GPIO_17*%
X122334960Y-67818000D02*
X123858960Y-66294000D01*
X217794100Y-94238800D02*
X221450000Y-90582900D01*
X158501000Y-68398920D02*
X158501000Y-78118840D01*
X155754364Y-66210000D02*
X156665635Y-66210000D01*
X176306160Y-95924000D02*
X193935260Y-95924000D01*
X157310000Y-66854365D02*
X157310000Y-67207920D01*
X157310000Y-67207920D02*
X158501000Y-68398920D01*
X120483000Y-67818000D02*
X122334960Y-67818000D01*
X193935260Y-95924000D02*
X195620460Y-94238800D01*
X156665635Y-66210000D02*
X157310000Y-66854365D01*
X195620460Y-94238800D02*
X217794100Y-94238800D01*
X221450000Y-90582900D02*
X221450000Y-90195800D01*
X123858960Y-66294000D02*
X155670364Y-66294000D01*
X155670364Y-66294000D02*
X155754364Y-66210000D01*
X158501000Y-78118840D02*
X176306160Y-95924000D01*
D20*
%TO.N,Net-(U2-SPK1)*%
X136940000Y-89950000D02*
X124968000Y-77978000D01*
X124968000Y-77978000D02*
X120483000Y-77978000D01*
X143500000Y-89950000D02*
X136940000Y-89950000D01*
%TO.N,Net-(U2-SPK2)*%
X143500000Y-91250000D02*
X135954000Y-91250000D01*
X127762000Y-83058000D02*
X120483000Y-83058000D01*
X135954000Y-91250000D02*
X127762000Y-83058000D01*
%TD*%
%TA.AperFunction,Conductor*%
%TO.N,VCC_5*%
G36*
X220965274Y-54629685D02*
G01*
X221011029Y-54682489D01*
X221012204Y-54685143D01*
X222123000Y-57277000D01*
X224607629Y-58341841D01*
X224714846Y-58387791D01*
X224768711Y-58432292D01*
X224789966Y-58498850D01*
X224790000Y-58501765D01*
X224789999Y-121838638D01*
X224770314Y-121905677D01*
X224717510Y-121951432D01*
X224715363Y-121952389D01*
X222097600Y-123088400D01*
X222097599Y-123088400D01*
X221012021Y-125654315D01*
X220967771Y-125708387D01*
X220901312Y-125729951D01*
X220897821Y-125730000D01*
X121998692Y-125730000D01*
X121931653Y-125710315D01*
X121886495Y-125658799D01*
X120700800Y-123139200D01*
X120700799Y-123139199D01*
X118181201Y-121953505D01*
X118128924Y-121907149D01*
X118110000Y-121841308D01*
X118110000Y-121069091D01*
X119514500Y-121069091D01*
X119514779Y-121072021D01*
X119514780Y-121072025D01*
X119529948Y-121230874D01*
X119591043Y-121438944D01*
X119690408Y-121631684D01*
X119690410Y-121631687D01*
X119690412Y-121631690D01*
X119824462Y-121802149D01*
X119957050Y-121917037D01*
X119988350Y-121944159D01*
X120089998Y-122002845D01*
X120176151Y-122052585D01*
X120381078Y-122123511D01*
X120595725Y-122154373D01*
X120812334Y-122144055D01*
X121023075Y-122092929D01*
X121111416Y-122052585D01*
X121231104Y-121997926D01*
X121231917Y-121999707D01*
X121283971Y-121981686D01*
X121351871Y-121998152D01*
X121446151Y-122052585D01*
X121651078Y-122123511D01*
X121865725Y-122154373D01*
X122082334Y-122144055D01*
X122293075Y-122092929D01*
X122381416Y-122052585D01*
X122501104Y-121997926D01*
X122501917Y-121999707D01*
X122553971Y-121981686D01*
X122621871Y-121998152D01*
X122716151Y-122052585D01*
X122921078Y-122123511D01*
X123135725Y-122154373D01*
X123352334Y-122144055D01*
X123563075Y-122092929D01*
X123760332Y-122002845D01*
X123848743Y-121939887D01*
X123914765Y-121917037D01*
X123979120Y-121931538D01*
X124062003Y-121975840D01*
X124210000Y-122020734D01*
X124210000Y-121546252D01*
X124218881Y-121500168D01*
X124284460Y-121336362D01*
X124325500Y-121123427D01*
X124325500Y-120919620D01*
X124403920Y-120950000D01*
X124487802Y-120950000D01*
X124570250Y-120934588D01*
X124626111Y-120900000D01*
X124710000Y-120900000D01*
X124710000Y-122020734D01*
X124857996Y-121975840D01*
X125037795Y-121879735D01*
X125195397Y-121750397D01*
X125324735Y-121592795D01*
X125420839Y-121412998D01*
X125480025Y-121217892D01*
X125494680Y-121069091D01*
X216669500Y-121069091D01*
X216669779Y-121072021D01*
X216669780Y-121072025D01*
X216684948Y-121230874D01*
X216746043Y-121438944D01*
X216845408Y-121631684D01*
X216845410Y-121631687D01*
X216845412Y-121631690D01*
X216979462Y-121802149D01*
X217112050Y-121917037D01*
X217143350Y-121944159D01*
X217244998Y-122002845D01*
X217331151Y-122052585D01*
X217536078Y-122123511D01*
X217750725Y-122154373D01*
X217967334Y-122144055D01*
X218178075Y-122092929D01*
X218266416Y-122052585D01*
X218386104Y-121997926D01*
X218386917Y-121999707D01*
X218438971Y-121981686D01*
X218506871Y-121998152D01*
X218601151Y-122052585D01*
X218806078Y-122123511D01*
X219020725Y-122154373D01*
X219237334Y-122144055D01*
X219448075Y-122092929D01*
X219536416Y-122052585D01*
X219656104Y-121997926D01*
X219656917Y-121999707D01*
X219708971Y-121981686D01*
X219776871Y-121998152D01*
X219871151Y-122052585D01*
X220076078Y-122123511D01*
X220290725Y-122154373D01*
X220507334Y-122144055D01*
X220718075Y-122092929D01*
X220915332Y-122002845D01*
X221003743Y-121939887D01*
X221069765Y-121917037D01*
X221134120Y-121931538D01*
X221217003Y-121975840D01*
X221365000Y-122020734D01*
X221365000Y-121546252D01*
X221373881Y-121500168D01*
X221439460Y-121336362D01*
X221480500Y-121123427D01*
X221480500Y-120919620D01*
X221558920Y-120950000D01*
X221642802Y-120950000D01*
X221725250Y-120934588D01*
X221781111Y-120900000D01*
X221865000Y-120900000D01*
X221865000Y-122020734D01*
X222012996Y-121975840D01*
X222192795Y-121879735D01*
X222350397Y-121750397D01*
X222479735Y-121592795D01*
X222575839Y-121412998D01*
X222635025Y-121217892D01*
X222649701Y-121068882D01*
X222650000Y-121062798D01*
X222650000Y-120900000D01*
X221865000Y-120900000D01*
X221781111Y-120900000D01*
X221820610Y-120875543D01*
X221888201Y-120786038D01*
X221918895Y-120678160D01*
X221908546Y-120566479D01*
X221858552Y-120466078D01*
X221775666Y-120390516D01*
X221671080Y-120350000D01*
X221587198Y-120350000D01*
X221504750Y-120365412D01*
X221480500Y-120380427D01*
X221480500Y-120230909D01*
X221465052Y-120069128D01*
X221403957Y-119861058D01*
X221394006Y-119841756D01*
X221378784Y-119812228D01*
X221365000Y-119755409D01*
X221365000Y-119279264D01*
X221865000Y-119279264D01*
X221865000Y-120400000D01*
X222650000Y-120400000D01*
X222650000Y-120237201D01*
X222649701Y-120231117D01*
X222635025Y-120082107D01*
X222575839Y-119887001D01*
X222479735Y-119707204D01*
X222350397Y-119549602D01*
X222192795Y-119420264D01*
X222012994Y-119324157D01*
X221865001Y-119279264D01*
X221865000Y-119279264D01*
X221365000Y-119279264D01*
X221364999Y-119279264D01*
X221217007Y-119324157D01*
X221139496Y-119365587D01*
X221071093Y-119379828D01*
X221018180Y-119359552D01*
X221016905Y-119361762D01*
X220818850Y-119247415D01*
X220613921Y-119176488D01*
X220399276Y-119145627D01*
X220399275Y-119145627D01*
X220290970Y-119150785D01*
X220182665Y-119155945D01*
X219971925Y-119207071D01*
X219763897Y-119302074D01*
X219763084Y-119300294D01*
X219711012Y-119318314D01*
X219643118Y-119301841D01*
X219548850Y-119247415D01*
X219343921Y-119176488D01*
X219129276Y-119145627D01*
X219129275Y-119145627D01*
X219020970Y-119150785D01*
X218912665Y-119155945D01*
X218701925Y-119207071D01*
X218493897Y-119302074D01*
X218493084Y-119300294D01*
X218441012Y-119318314D01*
X218373118Y-119301841D01*
X218278850Y-119247415D01*
X218073921Y-119176488D01*
X217859276Y-119145627D01*
X217859275Y-119145627D01*
X217750970Y-119150785D01*
X217642665Y-119155945D01*
X217431925Y-119207071D01*
X217234664Y-119297156D01*
X217058025Y-119422941D01*
X216908376Y-119579889D01*
X216791137Y-119762314D01*
X216710539Y-119963640D01*
X216669500Y-120176571D01*
X216669500Y-120176573D01*
X216669500Y-121069091D01*
X125494680Y-121069091D01*
X125494701Y-121068882D01*
X125495000Y-121062798D01*
X125495000Y-120900000D01*
X124710000Y-120900000D01*
X124626111Y-120900000D01*
X124665610Y-120875543D01*
X124733201Y-120786038D01*
X124763895Y-120678160D01*
X124753546Y-120566479D01*
X124703552Y-120466078D01*
X124620666Y-120390516D01*
X124516080Y-120350000D01*
X124432198Y-120350000D01*
X124349750Y-120365412D01*
X124325499Y-120380427D01*
X124325500Y-120230909D01*
X124310052Y-120069128D01*
X124248957Y-119861058D01*
X124223783Y-119812228D01*
X124209999Y-119755409D01*
X124209999Y-119279264D01*
X124710000Y-119279264D01*
X124710000Y-120400000D01*
X125495000Y-120400000D01*
X125495000Y-120237201D01*
X125494701Y-120231117D01*
X125480025Y-120082107D01*
X125420839Y-119887001D01*
X125324735Y-119707204D01*
X125195397Y-119549602D01*
X125037795Y-119420264D01*
X124857994Y-119324157D01*
X124710001Y-119279264D01*
X124710000Y-119279264D01*
X124209999Y-119279264D01*
X124062007Y-119324157D01*
X123984496Y-119365587D01*
X123916093Y-119379828D01*
X123863180Y-119359552D01*
X123861905Y-119361762D01*
X123663850Y-119247415D01*
X123458921Y-119176488D01*
X123244276Y-119145627D01*
X123244275Y-119145627D01*
X123135970Y-119150786D01*
X123027665Y-119155945D01*
X122816925Y-119207071D01*
X122608897Y-119302074D01*
X122608084Y-119300294D01*
X122556012Y-119318314D01*
X122488118Y-119301841D01*
X122393850Y-119247415D01*
X122188921Y-119176488D01*
X121974276Y-119145627D01*
X121974275Y-119145627D01*
X121865970Y-119150786D01*
X121757665Y-119155945D01*
X121546925Y-119207071D01*
X121338897Y-119302074D01*
X121338084Y-119300294D01*
X121286012Y-119318314D01*
X121218118Y-119301841D01*
X121123850Y-119247415D01*
X120918921Y-119176488D01*
X120704276Y-119145627D01*
X120704275Y-119145627D01*
X120595970Y-119150786D01*
X120487665Y-119155945D01*
X120276925Y-119207071D01*
X120079664Y-119297156D01*
X119903025Y-119422941D01*
X119753376Y-119579889D01*
X119636137Y-119762314D01*
X119555539Y-119963640D01*
X119514500Y-120176571D01*
X119514500Y-120176573D01*
X119514500Y-121069091D01*
X118110000Y-121069091D01*
X118110000Y-117365320D01*
X137106500Y-117365320D01*
X137106501Y-117369360D01*
X137107029Y-117373373D01*
X137107030Y-117373384D01*
X137121955Y-117486760D01*
X137182464Y-117632841D01*
X137278717Y-117758282D01*
X137392176Y-117845341D01*
X137404159Y-117854536D01*
X137550238Y-117915044D01*
X137667639Y-117930500D01*
X139346163Y-117930499D01*
X139362631Y-117932110D01*
X139365483Y-117931919D01*
X139365486Y-117931920D01*
X139381191Y-117930870D01*
X139382624Y-117930775D01*
X139390890Y-117930499D01*
X139442307Y-117930499D01*
X139446360Y-117930499D01*
X139503862Y-117922928D01*
X139511756Y-117922146D01*
X139523201Y-117921383D01*
X139531981Y-117919625D01*
X139529686Y-117920124D01*
X139541299Y-117918000D01*
X139563762Y-117915044D01*
X139583779Y-117906751D01*
X139598972Y-117901584D01*
X139608447Y-117899033D01*
X139635802Y-117885499D01*
X139643279Y-117882106D01*
X139709841Y-117854536D01*
X139720983Y-117845985D01*
X139741495Y-117833214D01*
X139750126Y-117828945D01*
X139781121Y-117808177D01*
X139785498Y-117805377D01*
X139808405Y-117791404D01*
X139813117Y-117788674D01*
X139833741Y-117777330D01*
X139838866Y-117774666D01*
X139857252Y-117765657D01*
X139862743Y-117763134D01*
X139878875Y-117756197D01*
X139884746Y-117753850D01*
X139898760Y-117748665D01*
X139904967Y-117746556D01*
X139916970Y-117742835D01*
X139923510Y-117741006D01*
X139933617Y-117738479D01*
X139940506Y-117736965D01*
X139940527Y-117736961D01*
X139949074Y-117735337D01*
X139956235Y-117734193D01*
X139974612Y-117731804D01*
X139992465Y-117730500D01*
X143421942Y-117730500D01*
X143445316Y-117732782D01*
X143439125Y-117731770D01*
X143457775Y-117734195D01*
X143464916Y-117735337D01*
X143473469Y-117736961D01*
X143480399Y-117738483D01*
X143490454Y-117740997D01*
X143497074Y-117742849D01*
X143508990Y-117746544D01*
X143515287Y-117748683D01*
X143529190Y-117753827D01*
X143535116Y-117756194D01*
X143551248Y-117763131D01*
X143556785Y-117765677D01*
X143575096Y-117774649D01*
X143580256Y-117777330D01*
X143600877Y-117788672D01*
X143605647Y-117791438D01*
X143616518Y-117798069D01*
X143628435Y-117805339D01*
X143632856Y-117808166D01*
X143663862Y-117828940D01*
X143680817Y-117838339D01*
X143696173Y-117848408D01*
X143704159Y-117854536D01*
X143720869Y-117861457D01*
X143733540Y-117867570D01*
X143747519Y-117875320D01*
X143752828Y-117878263D01*
X143756395Y-117879865D01*
X143776992Y-117888661D01*
X143794304Y-117893159D01*
X143810570Y-117898613D01*
X143850238Y-117915044D01*
X143899969Y-117921591D01*
X143914972Y-117924515D01*
X143929978Y-117928415D01*
X143942007Y-117928323D01*
X143959148Y-117929382D01*
X143963604Y-117929969D01*
X143963609Y-117929969D01*
X143967639Y-117930500D01*
X145646163Y-117930499D01*
X145662631Y-117932110D01*
X145665483Y-117931919D01*
X145665486Y-117931920D01*
X145681191Y-117930870D01*
X145682624Y-117930775D01*
X145690890Y-117930499D01*
X145742307Y-117930499D01*
X145746360Y-117930499D01*
X145803862Y-117922928D01*
X145811756Y-117922146D01*
X145823201Y-117921383D01*
X145831981Y-117919625D01*
X145829686Y-117920124D01*
X145841299Y-117918000D01*
X145863762Y-117915044D01*
X145883779Y-117906751D01*
X145898972Y-117901584D01*
X145908447Y-117899033D01*
X145935802Y-117885499D01*
X145943279Y-117882106D01*
X146009841Y-117854536D01*
X146020983Y-117845985D01*
X146041495Y-117833214D01*
X146050126Y-117828945D01*
X146081121Y-117808177D01*
X146085498Y-117805377D01*
X146108405Y-117791404D01*
X146113117Y-117788674D01*
X146133741Y-117777330D01*
X146138866Y-117774666D01*
X146157252Y-117765657D01*
X146162743Y-117763134D01*
X146178875Y-117756197D01*
X146184746Y-117753850D01*
X146198760Y-117748665D01*
X146204967Y-117746556D01*
X146216970Y-117742835D01*
X146223510Y-117741006D01*
X146233617Y-117738479D01*
X146240506Y-117736965D01*
X146240527Y-117736961D01*
X146249074Y-117735337D01*
X146256235Y-117734193D01*
X146274612Y-117731804D01*
X146292465Y-117730500D01*
X146728757Y-117730500D01*
X146748397Y-117732064D01*
X146770309Y-117735580D01*
X146844679Y-117737674D01*
X146852643Y-117738158D01*
X146893304Y-117741949D01*
X146901895Y-117743056D01*
X146909805Y-117744357D01*
X146928870Y-117747495D01*
X146936515Y-117749001D01*
X146965866Y-117755753D01*
X146970265Y-117756852D01*
X147088031Y-117788643D01*
X147088064Y-117788651D01*
X147089695Y-117789055D01*
X147099585Y-117791421D01*
X147164025Y-117806244D01*
X147182278Y-117810147D01*
X147183001Y-117810290D01*
X147202168Y-117813762D01*
X147202200Y-117813767D01*
X147202259Y-117813778D01*
X147260499Y-117823360D01*
X147276294Y-117825960D01*
X147276309Y-117825962D01*
X147276320Y-117825964D01*
X147281249Y-117826684D01*
X147297874Y-117829113D01*
X147298688Y-117829217D01*
X147319093Y-117831471D01*
X147319306Y-117831495D01*
X147398022Y-117838833D01*
X147408058Y-117839769D01*
X147408072Y-117839770D01*
X147408082Y-117839771D01*
X147410832Y-117839982D01*
X147427500Y-117841266D01*
X147428256Y-117841312D01*
X147447978Y-117842190D01*
X147447987Y-117842190D01*
X147448070Y-117842194D01*
X147510012Y-117843913D01*
X147551943Y-117845078D01*
X147552244Y-117845083D01*
X147554886Y-117844935D01*
X147555236Y-117844942D01*
X147556732Y-117844913D01*
X147555696Y-117844952D01*
X147573969Y-117845337D01*
X147574000Y-117845341D01*
X147606112Y-117842177D01*
X147611247Y-117841781D01*
X147639841Y-117840182D01*
X147639849Y-117840179D01*
X147641023Y-117840114D01*
X147657754Y-117837091D01*
X147770132Y-117826024D01*
X147958727Y-117768814D01*
X148132538Y-117675910D01*
X148284883Y-117550883D01*
X148409910Y-117398538D01*
X148502814Y-117224727D01*
X148560024Y-117036132D01*
X148579341Y-116840000D01*
X148560024Y-116643868D01*
X148502814Y-116455273D01*
X148409910Y-116281462D01*
X148284883Y-116129117D01*
X148132538Y-116004090D01*
X148110091Y-115992091D01*
X147958726Y-115911185D01*
X147770133Y-115853976D01*
X147573998Y-115834658D01*
X147571020Y-115834952D01*
X147553617Y-115835438D01*
X147552115Y-115835374D01*
X147548075Y-115834937D01*
X147544025Y-115835030D01*
X147544012Y-115835030D01*
X147451213Y-115837175D01*
X147434635Y-115837785D01*
X147434625Y-115837785D01*
X147434557Y-115837788D01*
X147433430Y-115837844D01*
X147419070Y-115838765D01*
X147418540Y-115838799D01*
X147418508Y-115838801D01*
X147418468Y-115838804D01*
X147329559Y-115845594D01*
X147312620Y-115847126D01*
X147311483Y-115847245D01*
X147294238Y-115849316D01*
X147219958Y-115859312D01*
X147203330Y-115861784D01*
X147202207Y-115861967D01*
X147188308Y-115864413D01*
X147113038Y-115878649D01*
X147111638Y-115878940D01*
X147104468Y-115880478D01*
X146995368Y-115904583D01*
X146991511Y-115905371D01*
X146956394Y-115911967D01*
X146950036Y-115912991D01*
X146914683Y-115917747D01*
X146907596Y-115918494D01*
X146858287Y-115922261D01*
X146851705Y-115922588D01*
X146775270Y-115924353D01*
X146775247Y-115924354D01*
X146773437Y-115924396D01*
X146771625Y-115924546D01*
X146771615Y-115924547D01*
X146717096Y-115929075D01*
X146706833Y-115929500D01*
X146292062Y-115929500D01*
X146268690Y-115927217D01*
X146274873Y-115928228D01*
X146256232Y-115925804D01*
X146249067Y-115924659D01*
X146240502Y-115923031D01*
X146233591Y-115921512D01*
X146231374Y-115920957D01*
X146223544Y-115919000D01*
X146216911Y-115917144D01*
X146205023Y-115913458D01*
X146198717Y-115911316D01*
X146184782Y-115906160D01*
X146178829Y-115903780D01*
X146162789Y-115896883D01*
X146157222Y-115894325D01*
X146138900Y-115885347D01*
X146133714Y-115882652D01*
X146113149Y-115871341D01*
X146108353Y-115868561D01*
X146085567Y-115854662D01*
X146081128Y-115851824D01*
X146052280Y-115832496D01*
X146052277Y-115832494D01*
X146050126Y-115831053D01*
X146033170Y-115821652D01*
X146017816Y-115811583D01*
X146009842Y-115805464D01*
X145993159Y-115798554D01*
X145980485Y-115792440D01*
X145963492Y-115783018D01*
X145963480Y-115783012D01*
X145961213Y-115781755D01*
X145958840Y-115780689D01*
X145958830Y-115780684D01*
X145957649Y-115780154D01*
X145937053Y-115771356D01*
X145919711Y-115766848D01*
X145903463Y-115761400D01*
X145863762Y-115744956D01*
X145839737Y-115741793D01*
X145814072Y-115738414D01*
X145799065Y-115735488D01*
X145795211Y-115734486D01*
X145784069Y-115731590D01*
X145784068Y-115731590D01*
X145771995Y-115731680D01*
X145754894Y-115730623D01*
X145750386Y-115730029D01*
X145750374Y-115730028D01*
X145746361Y-115729500D01*
X145742300Y-115729500D01*
X144067858Y-115729500D01*
X144051392Y-115727889D01*
X144031375Y-115729225D01*
X144023123Y-115729500D01*
X143971695Y-115729500D01*
X143971680Y-115729500D01*
X143967640Y-115729501D01*
X143963629Y-115730028D01*
X143963628Y-115730029D01*
X143959116Y-115730623D01*
X143910217Y-115737059D01*
X143902320Y-115737842D01*
X143894877Y-115738339D01*
X143894873Y-115738339D01*
X143890823Y-115738610D01*
X143886857Y-115739403D01*
X143886841Y-115739406D01*
X143882046Y-115740367D01*
X143884132Y-115739914D01*
X143872698Y-115741997D01*
X143850240Y-115744954D01*
X143830243Y-115753238D01*
X143815036Y-115758411D01*
X143805547Y-115760966D01*
X143778168Y-115774509D01*
X143770646Y-115777922D01*
X143704158Y-115805463D01*
X143693018Y-115814011D01*
X143672526Y-115826772D01*
X143667517Y-115829250D01*
X143667508Y-115829255D01*
X143663870Y-115831055D01*
X143660505Y-115833308D01*
X143660497Y-115833314D01*
X143632874Y-115851821D01*
X143628430Y-115854663D01*
X143605662Y-115868551D01*
X143600848Y-115871341D01*
X143580281Y-115882653D01*
X143575086Y-115885353D01*
X143556793Y-115894317D01*
X143551214Y-115896881D01*
X143535154Y-115903787D01*
X143529196Y-115906168D01*
X143515290Y-115911313D01*
X143508975Y-115913459D01*
X143497080Y-115917146D01*
X143490449Y-115919001D01*
X143480391Y-115921515D01*
X143473463Y-115923038D01*
X143464933Y-115924658D01*
X143457792Y-115925800D01*
X143439387Y-115928193D01*
X143421526Y-115929500D01*
X139992062Y-115929500D01*
X139968690Y-115927217D01*
X139974873Y-115928228D01*
X139956232Y-115925804D01*
X139949067Y-115924659D01*
X139940502Y-115923031D01*
X139933591Y-115921512D01*
X139931374Y-115920957D01*
X139923544Y-115919000D01*
X139916911Y-115917144D01*
X139905023Y-115913458D01*
X139898717Y-115911316D01*
X139884782Y-115906160D01*
X139878829Y-115903780D01*
X139862789Y-115896883D01*
X139857222Y-115894325D01*
X139838900Y-115885347D01*
X139833714Y-115882652D01*
X139813149Y-115871341D01*
X139808353Y-115868561D01*
X139785567Y-115854662D01*
X139781128Y-115851824D01*
X139752280Y-115832496D01*
X139752277Y-115832494D01*
X139750126Y-115831053D01*
X139733170Y-115821652D01*
X139717816Y-115811583D01*
X139709842Y-115805464D01*
X139693159Y-115798554D01*
X139680485Y-115792440D01*
X139663492Y-115783018D01*
X139663480Y-115783012D01*
X139661213Y-115781755D01*
X139658840Y-115780689D01*
X139658830Y-115780684D01*
X139657649Y-115780154D01*
X139637053Y-115771356D01*
X139619711Y-115766848D01*
X139603463Y-115761400D01*
X139563762Y-115744956D01*
X139539737Y-115741793D01*
X139514072Y-115738414D01*
X139499065Y-115735488D01*
X139495211Y-115734486D01*
X139484069Y-115731590D01*
X139484068Y-115731590D01*
X139471995Y-115731680D01*
X139454894Y-115730623D01*
X139450386Y-115730029D01*
X139450374Y-115730028D01*
X139446361Y-115729500D01*
X139442300Y-115729500D01*
X137671694Y-115729500D01*
X137671678Y-115729500D01*
X137667640Y-115729501D01*
X137663627Y-115730029D01*
X137663615Y-115730030D01*
X137550239Y-115744955D01*
X137404158Y-115805464D01*
X137278717Y-115901717D01*
X137182463Y-116027159D01*
X137121956Y-116173237D01*
X137121956Y-116173238D01*
X137106500Y-116290639D01*
X137106500Y-116294691D01*
X137106500Y-116294692D01*
X137106500Y-117365305D01*
X137106500Y-117365320D01*
X118110000Y-117365320D01*
X118110000Y-113280000D01*
X137207000Y-113280000D01*
X137207000Y-113574518D01*
X137207354Y-113581132D01*
X137213400Y-113637371D01*
X137263647Y-113772089D01*
X137349811Y-113887188D01*
X137464910Y-113973352D01*
X137599628Y-114023599D01*
X137655867Y-114029645D01*
X137662482Y-114030000D01*
X138307000Y-114030000D01*
X138307000Y-113280000D01*
X138807000Y-113280000D01*
X138807000Y-114030000D01*
X139451518Y-114030000D01*
X139458132Y-114029645D01*
X139514371Y-114023599D01*
X139649089Y-113973352D01*
X139764188Y-113887188D01*
X139850352Y-113772089D01*
X139900599Y-113637371D01*
X139906645Y-113581132D01*
X139907000Y-113574518D01*
X139907000Y-113280000D01*
X143507000Y-113280000D01*
X143507000Y-113574518D01*
X143507354Y-113581132D01*
X143513400Y-113637371D01*
X143563647Y-113772089D01*
X143649811Y-113887188D01*
X143764910Y-113973352D01*
X143899628Y-114023599D01*
X143955867Y-114029645D01*
X143962482Y-114030000D01*
X144607000Y-114030000D01*
X144607000Y-113280000D01*
X145107000Y-113280000D01*
X145107000Y-114030000D01*
X145751518Y-114030000D01*
X145758132Y-114029645D01*
X145814371Y-114023599D01*
X145949089Y-113973352D01*
X146064188Y-113887188D01*
X146150352Y-113772089D01*
X146200599Y-113637371D01*
X146206645Y-113581132D01*
X146207000Y-113574518D01*
X146207000Y-113280000D01*
X145107000Y-113280000D01*
X144607000Y-113280000D01*
X143507000Y-113280000D01*
X139907000Y-113280000D01*
X138807000Y-113280000D01*
X138307000Y-113280000D01*
X137207000Y-113280000D01*
X118110000Y-113280000D01*
X118110000Y-112780000D01*
X137207000Y-112780000D01*
X138307000Y-112780000D01*
X138307000Y-112030000D01*
X138807000Y-112030000D01*
X138807000Y-112780000D01*
X139907000Y-112780000D01*
X143507000Y-112780000D01*
X144607000Y-112780000D01*
X144607000Y-112030000D01*
X145107000Y-112030000D01*
X145107000Y-112780000D01*
X146207000Y-112780000D01*
X146207000Y-112485481D01*
X146206645Y-112478867D01*
X146200599Y-112422628D01*
X146150352Y-112287910D01*
X146064188Y-112172811D01*
X145949089Y-112086647D01*
X145814371Y-112036400D01*
X145758132Y-112030354D01*
X145751518Y-112030000D01*
X145107000Y-112030000D01*
X144607000Y-112030000D01*
X143962482Y-112030000D01*
X143955867Y-112030354D01*
X143899628Y-112036400D01*
X143764910Y-112086647D01*
X143649811Y-112172811D01*
X143563647Y-112287910D01*
X143513400Y-112422628D01*
X143507354Y-112478867D01*
X143507000Y-112485481D01*
X143507000Y-112780000D01*
X139907000Y-112780000D01*
X139907000Y-112485481D01*
X139906645Y-112478867D01*
X139900599Y-112422628D01*
X139850352Y-112287910D01*
X139764188Y-112172811D01*
X139649089Y-112086647D01*
X139514371Y-112036400D01*
X139458132Y-112030354D01*
X139451518Y-112030000D01*
X138807000Y-112030000D01*
X138307000Y-112030000D01*
X137662482Y-112030000D01*
X137655867Y-112030354D01*
X137599628Y-112036400D01*
X137464910Y-112086647D01*
X137349811Y-112172811D01*
X137263647Y-112287910D01*
X137213400Y-112422628D01*
X137207354Y-112478867D01*
X137207000Y-112485481D01*
X137207000Y-112780000D01*
X118110000Y-112780000D01*
X118110000Y-107210320D01*
X129384500Y-107210320D01*
X129384501Y-107214360D01*
X129385029Y-107218373D01*
X129385030Y-107218384D01*
X129399955Y-107331760D01*
X129460464Y-107477841D01*
X129556717Y-107603282D01*
X129671024Y-107690992D01*
X129682159Y-107699536D01*
X129828238Y-107760044D01*
X129945639Y-107775500D01*
X131624163Y-107775499D01*
X131640631Y-107777110D01*
X131643483Y-107776919D01*
X131643486Y-107776920D01*
X131659191Y-107775870D01*
X131660624Y-107775775D01*
X131668890Y-107775499D01*
X131720307Y-107775499D01*
X131724360Y-107775499D01*
X131781862Y-107767928D01*
X131789756Y-107767146D01*
X131801201Y-107766383D01*
X131809981Y-107764625D01*
X131807686Y-107765124D01*
X131819299Y-107763000D01*
X131841762Y-107760044D01*
X131861779Y-107751751D01*
X131876972Y-107746584D01*
X131886447Y-107744033D01*
X131913802Y-107730499D01*
X131921279Y-107727106D01*
X131987841Y-107699536D01*
X131998983Y-107690985D01*
X132019495Y-107678214D01*
X132028126Y-107673945D01*
X132059121Y-107653177D01*
X132063498Y-107650377D01*
X132086405Y-107636404D01*
X132091117Y-107633674D01*
X132111741Y-107622330D01*
X132116866Y-107619666D01*
X132135252Y-107610657D01*
X132140743Y-107608134D01*
X132156875Y-107601197D01*
X132162746Y-107598850D01*
X132176760Y-107593665D01*
X132182967Y-107591556D01*
X132194970Y-107587835D01*
X132201510Y-107586006D01*
X132211617Y-107583479D01*
X132218506Y-107581965D01*
X132218527Y-107581961D01*
X132227074Y-107580337D01*
X132234235Y-107579193D01*
X132252612Y-107576804D01*
X132270465Y-107575500D01*
X135699942Y-107575500D01*
X135723316Y-107577782D01*
X135717125Y-107576770D01*
X135735775Y-107579195D01*
X135742916Y-107580337D01*
X135751469Y-107581961D01*
X135758399Y-107583483D01*
X135768454Y-107585997D01*
X135775074Y-107587849D01*
X135786990Y-107591544D01*
X135793285Y-107593682D01*
X135802946Y-107597257D01*
X135807190Y-107598827D01*
X135813116Y-107601194D01*
X135829248Y-107608131D01*
X135834785Y-107610677D01*
X135853096Y-107619649D01*
X135858256Y-107622330D01*
X135878877Y-107633672D01*
X135883647Y-107636438D01*
X135886654Y-107638272D01*
X135906435Y-107650339D01*
X135910856Y-107653166D01*
X135941862Y-107673940D01*
X135958817Y-107683339D01*
X135974173Y-107693408D01*
X135982159Y-107699536D01*
X135998869Y-107706457D01*
X136011540Y-107712570D01*
X136025519Y-107720320D01*
X136030828Y-107723263D01*
X136034395Y-107724865D01*
X136054992Y-107733661D01*
X136072304Y-107738159D01*
X136088570Y-107743613D01*
X136128238Y-107760044D01*
X136177969Y-107766591D01*
X136192972Y-107769515D01*
X136207978Y-107773415D01*
X136220007Y-107773323D01*
X136237148Y-107774382D01*
X136241604Y-107774969D01*
X136241609Y-107774969D01*
X136245639Y-107775500D01*
X137921068Y-107775499D01*
X137934942Y-107776905D01*
X137939246Y-107776647D01*
X137939248Y-107776648D01*
X137954759Y-107775720D01*
X137962165Y-107775499D01*
X138020307Y-107775499D01*
X138024360Y-107775499D01*
X138074900Y-107768845D01*
X138083656Y-107768008D01*
X138097033Y-107767209D01*
X138105826Y-107765512D01*
X138107469Y-107765081D01*
X138118508Y-107763104D01*
X138141762Y-107760044D01*
X138159803Y-107752570D01*
X138175839Y-107747178D01*
X138182451Y-107745447D01*
X138210538Y-107731793D01*
X138217263Y-107728770D01*
X138264620Y-107709154D01*
X138287841Y-107699536D01*
X138296776Y-107692678D01*
X138318059Y-107679529D01*
X138324613Y-107676344D01*
X138355470Y-107655977D01*
X138359956Y-107653153D01*
X138382377Y-107639700D01*
X138387181Y-107636963D01*
X138407459Y-107626014D01*
X138412665Y-107623362D01*
X138420410Y-107619644D01*
X138430643Y-107614732D01*
X138436225Y-107612221D01*
X138451963Y-107605611D01*
X138457953Y-107603277D01*
X138471527Y-107598390D01*
X138477887Y-107596294D01*
X138479096Y-107595931D01*
X138489453Y-107592823D01*
X138496120Y-107591024D01*
X138505955Y-107588664D01*
X138512856Y-107587215D01*
X138521241Y-107585706D01*
X138528363Y-107584639D01*
X138546845Y-107582422D01*
X138546889Y-107582414D01*
X138549024Y-107582101D01*
X138549611Y-107581989D01*
X138549630Y-107581986D01*
X138568772Y-107580500D01*
X138980912Y-107580500D01*
X139000236Y-107582015D01*
X139018902Y-107584960D01*
X139018903Y-107584960D01*
X139022915Y-107585593D01*
X139099529Y-107587552D01*
X139106791Y-107587951D01*
X139152115Y-107591785D01*
X139159920Y-107592697D01*
X139191676Y-107597434D01*
X139198535Y-107598657D01*
X139229550Y-107605094D01*
X139233783Y-107606051D01*
X139352824Y-107635163D01*
X139354335Y-107635502D01*
X139364025Y-107637608D01*
X139428780Y-107651102D01*
X139439350Y-107653145D01*
X139445877Y-107654407D01*
X139445908Y-107654412D01*
X139445957Y-107654422D01*
X139447164Y-107654638D01*
X139463707Y-107657338D01*
X139538033Y-107668423D01*
X139544609Y-107669294D01*
X139557442Y-107670997D01*
X139558182Y-107671083D01*
X139577029Y-107672975D01*
X139577041Y-107672976D01*
X139577120Y-107672984D01*
X139637067Y-107678055D01*
X139666129Y-107680514D01*
X139671426Y-107680884D01*
X139683828Y-107681753D01*
X139685075Y-107681822D01*
X139702471Y-107682514D01*
X139790174Y-107684725D01*
X139806061Y-107685127D01*
X139806331Y-107685131D01*
X139808557Y-107685004D01*
X139810782Y-107684958D01*
X139809068Y-107685025D01*
X139826560Y-107685384D01*
X139826998Y-107685340D01*
X139827000Y-107685341D01*
X139857731Y-107682313D01*
X139862824Y-107681918D01*
X139892840Y-107680212D01*
X139892842Y-107680211D01*
X139893905Y-107680151D01*
X139910938Y-107677073D01*
X140023132Y-107666024D01*
X140211727Y-107608814D01*
X140385538Y-107515910D01*
X140537883Y-107390883D01*
X140662910Y-107238538D01*
X140755814Y-107064727D01*
X140813024Y-106876132D01*
X140832341Y-106680000D01*
X140813024Y-106483868D01*
X140755814Y-106295273D01*
X140662910Y-106121462D01*
X140537883Y-105969117D01*
X140385538Y-105844090D01*
X140334482Y-105816800D01*
X140211726Y-105751185D01*
X140023133Y-105693976D01*
X139826998Y-105674658D01*
X139823199Y-105675033D01*
X139806119Y-105675531D01*
X139803575Y-105675429D01*
X139799551Y-105675004D01*
X139795502Y-105675107D01*
X139795489Y-105675107D01*
X139702377Y-105677489D01*
X139684077Y-105678232D01*
X139682827Y-105678302D01*
X139666314Y-105679472D01*
X139666144Y-105679484D01*
X139666135Y-105679484D01*
X139666061Y-105679490D01*
X139577010Y-105687025D01*
X139558359Y-105688896D01*
X139558344Y-105688897D01*
X139558234Y-105688909D01*
X139557502Y-105688994D01*
X139538013Y-105691579D01*
X139537962Y-105691586D01*
X139537921Y-105691592D01*
X139474767Y-105701013D01*
X139463605Y-105702678D01*
X139463596Y-105702679D01*
X139463579Y-105702682D01*
X139456378Y-105703857D01*
X139447336Y-105705332D01*
X139447316Y-105705335D01*
X139447258Y-105705345D01*
X139446069Y-105705554D01*
X139428970Y-105708860D01*
X139428773Y-105708899D01*
X139428763Y-105708900D01*
X139428691Y-105708915D01*
X139363941Y-105722409D01*
X139352018Y-105725019D01*
X139342777Y-105727210D01*
X139235761Y-105753487D01*
X139231498Y-105754454D01*
X139198363Y-105761360D01*
X139191357Y-105762612D01*
X139159942Y-105767298D01*
X139152100Y-105768214D01*
X139106800Y-105772046D01*
X139099520Y-105772446D01*
X139024760Y-105774358D01*
X139024727Y-105774359D01*
X139022921Y-105774406D01*
X139021096Y-105774560D01*
X139021093Y-105774561D01*
X138968114Y-105779056D01*
X138957631Y-105779500D01*
X138570958Y-105779500D01*
X138554521Y-105778406D01*
X138536359Y-105775977D01*
X138529218Y-105774809D01*
X138527137Y-105774406D01*
X138520614Y-105773142D01*
X138513695Y-105771596D01*
X138503516Y-105769013D01*
X138496896Y-105767136D01*
X138486923Y-105764007D01*
X138484920Y-105763378D01*
X138478636Y-105761220D01*
X138464606Y-105755977D01*
X138458689Y-105753591D01*
X138442447Y-105746547D01*
X138436895Y-105743974D01*
X138418446Y-105734865D01*
X138413279Y-105732161D01*
X138392599Y-105720711D01*
X138387803Y-105717913D01*
X138364900Y-105703857D01*
X138360478Y-105701013D01*
X138358474Y-105699663D01*
X138329406Y-105680080D01*
X138326412Y-105678409D01*
X138325472Y-105677791D01*
X138324920Y-105677452D01*
X138325253Y-105677647D01*
X138311353Y-105668505D01*
X138287842Y-105650464D01*
X138256399Y-105637440D01*
X138247462Y-105633737D01*
X138241220Y-105630877D01*
X138240751Y-105630615D01*
X138237187Y-105629002D01*
X138223062Y-105622922D01*
X138214375Y-105619183D01*
X138203398Y-105615486D01*
X138141762Y-105589956D01*
X138028380Y-105575029D01*
X138028378Y-105575028D01*
X138024361Y-105574500D01*
X138020308Y-105574500D01*
X136345858Y-105574500D01*
X136329392Y-105572889D01*
X136309375Y-105574225D01*
X136301123Y-105574500D01*
X136249695Y-105574500D01*
X136249680Y-105574500D01*
X136245640Y-105574501D01*
X136241629Y-105575028D01*
X136241628Y-105575029D01*
X136237116Y-105575623D01*
X136188217Y-105582059D01*
X136180320Y-105582842D01*
X136172877Y-105583339D01*
X136172873Y-105583339D01*
X136168823Y-105583610D01*
X136164857Y-105584403D01*
X136164841Y-105584406D01*
X136160046Y-105585367D01*
X136162132Y-105584914D01*
X136150698Y-105586997D01*
X136128240Y-105589954D01*
X136108243Y-105598238D01*
X136093036Y-105603411D01*
X136083547Y-105605966D01*
X136056168Y-105619509D01*
X136048646Y-105622922D01*
X135982158Y-105650463D01*
X135971018Y-105659011D01*
X135950526Y-105671772D01*
X135945517Y-105674250D01*
X135945508Y-105674255D01*
X135941870Y-105676055D01*
X135938505Y-105678308D01*
X135938497Y-105678314D01*
X135910874Y-105696821D01*
X135906430Y-105699663D01*
X135883662Y-105713551D01*
X135878848Y-105716341D01*
X135858281Y-105727653D01*
X135853086Y-105730353D01*
X135834793Y-105739317D01*
X135829214Y-105741881D01*
X135813154Y-105748787D01*
X135807196Y-105751168D01*
X135793290Y-105756313D01*
X135786975Y-105758459D01*
X135775080Y-105762146D01*
X135768449Y-105764001D01*
X135758391Y-105766515D01*
X135751463Y-105768038D01*
X135742933Y-105769658D01*
X135735792Y-105770800D01*
X135717387Y-105773193D01*
X135699526Y-105774500D01*
X132270062Y-105774500D01*
X132246690Y-105772217D01*
X132252873Y-105773228D01*
X132234232Y-105770804D01*
X132227067Y-105769659D01*
X132218502Y-105768031D01*
X132211591Y-105766512D01*
X132209374Y-105765957D01*
X132201544Y-105764000D01*
X132194911Y-105762144D01*
X132183023Y-105758458D01*
X132176717Y-105756316D01*
X132162782Y-105751160D01*
X132156829Y-105748780D01*
X132140789Y-105741883D01*
X132135222Y-105739325D01*
X132116900Y-105730347D01*
X132111714Y-105727652D01*
X132091149Y-105716341D01*
X132086353Y-105713561D01*
X132063567Y-105699662D01*
X132059128Y-105696824D01*
X132030280Y-105677496D01*
X132030269Y-105677489D01*
X132028126Y-105676053D01*
X132011170Y-105666652D01*
X131995816Y-105656583D01*
X131987842Y-105650464D01*
X131971159Y-105643554D01*
X131958485Y-105637440D01*
X131941492Y-105628018D01*
X131941480Y-105628012D01*
X131939213Y-105626755D01*
X131936840Y-105625689D01*
X131936830Y-105625684D01*
X131935649Y-105625154D01*
X131915053Y-105616356D01*
X131897711Y-105611848D01*
X131881463Y-105606400D01*
X131841762Y-105589956D01*
X131817737Y-105586793D01*
X131792072Y-105583414D01*
X131777065Y-105580488D01*
X131773211Y-105579486D01*
X131762069Y-105576590D01*
X131762068Y-105576590D01*
X131749995Y-105576680D01*
X131732894Y-105575623D01*
X131728386Y-105575029D01*
X131728374Y-105575028D01*
X131724361Y-105574500D01*
X131720300Y-105574500D01*
X129949694Y-105574500D01*
X129949678Y-105574500D01*
X129945640Y-105574501D01*
X129941627Y-105575029D01*
X129941615Y-105575030D01*
X129828239Y-105589955D01*
X129682158Y-105650464D01*
X129556717Y-105746717D01*
X129460463Y-105872159D01*
X129399956Y-106018237D01*
X129399956Y-106018238D01*
X129384500Y-106135639D01*
X129384500Y-106139691D01*
X129384500Y-106139692D01*
X129384500Y-107210305D01*
X129384500Y-107210320D01*
X118110000Y-107210320D01*
X118110000Y-103125000D01*
X129485000Y-103125000D01*
X129485000Y-103419518D01*
X129485354Y-103426132D01*
X129491400Y-103482371D01*
X129541647Y-103617089D01*
X129627811Y-103732188D01*
X129742910Y-103818352D01*
X129877628Y-103868599D01*
X129933867Y-103874645D01*
X129940482Y-103875000D01*
X130585000Y-103875000D01*
X130585000Y-103125000D01*
X131085000Y-103125000D01*
X131085000Y-103875000D01*
X131729518Y-103875000D01*
X131736132Y-103874645D01*
X131792371Y-103868599D01*
X131927089Y-103818352D01*
X132042188Y-103732188D01*
X132128352Y-103617089D01*
X132178599Y-103482371D01*
X132184645Y-103426132D01*
X132185000Y-103419518D01*
X132185000Y-103125000D01*
X135785000Y-103125000D01*
X135785000Y-103419518D01*
X135785354Y-103426132D01*
X135791400Y-103482371D01*
X135841647Y-103617089D01*
X135927811Y-103732188D01*
X136042910Y-103818352D01*
X136177628Y-103868599D01*
X136233867Y-103874645D01*
X136240482Y-103875000D01*
X136885000Y-103875000D01*
X136885000Y-103125000D01*
X137385000Y-103125000D01*
X137385000Y-103875000D01*
X138029518Y-103875000D01*
X138036132Y-103874645D01*
X138092371Y-103868599D01*
X138227089Y-103818352D01*
X138342188Y-103732188D01*
X138428352Y-103617089D01*
X138478599Y-103482371D01*
X138484645Y-103426132D01*
X138485000Y-103419518D01*
X138485000Y-103125000D01*
X137385000Y-103125000D01*
X136885000Y-103125000D01*
X135785000Y-103125000D01*
X132185000Y-103125000D01*
X131085000Y-103125000D01*
X130585000Y-103125000D01*
X129485000Y-103125000D01*
X118110000Y-103125000D01*
X118110000Y-102625000D01*
X129485000Y-102625000D01*
X130585000Y-102625000D01*
X130585000Y-101875000D01*
X131085000Y-101875000D01*
X131085000Y-102625000D01*
X132185000Y-102625000D01*
X135785000Y-102625000D01*
X136885000Y-102625000D01*
X136885000Y-101875000D01*
X137385000Y-101875000D01*
X137385000Y-102625000D01*
X138485000Y-102625000D01*
X138485000Y-102330481D01*
X138484645Y-102323867D01*
X138478599Y-102267628D01*
X138428352Y-102132910D01*
X138342188Y-102017811D01*
X138227089Y-101931647D01*
X138092371Y-101881400D01*
X138036132Y-101875354D01*
X138029518Y-101875000D01*
X137385000Y-101875000D01*
X136885000Y-101875000D01*
X136240482Y-101875000D01*
X136233867Y-101875354D01*
X136177628Y-101881400D01*
X136042910Y-101931647D01*
X135927811Y-102017811D01*
X135841647Y-102132910D01*
X135791400Y-102267628D01*
X135785354Y-102323867D01*
X135785000Y-102330481D01*
X135785000Y-102625000D01*
X132185000Y-102625000D01*
X132185000Y-102330481D01*
X132184645Y-102323867D01*
X132178599Y-102267628D01*
X132128352Y-102132910D01*
X132042188Y-102017811D01*
X131927089Y-101931647D01*
X131792371Y-101881400D01*
X131736132Y-101875354D01*
X131729518Y-101875000D01*
X131085000Y-101875000D01*
X130585000Y-101875000D01*
X129940482Y-101875000D01*
X129933867Y-101875354D01*
X129877628Y-101881400D01*
X129742910Y-101931647D01*
X129627811Y-102017811D01*
X129541647Y-102132910D01*
X129491400Y-102267628D01*
X129485354Y-102323867D01*
X129485000Y-102330481D01*
X129485000Y-102625000D01*
X118110000Y-102625000D01*
X118110000Y-97050320D01*
X121764500Y-97050320D01*
X121764501Y-97054360D01*
X121765029Y-97058373D01*
X121765030Y-97058384D01*
X121779955Y-97171760D01*
X121840464Y-97317841D01*
X121936717Y-97443282D01*
X122048805Y-97529289D01*
X122062159Y-97539536D01*
X122208238Y-97600044D01*
X122325639Y-97615500D01*
X124004163Y-97615499D01*
X124020631Y-97617110D01*
X124023483Y-97616919D01*
X124023486Y-97616920D01*
X124039191Y-97615870D01*
X124040624Y-97615775D01*
X124048890Y-97615499D01*
X124100307Y-97615499D01*
X124104360Y-97615499D01*
X124161862Y-97607928D01*
X124169756Y-97607146D01*
X124181201Y-97606383D01*
X124189981Y-97604625D01*
X124187686Y-97605124D01*
X124199299Y-97603000D01*
X124221762Y-97600044D01*
X124241779Y-97591751D01*
X124256972Y-97586584D01*
X124266447Y-97584033D01*
X124293802Y-97570499D01*
X124301279Y-97567106D01*
X124367841Y-97539536D01*
X124378983Y-97530985D01*
X124399495Y-97518214D01*
X124408126Y-97513945D01*
X124439121Y-97493177D01*
X124443498Y-97490377D01*
X124466405Y-97476404D01*
X124471117Y-97473674D01*
X124491741Y-97462330D01*
X124496866Y-97459666D01*
X124515252Y-97450657D01*
X124520743Y-97448134D01*
X124536875Y-97441197D01*
X124542746Y-97438850D01*
X124556760Y-97433665D01*
X124562967Y-97431556D01*
X124574970Y-97427835D01*
X124581510Y-97426006D01*
X124591617Y-97423479D01*
X124598506Y-97421965D01*
X124598527Y-97421961D01*
X124607074Y-97420337D01*
X124614235Y-97419193D01*
X124632612Y-97416804D01*
X124650465Y-97415500D01*
X128079942Y-97415500D01*
X128103316Y-97417782D01*
X128097125Y-97416770D01*
X128115775Y-97419195D01*
X128122916Y-97420337D01*
X128131469Y-97421961D01*
X128138399Y-97423483D01*
X128148454Y-97425997D01*
X128155074Y-97427849D01*
X128166990Y-97431544D01*
X128173285Y-97433682D01*
X128182946Y-97437257D01*
X128187190Y-97438827D01*
X128193116Y-97441194D01*
X128209248Y-97448131D01*
X128214785Y-97450677D01*
X128233096Y-97459649D01*
X128238256Y-97462330D01*
X128258877Y-97473672D01*
X128263647Y-97476438D01*
X128266654Y-97478272D01*
X128286435Y-97490339D01*
X128290856Y-97493166D01*
X128321862Y-97513940D01*
X128338817Y-97523339D01*
X128354173Y-97533408D01*
X128362159Y-97539536D01*
X128378869Y-97546457D01*
X128391540Y-97552570D01*
X128405519Y-97560320D01*
X128410828Y-97563263D01*
X128414395Y-97564865D01*
X128434992Y-97573661D01*
X128452304Y-97578159D01*
X128468570Y-97583613D01*
X128508238Y-97600044D01*
X128557969Y-97606591D01*
X128572972Y-97609515D01*
X128587978Y-97613415D01*
X128600007Y-97613323D01*
X128617148Y-97614382D01*
X128621604Y-97614969D01*
X128621609Y-97614969D01*
X128625639Y-97615500D01*
X130301068Y-97615499D01*
X130314942Y-97616905D01*
X130319246Y-97616647D01*
X130319248Y-97616648D01*
X130334759Y-97615720D01*
X130342165Y-97615499D01*
X130400307Y-97615499D01*
X130404360Y-97615499D01*
X130454900Y-97608845D01*
X130463656Y-97608008D01*
X130477033Y-97607209D01*
X130485826Y-97605512D01*
X130487469Y-97605081D01*
X130498508Y-97603104D01*
X130521762Y-97600044D01*
X130539803Y-97592570D01*
X130555839Y-97587178D01*
X130562451Y-97585447D01*
X130590538Y-97571793D01*
X130597263Y-97568770D01*
X130636373Y-97552570D01*
X130667841Y-97539536D01*
X130676776Y-97532678D01*
X130698059Y-97519529D01*
X130704613Y-97516344D01*
X130735470Y-97495977D01*
X130739956Y-97493153D01*
X130762377Y-97479700D01*
X130767181Y-97476963D01*
X130787459Y-97466014D01*
X130792665Y-97463362D01*
X130800410Y-97459644D01*
X130810643Y-97454732D01*
X130816225Y-97452221D01*
X130831963Y-97445611D01*
X130837953Y-97443277D01*
X130851527Y-97438390D01*
X130857887Y-97436294D01*
X130859096Y-97435931D01*
X130869453Y-97432823D01*
X130876120Y-97431024D01*
X130885955Y-97428664D01*
X130892856Y-97427215D01*
X130901241Y-97425706D01*
X130908363Y-97424639D01*
X130926845Y-97422422D01*
X130926889Y-97422414D01*
X130929024Y-97422101D01*
X130929611Y-97421989D01*
X130929630Y-97421986D01*
X130948772Y-97420500D01*
X131360912Y-97420500D01*
X131380236Y-97422015D01*
X131398902Y-97424960D01*
X131398903Y-97424960D01*
X131402915Y-97425593D01*
X131479529Y-97427552D01*
X131486791Y-97427951D01*
X131532115Y-97431785D01*
X131539920Y-97432697D01*
X131571676Y-97437434D01*
X131578535Y-97438657D01*
X131609550Y-97445094D01*
X131613783Y-97446051D01*
X131732824Y-97475163D01*
X131734335Y-97475502D01*
X131744025Y-97477608D01*
X131808780Y-97491102D01*
X131819350Y-97493145D01*
X131825877Y-97494407D01*
X131825908Y-97494412D01*
X131825957Y-97494422D01*
X131827164Y-97494638D01*
X131843707Y-97497338D01*
X131918033Y-97508423D01*
X131924609Y-97509294D01*
X131937442Y-97510997D01*
X131938182Y-97511083D01*
X131957029Y-97512975D01*
X131957041Y-97512976D01*
X131957120Y-97512984D01*
X132017067Y-97518055D01*
X132046129Y-97520514D01*
X132051426Y-97520884D01*
X132063828Y-97521753D01*
X132065075Y-97521822D01*
X132082471Y-97522514D01*
X132170174Y-97524725D01*
X132186061Y-97525127D01*
X132186331Y-97525131D01*
X132188557Y-97525004D01*
X132190782Y-97524958D01*
X132189068Y-97525025D01*
X132206560Y-97525384D01*
X132206998Y-97525340D01*
X132207000Y-97525341D01*
X132237731Y-97522313D01*
X132242824Y-97521918D01*
X132272840Y-97520212D01*
X132272842Y-97520211D01*
X132273905Y-97520151D01*
X132290938Y-97517073D01*
X132403132Y-97506024D01*
X132591727Y-97448814D01*
X132765538Y-97355910D01*
X132917883Y-97230883D01*
X133042910Y-97078538D01*
X133135814Y-96904727D01*
X133193024Y-96716132D01*
X133212341Y-96520000D01*
X133193024Y-96323868D01*
X133135814Y-96135273D01*
X133042910Y-95961462D01*
X132917883Y-95809117D01*
X132765538Y-95684090D01*
X132743091Y-95672092D01*
X132591726Y-95591185D01*
X132403133Y-95533976D01*
X132206998Y-95514658D01*
X132203199Y-95515033D01*
X132186119Y-95515531D01*
X132183575Y-95515429D01*
X132179551Y-95515004D01*
X132175502Y-95515107D01*
X132175489Y-95515107D01*
X132082377Y-95517489D01*
X132064077Y-95518232D01*
X132062827Y-95518302D01*
X132046314Y-95519472D01*
X132046144Y-95519484D01*
X132046135Y-95519484D01*
X132046061Y-95519490D01*
X131957010Y-95527025D01*
X131938359Y-95528896D01*
X131938344Y-95528897D01*
X131938234Y-95528909D01*
X131937502Y-95528994D01*
X131918013Y-95531579D01*
X131917962Y-95531586D01*
X131917921Y-95531592D01*
X131854767Y-95541013D01*
X131843605Y-95542678D01*
X131843596Y-95542679D01*
X131843579Y-95542682D01*
X131836378Y-95543857D01*
X131827336Y-95545332D01*
X131827316Y-95545335D01*
X131827258Y-95545345D01*
X131826069Y-95545554D01*
X131808970Y-95548860D01*
X131808773Y-95548899D01*
X131808763Y-95548900D01*
X131808691Y-95548915D01*
X131743941Y-95562409D01*
X131732018Y-95565019D01*
X131722777Y-95567210D01*
X131615761Y-95593487D01*
X131611498Y-95594454D01*
X131578363Y-95601360D01*
X131571357Y-95602612D01*
X131539942Y-95607298D01*
X131532100Y-95608214D01*
X131486800Y-95612046D01*
X131479520Y-95612446D01*
X131404760Y-95614358D01*
X131404727Y-95614359D01*
X131402921Y-95614406D01*
X131401096Y-95614560D01*
X131401093Y-95614561D01*
X131348114Y-95619056D01*
X131337631Y-95619500D01*
X130950958Y-95619500D01*
X130934521Y-95618406D01*
X130916359Y-95615977D01*
X130909218Y-95614809D01*
X130907137Y-95614406D01*
X130900614Y-95613142D01*
X130893695Y-95611596D01*
X130883516Y-95609013D01*
X130876896Y-95607136D01*
X130866923Y-95604007D01*
X130864920Y-95603378D01*
X130858636Y-95601220D01*
X130844606Y-95595977D01*
X130838689Y-95593591D01*
X130822447Y-95586547D01*
X130816895Y-95583974D01*
X130798446Y-95574865D01*
X130793279Y-95572161D01*
X130772599Y-95560711D01*
X130767803Y-95557913D01*
X130744900Y-95543857D01*
X130740478Y-95541013D01*
X130738474Y-95539663D01*
X130709406Y-95520080D01*
X130706412Y-95518409D01*
X130705472Y-95517791D01*
X130704920Y-95517452D01*
X130705253Y-95517647D01*
X130691353Y-95508505D01*
X130667842Y-95490464D01*
X130636399Y-95477440D01*
X130627462Y-95473737D01*
X130621220Y-95470877D01*
X130620751Y-95470615D01*
X130617187Y-95469002D01*
X130603062Y-95462922D01*
X130594375Y-95459183D01*
X130583398Y-95455486D01*
X130521762Y-95429956D01*
X130408380Y-95415029D01*
X130408378Y-95415028D01*
X130404361Y-95414500D01*
X130400308Y-95414500D01*
X128725858Y-95414500D01*
X128709392Y-95412889D01*
X128689375Y-95414225D01*
X128681123Y-95414500D01*
X128629695Y-95414500D01*
X128629680Y-95414500D01*
X128625640Y-95414501D01*
X128621629Y-95415028D01*
X128621628Y-95415029D01*
X128617116Y-95415623D01*
X128568217Y-95422059D01*
X128560320Y-95422842D01*
X128552877Y-95423339D01*
X128552873Y-95423339D01*
X128548823Y-95423610D01*
X128544857Y-95424403D01*
X128544841Y-95424406D01*
X128540046Y-95425367D01*
X128542132Y-95424914D01*
X128530698Y-95426997D01*
X128508240Y-95429954D01*
X128488243Y-95438238D01*
X128473036Y-95443411D01*
X128463547Y-95445966D01*
X128436168Y-95459509D01*
X128428646Y-95462922D01*
X128362158Y-95490463D01*
X128351018Y-95499011D01*
X128330526Y-95511772D01*
X128325517Y-95514250D01*
X128325508Y-95514255D01*
X128321870Y-95516055D01*
X128318505Y-95518308D01*
X128318497Y-95518314D01*
X128290874Y-95536821D01*
X128286430Y-95539663D01*
X128263662Y-95553551D01*
X128258848Y-95556341D01*
X128238281Y-95567653D01*
X128233086Y-95570353D01*
X128214793Y-95579317D01*
X128209214Y-95581881D01*
X128193154Y-95588787D01*
X128187196Y-95591168D01*
X128173290Y-95596313D01*
X128166979Y-95598457D01*
X128163692Y-95599476D01*
X128155080Y-95602146D01*
X128148449Y-95604001D01*
X128138391Y-95606515D01*
X128131463Y-95608038D01*
X128122933Y-95609658D01*
X128115792Y-95610800D01*
X128097387Y-95613193D01*
X128079526Y-95614500D01*
X124650062Y-95614500D01*
X124626690Y-95612217D01*
X124632873Y-95613228D01*
X124614232Y-95610804D01*
X124607067Y-95609659D01*
X124598502Y-95608031D01*
X124591591Y-95606512D01*
X124589374Y-95605957D01*
X124581544Y-95604000D01*
X124574911Y-95602144D01*
X124563023Y-95598458D01*
X124556717Y-95596316D01*
X124542782Y-95591160D01*
X124536829Y-95588780D01*
X124520789Y-95581883D01*
X124515222Y-95579325D01*
X124496900Y-95570347D01*
X124491714Y-95567652D01*
X124471149Y-95556341D01*
X124466353Y-95553561D01*
X124443567Y-95539662D01*
X124439128Y-95536824D01*
X124410280Y-95517496D01*
X124410269Y-95517489D01*
X124408126Y-95516053D01*
X124391170Y-95506652D01*
X124375816Y-95496583D01*
X124367842Y-95490464D01*
X124351159Y-95483554D01*
X124338485Y-95477440D01*
X124321492Y-95468018D01*
X124321480Y-95468012D01*
X124319213Y-95466755D01*
X124316840Y-95465689D01*
X124316830Y-95465684D01*
X124315649Y-95465154D01*
X124295053Y-95456356D01*
X124277711Y-95451848D01*
X124261463Y-95446400D01*
X124221762Y-95429956D01*
X124197737Y-95426793D01*
X124172072Y-95423414D01*
X124157065Y-95420488D01*
X124153211Y-95419486D01*
X124142069Y-95416590D01*
X124142068Y-95416590D01*
X124129995Y-95416680D01*
X124112894Y-95415623D01*
X124108386Y-95415029D01*
X124108374Y-95415028D01*
X124104361Y-95414500D01*
X124100300Y-95414500D01*
X122329694Y-95414500D01*
X122329678Y-95414500D01*
X122325640Y-95414501D01*
X122321627Y-95415029D01*
X122321615Y-95415030D01*
X122208239Y-95429955D01*
X122062158Y-95490464D01*
X121936717Y-95586717D01*
X121840463Y-95712159D01*
X121779956Y-95858237D01*
X121766443Y-95960883D01*
X121764500Y-95975639D01*
X121764500Y-95979691D01*
X121764500Y-95979692D01*
X121764500Y-97050305D01*
X121764500Y-97050320D01*
X118110000Y-97050320D01*
X118110000Y-92965000D01*
X121865000Y-92965000D01*
X121865000Y-93259518D01*
X121865354Y-93266132D01*
X121871400Y-93322371D01*
X121921647Y-93457089D01*
X122007811Y-93572188D01*
X122122910Y-93658352D01*
X122257628Y-93708599D01*
X122313867Y-93714645D01*
X122320482Y-93715000D01*
X122965000Y-93715000D01*
X122965000Y-92965000D01*
X123465000Y-92965000D01*
X123465000Y-93715000D01*
X124109518Y-93715000D01*
X124116132Y-93714645D01*
X124172371Y-93708599D01*
X124307089Y-93658352D01*
X124422188Y-93572188D01*
X124508352Y-93457089D01*
X124558599Y-93322371D01*
X124564645Y-93266132D01*
X124565000Y-93259518D01*
X124565000Y-92965000D01*
X128165000Y-92965000D01*
X128165000Y-93259518D01*
X128165354Y-93266132D01*
X128171400Y-93322371D01*
X128221647Y-93457089D01*
X128307811Y-93572188D01*
X128422910Y-93658352D01*
X128557628Y-93708599D01*
X128613867Y-93714645D01*
X128620482Y-93715000D01*
X129265000Y-93715000D01*
X129265000Y-92965000D01*
X129765000Y-92965000D01*
X129765000Y-93715000D01*
X130409518Y-93715000D01*
X130416132Y-93714645D01*
X130472371Y-93708599D01*
X130607089Y-93658352D01*
X130722188Y-93572188D01*
X130808352Y-93457089D01*
X130858599Y-93322371D01*
X130864645Y-93266132D01*
X130865000Y-93259518D01*
X130865000Y-92965000D01*
X129765000Y-92965000D01*
X129265000Y-92965000D01*
X128165000Y-92965000D01*
X124565000Y-92965000D01*
X123465000Y-92965000D01*
X122965000Y-92965000D01*
X121865000Y-92965000D01*
X118110000Y-92965000D01*
X118110000Y-92465000D01*
X121865000Y-92465000D01*
X122965000Y-92465000D01*
X122965000Y-91715000D01*
X123465000Y-91715000D01*
X123465000Y-92465000D01*
X124565000Y-92465000D01*
X128165000Y-92465000D01*
X129265000Y-92465000D01*
X129265000Y-91715000D01*
X129765000Y-91715000D01*
X129765000Y-92465000D01*
X130865000Y-92465000D01*
X130865000Y-92170481D01*
X130864645Y-92163867D01*
X130858599Y-92107628D01*
X130808352Y-91972910D01*
X130722188Y-91857811D01*
X130607089Y-91771647D01*
X130472371Y-91721400D01*
X130416132Y-91715354D01*
X130409518Y-91715000D01*
X129765000Y-91715000D01*
X129265000Y-91715000D01*
X128620482Y-91715000D01*
X128613867Y-91715354D01*
X128557628Y-91721400D01*
X128422910Y-91771647D01*
X128307811Y-91857811D01*
X128221647Y-91972910D01*
X128171400Y-92107628D01*
X128165354Y-92163867D01*
X128165000Y-92170481D01*
X128165000Y-92465000D01*
X124565000Y-92465000D01*
X124565000Y-92170481D01*
X124564645Y-92163867D01*
X124558599Y-92107628D01*
X124508352Y-91972910D01*
X124422188Y-91857811D01*
X124307089Y-91771647D01*
X124172371Y-91721400D01*
X124116132Y-91715354D01*
X124109518Y-91715000D01*
X123465000Y-91715000D01*
X122965000Y-91715000D01*
X122320482Y-91715000D01*
X122313867Y-91715354D01*
X122257628Y-91721400D01*
X122122910Y-91771647D01*
X122007811Y-91857811D01*
X121921647Y-91972910D01*
X121871400Y-92107628D01*
X121865354Y-92163867D01*
X121865000Y-92170481D01*
X121865000Y-92465000D01*
X118110000Y-92465000D01*
X118110000Y-83057999D01*
X119223707Y-83057999D01*
X119242838Y-83276671D01*
X119242839Y-83276674D01*
X119299653Y-83488703D01*
X119392421Y-83687646D01*
X119518326Y-83867457D01*
X119673543Y-84022674D01*
X119853354Y-84148579D01*
X120052297Y-84241347D01*
X120264326Y-84298161D01*
X120410108Y-84310914D01*
X120482999Y-84317292D01*
X120482999Y-84317291D01*
X120483000Y-84317292D01*
X120701674Y-84298161D01*
X120913703Y-84241347D01*
X120943219Y-84227582D01*
X120963166Y-84220287D01*
X120977510Y-84216398D01*
X121083317Y-84172192D01*
X121171824Y-84135171D01*
X121240968Y-84107502D01*
X121245193Y-84105904D01*
X121286172Y-84091247D01*
X121293238Y-84088955D01*
X121314863Y-84082654D01*
X121323917Y-84080383D01*
X121340347Y-84076915D01*
X121349470Y-84075344D01*
X121376863Y-84071676D01*
X121384272Y-84070911D01*
X121435209Y-84067208D01*
X121440212Y-84066948D01*
X121520993Y-84064405D01*
X121523817Y-84064350D01*
X121629852Y-84063569D01*
X121696732Y-84058811D01*
X121705530Y-84058500D01*
X127296217Y-84058500D01*
X127363256Y-84078185D01*
X127383898Y-84094819D01*
X135236449Y-91947370D01*
X135238642Y-91949619D01*
X135298941Y-92013053D01*
X135347358Y-92046752D01*
X135354870Y-92052417D01*
X135388317Y-92079688D01*
X135400593Y-92089698D01*
X135427559Y-92103784D01*
X135440975Y-92111912D01*
X135465951Y-92129295D01*
X135479559Y-92135134D01*
X135520156Y-92152557D01*
X135528654Y-92156592D01*
X135580951Y-92183910D01*
X135595811Y-92188161D01*
X135610191Y-92192276D01*
X135624983Y-92197542D01*
X135652937Y-92209538D01*
X135652942Y-92209540D01*
X135710714Y-92221412D01*
X135719862Y-92223657D01*
X135776582Y-92239887D01*
X135806916Y-92242196D01*
X135822453Y-92244374D01*
X135852259Y-92250500D01*
X135911243Y-92250500D01*
X135920657Y-92250858D01*
X135979477Y-92255337D01*
X136009652Y-92251493D01*
X136025318Y-92250500D01*
X142187127Y-92250500D01*
X142211252Y-92252870D01*
X142215149Y-92253642D01*
X142221664Y-92254935D01*
X142250295Y-92256795D01*
X142253791Y-92257073D01*
X142280610Y-92259595D01*
X142284318Y-92260000D01*
X142314278Y-92263745D01*
X142317847Y-92264245D01*
X142324732Y-92265312D01*
X142346747Y-92268725D01*
X142350298Y-92269328D01*
X142379868Y-92274800D01*
X142383190Y-92275462D01*
X142411233Y-92281465D01*
X142414720Y-92282265D01*
X142446019Y-92289932D01*
X142449350Y-92290798D01*
X142479709Y-92299147D01*
X142482962Y-92300090D01*
X142496830Y-92304320D01*
X142513887Y-92309523D01*
X142517098Y-92310550D01*
X142552238Y-92322322D01*
X142554097Y-92322897D01*
X142583707Y-92331778D01*
X142592650Y-92334966D01*
X142593235Y-92335043D01*
X142593238Y-92335044D01*
X142617615Y-92338253D01*
X142621605Y-92338845D01*
X142705345Y-92352692D01*
X142734791Y-92350811D01*
X142735743Y-92350751D01*
X142743644Y-92350499D01*
X144285305Y-92350499D01*
X144289360Y-92350499D01*
X144406762Y-92335044D01*
X144552841Y-92274536D01*
X144678282Y-92178282D01*
X144774536Y-92052841D01*
X144835044Y-91906762D01*
X144850500Y-91789361D01*
X144850499Y-90710640D01*
X144847820Y-90690292D01*
X144838065Y-90616183D01*
X144838065Y-90583815D01*
X144841344Y-90558907D01*
X144850500Y-90489361D01*
X144850499Y-89410640D01*
X144835044Y-89293238D01*
X144774536Y-89147159D01*
X144740561Y-89102882D01*
X144678282Y-89021717D01*
X144552840Y-88925463D01*
X144406762Y-88864956D01*
X144293380Y-88850029D01*
X144293378Y-88850028D01*
X144289361Y-88849500D01*
X144285308Y-88849500D01*
X142810019Y-88849500D01*
X142796400Y-88848581D01*
X142795497Y-88848398D01*
X142791454Y-88848116D01*
X142791440Y-88848115D01*
X142788589Y-88847917D01*
X142788567Y-88847916D01*
X142786565Y-88847777D01*
X142784569Y-88847769D01*
X142784541Y-88847768D01*
X142707394Y-88847460D01*
X142672027Y-88854347D01*
X142664513Y-88855572D01*
X142593238Y-88864955D01*
X142583168Y-88869126D01*
X142559434Y-88876274D01*
X142556229Y-88876898D01*
X142556220Y-88876900D01*
X142552243Y-88877675D01*
X142548395Y-88878963D01*
X142548391Y-88878965D01*
X142517084Y-88889451D01*
X142513881Y-88890476D01*
X142482983Y-88899901D01*
X142479681Y-88900858D01*
X142449359Y-88909196D01*
X142445991Y-88910072D01*
X142415511Y-88917540D01*
X142412227Y-88918297D01*
X142384878Y-88924215D01*
X142381209Y-88924951D01*
X142350321Y-88930665D01*
X142346760Y-88931271D01*
X142317827Y-88935756D01*
X142314262Y-88936254D01*
X142285296Y-88939875D01*
X142281790Y-88940262D01*
X142254779Y-88942851D01*
X142250994Y-88943156D01*
X142223189Y-88944963D01*
X142223155Y-88944966D01*
X142221679Y-88945062D01*
X142220165Y-88945235D01*
X142220161Y-88945236D01*
X142190030Y-88948692D01*
X142175900Y-88949500D01*
X137405782Y-88949500D01*
X137338743Y-88929815D01*
X137318101Y-88913181D01*
X125685567Y-77280647D01*
X125683412Y-77278438D01*
X125623059Y-77214947D01*
X125574640Y-77181246D01*
X125567118Y-77175575D01*
X125554004Y-77164882D01*
X125521407Y-77138302D01*
X125521408Y-77138302D01*
X125521405Y-77138300D01*
X125494440Y-77124215D01*
X125481019Y-77116084D01*
X125456049Y-77098705D01*
X125456048Y-77098704D01*
X125456046Y-77098703D01*
X125401845Y-77075443D01*
X125393336Y-77071402D01*
X125341053Y-77044092D01*
X125335126Y-77042396D01*
X125311798Y-77035721D01*
X125297020Y-77030459D01*
X125269058Y-77018460D01*
X125211272Y-77006583D01*
X125202128Y-77004338D01*
X125145421Y-76988113D01*
X125115075Y-76985802D01*
X125099534Y-76983622D01*
X125069742Y-76977500D01*
X125069741Y-76977500D01*
X125010758Y-76977500D01*
X125001344Y-76977142D01*
X124990496Y-76976316D01*
X124942524Y-76972663D01*
X124942523Y-76972663D01*
X124942522Y-76972663D01*
X124912349Y-76976506D01*
X124896683Y-76977500D01*
X121674867Y-76977500D01*
X121657775Y-76976316D01*
X121633877Y-76972990D01*
X121633874Y-76972989D01*
X121629852Y-76972430D01*
X121625793Y-76972400D01*
X121523897Y-76971648D01*
X121520911Y-76971590D01*
X121440254Y-76969051D01*
X121435164Y-76968786D01*
X121384296Y-76965088D01*
X121376829Y-76964317D01*
X121349482Y-76960655D01*
X121340335Y-76959080D01*
X121336552Y-76958281D01*
X121323917Y-76955614D01*
X121314855Y-76953341D01*
X121292984Y-76946969D01*
X121286003Y-76944709D01*
X121247134Y-76930839D01*
X121242906Y-76929242D01*
X121180382Y-76904324D01*
X121083476Y-76863873D01*
X120978568Y-76820042D01*
X120924299Y-76776035D01*
X120902437Y-76709674D01*
X120919923Y-76642028D01*
X120971206Y-76594574D01*
X120973861Y-76593294D01*
X121112646Y-76528579D01*
X121292457Y-76402674D01*
X121447674Y-76247457D01*
X121573579Y-76067646D01*
X121666347Y-75868703D01*
X121723161Y-75656674D01*
X121742292Y-75438000D01*
X121739928Y-75410984D01*
X121723161Y-75219328D01*
X121723161Y-75219326D01*
X121666347Y-75007297D01*
X121573579Y-74808354D01*
X121447674Y-74628543D01*
X121292457Y-74473326D01*
X121112646Y-74347421D01*
X121112642Y-74347418D01*
X120968880Y-74280382D01*
X120916440Y-74234210D01*
X120897288Y-74167017D01*
X120917504Y-74100135D01*
X120968880Y-74055618D01*
X121112642Y-73988581D01*
X121112642Y-73988580D01*
X121112646Y-73988579D01*
X121292457Y-73862674D01*
X121447674Y-73707457D01*
X121573579Y-73527646D01*
X121666347Y-73328703D01*
X121723161Y-73116674D01*
X121742292Y-72898000D01*
X121723161Y-72679326D01*
X121666347Y-72467297D01*
X121573579Y-72268354D01*
X121447674Y-72088543D01*
X121292457Y-71933326D01*
X121145243Y-71830246D01*
X121112642Y-71807418D01*
X120968880Y-71740382D01*
X120916440Y-71694210D01*
X120897288Y-71627017D01*
X120917504Y-71560135D01*
X120968880Y-71515618D01*
X121112642Y-71448581D01*
X121112642Y-71448580D01*
X121112646Y-71448579D01*
X121292457Y-71322674D01*
X121447674Y-71167457D01*
X121573579Y-70987646D01*
X121666347Y-70788703D01*
X121668723Y-70779833D01*
X121671102Y-70772003D01*
X121705651Y-70670518D01*
X121705661Y-70670484D01*
X121706281Y-70668498D01*
X121717616Y-70631000D01*
X121718180Y-70628950D01*
X121718025Y-70629462D01*
X121718517Y-70627405D01*
X121727239Y-70589383D01*
X121727658Y-70587323D01*
X121749803Y-70473299D01*
X121750127Y-70471399D01*
X121755818Y-70436259D01*
X121756082Y-70434355D01*
X121756006Y-70434821D01*
X121756209Y-70432927D01*
X121759717Y-70397445D01*
X121759864Y-70395514D01*
X121766760Y-70293967D01*
X121766828Y-70292651D01*
X121767970Y-70267953D01*
X121768010Y-70266634D01*
X121767995Y-70266951D01*
X121768007Y-70265615D01*
X121768087Y-70241090D01*
X121768069Y-70239749D01*
X121766232Y-70139275D01*
X121765991Y-70132406D01*
X121765566Y-70121973D01*
X121765212Y-70113249D01*
X121782162Y-70045472D01*
X121795810Y-70026550D01*
X121801296Y-70020284D01*
X121820603Y-69995924D01*
X121830090Y-69985276D01*
X124309547Y-67505819D01*
X124370871Y-67472334D01*
X124397229Y-67469500D01*
X137152875Y-67469500D01*
X137219914Y-67489185D01*
X137265669Y-67541989D01*
X137276403Y-67604307D01*
X137257707Y-67818000D01*
X137276838Y-68036671D01*
X137276839Y-68036674D01*
X137333653Y-68248703D01*
X137426421Y-68447646D01*
X137552326Y-68627457D01*
X137707543Y-68782674D01*
X137887354Y-68908579D01*
X137991278Y-68957039D01*
X138031120Y-68975618D01*
X138083559Y-69021790D01*
X138102711Y-69088984D01*
X138082495Y-69155865D01*
X138031120Y-69200382D01*
X137978406Y-69224963D01*
X137887354Y-69267421D01*
X137708747Y-69392483D01*
X137707539Y-69393329D01*
X137552329Y-69548539D01*
X137552326Y-69548542D01*
X137552326Y-69548543D01*
X137454593Y-69688121D01*
X137426420Y-69728356D01*
X137333653Y-69927295D01*
X137276838Y-70139328D01*
X137257707Y-70358000D01*
X137276838Y-70576671D01*
X137330217Y-70775882D01*
X137333653Y-70788703D01*
X137426421Y-70987646D01*
X137552326Y-71167457D01*
X137707543Y-71322674D01*
X137887354Y-71448579D01*
X137998022Y-71500184D01*
X138031120Y-71515618D01*
X138083559Y-71561790D01*
X138102711Y-71628984D01*
X138082495Y-71695865D01*
X138031120Y-71740382D01*
X137936429Y-71784537D01*
X137887354Y-71807421D01*
X137707543Y-71933326D01*
X137707539Y-71933329D01*
X137552329Y-72088539D01*
X137552326Y-72088542D01*
X137552326Y-72088543D01*
X137480746Y-72190771D01*
X137426420Y-72268356D01*
X137333653Y-72467295D01*
X137276838Y-72679328D01*
X137257707Y-72897999D01*
X137276838Y-73116671D01*
X137333653Y-73328704D01*
X137376999Y-73421659D01*
X137426421Y-73527646D01*
X137552326Y-73707457D01*
X137707543Y-73862674D01*
X137887354Y-73988579D01*
X137998022Y-74040184D01*
X138031120Y-74055618D01*
X138083559Y-74101790D01*
X138102711Y-74168984D01*
X138082495Y-74235865D01*
X138031120Y-74280382D01*
X137978114Y-74305099D01*
X137887354Y-74347421D01*
X137769155Y-74430185D01*
X137707539Y-74473329D01*
X137552329Y-74628539D01*
X137552326Y-74628542D01*
X137552326Y-74628543D01*
X137480746Y-74730771D01*
X137426420Y-74808356D01*
X137333653Y-75007295D01*
X137276838Y-75219328D01*
X137257707Y-75438000D01*
X137276838Y-75656671D01*
X137333653Y-75868704D01*
X137357105Y-75918996D01*
X137426421Y-76067646D01*
X137552326Y-76247457D01*
X137707543Y-76402674D01*
X137887354Y-76528579D01*
X138031119Y-76595617D01*
X138083559Y-76641789D01*
X138102711Y-76708982D01*
X138082496Y-76775863D01*
X138031120Y-76820381D01*
X137887356Y-76887420D01*
X137887354Y-76887421D01*
X137707543Y-77013326D01*
X137707539Y-77013329D01*
X137552329Y-77168539D01*
X137552326Y-77168542D01*
X137552326Y-77168543D01*
X137480746Y-77270771D01*
X137426420Y-77348356D01*
X137333653Y-77547295D01*
X137276838Y-77759328D01*
X137257707Y-77978000D01*
X137276838Y-78196671D01*
X137333653Y-78408704D01*
X137376685Y-78500986D01*
X137426421Y-78607646D01*
X137552326Y-78787457D01*
X137707543Y-78942674D01*
X137887354Y-79068579D01*
X137998022Y-79120184D01*
X138031120Y-79135618D01*
X138083559Y-79181790D01*
X138102711Y-79248984D01*
X138082495Y-79315865D01*
X138031120Y-79360382D01*
X137978114Y-79385099D01*
X137887354Y-79427421D01*
X137707543Y-79553326D01*
X137707539Y-79553329D01*
X137552329Y-79708539D01*
X137552326Y-79708542D01*
X137552326Y-79708543D01*
X137480746Y-79810771D01*
X137426420Y-79888356D01*
X137333653Y-80087295D01*
X137276838Y-80299328D01*
X137257707Y-80518000D01*
X137276838Y-80736671D01*
X137333653Y-80948704D01*
X137376999Y-81041659D01*
X137426421Y-81147646D01*
X137552326Y-81327457D01*
X137707543Y-81482674D01*
X137887354Y-81608579D01*
X137998022Y-81660184D01*
X138031120Y-81675618D01*
X138083559Y-81721790D01*
X138102711Y-81788984D01*
X138082495Y-81855865D01*
X138031120Y-81900382D01*
X137978114Y-81925099D01*
X137887354Y-81967421D01*
X137765949Y-82052430D01*
X137707539Y-82093329D01*
X137552329Y-82248539D01*
X137552326Y-82248542D01*
X137552326Y-82248543D01*
X137480746Y-82350771D01*
X137426420Y-82428356D01*
X137333653Y-82627295D01*
X137276838Y-82839328D01*
X137257707Y-83058000D01*
X137276838Y-83276671D01*
X137276839Y-83276674D01*
X137333653Y-83488703D01*
X137426421Y-83687646D01*
X137552326Y-83867457D01*
X137707543Y-84022674D01*
X137887354Y-84148579D01*
X138086297Y-84241347D01*
X138298326Y-84298161D01*
X138517000Y-84317292D01*
X138735674Y-84298161D01*
X138947703Y-84241347D01*
X139146646Y-84148579D01*
X139326457Y-84022674D01*
X139481674Y-83867457D01*
X139607579Y-83687646D01*
X139700347Y-83488703D01*
X139757161Y-83276674D01*
X139776292Y-83058000D01*
X139757161Y-82839326D01*
X139700347Y-82627297D01*
X139607579Y-82428354D01*
X139481674Y-82248543D01*
X139326457Y-82093326D01*
X139146646Y-81967421D01*
X139146642Y-81967418D01*
X139002880Y-81900382D01*
X138950440Y-81854210D01*
X138931288Y-81787017D01*
X138951504Y-81720135D01*
X139002880Y-81675618D01*
X139146642Y-81608581D01*
X139146642Y-81608580D01*
X139146646Y-81608579D01*
X139326457Y-81482674D01*
X139481674Y-81327457D01*
X139607579Y-81147646D01*
X139700347Y-80948703D01*
X139757161Y-80736674D01*
X139776292Y-80518000D01*
X139757161Y-80299326D01*
X139700347Y-80087297D01*
X139607579Y-79888354D01*
X139481674Y-79708543D01*
X139326457Y-79553326D01*
X139146646Y-79427421D01*
X139146642Y-79427418D01*
X139002880Y-79360382D01*
X138950440Y-79314210D01*
X138931288Y-79247017D01*
X138951504Y-79180135D01*
X139002880Y-79135618D01*
X139146642Y-79068581D01*
X139146642Y-79068580D01*
X139146646Y-79068579D01*
X139326457Y-78942674D01*
X139481674Y-78787457D01*
X139607579Y-78607646D01*
X139700347Y-78408703D01*
X139757161Y-78196674D01*
X139776292Y-77978000D01*
X139757161Y-77759326D01*
X139700347Y-77547297D01*
X139607579Y-77348354D01*
X139481674Y-77168543D01*
X139326457Y-77013326D01*
X139146646Y-76887421D01*
X139096147Y-76863873D01*
X139002879Y-76820381D01*
X138950440Y-76774208D01*
X138931288Y-76707015D01*
X138951504Y-76640134D01*
X139002875Y-76595619D01*
X139146646Y-76528579D01*
X139326457Y-76402674D01*
X139481674Y-76247457D01*
X139607579Y-76067646D01*
X139700347Y-75868703D01*
X139757161Y-75656674D01*
X139776292Y-75438000D01*
X139773928Y-75410984D01*
X139757161Y-75219328D01*
X139757161Y-75219326D01*
X139700347Y-75007297D01*
X139607579Y-74808354D01*
X139481674Y-74628543D01*
X139326457Y-74473326D01*
X139146646Y-74347421D01*
X139146642Y-74347418D01*
X139002880Y-74280382D01*
X138950440Y-74234210D01*
X138931288Y-74167017D01*
X138951504Y-74100135D01*
X139002880Y-74055618D01*
X139146642Y-73988581D01*
X139146642Y-73988580D01*
X139146646Y-73988579D01*
X139326457Y-73862674D01*
X139481674Y-73707457D01*
X139607579Y-73527646D01*
X139700347Y-73328703D01*
X139757161Y-73116674D01*
X139776292Y-72898000D01*
X139757161Y-72679326D01*
X139700347Y-72467297D01*
X139607579Y-72268354D01*
X139481674Y-72088543D01*
X139326457Y-71933326D01*
X139179243Y-71830246D01*
X139146642Y-71807418D01*
X139002880Y-71740382D01*
X138950440Y-71694210D01*
X138931288Y-71627017D01*
X138951504Y-71560135D01*
X139002880Y-71515618D01*
X139146642Y-71448581D01*
X139146642Y-71448580D01*
X139146646Y-71448579D01*
X139326457Y-71322674D01*
X139481674Y-71167457D01*
X139607579Y-70987646D01*
X139700347Y-70788703D01*
X139757161Y-70576674D01*
X139776292Y-70358000D01*
X139757161Y-70139326D01*
X139700347Y-69927297D01*
X139607579Y-69728354D01*
X139481674Y-69548543D01*
X139326457Y-69393326D01*
X139146646Y-69267421D01*
X139146642Y-69267418D01*
X139002880Y-69200382D01*
X138950440Y-69154210D01*
X138931288Y-69087017D01*
X138951504Y-69020135D01*
X139002880Y-68975618D01*
X139146642Y-68908581D01*
X139146642Y-68908580D01*
X139146646Y-68908579D01*
X139326457Y-68782674D01*
X139481674Y-68627457D01*
X139607579Y-68447646D01*
X139700347Y-68248703D01*
X139757161Y-68036674D01*
X139776292Y-67818000D01*
X139757596Y-67604307D01*
X139771364Y-67535807D01*
X139819979Y-67485624D01*
X139881125Y-67469500D01*
X155782699Y-67469500D01*
X155800669Y-67470809D01*
X155804725Y-67471402D01*
X155824428Y-67474289D01*
X155873773Y-67469972D01*
X155884581Y-67469500D01*
X155886493Y-67469500D01*
X155890114Y-67469500D01*
X155892627Y-67469206D01*
X155960479Y-67484902D01*
X156009231Y-67534952D01*
X156023185Y-67603414D01*
X155997911Y-67668552D01*
X155941432Y-67709686D01*
X155935624Y-67711605D01*
X155799873Y-67752785D01*
X155626063Y-67845689D01*
X155473717Y-67970717D01*
X155348689Y-68123063D01*
X155255785Y-68296873D01*
X155198576Y-68485466D01*
X155179259Y-68681600D01*
X155198576Y-68877733D01*
X155255785Y-69066326D01*
X155314669Y-69176490D01*
X155348690Y-69240138D01*
X155473717Y-69392483D01*
X155626062Y-69517510D01*
X155799873Y-69610414D01*
X155803141Y-69611405D01*
X155819262Y-69617551D01*
X155821081Y-69618393D01*
X155824648Y-69620339D01*
X155900539Y-69649632D01*
X155913404Y-69654430D01*
X155913453Y-69654447D01*
X155913462Y-69654451D01*
X155914382Y-69654783D01*
X155928159Y-69659547D01*
X155991193Y-69680414D01*
X156013039Y-69687647D01*
X156013085Y-69687661D01*
X156014568Y-69688121D01*
X156022870Y-69690624D01*
X156092503Y-69711039D01*
X156132678Y-69722408D01*
X156184063Y-69751593D01*
X156220067Y-69785618D01*
X156221439Y-69786771D01*
X156221445Y-69786776D01*
X156260890Y-69819915D01*
X156268807Y-69827175D01*
X156580960Y-70139328D01*
X156864181Y-70422548D01*
X156897666Y-70483871D01*
X156900500Y-70510229D01*
X156900500Y-71671743D01*
X156880815Y-71738782D01*
X156828011Y-71784537D01*
X156758853Y-71794481D01*
X156718048Y-71781102D01*
X156638872Y-71738782D01*
X156594727Y-71715186D01*
X156525579Y-71694210D01*
X156406133Y-71657976D01*
X156210000Y-71638659D01*
X156013866Y-71657976D01*
X155825273Y-71715185D01*
X155651463Y-71808089D01*
X155499117Y-71933117D01*
X155374089Y-72085463D01*
X155281185Y-72259273D01*
X155223976Y-72447866D01*
X155222062Y-72467297D01*
X155204659Y-72644000D01*
X155214317Y-72742066D01*
X155223976Y-72840133D01*
X155281185Y-73028726D01*
X155345058Y-73148223D01*
X155374090Y-73202538D01*
X155499117Y-73354883D01*
X155651462Y-73479910D01*
X155825273Y-73572814D01*
X155828541Y-73573805D01*
X155844662Y-73579951D01*
X155846481Y-73580793D01*
X155850048Y-73582739D01*
X155925939Y-73612032D01*
X155938804Y-73616830D01*
X155938853Y-73616847D01*
X155938862Y-73616851D01*
X155939782Y-73617183D01*
X155953559Y-73621947D01*
X156016593Y-73642814D01*
X156038439Y-73650047D01*
X156038485Y-73650061D01*
X156039968Y-73650521D01*
X156048270Y-73653024D01*
X156117903Y-73673439D01*
X156158078Y-73684808D01*
X156209463Y-73713993D01*
X156245467Y-73748018D01*
X156246839Y-73749171D01*
X156246845Y-73749176D01*
X156286290Y-73782315D01*
X156294207Y-73789575D01*
X156439181Y-73934549D01*
X156472666Y-73995872D01*
X156475500Y-74022230D01*
X156475500Y-77115995D01*
X156455815Y-77183034D01*
X156403011Y-77228789D01*
X156339346Y-77239398D01*
X156210000Y-77226659D01*
X156013866Y-77245976D01*
X155825273Y-77303185D01*
X155651463Y-77396089D01*
X155499117Y-77521117D01*
X155374089Y-77673463D01*
X155281185Y-77847273D01*
X155223976Y-78035866D01*
X155204659Y-78232000D01*
X155223976Y-78428133D01*
X155281185Y-78616726D01*
X155356572Y-78757765D01*
X155374090Y-78790538D01*
X155499117Y-78942883D01*
X155651462Y-79067910D01*
X155825273Y-79160814D01*
X155828541Y-79161805D01*
X155844662Y-79167951D01*
X155846481Y-79168793D01*
X155850048Y-79170739D01*
X155925939Y-79200032D01*
X155938804Y-79204830D01*
X155938853Y-79204847D01*
X155938862Y-79204851D01*
X155939782Y-79205183D01*
X155953559Y-79209947D01*
X156016593Y-79230814D01*
X156038439Y-79238047D01*
X156038485Y-79238061D01*
X156039968Y-79238521D01*
X156048270Y-79241024D01*
X156117903Y-79261439D01*
X156158078Y-79272808D01*
X156209463Y-79301993D01*
X156245467Y-79336018D01*
X156246839Y-79337171D01*
X156246845Y-79337176D01*
X156286290Y-79370315D01*
X156294207Y-79377575D01*
X176716267Y-99799634D01*
X176728048Y-99813266D01*
X176742389Y-99832529D01*
X176780339Y-99864373D01*
X176788314Y-99871681D01*
X176792223Y-99875590D01*
X176795055Y-99877829D01*
X176795065Y-99877838D01*
X176816542Y-99894819D01*
X176819298Y-99897063D01*
X176876786Y-99945302D01*
X176876788Y-99945303D01*
X176877757Y-99946116D01*
X176894177Y-99956576D01*
X176895321Y-99957109D01*
X176895323Y-99957111D01*
X176963357Y-99988835D01*
X176966456Y-99990335D01*
X177033567Y-100024040D01*
X177034704Y-100024611D01*
X177053084Y-100030998D01*
X177054321Y-100031253D01*
X177054327Y-100031256D01*
X177127862Y-100046439D01*
X177131209Y-100047181D01*
X177204279Y-100064500D01*
X177204281Y-100064500D01*
X177205505Y-100064790D01*
X177224876Y-100066769D01*
X177226140Y-100066732D01*
X177226144Y-100066733D01*
X177301110Y-100064552D01*
X177304716Y-100064500D01*
X194572268Y-100064500D01*
X194639307Y-100084185D01*
X194685062Y-100136989D01*
X194695844Y-100198740D01*
X194682829Y-100355800D01*
X194701475Y-100580823D01*
X194701475Y-100580825D01*
X194701476Y-100580829D01*
X194756907Y-100799719D01*
X194847610Y-101006501D01*
X194971111Y-101195533D01*
X195124041Y-101361660D01*
X195302229Y-101500349D01*
X195332526Y-101516745D01*
X195332528Y-101516746D01*
X195382118Y-101565966D01*
X195397225Y-101634182D01*
X195373054Y-101699738D01*
X195332528Y-101734854D01*
X195302230Y-101751250D01*
X195124040Y-101889940D01*
X194971112Y-102056066D01*
X194847609Y-102245101D01*
X194756908Y-102451877D01*
X194701475Y-102670776D01*
X194682829Y-102895800D01*
X194701475Y-103120823D01*
X194701475Y-103120825D01*
X194701476Y-103120829D01*
X194756907Y-103339719D01*
X194847610Y-103546501D01*
X194971111Y-103735533D01*
X195124041Y-103901660D01*
X195302229Y-104040349D01*
X195434566Y-104111966D01*
X195484155Y-104161185D01*
X195499263Y-104229401D01*
X195475093Y-104294957D01*
X195427954Y-104333401D01*
X195416591Y-104338699D01*
X195351812Y-104384058D01*
X195351811Y-104384058D01*
X196022554Y-105054800D01*
X196018431Y-105054800D01*
X195924579Y-105070461D01*
X195812749Y-105130980D01*
X195726629Y-105224531D01*
X195675552Y-105340977D01*
X195669894Y-105409246D01*
X194998258Y-104737612D01*
X194952900Y-104802389D01*
X194859578Y-105002519D01*
X194802424Y-105215821D01*
X194783178Y-105435800D01*
X194802424Y-105655778D01*
X194859579Y-105869081D01*
X194952898Y-106069206D01*
X194998258Y-106133987D01*
X195665096Y-105467149D01*
X195665051Y-105467698D01*
X195696266Y-105590962D01*
X195765813Y-105697412D01*
X195866157Y-105775513D01*
X195986422Y-105816800D01*
X196022553Y-105816800D01*
X195351812Y-106487540D01*
X195416593Y-106532901D01*
X195616718Y-106626220D01*
X195830021Y-106683375D01*
X196049999Y-106702621D01*
X196269978Y-106683375D01*
X196483281Y-106626220D01*
X196683408Y-106532900D01*
X196748187Y-106487540D01*
X196077448Y-105816800D01*
X196081569Y-105816800D01*
X196175421Y-105801139D01*
X196287251Y-105740620D01*
X196373371Y-105647069D01*
X196424448Y-105530623D01*
X196430105Y-105462352D01*
X197101740Y-106133986D01*
X197147100Y-106069208D01*
X197240420Y-105869081D01*
X197297575Y-105655778D01*
X197316821Y-105435800D01*
X197297575Y-105215821D01*
X197240421Y-105002520D01*
X197147098Y-104802389D01*
X197101740Y-104737611D01*
X196434903Y-105404448D01*
X196434949Y-105403902D01*
X196403734Y-105280638D01*
X196334187Y-105174188D01*
X196233843Y-105096087D01*
X196113578Y-105054800D01*
X196077447Y-105054800D01*
X196748187Y-104384058D01*
X196683408Y-104338700D01*
X196672047Y-104333402D01*
X196619608Y-104287229D01*
X196600456Y-104220036D01*
X196620672Y-104153155D01*
X196665432Y-104111966D01*
X196797771Y-104040349D01*
X196975959Y-103901660D01*
X197128889Y-103735533D01*
X197252390Y-103546501D01*
X197343093Y-103339719D01*
X197398524Y-103120829D01*
X197417170Y-102895800D01*
X197398524Y-102670771D01*
X197343093Y-102451881D01*
X197252390Y-102245099D01*
X197128889Y-102056067D01*
X196975959Y-101889940D01*
X196797771Y-101751251D01*
X196767471Y-101734853D01*
X196717882Y-101685636D01*
X196702774Y-101617419D01*
X196726944Y-101551863D01*
X196767471Y-101516746D01*
X196797771Y-101500349D01*
X196975959Y-101361660D01*
X197128889Y-101195533D01*
X197252390Y-101006501D01*
X197343093Y-100799719D01*
X197398524Y-100580829D01*
X197417170Y-100355800D01*
X197404155Y-100198740D01*
X197418237Y-100130304D01*
X197467082Y-100080345D01*
X197527732Y-100064500D01*
X217061770Y-100064500D01*
X217128809Y-100084185D01*
X217149451Y-100100819D01*
X217310202Y-100261570D01*
X217322989Y-100276573D01*
X217333592Y-100291230D01*
X217335980Y-100294531D01*
X217370013Y-100330544D01*
X217399187Y-100381890D01*
X217412199Y-100427787D01*
X217433830Y-100501173D01*
X217434284Y-100502616D01*
X217437489Y-100512553D01*
X217462081Y-100586525D01*
X217467004Y-100600743D01*
X217467343Y-100601683D01*
X217471990Y-100614122D01*
X217502906Y-100694132D01*
X217503463Y-100695573D01*
X217503558Y-100695812D01*
X217504522Y-100697810D01*
X217505411Y-100699831D01*
X217504665Y-100698214D01*
X217510913Y-100714216D01*
X217525557Y-100741615D01*
X217527861Y-100746147D01*
X217541615Y-100774632D01*
X217551033Y-100789276D01*
X217556617Y-100799722D01*
X217604090Y-100888538D01*
X217729117Y-101040883D01*
X217881462Y-101165910D01*
X218055273Y-101258814D01*
X218243868Y-101316024D01*
X218440000Y-101335341D01*
X218636132Y-101316024D01*
X218824727Y-101258814D01*
X218998538Y-101165910D01*
X219150883Y-101040883D01*
X219275910Y-100888538D01*
X219368814Y-100714727D01*
X219426024Y-100526132D01*
X219445341Y-100330000D01*
X219426024Y-100133868D01*
X219368814Y-99945273D01*
X219275910Y-99771462D01*
X219150883Y-99619117D01*
X218998538Y-99494090D01*
X218972762Y-99480312D01*
X218824724Y-99401184D01*
X218821467Y-99400196D01*
X218805355Y-99394055D01*
X218803513Y-99393202D01*
X218799958Y-99391263D01*
X218796173Y-99389802D01*
X218796171Y-99389801D01*
X218724057Y-99361965D01*
X218711307Y-99357208D01*
X218711276Y-99357197D01*
X218711247Y-99357186D01*
X218710344Y-99356860D01*
X218696451Y-99352055D01*
X218611543Y-99323945D01*
X218610044Y-99323481D01*
X218601721Y-99320971D01*
X218532098Y-99300560D01*
X218491917Y-99289188D01*
X218440533Y-99260003D01*
X218405847Y-99227223D01*
X218405834Y-99227212D01*
X218404531Y-99225980D01*
X218363727Y-99191701D01*
X218355807Y-99184439D01*
X218319049Y-99147681D01*
X218285564Y-99086358D01*
X218290548Y-99016666D01*
X218319048Y-98972320D01*
X218371578Y-98919789D01*
X218386574Y-98907007D01*
X218404532Y-98894018D01*
X218440546Y-98859982D01*
X218491893Y-98830807D01*
X218537797Y-98817795D01*
X218592410Y-98801697D01*
X218611174Y-98796167D01*
X218612604Y-98795716D01*
X218622546Y-98792510D01*
X218696520Y-98767919D01*
X218710738Y-98762995D01*
X218711686Y-98762654D01*
X218724121Y-98758009D01*
X218775685Y-98738084D01*
X218805573Y-98726536D01*
X218805812Y-98726441D01*
X218807812Y-98725474D01*
X218809835Y-98724586D01*
X218808173Y-98725352D01*
X218824203Y-98719093D01*
X218824722Y-98718815D01*
X218824727Y-98718814D01*
X218851658Y-98704418D01*
X218856108Y-98702155D01*
X218883702Y-98688833D01*
X218883707Y-98688828D01*
X218884637Y-98688380D01*
X218899258Y-98678975D01*
X218998538Y-98625910D01*
X219150883Y-98500883D01*
X219275910Y-98348538D01*
X219368814Y-98174727D01*
X219426024Y-97986132D01*
X219445341Y-97790000D01*
X219426024Y-97593868D01*
X219368814Y-97405273D01*
X219275910Y-97231462D01*
X219150883Y-97079117D01*
X218998538Y-96954090D01*
X218976091Y-96942092D01*
X218824726Y-96861185D01*
X218636133Y-96803976D01*
X218538065Y-96794317D01*
X218440000Y-96784659D01*
X218439999Y-96784659D01*
X218259886Y-96802398D01*
X218191240Y-96789379D01*
X218140530Y-96741314D01*
X218123855Y-96673463D01*
X218146511Y-96607368D01*
X218160044Y-96591321D01*
X218371578Y-96379787D01*
X218386574Y-96367007D01*
X218404532Y-96354018D01*
X218440546Y-96319982D01*
X218491893Y-96290807D01*
X218537797Y-96277795D01*
X218592410Y-96261697D01*
X218611174Y-96256167D01*
X218612604Y-96255716D01*
X218622546Y-96252510D01*
X218696520Y-96227919D01*
X218710738Y-96222995D01*
X218711686Y-96222654D01*
X218724121Y-96218009D01*
X218775685Y-96198084D01*
X218805573Y-96186536D01*
X218805812Y-96186441D01*
X218807812Y-96185474D01*
X218809835Y-96184586D01*
X218808173Y-96185352D01*
X218824203Y-96179093D01*
X218824722Y-96178815D01*
X218824727Y-96178814D01*
X218851658Y-96164418D01*
X218856108Y-96162155D01*
X218883702Y-96148833D01*
X218883707Y-96148828D01*
X218884637Y-96148380D01*
X218899258Y-96138975D01*
X218998538Y-96085910D01*
X219150883Y-95960883D01*
X219275910Y-95808538D01*
X219368814Y-95634727D01*
X219426024Y-95446132D01*
X219445341Y-95250000D01*
X219426024Y-95053868D01*
X219368814Y-94865273D01*
X219275910Y-94691462D01*
X219270308Y-94684636D01*
X219242995Y-94620331D01*
X219254784Y-94551463D01*
X219278477Y-94518294D01*
X220183374Y-93613396D01*
X220244695Y-93579913D01*
X220314386Y-93584897D01*
X220359571Y-93614247D01*
X220388106Y-93643338D01*
X220394151Y-93649502D01*
X220395047Y-93650386D01*
X220412079Y-93667037D01*
X220413007Y-93667917D01*
X220412793Y-93667707D01*
X220413750Y-93668576D01*
X220431861Y-93684855D01*
X220432870Y-93685734D01*
X220517097Y-93758305D01*
X220518550Y-93759500D01*
X220545800Y-93781552D01*
X220547311Y-93782721D01*
X220546932Y-93782413D01*
X220548434Y-93783502D01*
X220576771Y-93803714D01*
X220578332Y-93804776D01*
X220683505Y-93875131D01*
X220685244Y-93876232D01*
X220717813Y-93896465D01*
X220719605Y-93897518D01*
X220719166Y-93897245D01*
X220720980Y-93898231D01*
X220724597Y-93900139D01*
X220724718Y-93900203D01*
X220774628Y-93949096D01*
X220790182Y-94017213D01*
X220766440Y-94082925D01*
X220725432Y-94118694D01*
X220702230Y-94131250D01*
X220524040Y-94269940D01*
X220382366Y-94423840D01*
X220371111Y-94436067D01*
X220295719Y-94551463D01*
X220247609Y-94625101D01*
X220156908Y-94831877D01*
X220101475Y-95050776D01*
X220082829Y-95275799D01*
X220101475Y-95500823D01*
X220101475Y-95500825D01*
X220101476Y-95500829D01*
X220156907Y-95719719D01*
X220247610Y-95926501D01*
X220371111Y-96115533D01*
X220524041Y-96281660D01*
X220702229Y-96420349D01*
X220732522Y-96436743D01*
X220732528Y-96436746D01*
X220782118Y-96485966D01*
X220797225Y-96554182D01*
X220773054Y-96619738D01*
X220732528Y-96654854D01*
X220702230Y-96671250D01*
X220524040Y-96809940D01*
X220391343Y-96954089D01*
X220371111Y-96976067D01*
X220303785Y-97079117D01*
X220247609Y-97165101D01*
X220156908Y-97371877D01*
X220156906Y-97371881D01*
X220156907Y-97371881D01*
X220101595Y-97590304D01*
X220101475Y-97590776D01*
X220082829Y-97815799D01*
X220101475Y-98040823D01*
X220101475Y-98040825D01*
X220101476Y-98040829D01*
X220156907Y-98259719D01*
X220247610Y-98466501D01*
X220371111Y-98655533D01*
X220524041Y-98821660D01*
X220702229Y-98960349D01*
X220732526Y-98976745D01*
X220732528Y-98976746D01*
X220782118Y-99025966D01*
X220797225Y-99094182D01*
X220773054Y-99159738D01*
X220732528Y-99194854D01*
X220702230Y-99211250D01*
X220524040Y-99349940D01*
X220371112Y-99516066D01*
X220247609Y-99705101D01*
X220156908Y-99911877D01*
X220156906Y-99911881D01*
X220156907Y-99911881D01*
X220101595Y-100130304D01*
X220101475Y-100130776D01*
X220082829Y-100355800D01*
X220101475Y-100580823D01*
X220101475Y-100580825D01*
X220101476Y-100580829D01*
X220156907Y-100799719D01*
X220247610Y-101006501D01*
X220371111Y-101195533D01*
X220524041Y-101361660D01*
X220702229Y-101500349D01*
X220732526Y-101516745D01*
X220732528Y-101516746D01*
X220782118Y-101565966D01*
X220797225Y-101634182D01*
X220773054Y-101699738D01*
X220732528Y-101734854D01*
X220702230Y-101751250D01*
X220524040Y-101889940D01*
X220371112Y-102056066D01*
X220247609Y-102245101D01*
X220156908Y-102451877D01*
X220101475Y-102670776D01*
X220082829Y-102895800D01*
X220101475Y-103120823D01*
X220101475Y-103120825D01*
X220101476Y-103120829D01*
X220156907Y-103339719D01*
X220247610Y-103546501D01*
X220371111Y-103735533D01*
X220524041Y-103901660D01*
X220702229Y-104040349D01*
X220732525Y-104056744D01*
X220782117Y-104105963D01*
X220797226Y-104174179D01*
X220773055Y-104239735D01*
X220732530Y-104274852D01*
X220702230Y-104291250D01*
X220524040Y-104429940D01*
X220371112Y-104596066D01*
X220247609Y-104785101D01*
X220156908Y-104991877D01*
X220101475Y-105210776D01*
X220082829Y-105435800D01*
X220101475Y-105660823D01*
X220101475Y-105660825D01*
X220101476Y-105660829D01*
X220156907Y-105879719D01*
X220247610Y-106086501D01*
X220371111Y-106275533D01*
X220524041Y-106441660D01*
X220702229Y-106580349D01*
X220900814Y-106687818D01*
X221114380Y-106761135D01*
X221337100Y-106798300D01*
X221562900Y-106798300D01*
X221785620Y-106761135D01*
X221999186Y-106687818D01*
X222197771Y-106580349D01*
X222375959Y-106441660D01*
X222528889Y-106275533D01*
X222652390Y-106086501D01*
X222743093Y-105879719D01*
X222798524Y-105660829D01*
X222817170Y-105435800D01*
X222798524Y-105210771D01*
X222743093Y-104991881D01*
X222652390Y-104785099D01*
X222528889Y-104596067D01*
X222375959Y-104429940D01*
X222197771Y-104291251D01*
X222167471Y-104274853D01*
X222117882Y-104225636D01*
X222102774Y-104157419D01*
X222126944Y-104091863D01*
X222167471Y-104056746D01*
X222197771Y-104040349D01*
X222375959Y-103901660D01*
X222528889Y-103735533D01*
X222652390Y-103546501D01*
X222743093Y-103339719D01*
X222798524Y-103120829D01*
X222817170Y-102895800D01*
X222798524Y-102670771D01*
X222743093Y-102451881D01*
X222652390Y-102245099D01*
X222528889Y-102056067D01*
X222375959Y-101889940D01*
X222197771Y-101751251D01*
X222167471Y-101734853D01*
X222117882Y-101685636D01*
X222102774Y-101617419D01*
X222126944Y-101551863D01*
X222167471Y-101516746D01*
X222197771Y-101500349D01*
X222375959Y-101361660D01*
X222528889Y-101195533D01*
X222652390Y-101006501D01*
X222743093Y-100799719D01*
X222798524Y-100580829D01*
X222817170Y-100355800D01*
X222798524Y-100130771D01*
X222743093Y-99911881D01*
X222652390Y-99705099D01*
X222528889Y-99516067D01*
X222375959Y-99349940D01*
X222197771Y-99211251D01*
X222167471Y-99194853D01*
X222117882Y-99145636D01*
X222102774Y-99077419D01*
X222126944Y-99011863D01*
X222167471Y-98976746D01*
X222197771Y-98960349D01*
X222375959Y-98821660D01*
X222528889Y-98655533D01*
X222652390Y-98466501D01*
X222743093Y-98259719D01*
X222798524Y-98040829D01*
X222817170Y-97815800D01*
X222798524Y-97590771D01*
X222743093Y-97371881D01*
X222652390Y-97165099D01*
X222528889Y-96976067D01*
X222375959Y-96809940D01*
X222197771Y-96671251D01*
X222167469Y-96654852D01*
X222117881Y-96605632D01*
X222102774Y-96537415D01*
X222126946Y-96471860D01*
X222167470Y-96436746D01*
X222197771Y-96420349D01*
X222375959Y-96281660D01*
X222528889Y-96115533D01*
X222652390Y-95926501D01*
X222743093Y-95719719D01*
X222798524Y-95500829D01*
X222817170Y-95275800D01*
X222798524Y-95050771D01*
X222743093Y-94831881D01*
X222652390Y-94625099D01*
X222528889Y-94436067D01*
X222375959Y-94269940D01*
X222197771Y-94131251D01*
X222167471Y-94114853D01*
X222117882Y-94065636D01*
X222102774Y-93997419D01*
X222126944Y-93931863D01*
X222167471Y-93896746D01*
X222197771Y-93880349D01*
X222375959Y-93741660D01*
X222528889Y-93575533D01*
X222652390Y-93386501D01*
X222743093Y-93179719D01*
X222798524Y-92960829D01*
X222817170Y-92735800D01*
X222798524Y-92510771D01*
X222743093Y-92291881D01*
X222652390Y-92085099D01*
X222528889Y-91896067D01*
X222375959Y-91729940D01*
X222197771Y-91591251D01*
X222167469Y-91574852D01*
X222117881Y-91525632D01*
X222102774Y-91457415D01*
X222126946Y-91391860D01*
X222167470Y-91356746D01*
X222197771Y-91340349D01*
X222375959Y-91201660D01*
X222528889Y-91035533D01*
X222652390Y-90846501D01*
X222743093Y-90639719D01*
X222798524Y-90420829D01*
X222817170Y-90195800D01*
X222798524Y-89970771D01*
X222743093Y-89751881D01*
X222652390Y-89545099D01*
X222528889Y-89356067D01*
X222375959Y-89189940D01*
X222197771Y-89051251D01*
X222167471Y-89034853D01*
X222117882Y-88985636D01*
X222102774Y-88917419D01*
X222126944Y-88851863D01*
X222167471Y-88816746D01*
X222197771Y-88800349D01*
X222375959Y-88661660D01*
X222528889Y-88495533D01*
X222652390Y-88306501D01*
X222743093Y-88099719D01*
X222798524Y-87880829D01*
X222817170Y-87655800D01*
X222798524Y-87430771D01*
X222743093Y-87211881D01*
X222652390Y-87005099D01*
X222528889Y-86816067D01*
X222375959Y-86649940D01*
X222197771Y-86511251D01*
X222167469Y-86494852D01*
X222117881Y-86445632D01*
X222102774Y-86377415D01*
X222126946Y-86311860D01*
X222167470Y-86276746D01*
X222197771Y-86260349D01*
X222375959Y-86121660D01*
X222528889Y-85955533D01*
X222652390Y-85766501D01*
X222743093Y-85559719D01*
X222798524Y-85340829D01*
X222817170Y-85115800D01*
X222798524Y-84890771D01*
X222743093Y-84671881D01*
X222652390Y-84465099D01*
X222528889Y-84276067D01*
X222375959Y-84109940D01*
X222197771Y-83971251D01*
X222167471Y-83954853D01*
X222117882Y-83905636D01*
X222102774Y-83837419D01*
X222126944Y-83771863D01*
X222167471Y-83736746D01*
X222197771Y-83720349D01*
X222375959Y-83581660D01*
X222528889Y-83415533D01*
X222652390Y-83226501D01*
X222743093Y-83019719D01*
X222798524Y-82800829D01*
X222817170Y-82575800D01*
X222798524Y-82350771D01*
X222743093Y-82131881D01*
X222652390Y-81925099D01*
X222528889Y-81736067D01*
X222375959Y-81569940D01*
X222197771Y-81431251D01*
X222167471Y-81414853D01*
X222117882Y-81365636D01*
X222102774Y-81297419D01*
X222126944Y-81231863D01*
X222167471Y-81196746D01*
X222197771Y-81180349D01*
X222375959Y-81041660D01*
X222528889Y-80875533D01*
X222652390Y-80686501D01*
X222743093Y-80479719D01*
X222798524Y-80260829D01*
X222817170Y-80035800D01*
X222798524Y-79810771D01*
X222743093Y-79591881D01*
X222652390Y-79385099D01*
X222528889Y-79196067D01*
X222375959Y-79029940D01*
X222197771Y-78891251D01*
X222167471Y-78874853D01*
X222117882Y-78825636D01*
X222102774Y-78757419D01*
X222126944Y-78691863D01*
X222167471Y-78656746D01*
X222197771Y-78640349D01*
X222375959Y-78501660D01*
X222528889Y-78335533D01*
X222652390Y-78146501D01*
X222743093Y-77939719D01*
X222798524Y-77720829D01*
X222817170Y-77495800D01*
X222798524Y-77270771D01*
X222743093Y-77051881D01*
X222652390Y-76845099D01*
X222528889Y-76656067D01*
X222375959Y-76489940D01*
X222197771Y-76351251D01*
X222167469Y-76334852D01*
X222117881Y-76285632D01*
X222102774Y-76217415D01*
X222126946Y-76151860D01*
X222167470Y-76116746D01*
X222197771Y-76100349D01*
X222375959Y-75961660D01*
X222528889Y-75795533D01*
X222652390Y-75606501D01*
X222743093Y-75399719D01*
X222798524Y-75180829D01*
X222817170Y-74955800D01*
X222798524Y-74730771D01*
X222743093Y-74511881D01*
X222652390Y-74305099D01*
X222528889Y-74116067D01*
X222375959Y-73949940D01*
X222197771Y-73811251D01*
X222167471Y-73794853D01*
X222117882Y-73745636D01*
X222102774Y-73677419D01*
X222126944Y-73611863D01*
X222167471Y-73576746D01*
X222197771Y-73560349D01*
X222375959Y-73421660D01*
X222528889Y-73255533D01*
X222652390Y-73066501D01*
X222743093Y-72859719D01*
X222798524Y-72640829D01*
X222817170Y-72415800D01*
X222798524Y-72190771D01*
X222743093Y-71971881D01*
X222652390Y-71765099D01*
X222528889Y-71576067D01*
X222375959Y-71409940D01*
X222197771Y-71271251D01*
X222167471Y-71254853D01*
X222117882Y-71205636D01*
X222102774Y-71137419D01*
X222126944Y-71071863D01*
X222167471Y-71036746D01*
X222197771Y-71020349D01*
X222375959Y-70881660D01*
X222528889Y-70715533D01*
X222652390Y-70526501D01*
X222743093Y-70319719D01*
X222798524Y-70100829D01*
X222817170Y-69875800D01*
X222798524Y-69650771D01*
X222743093Y-69431881D01*
X222652390Y-69225099D01*
X222528889Y-69036067D01*
X222375959Y-68869940D01*
X222197771Y-68731251D01*
X221999186Y-68623782D01*
X221999182Y-68623780D01*
X221999181Y-68623780D01*
X221785621Y-68550465D01*
X221562900Y-68513300D01*
X221337100Y-68513300D01*
X221114378Y-68550465D01*
X220900818Y-68623780D01*
X220702227Y-68731252D01*
X220524040Y-68869940D01*
X220443862Y-68957038D01*
X220371111Y-69036067D01*
X220247699Y-69224963D01*
X220247609Y-69225101D01*
X220156908Y-69431877D01*
X220156906Y-69431881D01*
X220156907Y-69431881D01*
X220101765Y-69649632D01*
X220101475Y-69650776D01*
X220082829Y-69875799D01*
X220101475Y-70100823D01*
X220101475Y-70100825D01*
X220101476Y-70100829D01*
X220150386Y-70293967D01*
X220156908Y-70319722D01*
X220190154Y-70395514D01*
X220247610Y-70526501D01*
X220371111Y-70715533D01*
X220524041Y-70881660D01*
X220702229Y-71020349D01*
X220732526Y-71036745D01*
X220732528Y-71036746D01*
X220782118Y-71085966D01*
X220797225Y-71154182D01*
X220773054Y-71219738D01*
X220732528Y-71254854D01*
X220702230Y-71271250D01*
X220524040Y-71409940D01*
X220454390Y-71485601D01*
X220371111Y-71576067D01*
X220247610Y-71765099D01*
X220247609Y-71765101D01*
X220156908Y-71971877D01*
X220101475Y-72190776D01*
X220082829Y-72415799D01*
X220101475Y-72640823D01*
X220101475Y-72640825D01*
X220101476Y-72640829D01*
X220151947Y-72840132D01*
X220156908Y-72859722D01*
X220175205Y-72901434D01*
X220247610Y-73066501D01*
X220371111Y-73255533D01*
X220524041Y-73421660D01*
X220702229Y-73560349D01*
X220727090Y-73573803D01*
X220732528Y-73576746D01*
X220782118Y-73625966D01*
X220797225Y-73694182D01*
X220773054Y-73759738D01*
X220732528Y-73794854D01*
X220702230Y-73811250D01*
X220524040Y-73949940D01*
X220426758Y-74055618D01*
X220371111Y-74116067D01*
X220247610Y-74305099D01*
X220247609Y-74305101D01*
X220156908Y-74511877D01*
X220101475Y-74730776D01*
X220082829Y-74955800D01*
X220101475Y-75180823D01*
X220101475Y-75180825D01*
X220101476Y-75180829D01*
X220145017Y-75352767D01*
X220156908Y-75399722D01*
X220192544Y-75480964D01*
X220247610Y-75606501D01*
X220371111Y-75795533D01*
X220524041Y-75961660D01*
X220702229Y-76100349D01*
X220732522Y-76116743D01*
X220732528Y-76116746D01*
X220782118Y-76165966D01*
X220797225Y-76234182D01*
X220773054Y-76299738D01*
X220732528Y-76334854D01*
X220702230Y-76351250D01*
X220524040Y-76489940D01*
X220403073Y-76621347D01*
X220371111Y-76656067D01*
X220261457Y-76823905D01*
X220247609Y-76845101D01*
X220156908Y-77051877D01*
X220156906Y-77051881D01*
X220156907Y-77051881D01*
X220102427Y-77267018D01*
X220101475Y-77270776D01*
X220082829Y-77495800D01*
X220101475Y-77720823D01*
X220101475Y-77720825D01*
X220101476Y-77720829D01*
X220156907Y-77939719D01*
X220156908Y-77939722D01*
X220199081Y-78035866D01*
X220247610Y-78146501D01*
X220371111Y-78335533D01*
X220500610Y-78476207D01*
X220523420Y-78500986D01*
X220524041Y-78501660D01*
X220702229Y-78640349D01*
X220732526Y-78656745D01*
X220732528Y-78656746D01*
X220782118Y-78705966D01*
X220797225Y-78774182D01*
X220773054Y-78839738D01*
X220732528Y-78874854D01*
X220702230Y-78891250D01*
X220524040Y-79029940D01*
X220396993Y-79167951D01*
X220371111Y-79196067D01*
X220257269Y-79370315D01*
X220247609Y-79385101D01*
X220156908Y-79591877D01*
X220101475Y-79810776D01*
X220082829Y-80035800D01*
X220101475Y-80260823D01*
X220101475Y-80260825D01*
X220101476Y-80260829D01*
X220156907Y-80479719D01*
X220156908Y-80479722D01*
X220202258Y-80583110D01*
X220247610Y-80686501D01*
X220371111Y-80875533D01*
X220524041Y-81041660D01*
X220702229Y-81180349D01*
X220732009Y-81196465D01*
X220732528Y-81196746D01*
X220782118Y-81245966D01*
X220797225Y-81314182D01*
X220773054Y-81379738D01*
X220732528Y-81414854D01*
X220702230Y-81431250D01*
X220524040Y-81569940D01*
X220428943Y-81673244D01*
X220371111Y-81736067D01*
X220259342Y-81907142D01*
X220247609Y-81925101D01*
X220156908Y-82131877D01*
X220101475Y-82350776D01*
X220082829Y-82575799D01*
X220101475Y-82800823D01*
X220101475Y-82800825D01*
X220101476Y-82800829D01*
X220156907Y-83019719D01*
X220156908Y-83019722D01*
X220202258Y-83123110D01*
X220247610Y-83226501D01*
X220371111Y-83415533D01*
X220524041Y-83581660D01*
X220702229Y-83720349D01*
X220732526Y-83736745D01*
X220732528Y-83736746D01*
X220782118Y-83785966D01*
X220797225Y-83854182D01*
X220773054Y-83919738D01*
X220732528Y-83954854D01*
X220702230Y-83971250D01*
X220524040Y-84109940D01*
X220415743Y-84227583D01*
X220371111Y-84276067D01*
X220247610Y-84465099D01*
X220247609Y-84465101D01*
X220156908Y-84671877D01*
X220101475Y-84890776D01*
X220082829Y-85115800D01*
X220101475Y-85340823D01*
X220101475Y-85340825D01*
X220101476Y-85340829D01*
X220156907Y-85559719D01*
X220247610Y-85766501D01*
X220371111Y-85955533D01*
X220524041Y-86121660D01*
X220702229Y-86260349D01*
X220725429Y-86272904D01*
X220775019Y-86322122D01*
X220790127Y-86390338D01*
X220765957Y-86455894D01*
X220724728Y-86491389D01*
X220721970Y-86492858D01*
X220719156Y-86494358D01*
X220719088Y-86494396D01*
X220717343Y-86495383D01*
X220717829Y-86495123D01*
X220716064Y-86496200D01*
X220683522Y-86516456D01*
X220681806Y-86517584D01*
X220576768Y-86587885D01*
X220575211Y-86588979D01*
X220546890Y-86609216D01*
X220545394Y-86610336D01*
X220545770Y-86610068D01*
X220544286Y-86611251D01*
X220517102Y-86633288D01*
X220515661Y-86634510D01*
X220431853Y-86706749D01*
X220430874Y-86707621D01*
X220412616Y-86724055D01*
X220411641Y-86724960D01*
X220411910Y-86724718D01*
X220410998Y-86725601D01*
X220394148Y-86742098D01*
X220393257Y-86742997D01*
X220322431Y-86815212D01*
X220313379Y-86824642D01*
X220306381Y-86832089D01*
X220280608Y-86859519D01*
X220220360Y-86894885D01*
X220198347Y-86898331D01*
X220160945Y-86900776D01*
X220160923Y-86900777D01*
X220159439Y-86900875D01*
X220157936Y-86901047D01*
X220157933Y-86901048D01*
X220127993Y-86904489D01*
X220113835Y-86905300D01*
X210954030Y-86905300D01*
X210886991Y-86885615D01*
X210866349Y-86868981D01*
X197249096Y-73251728D01*
X197215611Y-73190405D01*
X197220595Y-73120713D01*
X197232965Y-73096231D01*
X197252390Y-73066501D01*
X197343093Y-72859719D01*
X197398524Y-72640829D01*
X197417170Y-72415800D01*
X197398524Y-72190771D01*
X197343093Y-71971881D01*
X197252390Y-71765099D01*
X197128889Y-71576067D01*
X196975959Y-71409940D01*
X196975955Y-71409937D01*
X196969516Y-71402942D01*
X196938594Y-71340287D01*
X196946454Y-71270861D01*
X196990601Y-71216706D01*
X197013292Y-71204398D01*
X197114841Y-71162336D01*
X197240282Y-71066082D01*
X197336536Y-70940641D01*
X197397044Y-70794562D01*
X197412500Y-70677161D01*
X197412499Y-69074440D01*
X197397044Y-68957038D01*
X197336536Y-68810959D01*
X197275374Y-68731251D01*
X197240282Y-68685517D01*
X197114840Y-68589263D01*
X196968762Y-68528756D01*
X196855380Y-68513829D01*
X196855378Y-68513828D01*
X196851361Y-68513300D01*
X196847307Y-68513300D01*
X195252694Y-68513300D01*
X195252678Y-68513300D01*
X195248640Y-68513301D01*
X195244627Y-68513829D01*
X195244615Y-68513830D01*
X195131239Y-68528755D01*
X194985158Y-68589264D01*
X194859717Y-68685517D01*
X194763463Y-68810959D01*
X194702956Y-68957037D01*
X194694562Y-69020800D01*
X194687500Y-69074439D01*
X194687500Y-69078491D01*
X194687500Y-69078492D01*
X194687500Y-70673105D01*
X194687500Y-70673120D01*
X194687501Y-70677160D01*
X194688029Y-70681173D01*
X194688030Y-70681184D01*
X194702955Y-70794560D01*
X194763464Y-70940641D01*
X194859717Y-71066082D01*
X194885631Y-71085966D01*
X194985159Y-71162336D01*
X195069248Y-71197166D01*
X195123651Y-71241006D01*
X195145716Y-71307300D01*
X195128437Y-71375000D01*
X195102742Y-71405661D01*
X195031854Y-71466748D01*
X195030874Y-71467621D01*
X195012616Y-71484055D01*
X195011641Y-71484960D01*
X195011910Y-71484718D01*
X195010998Y-71485601D01*
X194994148Y-71502098D01*
X194993257Y-71502997D01*
X194922431Y-71575212D01*
X194913379Y-71584642D01*
X194906381Y-71592089D01*
X194880608Y-71619519D01*
X194820360Y-71654885D01*
X194798347Y-71658331D01*
X194760945Y-71660776D01*
X194760923Y-71660777D01*
X194759439Y-71660875D01*
X194757936Y-71661047D01*
X194757933Y-71661048D01*
X194727993Y-71664489D01*
X194713835Y-71665300D01*
X163481149Y-71665300D01*
X163414110Y-71645615D01*
X163393468Y-71628981D01*
X158524647Y-66760159D01*
X158491162Y-66698836D01*
X158488800Y-66683289D01*
X158485970Y-66650951D01*
X158485499Y-66640131D01*
X158485500Y-66634616D01*
X158481898Y-66603803D01*
X158481534Y-66600240D01*
X158474888Y-66524267D01*
X158470674Y-66505260D01*
X158464551Y-66488437D01*
X158444571Y-66433542D01*
X158443424Y-66430242D01*
X158419814Y-66358990D01*
X158419812Y-66358987D01*
X158419415Y-66357788D01*
X158410929Y-66340261D01*
X158410237Y-66339209D01*
X158410237Y-66339208D01*
X158369025Y-66276549D01*
X158367106Y-66273537D01*
X158327048Y-66208592D01*
X158314750Y-66193497D01*
X158259290Y-66141173D01*
X158256703Y-66138660D01*
X157417403Y-65299360D01*
X157405621Y-65285727D01*
X157399868Y-65278000D01*
X157391285Y-65266470D01*
X157353342Y-65234631D01*
X157345366Y-65227323D01*
X157344004Y-65225961D01*
X157341452Y-65223409D01*
X157317119Y-65204169D01*
X157314322Y-65201890D01*
X157255926Y-65152890D01*
X157239496Y-65142422D01*
X157170366Y-65110186D01*
X157167122Y-65108615D01*
X157098981Y-65074394D01*
X157080578Y-65067997D01*
X157005886Y-65052574D01*
X157002367Y-65051794D01*
X156928165Y-65034208D01*
X156908796Y-65032229D01*
X156832544Y-65034448D01*
X156828938Y-65034500D01*
X155642029Y-65034500D01*
X155624059Y-65033191D01*
X155610176Y-65031157D01*
X155600300Y-65029711D01*
X155600299Y-65029711D01*
X155550954Y-65034028D01*
X155540147Y-65034500D01*
X155534614Y-65034500D01*
X155531053Y-65034916D01*
X155531038Y-65034917D01*
X155503824Y-65038098D01*
X155500239Y-65038464D01*
X155424284Y-65045109D01*
X155405244Y-65049330D01*
X155333555Y-65075421D01*
X155330154Y-65076603D01*
X155257799Y-65100579D01*
X155237722Y-65110303D01*
X155235787Y-65111008D01*
X155193338Y-65118500D01*
X139870813Y-65118500D01*
X139803774Y-65098815D01*
X139758019Y-65046011D01*
X139749424Y-65019811D01*
X139742848Y-64988273D01*
X139742344Y-64986142D01*
X139742456Y-64986678D01*
X139741881Y-64984574D01*
X139730908Y-64945884D01*
X139730264Y-64943816D01*
X139706877Y-64871090D01*
X139705158Y-64865253D01*
X139700346Y-64847295D01*
X139698209Y-64842713D01*
X139694690Y-64834126D01*
X139695212Y-64835460D01*
X139693982Y-64832504D01*
X139693602Y-64831398D01*
X139693275Y-64830506D01*
X139693145Y-64830227D01*
X139693179Y-64830227D01*
X139693275Y-64830506D01*
X139693309Y-64830593D01*
X139693179Y-64830227D01*
X139693145Y-64830227D01*
X139649342Y-64736496D01*
X139649341Y-64736495D01*
X139644750Y-64726670D01*
X139641930Y-64722020D01*
X139607581Y-64648357D01*
X139607579Y-64648354D01*
X139481674Y-64468543D01*
X139326457Y-64313326D01*
X139146646Y-64187421D01*
X139054921Y-64144649D01*
X138947704Y-64094653D01*
X138735671Y-64037838D01*
X138517000Y-64018707D01*
X138298328Y-64037838D01*
X138086295Y-64094653D01*
X137901881Y-64180647D01*
X137887354Y-64187421D01*
X137707543Y-64313326D01*
X137707539Y-64313329D01*
X137552329Y-64468539D01*
X137552326Y-64468542D01*
X137552326Y-64468543D01*
X137474647Y-64579481D01*
X137426420Y-64648356D01*
X137333653Y-64847295D01*
X137276838Y-65059328D01*
X137257707Y-65278000D01*
X137269141Y-65408693D01*
X137255374Y-65477193D01*
X137206759Y-65527376D01*
X137145613Y-65543500D01*
X123922666Y-65543500D01*
X123904696Y-65542191D01*
X123890813Y-65540157D01*
X123880937Y-65538711D01*
X123880936Y-65538711D01*
X123831594Y-65543028D01*
X123820787Y-65543500D01*
X123815251Y-65543500D01*
X123811690Y-65543916D01*
X123811675Y-65543917D01*
X123784444Y-65547100D01*
X123780860Y-65547466D01*
X123704910Y-65554111D01*
X123685886Y-65558328D01*
X123614211Y-65584415D01*
X123610809Y-65585597D01*
X123538430Y-65609582D01*
X123520889Y-65618074D01*
X123457157Y-65659991D01*
X123454116Y-65661928D01*
X123389240Y-65701943D01*
X123374125Y-65714256D01*
X123321792Y-65769725D01*
X123319280Y-65772311D01*
X122060411Y-67031181D01*
X121999088Y-67064666D01*
X121972730Y-67067500D01*
X121695830Y-67067500D01*
X121672885Y-67065359D01*
X121663348Y-67063563D01*
X121663343Y-67063562D01*
X121659358Y-67062812D01*
X121655312Y-67062588D01*
X121655301Y-67062587D01*
X121612763Y-67060236D01*
X121546912Y-67036881D01*
X121537181Y-67029063D01*
X121506217Y-67001512D01*
X121437860Y-66941722D01*
X121422676Y-66928877D01*
X121422666Y-66928869D01*
X121422608Y-66928820D01*
X121422020Y-66928339D01*
X121406833Y-66916316D01*
X121406829Y-66916313D01*
X121406761Y-66916259D01*
X121326763Y-66854984D01*
X121325531Y-66854077D01*
X121302529Y-66837358D01*
X121301291Y-66836492D01*
X121301580Y-66836703D01*
X121300319Y-66835867D01*
X121276750Y-66820448D01*
X121275450Y-66819631D01*
X121178123Y-66759285D01*
X121176662Y-66758420D01*
X121149414Y-66742555D01*
X121147943Y-66741739D01*
X121148287Y-66741939D01*
X121146774Y-66741153D01*
X121118680Y-66726797D01*
X121117145Y-66726052D01*
X121005188Y-66672632D01*
X120996302Y-66668526D01*
X120943738Y-66622514D01*
X120924391Y-66555377D01*
X120944412Y-66488437D01*
X120997445Y-66442948D01*
X121048389Y-66432000D01*
X121181518Y-66432000D01*
X121188132Y-66431645D01*
X121244371Y-66425599D01*
X121379089Y-66375352D01*
X121494188Y-66289188D01*
X121580352Y-66174089D01*
X121630599Y-66039371D01*
X121636645Y-65983132D01*
X121637000Y-65976518D01*
X121637000Y-65528000D01*
X120798686Y-65528000D01*
X120810641Y-65516045D01*
X120868165Y-65403148D01*
X120887986Y-65278000D01*
X120868165Y-65152852D01*
X120810641Y-65039955D01*
X120798686Y-65028000D01*
X121637000Y-65028000D01*
X121637000Y-64579481D01*
X121636645Y-64572867D01*
X121630599Y-64516628D01*
X121580352Y-64381910D01*
X121494188Y-64266811D01*
X121379089Y-64180647D01*
X121244371Y-64130400D01*
X121188132Y-64124354D01*
X121181518Y-64124000D01*
X120733000Y-64124000D01*
X120733000Y-64962314D01*
X120721045Y-64950359D01*
X120608148Y-64892835D01*
X120514481Y-64878000D01*
X120451519Y-64878000D01*
X120357852Y-64892835D01*
X120244955Y-64950359D01*
X120233000Y-64962314D01*
X120233000Y-64124000D01*
X119784482Y-64124000D01*
X119777867Y-64124354D01*
X119721628Y-64130400D01*
X119586910Y-64180647D01*
X119471811Y-64266811D01*
X119385647Y-64381910D01*
X119335400Y-64516628D01*
X119329354Y-64572867D01*
X119329000Y-64579481D01*
X119329000Y-65028000D01*
X120167314Y-65028000D01*
X120155359Y-65039955D01*
X120097835Y-65152852D01*
X120078014Y-65278000D01*
X120097835Y-65403148D01*
X120155359Y-65516045D01*
X120167314Y-65528000D01*
X119329000Y-65528000D01*
X119329000Y-65976518D01*
X119329354Y-65983132D01*
X119335400Y-66039371D01*
X119385647Y-66174089D01*
X119471811Y-66289188D01*
X119586910Y-66375352D01*
X119721628Y-66425599D01*
X119777867Y-66431645D01*
X119784482Y-66432000D01*
X119927559Y-66432000D01*
X119994598Y-66451685D01*
X120040353Y-66504489D01*
X120050297Y-66573647D01*
X120021272Y-66637203D01*
X119979963Y-66668382D01*
X119853354Y-66727421D01*
X119697283Y-66836703D01*
X119673539Y-66853329D01*
X119518329Y-67008539D01*
X119518326Y-67008542D01*
X119518326Y-67008543D01*
X119479029Y-67064666D01*
X119392420Y-67188356D01*
X119299653Y-67387295D01*
X119242838Y-67599328D01*
X119223707Y-67818000D01*
X119242838Y-68036671D01*
X119242839Y-68036674D01*
X119299653Y-68248703D01*
X119392421Y-68447646D01*
X119518326Y-68627457D01*
X119673543Y-68782674D01*
X119853354Y-68908579D01*
X119853357Y-68908581D01*
X119994997Y-68974628D01*
X120047437Y-69020800D01*
X120066589Y-69087993D01*
X120046373Y-69154875D01*
X119996235Y-69198807D01*
X119933488Y-69228913D01*
X119925317Y-69233862D01*
X119853357Y-69267419D01*
X119853354Y-69267420D01*
X119853354Y-69267421D01*
X119674749Y-69392482D01*
X119673539Y-69393329D01*
X119518329Y-69548539D01*
X119518326Y-69548542D01*
X119518326Y-69548543D01*
X119420593Y-69688121D01*
X119392420Y-69728356D01*
X119299653Y-69927295D01*
X119242838Y-70139328D01*
X119223707Y-70358000D01*
X119242838Y-70576671D01*
X119296217Y-70775882D01*
X119299653Y-70788703D01*
X119392421Y-70987646D01*
X119518326Y-71167457D01*
X119673543Y-71322674D01*
X119853354Y-71448579D01*
X119964022Y-71500184D01*
X119997120Y-71515618D01*
X120049559Y-71561790D01*
X120068711Y-71628984D01*
X120048495Y-71695865D01*
X119997120Y-71740382D01*
X119902429Y-71784537D01*
X119853354Y-71807421D01*
X119673543Y-71933326D01*
X119673539Y-71933329D01*
X119518329Y-72088539D01*
X119518326Y-72088542D01*
X119518326Y-72088543D01*
X119446746Y-72190771D01*
X119392420Y-72268356D01*
X119299653Y-72467295D01*
X119242838Y-72679328D01*
X119223707Y-72897999D01*
X119242838Y-73116671D01*
X119299653Y-73328704D01*
X119342999Y-73421659D01*
X119392421Y-73527646D01*
X119518326Y-73707457D01*
X119673543Y-73862674D01*
X119853354Y-73988579D01*
X119964022Y-74040184D01*
X119997120Y-74055618D01*
X120049559Y-74101790D01*
X120068711Y-74168984D01*
X120048495Y-74235865D01*
X119997120Y-74280382D01*
X119944114Y-74305099D01*
X119853354Y-74347421D01*
X119735155Y-74430185D01*
X119673539Y-74473329D01*
X119518329Y-74628539D01*
X119518326Y-74628542D01*
X119518326Y-74628543D01*
X119446746Y-74730771D01*
X119392420Y-74808356D01*
X119299653Y-75007295D01*
X119242838Y-75219328D01*
X119223707Y-75437999D01*
X119242838Y-75656671D01*
X119299653Y-75868704D01*
X119323105Y-75918996D01*
X119392421Y-76067646D01*
X119518326Y-76247457D01*
X119673543Y-76402674D01*
X119853354Y-76528579D01*
X119964022Y-76580184D01*
X119997120Y-76595618D01*
X120049559Y-76641790D01*
X120068711Y-76708984D01*
X120048495Y-76775865D01*
X119997120Y-76820382D01*
X119944114Y-76845099D01*
X119853354Y-76887421D01*
X119673543Y-77013326D01*
X119673539Y-77013329D01*
X119518329Y-77168539D01*
X119518326Y-77168542D01*
X119518326Y-77168543D01*
X119446746Y-77270771D01*
X119392420Y-77348356D01*
X119299653Y-77547295D01*
X119242838Y-77759328D01*
X119223707Y-77977999D01*
X119242838Y-78196671D01*
X119299653Y-78408704D01*
X119342685Y-78500986D01*
X119392421Y-78607646D01*
X119518326Y-78787457D01*
X119673543Y-78942674D01*
X119853354Y-79068579D01*
X119964022Y-79120184D01*
X119997120Y-79135618D01*
X120049559Y-79181790D01*
X120068711Y-79248984D01*
X120048495Y-79315865D01*
X119997120Y-79360382D01*
X119944114Y-79385099D01*
X119853354Y-79427421D01*
X119673543Y-79553326D01*
X119673539Y-79553329D01*
X119518329Y-79708539D01*
X119518326Y-79708542D01*
X119518326Y-79708543D01*
X119446746Y-79810771D01*
X119392420Y-79888356D01*
X119299653Y-80087295D01*
X119242838Y-80299328D01*
X119223707Y-80517999D01*
X119242838Y-80736671D01*
X119299653Y-80948704D01*
X119342999Y-81041659D01*
X119392421Y-81147646D01*
X119518326Y-81327457D01*
X119673543Y-81482674D01*
X119853354Y-81608579D01*
X119964022Y-81660184D01*
X119997120Y-81675618D01*
X120049559Y-81721790D01*
X120068711Y-81788984D01*
X120048495Y-81855865D01*
X119997120Y-81900382D01*
X119944114Y-81925099D01*
X119853354Y-81967421D01*
X119731949Y-82052430D01*
X119673539Y-82093329D01*
X119518329Y-82248539D01*
X119518326Y-82248542D01*
X119518326Y-82248543D01*
X119446746Y-82350771D01*
X119392420Y-82428356D01*
X119299653Y-82627295D01*
X119242838Y-82839328D01*
X119223707Y-83057999D01*
X118110000Y-83057999D01*
X118110000Y-60109091D01*
X119514500Y-60109091D01*
X119514779Y-60112021D01*
X119514780Y-60112025D01*
X119529948Y-60270874D01*
X119591043Y-60478944D01*
X119690408Y-60671684D01*
X119690410Y-60671687D01*
X119690412Y-60671690D01*
X119824462Y-60842149D01*
X119914001Y-60919735D01*
X119988350Y-60984159D01*
X120089998Y-61042845D01*
X120176151Y-61092585D01*
X120381078Y-61163511D01*
X120595725Y-61194373D01*
X120812334Y-61184055D01*
X121023075Y-61132929D01*
X121111416Y-61092585D01*
X121231104Y-61037926D01*
X121231917Y-61039707D01*
X121283971Y-61021686D01*
X121351871Y-61038152D01*
X121446151Y-61092585D01*
X121651078Y-61163511D01*
X121865725Y-61194373D01*
X122082334Y-61184055D01*
X122293075Y-61132929D01*
X122381416Y-61092585D01*
X122501104Y-61037926D01*
X122501917Y-61039707D01*
X122553971Y-61021686D01*
X122621871Y-61038152D01*
X122716151Y-61092585D01*
X122921078Y-61163511D01*
X123135725Y-61194373D01*
X123352334Y-61184055D01*
X123563075Y-61132929D01*
X123760332Y-61042845D01*
X123848743Y-60979887D01*
X123914765Y-60957037D01*
X123979120Y-60971538D01*
X124062003Y-61015840D01*
X124210000Y-61060734D01*
X124210000Y-60586252D01*
X124218881Y-60540168D01*
X124284460Y-60376362D01*
X124325500Y-60163427D01*
X124325500Y-59959620D01*
X124403920Y-59990000D01*
X124487802Y-59990000D01*
X124570250Y-59974588D01*
X124626111Y-59940000D01*
X124710000Y-59940000D01*
X124710000Y-61060734D01*
X124857996Y-61015840D01*
X125037795Y-60919735D01*
X125195397Y-60790397D01*
X125324735Y-60632795D01*
X125420839Y-60452998D01*
X125480025Y-60257892D01*
X125494680Y-60109091D01*
X163964500Y-60109091D01*
X163964779Y-60112021D01*
X163964780Y-60112025D01*
X163979948Y-60270874D01*
X164041043Y-60478944D01*
X164140408Y-60671684D01*
X164140410Y-60671687D01*
X164140412Y-60671690D01*
X164274462Y-60842149D01*
X164364001Y-60919735D01*
X164438350Y-60984159D01*
X164539998Y-61042845D01*
X164626151Y-61092585D01*
X164831078Y-61163511D01*
X165045725Y-61194373D01*
X165262334Y-61184055D01*
X165473075Y-61132929D01*
X165561416Y-61092585D01*
X165681104Y-61037926D01*
X165681917Y-61039707D01*
X165733971Y-61021686D01*
X165801871Y-61038152D01*
X165896151Y-61092585D01*
X166101078Y-61163511D01*
X166315725Y-61194373D01*
X166532334Y-61184055D01*
X166743075Y-61132929D01*
X166831416Y-61092585D01*
X166951104Y-61037926D01*
X166951917Y-61039707D01*
X167003971Y-61021686D01*
X167071871Y-61038152D01*
X167166151Y-61092585D01*
X167371078Y-61163511D01*
X167585725Y-61194373D01*
X167802334Y-61184055D01*
X168013075Y-61132929D01*
X168210332Y-61042845D01*
X168298743Y-60979887D01*
X168364765Y-60957037D01*
X168429120Y-60971538D01*
X168512003Y-61015840D01*
X168660000Y-61060734D01*
X168660000Y-60586252D01*
X168668881Y-60540168D01*
X168734460Y-60376362D01*
X168775500Y-60163427D01*
X168775500Y-59959620D01*
X168853920Y-59990000D01*
X168937802Y-59990000D01*
X169020250Y-59974588D01*
X169076111Y-59940000D01*
X169160000Y-59940000D01*
X169160000Y-61060734D01*
X169307996Y-61015840D01*
X169487795Y-60919735D01*
X169645397Y-60790397D01*
X169774735Y-60632795D01*
X169870839Y-60452998D01*
X169930025Y-60257892D01*
X169944680Y-60109091D01*
X216669500Y-60109091D01*
X216669779Y-60112021D01*
X216669780Y-60112025D01*
X216684948Y-60270874D01*
X216746043Y-60478944D01*
X216845408Y-60671684D01*
X216845410Y-60671687D01*
X216845412Y-60671690D01*
X216979462Y-60842149D01*
X217069001Y-60919735D01*
X217143350Y-60984159D01*
X217244998Y-61042845D01*
X217331151Y-61092585D01*
X217536078Y-61163511D01*
X217750725Y-61194373D01*
X217967334Y-61184055D01*
X218178075Y-61132929D01*
X218266416Y-61092585D01*
X218386104Y-61037926D01*
X218386917Y-61039707D01*
X218438971Y-61021686D01*
X218506871Y-61038152D01*
X218601151Y-61092585D01*
X218806078Y-61163511D01*
X219020725Y-61194373D01*
X219237334Y-61184055D01*
X219448075Y-61132929D01*
X219536416Y-61092585D01*
X219656104Y-61037926D01*
X219656917Y-61039707D01*
X219708971Y-61021686D01*
X219776871Y-61038152D01*
X219871151Y-61092585D01*
X220076078Y-61163511D01*
X220290725Y-61194373D01*
X220507334Y-61184055D01*
X220718075Y-61132929D01*
X220915332Y-61042845D01*
X221003743Y-60979887D01*
X221069765Y-60957037D01*
X221134120Y-60971538D01*
X221217003Y-61015840D01*
X221365000Y-61060734D01*
X221365000Y-60586252D01*
X221373881Y-60540168D01*
X221439460Y-60376362D01*
X221480500Y-60163427D01*
X221480500Y-59959620D01*
X221558920Y-59990000D01*
X221642802Y-59990000D01*
X221725250Y-59974588D01*
X221781111Y-59940000D01*
X221865000Y-59940000D01*
X221865000Y-61060734D01*
X222012996Y-61015840D01*
X222192795Y-60919735D01*
X222350397Y-60790397D01*
X222479735Y-60632795D01*
X222575839Y-60452998D01*
X222635025Y-60257892D01*
X222649701Y-60108882D01*
X222650000Y-60102798D01*
X222650000Y-59940000D01*
X221865000Y-59940000D01*
X221781111Y-59940000D01*
X221820610Y-59915543D01*
X221888201Y-59826038D01*
X221918895Y-59718160D01*
X221908546Y-59606479D01*
X221858552Y-59506078D01*
X221775666Y-59430516D01*
X221671080Y-59390000D01*
X221587198Y-59390000D01*
X221504750Y-59405412D01*
X221480500Y-59420427D01*
X221480500Y-59270909D01*
X221465052Y-59109128D01*
X221403957Y-58901058D01*
X221394006Y-58881756D01*
X221378784Y-58852228D01*
X221365000Y-58795409D01*
X221365000Y-58319264D01*
X221865000Y-58319264D01*
X221865000Y-59440000D01*
X222650000Y-59440000D01*
X222650000Y-59277201D01*
X222649701Y-59271117D01*
X222635025Y-59122107D01*
X222575839Y-58927001D01*
X222479735Y-58747204D01*
X222350397Y-58589602D01*
X222192795Y-58460264D01*
X222012994Y-58364157D01*
X221865001Y-58319264D01*
X221865000Y-58319264D01*
X221365000Y-58319264D01*
X221364999Y-58319264D01*
X221217007Y-58364157D01*
X221139496Y-58405587D01*
X221071093Y-58419828D01*
X221018180Y-58399552D01*
X221016905Y-58401762D01*
X220818850Y-58287415D01*
X220613921Y-58216488D01*
X220399276Y-58185627D01*
X220399275Y-58185627D01*
X220290970Y-58190786D01*
X220182665Y-58195945D01*
X219971925Y-58247071D01*
X219763897Y-58342074D01*
X219763084Y-58340294D01*
X219711012Y-58358314D01*
X219643118Y-58341841D01*
X219548850Y-58287415D01*
X219343921Y-58216488D01*
X219129276Y-58185627D01*
X219129275Y-58185627D01*
X219020970Y-58190786D01*
X218912665Y-58195945D01*
X218701925Y-58247071D01*
X218493897Y-58342074D01*
X218493084Y-58340294D01*
X218441012Y-58358314D01*
X218373118Y-58341841D01*
X218278850Y-58287415D01*
X218073921Y-58216488D01*
X217859276Y-58185627D01*
X217859275Y-58185627D01*
X217750970Y-58190786D01*
X217642665Y-58195945D01*
X217431925Y-58247071D01*
X217234664Y-58337156D01*
X217058025Y-58462941D01*
X217058023Y-58462942D01*
X217058023Y-58462943D01*
X216986599Y-58537851D01*
X216908376Y-58619889D01*
X216791137Y-58802314D01*
X216710539Y-59003640D01*
X216669500Y-59216571D01*
X216669500Y-59216573D01*
X216669500Y-60109091D01*
X169944680Y-60109091D01*
X169944701Y-60108882D01*
X169945000Y-60102798D01*
X169945000Y-59940000D01*
X169160000Y-59940000D01*
X169076111Y-59940000D01*
X169115610Y-59915543D01*
X169183201Y-59826038D01*
X169213895Y-59718160D01*
X169203546Y-59606479D01*
X169153552Y-59506078D01*
X169070666Y-59430516D01*
X168966080Y-59390000D01*
X168882198Y-59390000D01*
X168799750Y-59405412D01*
X168775500Y-59420427D01*
X168775500Y-59270909D01*
X168760052Y-59109128D01*
X168698957Y-58901058D01*
X168689006Y-58881756D01*
X168673784Y-58852228D01*
X168660000Y-58795409D01*
X168660000Y-58319264D01*
X169160000Y-58319264D01*
X169160000Y-59440000D01*
X169945000Y-59440000D01*
X169945000Y-59277201D01*
X169944701Y-59271117D01*
X169930025Y-59122107D01*
X169870839Y-58927001D01*
X169774735Y-58747204D01*
X169645397Y-58589602D01*
X169487795Y-58460264D01*
X169307994Y-58364157D01*
X169160001Y-58319264D01*
X169160000Y-58319264D01*
X168660000Y-58319264D01*
X168659999Y-58319264D01*
X168512007Y-58364157D01*
X168434496Y-58405587D01*
X168366093Y-58419828D01*
X168313180Y-58399552D01*
X168311905Y-58401762D01*
X168113850Y-58287415D01*
X167908921Y-58216488D01*
X167694276Y-58185627D01*
X167694275Y-58185627D01*
X167585970Y-58190786D01*
X167477665Y-58195945D01*
X167266925Y-58247071D01*
X167058897Y-58342074D01*
X167058084Y-58340294D01*
X167006012Y-58358314D01*
X166938118Y-58341841D01*
X166843850Y-58287415D01*
X166638921Y-58216488D01*
X166424276Y-58185627D01*
X166424275Y-58185627D01*
X166315970Y-58190786D01*
X166207665Y-58195945D01*
X165996925Y-58247071D01*
X165788897Y-58342074D01*
X165788084Y-58340294D01*
X165736012Y-58358314D01*
X165668118Y-58341841D01*
X165573850Y-58287415D01*
X165368921Y-58216488D01*
X165154276Y-58185627D01*
X165154275Y-58185627D01*
X165045970Y-58190786D01*
X164937665Y-58195945D01*
X164726925Y-58247071D01*
X164529664Y-58337156D01*
X164353025Y-58462941D01*
X164353023Y-58462942D01*
X164353023Y-58462943D01*
X164281599Y-58537851D01*
X164203376Y-58619889D01*
X164086137Y-58802314D01*
X164005539Y-59003640D01*
X163964500Y-59216571D01*
X163964500Y-59216573D01*
X163964500Y-60109091D01*
X125494680Y-60109091D01*
X125494701Y-60108882D01*
X125495000Y-60102798D01*
X125495000Y-59940000D01*
X124710000Y-59940000D01*
X124626111Y-59940000D01*
X124665610Y-59915543D01*
X124733201Y-59826038D01*
X124763895Y-59718160D01*
X124753546Y-59606479D01*
X124703552Y-59506078D01*
X124620666Y-59430516D01*
X124516080Y-59390000D01*
X124432198Y-59390000D01*
X124349750Y-59405412D01*
X124325499Y-59420427D01*
X124325500Y-59270909D01*
X124310052Y-59109128D01*
X124248957Y-58901058D01*
X124223783Y-58852228D01*
X124209999Y-58795409D01*
X124209999Y-58319264D01*
X124710000Y-58319264D01*
X124710000Y-59440000D01*
X125495000Y-59440000D01*
X125495000Y-59277201D01*
X125494701Y-59271117D01*
X125480025Y-59122107D01*
X125420839Y-58927001D01*
X125324735Y-58747204D01*
X125195397Y-58589602D01*
X125037795Y-58460264D01*
X124857994Y-58364157D01*
X124710001Y-58319264D01*
X124710000Y-58319264D01*
X124209999Y-58319264D01*
X124062007Y-58364157D01*
X123984496Y-58405587D01*
X123916093Y-58419828D01*
X123863180Y-58399552D01*
X123861905Y-58401762D01*
X123663850Y-58287415D01*
X123458921Y-58216488D01*
X123244276Y-58185627D01*
X123244275Y-58185627D01*
X123135970Y-58190786D01*
X123027665Y-58195945D01*
X122816925Y-58247071D01*
X122608897Y-58342074D01*
X122608084Y-58340294D01*
X122556012Y-58358314D01*
X122488118Y-58341841D01*
X122393850Y-58287415D01*
X122188921Y-58216488D01*
X121974276Y-58185627D01*
X121974275Y-58185627D01*
X121865970Y-58190786D01*
X121757665Y-58195945D01*
X121546925Y-58247071D01*
X121338897Y-58342074D01*
X121338084Y-58340294D01*
X121286012Y-58358314D01*
X121218118Y-58341841D01*
X121123850Y-58287415D01*
X120918921Y-58216488D01*
X120704276Y-58185627D01*
X120704275Y-58185627D01*
X120595970Y-58190786D01*
X120487665Y-58195945D01*
X120276925Y-58247071D01*
X120079664Y-58337156D01*
X119903025Y-58462941D01*
X119903023Y-58462942D01*
X119903023Y-58462943D01*
X119831599Y-58537851D01*
X119753376Y-58619889D01*
X119636137Y-58802314D01*
X119555539Y-59003640D01*
X119514500Y-59216571D01*
X119514500Y-59216573D01*
X119514500Y-60109091D01*
X118110000Y-60109091D01*
X118110000Y-58498691D01*
X118129685Y-58431652D01*
X118181199Y-58386494D01*
X120700800Y-57200800D01*
X121187238Y-56167117D01*
X121886495Y-54681201D01*
X121932851Y-54628924D01*
X121998692Y-54610000D01*
X220898235Y-54610000D01*
X220965274Y-54629685D01*
G37*
%TD.AperFunction*%
%TD*%
%TA.AperFunction,Conductor*%
%TO.N,GPIO_15*%
G36*
X217988646Y-99666059D02*
G01*
X218047708Y-99721874D01*
X218106554Y-99769878D01*
X218159594Y-99805335D01*
X218159863Y-99805475D01*
X218159868Y-99805478D01*
X218209237Y-99831180D01*
X218209504Y-99831319D01*
X218258959Y-99850904D01*
X218259147Y-99850963D01*
X218310636Y-99867165D01*
X218310787Y-99867209D01*
X218367209Y-99883176D01*
X218431141Y-99901947D01*
X218431536Y-99902070D01*
X218505508Y-99926661D01*
X218506013Y-99926843D01*
X218534595Y-99937876D01*
X218581914Y-99956141D01*
X218588398Y-99962317D01*
X218588616Y-99971269D01*
X218588521Y-99971508D01*
X218442563Y-100326195D01*
X218436245Y-100332542D01*
X218436195Y-100332563D01*
X218081508Y-100478521D01*
X218072554Y-100478500D01*
X218066236Y-100472153D01*
X218066141Y-100471914D01*
X218036847Y-100396022D01*
X218036659Y-100395500D01*
X218012070Y-100321536D01*
X218011947Y-100321141D01*
X217993176Y-100257209D01*
X217977165Y-100200636D01*
X217977112Y-100200461D01*
X217960963Y-100149147D01*
X217960904Y-100148959D01*
X217941319Y-100099504D01*
X217915335Y-100049594D01*
X217879878Y-99996554D01*
X217831874Y-99937708D01*
X217776059Y-99878646D01*
X217772869Y-99870280D01*
X217776290Y-99862339D01*
X217972339Y-99666290D01*
X217980611Y-99662864D01*
X217988646Y-99666059D01*
G37*
%TD.AperFunction*%
%TD*%
%TA.AperFunction,Conductor*%
%TO.N,GPIO_15*%
G36*
X156577445Y-78083499D02*
G01*
X156583763Y-78089846D01*
X156583858Y-78090085D01*
X156613151Y-78165976D01*
X156613339Y-78166498D01*
X156637927Y-78240461D01*
X156638050Y-78240856D01*
X156656822Y-78304789D01*
X156672833Y-78361363D01*
X156672878Y-78361507D01*
X156689030Y-78412838D01*
X156689036Y-78412856D01*
X156689094Y-78413039D01*
X156708679Y-78462495D01*
X156708813Y-78462753D01*
X156708817Y-78462761D01*
X156734520Y-78512129D01*
X156734526Y-78512140D01*
X156734664Y-78512404D01*
X156770121Y-78565444D01*
X156818125Y-78624291D01*
X156818268Y-78624442D01*
X156818273Y-78624448D01*
X156873939Y-78683352D01*
X156877130Y-78691719D01*
X156873708Y-78699661D01*
X156677661Y-78895708D01*
X156669388Y-78899135D01*
X156661352Y-78895939D01*
X156602448Y-78840273D01*
X156602442Y-78840268D01*
X156602291Y-78840125D01*
X156543444Y-78792121D01*
X156490404Y-78756664D01*
X156490140Y-78756526D01*
X156490129Y-78756520D01*
X156440761Y-78730817D01*
X156440753Y-78730813D01*
X156440495Y-78730679D01*
X156440218Y-78730569D01*
X156440213Y-78730567D01*
X156391229Y-78711169D01*
X156391223Y-78711166D01*
X156391039Y-78711094D01*
X156390856Y-78711036D01*
X156390838Y-78711030D01*
X156339363Y-78694833D01*
X156339181Y-78694780D01*
X156282789Y-78678822D01*
X156218856Y-78660050D01*
X156218461Y-78659927D01*
X156144498Y-78635339D01*
X156143976Y-78635151D01*
X156068085Y-78605858D01*
X156061601Y-78599682D01*
X156061383Y-78590730D01*
X156061457Y-78590543D01*
X156207437Y-78235802D01*
X156213753Y-78229457D01*
X156568492Y-78083478D01*
X156577445Y-78083499D01*
G37*
%TD.AperFunction*%
%TD*%
%TA.AperFunction,Conductor*%
%TO.N,GPIO_2*%
G36*
X156577445Y-72495499D02*
G01*
X156583763Y-72501846D01*
X156583858Y-72502085D01*
X156613151Y-72577976D01*
X156613339Y-72578498D01*
X156637927Y-72652461D01*
X156638050Y-72652856D01*
X156656822Y-72716789D01*
X156672833Y-72773363D01*
X156672878Y-72773507D01*
X156689030Y-72824838D01*
X156689036Y-72824856D01*
X156689094Y-72825039D01*
X156708679Y-72874495D01*
X156708813Y-72874753D01*
X156708817Y-72874761D01*
X156734520Y-72924129D01*
X156734526Y-72924140D01*
X156734664Y-72924404D01*
X156770121Y-72977444D01*
X156818125Y-73036291D01*
X156818268Y-73036442D01*
X156818273Y-73036448D01*
X156873939Y-73095352D01*
X156877130Y-73103719D01*
X156873708Y-73111661D01*
X156677661Y-73307708D01*
X156669388Y-73311135D01*
X156661352Y-73307939D01*
X156602448Y-73252273D01*
X156602442Y-73252268D01*
X156602291Y-73252125D01*
X156543444Y-73204121D01*
X156490404Y-73168664D01*
X156490140Y-73168526D01*
X156490129Y-73168520D01*
X156440761Y-73142817D01*
X156440753Y-73142813D01*
X156440495Y-73142679D01*
X156440218Y-73142569D01*
X156440213Y-73142567D01*
X156391229Y-73123169D01*
X156391223Y-73123166D01*
X156391039Y-73123094D01*
X156390856Y-73123036D01*
X156390838Y-73123030D01*
X156339363Y-73106833D01*
X156339181Y-73106780D01*
X156282789Y-73090822D01*
X156218856Y-73072050D01*
X156218461Y-73071927D01*
X156144498Y-73047339D01*
X156143976Y-73047151D01*
X156068085Y-73017858D01*
X156061601Y-73011682D01*
X156061383Y-73002730D01*
X156061457Y-73002543D01*
X156207437Y-72647802D01*
X156213753Y-72641457D01*
X156568492Y-72495478D01*
X156577445Y-72495499D01*
G37*
%TD.AperFunction*%
%TD*%
%TA.AperFunction,Conductor*%
%TO.N,GPIO_2*%
G36*
X218081507Y-97641478D02*
G01*
X218172779Y-97679037D01*
X218436195Y-97787436D01*
X218442542Y-97793754D01*
X218442563Y-97793804D01*
X218588521Y-98148491D01*
X218588500Y-98157445D01*
X218582153Y-98163763D01*
X218581914Y-98163858D01*
X218506022Y-98193151D01*
X218505500Y-98193339D01*
X218431536Y-98217927D01*
X218431141Y-98218050D01*
X218367209Y-98236822D01*
X218310636Y-98252833D01*
X218310461Y-98252886D01*
X218259147Y-98269034D01*
X218259126Y-98269041D01*
X218258959Y-98269094D01*
X218258784Y-98269163D01*
X218258768Y-98269169D01*
X218209785Y-98288567D01*
X218209773Y-98288572D01*
X218209504Y-98288679D01*
X218209252Y-98288809D01*
X218209237Y-98288817D01*
X218159868Y-98314520D01*
X218159849Y-98314530D01*
X218159594Y-98314664D01*
X218159336Y-98314835D01*
X218159335Y-98314837D01*
X218106789Y-98349963D01*
X218106776Y-98349972D01*
X218106554Y-98350121D01*
X218106343Y-98350292D01*
X218106335Y-98350299D01*
X218047876Y-98397987D01*
X218047860Y-98398000D01*
X218047708Y-98398125D01*
X218047569Y-98398255D01*
X218047550Y-98398273D01*
X217988647Y-98453939D01*
X217980280Y-98457130D01*
X217972338Y-98453708D01*
X217776291Y-98257661D01*
X217772864Y-98249388D01*
X217776059Y-98241354D01*
X217831874Y-98182291D01*
X217879878Y-98123444D01*
X217915335Y-98070404D01*
X217941319Y-98020495D01*
X217960904Y-97971039D01*
X217977165Y-97919363D01*
X217977218Y-97919181D01*
X217993176Y-97862789D01*
X218011947Y-97798856D01*
X218012070Y-97798461D01*
X218015735Y-97787436D01*
X218036666Y-97724478D01*
X218036838Y-97723999D01*
X218066141Y-97648083D01*
X218072316Y-97641601D01*
X218081268Y-97641383D01*
X218081507Y-97641478D01*
G37*
%TD.AperFunction*%
%TD*%
%TA.AperFunction,Conductor*%
%TO.N,GPIO_4*%
G36*
X156552045Y-68533099D02*
G01*
X156558363Y-68539446D01*
X156558458Y-68539685D01*
X156587751Y-68615576D01*
X156587939Y-68616098D01*
X156612527Y-68690061D01*
X156612650Y-68690456D01*
X156631422Y-68754389D01*
X156647433Y-68810963D01*
X156647478Y-68811107D01*
X156663630Y-68862438D01*
X156663636Y-68862456D01*
X156663694Y-68862639D01*
X156683279Y-68912095D01*
X156683413Y-68912353D01*
X156683417Y-68912361D01*
X156709120Y-68961729D01*
X156709126Y-68961740D01*
X156709264Y-68962004D01*
X156744721Y-69015044D01*
X156792725Y-69073891D01*
X156792868Y-69074042D01*
X156792873Y-69074048D01*
X156848539Y-69132952D01*
X156851730Y-69141319D01*
X156848308Y-69149261D01*
X156652261Y-69345308D01*
X156643988Y-69348735D01*
X156635952Y-69345539D01*
X156577048Y-69289873D01*
X156577042Y-69289868D01*
X156576891Y-69289725D01*
X156518044Y-69241721D01*
X156465004Y-69206264D01*
X156464740Y-69206126D01*
X156464729Y-69206120D01*
X156415361Y-69180417D01*
X156415353Y-69180413D01*
X156415095Y-69180279D01*
X156414818Y-69180169D01*
X156414813Y-69180167D01*
X156365829Y-69160769D01*
X156365823Y-69160766D01*
X156365639Y-69160694D01*
X156365456Y-69160636D01*
X156365438Y-69160630D01*
X156313963Y-69144433D01*
X156313781Y-69144380D01*
X156257389Y-69128422D01*
X156193456Y-69109650D01*
X156193061Y-69109527D01*
X156119098Y-69084939D01*
X156118576Y-69084751D01*
X156042685Y-69055458D01*
X156036201Y-69049282D01*
X156035983Y-69040330D01*
X156036057Y-69040143D01*
X156182037Y-68685402D01*
X156188353Y-68679057D01*
X156543092Y-68533078D01*
X156552045Y-68533099D01*
G37*
%TD.AperFunction*%
%TD*%
%TA.AperFunction,Conductor*%
%TO.N,GPIO_4*%
G36*
X218081507Y-95101478D02*
G01*
X218172779Y-95139037D01*
X218436195Y-95247436D01*
X218442542Y-95253754D01*
X218442563Y-95253804D01*
X218588521Y-95608491D01*
X218588500Y-95617445D01*
X218582153Y-95623763D01*
X218581914Y-95623858D01*
X218506022Y-95653151D01*
X218505500Y-95653339D01*
X218431536Y-95677927D01*
X218431141Y-95678050D01*
X218367209Y-95696822D01*
X218310636Y-95712833D01*
X218310461Y-95712886D01*
X218259147Y-95729034D01*
X218259126Y-95729041D01*
X218258959Y-95729094D01*
X218258784Y-95729163D01*
X218258768Y-95729169D01*
X218209785Y-95748567D01*
X218209773Y-95748572D01*
X218209504Y-95748679D01*
X218209252Y-95748809D01*
X218209237Y-95748817D01*
X218159868Y-95774520D01*
X218159849Y-95774530D01*
X218159594Y-95774664D01*
X218159336Y-95774835D01*
X218159335Y-95774837D01*
X218106789Y-95809963D01*
X218106776Y-95809972D01*
X218106554Y-95810121D01*
X218106343Y-95810292D01*
X218106335Y-95810299D01*
X218047876Y-95857987D01*
X218047860Y-95858000D01*
X218047708Y-95858125D01*
X218047569Y-95858255D01*
X218047550Y-95858273D01*
X217988647Y-95913939D01*
X217980280Y-95917130D01*
X217972338Y-95913708D01*
X217776291Y-95717661D01*
X217772864Y-95709388D01*
X217776059Y-95701354D01*
X217831874Y-95642291D01*
X217879878Y-95583444D01*
X217915335Y-95530404D01*
X217941319Y-95480495D01*
X217960904Y-95431039D01*
X217977165Y-95379363D01*
X217977218Y-95379181D01*
X217993176Y-95322789D01*
X218011947Y-95258856D01*
X218012070Y-95258461D01*
X218015735Y-95247436D01*
X218036666Y-95184478D01*
X218036838Y-95183999D01*
X218066141Y-95108083D01*
X218072316Y-95101601D01*
X218081268Y-95101383D01*
X218081507Y-95101478D01*
G37*
%TD.AperFunction*%
%TD*%
%TA.AperFunction,Conductor*%
%TO.N,GPIO_5*%
G36*
X221162873Y-86962638D02*
G01*
X221163173Y-86963301D01*
X221449133Y-87651309D01*
X221449144Y-87660263D01*
X221449133Y-87660289D01*
X221163173Y-88348297D01*
X221156833Y-88354622D01*
X221147879Y-88354611D01*
X221147216Y-88354311D01*
X221021580Y-88292673D01*
X221020227Y-88291893D01*
X220913493Y-88220476D01*
X220912361Y-88219615D01*
X220827125Y-88146165D01*
X220826411Y-88145495D01*
X220754829Y-88072520D01*
X220754654Y-88072339D01*
X220689245Y-88002727D01*
X220689237Y-88002719D01*
X220689145Y-88002621D01*
X220689047Y-88002528D01*
X220689038Y-88002519D01*
X220622572Y-87939508D01*
X220622279Y-87939230D01*
X220546435Y-87885053D01*
X220546434Y-87885052D01*
X220546432Y-87885051D01*
X220487867Y-87858364D01*
X220453908Y-87842890D01*
X220453906Y-87842889D01*
X220453905Y-87842889D01*
X220337000Y-87815539D01*
X220198937Y-87806514D01*
X220190905Y-87802555D01*
X220188000Y-87794839D01*
X220188000Y-87516760D01*
X220191427Y-87508487D01*
X220198936Y-87505085D01*
X220336998Y-87496060D01*
X220453908Y-87468709D01*
X220546435Y-87426545D01*
X220622279Y-87372368D01*
X220689145Y-87308978D01*
X220754694Y-87239216D01*
X220754829Y-87239077D01*
X220826411Y-87166102D01*
X220827117Y-87165439D01*
X220912366Y-87091978D01*
X220913486Y-87091126D01*
X221020240Y-87019697D01*
X221021567Y-87018932D01*
X221147219Y-86957286D01*
X221156152Y-86956720D01*
X221162873Y-86962638D01*
G37*
%TD.AperFunction*%
%TD*%
%TA.AperFunction,Conductor*%
%TO.N,GPIO_5*%
G36*
X176743661Y-75790291D02*
G01*
X176939708Y-75986338D01*
X176943135Y-75994611D01*
X176939939Y-76002647D01*
X176884273Y-76061550D01*
X176884255Y-76061569D01*
X176884125Y-76061708D01*
X176884000Y-76061860D01*
X176883987Y-76061876D01*
X176836299Y-76120335D01*
X176836292Y-76120343D01*
X176836121Y-76120554D01*
X176835972Y-76120776D01*
X176835963Y-76120789D01*
X176800837Y-76173335D01*
X176800664Y-76173594D01*
X176800530Y-76173849D01*
X176800520Y-76173868D01*
X176774817Y-76223237D01*
X176774809Y-76223252D01*
X176774679Y-76223504D01*
X176774572Y-76223773D01*
X176774567Y-76223785D01*
X176755169Y-76272768D01*
X176755163Y-76272784D01*
X176755094Y-76272959D01*
X176755041Y-76273126D01*
X176755034Y-76273147D01*
X176738833Y-76324636D01*
X176738789Y-76324787D01*
X176722822Y-76381209D01*
X176704050Y-76445141D01*
X176703927Y-76445536D01*
X176679339Y-76519500D01*
X176679151Y-76520022D01*
X176649858Y-76595914D01*
X176643682Y-76602398D01*
X176634730Y-76602616D01*
X176634491Y-76602521D01*
X176279804Y-76456563D01*
X176273457Y-76450245D01*
X176273436Y-76450195D01*
X176200501Y-76272959D01*
X176127477Y-76095507D01*
X176127499Y-76086553D01*
X176133846Y-76080235D01*
X176133991Y-76080177D01*
X176209999Y-76050838D01*
X176210478Y-76050666D01*
X176284469Y-76026067D01*
X176284846Y-76025949D01*
X176348789Y-76007176D01*
X176405363Y-75991165D01*
X176405507Y-75991120D01*
X176434081Y-75982128D01*
X176457039Y-75974904D01*
X176506495Y-75955319D01*
X176556404Y-75929335D01*
X176609444Y-75893878D01*
X176668291Y-75845874D01*
X176727354Y-75790059D01*
X176735719Y-75786869D01*
X176743661Y-75790291D01*
G37*
%TD.AperFunction*%
%TD*%
%TA.AperFunction,Conductor*%
%TO.N,GPIO_35*%
G36*
X147570409Y-116443510D02*
G01*
X147574026Y-116451702D01*
X147574029Y-116451943D01*
X147575000Y-116840000D01*
X147574030Y-117227996D01*
X147570582Y-117236261D01*
X147562301Y-117239667D01*
X147562000Y-117239662D01*
X147465031Y-117236930D01*
X147464275Y-117236884D01*
X147375425Y-117228599D01*
X147374611Y-117228495D01*
X147300485Y-117216297D01*
X147299762Y-117216154D01*
X147235322Y-117201331D01*
X147234886Y-117201222D01*
X147174994Y-117185000D01*
X147114888Y-117168720D01*
X147114673Y-117168669D01*
X147050050Y-117153804D01*
X147050051Y-117153804D01*
X147049859Y-117153760D01*
X147049684Y-117153731D01*
X147049673Y-117153729D01*
X146975192Y-117141474D01*
X146975177Y-117141472D01*
X146974982Y-117141440D01*
X146974761Y-117141419D01*
X146974758Y-117141419D01*
X146885522Y-117133097D01*
X146885502Y-117133095D01*
X146885333Y-117133080D01*
X146885164Y-117133075D01*
X146885144Y-117133074D01*
X146787360Y-117130320D01*
X146779186Y-117126662D01*
X146775989Y-117118625D01*
X146775989Y-116541432D01*
X146779416Y-116533159D01*
X146787416Y-116529735D01*
X146885064Y-116527480D01*
X146974624Y-116520640D01*
X147049546Y-116510559D01*
X147114709Y-116498320D01*
X147114872Y-116498285D01*
X147174994Y-116485000D01*
X147174993Y-116485000D01*
X147235105Y-116471718D01*
X147235420Y-116471653D01*
X147300154Y-116459494D01*
X147300719Y-116459402D01*
X147375066Y-116449399D01*
X147375678Y-116449335D01*
X147464645Y-116442541D01*
X147465199Y-116442513D01*
X147562061Y-116440275D01*
X147570409Y-116443510D01*
G37*
%TD.AperFunction*%
%TD*%
%TA.AperFunction,Conductor*%
%TO.N,GPIO_35*%
G36*
X145713098Y-116334086D02*
G01*
X145757000Y-116363500D01*
X145807000Y-116394000D01*
X145807124Y-116394068D01*
X145856894Y-116421442D01*
X145856902Y-116421446D01*
X145857000Y-116421500D01*
X145907000Y-116446000D01*
X145957000Y-116467500D01*
X146006999Y-116485999D01*
X146056999Y-116501499D01*
X146106999Y-116513999D01*
X146156999Y-116523499D01*
X146196809Y-116528675D01*
X146204571Y-116533138D01*
X146207000Y-116540276D01*
X146207000Y-117119722D01*
X146203573Y-117127995D01*
X146196809Y-117131324D01*
X146157162Y-117136478D01*
X146157135Y-117136482D01*
X146156999Y-117136500D01*
X146156851Y-117136527D01*
X146156833Y-117136531D01*
X146107169Y-117145967D01*
X146107143Y-117145972D01*
X146106999Y-117146000D01*
X146106874Y-117146031D01*
X146106843Y-117146038D01*
X146057143Y-117158463D01*
X146057113Y-117158471D01*
X146056999Y-117158500D01*
X146056856Y-117158544D01*
X146056843Y-117158548D01*
X146007170Y-117173946D01*
X146007138Y-117173956D01*
X146006999Y-117174000D01*
X146006846Y-117174056D01*
X146006839Y-117174059D01*
X145957154Y-117192442D01*
X145957120Y-117192455D01*
X145957000Y-117192500D01*
X145956879Y-117192551D01*
X145956859Y-117192560D01*
X145907114Y-117213949D01*
X145907086Y-117213961D01*
X145907000Y-117213999D01*
X145906876Y-117214059D01*
X145906869Y-117214063D01*
X145857117Y-117238441D01*
X145857090Y-117238454D01*
X145857000Y-117238499D01*
X145856931Y-117238536D01*
X145856894Y-117238556D01*
X145807124Y-117265930D01*
X145807098Y-117265944D01*
X145807000Y-117265999D01*
X145806889Y-117266066D01*
X145806873Y-117266076D01*
X145757115Y-117296428D01*
X145757082Y-117296448D01*
X145757000Y-117296499D01*
X145756937Y-117296541D01*
X145756876Y-117296580D01*
X145713103Y-117325909D01*
X145704323Y-117327667D01*
X145700664Y-117326277D01*
X144873169Y-116840087D01*
X144867772Y-116832941D01*
X144869008Y-116824072D01*
X144873165Y-116819914D01*
X145700667Y-116333720D01*
X145709534Y-116332485D01*
X145713098Y-116334086D01*
G37*
%TD.AperFunction*%
%TD*%
%TA.AperFunction,Conductor*%
%TO.N,GPIO_35*%
G36*
X195762873Y-79342638D02*
G01*
X195763173Y-79343301D01*
X196049133Y-80031309D01*
X196049144Y-80040263D01*
X196049133Y-80040289D01*
X195763173Y-80728297D01*
X195756833Y-80734622D01*
X195747879Y-80734611D01*
X195747216Y-80734311D01*
X195621580Y-80672673D01*
X195620227Y-80671893D01*
X195513493Y-80600476D01*
X195512361Y-80599615D01*
X195427125Y-80526165D01*
X195426411Y-80525495D01*
X195354829Y-80452520D01*
X195354654Y-80452339D01*
X195289245Y-80382727D01*
X195289237Y-80382719D01*
X195289145Y-80382621D01*
X195289047Y-80382528D01*
X195289038Y-80382519D01*
X195222572Y-80319508D01*
X195222279Y-80319230D01*
X195146435Y-80265053D01*
X195146434Y-80265052D01*
X195146432Y-80265051D01*
X195087867Y-80238364D01*
X195053908Y-80222890D01*
X195053906Y-80222889D01*
X195053905Y-80222889D01*
X194937000Y-80195539D01*
X194798937Y-80186514D01*
X194790905Y-80182555D01*
X194788000Y-80174839D01*
X194788000Y-79896760D01*
X194791427Y-79888487D01*
X194798936Y-79885085D01*
X194936998Y-79876060D01*
X195053908Y-79848709D01*
X195146435Y-79806545D01*
X195222279Y-79752368D01*
X195289145Y-79688978D01*
X195354694Y-79619216D01*
X195354829Y-79619077D01*
X195426411Y-79546102D01*
X195427117Y-79545439D01*
X195512366Y-79471978D01*
X195513486Y-79471126D01*
X195620240Y-79399697D01*
X195621567Y-79398932D01*
X195747219Y-79337286D01*
X195756152Y-79336720D01*
X195762873Y-79342638D01*
G37*
%TD.AperFunction*%
%TD*%
%TA.AperFunction,Conductor*%
%TO.N,GPIO_35*%
G36*
X177184899Y-87595427D02*
G01*
X177188321Y-87603369D01*
X177190618Y-87684597D01*
X177198284Y-87760152D01*
X177210717Y-87822729D01*
X177210804Y-87823007D01*
X177210808Y-87823020D01*
X177227548Y-87876120D01*
X177227551Y-87876130D01*
X177227635Y-87876394D01*
X177248756Y-87925213D01*
X177248859Y-87925410D01*
X177273799Y-87973252D01*
X177273881Y-87973401D01*
X177302481Y-88024577D01*
X177334417Y-88083062D01*
X177334609Y-88083428D01*
X177369521Y-88153114D01*
X177369757Y-88153616D01*
X177402707Y-88227991D01*
X177402925Y-88236943D01*
X177396749Y-88243427D01*
X177396512Y-88243529D01*
X177042502Y-88391123D01*
X177033548Y-88391144D01*
X177033498Y-88391123D01*
X176679487Y-88243529D01*
X176673169Y-88237182D01*
X176673190Y-88228228D01*
X176673270Y-88228041D01*
X176706252Y-88153589D01*
X176706464Y-88153137D01*
X176741407Y-88083393D01*
X176741560Y-88083101D01*
X176773517Y-88024577D01*
X176802200Y-87973252D01*
X176802280Y-87973101D01*
X176814613Y-87949439D01*
X176827243Y-87925213D01*
X176848364Y-87876394D01*
X176865282Y-87822729D01*
X176877715Y-87760152D01*
X176885381Y-87684597D01*
X176887678Y-87603367D01*
X176891337Y-87595196D01*
X176899373Y-87592000D01*
X177176626Y-87592000D01*
X177184899Y-87595427D01*
G37*
%TD.AperFunction*%
%TD*%
%TA.AperFunction,Conductor*%
%TO.N,GPIO_35*%
G36*
X139413098Y-116334086D02*
G01*
X139457000Y-116363500D01*
X139507000Y-116394000D01*
X139507124Y-116394068D01*
X139556894Y-116421442D01*
X139556902Y-116421446D01*
X139557000Y-116421500D01*
X139607000Y-116446000D01*
X139657000Y-116467500D01*
X139706999Y-116485999D01*
X139756999Y-116501499D01*
X139806999Y-116513999D01*
X139856999Y-116523499D01*
X139896809Y-116528675D01*
X139904571Y-116533138D01*
X139907000Y-116540276D01*
X139907000Y-117119722D01*
X139903573Y-117127995D01*
X139896809Y-117131324D01*
X139857162Y-117136478D01*
X139857135Y-117136482D01*
X139856999Y-117136500D01*
X139856851Y-117136527D01*
X139856833Y-117136531D01*
X139807169Y-117145967D01*
X139807143Y-117145972D01*
X139806999Y-117146000D01*
X139806874Y-117146031D01*
X139806843Y-117146038D01*
X139757143Y-117158463D01*
X139757113Y-117158471D01*
X139756999Y-117158500D01*
X139756856Y-117158544D01*
X139756843Y-117158548D01*
X139707170Y-117173946D01*
X139707138Y-117173956D01*
X139706999Y-117174000D01*
X139706846Y-117174056D01*
X139706839Y-117174059D01*
X139657154Y-117192442D01*
X139657120Y-117192455D01*
X139657000Y-117192500D01*
X139656879Y-117192551D01*
X139656859Y-117192560D01*
X139607114Y-117213949D01*
X139607086Y-117213961D01*
X139607000Y-117213999D01*
X139606876Y-117214059D01*
X139606869Y-117214063D01*
X139557117Y-117238441D01*
X139557090Y-117238454D01*
X139557000Y-117238499D01*
X139556931Y-117238536D01*
X139556894Y-117238556D01*
X139507124Y-117265930D01*
X139507098Y-117265944D01*
X139507000Y-117265999D01*
X139506889Y-117266066D01*
X139506873Y-117266076D01*
X139457115Y-117296428D01*
X139457082Y-117296448D01*
X139457000Y-117296499D01*
X139456937Y-117296541D01*
X139456876Y-117296580D01*
X139413103Y-117325909D01*
X139404323Y-117327667D01*
X139400664Y-117326277D01*
X138573169Y-116840087D01*
X138567772Y-116832941D01*
X138569008Y-116824072D01*
X138573165Y-116819914D01*
X139400667Y-116333720D01*
X139409534Y-116332485D01*
X139413098Y-116334086D01*
G37*
%TD.AperFunction*%
%TD*%
%TA.AperFunction,Conductor*%
%TO.N,GPIO_35*%
G36*
X144013331Y-116333720D02*
G01*
X144840831Y-116819912D01*
X144846227Y-116827057D01*
X144844991Y-116835926D01*
X144840830Y-116840087D01*
X144013334Y-117326278D01*
X144004465Y-117327514D01*
X144000898Y-117325912D01*
X143956999Y-117296499D01*
X143906999Y-117265999D01*
X143906874Y-117265930D01*
X143857104Y-117238556D01*
X143857082Y-117238544D01*
X143856999Y-117238499D01*
X143806999Y-117213999D01*
X143806872Y-117213944D01*
X143806856Y-117213937D01*
X143757158Y-117192568D01*
X143757160Y-117192568D01*
X143757000Y-117192500D01*
X143756864Y-117192450D01*
X143756845Y-117192442D01*
X143707159Y-117174059D01*
X143707000Y-117174000D01*
X143706849Y-117173953D01*
X143706828Y-117173946D01*
X143657155Y-117158548D01*
X143657153Y-117158547D01*
X143657000Y-117158500D01*
X143656877Y-117158469D01*
X143656855Y-117158463D01*
X143607155Y-117146038D01*
X143607131Y-117146032D01*
X143607000Y-117146000D01*
X143606847Y-117145970D01*
X143606829Y-117145967D01*
X143557165Y-117136531D01*
X143557152Y-117136529D01*
X143557000Y-117136500D01*
X143556857Y-117136481D01*
X143556836Y-117136478D01*
X143517191Y-117131324D01*
X143509429Y-117126859D01*
X143507000Y-117119722D01*
X143507000Y-116540276D01*
X143510427Y-116532003D01*
X143517189Y-116528675D01*
X143557000Y-116523499D01*
X143607000Y-116513999D01*
X143657000Y-116501499D01*
X143707000Y-116485999D01*
X143757000Y-116467500D01*
X143806999Y-116446000D01*
X143856999Y-116421500D01*
X143906999Y-116394000D01*
X143956999Y-116363500D01*
X144000898Y-116334088D01*
X144009675Y-116332331D01*
X144013331Y-116333720D01*
G37*
%TD.AperFunction*%
%TD*%
%TA.AperFunction,Conductor*%
%TO.N,GPIO_39*%
G36*
X174661771Y-85487190D02*
G01*
X174661987Y-85487283D01*
X174736392Y-85520244D01*
X174736876Y-85520472D01*
X174806582Y-85555396D01*
X174806921Y-85555573D01*
X174865421Y-85587517D01*
X174916746Y-85616200D01*
X174916897Y-85616280D01*
X174946533Y-85631728D01*
X174964785Y-85641243D01*
X175013605Y-85662364D01*
X175067270Y-85679282D01*
X175129847Y-85691715D01*
X175205401Y-85699381D01*
X175286632Y-85701678D01*
X175294804Y-85705337D01*
X175298000Y-85713373D01*
X175298000Y-85990626D01*
X175294573Y-85998899D01*
X175286631Y-86002321D01*
X175205632Y-86004611D01*
X175205619Y-86004611D01*
X175205401Y-86004618D01*
X175205180Y-86004640D01*
X175205171Y-86004641D01*
X175130129Y-86012255D01*
X175130120Y-86012256D01*
X175129847Y-86012284D01*
X175129578Y-86012337D01*
X175129574Y-86012338D01*
X175067570Y-86024657D01*
X175067562Y-86024658D01*
X175067270Y-86024717D01*
X175066995Y-86024803D01*
X175066978Y-86024808D01*
X175013878Y-86041548D01*
X175013862Y-86041553D01*
X175013605Y-86041635D01*
X175013346Y-86041746D01*
X175013338Y-86041750D01*
X174964988Y-86062668D01*
X174964785Y-86062756D01*
X174964591Y-86062856D01*
X174964587Y-86062859D01*
X174916746Y-86087799D01*
X174916597Y-86087881D01*
X174865421Y-86116481D01*
X174806935Y-86148417D01*
X174806569Y-86148609D01*
X174736884Y-86183521D01*
X174736382Y-86183757D01*
X174662008Y-86216707D01*
X174653056Y-86216925D01*
X174646572Y-86210749D01*
X174646470Y-86210512D01*
X174498875Y-85856499D01*
X174498855Y-85847550D01*
X174646471Y-85493485D01*
X174652817Y-85487169D01*
X174661771Y-85487190D01*
G37*
%TD.AperFunction*%
%TD*%
%TA.AperFunction,Conductor*%
%TO.N,GPIO_39*%
G36*
X196056238Y-74960639D02*
G01*
X196580763Y-75486542D01*
X196584179Y-75494819D01*
X196580952Y-75502872D01*
X196498292Y-75589684D01*
X196498263Y-75589715D01*
X196498167Y-75589817D01*
X196498076Y-75589923D01*
X196498058Y-75589944D01*
X196428182Y-75672149D01*
X196428168Y-75672165D01*
X196428080Y-75672270D01*
X196427996Y-75672381D01*
X196427980Y-75672402D01*
X196373505Y-75745035D01*
X196373488Y-75745058D01*
X196373413Y-75745159D01*
X196373340Y-75745267D01*
X196373324Y-75745291D01*
X196329026Y-75811674D01*
X196328920Y-75811842D01*
X196289779Y-75875000D01*
X196250634Y-75938162D01*
X196250421Y-75938492D01*
X196206327Y-76004568D01*
X196205955Y-76005094D01*
X196151698Y-76077437D01*
X196151253Y-76077995D01*
X196081596Y-76159942D01*
X196081154Y-76160432D01*
X195999012Y-76246703D01*
X195990826Y-76250331D01*
X195982471Y-76247108D01*
X195982266Y-76246908D01*
X195785983Y-76050625D01*
X195782556Y-76042352D01*
X195785085Y-76035089D01*
X195849002Y-75954446D01*
X195873239Y-75877677D01*
X195859161Y-75809201D01*
X195814603Y-75745274D01*
X195747401Y-75682147D01*
X195665392Y-75616074D01*
X195576734Y-75543574D01*
X195576109Y-75543025D01*
X195488845Y-75460626D01*
X195487811Y-75459513D01*
X195409567Y-75363563D01*
X195408362Y-75361770D01*
X195352232Y-75258828D01*
X195351280Y-75249924D01*
X195356903Y-75242955D01*
X195358015Y-75242422D01*
X196043472Y-74958093D01*
X196052426Y-74958089D01*
X196056238Y-74960639D01*
G37*
%TD.AperFunction*%
%TD*%
%TA.AperFunction,Conductor*%
%TO.N,GPIO_39*%
G36*
X124071098Y-96019086D02*
G01*
X124115000Y-96048500D01*
X124165000Y-96079000D01*
X124165124Y-96079068D01*
X124214894Y-96106442D01*
X124214902Y-96106446D01*
X124215000Y-96106500D01*
X124265000Y-96131000D01*
X124315000Y-96152500D01*
X124364999Y-96170999D01*
X124414999Y-96186499D01*
X124464999Y-96198999D01*
X124514999Y-96208499D01*
X124554809Y-96213675D01*
X124562571Y-96218138D01*
X124565000Y-96225276D01*
X124565000Y-96804722D01*
X124561573Y-96812995D01*
X124554809Y-96816324D01*
X124515162Y-96821478D01*
X124515135Y-96821482D01*
X124514999Y-96821500D01*
X124514851Y-96821527D01*
X124514833Y-96821531D01*
X124465169Y-96830967D01*
X124465143Y-96830972D01*
X124464999Y-96831000D01*
X124464874Y-96831031D01*
X124464843Y-96831038D01*
X124415143Y-96843463D01*
X124415113Y-96843471D01*
X124414999Y-96843500D01*
X124414856Y-96843544D01*
X124414843Y-96843548D01*
X124365170Y-96858946D01*
X124365138Y-96858956D01*
X124364999Y-96859000D01*
X124364846Y-96859056D01*
X124364839Y-96859059D01*
X124315154Y-96877442D01*
X124315120Y-96877455D01*
X124315000Y-96877500D01*
X124314879Y-96877551D01*
X124314859Y-96877560D01*
X124265114Y-96898949D01*
X124265086Y-96898961D01*
X124265000Y-96898999D01*
X124264876Y-96899059D01*
X124264869Y-96899063D01*
X124215117Y-96923441D01*
X124215090Y-96923454D01*
X124215000Y-96923499D01*
X124214931Y-96923536D01*
X124214894Y-96923556D01*
X124165124Y-96950930D01*
X124165098Y-96950944D01*
X124165000Y-96950999D01*
X124164889Y-96951066D01*
X124164873Y-96951076D01*
X124115115Y-96981428D01*
X124115082Y-96981448D01*
X124115000Y-96981499D01*
X124114937Y-96981541D01*
X124114876Y-96981580D01*
X124071103Y-97010909D01*
X124062323Y-97012667D01*
X124058664Y-97011277D01*
X123707107Y-96804722D01*
X123231168Y-96525087D01*
X123225772Y-96517942D01*
X123227008Y-96509073D01*
X123231167Y-96504913D01*
X124058667Y-96018720D01*
X124067534Y-96017485D01*
X124071098Y-96019086D01*
G37*
%TD.AperFunction*%
%TD*%
%TA.AperFunction,Conductor*%
%TO.N,GPIO_39*%
G36*
X128671331Y-96018720D02*
G01*
X129022890Y-96225276D01*
X129498830Y-96504912D01*
X129504227Y-96512058D01*
X129502991Y-96520927D01*
X129498830Y-96525088D01*
X128671334Y-97011278D01*
X128662465Y-97012514D01*
X128658898Y-97010912D01*
X128614999Y-96981499D01*
X128564999Y-96950999D01*
X128564874Y-96950930D01*
X128515104Y-96923556D01*
X128515082Y-96923544D01*
X128514999Y-96923499D01*
X128464999Y-96898999D01*
X128464872Y-96898944D01*
X128464856Y-96898937D01*
X128415158Y-96877568D01*
X128415160Y-96877568D01*
X128415000Y-96877500D01*
X128414864Y-96877450D01*
X128414845Y-96877442D01*
X128365159Y-96859059D01*
X128365000Y-96859000D01*
X128364849Y-96858953D01*
X128364828Y-96858946D01*
X128315155Y-96843548D01*
X128315153Y-96843547D01*
X128315000Y-96843500D01*
X128314877Y-96843469D01*
X128314855Y-96843463D01*
X128265155Y-96831038D01*
X128265131Y-96831032D01*
X128265000Y-96831000D01*
X128264847Y-96830970D01*
X128264829Y-96830967D01*
X128215165Y-96821531D01*
X128215152Y-96821529D01*
X128215000Y-96821500D01*
X128214857Y-96821481D01*
X128214836Y-96821478D01*
X128175191Y-96816324D01*
X128167429Y-96811859D01*
X128165000Y-96804722D01*
X128165000Y-96225276D01*
X128168427Y-96217003D01*
X128175189Y-96213675D01*
X128215000Y-96208499D01*
X128265000Y-96198999D01*
X128315000Y-96186499D01*
X128365000Y-96170999D01*
X128415000Y-96152500D01*
X128464999Y-96131000D01*
X128514999Y-96106500D01*
X128564999Y-96079000D01*
X128614999Y-96048500D01*
X128658898Y-96019088D01*
X128667675Y-96017331D01*
X128671331Y-96018720D01*
G37*
%TD.AperFunction*%
%TD*%
%TA.AperFunction,Conductor*%
%TO.N,GPIO_39*%
G36*
X132203388Y-96123520D02*
G01*
X132207025Y-96131703D01*
X132207029Y-96131973D01*
X132208000Y-96520000D01*
X132207029Y-96908026D01*
X132203581Y-96916291D01*
X132195300Y-96919697D01*
X132195030Y-96919693D01*
X132097867Y-96917208D01*
X132097180Y-96917170D01*
X132008080Y-96909631D01*
X132007340Y-96909545D01*
X131932948Y-96898449D01*
X131932287Y-96898331D01*
X131867543Y-96884840D01*
X131867143Y-96884749D01*
X131806999Y-96870000D01*
X131746647Y-96855200D01*
X131746439Y-96855154D01*
X131681548Y-96841634D01*
X131681542Y-96841632D01*
X131681384Y-96841600D01*
X131606296Y-96830400D01*
X131606114Y-96830384D01*
X131606092Y-96830382D01*
X131516649Y-96822814D01*
X131516617Y-96822812D01*
X131516472Y-96822800D01*
X131516315Y-96822795D01*
X131516297Y-96822795D01*
X131418401Y-96820291D01*
X131410218Y-96816654D01*
X131407000Y-96808595D01*
X131407000Y-96231404D01*
X131410427Y-96223131D01*
X131418400Y-96219708D01*
X131516472Y-96217200D01*
X131606296Y-96209600D01*
X131681384Y-96198400D01*
X131746647Y-96184800D01*
X131746839Y-96184755D01*
X131806999Y-96170000D01*
X131867199Y-96155237D01*
X131867491Y-96155170D01*
X131932298Y-96141665D01*
X131932936Y-96141552D01*
X132007344Y-96130453D01*
X132008076Y-96130368D01*
X132097192Y-96122828D01*
X132097856Y-96122791D01*
X132195030Y-96120306D01*
X132203388Y-96123520D01*
G37*
%TD.AperFunction*%
%TD*%
%TA.AperFunction,Conductor*%
%TO.N,GPIO_39*%
G36*
X130371092Y-96022249D02*
G01*
X130415000Y-96051830D01*
X130464895Y-96082452D01*
X130464909Y-96082460D01*
X130465000Y-96082516D01*
X130515000Y-96110201D01*
X130565000Y-96134886D01*
X130615000Y-96156572D01*
X130664999Y-96175258D01*
X130714999Y-96190943D01*
X130764999Y-96203629D01*
X130814999Y-96213314D01*
X130854851Y-96218642D01*
X130862597Y-96223135D01*
X130865000Y-96230239D01*
X130865000Y-96809619D01*
X130861573Y-96817892D01*
X130854694Y-96821236D01*
X130815153Y-96825981D01*
X130815136Y-96825983D01*
X130814999Y-96826000D01*
X130814855Y-96826025D01*
X130814841Y-96826028D01*
X130765156Y-96834971D01*
X130765130Y-96834976D01*
X130764999Y-96835000D01*
X130764877Y-96835029D01*
X130764840Y-96835037D01*
X130715141Y-96846965D01*
X130715109Y-96846973D01*
X130714999Y-96847000D01*
X130714895Y-96847031D01*
X130714866Y-96847039D01*
X130665147Y-96861955D01*
X130665127Y-96861961D01*
X130664999Y-96862000D01*
X130664870Y-96862046D01*
X130664838Y-96862057D01*
X130615156Y-96879943D01*
X130615126Y-96879954D01*
X130615000Y-96880000D01*
X130614888Y-96880046D01*
X130614852Y-96880061D01*
X130565123Y-96900948D01*
X130565110Y-96900953D01*
X130565000Y-96901000D01*
X130564902Y-96901047D01*
X130564882Y-96901056D01*
X130515101Y-96924951D01*
X130515084Y-96924959D01*
X130515000Y-96925000D01*
X130514900Y-96925053D01*
X130514898Y-96925055D01*
X130465111Y-96951939D01*
X130465076Y-96951958D01*
X130465000Y-96952000D01*
X130464919Y-96952048D01*
X130464899Y-96952060D01*
X130415109Y-96981934D01*
X130415088Y-96981946D01*
X130415000Y-96982000D01*
X130414914Y-96982056D01*
X130414885Y-96982075D01*
X130371085Y-97010983D01*
X130362292Y-97012680D01*
X130358713Y-97011306D01*
X129531223Y-96525119D01*
X129525826Y-96517973D01*
X129527062Y-96509104D01*
X129531248Y-96504929D01*
X130358658Y-96021847D01*
X130367528Y-96020636D01*
X130371092Y-96022249D01*
G37*
%TD.AperFunction*%
%TD*%
%TA.AperFunction,Conductor*%
%TO.N,GPIO_34*%
G36*
X139823388Y-106283520D02*
G01*
X139827025Y-106291703D01*
X139827029Y-106291973D01*
X139828000Y-106680000D01*
X139827029Y-107068026D01*
X139823581Y-107076291D01*
X139815300Y-107079697D01*
X139815030Y-107079693D01*
X139717867Y-107077208D01*
X139717180Y-107077170D01*
X139628080Y-107069631D01*
X139627340Y-107069545D01*
X139552948Y-107058449D01*
X139552287Y-107058331D01*
X139487543Y-107044840D01*
X139487143Y-107044749D01*
X139426999Y-107030000D01*
X139366647Y-107015200D01*
X139366439Y-107015154D01*
X139301548Y-107001634D01*
X139301542Y-107001632D01*
X139301384Y-107001600D01*
X139226296Y-106990400D01*
X139226114Y-106990384D01*
X139226092Y-106990382D01*
X139136649Y-106982814D01*
X139136617Y-106982812D01*
X139136472Y-106982800D01*
X139136315Y-106982795D01*
X139136297Y-106982795D01*
X139038401Y-106980291D01*
X139030218Y-106976654D01*
X139027000Y-106968595D01*
X139027000Y-106391404D01*
X139030427Y-106383131D01*
X139038400Y-106379708D01*
X139136472Y-106377200D01*
X139226296Y-106369600D01*
X139301384Y-106358400D01*
X139366647Y-106344800D01*
X139366839Y-106344755D01*
X139426999Y-106330000D01*
X139487199Y-106315237D01*
X139487491Y-106315170D01*
X139552298Y-106301665D01*
X139552936Y-106301552D01*
X139627344Y-106290453D01*
X139628076Y-106290368D01*
X139717192Y-106282828D01*
X139717856Y-106282791D01*
X139815030Y-106280306D01*
X139823388Y-106283520D01*
G37*
%TD.AperFunction*%
%TD*%
%TA.AperFunction,Conductor*%
%TO.N,GPIO_34*%
G36*
X137991092Y-106182249D02*
G01*
X138035000Y-106211830D01*
X138084895Y-106242452D01*
X138084909Y-106242460D01*
X138085000Y-106242516D01*
X138135000Y-106270201D01*
X138185000Y-106294886D01*
X138235000Y-106316572D01*
X138284999Y-106335258D01*
X138334999Y-106350943D01*
X138384999Y-106363629D01*
X138434999Y-106373314D01*
X138474851Y-106378642D01*
X138482597Y-106383135D01*
X138485000Y-106390239D01*
X138485000Y-106969619D01*
X138481573Y-106977892D01*
X138474694Y-106981236D01*
X138435153Y-106985981D01*
X138435136Y-106985983D01*
X138434999Y-106986000D01*
X138434855Y-106986025D01*
X138434841Y-106986028D01*
X138385156Y-106994971D01*
X138385130Y-106994976D01*
X138384999Y-106995000D01*
X138384877Y-106995029D01*
X138384840Y-106995037D01*
X138335141Y-107006965D01*
X138335109Y-107006973D01*
X138334999Y-107007000D01*
X138334895Y-107007031D01*
X138334866Y-107007039D01*
X138285147Y-107021955D01*
X138285127Y-107021961D01*
X138284999Y-107022000D01*
X138284870Y-107022046D01*
X138284838Y-107022057D01*
X138235156Y-107039943D01*
X138235126Y-107039954D01*
X138235000Y-107040000D01*
X138234888Y-107040046D01*
X138234852Y-107040061D01*
X138185123Y-107060948D01*
X138185110Y-107060953D01*
X138185000Y-107061000D01*
X138184902Y-107061047D01*
X138184882Y-107061056D01*
X138135101Y-107084951D01*
X138135084Y-107084959D01*
X138135000Y-107085000D01*
X138134900Y-107085053D01*
X138134898Y-107085055D01*
X138085111Y-107111939D01*
X138085076Y-107111958D01*
X138085000Y-107112000D01*
X138084919Y-107112048D01*
X138084899Y-107112060D01*
X138035109Y-107141934D01*
X138035088Y-107141946D01*
X138035000Y-107142000D01*
X138034914Y-107142056D01*
X138034885Y-107142075D01*
X137991085Y-107170983D01*
X137982292Y-107172680D01*
X137978713Y-107171306D01*
X137151223Y-106685119D01*
X137145826Y-106677973D01*
X137147062Y-106669104D01*
X137151248Y-106664929D01*
X137978658Y-106181847D01*
X137987528Y-106180636D01*
X137991092Y-106182249D01*
G37*
%TD.AperFunction*%
%TD*%
%TA.AperFunction,Conductor*%
%TO.N,GPIO_34*%
G36*
X131691098Y-106179086D02*
G01*
X131735000Y-106208500D01*
X131785000Y-106239000D01*
X131785124Y-106239068D01*
X131834894Y-106266442D01*
X131834902Y-106266446D01*
X131835000Y-106266500D01*
X131885000Y-106291000D01*
X131935000Y-106312500D01*
X131984999Y-106330999D01*
X132034999Y-106346499D01*
X132084999Y-106358999D01*
X132134999Y-106368499D01*
X132174809Y-106373675D01*
X132182571Y-106378138D01*
X132185000Y-106385276D01*
X132185000Y-106964722D01*
X132181573Y-106972995D01*
X132174809Y-106976324D01*
X132135162Y-106981478D01*
X132135135Y-106981482D01*
X132134999Y-106981500D01*
X132134851Y-106981527D01*
X132134833Y-106981531D01*
X132085169Y-106990967D01*
X132085143Y-106990972D01*
X132084999Y-106991000D01*
X132084874Y-106991031D01*
X132084843Y-106991038D01*
X132035143Y-107003463D01*
X132035113Y-107003471D01*
X132034999Y-107003500D01*
X132034856Y-107003544D01*
X132034843Y-107003548D01*
X131985170Y-107018946D01*
X131985138Y-107018956D01*
X131984999Y-107019000D01*
X131984846Y-107019056D01*
X131984839Y-107019059D01*
X131935154Y-107037442D01*
X131935120Y-107037455D01*
X131935000Y-107037500D01*
X131934879Y-107037551D01*
X131934859Y-107037560D01*
X131885114Y-107058949D01*
X131885086Y-107058961D01*
X131885000Y-107058999D01*
X131884876Y-107059059D01*
X131884869Y-107059063D01*
X131835117Y-107083441D01*
X131835090Y-107083454D01*
X131835000Y-107083499D01*
X131834931Y-107083536D01*
X131834894Y-107083556D01*
X131785124Y-107110930D01*
X131785098Y-107110944D01*
X131785000Y-107110999D01*
X131784889Y-107111066D01*
X131784873Y-107111076D01*
X131735115Y-107141428D01*
X131735082Y-107141448D01*
X131735000Y-107141499D01*
X131734937Y-107141541D01*
X131734876Y-107141580D01*
X131691103Y-107170909D01*
X131682323Y-107172667D01*
X131678664Y-107171277D01*
X131327107Y-106964722D01*
X130851168Y-106685087D01*
X130845772Y-106677942D01*
X130847008Y-106669073D01*
X130851167Y-106664913D01*
X131678667Y-106178720D01*
X131687534Y-106177485D01*
X131691098Y-106179086D01*
G37*
%TD.AperFunction*%
%TD*%
%TA.AperFunction,Conductor*%
%TO.N,GPIO_34*%
G36*
X136291331Y-106178720D02*
G01*
X136642890Y-106385276D01*
X137118830Y-106664912D01*
X137124227Y-106672058D01*
X137122991Y-106680927D01*
X137118830Y-106685088D01*
X136291334Y-107171278D01*
X136282465Y-107172514D01*
X136278898Y-107170912D01*
X136234999Y-107141499D01*
X136184999Y-107110999D01*
X136184874Y-107110930D01*
X136135104Y-107083556D01*
X136135082Y-107083544D01*
X136134999Y-107083499D01*
X136084999Y-107058999D01*
X136084872Y-107058944D01*
X136084856Y-107058937D01*
X136035158Y-107037568D01*
X136035160Y-107037568D01*
X136035000Y-107037500D01*
X136034864Y-107037450D01*
X136034845Y-107037442D01*
X135985159Y-107019059D01*
X135985000Y-107019000D01*
X135984849Y-107018953D01*
X135984828Y-107018946D01*
X135935155Y-107003548D01*
X135935153Y-107003547D01*
X135935000Y-107003500D01*
X135934877Y-107003469D01*
X135934855Y-107003463D01*
X135885155Y-106991038D01*
X135885131Y-106991032D01*
X135885000Y-106991000D01*
X135884847Y-106990970D01*
X135884829Y-106990967D01*
X135835165Y-106981531D01*
X135835152Y-106981529D01*
X135835000Y-106981500D01*
X135834857Y-106981481D01*
X135834836Y-106981478D01*
X135795191Y-106976324D01*
X135787429Y-106971859D01*
X135785000Y-106964722D01*
X135785000Y-106385276D01*
X135788427Y-106377003D01*
X135795189Y-106373675D01*
X135835000Y-106368499D01*
X135885000Y-106358999D01*
X135935000Y-106346499D01*
X135985000Y-106330999D01*
X136035000Y-106312500D01*
X136084999Y-106291000D01*
X136134999Y-106266500D01*
X136184999Y-106239000D01*
X136234999Y-106208500D01*
X136278898Y-106179088D01*
X136287675Y-106177331D01*
X136291331Y-106178720D01*
G37*
%TD.AperFunction*%
%TD*%
%TA.AperFunction,Conductor*%
%TO.N,GPIO_34*%
G36*
X176235661Y-86458291D02*
G01*
X176431708Y-86654338D01*
X176435135Y-86662611D01*
X176431939Y-86670647D01*
X176376273Y-86729550D01*
X176376255Y-86729569D01*
X176376125Y-86729708D01*
X176376000Y-86729860D01*
X176375987Y-86729876D01*
X176328299Y-86788335D01*
X176328292Y-86788343D01*
X176328121Y-86788554D01*
X176327972Y-86788776D01*
X176327963Y-86788789D01*
X176292837Y-86841335D01*
X176292664Y-86841594D01*
X176292530Y-86841849D01*
X176292520Y-86841868D01*
X176266817Y-86891237D01*
X176266809Y-86891252D01*
X176266679Y-86891504D01*
X176266572Y-86891773D01*
X176266567Y-86891785D01*
X176247169Y-86940768D01*
X176247163Y-86940784D01*
X176247094Y-86940959D01*
X176247041Y-86941126D01*
X176247034Y-86941147D01*
X176230833Y-86992636D01*
X176230789Y-86992787D01*
X176214822Y-87049209D01*
X176196050Y-87113141D01*
X176195927Y-87113536D01*
X176171339Y-87187500D01*
X176171151Y-87188022D01*
X176141858Y-87263914D01*
X176135682Y-87270398D01*
X176126730Y-87270616D01*
X176126491Y-87270521D01*
X175771804Y-87124563D01*
X175765457Y-87118245D01*
X175765436Y-87118195D01*
X175692501Y-86940959D01*
X175619477Y-86763507D01*
X175619499Y-86754553D01*
X175625846Y-86748235D01*
X175625991Y-86748177D01*
X175701999Y-86718838D01*
X175702478Y-86718666D01*
X175776469Y-86694067D01*
X175776846Y-86693949D01*
X175840789Y-86675176D01*
X175897363Y-86659165D01*
X175897507Y-86659120D01*
X175926081Y-86650128D01*
X175949039Y-86642904D01*
X175998495Y-86623319D01*
X176048404Y-86597335D01*
X176101444Y-86561878D01*
X176160291Y-86513874D01*
X176219354Y-86458059D01*
X176227719Y-86454869D01*
X176235661Y-86458291D01*
G37*
%TD.AperFunction*%
%TD*%
%TA.AperFunction,Conductor*%
%TO.N,GPIO_34*%
G36*
X195357499Y-77208940D02*
G01*
X195697130Y-77349138D01*
X196046211Y-77493237D01*
X196052551Y-77499562D01*
X196052562Y-77499588D01*
X196336854Y-78188287D01*
X196336843Y-78197241D01*
X196330503Y-78203566D01*
X196329822Y-78203822D01*
X196197406Y-78249073D01*
X196195898Y-78249479D01*
X196069916Y-78274453D01*
X196068508Y-78274644D01*
X195956293Y-78282979D01*
X195955313Y-78283010D01*
X195853103Y-78282025D01*
X195852852Y-78282020D01*
X195757412Y-78279049D01*
X195757392Y-78279048D01*
X195757234Y-78279044D01*
X195757082Y-78279048D01*
X195757064Y-78279048D01*
X195665529Y-78281490D01*
X195665524Y-78281490D01*
X195665129Y-78281501D01*
X195664746Y-78281564D01*
X195664733Y-78281566D01*
X195573189Y-78296822D01*
X195516307Y-78318091D01*
X195477950Y-78332434D01*
X195477948Y-78332434D01*
X195477948Y-78332435D01*
X195375942Y-78395761D01*
X195271936Y-78487005D01*
X195263457Y-78489885D01*
X195255947Y-78486483D01*
X195059315Y-78289851D01*
X195055888Y-78281578D01*
X195058791Y-78273865D01*
X195150036Y-78169857D01*
X195213364Y-78067848D01*
X195248976Y-77972608D01*
X195264297Y-77880669D01*
X195266755Y-77788564D01*
X195263776Y-77692879D01*
X195263774Y-77692765D01*
X195262787Y-77590464D01*
X195262817Y-77589524D01*
X195271153Y-77477285D01*
X195271344Y-77475882D01*
X195296321Y-77349894D01*
X195296722Y-77348401D01*
X195341978Y-77215974D01*
X195347895Y-77209256D01*
X195356832Y-77208689D01*
X195357499Y-77208940D01*
G37*
%TD.AperFunction*%
%TD*%
%TA.AperFunction,Conductor*%
%TO.N,GPIO_36*%
G36*
X195762873Y-71722638D02*
G01*
X195763173Y-71723301D01*
X196049133Y-72411309D01*
X196049144Y-72420263D01*
X196049133Y-72420289D01*
X195763173Y-73108297D01*
X195756833Y-73114622D01*
X195747879Y-73114611D01*
X195747216Y-73114311D01*
X195621580Y-73052673D01*
X195620227Y-73051893D01*
X195513493Y-72980476D01*
X195512361Y-72979615D01*
X195427125Y-72906165D01*
X195426411Y-72905495D01*
X195354829Y-72832520D01*
X195354654Y-72832339D01*
X195289245Y-72762727D01*
X195289237Y-72762719D01*
X195289145Y-72762621D01*
X195289047Y-72762528D01*
X195289038Y-72762519D01*
X195222572Y-72699508D01*
X195222279Y-72699230D01*
X195146435Y-72645053D01*
X195146434Y-72645052D01*
X195146432Y-72645051D01*
X195087867Y-72618364D01*
X195053908Y-72602890D01*
X195053906Y-72602889D01*
X195053905Y-72602889D01*
X194937000Y-72575539D01*
X194798937Y-72566514D01*
X194790905Y-72562555D01*
X194788000Y-72554839D01*
X194788000Y-72276760D01*
X194791427Y-72268487D01*
X194798936Y-72265085D01*
X194936998Y-72256060D01*
X195053908Y-72228709D01*
X195146435Y-72186545D01*
X195222279Y-72132368D01*
X195289145Y-72068978D01*
X195354694Y-71999216D01*
X195354829Y-71999077D01*
X195426411Y-71926102D01*
X195427117Y-71925439D01*
X195512366Y-71851978D01*
X195513486Y-71851126D01*
X195620240Y-71779697D01*
X195621567Y-71778932D01*
X195747219Y-71717286D01*
X195756152Y-71716720D01*
X195762873Y-71722638D01*
G37*
%TD.AperFunction*%
%TD*%
%TA.AperFunction,Conductor*%
%TO.N,GPIO_36*%
G36*
X139118444Y-65032579D02*
G01*
X139124772Y-65038915D01*
X139125099Y-65039807D01*
X139154433Y-65131105D01*
X139154825Y-65132701D01*
X139172087Y-65233087D01*
X139172224Y-65234199D01*
X139179428Y-65330702D01*
X139179455Y-65331216D01*
X139182224Y-65421832D01*
X139186254Y-65504246D01*
X139186297Y-65504531D01*
X139186299Y-65504544D01*
X139197280Y-65576192D01*
X139221044Y-65635647D01*
X139221045Y-65635648D01*
X139221046Y-65635650D01*
X139263293Y-65680613D01*
X139329763Y-65709067D01*
X139415700Y-65717918D01*
X139423578Y-65722174D01*
X139426201Y-65729556D01*
X139426201Y-66006800D01*
X139422774Y-66015073D01*
X139414501Y-66018500D01*
X139400729Y-66018500D01*
X139302348Y-66016568D01*
X139301821Y-66016545D01*
X139200426Y-66009971D01*
X139199856Y-66009921D01*
X139114985Y-66000236D01*
X139114473Y-66000166D01*
X139040527Y-65988396D01*
X139040214Y-65988341D01*
X138971600Y-65975500D01*
X138902799Y-65962624D01*
X138902613Y-65962592D01*
X138828598Y-65950812D01*
X138828576Y-65950809D01*
X138828469Y-65950792D01*
X138743079Y-65941048D01*
X138742936Y-65941038D01*
X138742928Y-65941038D01*
X138641250Y-65934445D01*
X138641215Y-65934443D01*
X138641099Y-65934436D01*
X138640979Y-65934433D01*
X138640964Y-65934433D01*
X138528452Y-65932224D01*
X138520248Y-65928635D01*
X138516982Y-65920544D01*
X138516674Y-65719000D01*
X138516011Y-65285832D01*
X138519425Y-65277557D01*
X138523235Y-65275007D01*
X139109491Y-65032574D01*
X139118444Y-65032579D01*
G37*
%TD.AperFunction*%
%TD*%
%TA.AperFunction,Conductor*%
%TO.N,GPIO_16*%
G36*
X121148687Y-69408991D02*
G01*
X121345172Y-69605476D01*
X121348599Y-69613749D01*
X121345702Y-69621455D01*
X121262311Y-69716715D01*
X121204372Y-69810857D01*
X121172185Y-69898812D01*
X121158902Y-69983351D01*
X121158901Y-69983361D01*
X121158838Y-69983763D01*
X121158831Y-69984179D01*
X121158831Y-69984180D01*
X121157417Y-70068710D01*
X121157417Y-70068739D01*
X121157415Y-70068885D01*
X121157421Y-70069056D01*
X121157422Y-70069060D01*
X121160998Y-70157211D01*
X121161006Y-70157477D01*
X121162683Y-70251848D01*
X121162658Y-70252850D01*
X121155615Y-70356328D01*
X121155427Y-70357766D01*
X121132863Y-70473850D01*
X121132454Y-70475388D01*
X121091233Y-70596475D01*
X121085323Y-70603203D01*
X121076387Y-70603781D01*
X121075695Y-70603521D01*
X120486791Y-70360562D01*
X120480450Y-70354239D01*
X120480437Y-70354208D01*
X120237373Y-69765049D01*
X120237386Y-69756094D01*
X120243727Y-69749771D01*
X120244162Y-69749601D01*
X120357752Y-69708075D01*
X120358670Y-69707785D01*
X120466477Y-69678703D01*
X120467313Y-69678511D01*
X120561987Y-69660537D01*
X120562476Y-69660457D01*
X120647568Y-69648301D01*
X120726347Y-69636690D01*
X120801958Y-69620339D01*
X120877804Y-69593925D01*
X120957289Y-69552126D01*
X121043813Y-69489620D01*
X121132526Y-69408623D01*
X121140945Y-69405576D01*
X121148687Y-69408991D01*
G37*
%TD.AperFunction*%
%TD*%
%TA.AperFunction,Conductor*%
%TO.N,GPIO_16*%
G36*
X221162873Y-92042638D02*
G01*
X221163173Y-92043301D01*
X221449133Y-92731310D01*
X221449144Y-92740264D01*
X221449133Y-92740291D01*
X221163173Y-93428298D01*
X221156833Y-93434622D01*
X221147878Y-93434611D01*
X221147216Y-93434311D01*
X221021580Y-93372673D01*
X221020227Y-93371893D01*
X220913493Y-93300476D01*
X220912361Y-93299615D01*
X220827125Y-93226165D01*
X220826411Y-93225495D01*
X220754829Y-93152520D01*
X220754654Y-93152339D01*
X220689245Y-93082727D01*
X220689237Y-93082719D01*
X220689145Y-93082621D01*
X220689047Y-93082528D01*
X220689038Y-93082519D01*
X220622572Y-93019508D01*
X220622279Y-93019230D01*
X220546435Y-92965053D01*
X220546434Y-92965052D01*
X220546432Y-92965051D01*
X220487866Y-92938364D01*
X220453908Y-92922890D01*
X220453906Y-92922889D01*
X220453905Y-92922889D01*
X220337000Y-92895539D01*
X220198937Y-92886514D01*
X220190905Y-92882555D01*
X220188000Y-92874839D01*
X220188000Y-92596760D01*
X220191427Y-92588487D01*
X220198936Y-92585085D01*
X220336998Y-92576060D01*
X220453908Y-92548709D01*
X220546435Y-92506545D01*
X220622279Y-92452368D01*
X220689145Y-92388978D01*
X220754694Y-92319216D01*
X220754829Y-92319077D01*
X220826411Y-92246102D01*
X220827117Y-92245439D01*
X220912366Y-92171978D01*
X220913486Y-92171126D01*
X221020240Y-92099697D01*
X221021567Y-92098932D01*
X221147219Y-92037286D01*
X221156152Y-92036720D01*
X221162873Y-92042638D01*
G37*
%TD.AperFunction*%
%TD*%
%TA.AperFunction,Conductor*%
%TO.N,GPIO_17*%
G36*
X221451146Y-90198519D02*
G01*
X221453696Y-90202336D01*
X221737064Y-90888796D01*
X221737053Y-90897750D01*
X221730713Y-90904075D01*
X221730529Y-90904149D01*
X221619727Y-90947700D01*
X221619358Y-90947838D01*
X221516356Y-90984368D01*
X221516123Y-90984448D01*
X221427772Y-91013705D01*
X221350245Y-91039659D01*
X221350041Y-91039734D01*
X221279934Y-91066200D01*
X221279912Y-91066208D01*
X221279743Y-91066273D01*
X221279577Y-91066349D01*
X221279558Y-91066358D01*
X221212602Y-91097433D01*
X221212595Y-91097436D01*
X221212355Y-91097548D01*
X221212130Y-91097679D01*
X221212120Y-91097685D01*
X221144412Y-91137344D01*
X221144399Y-91137352D01*
X221144171Y-91137486D01*
X221143950Y-91137645D01*
X221143940Y-91137652D01*
X221071478Y-91189945D01*
X221071468Y-91189952D01*
X221071282Y-91190087D01*
X221071118Y-91190226D01*
X221071098Y-91190242D01*
X220989903Y-91259245D01*
X220989885Y-91259260D01*
X220989777Y-91259353D01*
X220989667Y-91259457D01*
X220989655Y-91259469D01*
X220904016Y-91341376D01*
X220895668Y-91344618D01*
X220887656Y-91341194D01*
X220691274Y-91144812D01*
X220687847Y-91136539D01*
X220690661Y-91128929D01*
X220764613Y-91042627D01*
X220811874Y-90956633D01*
X220831336Y-90876004D01*
X220828937Y-90797573D01*
X220810615Y-90718173D01*
X220782309Y-90634637D01*
X220750049Y-90544059D01*
X220749867Y-90543503D01*
X220719661Y-90443046D01*
X220719385Y-90441937D01*
X220717695Y-90433356D01*
X220697004Y-90328263D01*
X220696813Y-90326817D01*
X220688839Y-90208272D01*
X220691703Y-90199789D01*
X220699728Y-90195814D01*
X220700489Y-90195788D01*
X221442870Y-90195100D01*
X221451146Y-90198519D01*
G37*
%TD.AperFunction*%
%TD*%
%TA.AperFunction,Conductor*%
%TO.N,GPIO_17*%
G36*
X120743842Y-67218843D02*
G01*
X120744388Y-67219087D01*
X120857880Y-67273252D01*
X120859007Y-67273868D01*
X120957634Y-67335031D01*
X120958583Y-67335686D01*
X121038638Y-67397006D01*
X121039226Y-67397487D01*
X121107579Y-67457273D01*
X121170701Y-67513466D01*
X121234977Y-67563852D01*
X121307076Y-67606466D01*
X121393668Y-67639340D01*
X121501419Y-67660507D01*
X121625946Y-67667389D01*
X121634017Y-67671267D01*
X121637000Y-67679071D01*
X121637000Y-67956928D01*
X121633573Y-67965201D01*
X121625946Y-67968610D01*
X121501827Y-67975469D01*
X121501820Y-67975469D01*
X121501419Y-67975492D01*
X121501023Y-67975569D01*
X121501021Y-67975570D01*
X121393665Y-67996659D01*
X121307075Y-68029533D01*
X121235316Y-68071945D01*
X121235309Y-68071949D01*
X121234977Y-68072146D01*
X121234677Y-68072381D01*
X121234667Y-68072388D01*
X121170839Y-68122424D01*
X121170822Y-68122437D01*
X121170701Y-68122533D01*
X121170595Y-68122626D01*
X121170575Y-68122644D01*
X121107579Y-68178726D01*
X121039226Y-68238511D01*
X121038638Y-68238992D01*
X120958583Y-68300311D01*
X120957634Y-68300966D01*
X120859007Y-68362130D01*
X120857880Y-68362746D01*
X120744388Y-68416912D01*
X120735446Y-68417383D01*
X120728790Y-68411392D01*
X120728546Y-68410846D01*
X120483868Y-67822492D01*
X120483855Y-67813539D01*
X120728546Y-67225152D01*
X120734887Y-67218830D01*
X120743842Y-67218843D01*
G37*
%TD.AperFunction*%
%TD*%
%TA.AperFunction,Conductor*%
%TO.N,Net-(U2-SPK1)*%
G36*
X120744069Y-77378292D02*
G01*
X120850073Y-77422579D01*
X120850073Y-77422580D01*
X120947138Y-77463097D01*
X121029668Y-77496074D01*
X121029875Y-77496151D01*
X121095121Y-77519484D01*
X121102861Y-77522252D01*
X121171913Y-77542371D01*
X121242023Y-77557172D01*
X121318389Y-77567395D01*
X121406209Y-77573780D01*
X121510679Y-77577068D01*
X121510680Y-77577068D01*
X121510843Y-77577071D01*
X121608495Y-77577789D01*
X121625386Y-77577914D01*
X121633634Y-77581402D01*
X121637000Y-77589614D01*
X121637000Y-78366385D01*
X121633573Y-78374658D01*
X121625386Y-78378085D01*
X121510680Y-78378931D01*
X121510561Y-78378934D01*
X121406332Y-78382215D01*
X121406324Y-78382215D01*
X121406209Y-78382219D01*
X121406127Y-78382224D01*
X121406085Y-78382227D01*
X121318557Y-78388591D01*
X121318532Y-78388593D01*
X121318389Y-78388604D01*
X121318236Y-78388624D01*
X121318231Y-78388625D01*
X121242225Y-78398799D01*
X121242201Y-78398803D01*
X121242023Y-78398827D01*
X121241829Y-78398867D01*
X121241823Y-78398869D01*
X121172131Y-78413581D01*
X121172107Y-78413586D01*
X121171913Y-78413628D01*
X121171708Y-78413687D01*
X121171695Y-78413691D01*
X121103030Y-78433697D01*
X121103006Y-78433704D01*
X121102861Y-78433747D01*
X121102716Y-78433798D01*
X121102697Y-78433805D01*
X121029668Y-78459925D01*
X121029474Y-78460000D01*
X120947138Y-78492902D01*
X120850073Y-78533419D01*
X120744088Y-78577699D01*
X120735134Y-78577726D01*
X120728782Y-78571413D01*
X120728775Y-78571396D01*
X120648383Y-78378085D01*
X120483867Y-77982491D01*
X120483855Y-77973539D01*
X120728775Y-77384602D01*
X120735116Y-77378280D01*
X120744069Y-77378292D01*
G37*
%TD.AperFunction*%
%TD*%
%TA.AperFunction,Conductor*%
%TO.N,Net-(U2-SPK1)*%
G36*
X142753501Y-89452440D02*
G01*
X142754762Y-89453171D01*
X143462491Y-89924362D01*
X143486372Y-89940261D01*
X143491359Y-89947698D01*
X143489627Y-89956484D01*
X143486372Y-89959739D01*
X142754768Y-90446825D01*
X142745982Y-90448557D01*
X142744568Y-90448180D01*
X142699999Y-90433250D01*
X142699845Y-90433202D01*
X142649999Y-90418000D01*
X142649849Y-90417958D01*
X142599999Y-90404250D01*
X142599828Y-90404207D01*
X142549999Y-90392000D01*
X142549827Y-90391961D01*
X142500000Y-90381250D01*
X142499834Y-90381218D01*
X142450000Y-90371999D01*
X142449841Y-90371973D01*
X142400000Y-90364249D01*
X142399820Y-90364225D01*
X142350000Y-90357999D01*
X142349822Y-90357980D01*
X142300000Y-90353249D01*
X142299854Y-90353239D01*
X142260941Y-90350710D01*
X142252908Y-90346754D01*
X142250000Y-90339035D01*
X142250000Y-89560963D01*
X142253427Y-89552690D01*
X142260938Y-89549288D01*
X142300000Y-89546750D01*
X142300202Y-89546733D01*
X142350000Y-89542000D01*
X142350166Y-89541981D01*
X142400000Y-89535750D01*
X142400161Y-89535726D01*
X142450000Y-89528000D01*
X142450171Y-89527970D01*
X142500000Y-89518750D01*
X142500179Y-89518714D01*
X142549999Y-89507999D01*
X142550144Y-89507964D01*
X142599999Y-89495749D01*
X142600146Y-89495709D01*
X142649999Y-89481999D01*
X142650160Y-89481951D01*
X142699999Y-89466749D01*
X142700148Y-89466700D01*
X142727380Y-89457576D01*
X142744569Y-89451819D01*
X142753501Y-89452440D01*
G37*
%TD.AperFunction*%
%TD*%
%TA.AperFunction,Conductor*%
%TO.N,Net-(U2-SPK2)*%
G36*
X142753501Y-90752440D02*
G01*
X142754762Y-90753171D01*
X143462491Y-91224362D01*
X143486372Y-91240261D01*
X143491359Y-91247698D01*
X143489627Y-91256484D01*
X143486372Y-91259739D01*
X142754768Y-91746825D01*
X142745982Y-91748557D01*
X142744568Y-91748180D01*
X142699999Y-91733250D01*
X142699845Y-91733202D01*
X142649999Y-91718000D01*
X142649849Y-91717958D01*
X142599999Y-91704250D01*
X142599828Y-91704207D01*
X142549999Y-91692000D01*
X142549827Y-91691961D01*
X142500000Y-91681250D01*
X142499834Y-91681218D01*
X142450000Y-91671999D01*
X142449841Y-91671973D01*
X142400000Y-91664249D01*
X142399820Y-91664225D01*
X142350000Y-91657999D01*
X142349822Y-91657980D01*
X142300000Y-91653249D01*
X142299854Y-91653239D01*
X142260941Y-91650710D01*
X142252908Y-91646754D01*
X142250000Y-91639035D01*
X142250000Y-90860963D01*
X142253427Y-90852690D01*
X142260938Y-90849288D01*
X142300000Y-90846750D01*
X142300202Y-90846733D01*
X142350000Y-90842000D01*
X142350166Y-90841981D01*
X142400000Y-90835750D01*
X142400161Y-90835726D01*
X142450000Y-90828000D01*
X142450171Y-90827970D01*
X142500000Y-90818750D01*
X142500179Y-90818714D01*
X142549999Y-90807999D01*
X142550144Y-90807964D01*
X142599999Y-90795749D01*
X142600146Y-90795709D01*
X142649999Y-90781999D01*
X142650160Y-90781951D01*
X142699999Y-90766749D01*
X142700148Y-90766700D01*
X142727380Y-90757576D01*
X142744569Y-90751819D01*
X142753501Y-90752440D01*
G37*
%TD.AperFunction*%
%TD*%
%TA.AperFunction,Conductor*%
%TO.N,Net-(U2-SPK2)*%
G36*
X120744069Y-82458292D02*
G01*
X120850073Y-82502580D01*
X120947138Y-82543097D01*
X121029668Y-82576074D01*
X121029875Y-82576151D01*
X121095121Y-82599484D01*
X121102861Y-82602252D01*
X121171913Y-82622371D01*
X121242023Y-82637172D01*
X121318389Y-82647395D01*
X121406209Y-82653780D01*
X121510679Y-82657068D01*
X121510680Y-82657068D01*
X121510843Y-82657071D01*
X121608495Y-82657789D01*
X121625386Y-82657914D01*
X121633634Y-82661402D01*
X121637000Y-82669614D01*
X121637000Y-83446385D01*
X121633573Y-83454658D01*
X121625386Y-83458085D01*
X121510680Y-83458931D01*
X121510561Y-83458934D01*
X121406332Y-83462215D01*
X121406324Y-83462215D01*
X121406209Y-83462219D01*
X121406127Y-83462224D01*
X121406085Y-83462227D01*
X121318557Y-83468591D01*
X121318532Y-83468593D01*
X121318389Y-83468604D01*
X121318236Y-83468624D01*
X121318231Y-83468625D01*
X121242225Y-83478799D01*
X121242201Y-83478803D01*
X121242023Y-83478827D01*
X121241829Y-83478867D01*
X121241823Y-83478869D01*
X121172131Y-83493581D01*
X121172107Y-83493586D01*
X121171913Y-83493628D01*
X121171708Y-83493687D01*
X121171695Y-83493691D01*
X121103030Y-83513697D01*
X121103006Y-83513704D01*
X121102861Y-83513747D01*
X121102716Y-83513798D01*
X121102697Y-83513805D01*
X121029668Y-83539925D01*
X121029474Y-83540000D01*
X120947138Y-83572902D01*
X120850073Y-83613419D01*
X120744088Y-83657699D01*
X120735134Y-83657726D01*
X120728782Y-83651413D01*
X120728775Y-83651396D01*
X120648383Y-83458085D01*
X120483867Y-83062491D01*
X120483855Y-83053539D01*
X120728775Y-82464602D01*
X120735116Y-82458280D01*
X120744069Y-82458292D01*
G37*
%TD.AperFunction*%
%TD*%
D21*
X120904000Y-55880000D02*
G75*
G03*
X120904000Y-55880000I-1524000J0D01*
G01*
X225044000Y-124460000D02*
G75*
G03*
X225044000Y-124460000I-1524000J0D01*
G01*
X120904000Y-124460000D02*
G75*
G03*
X120904000Y-124460000I-1524000J0D01*
G01*
D22*
X116840000Y-53340000D02*
X226060000Y-53340000D01*
X226060000Y-127000000D01*
X116840000Y-127000000D01*
X116840000Y-53340000D01*
D21*
X225044000Y-55880000D02*
G75*
G03*
X225044000Y-55880000I-1524000J0D01*
G01*
M02*
