%TF.GenerationSoftware,KiCad,Pcbnew,7.0.2-6a45011f42~172~ubuntu22.10.1*%
%TF.CreationDate,2023-07-27T16:52:51+05:00*%
%TF.ProjectId,id4,6964342e-6b69-4636-9164-5f7063625858,1*%
%TF.SameCoordinates,Original*%
%TF.FileFunction,Soldermask,Top*%
%TF.FilePolarity,Negative*%
%FSLAX46Y46*%
G04 Gerber Fmt 4.6, Leading zero omitted, Abs format (unit mm)*
G04 Created by KiCad (PCBNEW 7.0.2-6a45011f42~172~ubuntu22.10.1) date 2023-07-27 16:52:51*
%MOMM*%
%LPD*%
G01*
G04 APERTURE LIST*
%ADD10R,1.700000X1.000000*%
%ADD11O,1.070000X1.800000*%
%ADD12R,1.500000X1.000000*%
%ADD13R,1.308000X1.308000*%
%ADD14C,1.308000*%
%ADD15R,1.524000X1.524000*%
%ADD16C,1.524000*%
%ADD17C,0.800000*%
%TA.AperFunction,Profile*%
%ADD18C,0.150000*%
%TD*%
%TA.AperFunction,Profile*%
%ADD19C,0.200000*%
%TD*%
G04 APERTURE END LIST*
D10*
%TO.C,SW1*%
X138557000Y-113030000D03*
X144857000Y-113030000D03*
X138557000Y-116830000D03*
X144857000Y-116830000D03*
%TD*%
D11*
%TO.C,D1*%
X120650000Y-59690000D03*
X121920000Y-59690000D03*
X123190000Y-59690000D03*
X124460000Y-59690000D03*
%TD*%
%TO.C,D5*%
X120650000Y-120650000D03*
X121920000Y-120650000D03*
X123190000Y-120650000D03*
X124460000Y-120650000D03*
%TD*%
%TO.C,D4*%
X217805000Y-120650000D03*
X219075000Y-120650000D03*
X220345000Y-120650000D03*
X221615000Y-120650000D03*
%TD*%
%TO.C,D3*%
X217805000Y-59690000D03*
X219075000Y-59690000D03*
X220345000Y-59690000D03*
X221615000Y-59690000D03*
%TD*%
D12*
%TO.C,dynamic1*%
X143500000Y-89950000D03*
X143500000Y-91250000D03*
%TD*%
D10*
%TO.C,SW2*%
X123215000Y-92715000D03*
X129515000Y-92715000D03*
X123215000Y-96515000D03*
X129515000Y-96515000D03*
%TD*%
D13*
%TO.C,U2*%
X120483000Y-65278000D03*
D14*
X120483000Y-67818000D03*
X120483000Y-70358000D03*
X120483000Y-72898000D03*
X120483000Y-75438000D03*
X120483000Y-77978000D03*
X120483000Y-80518000D03*
X120483000Y-83058000D03*
X138517000Y-83058000D03*
X138517000Y-80518000D03*
X138517000Y-77978000D03*
X138517000Y-75438000D03*
X138517000Y-72898000D03*
X138517000Y-70358000D03*
X138517000Y-67818000D03*
X138517000Y-65278000D03*
%TD*%
D15*
%TO.C,U1*%
X196050000Y-69875800D03*
D16*
X196050000Y-72415800D03*
X196050000Y-74955800D03*
X196050000Y-77495800D03*
X196050000Y-80035800D03*
X196050000Y-82575800D03*
X196050000Y-85115800D03*
X196050000Y-87655800D03*
X196050000Y-90195800D03*
X196050000Y-92735800D03*
X196050000Y-95275800D03*
X196050000Y-97815800D03*
X196050000Y-100355800D03*
X196050000Y-102895800D03*
X196050000Y-105435800D03*
X221450000Y-105435800D03*
X221450000Y-102895800D03*
X221450000Y-100355800D03*
X221450000Y-97815800D03*
X221450000Y-95275800D03*
X221450000Y-92735800D03*
X221450000Y-90195800D03*
X221450000Y-87655800D03*
X221450000Y-85115800D03*
X221450000Y-82575800D03*
X221450000Y-80035800D03*
X221450000Y-77495800D03*
X221450000Y-74955800D03*
X221450000Y-72415800D03*
X221450000Y-69875800D03*
%TD*%
D10*
%TO.C,SW3*%
X130835000Y-102875000D03*
X137135000Y-102875000D03*
X130835000Y-106675000D03*
X137135000Y-106675000D03*
%TD*%
D11*
%TO.C,D2*%
X165100000Y-59690000D03*
X166370000Y-59690000D03*
X167640000Y-59690000D03*
X168910000Y-59690000D03*
%TD*%
D17*
X218440000Y-100330000D03*
X156210000Y-78232000D03*
X218440000Y-97790000D03*
X156210000Y-72644000D03*
X156184600Y-68681600D03*
X218440000Y-95250000D03*
X176276000Y-76454000D03*
X147574000Y-116840000D03*
X177038000Y-88392000D03*
X132207000Y-96520000D03*
X174498000Y-85852000D03*
X175768000Y-87122000D03*
X139827000Y-106680000D03*
D18*
X120904000Y-55880000D02*
G75*
G03*
X120904000Y-55880000I-1524000J0D01*
G01*
X225044000Y-124460000D02*
G75*
G03*
X225044000Y-124460000I-1524000J0D01*
G01*
X120904000Y-124460000D02*
G75*
G03*
X120904000Y-124460000I-1524000J0D01*
G01*
D19*
X116840000Y-53340000D02*
X226060000Y-53340000D01*
X226060000Y-127000000D01*
X116840000Y-127000000D01*
X116840000Y-53340000D01*
D18*
X225044000Y-55880000D02*
G75*
G03*
X225044000Y-55880000I-1524000J0D01*
G01*
M02*
