M48
; DRILL file {KiCad 7.0.2-6a45011f42~172~ubuntu22.10.1} date Чт 27 июл 2023 16:52:46
; FORMAT={-:-/ absolute / inch / decimal}
; #@! TF.CreationDate,2023-07-27T16:52:46+05:00
; #@! TF.GenerationSoftware,Kicad,Pcbnew,7.0.2-6a45011f42~172~ubuntu22.10.1
; #@! TF.FileFunction,Plated,1,2,PTH
FMAT,2
INCH
; #@! TA.AperFunction,Plated,PTH,ViaDrill
T1C0.0157
; #@! TA.AperFunction,Plated,PTH,ComponentDrill
T2C0.0236
; #@! TA.AperFunction,Plated,PTH,ComponentDrill
T3C0.0300
; #@! TA.AperFunction,Plated,PTH,ComponentDrill
T4C0.0315
%
G90
G05
T1
X5.205Y-3.8
X5.505Y-4.2
X5.81Y-4.6
X6.149Y-2.704
X6.15Y-2.86
X6.15Y-3.08
X6.87Y-3.38
X6.92Y-3.43
X6.94Y-3.01
X6.97Y-3.48
X8.6Y-3.75
X8.6Y-3.85
X8.6Y-3.95
T2
X4.75Y-2.35
X4.75Y-4.75
X4.8Y-2.35
X4.8Y-4.75
X4.85Y-2.35
X4.85Y-4.75
X4.9Y-2.35
X4.9Y-4.75
X6.5Y-2.35
X6.55Y-2.35
X6.6Y-2.35
X6.65Y-2.35
X8.575Y-2.35
X8.575Y-4.75
X8.625Y-2.35
X8.625Y-4.75
X8.675Y-2.35
X8.675Y-4.75
X8.725Y-2.35
X8.725Y-4.75
T3
X7.7185Y-2.751
X7.7185Y-2.851
X7.7185Y-2.951
X7.7185Y-3.051
X7.7185Y-3.151
X7.7185Y-3.251
X7.7185Y-3.351
X7.7185Y-3.451
X7.7185Y-3.551
X7.7185Y-3.651
X7.7185Y-3.751
X7.7185Y-3.851
X7.7185Y-3.951
X7.7185Y-4.051
X7.7185Y-4.151
X8.7185Y-2.751
X8.7185Y-2.851
X8.7185Y-2.951
X8.7185Y-3.051
X8.7185Y-3.151
X8.7185Y-3.251
X8.7185Y-3.351
X8.7185Y-3.451
X8.7185Y-3.551
X8.7185Y-3.651
X8.7185Y-3.751
X8.7185Y-3.851
X8.7185Y-3.951
X8.7185Y-4.051
X8.7185Y-4.151
T4
X4.7434Y-2.57
X4.7434Y-2.67
X4.7434Y-2.77
X4.7434Y-2.87
X4.7434Y-2.97
X4.7434Y-3.07
X4.7434Y-3.17
X4.7434Y-3.27
X5.4534Y-2.57
X5.4534Y-2.67
X5.4534Y-2.77
X5.4534Y-2.87
X5.4534Y-2.97
X5.4534Y-3.07
X5.4534Y-3.17
X5.4534Y-3.27
T0
M30
