%TF.GenerationSoftware,KiCad,Pcbnew,7.0.2-6a45011f42~172~ubuntu22.10.1*%
%TF.CreationDate,2023-08-15T16:25:11+05:00*%
%TF.ProjectId,IOTV,494f5456-2e6b-4696-9361-645f70636258,3*%
%TF.SameCoordinates,Original*%
%TF.FileFunction,Soldermask,Top*%
%TF.FilePolarity,Negative*%
%FSLAX46Y46*%
G04 Gerber Fmt 4.6, Leading zero omitted, Abs format (unit mm)*
G04 Created by KiCad (PCBNEW 7.0.2-6a45011f42~172~ubuntu22.10.1) date 2023-08-15 16:25:11*
%MOMM*%
%LPD*%
G01*
G04 APERTURE LIST*
G04 Aperture macros list*
%AMRoundRect*
0 Rectangle with rounded corners*
0 $1 Rounding radius*
0 $2 $3 $4 $5 $6 $7 $8 $9 X,Y pos of 4 corners*
0 Add a 4 corners polygon primitive as box body*
4,1,4,$2,$3,$4,$5,$6,$7,$8,$9,$2,$3,0*
0 Add four circle primitives for the rounded corners*
1,1,$1+$1,$2,$3*
1,1,$1+$1,$4,$5*
1,1,$1+$1,$6,$7*
1,1,$1+$1,$8,$9*
0 Add four rect primitives between the rounded corners*
20,1,$1+$1,$2,$3,$4,$5,0*
20,1,$1+$1,$4,$5,$6,$7,0*
20,1,$1+$1,$6,$7,$8,$9,0*
20,1,$1+$1,$8,$9,$2,$3,0*%
%AMFreePoly0*
4,1,18,0.843072,1.985355,1.985355,0.843072,2.000000,0.807717,2.000000,-0.807717,1.985355,-0.843072,0.843072,-1.985355,0.807717,-2.000000,0.000000,-2.000000,-0.807717,-2.000000,-0.843072,-1.985354,-1.985355,-0.843072,-2.000000,-0.807717,-2.000000,0.807717,-1.985354,0.843072,-0.843072,1.985355,-0.807717,2.000000,0.807717,2.000000,0.843072,1.985355,0.843072,1.985355,$1*%
G04 Aperture macros list end*
%ADD10C,2.000000*%
%ADD11R,1.700000X1.700000*%
%ADD12O,1.700000X1.700000*%
%ADD13R,0.900000X1.500000*%
%ADD14R,1.500000X0.900000*%
%ADD15R,0.900000X0.900000*%
%ADD16R,1.700000X1.000000*%
%ADD17C,2.400000*%
%ADD18RoundRect,0.249600X0.950400X-0.950400X0.950400X0.950400X-0.950400X0.950400X-0.950400X-0.950400X0*%
%ADD19C,4.000000*%
%ADD20FreePoly0,0.000000*%
%ADD21C,1.500000*%
%ADD22R,1.500000X1.500000*%
%ADD23R,2.600000X2.600000*%
%ADD24C,2.600000*%
%ADD25C,1.700000*%
%ADD26R,3.000000X3.000000*%
%ADD27C,3.000000*%
%ADD28RoundRect,0.250000X0.650000X-0.325000X0.650000X0.325000X-0.650000X0.325000X-0.650000X-0.325000X0*%
%ADD29RoundRect,0.250000X0.325000X0.650000X-0.325000X0.650000X-0.325000X-0.650000X0.325000X-0.650000X0*%
%ADD30RoundRect,0.250000X0.625000X-0.312500X0.625000X0.312500X-0.625000X0.312500X-0.625000X-0.312500X0*%
%ADD31RoundRect,0.250000X-0.650000X0.325000X-0.650000X-0.325000X0.650000X-0.325000X0.650000X0.325000X0*%
%TA.AperFunction,Profile*%
%ADD32C,0.150000*%
%TD*%
G04 APERTURE END LIST*
D10*
%TO.C,C5*%
X117694000Y-67998000D03*
X107694000Y-67998000D03*
%TD*%
D11*
%TO.C,J8*%
X163195000Y-113998000D03*
D12*
X163195000Y-111458000D03*
X163195000Y-108918000D03*
X163195000Y-106378000D03*
%TD*%
D13*
%TO.C,U1*%
X158774000Y-83248000D03*
X157504000Y-83248000D03*
X156234000Y-83248000D03*
X154964000Y-83248000D03*
X153694000Y-83248000D03*
X152424000Y-83248000D03*
X151154000Y-83248000D03*
X149884000Y-83248000D03*
X148614000Y-83248000D03*
X147344000Y-83248000D03*
X146074000Y-83248000D03*
X144804000Y-83248000D03*
X143534000Y-83248000D03*
X142264000Y-83248000D03*
D14*
X141014000Y-86278000D03*
X141014000Y-87548000D03*
X141014000Y-88818000D03*
X141014000Y-90088000D03*
X141014000Y-91358000D03*
X141014000Y-92628000D03*
X141014000Y-93898000D03*
X141014000Y-95168000D03*
X141014000Y-96438000D03*
X141014000Y-97708000D03*
D13*
X142264000Y-100748000D03*
X143534000Y-100748000D03*
X144804000Y-100748000D03*
X146074000Y-100748000D03*
X147344000Y-100748000D03*
X148614000Y-100748000D03*
X149884000Y-100748000D03*
X151154000Y-100748000D03*
X152424000Y-100748000D03*
X153694000Y-100748000D03*
X154964000Y-100748000D03*
X156234000Y-100748000D03*
X157504000Y-100748000D03*
X158774000Y-100748000D03*
D15*
X152454000Y-89098000D03*
X152454000Y-89098000D03*
X151054000Y-89098000D03*
X149654000Y-89098000D03*
X149654000Y-89098000D03*
X152454000Y-90498000D03*
X151054000Y-90498000D03*
X149654000Y-90498000D03*
X149654000Y-90498000D03*
X152454000Y-91898000D03*
X151054000Y-91898000D03*
X149654000Y-91898000D03*
%TD*%
D16*
%TO.C,SW2*%
X165150000Y-123898000D03*
X158850000Y-123898000D03*
X165150000Y-120098000D03*
X158850000Y-120098000D03*
%TD*%
D12*
%TO.C,J3*%
X133694000Y-106378000D03*
X133694000Y-108918000D03*
X133694000Y-111458000D03*
D11*
X133694000Y-113998000D03*
%TD*%
D17*
%TO.C,U2*%
X133536500Y-79898000D03*
X133536500Y-74898000D03*
D18*
X133536500Y-96148000D03*
D17*
X133536500Y-99898000D03*
%TD*%
D11*
%TO.C,J5*%
X141694000Y-113998000D03*
D12*
X141694000Y-111458000D03*
X141694000Y-108918000D03*
X141694000Y-106378000D03*
%TD*%
D19*
%TO.C,F1*%
X121506000Y-58513000D03*
D20*
X145636000Y-58513000D03*
%TD*%
D21*
%TO.C,PS1*%
X109194000Y-124298000D03*
X127194000Y-124298000D03*
X115194000Y-90698000D03*
D22*
X121194000Y-90698000D03*
%TD*%
D23*
%TO.C,J1*%
X114944000Y-58193000D03*
D24*
X109944000Y-58193000D03*
%TD*%
D11*
%TO.C,J4*%
X137694000Y-113998000D03*
D12*
X137694000Y-111458000D03*
X137694000Y-108918000D03*
X137694000Y-106378000D03*
%TD*%
D16*
%TO.C,SW1*%
X149150000Y-123898000D03*
X142850000Y-123898000D03*
X149150000Y-120098000D03*
X142850000Y-120098000D03*
%TD*%
D25*
%TO.C,C6*%
X132589000Y-122428000D03*
D11*
X137589000Y-122428000D03*
%TD*%
D26*
%TO.C,FL1*%
X121171000Y-83982750D03*
D27*
X121171000Y-74076750D03*
X108217000Y-74076750D03*
X108217000Y-83982750D03*
%TD*%
D23*
%TO.C,J2*%
X157444000Y-58193000D03*
D24*
X152444000Y-58193000D03*
%TD*%
D11*
%TO.C,J6*%
X153944000Y-67828000D03*
D12*
X153944000Y-70368000D03*
X153944000Y-72908000D03*
X153944000Y-75448000D03*
X153944000Y-77988000D03*
%TD*%
D10*
%TO.C,RVe1*%
X128694000Y-69998000D03*
X126744000Y-79998000D03*
%TD*%
D28*
%TO.C,C1*%
X165354000Y-77519000D03*
X165354000Y-80469000D03*
%TD*%
D29*
%TO.C,C4*%
X151335000Y-117297200D03*
X148385000Y-117297200D03*
%TD*%
D30*
%TO.C,R2*%
X153000000Y-124256500D03*
X153000000Y-121331500D03*
%TD*%
%TO.C,R1*%
X160020000Y-80456500D03*
X160020000Y-77531500D03*
%TD*%
D29*
%TO.C,C2*%
X162511000Y-73660000D03*
X159561000Y-73660000D03*
%TD*%
D31*
%TO.C,C3*%
X156000000Y-124269000D03*
X156000000Y-121319000D03*
%TD*%
D32*
X105664000Y-126238000D02*
G75*
G03*
X105664000Y-126238000I-1524000J0D01*
G01*
X101600000Y-50934000D02*
X170976000Y-50934000D01*
X170976000Y-128778000D01*
X101600000Y-128778000D01*
X101600000Y-50934000D01*
X105664000Y-53594000D02*
G75*
G03*
X105664000Y-53594000I-1524000J0D01*
G01*
X169926000Y-126238000D02*
G75*
G03*
X169926000Y-126238000I-1524000J0D01*
G01*
X169926000Y-53594000D02*
G75*
G03*
X169926000Y-53594000I-1524000J0D01*
G01*
M02*
