%TF.GenerationSoftware,KiCad,Pcbnew,7.0.2-6a45011f42~172~ubuntu22.10.1*%
%TF.CreationDate,2023-08-15T16:25:11+05:00*%
%TF.ProjectId,IOTV,494f5456-2e6b-4696-9361-645f70636258,3*%
%TF.SameCoordinates,Original*%
%TF.FileFunction,Paste,Top*%
%TF.FilePolarity,Positive*%
%FSLAX46Y46*%
G04 Gerber Fmt 4.6, Leading zero omitted, Abs format (unit mm)*
G04 Created by KiCad (PCBNEW 7.0.2-6a45011f42~172~ubuntu22.10.1) date 2023-08-15 16:25:11*
%MOMM*%
%LPD*%
G01*
G04 APERTURE LIST*
G04 Aperture macros list*
%AMRoundRect*
0 Rectangle with rounded corners*
0 $1 Rounding radius*
0 $2 $3 $4 $5 $6 $7 $8 $9 X,Y pos of 4 corners*
0 Add a 4 corners polygon primitive as box body*
4,1,4,$2,$3,$4,$5,$6,$7,$8,$9,$2,$3,0*
0 Add four circle primitives for the rounded corners*
1,1,$1+$1,$2,$3*
1,1,$1+$1,$4,$5*
1,1,$1+$1,$6,$7*
1,1,$1+$1,$8,$9*
0 Add four rect primitives between the rounded corners*
20,1,$1+$1,$2,$3,$4,$5,0*
20,1,$1+$1,$4,$5,$6,$7,0*
20,1,$1+$1,$6,$7,$8,$9,0*
20,1,$1+$1,$8,$9,$2,$3,0*%
G04 Aperture macros list end*
%ADD10R,0.900000X1.500000*%
%ADD11R,1.500000X0.900000*%
%ADD12R,0.900000X0.900000*%
%ADD13R,1.700000X1.000000*%
%ADD14RoundRect,0.250000X0.650000X-0.325000X0.650000X0.325000X-0.650000X0.325000X-0.650000X-0.325000X0*%
%ADD15RoundRect,0.250000X0.325000X0.650000X-0.325000X0.650000X-0.325000X-0.650000X0.325000X-0.650000X0*%
%ADD16RoundRect,0.250000X0.625000X-0.312500X0.625000X0.312500X-0.625000X0.312500X-0.625000X-0.312500X0*%
%ADD17RoundRect,0.250000X-0.650000X0.325000X-0.650000X-0.325000X0.650000X-0.325000X0.650000X0.325000X0*%
%TA.AperFunction,Profile*%
%ADD18C,0.150000*%
%TD*%
G04 APERTURE END LIST*
D10*
%TO.C,U1*%
X158774000Y-83248000D03*
X157504000Y-83248000D03*
X156234000Y-83248000D03*
X154964000Y-83248000D03*
X153694000Y-83248000D03*
X152424000Y-83248000D03*
X151154000Y-83248000D03*
X149884000Y-83248000D03*
X148614000Y-83248000D03*
X147344000Y-83248000D03*
X146074000Y-83248000D03*
X144804000Y-83248000D03*
X143534000Y-83248000D03*
X142264000Y-83248000D03*
D11*
X141014000Y-86278000D03*
X141014000Y-87548000D03*
X141014000Y-88818000D03*
X141014000Y-90088000D03*
X141014000Y-91358000D03*
X141014000Y-92628000D03*
X141014000Y-93898000D03*
X141014000Y-95168000D03*
X141014000Y-96438000D03*
X141014000Y-97708000D03*
D10*
X142264000Y-100748000D03*
X143534000Y-100748000D03*
X144804000Y-100748000D03*
X146074000Y-100748000D03*
X147344000Y-100748000D03*
X148614000Y-100748000D03*
X149884000Y-100748000D03*
X151154000Y-100748000D03*
X152424000Y-100748000D03*
X153694000Y-100748000D03*
X154964000Y-100748000D03*
X156234000Y-100748000D03*
X157504000Y-100748000D03*
X158774000Y-100748000D03*
D12*
X152454000Y-89098000D03*
X152454000Y-89098000D03*
X151054000Y-89098000D03*
X149654000Y-89098000D03*
X149654000Y-89098000D03*
X152454000Y-90498000D03*
X151054000Y-90498000D03*
X149654000Y-90498000D03*
X149654000Y-90498000D03*
X152454000Y-91898000D03*
X151054000Y-91898000D03*
X149654000Y-91898000D03*
%TD*%
D13*
%TO.C,SW2*%
X165150000Y-123898000D03*
X158850000Y-123898000D03*
X165150000Y-120098000D03*
X158850000Y-120098000D03*
%TD*%
%TO.C,SW1*%
X149150000Y-123898000D03*
X142850000Y-123898000D03*
X149150000Y-120098000D03*
X142850000Y-120098000D03*
%TD*%
D14*
%TO.C,C1*%
X165354000Y-77519000D03*
X165354000Y-80469000D03*
%TD*%
D15*
%TO.C,C4*%
X151335000Y-117297200D03*
X148385000Y-117297200D03*
%TD*%
D16*
%TO.C,R2*%
X153000000Y-124256500D03*
X153000000Y-121331500D03*
%TD*%
%TO.C,R1*%
X160020000Y-80456500D03*
X160020000Y-77531500D03*
%TD*%
D15*
%TO.C,C2*%
X162511000Y-73660000D03*
X159561000Y-73660000D03*
%TD*%
D17*
%TO.C,C3*%
X156000000Y-124269000D03*
X156000000Y-121319000D03*
%TD*%
D18*
X105664000Y-126238000D02*
G75*
G03*
X105664000Y-126238000I-1524000J0D01*
G01*
X101600000Y-50934000D02*
X170976000Y-50934000D01*
X170976000Y-128778000D01*
X101600000Y-128778000D01*
X101600000Y-50934000D01*
X105664000Y-53594000D02*
G75*
G03*
X105664000Y-53594000I-1524000J0D01*
G01*
X169926000Y-126238000D02*
G75*
G03*
X169926000Y-126238000I-1524000J0D01*
G01*
X169926000Y-53594000D02*
G75*
G03*
X169926000Y-53594000I-1524000J0D01*
G01*
M02*
