%TF.GenerationSoftware,KiCad,Pcbnew,7.0.2-6a45011f42~172~ubuntu22.10.1*%
%TF.CreationDate,2023-08-15T16:25:11+05:00*%
%TF.ProjectId,IOTV,494f5456-2e6b-4696-9361-645f70636258,3*%
%TF.SameCoordinates,Original*%
%TF.FileFunction,Copper,L1,Top*%
%TF.FilePolarity,Positive*%
%FSLAX46Y46*%
G04 Gerber Fmt 4.6, Leading zero omitted, Abs format (unit mm)*
G04 Created by KiCad (PCBNEW 7.0.2-6a45011f42~172~ubuntu22.10.1) date 2023-08-15 16:25:11*
%MOMM*%
%LPD*%
G01*
G04 APERTURE LIST*
G04 Aperture macros list*
%AMRoundRect*
0 Rectangle with rounded corners*
0 $1 Rounding radius*
0 $2 $3 $4 $5 $6 $7 $8 $9 X,Y pos of 4 corners*
0 Add a 4 corners polygon primitive as box body*
4,1,4,$2,$3,$4,$5,$6,$7,$8,$9,$2,$3,0*
0 Add four circle primitives for the rounded corners*
1,1,$1+$1,$2,$3*
1,1,$1+$1,$4,$5*
1,1,$1+$1,$6,$7*
1,1,$1+$1,$8,$9*
0 Add four rect primitives between the rounded corners*
20,1,$1+$1,$2,$3,$4,$5,0*
20,1,$1+$1,$4,$5,$6,$7,0*
20,1,$1+$1,$6,$7,$8,$9,0*
20,1,$1+$1,$8,$9,$2,$3,0*%
%AMFreePoly0*
4,1,18,0.843072,1.985355,1.985355,0.843072,2.000000,0.807717,2.000000,-0.807717,1.985355,-0.843072,0.843072,-1.985355,0.807717,-2.000000,0.000000,-2.000000,-0.807717,-2.000000,-0.843072,-1.985354,-1.985355,-0.843072,-2.000000,-0.807717,-2.000000,0.807717,-1.985354,0.843072,-0.843072,1.985355,-0.807717,2.000000,0.807717,2.000000,0.843072,1.985355,0.843072,1.985355,$1*%
G04 Aperture macros list end*
%TA.AperFunction,ComponentPad*%
%ADD10C,2.000000*%
%TD*%
%TA.AperFunction,ComponentPad*%
%ADD11R,1.700000X1.700000*%
%TD*%
%TA.AperFunction,ComponentPad*%
%ADD12O,1.700000X1.700000*%
%TD*%
%TA.AperFunction,SMDPad,CuDef*%
%ADD13R,0.900000X1.500000*%
%TD*%
%TA.AperFunction,SMDPad,CuDef*%
%ADD14R,1.500000X0.900000*%
%TD*%
%TA.AperFunction,SMDPad,CuDef*%
%ADD15R,0.900000X0.900000*%
%TD*%
%TA.AperFunction,SMDPad,CuDef*%
%ADD16R,1.700000X1.000000*%
%TD*%
%TA.AperFunction,ComponentPad*%
%ADD17C,2.400000*%
%TD*%
%TA.AperFunction,ComponentPad*%
%ADD18RoundRect,0.249600X0.950400X-0.950400X0.950400X0.950400X-0.950400X0.950400X-0.950400X-0.950400X0*%
%TD*%
%TA.AperFunction,ComponentPad*%
%ADD19C,4.000000*%
%TD*%
%TA.AperFunction,ComponentPad*%
%ADD20FreePoly0,0.000000*%
%TD*%
%TA.AperFunction,ComponentPad*%
%ADD21C,1.500000*%
%TD*%
%TA.AperFunction,ComponentPad*%
%ADD22R,1.500000X1.500000*%
%TD*%
%TA.AperFunction,ComponentPad*%
%ADD23R,2.600000X2.600000*%
%TD*%
%TA.AperFunction,ComponentPad*%
%ADD24C,2.600000*%
%TD*%
%TA.AperFunction,ComponentPad*%
%ADD25C,1.700000*%
%TD*%
%TA.AperFunction,ComponentPad*%
%ADD26R,3.000000X3.000000*%
%TD*%
%TA.AperFunction,ComponentPad*%
%ADD27C,3.000000*%
%TD*%
%TA.AperFunction,SMDPad,CuDef*%
%ADD28RoundRect,0.250000X0.650000X-0.325000X0.650000X0.325000X-0.650000X0.325000X-0.650000X-0.325000X0*%
%TD*%
%TA.AperFunction,SMDPad,CuDef*%
%ADD29RoundRect,0.250000X0.325000X0.650000X-0.325000X0.650000X-0.325000X-0.650000X0.325000X-0.650000X0*%
%TD*%
%TA.AperFunction,SMDPad,CuDef*%
%ADD30RoundRect,0.250000X0.625000X-0.312500X0.625000X0.312500X-0.625000X0.312500X-0.625000X-0.312500X0*%
%TD*%
%TA.AperFunction,SMDPad,CuDef*%
%ADD31RoundRect,0.250000X-0.650000X0.325000X-0.650000X-0.325000X0.650000X-0.325000X0.650000X0.325000X0*%
%TD*%
%TA.AperFunction,ViaPad*%
%ADD32C,0.800000*%
%TD*%
%TA.AperFunction,Conductor*%
%ADD33C,0.500000*%
%TD*%
%TA.AperFunction,Profile*%
%ADD34C,0.150000*%
%TD*%
G04 APERTURE END LIST*
D10*
%TO.P,C5,1*%
%TO.N,~220*%
X117694000Y-67998000D03*
%TO.P,C5,2*%
%TO.N,SSD-1*%
X107694000Y-67998000D03*
%TD*%
D11*
%TO.P,J8,1,Pin_1*%
%TO.N,GND*%
X163195000Y-113998000D03*
D12*
%TO.P,J8,2,Pin_2*%
%TO.N,U0RX*%
X163195000Y-111458000D03*
%TO.P,J8,3,Pin_3*%
%TO.N,U0TX*%
X163195000Y-108918000D03*
%TO.P,J8,4,Pin_4*%
%TO.N,+3.3V*%
X163195000Y-106378000D03*
%TD*%
D13*
%TO.P,U1,1,GND*%
%TO.N,GND*%
X158774000Y-83248000D03*
%TO.P,U1,2,3V3*%
%TO.N,+3.3V*%
X157504000Y-83248000D03*
%TO.P,U1,3,EN/CHIP_PU*%
%TO.N,EN*%
X156234000Y-83248000D03*
%TO.P,U1,4,SENSOR_VP/GPIO36/ADC1_CH0*%
%TO.N,unconnected-(U1-SENSOR_VP{slash}GPIO36{slash}ADC1_CH0-Pad4)*%
X154964000Y-83248000D03*
%TO.P,U1,5,SENSOR_VN/GPIO39/ADC1_CH3*%
%TO.N,unconnected-(U1-SENSOR_VN{slash}GPIO39{slash}ADC1_CH3-Pad5)*%
X153694000Y-83248000D03*
%TO.P,U1,6,GPIO34/ADC1_CH6*%
%TO.N,GPIO34*%
X152424000Y-83248000D03*
%TO.P,U1,7,GPIO35/ADC1_CH7*%
%TO.N,unconnected-(U1-GPIO35{slash}ADC1_CH7-Pad7)*%
X151154000Y-83248000D03*
%TO.P,U1,8,32K_XP/GPIO32/ADC1_CH4*%
%TO.N,unconnected-(U1-32K_XP{slash}GPIO32{slash}ADC1_CH4-Pad8)*%
X149884000Y-83248000D03*
%TO.P,U1,9,32K_XN/GPIO33/ADC1_CH5*%
%TO.N,unconnected-(U1-32K_XN{slash}GPIO33{slash}ADC1_CH5-Pad9)*%
X148614000Y-83248000D03*
%TO.P,U1,10,DAC_1/ADC2_CH8/GPIO25*%
%TO.N,unconnected-(U1-DAC_1{slash}ADC2_CH8{slash}GPIO25-Pad10)*%
X147344000Y-83248000D03*
%TO.P,U1,11,DAC_2/ADC2_CH9/GPIO26*%
%TO.N,unconnected-(U1-DAC_2{slash}ADC2_CH9{slash}GPIO26-Pad11)*%
X146074000Y-83248000D03*
%TO.P,U1,12,ADC2_CH7/GPIO27*%
%TO.N,unconnected-(U1-ADC2_CH7{slash}GPIO27-Pad12)*%
X144804000Y-83248000D03*
%TO.P,U1,13,MTMS/GPIO14/ADC2_CH6*%
%TO.N,unconnected-(U1-MTMS{slash}GPIO14{slash}ADC2_CH6-Pad13)*%
X143534000Y-83248000D03*
%TO.P,U1,14,MTDI/GPIO12/ADC2_CH5*%
%TO.N,unconnected-(U1-MTDI{slash}GPIO12{slash}ADC2_CH5-Pad14)*%
X142264000Y-83248000D03*
D14*
%TO.P,U1,15,GND*%
%TO.N,GND*%
X141014000Y-86278000D03*
%TO.P,U1,16,MTCK/GPIO13/ADC2_CH4*%
%TO.N,unconnected-(U1-MTCK{slash}GPIO13{slash}ADC2_CH4-Pad16)*%
X141014000Y-87548000D03*
%TO.P,U1,17*%
%TO.N,N/C*%
X141014000Y-88818000D03*
%TO.P,U1,18*%
X141014000Y-90088000D03*
%TO.P,U1,19*%
X141014000Y-91358000D03*
%TO.P,U1,20*%
X141014000Y-92628000D03*
%TO.P,U1,21*%
X141014000Y-93898000D03*
%TO.P,U1,22*%
X141014000Y-95168000D03*
%TO.P,U1,23,MTDO/GPIO15/ADC2_CH3*%
%TO.N,unconnected-(U1-MTDO{slash}GPIO15{slash}ADC2_CH3-Pad23)*%
X141014000Y-96438000D03*
%TO.P,U1,24,ADC2_CH2/GPIO2*%
%TO.N,unconnected-(U1-ADC2_CH2{slash}GPIO2-Pad24)*%
X141014000Y-97708000D03*
D13*
%TO.P,U1,25,GPIO0/BOOT/ADC2_CH1*%
%TO.N,GPIO0*%
X142264000Y-100748000D03*
%TO.P,U1,26,ADC2_CH0/GPIO4*%
%TO.N,unconnected-(U1-ADC2_CH0{slash}GPIO4-Pad26)*%
X143534000Y-100748000D03*
%TO.P,U1,27,GPIO16*%
%TO.N,unconnected-(U1-GPIO16-Pad27)*%
X144804000Y-100748000D03*
%TO.P,U1,28,GPIO17*%
%TO.N,unconnected-(U1-GPIO17-Pad28)*%
X146074000Y-100748000D03*
%TO.P,U1,29,GPIO5*%
%TO.N,unconnected-(U1-GPIO5-Pad29)*%
X147344000Y-100748000D03*
%TO.P,U1,30,GPIO18*%
%TO.N,unconnected-(U1-GPIO18-Pad30)*%
X148614000Y-100748000D03*
%TO.P,U1,31,GPIO19*%
%TO.N,unconnected-(U1-GPIO19-Pad31)*%
X149884000Y-100748000D03*
%TO.P,U1,32*%
%TO.N,N/C*%
X151154000Y-100748000D03*
%TO.P,U1,33,GPIO21*%
%TO.N,SDA*%
X152424000Y-100748000D03*
%TO.P,U1,34,U0RXD/GPIO3*%
%TO.N,U0RX*%
X153694000Y-100748000D03*
%TO.P,U1,35,U0TXD/GPIO1*%
%TO.N,U0TX*%
X154964000Y-100748000D03*
%TO.P,U1,36,GPIO22*%
%TO.N,SCL*%
X156234000Y-100748000D03*
%TO.P,U1,37,GPIO23*%
%TO.N,unconnected-(U1-GPIO23-Pad37)*%
X157504000Y-100748000D03*
%TO.P,U1,38,GND*%
%TO.N,GND*%
X158774000Y-100748000D03*
D15*
%TO.P,U1,39,GND_THERMAL*%
X152454000Y-89098000D03*
X152454000Y-89098000D03*
X151054000Y-89098000D03*
X149654000Y-89098000D03*
X149654000Y-89098000D03*
X152454000Y-90498000D03*
X151054000Y-90498000D03*
X149654000Y-90498000D03*
X149654000Y-90498000D03*
X152454000Y-91898000D03*
X151054000Y-91898000D03*
X149654000Y-91898000D03*
%TD*%
D16*
%TO.P,SW2,2,2*%
%TO.N,GND*%
X165150000Y-123898000D03*
X158850000Y-123898000D03*
%TO.P,SW2,1,1*%
%TO.N,GPIO0*%
X165150000Y-120098000D03*
X158850000Y-120098000D03*
%TD*%
D12*
%TO.P,J3,4,Pin_4*%
%TO.N,SCL*%
X133694000Y-106378000D03*
%TO.P,J3,3,Pin_3*%
%TO.N,SDA*%
X133694000Y-108918000D03*
%TO.P,J3,2,Pin_2*%
%TO.N,+3.3V*%
X133694000Y-111458000D03*
D11*
%TO.P,J3,1,Pin_1*%
%TO.N,GND*%
X133694000Y-113998000D03*
%TD*%
D17*
%TO.P,U2,11*%
%TO.N,SSD-1*%
X133536500Y-79898000D03*
%TO.P,U2,14*%
%TO.N,SSD-2*%
X133536500Y-74898000D03*
D18*
%TO.P,U2,A1*%
%TO.N,GPIO34*%
X133536500Y-96148000D03*
D17*
%TO.P,U2,A2*%
%TO.N,GND*%
X133536500Y-99898000D03*
%TD*%
D11*
%TO.P,J5,1,Pin_1*%
%TO.N,GND*%
X141694000Y-113998000D03*
D12*
%TO.P,J5,2,Pin_2*%
%TO.N,+3.3V*%
X141694000Y-111458000D03*
%TO.P,J5,3,Pin_3*%
%TO.N,SDA*%
X141694000Y-108918000D03*
%TO.P,J5,4,Pin_4*%
%TO.N,SCL*%
X141694000Y-106378000D03*
%TD*%
D19*
%TO.P,F1,1*%
%TO.N,Net-(J1-Pin_1)*%
X121506000Y-58513000D03*
D20*
%TO.P,F1,2*%
%TO.N,~220*%
X145636000Y-58513000D03*
%TD*%
D21*
%TO.P,PS1,4,+VO*%
%TO.N,+3.3V*%
X109194000Y-124298000D03*
%TO.P,PS1,3,-VO*%
%TO.N,GND*%
X127194000Y-124298000D03*
%TO.P,PS1,2,AC2*%
%TO.N,Net-(PS1-AC2)*%
X115194000Y-90698000D03*
D22*
%TO.P,PS1,1,AC1*%
%TO.N,Net-(PS1-AC1)*%
X121194000Y-90698000D03*
%TD*%
D23*
%TO.P,J1,1,Pin_1*%
%TO.N,Net-(J1-Pin_1)*%
X114944000Y-58193000D03*
D24*
%TO.P,J1,2,Pin_2*%
%TO.N,SSD-1*%
X109944000Y-58193000D03*
%TD*%
D11*
%TO.P,J4,1,Pin_1*%
%TO.N,GND*%
X137694000Y-113998000D03*
D12*
%TO.P,J4,2,Pin_2*%
%TO.N,+3.3V*%
X137694000Y-111458000D03*
%TO.P,J4,3,Pin_3*%
%TO.N,SDA*%
X137694000Y-108918000D03*
%TO.P,J4,4,Pin_4*%
%TO.N,SCL*%
X137694000Y-106378000D03*
%TD*%
D16*
%TO.P,SW1,2,2*%
%TO.N,GND*%
X149150000Y-123898000D03*
X142850000Y-123898000D03*
%TO.P,SW1,1,1*%
%TO.N,Net-(C4-Pad1)*%
X149150000Y-120098000D03*
X142850000Y-120098000D03*
%TD*%
D25*
%TO.P,C6,2*%
%TO.N,GND*%
X132589000Y-122428000D03*
D11*
%TO.P,C6,1*%
%TO.N,+3.3V*%
X137589000Y-122428000D03*
%TD*%
D26*
%TO.P,FL1,1,1*%
%TO.N,Net-(PS1-AC1)*%
X121171000Y-83982750D03*
D27*
%TO.P,FL1,2,2*%
%TO.N,~220*%
X121171000Y-74076750D03*
%TO.P,FL1,3,3*%
%TO.N,SSD-1*%
X108217000Y-74076750D03*
%TO.P,FL1,4,4*%
%TO.N,Net-(PS1-AC2)*%
X108217000Y-83982750D03*
%TD*%
D23*
%TO.P,J2,1,Pin_1*%
%TO.N,Net-(J1-Pin_1)*%
X157444000Y-58193000D03*
D24*
%TO.P,J2,2,Pin_2*%
%TO.N,SSD-2*%
X152444000Y-58193000D03*
%TD*%
D11*
%TO.P,J6,1,Pin_1*%
%TO.N,+3.3V*%
X153944000Y-67828000D03*
D12*
%TO.P,J6,2,Pin_2*%
%TO.N,SDA*%
X153944000Y-70368000D03*
%TO.P,J6,3,Pin_3*%
%TO.N,SCL*%
X153944000Y-72908000D03*
%TO.P,J6,4,Pin_4*%
%TO.N,unconnected-(J6-Pin_4-Pad4)*%
X153944000Y-75448000D03*
%TO.P,J6,5,Pin_5*%
%TO.N,GND*%
X153944000Y-77988000D03*
%TD*%
D10*
%TO.P,RVe1,1*%
%TO.N,~220*%
X128694000Y-69998000D03*
%TO.P,RVe1,2*%
%TO.N,SSD-1*%
X126744000Y-79998000D03*
%TD*%
D28*
%TO.P,C1,2*%
%TO.N,GND*%
X165354000Y-77519000D03*
%TO.P,C1,1*%
%TO.N,+3.3V*%
X165354000Y-80469000D03*
%TD*%
D29*
%TO.P,C4,1*%
%TO.N,Net-(C4-Pad1)*%
X151335000Y-117297200D03*
%TO.P,C4,2*%
%TO.N,GND*%
X148385000Y-117297200D03*
%TD*%
D30*
%TO.P,R2,1*%
%TO.N,Net-(C4-Pad1)*%
X153000000Y-124256500D03*
%TO.P,R2,2*%
%TO.N,EN*%
X153000000Y-121331500D03*
%TD*%
%TO.P,R1,1*%
%TO.N,+3.3V*%
X160020000Y-80456500D03*
%TO.P,R1,2*%
%TO.N,EN*%
X160020000Y-77531500D03*
%TD*%
D29*
%TO.P,C2,1*%
%TO.N,+3.3V*%
X162511000Y-73660000D03*
%TO.P,C2,2*%
%TO.N,GND*%
X159561000Y-73660000D03*
%TD*%
D31*
%TO.P,C3,2*%
%TO.N,GND*%
X156000000Y-124269000D03*
%TO.P,C3,1*%
%TO.N,EN*%
X156000000Y-121319000D03*
%TD*%
D32*
%TO.N,EN*%
X156260800Y-85547200D03*
X155956000Y-117729000D03*
%TO.N,SCL*%
X156210000Y-97790000D03*
%TO.N,SDA*%
X152400000Y-97790000D03*
%TD*%
D33*
%TO.N,+3.3V*%
X153944000Y-67828000D02*
X156679000Y-67828000D01*
X156679000Y-67828000D02*
X162511000Y-73660000D01*
X162511000Y-73660000D02*
X162511000Y-77965500D01*
X162511000Y-77965500D02*
X160020000Y-80456500D01*
X165354000Y-80469000D02*
X163068000Y-80469000D01*
X163068000Y-80469000D02*
X160032500Y-80469000D01*
X160032500Y-80469000D02*
X160020000Y-80456500D01*
%TO.N,EN*%
X160020000Y-77531500D02*
X156234000Y-81317500D01*
X156234000Y-81317500D02*
X156234000Y-83248000D01*
%TO.N,+3.3V*%
X160020000Y-80456500D02*
X159045500Y-80456500D01*
X159045500Y-80456500D02*
X157504000Y-81998000D01*
X157504000Y-81998000D02*
X157504000Y-83248000D01*
%TO.N,EN*%
X156260800Y-85547200D02*
X156260800Y-83274800D01*
X156260800Y-83274800D02*
X156234000Y-83248000D01*
%TO.N,GPIO34*%
X152424000Y-83248000D02*
X152424000Y-84178000D01*
X133536500Y-89323100D02*
X133536500Y-96148000D01*
X152424000Y-84178000D02*
X151715200Y-84886800D01*
X151715200Y-84886800D02*
X137972800Y-84886800D01*
X137972800Y-84886800D02*
X133536500Y-89323100D01*
%TO.N,EN*%
X156000000Y-121319000D02*
X156000000Y-117773000D01*
X156000000Y-117773000D02*
X155956000Y-117729000D01*
%TO.N,U0RX*%
X153694000Y-100748000D02*
X153694000Y-101957000D01*
X153694000Y-101957000D02*
X163195000Y-111458000D01*
%TO.N,U0TX*%
X163195000Y-108918000D02*
X161992919Y-108918000D01*
X161992919Y-108918000D02*
X154964000Y-101889081D01*
X154964000Y-101889081D02*
X154964000Y-100748000D01*
%TO.N,GPIO0*%
X158850000Y-120098000D02*
X158850000Y-118715207D01*
X158850000Y-118715207D02*
X142264000Y-102129207D01*
X142264000Y-102129207D02*
X142264000Y-100748000D01*
%TO.N,Net-(C4-Pad1)*%
X151335000Y-117297200D02*
X151335000Y-118209800D01*
X151335000Y-118209800D02*
X149446800Y-120098000D01*
X149446800Y-120098000D02*
X149150000Y-120098000D01*
%TO.N,SCL*%
X156234000Y-100748000D02*
X156234000Y-97814000D01*
X156234000Y-97814000D02*
X156210000Y-97790000D01*
%TO.N,SDA*%
X152424000Y-100748000D02*
X152424000Y-97814000D01*
X152424000Y-97814000D02*
X152400000Y-97790000D01*
X141694000Y-108918000D02*
X137694000Y-108918000D01*
X137694000Y-108918000D02*
X133694000Y-108918000D01*
%TO.N,SCL*%
X141694000Y-106378000D02*
X137694000Y-106378000D01*
X133694000Y-106378000D02*
X137694000Y-106378000D01*
%TO.N,EN*%
X153000000Y-121331500D02*
X155987500Y-121331500D01*
X155987500Y-121331500D02*
X156000000Y-121319000D01*
%TO.N,Net-(C4-Pad1)*%
X153000000Y-124256500D02*
X153000000Y-123948000D01*
X153000000Y-123948000D02*
X149150000Y-120098000D01*
%TO.N,GPIO0*%
X158850000Y-120098000D02*
X165150000Y-120098000D01*
%TO.N,Net-(C4-Pad1)*%
X142850000Y-120098000D02*
X149150000Y-120098000D01*
%TD*%
%TA.AperFunction,Conductor*%
%TO.N,GND*%
G36*
X166312874Y-53594284D02*
G01*
X166379875Y-53614087D01*
X166425536Y-53666972D01*
X166429722Y-53677416D01*
X166841276Y-54856394D01*
X166874482Y-54951517D01*
X166874482Y-54951518D01*
X168328335Y-55597280D01*
X168381612Y-55642483D01*
X168401993Y-55709314D01*
X168402000Y-55710604D01*
X168402000Y-124159947D01*
X168382315Y-124226986D01*
X168329511Y-124272741D01*
X168318867Y-124277019D01*
X167048482Y-124720482D01*
X167048481Y-124720482D01*
X166402720Y-126174335D01*
X166357517Y-126227612D01*
X166290686Y-126247993D01*
X166289396Y-126248000D01*
X106230824Y-126248000D01*
X106163785Y-126228315D01*
X106118030Y-126175511D01*
X106113752Y-126164867D01*
X105671518Y-124898000D01*
X105092590Y-124640856D01*
X104320694Y-124298000D01*
X107838340Y-124298000D01*
X107858936Y-124533407D01*
X107890593Y-124651553D01*
X107920097Y-124761663D01*
X108019965Y-124975830D01*
X108155505Y-125169401D01*
X108322599Y-125336495D01*
X108516170Y-125472035D01*
X108730337Y-125571903D01*
X108958592Y-125633063D01*
X109194000Y-125653659D01*
X109429408Y-125633063D01*
X109657663Y-125571903D01*
X109871830Y-125472035D01*
X110065401Y-125336495D01*
X110232495Y-125169401D01*
X110368035Y-124975830D01*
X110467903Y-124761663D01*
X110529063Y-124533408D01*
X110549659Y-124298000D01*
X125939224Y-124298000D01*
X125958287Y-124515886D01*
X126014898Y-124727161D01*
X126107331Y-124925386D01*
X126150873Y-124987571D01*
X126150875Y-124987572D01*
X126710923Y-124427523D01*
X126734507Y-124507844D01*
X126812239Y-124628798D01*
X126920900Y-124722952D01*
X127051685Y-124782680D01*
X127061466Y-124784086D01*
X126504426Y-125341124D01*
X126504427Y-125341125D01*
X126566610Y-125384666D01*
X126764840Y-125477102D01*
X126976113Y-125533712D01*
X127194000Y-125552775D01*
X127411886Y-125533712D01*
X127623159Y-125477102D01*
X127821385Y-125384667D01*
X127883572Y-125341124D01*
X127326534Y-124784086D01*
X127336315Y-124782680D01*
X127467100Y-124722952D01*
X127575761Y-124628798D01*
X127653493Y-124507844D01*
X127677076Y-124427524D01*
X128237124Y-124987572D01*
X128280667Y-124925385D01*
X128373102Y-124727159D01*
X128429712Y-124515886D01*
X128448775Y-124298000D01*
X128435651Y-124148000D01*
X141500000Y-124148000D01*
X141500000Y-124442518D01*
X141500354Y-124449132D01*
X141506400Y-124505371D01*
X141556647Y-124640089D01*
X141642811Y-124755188D01*
X141757910Y-124841352D01*
X141892628Y-124891599D01*
X141948867Y-124897645D01*
X141955482Y-124898000D01*
X142600000Y-124898000D01*
X142600000Y-124148000D01*
X143100000Y-124148000D01*
X143100000Y-124898000D01*
X143744518Y-124898000D01*
X143751132Y-124897645D01*
X143807371Y-124891599D01*
X143942089Y-124841352D01*
X144057188Y-124755188D01*
X144143352Y-124640089D01*
X144193599Y-124505371D01*
X144199645Y-124449132D01*
X144200000Y-124442518D01*
X144200000Y-124148000D01*
X147800000Y-124148000D01*
X147800000Y-124442518D01*
X147800354Y-124449132D01*
X147806400Y-124505371D01*
X147856647Y-124640089D01*
X147942811Y-124755188D01*
X148057910Y-124841352D01*
X148192628Y-124891599D01*
X148248867Y-124897645D01*
X148255482Y-124898000D01*
X148900000Y-124898000D01*
X148900000Y-124148000D01*
X149400000Y-124148000D01*
X149400000Y-124898000D01*
X150044518Y-124898000D01*
X150051132Y-124897645D01*
X150107371Y-124891599D01*
X150242089Y-124841352D01*
X150357188Y-124755188D01*
X150443352Y-124640089D01*
X150493599Y-124505371D01*
X150499645Y-124449132D01*
X150500000Y-124442518D01*
X150500000Y-124148000D01*
X149400000Y-124148000D01*
X148900000Y-124148000D01*
X147800000Y-124148000D01*
X144200000Y-124148000D01*
X143100000Y-124148000D01*
X142600000Y-124148000D01*
X141500000Y-124148000D01*
X128435651Y-124148000D01*
X128429712Y-124080113D01*
X128373102Y-123868840D01*
X128280667Y-123670615D01*
X128237123Y-123608428D01*
X127677076Y-124168475D01*
X127653493Y-124088156D01*
X127575761Y-123967202D01*
X127467100Y-123873048D01*
X127336315Y-123813320D01*
X127326534Y-123811913D01*
X127883572Y-123254875D01*
X127883571Y-123254873D01*
X127821386Y-123211331D01*
X127623161Y-123118898D01*
X127411886Y-123062287D01*
X127194000Y-123043224D01*
X126976113Y-123062287D01*
X126764840Y-123118897D01*
X126566611Y-123211333D01*
X126504428Y-123254874D01*
X126504427Y-123254875D01*
X127061466Y-123811913D01*
X127051685Y-123813320D01*
X126920900Y-123873048D01*
X126812239Y-123967202D01*
X126734507Y-124088156D01*
X126710923Y-124168475D01*
X126150875Y-123608427D01*
X126150874Y-123608428D01*
X126107333Y-123670611D01*
X126014897Y-123868840D01*
X125958287Y-124080113D01*
X125939224Y-124298000D01*
X110549659Y-124298000D01*
X110529063Y-124062592D01*
X110467903Y-123834337D01*
X110368035Y-123620171D01*
X110232495Y-123426599D01*
X110065401Y-123259505D01*
X109871830Y-123123965D01*
X109657663Y-123024097D01*
X109596501Y-123007709D01*
X109429407Y-122962936D01*
X109194000Y-122942340D01*
X108958592Y-122962936D01*
X108730336Y-123024097D01*
X108516170Y-123123965D01*
X108322598Y-123259505D01*
X108155505Y-123426598D01*
X108019965Y-123620170D01*
X107920097Y-123834336D01*
X107858936Y-124062592D01*
X107838340Y-124298000D01*
X104320694Y-124298000D01*
X104213664Y-124250460D01*
X104160387Y-124205257D01*
X104140007Y-124138426D01*
X104140000Y-124137136D01*
X104140000Y-122427999D01*
X131233842Y-122427999D01*
X131254430Y-122663318D01*
X131315569Y-122891492D01*
X131415400Y-123105580D01*
X131474073Y-123189373D01*
X132105923Y-122557523D01*
X132129507Y-122637844D01*
X132207239Y-122758798D01*
X132315900Y-122852952D01*
X132446685Y-122912680D01*
X132456466Y-122914086D01*
X131827625Y-123542925D01*
X131911420Y-123601599D01*
X132125507Y-123701430D01*
X132353681Y-123762569D01*
X132589000Y-123783157D01*
X132824318Y-123762569D01*
X133052492Y-123701430D01*
X133266576Y-123601600D01*
X133350373Y-123542925D01*
X133120768Y-123313320D01*
X136138500Y-123313320D01*
X136138501Y-123317360D01*
X136139029Y-123321373D01*
X136139030Y-123321384D01*
X136153955Y-123434760D01*
X136214464Y-123580841D01*
X136310717Y-123706282D01*
X136410904Y-123783157D01*
X136436159Y-123802536D01*
X136582238Y-123863044D01*
X136699639Y-123878500D01*
X138478360Y-123878499D01*
X138595762Y-123863044D01*
X138741841Y-123802536D01*
X138867282Y-123706282D01*
X138912003Y-123648000D01*
X141500000Y-123648000D01*
X142600000Y-123648000D01*
X142600000Y-122898000D01*
X143100000Y-122898000D01*
X143100000Y-123648000D01*
X144200000Y-123648000D01*
X147800000Y-123648000D01*
X148900000Y-123648000D01*
X148900000Y-122898000D01*
X149400000Y-122898000D01*
X149400000Y-123648000D01*
X150500000Y-123648000D01*
X150500000Y-123353481D01*
X150499645Y-123346867D01*
X150493599Y-123290628D01*
X150443352Y-123155910D01*
X150357188Y-123040811D01*
X150242089Y-122954647D01*
X150107371Y-122904400D01*
X150051132Y-122898354D01*
X150044518Y-122898000D01*
X149400000Y-122898000D01*
X148900000Y-122898000D01*
X148255482Y-122898000D01*
X148248867Y-122898354D01*
X148192628Y-122904400D01*
X148057910Y-122954647D01*
X147942811Y-123040811D01*
X147856647Y-123155910D01*
X147806400Y-123290628D01*
X147800354Y-123346867D01*
X147800000Y-123353481D01*
X147800000Y-123648000D01*
X144200000Y-123648000D01*
X144200000Y-123353481D01*
X144199645Y-123346867D01*
X144193599Y-123290628D01*
X144143352Y-123155910D01*
X144057188Y-123040811D01*
X143942089Y-122954647D01*
X143807371Y-122904400D01*
X143751132Y-122898354D01*
X143744518Y-122898000D01*
X143100000Y-122898000D01*
X142600000Y-122898000D01*
X141955482Y-122898000D01*
X141948867Y-122898354D01*
X141892628Y-122904400D01*
X141757910Y-122954647D01*
X141642811Y-123040811D01*
X141556647Y-123155910D01*
X141506400Y-123290628D01*
X141500354Y-123346867D01*
X141500000Y-123353481D01*
X141500000Y-123648000D01*
X138912003Y-123648000D01*
X138963536Y-123580841D01*
X139024044Y-123434762D01*
X139039500Y-123317361D01*
X139039499Y-121538640D01*
X139024044Y-121421238D01*
X138963536Y-121275159D01*
X138904307Y-121197970D01*
X138867282Y-121149717D01*
X138741840Y-121053463D01*
X138595762Y-120992956D01*
X138482380Y-120978029D01*
X138482378Y-120978028D01*
X138478361Y-120977500D01*
X138474307Y-120977500D01*
X136703694Y-120977500D01*
X136703678Y-120977500D01*
X136699640Y-120977501D01*
X136695627Y-120978029D01*
X136695615Y-120978030D01*
X136582239Y-120992955D01*
X136436158Y-121053464D01*
X136310717Y-121149717D01*
X136214463Y-121275159D01*
X136198759Y-121313073D01*
X136153956Y-121421238D01*
X136138500Y-121538639D01*
X136138500Y-121542691D01*
X136138500Y-121542692D01*
X136138500Y-123313305D01*
X136138500Y-123313320D01*
X133120768Y-123313320D01*
X132721533Y-122914086D01*
X132731315Y-122912680D01*
X132862100Y-122852952D01*
X132970761Y-122758798D01*
X133048493Y-122637844D01*
X133072076Y-122557524D01*
X133703925Y-123189373D01*
X133762600Y-123105576D01*
X133862430Y-122891492D01*
X133923569Y-122663318D01*
X133944157Y-122428000D01*
X133923569Y-122192681D01*
X133862430Y-121964507D01*
X133762599Y-121750421D01*
X133703926Y-121666626D01*
X133703925Y-121666625D01*
X133072076Y-122298475D01*
X133048493Y-122218156D01*
X132970761Y-122097202D01*
X132862100Y-122003048D01*
X132731315Y-121943320D01*
X132721531Y-121941913D01*
X133350373Y-121313073D01*
X133350373Y-121313072D01*
X133266580Y-121254400D01*
X133052492Y-121154569D01*
X132824318Y-121093430D01*
X132589000Y-121072842D01*
X132353681Y-121093430D01*
X132125507Y-121154569D01*
X131911422Y-121254399D01*
X131827626Y-121313072D01*
X131827625Y-121313073D01*
X132456466Y-121941913D01*
X132446685Y-121943320D01*
X132315900Y-122003048D01*
X132207239Y-122097202D01*
X132129507Y-122218156D01*
X132105923Y-122298475D01*
X131474073Y-121666625D01*
X131474072Y-121666626D01*
X131415399Y-121750422D01*
X131315569Y-121964507D01*
X131254430Y-122192681D01*
X131233842Y-122427999D01*
X104140000Y-122427999D01*
X104140000Y-117547200D01*
X147310001Y-117547200D01*
X147310001Y-117994029D01*
X147310321Y-118000311D01*
X147320493Y-118099895D01*
X147375642Y-118266322D01*
X147467683Y-118415545D01*
X147591654Y-118539516D01*
X147740877Y-118631557D01*
X147907303Y-118686706D01*
X148006890Y-118696880D01*
X148013168Y-118697199D01*
X148134999Y-118697199D01*
X148135000Y-118697198D01*
X148135000Y-117547200D01*
X148635000Y-117547200D01*
X148635000Y-118697199D01*
X148756829Y-118697199D01*
X148763111Y-118696878D01*
X148862695Y-118686706D01*
X149029122Y-118631557D01*
X149178345Y-118539516D01*
X149302316Y-118415545D01*
X149394357Y-118266322D01*
X149449506Y-118099896D01*
X149459680Y-118000309D01*
X149460000Y-117994031D01*
X149460000Y-117547200D01*
X148635000Y-117547200D01*
X148135000Y-117547200D01*
X147310001Y-117547200D01*
X104140000Y-117547200D01*
X104140000Y-117047200D01*
X147310000Y-117047200D01*
X148135000Y-117047200D01*
X148135000Y-115897200D01*
X148635000Y-115897200D01*
X148635000Y-117047200D01*
X149459999Y-117047200D01*
X149459999Y-116600370D01*
X149459678Y-116594088D01*
X149449506Y-116494504D01*
X149394357Y-116328077D01*
X149302316Y-116178854D01*
X149178345Y-116054883D01*
X149029122Y-115962842D01*
X148862696Y-115907693D01*
X148763109Y-115897519D01*
X148756832Y-115897200D01*
X148635000Y-115897200D01*
X148135000Y-115897200D01*
X148013171Y-115897200D01*
X148006888Y-115897521D01*
X147907304Y-115907693D01*
X147740877Y-115962842D01*
X147591654Y-116054883D01*
X147467683Y-116178854D01*
X147375642Y-116328077D01*
X147320493Y-116494503D01*
X147310319Y-116594090D01*
X147310000Y-116600368D01*
X147310000Y-117047200D01*
X104140000Y-117047200D01*
X104140000Y-111458000D01*
X132238528Y-111458000D01*
X132258379Y-111697558D01*
X132258379Y-111697561D01*
X132258380Y-111697563D01*
X132317390Y-111930591D01*
X132413951Y-112150728D01*
X132545429Y-112351969D01*
X132676621Y-112494482D01*
X132707543Y-112557136D01*
X132699683Y-112626562D01*
X132655536Y-112680717D01*
X132628726Y-112694645D01*
X132601913Y-112704646D01*
X132486811Y-112790811D01*
X132400647Y-112905910D01*
X132350400Y-113040628D01*
X132344354Y-113096867D01*
X132344000Y-113103481D01*
X132344000Y-113748000D01*
X133260314Y-113748000D01*
X133234507Y-113788156D01*
X133194000Y-113926111D01*
X133194000Y-114069889D01*
X133234507Y-114207844D01*
X133260314Y-114248000D01*
X132344000Y-114248000D01*
X132344000Y-114892518D01*
X132344354Y-114899132D01*
X132350400Y-114955371D01*
X132400647Y-115090089D01*
X132486811Y-115205188D01*
X132601910Y-115291352D01*
X132736628Y-115341599D01*
X132792867Y-115347645D01*
X132799482Y-115348000D01*
X133443999Y-115348000D01*
X133443999Y-114433501D01*
X133551685Y-114482680D01*
X133658237Y-114498000D01*
X133729763Y-114498000D01*
X133836315Y-114482680D01*
X133943999Y-114433501D01*
X133944000Y-115348000D01*
X134588518Y-115348000D01*
X134595132Y-115347645D01*
X134651371Y-115341599D01*
X134786089Y-115291352D01*
X134901188Y-115205188D01*
X134987352Y-115090089D01*
X135037599Y-114955371D01*
X135043645Y-114899132D01*
X135044000Y-114892518D01*
X135044000Y-114248000D01*
X134127686Y-114248000D01*
X134153493Y-114207844D01*
X134194000Y-114069889D01*
X134194000Y-113926111D01*
X134153493Y-113788156D01*
X134127686Y-113748000D01*
X135044000Y-113748000D01*
X135044000Y-113103481D01*
X135043645Y-113096867D01*
X135037599Y-113040628D01*
X134987352Y-112905910D01*
X134901188Y-112790811D01*
X134786088Y-112704647D01*
X134759274Y-112694646D01*
X134703341Y-112652774D01*
X134678924Y-112587309D01*
X134693776Y-112519037D01*
X134711376Y-112494484D01*
X134842571Y-112351969D01*
X134974049Y-112150728D01*
X135070610Y-111930591D01*
X135129620Y-111697563D01*
X135149471Y-111458000D01*
X135129620Y-111218437D01*
X135070610Y-110985409D01*
X134974049Y-110765272D01*
X134842571Y-110564031D01*
X134679764Y-110387175D01*
X134654265Y-110367329D01*
X134549586Y-110285853D01*
X134508773Y-110229143D01*
X134505098Y-110159370D01*
X134539730Y-110098687D01*
X134549586Y-110090147D01*
X134587955Y-110060282D01*
X134679764Y-109988825D01*
X134842571Y-109811969D01*
X134842570Y-109811969D01*
X134845749Y-109808517D01*
X134905636Y-109772527D01*
X134936979Y-109768500D01*
X136451021Y-109768500D01*
X136518060Y-109788185D01*
X136542251Y-109808517D01*
X136545429Y-109811969D01*
X136708236Y-109988825D01*
X136708239Y-109988827D01*
X136838414Y-110090147D01*
X136879227Y-110146857D01*
X136882902Y-110216630D01*
X136848270Y-110277313D01*
X136838414Y-110285853D01*
X136708239Y-110387172D01*
X136545430Y-110564030D01*
X136413950Y-110765274D01*
X136317391Y-110985407D01*
X136258379Y-111218441D01*
X136238528Y-111458000D01*
X136258379Y-111697558D01*
X136258379Y-111697561D01*
X136258380Y-111697563D01*
X136317390Y-111930591D01*
X136413951Y-112150728D01*
X136545429Y-112351969D01*
X136676621Y-112494482D01*
X136707543Y-112557136D01*
X136699683Y-112626562D01*
X136655536Y-112680717D01*
X136628726Y-112694645D01*
X136601913Y-112704646D01*
X136486811Y-112790811D01*
X136400647Y-112905910D01*
X136350400Y-113040628D01*
X136344354Y-113096867D01*
X136344000Y-113103481D01*
X136344000Y-113748000D01*
X137260314Y-113748000D01*
X137234507Y-113788156D01*
X137194000Y-113926111D01*
X137194000Y-114069889D01*
X137234507Y-114207844D01*
X137260314Y-114248000D01*
X136344000Y-114248000D01*
X136344000Y-114892518D01*
X136344354Y-114899132D01*
X136350400Y-114955371D01*
X136400647Y-115090089D01*
X136486811Y-115205188D01*
X136601910Y-115291352D01*
X136736628Y-115341599D01*
X136792867Y-115347645D01*
X136799482Y-115348000D01*
X137444000Y-115348000D01*
X137444000Y-114433501D01*
X137551685Y-114482680D01*
X137658237Y-114498000D01*
X137729763Y-114498000D01*
X137836315Y-114482680D01*
X137944000Y-114433501D01*
X137944000Y-115348000D01*
X138588518Y-115348000D01*
X138595132Y-115347645D01*
X138651371Y-115341599D01*
X138786089Y-115291352D01*
X138901188Y-115205188D01*
X138987352Y-115090089D01*
X139037599Y-114955371D01*
X139043645Y-114899132D01*
X139044000Y-114892518D01*
X139044000Y-114248000D01*
X138127686Y-114248000D01*
X138153493Y-114207844D01*
X138194000Y-114069889D01*
X138194000Y-113926111D01*
X138153493Y-113788156D01*
X138127686Y-113748000D01*
X139044000Y-113748000D01*
X139044000Y-113103481D01*
X139043645Y-113096867D01*
X139037599Y-113040628D01*
X138987352Y-112905910D01*
X138901188Y-112790811D01*
X138786088Y-112704647D01*
X138759274Y-112694646D01*
X138703341Y-112652774D01*
X138678924Y-112587309D01*
X138693776Y-112519037D01*
X138711376Y-112494484D01*
X138842571Y-112351969D01*
X138974049Y-112150728D01*
X139070610Y-111930591D01*
X139129620Y-111697563D01*
X139149471Y-111458000D01*
X139129620Y-111218437D01*
X139070610Y-110985409D01*
X138974049Y-110765272D01*
X138842571Y-110564031D01*
X138679764Y-110387175D01*
X138654265Y-110367329D01*
X138549586Y-110285853D01*
X138508773Y-110229143D01*
X138505098Y-110159370D01*
X138539730Y-110098687D01*
X138549586Y-110090147D01*
X138587955Y-110060282D01*
X138679764Y-109988825D01*
X138842571Y-109811969D01*
X138842570Y-109811969D01*
X138845749Y-109808517D01*
X138905636Y-109772527D01*
X138936979Y-109768500D01*
X140451021Y-109768500D01*
X140518060Y-109788185D01*
X140542251Y-109808517D01*
X140545429Y-109811969D01*
X140708236Y-109988825D01*
X140708239Y-109988827D01*
X140838414Y-110090147D01*
X140879227Y-110146857D01*
X140882902Y-110216630D01*
X140848270Y-110277313D01*
X140838414Y-110285853D01*
X140708239Y-110387172D01*
X140545430Y-110564030D01*
X140413950Y-110765274D01*
X140317391Y-110985407D01*
X140258379Y-111218441D01*
X140238528Y-111457999D01*
X140258379Y-111697558D01*
X140258379Y-111697561D01*
X140258380Y-111697563D01*
X140317390Y-111930591D01*
X140413951Y-112150728D01*
X140545429Y-112351969D01*
X140676621Y-112494482D01*
X140707543Y-112557136D01*
X140699683Y-112626562D01*
X140655536Y-112680717D01*
X140628726Y-112694645D01*
X140601913Y-112704646D01*
X140486811Y-112790811D01*
X140400647Y-112905910D01*
X140350400Y-113040628D01*
X140344354Y-113096867D01*
X140344000Y-113103481D01*
X140344000Y-113748000D01*
X141260314Y-113748000D01*
X141234507Y-113788156D01*
X141194000Y-113926111D01*
X141194000Y-114069889D01*
X141234507Y-114207844D01*
X141260314Y-114248000D01*
X140344000Y-114248000D01*
X140344000Y-114892518D01*
X140344354Y-114899132D01*
X140350400Y-114955371D01*
X140400647Y-115090089D01*
X140486811Y-115205188D01*
X140601910Y-115291352D01*
X140736628Y-115341599D01*
X140792867Y-115347645D01*
X140799482Y-115348000D01*
X141444000Y-115348000D01*
X141444000Y-114433501D01*
X141551685Y-114482680D01*
X141658237Y-114498000D01*
X141729763Y-114498000D01*
X141836315Y-114482680D01*
X141944000Y-114433501D01*
X141944000Y-115348000D01*
X142588518Y-115348000D01*
X142595132Y-115347645D01*
X142651371Y-115341599D01*
X142786089Y-115291352D01*
X142901188Y-115205188D01*
X142987352Y-115090089D01*
X143037599Y-114955371D01*
X143043645Y-114899132D01*
X143044000Y-114892518D01*
X143044000Y-114248000D01*
X142127686Y-114248000D01*
X142153493Y-114207844D01*
X142194000Y-114069889D01*
X142194000Y-113926111D01*
X142153493Y-113788156D01*
X142127686Y-113748000D01*
X143044000Y-113748000D01*
X143044000Y-113103481D01*
X143043645Y-113096867D01*
X143037599Y-113040628D01*
X142987352Y-112905910D01*
X142901188Y-112790811D01*
X142786088Y-112704647D01*
X142759274Y-112694646D01*
X142703341Y-112652774D01*
X142678924Y-112587309D01*
X142693776Y-112519037D01*
X142711376Y-112494484D01*
X142842571Y-112351969D01*
X142974049Y-112150728D01*
X143070610Y-111930591D01*
X143129620Y-111697563D01*
X143149471Y-111458000D01*
X143129620Y-111218437D01*
X143070610Y-110985409D01*
X142974049Y-110765272D01*
X142842571Y-110564031D01*
X142679764Y-110387175D01*
X142654265Y-110367329D01*
X142549586Y-110285853D01*
X142508773Y-110229143D01*
X142505098Y-110159370D01*
X142539730Y-110098687D01*
X142549586Y-110090147D01*
X142587955Y-110060282D01*
X142679764Y-109988825D01*
X142842571Y-109811969D01*
X142974049Y-109610728D01*
X143070610Y-109390591D01*
X143129620Y-109157563D01*
X143149471Y-108918000D01*
X143129620Y-108678437D01*
X143070610Y-108445409D01*
X142974049Y-108225272D01*
X142842571Y-108024031D01*
X142679764Y-107847175D01*
X142654265Y-107827329D01*
X142549586Y-107745853D01*
X142508773Y-107689143D01*
X142505098Y-107619370D01*
X142539730Y-107558687D01*
X142549586Y-107550147D01*
X142587955Y-107520282D01*
X142679764Y-107448825D01*
X142842571Y-107271969D01*
X142974049Y-107070728D01*
X143070610Y-106850591D01*
X143129620Y-106617563D01*
X143149471Y-106378000D01*
X143129620Y-106138437D01*
X143070610Y-105905409D01*
X142974049Y-105685272D01*
X142842571Y-105484031D01*
X142679764Y-105307175D01*
X142658370Y-105290523D01*
X142490072Y-105159531D01*
X142490068Y-105159528D01*
X142490067Y-105159528D01*
X142278656Y-105045118D01*
X142278655Y-105045117D01*
X142278652Y-105045116D01*
X142051299Y-104967066D01*
X141893226Y-104940688D01*
X141814192Y-104927500D01*
X141573808Y-104927500D01*
X141514531Y-104937391D01*
X141336700Y-104967066D01*
X141109347Y-105045116D01*
X140897927Y-105159531D01*
X140708239Y-105307172D01*
X140542251Y-105487483D01*
X140482364Y-105523473D01*
X140451021Y-105527500D01*
X138936979Y-105527500D01*
X138869940Y-105507815D01*
X138845749Y-105487483D01*
X138820874Y-105460462D01*
X138679764Y-105307175D01*
X138658370Y-105290523D01*
X138490072Y-105159531D01*
X138490068Y-105159528D01*
X138490067Y-105159528D01*
X138278656Y-105045118D01*
X138278655Y-105045117D01*
X138278652Y-105045116D01*
X138051299Y-104967066D01*
X137893226Y-104940688D01*
X137814192Y-104927500D01*
X137573808Y-104927500D01*
X137514531Y-104937391D01*
X137336700Y-104967066D01*
X137109347Y-105045116D01*
X136897927Y-105159531D01*
X136708239Y-105307172D01*
X136542251Y-105487483D01*
X136482364Y-105523473D01*
X136451021Y-105527500D01*
X134936979Y-105527500D01*
X134869940Y-105507815D01*
X134845749Y-105487483D01*
X134820874Y-105460462D01*
X134679764Y-105307175D01*
X134658370Y-105290523D01*
X134490072Y-105159531D01*
X134490068Y-105159528D01*
X134490067Y-105159528D01*
X134278656Y-105045118D01*
X134278655Y-105045117D01*
X134278652Y-105045116D01*
X134051299Y-104967066D01*
X133893226Y-104940688D01*
X133814192Y-104927500D01*
X133573808Y-104927500D01*
X133514531Y-104937391D01*
X133336700Y-104967066D01*
X133109347Y-105045116D01*
X132897927Y-105159531D01*
X132708239Y-105307172D01*
X132545430Y-105484030D01*
X132413950Y-105685274D01*
X132317391Y-105905407D01*
X132258379Y-106138441D01*
X132238528Y-106377999D01*
X132258379Y-106617558D01*
X132258379Y-106617561D01*
X132258380Y-106617563D01*
X132317390Y-106850591D01*
X132413951Y-107070728D01*
X132545429Y-107271969D01*
X132708236Y-107448825D01*
X132708239Y-107448827D01*
X132838414Y-107550147D01*
X132879227Y-107606857D01*
X132882902Y-107676630D01*
X132848270Y-107737313D01*
X132838414Y-107745853D01*
X132708239Y-107847172D01*
X132545430Y-108024030D01*
X132413950Y-108225274D01*
X132317391Y-108445407D01*
X132258379Y-108678441D01*
X132238528Y-108917999D01*
X132258379Y-109157558D01*
X132258379Y-109157561D01*
X132258380Y-109157563D01*
X132317390Y-109390591D01*
X132413951Y-109610728D01*
X132545429Y-109811969D01*
X132708236Y-109988825D01*
X132838415Y-110090147D01*
X132879227Y-110146855D01*
X132882902Y-110216628D01*
X132848271Y-110277312D01*
X132838415Y-110285852D01*
X132708236Y-110387174D01*
X132545430Y-110564030D01*
X132413950Y-110765274D01*
X132317391Y-110985407D01*
X132258379Y-111218441D01*
X132238528Y-111458000D01*
X104140000Y-111458000D01*
X104140000Y-99897999D01*
X131831732Y-99897999D01*
X131850773Y-100152080D01*
X131907471Y-100400491D01*
X132000557Y-100637668D01*
X132127956Y-100858331D01*
X132169952Y-100910993D01*
X132933952Y-100146993D01*
X132943688Y-100176956D01*
X133031686Y-100315619D01*
X133151403Y-100428040D01*
X133286010Y-100502041D01*
X132523313Y-101264737D01*
X132684119Y-101374372D01*
X132913679Y-101484922D01*
X133157154Y-101560025D01*
X133409103Y-101598000D01*
X133663897Y-101598000D01*
X133915845Y-101560025D01*
X134002419Y-101533320D01*
X141213500Y-101533320D01*
X141213501Y-101537360D01*
X141214029Y-101541373D01*
X141214030Y-101541384D01*
X141228955Y-101654760D01*
X141264300Y-101740089D01*
X141289464Y-101800841D01*
X141385718Y-101926282D01*
X141385720Y-101926283D01*
X141387876Y-101929093D01*
X141413070Y-101994263D01*
X141413500Y-102004580D01*
X141413500Y-102089600D01*
X141413091Y-102099663D01*
X141408799Y-102152374D01*
X141419502Y-102230939D01*
X141419910Y-102234269D01*
X141428498Y-102313232D01*
X141433732Y-102335563D01*
X141433772Y-102335674D01*
X141433773Y-102335675D01*
X141461129Y-102410141D01*
X141462228Y-102413261D01*
X141485789Y-102483185D01*
X141487594Y-102488540D01*
X141497508Y-102509230D01*
X141514198Y-102535340D01*
X141540295Y-102576169D01*
X141542037Y-102578978D01*
X141564312Y-102616000D01*
X141582990Y-102647042D01*
X141597116Y-102665112D01*
X141597199Y-102665195D01*
X141597200Y-102665196D01*
X141653303Y-102721299D01*
X141655609Y-102723669D01*
X141710151Y-102781248D01*
X141710152Y-102781249D01*
X141710234Y-102781335D01*
X141728118Y-102796114D01*
X155557913Y-116625909D01*
X155591398Y-116687232D01*
X155586414Y-116756924D01*
X155544542Y-116812857D01*
X155528686Y-116822948D01*
X155397461Y-116893090D01*
X155245117Y-117018117D01*
X155120089Y-117170463D01*
X155027185Y-117344273D01*
X154969976Y-117532866D01*
X154950659Y-117728999D01*
X154969976Y-117925133D01*
X155027185Y-118113726D01*
X155120087Y-118287535D01*
X155121350Y-118289073D01*
X155123053Y-118293084D01*
X155125847Y-118298310D01*
X155125379Y-118298559D01*
X155148666Y-118353382D01*
X155149500Y-118367742D01*
X155149500Y-120070517D01*
X155129815Y-120137556D01*
X155077011Y-120183311D01*
X155055428Y-120190851D01*
X155054980Y-120190962D01*
X154889248Y-120273157D01*
X154745057Y-120389062D01*
X154708382Y-120434688D01*
X154651039Y-120474607D01*
X154611736Y-120481000D01*
X154343167Y-120481000D01*
X154276128Y-120461315D01*
X154246521Y-120434688D01*
X154229940Y-120414060D01*
X154085753Y-120298158D01*
X154035343Y-120273157D01*
X153920022Y-120215963D01*
X153740494Y-120171316D01*
X153701045Y-120168641D01*
X153701021Y-120168640D01*
X153698954Y-120168500D01*
X152301046Y-120168500D01*
X152298979Y-120168640D01*
X152298954Y-120168641D01*
X152259505Y-120171316D01*
X152079977Y-120215963D01*
X151914248Y-120298157D01*
X151770060Y-120414060D01*
X151654157Y-120558248D01*
X151571963Y-120723977D01*
X151527316Y-120903505D01*
X151524641Y-120942954D01*
X151524640Y-120942979D01*
X151524500Y-120945046D01*
X151524500Y-120947142D01*
X151524500Y-120947143D01*
X151524500Y-120970349D01*
X151504815Y-121037388D01*
X151452011Y-121083143D01*
X151382853Y-121093087D01*
X151319297Y-121064062D01*
X151312819Y-121058030D01*
X150636818Y-120382029D01*
X150603333Y-120320706D01*
X150600499Y-120294348D01*
X150600499Y-120198451D01*
X150620184Y-120131412D01*
X150636818Y-120110770D01*
X151192973Y-119554615D01*
X151908397Y-118839190D01*
X151915777Y-118832386D01*
X151956100Y-118798137D01*
X151997615Y-118743523D01*
X152041236Y-118707477D01*
X152120753Y-118668042D01*
X152264940Y-118552140D01*
X152380842Y-118407953D01*
X152463037Y-118242221D01*
X152507683Y-118062695D01*
X152510500Y-118021154D01*
X152510500Y-116573246D01*
X152507683Y-116531705D01*
X152463037Y-116352179D01*
X152380842Y-116186447D01*
X152264940Y-116042260D01*
X152120753Y-115926358D01*
X152083118Y-115907693D01*
X151955022Y-115844163D01*
X151775494Y-115799516D01*
X151736045Y-115796841D01*
X151736021Y-115796840D01*
X151733954Y-115796700D01*
X150936046Y-115796700D01*
X150933979Y-115796840D01*
X150933954Y-115796841D01*
X150894505Y-115799516D01*
X150714977Y-115844163D01*
X150549248Y-115926357D01*
X150405060Y-116042260D01*
X150289157Y-116186448D01*
X150206963Y-116352177D01*
X150162316Y-116531705D01*
X150159641Y-116571154D01*
X150159640Y-116571179D01*
X150159500Y-116573246D01*
X150159500Y-118021154D01*
X150159640Y-118023221D01*
X150159641Y-118023245D01*
X150162317Y-118062699D01*
X150168698Y-118088361D01*
X150165773Y-118158169D01*
X150136044Y-118205965D01*
X149380828Y-118961181D01*
X149319505Y-118994666D01*
X149293147Y-118997500D01*
X148264694Y-118997500D01*
X148264678Y-118997500D01*
X148260640Y-118997501D01*
X148256627Y-118998029D01*
X148256615Y-118998030D01*
X148143239Y-119012955D01*
X147997158Y-119073464D01*
X147871718Y-119169717D01*
X147849260Y-119198986D01*
X147792833Y-119240189D01*
X147750884Y-119247500D01*
X144249116Y-119247500D01*
X144182077Y-119227815D01*
X144150740Y-119198986D01*
X144128281Y-119169717D01*
X144002840Y-119073463D01*
X143856762Y-119012956D01*
X143743380Y-118998029D01*
X143743378Y-118998028D01*
X143739361Y-118997500D01*
X143735307Y-118997500D01*
X141964694Y-118997500D01*
X141964678Y-118997500D01*
X141960640Y-118997501D01*
X141956627Y-118998029D01*
X141956615Y-118998030D01*
X141843239Y-119012955D01*
X141697158Y-119073464D01*
X141571717Y-119169717D01*
X141475463Y-119295159D01*
X141414956Y-119441237D01*
X141414956Y-119441238D01*
X141399500Y-119558639D01*
X141399500Y-119562691D01*
X141399500Y-119562692D01*
X141399500Y-120633305D01*
X141399500Y-120633320D01*
X141399501Y-120637360D01*
X141400029Y-120641373D01*
X141400030Y-120641384D01*
X141414955Y-120754760D01*
X141475464Y-120900841D01*
X141571717Y-121026282D01*
X141658780Y-121093087D01*
X141697159Y-121122536D01*
X141843238Y-121183044D01*
X141960639Y-121198500D01*
X143739360Y-121198499D01*
X143856762Y-121183044D01*
X144002841Y-121122536D01*
X144128282Y-121026282D01*
X144150740Y-120997013D01*
X144207167Y-120955811D01*
X144249116Y-120948500D01*
X147750884Y-120948500D01*
X147817923Y-120968185D01*
X147849259Y-120997013D01*
X147871718Y-121026282D01*
X147997159Y-121122536D01*
X148143238Y-121183044D01*
X148260639Y-121198500D01*
X148996348Y-121198499D01*
X149063387Y-121218183D01*
X149084029Y-121234818D01*
X151507697Y-123658486D01*
X151541182Y-123719809D01*
X151540351Y-123776093D01*
X151527316Y-123828505D01*
X151524641Y-123867954D01*
X151524640Y-123867979D01*
X151524500Y-123870046D01*
X151524500Y-124642954D01*
X151524640Y-124645021D01*
X151524641Y-124645045D01*
X151527316Y-124684494D01*
X151571963Y-124864022D01*
X151627304Y-124975606D01*
X151654158Y-125029753D01*
X151770060Y-125173940D01*
X151914247Y-125289842D01*
X152079979Y-125372037D01*
X152259505Y-125416683D01*
X152301046Y-125419500D01*
X152303144Y-125419500D01*
X153696856Y-125419500D01*
X153698954Y-125419500D01*
X153740495Y-125416683D01*
X153920021Y-125372037D01*
X154085753Y-125289842D01*
X154229940Y-125173940D01*
X154345842Y-125029753D01*
X154426764Y-124866587D01*
X154474181Y-124815279D01*
X154541816Y-124797749D01*
X154608192Y-124819569D01*
X154652234Y-124873810D01*
X154655555Y-124882681D01*
X154665642Y-124913123D01*
X154757683Y-125062345D01*
X154881654Y-125186316D01*
X155030877Y-125278357D01*
X155197303Y-125333506D01*
X155296890Y-125343680D01*
X155303168Y-125343999D01*
X155749999Y-125343999D01*
X156250000Y-125343999D01*
X156696829Y-125343999D01*
X156703111Y-125343678D01*
X156802695Y-125333506D01*
X156969122Y-125278357D01*
X157118345Y-125186316D01*
X157242316Y-125062345D01*
X157334357Y-124913122D01*
X157390593Y-124743415D01*
X157430366Y-124685970D01*
X157494881Y-124659147D01*
X157563657Y-124671462D01*
X157607566Y-124708108D01*
X157642810Y-124755188D01*
X157757910Y-124841352D01*
X157892628Y-124891599D01*
X157948867Y-124897645D01*
X157955482Y-124898000D01*
X158600000Y-124898000D01*
X158600000Y-124148000D01*
X159100000Y-124148000D01*
X159100000Y-124898000D01*
X159744518Y-124898000D01*
X159751132Y-124897645D01*
X159807371Y-124891599D01*
X159942089Y-124841352D01*
X160057188Y-124755188D01*
X160143352Y-124640089D01*
X160193599Y-124505371D01*
X160199645Y-124449132D01*
X160200000Y-124442518D01*
X160200000Y-124148000D01*
X163800000Y-124148000D01*
X163800000Y-124442518D01*
X163800354Y-124449132D01*
X163806400Y-124505371D01*
X163856647Y-124640089D01*
X163942811Y-124755188D01*
X164057910Y-124841352D01*
X164192628Y-124891599D01*
X164248867Y-124897645D01*
X164255482Y-124898000D01*
X164900000Y-124898000D01*
X164900000Y-124148000D01*
X165400000Y-124148000D01*
X165400000Y-124898000D01*
X166044518Y-124898000D01*
X166051132Y-124897645D01*
X166107371Y-124891599D01*
X166242089Y-124841352D01*
X166357188Y-124755188D01*
X166443352Y-124640089D01*
X166493599Y-124505371D01*
X166499645Y-124449132D01*
X166500000Y-124442518D01*
X166500000Y-124148000D01*
X165400000Y-124148000D01*
X164900000Y-124148000D01*
X163800000Y-124148000D01*
X160200000Y-124148000D01*
X159100000Y-124148000D01*
X158600000Y-124148000D01*
X158600000Y-122898000D01*
X159100000Y-122898000D01*
X159100000Y-123648000D01*
X160200000Y-123648000D01*
X163800000Y-123648000D01*
X164900000Y-123648000D01*
X164900000Y-122898000D01*
X165400000Y-122898000D01*
X165400000Y-123648000D01*
X166500000Y-123648000D01*
X166500000Y-123353481D01*
X166499645Y-123346867D01*
X166493599Y-123290628D01*
X166443352Y-123155910D01*
X166357188Y-123040811D01*
X166242089Y-122954647D01*
X166107371Y-122904400D01*
X166051132Y-122898354D01*
X166044518Y-122898000D01*
X165400000Y-122898000D01*
X164900000Y-122898000D01*
X164255482Y-122898000D01*
X164248867Y-122898354D01*
X164192628Y-122904400D01*
X164057910Y-122954647D01*
X163942811Y-123040811D01*
X163856647Y-123155910D01*
X163806400Y-123290628D01*
X163800354Y-123346867D01*
X163800000Y-123353481D01*
X163800000Y-123648000D01*
X160200000Y-123648000D01*
X160200000Y-123353481D01*
X160199645Y-123346867D01*
X160193599Y-123290628D01*
X160143352Y-123155910D01*
X160057188Y-123040811D01*
X159942089Y-122954647D01*
X159807371Y-122904400D01*
X159751132Y-122898354D01*
X159744518Y-122898000D01*
X159100000Y-122898000D01*
X158600000Y-122898000D01*
X157955482Y-122898000D01*
X157948867Y-122898354D01*
X157892628Y-122904400D01*
X157757910Y-122954647D01*
X157642811Y-123040811D01*
X157556647Y-123155910D01*
X157506400Y-123290628D01*
X157500354Y-123346867D01*
X157500000Y-123353481D01*
X157500000Y-123456188D01*
X157480315Y-123523227D01*
X157427511Y-123568982D01*
X157358353Y-123578926D01*
X157294797Y-123549901D01*
X157270461Y-123521285D01*
X157242315Y-123475653D01*
X157118345Y-123351683D01*
X156969122Y-123259642D01*
X156802696Y-123204493D01*
X156703109Y-123194319D01*
X156696832Y-123194000D01*
X156250000Y-123194000D01*
X156250000Y-125343999D01*
X155749999Y-125343999D01*
X155750000Y-125343998D01*
X155750000Y-123194000D01*
X155303171Y-123194000D01*
X155296888Y-123194321D01*
X155197304Y-123204493D01*
X155030877Y-123259642D01*
X154881654Y-123351683D01*
X154757683Y-123475654D01*
X154665642Y-123624878D01*
X154660520Y-123640334D01*
X154620745Y-123697777D01*
X154556228Y-123724598D01*
X154487453Y-123712281D01*
X154436255Y-123664737D01*
X154431727Y-123656420D01*
X154423749Y-123640334D01*
X154345842Y-123483247D01*
X154229940Y-123339060D01*
X154085753Y-123223158D01*
X154048118Y-123204493D01*
X153920022Y-123140963D01*
X153740494Y-123096316D01*
X153701045Y-123093641D01*
X153701021Y-123093640D01*
X153698954Y-123093500D01*
X153696856Y-123093500D01*
X153399650Y-123093500D01*
X153332611Y-123073815D01*
X153311969Y-123057181D01*
X152960969Y-122706181D01*
X152927484Y-122644858D01*
X152932468Y-122575166D01*
X152974340Y-122519233D01*
X153039804Y-122494816D01*
X153048650Y-122494500D01*
X153696856Y-122494500D01*
X153698954Y-122494500D01*
X153740495Y-122491683D01*
X153920021Y-122447037D01*
X154085753Y-122364842D01*
X154229940Y-122248940D01*
X154246520Y-122228312D01*
X154303862Y-122188394D01*
X154343167Y-122182000D01*
X154631833Y-122182000D01*
X154698872Y-122201685D01*
X154728478Y-122228311D01*
X154745060Y-122248940D01*
X154889247Y-122364842D01*
X155054979Y-122447037D01*
X155234505Y-122491683D01*
X155276046Y-122494500D01*
X155278144Y-122494500D01*
X156721856Y-122494500D01*
X156723954Y-122494500D01*
X156765495Y-122491683D01*
X156945021Y-122447037D01*
X157110753Y-122364842D01*
X157254940Y-122248940D01*
X157370842Y-122104753D01*
X157453037Y-121939021D01*
X157497683Y-121759495D01*
X157500500Y-121717954D01*
X157500500Y-121223081D01*
X157520185Y-121156042D01*
X157572989Y-121110287D01*
X157642147Y-121100343D01*
X157681768Y-121117032D01*
X157682076Y-121116289D01*
X157762780Y-121149717D01*
X157843238Y-121183044D01*
X157960639Y-121198500D01*
X159739360Y-121198499D01*
X159856762Y-121183044D01*
X160002841Y-121122536D01*
X160128282Y-121026282D01*
X160150740Y-120997013D01*
X160207167Y-120955811D01*
X160249116Y-120948500D01*
X163750884Y-120948500D01*
X163817923Y-120968185D01*
X163849259Y-120997013D01*
X163871718Y-121026282D01*
X163997159Y-121122536D01*
X164143238Y-121183044D01*
X164260639Y-121198500D01*
X166039360Y-121198499D01*
X166156762Y-121183044D01*
X166302841Y-121122536D01*
X166428282Y-121026282D01*
X166524536Y-120900841D01*
X166585044Y-120754762D01*
X166600500Y-120637361D01*
X166600499Y-119558640D01*
X166585044Y-119441238D01*
X166524536Y-119295159D01*
X166482356Y-119240189D01*
X166428282Y-119169717D01*
X166302840Y-119073463D01*
X166156762Y-119012956D01*
X166043380Y-118998029D01*
X166043378Y-118998028D01*
X166039361Y-118997500D01*
X166035307Y-118997500D01*
X164264694Y-118997500D01*
X164264678Y-118997500D01*
X164260640Y-118997501D01*
X164256627Y-118998029D01*
X164256615Y-118998030D01*
X164143239Y-119012955D01*
X163997158Y-119073464D01*
X163871718Y-119169717D01*
X163849260Y-119198986D01*
X163792833Y-119240189D01*
X163750884Y-119247500D01*
X160249116Y-119247500D01*
X160182077Y-119227815D01*
X160150740Y-119198986D01*
X160128281Y-119169717D01*
X160002840Y-119073463D01*
X159856762Y-119012956D01*
X159856761Y-119012955D01*
X159808314Y-119006577D01*
X159744418Y-118978312D01*
X159705947Y-118919987D01*
X159700500Y-118883639D01*
X159700500Y-118754812D01*
X159700909Y-118744749D01*
X159701809Y-118733691D01*
X159705201Y-118692040D01*
X159694490Y-118613431D01*
X159694086Y-118610126D01*
X159687780Y-118552140D01*
X159685514Y-118531297D01*
X159685513Y-118531296D01*
X159685501Y-118531178D01*
X159680270Y-118508857D01*
X159652877Y-118434293D01*
X159651762Y-118431127D01*
X159646512Y-118415545D01*
X159626444Y-118355986D01*
X159626441Y-118355982D01*
X159626404Y-118355870D01*
X159616496Y-118335192D01*
X159616432Y-118335093D01*
X159616432Y-118335091D01*
X159573715Y-118268262D01*
X159571957Y-118265428D01*
X159557995Y-118242222D01*
X159531070Y-118197471D01*
X159531067Y-118197468D01*
X159531010Y-118197373D01*
X159516882Y-118179301D01*
X159460749Y-118123168D01*
X159458407Y-118120762D01*
X159443537Y-118105064D01*
X159403849Y-118063166D01*
X159403847Y-118063165D01*
X159403770Y-118063083D01*
X159385877Y-118048296D01*
X143647762Y-102310180D01*
X143614277Y-102248857D01*
X143619261Y-102179165D01*
X143661133Y-102123232D01*
X143726597Y-102098815D01*
X143735443Y-102098499D01*
X144019305Y-102098499D01*
X144023360Y-102098499D01*
X144140762Y-102083044D01*
X144140763Y-102083043D01*
X144152815Y-102081457D01*
X144185184Y-102081457D01*
X144197237Y-102083043D01*
X144197238Y-102083044D01*
X144314639Y-102098500D01*
X145293360Y-102098499D01*
X145410762Y-102083044D01*
X145410763Y-102083043D01*
X145422815Y-102081457D01*
X145455184Y-102081457D01*
X145467237Y-102083043D01*
X145467238Y-102083044D01*
X145584639Y-102098500D01*
X146563360Y-102098499D01*
X146680762Y-102083044D01*
X146680763Y-102083043D01*
X146692815Y-102081457D01*
X146725184Y-102081457D01*
X146737237Y-102083043D01*
X146737238Y-102083044D01*
X146854639Y-102098500D01*
X147833360Y-102098499D01*
X147950762Y-102083044D01*
X147950762Y-102083043D01*
X147962816Y-102081457D01*
X147995185Y-102081457D01*
X148007237Y-102083043D01*
X148007238Y-102083044D01*
X148124639Y-102098500D01*
X149103360Y-102098499D01*
X149220762Y-102083044D01*
X149220762Y-102083043D01*
X149232816Y-102081457D01*
X149265185Y-102081457D01*
X149277237Y-102083043D01*
X149277238Y-102083044D01*
X149394639Y-102098500D01*
X150373360Y-102098499D01*
X150490762Y-102083044D01*
X150490763Y-102083043D01*
X150502815Y-102081457D01*
X150535184Y-102081457D01*
X150547237Y-102083043D01*
X150547238Y-102083044D01*
X150664639Y-102098500D01*
X151643360Y-102098499D01*
X151760762Y-102083044D01*
X151760763Y-102083043D01*
X151772815Y-102081457D01*
X151805184Y-102081457D01*
X151817237Y-102083043D01*
X151817238Y-102083044D01*
X151934639Y-102098500D01*
X152753356Y-102098499D01*
X152820395Y-102118183D01*
X152866150Y-102170987D01*
X152869749Y-102179737D01*
X152891113Y-102237888D01*
X152892228Y-102241054D01*
X152906577Y-102283640D01*
X152915520Y-102310180D01*
X152917594Y-102316333D01*
X152927508Y-102337023D01*
X152944198Y-102363133D01*
X152970295Y-102403962D01*
X152972037Y-102406771D01*
X153012990Y-102474835D01*
X153027116Y-102492905D01*
X153027199Y-102492988D01*
X153027200Y-102492989D01*
X153083303Y-102549092D01*
X153085609Y-102551462D01*
X153140151Y-102609041D01*
X153140152Y-102609042D01*
X153140234Y-102609128D01*
X153158118Y-102623907D01*
X161718222Y-111184011D01*
X161751707Y-111245334D01*
X161754118Y-111281931D01*
X161739529Y-111458000D01*
X161759379Y-111697558D01*
X161759379Y-111697561D01*
X161759380Y-111697563D01*
X161818390Y-111930591D01*
X161914951Y-112150728D01*
X162046429Y-112351969D01*
X162177621Y-112494482D01*
X162208543Y-112557136D01*
X162200683Y-112626562D01*
X162156536Y-112680717D01*
X162129726Y-112694645D01*
X162102913Y-112704646D01*
X161987811Y-112790811D01*
X161901647Y-112905910D01*
X161851400Y-113040628D01*
X161845354Y-113096867D01*
X161845000Y-113103481D01*
X161845000Y-113748000D01*
X162761314Y-113748000D01*
X162735507Y-113788156D01*
X162695000Y-113926111D01*
X162695000Y-114069889D01*
X162735507Y-114207844D01*
X162761314Y-114248000D01*
X161845000Y-114248000D01*
X161845000Y-114892518D01*
X161845354Y-114899132D01*
X161851400Y-114955371D01*
X161901647Y-115090089D01*
X161987811Y-115205188D01*
X162102910Y-115291352D01*
X162237628Y-115341599D01*
X162293867Y-115347645D01*
X162300482Y-115348000D01*
X162945000Y-115348000D01*
X162945000Y-114433501D01*
X163052685Y-114482680D01*
X163159237Y-114498000D01*
X163230763Y-114498000D01*
X163337315Y-114482680D01*
X163445000Y-114433501D01*
X163445000Y-115348000D01*
X164089518Y-115348000D01*
X164096132Y-115347645D01*
X164152371Y-115341599D01*
X164287089Y-115291352D01*
X164402188Y-115205188D01*
X164488352Y-115090089D01*
X164538599Y-114955371D01*
X164544645Y-114899132D01*
X164545000Y-114892518D01*
X164545000Y-114248000D01*
X163628686Y-114248000D01*
X163654493Y-114207844D01*
X163695000Y-114069889D01*
X163695000Y-113926111D01*
X163654493Y-113788156D01*
X163628686Y-113748000D01*
X164545000Y-113748000D01*
X164545000Y-113103481D01*
X164544645Y-113096867D01*
X164538599Y-113040628D01*
X164488352Y-112905910D01*
X164402188Y-112790811D01*
X164287088Y-112704647D01*
X164260274Y-112694646D01*
X164204341Y-112652774D01*
X164179924Y-112587309D01*
X164194776Y-112519037D01*
X164212376Y-112494484D01*
X164343571Y-112351969D01*
X164475049Y-112150728D01*
X164571610Y-111930591D01*
X164630620Y-111697563D01*
X164650471Y-111458000D01*
X164630620Y-111218437D01*
X164571610Y-110985409D01*
X164475049Y-110765272D01*
X164343571Y-110564031D01*
X164180764Y-110387175D01*
X164155265Y-110367329D01*
X164050586Y-110285853D01*
X164009773Y-110229143D01*
X164006098Y-110159370D01*
X164040730Y-110098687D01*
X164050586Y-110090147D01*
X164088955Y-110060282D01*
X164180764Y-109988825D01*
X164343571Y-109811969D01*
X164475049Y-109610728D01*
X164571610Y-109390591D01*
X164630620Y-109157563D01*
X164650471Y-108918000D01*
X164630620Y-108678437D01*
X164571610Y-108445409D01*
X164475049Y-108225272D01*
X164343571Y-108024031D01*
X164180764Y-107847175D01*
X164155265Y-107827329D01*
X164050586Y-107745853D01*
X164009773Y-107689143D01*
X164006098Y-107619370D01*
X164040730Y-107558687D01*
X164050586Y-107550147D01*
X164088955Y-107520282D01*
X164180764Y-107448825D01*
X164343571Y-107271969D01*
X164475049Y-107070728D01*
X164571610Y-106850591D01*
X164630620Y-106617563D01*
X164650471Y-106378000D01*
X164630620Y-106138437D01*
X164571610Y-105905409D01*
X164475049Y-105685272D01*
X164343571Y-105484031D01*
X164180764Y-105307175D01*
X164159370Y-105290523D01*
X163991072Y-105159531D01*
X163991068Y-105159528D01*
X163991067Y-105159528D01*
X163779656Y-105045118D01*
X163779655Y-105045117D01*
X163779652Y-105045116D01*
X163552299Y-104967066D01*
X163394227Y-104940688D01*
X163315192Y-104927500D01*
X163074808Y-104927500D01*
X163015531Y-104937391D01*
X162837700Y-104967066D01*
X162610347Y-105045116D01*
X162398927Y-105159531D01*
X162209239Y-105307172D01*
X162046430Y-105484030D01*
X161914950Y-105685274D01*
X161818391Y-105905407D01*
X161759379Y-106138441D01*
X161739528Y-106378000D01*
X161759379Y-106617558D01*
X161759379Y-106617561D01*
X161759380Y-106617563D01*
X161818390Y-106850591D01*
X161914951Y-107070728D01*
X162046429Y-107271969D01*
X162209236Y-107448825D01*
X162339415Y-107550147D01*
X162380227Y-107606855D01*
X162383902Y-107676628D01*
X162349271Y-107737312D01*
X162339414Y-107745853D01*
X162248214Y-107816836D01*
X162183220Y-107842478D01*
X162114680Y-107828911D01*
X162084371Y-107806663D01*
X156587888Y-102310180D01*
X156554403Y-102248857D01*
X156559387Y-102179165D01*
X156601259Y-102123232D01*
X156666723Y-102098815D01*
X156675569Y-102098499D01*
X156719305Y-102098499D01*
X156723360Y-102098499D01*
X156840762Y-102083044D01*
X156840763Y-102083043D01*
X156852815Y-102081457D01*
X156885184Y-102081457D01*
X156897237Y-102083043D01*
X156897238Y-102083044D01*
X157014639Y-102098500D01*
X157993360Y-102098499D01*
X158110762Y-102083044D01*
X158256841Y-102022536D01*
X158256840Y-102022536D01*
X158271923Y-102016289D01*
X158272264Y-102017113D01*
X158320589Y-101998430D01*
X158330909Y-101998000D01*
X158524000Y-101998000D01*
X158524000Y-101715746D01*
X158533439Y-101668293D01*
X158539044Y-101654762D01*
X158554500Y-101537361D01*
X158554500Y-100998000D01*
X159024000Y-100998000D01*
X159024000Y-101998000D01*
X159268518Y-101998000D01*
X159275132Y-101997645D01*
X159331371Y-101991599D01*
X159466089Y-101941352D01*
X159581188Y-101855188D01*
X159667352Y-101740089D01*
X159717599Y-101605371D01*
X159723645Y-101549132D01*
X159724000Y-101542518D01*
X159724000Y-100998000D01*
X159024000Y-100998000D01*
X158554500Y-100998000D01*
X158554499Y-99958640D01*
X158541101Y-99856862D01*
X158539045Y-99841241D01*
X158539044Y-99841238D01*
X158533438Y-99827705D01*
X158524000Y-99780253D01*
X158524000Y-99498000D01*
X159024000Y-99498000D01*
X159024000Y-100498000D01*
X159724000Y-100498000D01*
X159724000Y-99953481D01*
X159723645Y-99946867D01*
X159717599Y-99890628D01*
X159667352Y-99755910D01*
X159581188Y-99640811D01*
X159466089Y-99554647D01*
X159331371Y-99504400D01*
X159275132Y-99498354D01*
X159268518Y-99498000D01*
X159024000Y-99498000D01*
X158524000Y-99498000D01*
X158330909Y-99498000D01*
X158263870Y-99478315D01*
X158257153Y-99473593D01*
X158110762Y-99412956D01*
X157997380Y-99398029D01*
X157997378Y-99398028D01*
X157993361Y-99397500D01*
X157989308Y-99397500D01*
X157208500Y-99397500D01*
X157141461Y-99377815D01*
X157095706Y-99325011D01*
X157084500Y-99273500D01*
X157084500Y-98307400D01*
X157099141Y-98248949D01*
X157138814Y-98174727D01*
X157196024Y-97986132D01*
X157215341Y-97790000D01*
X157196024Y-97593868D01*
X157138814Y-97405273D01*
X157045910Y-97231462D01*
X156920883Y-97079117D01*
X156768538Y-96954090D01*
X156710947Y-96923307D01*
X156594726Y-96861185D01*
X156406133Y-96803976D01*
X156210000Y-96784659D01*
X156013866Y-96803976D01*
X155825273Y-96861185D01*
X155651463Y-96954089D01*
X155499117Y-97079117D01*
X155374089Y-97231463D01*
X155281185Y-97405273D01*
X155223976Y-97593866D01*
X155204659Y-97790000D01*
X155223976Y-97986133D01*
X155281185Y-98174726D01*
X155295432Y-98201380D01*
X155356036Y-98314762D01*
X155368858Y-98338749D01*
X155383500Y-98397202D01*
X155383500Y-99273500D01*
X155363815Y-99340539D01*
X155311011Y-99386294D01*
X155259500Y-99397500D01*
X154478694Y-99397500D01*
X154478678Y-99397500D01*
X154474640Y-99397501D01*
X154470627Y-99398029D01*
X154470615Y-99398030D01*
X154345183Y-99414542D01*
X154312816Y-99414542D01*
X154187383Y-99398029D01*
X154187375Y-99398028D01*
X154183361Y-99397500D01*
X154179308Y-99397500D01*
X153398500Y-99397500D01*
X153331461Y-99377815D01*
X153285706Y-99325011D01*
X153274500Y-99273500D01*
X153274500Y-98307400D01*
X153289141Y-98248949D01*
X153328814Y-98174727D01*
X153386024Y-97986132D01*
X153405341Y-97790000D01*
X153386024Y-97593868D01*
X153328814Y-97405273D01*
X153235910Y-97231462D01*
X153110883Y-97079117D01*
X152958538Y-96954090D01*
X152900947Y-96923307D01*
X152784726Y-96861185D01*
X152596133Y-96803976D01*
X152400000Y-96784659D01*
X152203866Y-96803976D01*
X152015273Y-96861185D01*
X151841463Y-96954089D01*
X151689117Y-97079117D01*
X151564089Y-97231463D01*
X151471185Y-97405273D01*
X151413976Y-97593866D01*
X151394659Y-97790000D01*
X151413976Y-97986133D01*
X151471185Y-98174726D01*
X151485432Y-98201380D01*
X151546036Y-98314762D01*
X151558858Y-98338749D01*
X151573500Y-98397202D01*
X151573500Y-99273500D01*
X151553815Y-99340539D01*
X151501011Y-99386294D01*
X151449500Y-99397500D01*
X150668694Y-99397500D01*
X150668678Y-99397500D01*
X150664640Y-99397501D01*
X150660627Y-99398029D01*
X150660615Y-99398030D01*
X150535183Y-99414542D01*
X150502816Y-99414542D01*
X150377383Y-99398029D01*
X150377375Y-99398028D01*
X150373361Y-99397500D01*
X150369307Y-99397500D01*
X149398694Y-99397500D01*
X149398678Y-99397500D01*
X149394640Y-99397501D01*
X149390627Y-99398029D01*
X149390615Y-99398030D01*
X149265180Y-99414542D01*
X149232812Y-99414542D01*
X149107381Y-99398029D01*
X149107377Y-99398028D01*
X149103361Y-99397500D01*
X149099307Y-99397500D01*
X148128694Y-99397500D01*
X148128678Y-99397500D01*
X148124640Y-99397501D01*
X148120627Y-99398029D01*
X148120615Y-99398030D01*
X147995180Y-99414542D01*
X147962812Y-99414542D01*
X147837381Y-99398029D01*
X147837377Y-99398028D01*
X147833361Y-99397500D01*
X147829307Y-99397500D01*
X146858694Y-99397500D01*
X146858678Y-99397500D01*
X146854640Y-99397501D01*
X146850627Y-99398029D01*
X146850615Y-99398030D01*
X146725183Y-99414542D01*
X146692816Y-99414542D01*
X146567383Y-99398029D01*
X146567375Y-99398028D01*
X146563361Y-99397500D01*
X146559307Y-99397500D01*
X145588694Y-99397500D01*
X145588678Y-99397500D01*
X145584640Y-99397501D01*
X145580627Y-99398029D01*
X145580615Y-99398030D01*
X145455183Y-99414542D01*
X145422816Y-99414542D01*
X145297383Y-99398029D01*
X145297375Y-99398028D01*
X145293361Y-99397500D01*
X145289307Y-99397500D01*
X144318694Y-99397500D01*
X144318678Y-99397500D01*
X144314640Y-99397501D01*
X144310627Y-99398029D01*
X144310615Y-99398030D01*
X144185183Y-99414542D01*
X144152816Y-99414542D01*
X144027383Y-99398029D01*
X144027375Y-99398028D01*
X144023361Y-99397500D01*
X144019307Y-99397500D01*
X143048694Y-99397500D01*
X143048678Y-99397500D01*
X143044640Y-99397501D01*
X143040627Y-99398029D01*
X143040615Y-99398030D01*
X142915183Y-99414542D01*
X142882816Y-99414542D01*
X142757383Y-99398029D01*
X142757375Y-99398028D01*
X142753361Y-99397500D01*
X142749307Y-99397500D01*
X141778694Y-99397500D01*
X141778678Y-99397500D01*
X141774640Y-99397501D01*
X141770627Y-99398029D01*
X141770615Y-99398030D01*
X141657239Y-99412955D01*
X141511158Y-99473464D01*
X141385717Y-99569717D01*
X141289463Y-99695159D01*
X141228956Y-99841237D01*
X141228956Y-99841241D01*
X141213500Y-99958639D01*
X141213500Y-99962691D01*
X141213500Y-99962692D01*
X141213500Y-101533305D01*
X141213500Y-101533320D01*
X134002419Y-101533320D01*
X134159323Y-101484921D01*
X134388883Y-101374372D01*
X134549685Y-101264737D01*
X133784034Y-100499086D01*
X133852129Y-100472126D01*
X133984992Y-100375595D01*
X134089675Y-100249055D01*
X134138131Y-100146079D01*
X134903045Y-100910993D01*
X134903046Y-100910992D01*
X134945045Y-100858328D01*
X135072442Y-100637669D01*
X135165528Y-100400491D01*
X135222226Y-100152080D01*
X135241267Y-99898000D01*
X135222226Y-99643919D01*
X135165528Y-99395508D01*
X135072442Y-99158330D01*
X134945045Y-98937671D01*
X134903046Y-98885005D01*
X134139046Y-99649004D01*
X134129312Y-99619044D01*
X134041314Y-99480381D01*
X133921597Y-99367960D01*
X133786988Y-99293957D01*
X134549685Y-98531261D01*
X134388879Y-98421625D01*
X134159323Y-98311078D01*
X133915845Y-98235974D01*
X133663897Y-98198000D01*
X133409103Y-98198000D01*
X133157154Y-98235974D01*
X132913679Y-98311077D01*
X132684115Y-98421628D01*
X132523313Y-98531261D01*
X133288964Y-99296913D01*
X133220871Y-99323874D01*
X133088008Y-99420405D01*
X132983325Y-99546945D01*
X132934868Y-99649921D01*
X132169953Y-98885006D01*
X132127953Y-98937673D01*
X132000557Y-99158331D01*
X131907471Y-99395508D01*
X131850773Y-99643919D01*
X131831732Y-99897999D01*
X104140000Y-99897999D01*
X104140000Y-98193320D01*
X139663500Y-98193320D01*
X139663501Y-98197360D01*
X139664029Y-98201373D01*
X139664030Y-98201384D01*
X139678955Y-98314760D01*
X139739464Y-98460841D01*
X139835717Y-98586282D01*
X139961158Y-98682535D01*
X139961159Y-98682536D01*
X140107238Y-98743044D01*
X140224639Y-98758500D01*
X141803360Y-98758499D01*
X141920762Y-98743044D01*
X142066841Y-98682536D01*
X142192282Y-98586282D01*
X142288536Y-98460841D01*
X142349044Y-98314762D01*
X142364500Y-98197361D01*
X142364499Y-97218640D01*
X142349044Y-97101238D01*
X142349043Y-97101237D01*
X142347457Y-97089184D01*
X142347457Y-97056815D01*
X142349044Y-97044762D01*
X142364500Y-96927361D01*
X142364499Y-95948640D01*
X142349044Y-95831238D01*
X142349043Y-95831237D01*
X142347457Y-95819184D01*
X142347457Y-95786815D01*
X142349044Y-95774762D01*
X142364500Y-95657361D01*
X142364499Y-94678640D01*
X142349044Y-94561238D01*
X142349043Y-94561237D01*
X142347457Y-94549184D01*
X142347457Y-94516815D01*
X142349044Y-94504762D01*
X142364500Y-94387361D01*
X142364499Y-93408640D01*
X142349044Y-93291238D01*
X142347457Y-93279181D01*
X142347457Y-93246811D01*
X142349042Y-93234764D01*
X142349044Y-93234762D01*
X142364500Y-93117361D01*
X142364499Y-92148000D01*
X148704000Y-92148000D01*
X148704000Y-92392518D01*
X148704354Y-92399132D01*
X148710400Y-92455371D01*
X148760647Y-92590089D01*
X148846811Y-92705188D01*
X148961910Y-92791352D01*
X149096628Y-92841599D01*
X149152867Y-92847645D01*
X149159482Y-92848000D01*
X149404000Y-92848000D01*
X149404000Y-92148000D01*
X149904000Y-92148000D01*
X149904000Y-92848000D01*
X150148518Y-92848000D01*
X150155132Y-92847645D01*
X150211371Y-92841599D01*
X150310666Y-92804564D01*
X150380358Y-92799580D01*
X150397334Y-92804564D01*
X150496628Y-92841599D01*
X150552867Y-92847645D01*
X150559482Y-92848000D01*
X150804000Y-92848000D01*
X150804000Y-92148000D01*
X151304000Y-92148000D01*
X151304000Y-92848000D01*
X151548518Y-92848000D01*
X151555132Y-92847645D01*
X151611371Y-92841599D01*
X151710666Y-92804564D01*
X151780358Y-92799580D01*
X151797334Y-92804564D01*
X151896628Y-92841599D01*
X151952867Y-92847645D01*
X151959482Y-92848000D01*
X152204000Y-92848000D01*
X152204000Y-92148000D01*
X152704000Y-92148000D01*
X152704000Y-92848000D01*
X152948518Y-92848000D01*
X152955132Y-92847645D01*
X153011371Y-92841599D01*
X153146089Y-92791352D01*
X153261188Y-92705188D01*
X153347352Y-92590089D01*
X153397599Y-92455371D01*
X153403645Y-92399132D01*
X153404000Y-92392518D01*
X153404000Y-92148000D01*
X152704000Y-92148000D01*
X152204000Y-92148000D01*
X151304000Y-92148000D01*
X150804000Y-92148000D01*
X149904000Y-92148000D01*
X149404000Y-92148000D01*
X148704000Y-92148000D01*
X142364499Y-92148000D01*
X142364499Y-92138640D01*
X142349044Y-92021238D01*
X142349043Y-92021237D01*
X142347457Y-92009184D01*
X142347457Y-91976815D01*
X142349044Y-91964762D01*
X142364500Y-91847361D01*
X142364499Y-90868640D01*
X142349044Y-90751238D01*
X142348618Y-90748000D01*
X148704000Y-90748000D01*
X148704000Y-90992518D01*
X148704354Y-90999132D01*
X148710400Y-91055373D01*
X148747435Y-91154667D01*
X148752419Y-91224359D01*
X148747435Y-91241333D01*
X148710400Y-91340626D01*
X148704354Y-91396867D01*
X148704000Y-91403481D01*
X148704000Y-91648000D01*
X149404000Y-91648000D01*
X149404000Y-90748000D01*
X149904000Y-90748000D01*
X149904000Y-91648000D01*
X150804000Y-91648000D01*
X150804000Y-90748000D01*
X151304000Y-90748000D01*
X151304000Y-91648000D01*
X152204000Y-91648000D01*
X152204000Y-90748000D01*
X152704000Y-90748000D01*
X152704000Y-91648000D01*
X153404000Y-91648000D01*
X153404000Y-91403481D01*
X153403645Y-91396867D01*
X153397599Y-91340628D01*
X153360564Y-91241334D01*
X153355580Y-91171642D01*
X153360564Y-91154666D01*
X153397599Y-91055371D01*
X153403645Y-90999132D01*
X153404000Y-90992518D01*
X153404000Y-90748000D01*
X152704000Y-90748000D01*
X152204000Y-90748000D01*
X151304000Y-90748000D01*
X150804000Y-90748000D01*
X149904000Y-90748000D01*
X149404000Y-90748000D01*
X148704000Y-90748000D01*
X142348618Y-90748000D01*
X142347457Y-90739181D01*
X142347457Y-90706811D01*
X142349042Y-90694764D01*
X142349044Y-90694762D01*
X142364500Y-90577361D01*
X142364499Y-89598640D01*
X142349044Y-89481238D01*
X142349043Y-89481237D01*
X142347457Y-89469184D01*
X142347457Y-89436815D01*
X142349044Y-89424762D01*
X142359150Y-89348000D01*
X148704000Y-89348000D01*
X148704000Y-89592518D01*
X148704354Y-89599132D01*
X148710400Y-89655373D01*
X148747435Y-89754667D01*
X148752419Y-89824359D01*
X148747435Y-89841333D01*
X148710400Y-89940626D01*
X148704354Y-89996867D01*
X148704000Y-90003481D01*
X148704000Y-90248000D01*
X149404000Y-90248000D01*
X149404000Y-89348000D01*
X149904000Y-89348000D01*
X149904000Y-90248000D01*
X150804000Y-90248000D01*
X150804000Y-89348000D01*
X151304000Y-89348000D01*
X151304000Y-90248000D01*
X152204000Y-90248000D01*
X152204000Y-89348000D01*
X152704000Y-89348000D01*
X152704000Y-90248000D01*
X153404000Y-90248000D01*
X153404000Y-90003481D01*
X153403645Y-89996867D01*
X153397599Y-89940628D01*
X153360564Y-89841334D01*
X153355580Y-89771642D01*
X153360564Y-89754666D01*
X153397599Y-89655371D01*
X153403645Y-89599132D01*
X153404000Y-89592518D01*
X153404000Y-89348000D01*
X152704000Y-89348000D01*
X152204000Y-89348000D01*
X151304000Y-89348000D01*
X150804000Y-89348000D01*
X149904000Y-89348000D01*
X149404000Y-89348000D01*
X148704000Y-89348000D01*
X142359150Y-89348000D01*
X142364500Y-89307361D01*
X142364500Y-88848000D01*
X148704000Y-88848000D01*
X149404000Y-88848000D01*
X149404000Y-88148000D01*
X149904000Y-88148000D01*
X149904000Y-88848000D01*
X150804000Y-88848000D01*
X150804000Y-88148000D01*
X151304000Y-88148000D01*
X151304000Y-88848000D01*
X152204000Y-88848000D01*
X152204000Y-88148000D01*
X152704000Y-88148000D01*
X152704000Y-88848000D01*
X153404000Y-88848000D01*
X153404000Y-88603481D01*
X153403645Y-88596867D01*
X153397599Y-88540628D01*
X153347352Y-88405910D01*
X153261188Y-88290811D01*
X153146089Y-88204647D01*
X153011371Y-88154400D01*
X152955132Y-88148354D01*
X152948518Y-88148000D01*
X152704000Y-88148000D01*
X152204000Y-88148000D01*
X151959482Y-88148000D01*
X151952867Y-88148354D01*
X151896626Y-88154400D01*
X151797333Y-88191435D01*
X151727641Y-88196419D01*
X151710667Y-88191435D01*
X151611373Y-88154400D01*
X151555132Y-88148354D01*
X151548518Y-88148000D01*
X151304000Y-88148000D01*
X150804000Y-88148000D01*
X150559482Y-88148000D01*
X150552867Y-88148354D01*
X150496626Y-88154400D01*
X150397333Y-88191435D01*
X150327641Y-88196419D01*
X150310667Y-88191435D01*
X150211373Y-88154400D01*
X150155132Y-88148354D01*
X150148518Y-88148000D01*
X149904000Y-88148000D01*
X149404000Y-88148000D01*
X149159482Y-88148000D01*
X149152867Y-88148354D01*
X149096628Y-88154400D01*
X148961910Y-88204647D01*
X148846811Y-88290811D01*
X148760647Y-88405910D01*
X148710400Y-88540628D01*
X148704354Y-88596867D01*
X148704000Y-88603481D01*
X148704000Y-88848000D01*
X142364500Y-88848000D01*
X142364499Y-88328640D01*
X142349044Y-88211238D01*
X142349043Y-88211237D01*
X142347457Y-88199184D01*
X142347457Y-88166815D01*
X142349044Y-88154762D01*
X142364500Y-88037361D01*
X142364499Y-87058640D01*
X142349044Y-86941238D01*
X142288536Y-86795159D01*
X142288535Y-86795158D01*
X142282289Y-86780078D01*
X142283113Y-86779736D01*
X142264429Y-86731400D01*
X142264000Y-86721090D01*
X142264000Y-86528000D01*
X141981746Y-86528000D01*
X141934294Y-86518561D01*
X141920762Y-86512956D01*
X141880426Y-86507645D01*
X141807381Y-86498029D01*
X141807377Y-86498028D01*
X141803361Y-86497500D01*
X141799307Y-86497500D01*
X140228694Y-86497500D01*
X140228678Y-86497500D01*
X140224640Y-86497501D01*
X140220627Y-86498029D01*
X140220615Y-86498030D01*
X140107241Y-86512954D01*
X140097237Y-86517098D01*
X140093705Y-86518561D01*
X140046253Y-86528000D01*
X139764000Y-86528000D01*
X139764000Y-86721090D01*
X139744315Y-86788129D01*
X139739596Y-86794839D01*
X139705045Y-86878252D01*
X139678956Y-86941238D01*
X139663500Y-87058639D01*
X139663500Y-87062691D01*
X139663500Y-87062692D01*
X139663500Y-88033305D01*
X139663500Y-88033320D01*
X139663501Y-88037360D01*
X139664029Y-88041373D01*
X139664030Y-88041384D01*
X139680542Y-88166816D01*
X139680542Y-88199183D01*
X139664029Y-88324616D01*
X139664028Y-88324625D01*
X139663500Y-88328639D01*
X139663500Y-88332691D01*
X139663500Y-88332692D01*
X139663500Y-89303305D01*
X139663500Y-89303320D01*
X139663501Y-89307360D01*
X139664029Y-89311373D01*
X139664030Y-89311384D01*
X139680542Y-89436816D01*
X139680542Y-89469183D01*
X139664029Y-89594616D01*
X139664028Y-89594625D01*
X139663500Y-89598639D01*
X139663500Y-89602691D01*
X139663500Y-89602692D01*
X139663500Y-90573305D01*
X139663500Y-90573320D01*
X139663501Y-90577360D01*
X139664029Y-90581373D01*
X139664030Y-90581384D01*
X139680542Y-90706816D01*
X139680542Y-90739183D01*
X139664029Y-90864616D01*
X139664028Y-90864625D01*
X139663500Y-90868639D01*
X139663500Y-90872691D01*
X139663500Y-90872692D01*
X139663500Y-91843305D01*
X139663500Y-91843320D01*
X139663501Y-91847360D01*
X139664029Y-91851373D01*
X139664030Y-91851384D01*
X139680542Y-91976816D01*
X139680542Y-92009183D01*
X139664029Y-92134616D01*
X139664028Y-92134625D01*
X139663500Y-92138639D01*
X139663500Y-92142691D01*
X139663500Y-92142692D01*
X139663500Y-93113305D01*
X139663500Y-93113320D01*
X139663501Y-93117360D01*
X139664029Y-93121373D01*
X139664030Y-93121384D01*
X139680542Y-93246816D01*
X139680542Y-93279183D01*
X139664029Y-93404616D01*
X139664028Y-93404625D01*
X139663500Y-93408639D01*
X139663500Y-93412691D01*
X139663500Y-93412692D01*
X139663500Y-94383305D01*
X139663500Y-94383320D01*
X139663501Y-94387360D01*
X139664029Y-94391373D01*
X139664030Y-94391384D01*
X139680542Y-94516816D01*
X139680542Y-94549183D01*
X139664029Y-94674616D01*
X139664028Y-94674625D01*
X139663500Y-94678639D01*
X139663500Y-94682691D01*
X139663500Y-94682692D01*
X139663500Y-95653305D01*
X139663500Y-95653320D01*
X139663501Y-95657360D01*
X139664029Y-95661373D01*
X139664030Y-95661384D01*
X139680542Y-95786816D01*
X139680542Y-95819183D01*
X139664029Y-95944616D01*
X139664028Y-95944625D01*
X139663500Y-95948639D01*
X139663500Y-95952691D01*
X139663500Y-95952692D01*
X139663500Y-96923305D01*
X139663500Y-96923320D01*
X139663501Y-96927360D01*
X139664029Y-96931373D01*
X139664030Y-96931384D01*
X139680542Y-97056816D01*
X139680542Y-97089183D01*
X139664029Y-97214616D01*
X139664028Y-97214625D01*
X139663500Y-97218639D01*
X139663500Y-97222691D01*
X139663500Y-97222692D01*
X139663500Y-98193305D01*
X139663500Y-98193320D01*
X104140000Y-98193320D01*
X104140000Y-94993000D01*
X104159685Y-94925961D01*
X104212489Y-94880206D01*
X104264000Y-94869000D01*
X131633211Y-94869000D01*
X131700250Y-94888685D01*
X131746005Y-94941489D01*
X131755949Y-95010647D01*
X131753546Y-95022926D01*
X131738814Y-95082161D01*
X131736141Y-95121579D01*
X131736140Y-95121608D01*
X131736000Y-95123673D01*
X131736000Y-95125769D01*
X131736000Y-95125770D01*
X131736000Y-97170225D01*
X131736000Y-97170254D01*
X131736001Y-97172326D01*
X131736142Y-97174418D01*
X131736143Y-97174423D01*
X131738814Y-97213837D01*
X131783440Y-97393284D01*
X131865597Y-97558937D01*
X131893676Y-97593868D01*
X131981444Y-97703056D01*
X132071089Y-97775115D01*
X132125562Y-97818902D01*
X132125563Y-97818902D01*
X132125564Y-97818903D01*
X132291217Y-97901060D01*
X132470660Y-97945685D01*
X132512173Y-97948500D01*
X134560826Y-97948499D01*
X134602340Y-97945685D01*
X134781783Y-97901060D01*
X134947436Y-97818903D01*
X135091556Y-97703056D01*
X135207403Y-97558936D01*
X135289560Y-97393283D01*
X135334185Y-97213840D01*
X135337000Y-97172327D01*
X135336999Y-95123674D01*
X135334185Y-95082160D01*
X135319454Y-95022924D01*
X135322378Y-94953117D01*
X135362579Y-94895971D01*
X135427293Y-94869631D01*
X135439789Y-94869000D01*
X138430000Y-94869000D01*
X138430000Y-85861300D01*
X138449685Y-85794261D01*
X138502489Y-85748506D01*
X138554000Y-85737300D01*
X139640000Y-85737300D01*
X139707039Y-85756985D01*
X139752794Y-85809789D01*
X139764000Y-85861300D01*
X139764000Y-86028000D01*
X142264000Y-86028000D01*
X142264000Y-85861300D01*
X142283685Y-85794261D01*
X142336489Y-85748506D01*
X142388000Y-85737300D01*
X151675594Y-85737300D01*
X151685657Y-85737709D01*
X151689324Y-85738007D01*
X151738367Y-85742001D01*
X151816948Y-85731293D01*
X151820274Y-85730886D01*
X151852783Y-85727351D01*
X151899231Y-85722301D01*
X151921551Y-85717069D01*
X151921663Y-85717027D01*
X151921668Y-85717027D01*
X151996183Y-85689651D01*
X151999233Y-85688577D01*
X152074421Y-85663244D01*
X152074424Y-85663241D01*
X152074540Y-85663203D01*
X152095220Y-85653292D01*
X152095310Y-85653233D01*
X152095316Y-85653232D01*
X152162204Y-85610477D01*
X152164942Y-85608778D01*
X152232936Y-85567870D01*
X152232935Y-85567870D01*
X152233036Y-85567810D01*
X152251099Y-85553689D01*
X152251186Y-85553601D01*
X152251189Y-85553600D01*
X152307290Y-85497497D01*
X152309621Y-85495228D01*
X152367241Y-85440649D01*
X152367242Y-85440647D01*
X152367328Y-85440566D01*
X152382105Y-85422682D01*
X152997391Y-84807395D01*
X153004771Y-84800591D01*
X153045100Y-84766337D01*
X153093113Y-84703174D01*
X153095153Y-84700567D01*
X153139973Y-84644809D01*
X153197313Y-84604893D01*
X153236611Y-84598499D01*
X154183360Y-84598499D01*
X154300762Y-84583044D01*
X154300763Y-84583043D01*
X154312815Y-84581457D01*
X154345184Y-84581457D01*
X154357237Y-84583043D01*
X154357238Y-84583044D01*
X154474639Y-84598500D01*
X155286300Y-84598499D01*
X155353339Y-84618183D01*
X155399094Y-84670987D01*
X155410300Y-84722499D01*
X155410300Y-84984897D01*
X155395659Y-85043347D01*
X155331986Y-85162473D01*
X155331984Y-85162477D01*
X155274776Y-85351066D01*
X155255459Y-85547200D01*
X155274776Y-85743333D01*
X155331985Y-85931926D01*
X155331986Y-85931927D01*
X155424890Y-86105738D01*
X155549917Y-86258083D01*
X155702262Y-86383110D01*
X155876073Y-86476014D01*
X156064668Y-86533224D01*
X156260800Y-86552541D01*
X156456932Y-86533224D01*
X156645527Y-86476014D01*
X156819338Y-86383110D01*
X156971683Y-86258083D01*
X157096710Y-86105738D01*
X157189614Y-85931927D01*
X157246824Y-85743332D01*
X157266141Y-85547200D01*
X157246824Y-85351068D01*
X157189614Y-85162473D01*
X157125940Y-85043347D01*
X157111300Y-84984897D01*
X157111300Y-84722499D01*
X157130985Y-84655460D01*
X157183789Y-84609705D01*
X157235300Y-84598499D01*
X157989305Y-84598499D01*
X157993360Y-84598499D01*
X158110762Y-84583044D01*
X158256841Y-84522536D01*
X158256840Y-84522536D01*
X158271923Y-84516289D01*
X158272264Y-84517113D01*
X158320589Y-84498430D01*
X158330909Y-84498000D01*
X158524000Y-84498000D01*
X158524000Y-84215746D01*
X158533439Y-84168293D01*
X158539044Y-84154762D01*
X158554500Y-84037361D01*
X158554499Y-83498000D01*
X159024000Y-83498000D01*
X159024000Y-84498000D01*
X159268518Y-84498000D01*
X159275132Y-84497645D01*
X159331371Y-84491599D01*
X159466089Y-84441352D01*
X159581188Y-84355188D01*
X159667352Y-84240089D01*
X159717599Y-84105371D01*
X159723645Y-84049132D01*
X159724000Y-84042518D01*
X159724000Y-83498000D01*
X159024000Y-83498000D01*
X158554499Y-83498000D01*
X158554499Y-83121998D01*
X158574183Y-83054961D01*
X158626987Y-83009206D01*
X158678499Y-82998000D01*
X159724000Y-82998000D01*
X159724000Y-82453481D01*
X159723645Y-82446867D01*
X159717599Y-82390628D01*
X159667352Y-82255910D01*
X159581188Y-82140811D01*
X159466089Y-82054647D01*
X159331371Y-82004400D01*
X159275132Y-81998354D01*
X159268518Y-81998000D01*
X159006150Y-81998000D01*
X158939111Y-81978315D01*
X158893356Y-81925511D01*
X158883412Y-81856353D01*
X158912437Y-81792797D01*
X158918454Y-81786333D01*
X159076653Y-81628134D01*
X159137973Y-81594652D01*
X159194257Y-81595483D01*
X159279505Y-81616683D01*
X159321046Y-81619500D01*
X159896000Y-81619500D01*
X159963039Y-81639185D01*
X160008794Y-81691989D01*
X160020000Y-81743500D01*
X160020000Y-102616000D01*
X167386000Y-102616000D01*
X167386000Y-81534000D01*
X166759144Y-81534000D01*
X166692105Y-81514315D01*
X166646350Y-81461511D01*
X166636406Y-81392353D01*
X166662496Y-81332313D01*
X166724842Y-81254753D01*
X166807037Y-81089021D01*
X166851683Y-80909495D01*
X166854500Y-80867954D01*
X166854500Y-80070046D01*
X166851683Y-80028505D01*
X166807037Y-79848979D01*
X166724842Y-79683247D01*
X166608940Y-79539060D01*
X166464753Y-79423158D01*
X166431808Y-79406819D01*
X166299022Y-79340963D01*
X166119494Y-79296316D01*
X166080045Y-79293641D01*
X166080021Y-79293640D01*
X166077954Y-79293500D01*
X164630046Y-79293500D01*
X164627979Y-79293640D01*
X164627954Y-79293641D01*
X164588505Y-79296316D01*
X164408977Y-79340963D01*
X164243248Y-79423157D01*
X164099058Y-79539061D01*
X164072432Y-79572187D01*
X164015089Y-79612106D01*
X163975785Y-79618500D01*
X162360150Y-79618500D01*
X162293111Y-79598815D01*
X162247356Y-79546011D01*
X162237412Y-79476853D01*
X162266437Y-79413297D01*
X162272469Y-79406819D01*
X162653182Y-79026106D01*
X163084393Y-78594894D01*
X163091771Y-78588092D01*
X163132100Y-78553837D01*
X163180107Y-78490682D01*
X163182125Y-78488101D01*
X163231842Y-78426254D01*
X163231844Y-78426248D01*
X163231919Y-78426156D01*
X163243999Y-78406680D01*
X163244050Y-78406568D01*
X163244054Y-78406564D01*
X163277371Y-78334547D01*
X163278814Y-78331539D01*
X163285133Y-78318798D01*
X163314036Y-78260521D01*
X163314037Y-78260516D01*
X163314095Y-78260400D01*
X163321708Y-78238777D01*
X163338779Y-78161218D01*
X163339546Y-78157943D01*
X163358711Y-78080885D01*
X163361500Y-78058119D01*
X163361500Y-77978726D01*
X163361545Y-77975369D01*
X163363696Y-77895948D01*
X163361500Y-77872850D01*
X163361500Y-77769000D01*
X163954001Y-77769000D01*
X163954001Y-77890829D01*
X163954321Y-77897111D01*
X163964493Y-77996695D01*
X164019642Y-78163122D01*
X164111683Y-78312345D01*
X164235654Y-78436316D01*
X164384877Y-78528357D01*
X164551303Y-78583506D01*
X164650890Y-78593680D01*
X164657168Y-78593999D01*
X165103999Y-78593999D01*
X165104000Y-78593998D01*
X165104000Y-77769000D01*
X165604000Y-77769000D01*
X165604000Y-78593999D01*
X166050829Y-78593999D01*
X166057111Y-78593678D01*
X166156695Y-78583506D01*
X166323122Y-78528357D01*
X166472345Y-78436316D01*
X166596316Y-78312345D01*
X166688357Y-78163122D01*
X166743506Y-77996696D01*
X166753680Y-77897109D01*
X166754000Y-77890831D01*
X166754000Y-77769000D01*
X165604000Y-77769000D01*
X165104000Y-77769000D01*
X163954001Y-77769000D01*
X163361500Y-77769000D01*
X163361500Y-77269000D01*
X163954000Y-77269000D01*
X165104000Y-77269000D01*
X165104000Y-76444000D01*
X165604000Y-76444000D01*
X165604000Y-77269000D01*
X166753999Y-77269000D01*
X166753999Y-77147170D01*
X166753678Y-77140888D01*
X166743506Y-77041304D01*
X166688357Y-76874877D01*
X166596316Y-76725654D01*
X166472345Y-76601683D01*
X166323122Y-76509642D01*
X166156696Y-76454493D01*
X166057109Y-76444319D01*
X166050832Y-76444000D01*
X165604000Y-76444000D01*
X165104000Y-76444000D01*
X164657171Y-76444000D01*
X164650888Y-76444321D01*
X164551304Y-76454493D01*
X164384877Y-76509642D01*
X164235654Y-76601683D01*
X164111683Y-76725654D01*
X164019642Y-76874877D01*
X163964493Y-77041303D01*
X163954319Y-77140890D01*
X163954000Y-77147168D01*
X163954000Y-77269000D01*
X163361500Y-77269000D01*
X163361500Y-75038215D01*
X163381185Y-74971176D01*
X163407813Y-74941568D01*
X163440940Y-74914940D01*
X163556842Y-74770753D01*
X163639037Y-74605021D01*
X163683683Y-74425495D01*
X163686500Y-74383954D01*
X163686500Y-72936046D01*
X163683683Y-72894505D01*
X163639037Y-72714979D01*
X163556842Y-72549247D01*
X163440940Y-72405060D01*
X163296753Y-72289158D01*
X163259118Y-72270493D01*
X163131022Y-72206963D01*
X162951494Y-72162316D01*
X162912045Y-72159641D01*
X162912021Y-72159640D01*
X162909954Y-72159500D01*
X162907856Y-72159500D01*
X162264650Y-72159500D01*
X162197611Y-72139815D01*
X162176969Y-72123181D01*
X157308400Y-67254611D01*
X157301573Y-67247205D01*
X157267341Y-67206904D01*
X157267339Y-67206902D01*
X157267337Y-67206900D01*
X157204167Y-67158879D01*
X157201622Y-67156889D01*
X157139754Y-67107158D01*
X157139751Y-67107156D01*
X157139666Y-67107088D01*
X157120174Y-67094997D01*
X157048082Y-67061643D01*
X157045057Y-67060193D01*
X156973907Y-67024907D01*
X156952280Y-67017292D01*
X156874733Y-67000223D01*
X156871464Y-66999457D01*
X156794386Y-66980289D01*
X156771616Y-66977500D01*
X156771497Y-66977500D01*
X156692227Y-66977500D01*
X156688870Y-66977455D01*
X156609448Y-66975303D01*
X156586350Y-66977500D01*
X155508361Y-66977500D01*
X155441322Y-66957815D01*
X155395567Y-66905011D01*
X155385422Y-66869683D01*
X155379045Y-66821239D01*
X155348789Y-66748198D01*
X155318536Y-66675159D01*
X155296139Y-66645971D01*
X155222282Y-66549717D01*
X155096840Y-66453463D01*
X154950762Y-66392956D01*
X154837380Y-66378029D01*
X154837378Y-66378028D01*
X154833361Y-66377500D01*
X154829307Y-66377500D01*
X153058694Y-66377500D01*
X153058678Y-66377500D01*
X153054640Y-66377501D01*
X153050627Y-66378029D01*
X153050615Y-66378030D01*
X152937239Y-66392955D01*
X152791158Y-66453464D01*
X152665717Y-66549717D01*
X152569463Y-66675159D01*
X152508956Y-66821237D01*
X152508956Y-66821238D01*
X152493500Y-66938639D01*
X152493500Y-66942691D01*
X152493500Y-66942692D01*
X152493500Y-68713305D01*
X152493500Y-68713320D01*
X152493501Y-68717360D01*
X152494029Y-68721373D01*
X152494030Y-68721384D01*
X152508955Y-68834760D01*
X152569464Y-68980841D01*
X152665717Y-69106282D01*
X152761971Y-69180139D01*
X152791159Y-69202536D01*
X152808559Y-69209743D01*
X152811175Y-69210827D01*
X152865578Y-69254668D01*
X152887643Y-69320962D01*
X152870364Y-69388661D01*
X152854953Y-69409370D01*
X152795430Y-69474030D01*
X152663950Y-69675274D01*
X152567391Y-69895407D01*
X152508379Y-70128441D01*
X152488528Y-70368000D01*
X152508379Y-70607558D01*
X152508379Y-70607561D01*
X152508380Y-70607563D01*
X152567390Y-70840591D01*
X152663951Y-71060728D01*
X152795429Y-71261969D01*
X152958236Y-71438825D01*
X152958239Y-71438827D01*
X153088414Y-71540147D01*
X153129227Y-71596857D01*
X153132902Y-71666630D01*
X153098270Y-71727313D01*
X153088414Y-71735853D01*
X152958239Y-71837172D01*
X152958236Y-71837174D01*
X152958236Y-71837175D01*
X152795429Y-72014031D01*
X152663951Y-72215272D01*
X152567390Y-72435409D01*
X152508380Y-72668437D01*
X152508379Y-72668441D01*
X152488528Y-72908000D01*
X152508379Y-73147558D01*
X152508379Y-73147561D01*
X152508380Y-73147563D01*
X152567390Y-73380591D01*
X152663951Y-73600728D01*
X152795429Y-73801969D01*
X152958236Y-73978825D01*
X152958239Y-73978827D01*
X153088414Y-74080147D01*
X153129227Y-74136857D01*
X153132902Y-74206630D01*
X153098270Y-74267313D01*
X153088414Y-74275853D01*
X152958239Y-74377172D01*
X152958236Y-74377174D01*
X152958236Y-74377175D01*
X152795429Y-74554031D01*
X152663951Y-74755272D01*
X152567390Y-74975409D01*
X152545969Y-75059999D01*
X152508379Y-75208441D01*
X152488528Y-75447999D01*
X152508379Y-75687558D01*
X152508379Y-75687561D01*
X152508380Y-75687563D01*
X152567390Y-75920591D01*
X152663951Y-76140728D01*
X152795429Y-76341969D01*
X152958236Y-76518825D01*
X153147933Y-76666472D01*
X153157428Y-76671610D01*
X153207019Y-76720827D01*
X153222129Y-76789043D01*
X153197959Y-76854600D01*
X153169536Y-76882239D01*
X153072922Y-76949889D01*
X152905890Y-77116921D01*
X152770400Y-77310421D01*
X152670569Y-77524507D01*
X152613364Y-77737999D01*
X152613364Y-77738000D01*
X153510314Y-77738000D01*
X153484507Y-77778156D01*
X153444000Y-77916111D01*
X153444000Y-78059889D01*
X153484507Y-78197844D01*
X153510314Y-78238000D01*
X152613364Y-78238000D01*
X152670569Y-78451492D01*
X152770399Y-78665576D01*
X152905893Y-78859081D01*
X153072918Y-79026106D01*
X153266423Y-79161600D01*
X153480509Y-79261430D01*
X153694000Y-79318634D01*
X153694000Y-78423501D01*
X153801685Y-78472680D01*
X153908237Y-78488000D01*
X153979763Y-78488000D01*
X154086315Y-78472680D01*
X154194000Y-78423501D01*
X154194000Y-79318633D01*
X154407490Y-79261430D01*
X154621576Y-79161600D01*
X154815081Y-79026106D01*
X154982106Y-78859081D01*
X155117600Y-78665576D01*
X155217430Y-78451492D01*
X155274636Y-78238000D01*
X154377686Y-78238000D01*
X154403493Y-78197844D01*
X154444000Y-78059889D01*
X154444000Y-77916111D01*
X154403493Y-77778156D01*
X154377686Y-77738000D01*
X155274636Y-77738000D01*
X155274635Y-77737999D01*
X155217430Y-77524507D01*
X155117599Y-77310421D01*
X154982109Y-77116921D01*
X154815081Y-76949893D01*
X154718463Y-76882240D01*
X154674838Y-76827663D01*
X154667646Y-76758164D01*
X154699168Y-76695810D01*
X154730571Y-76671610D01*
X154740067Y-76666472D01*
X154929764Y-76518825D01*
X155092571Y-76341969D01*
X155224049Y-76140728D01*
X155320610Y-75920591D01*
X155379620Y-75687563D01*
X155399471Y-75448000D01*
X155379620Y-75208437D01*
X155320610Y-74975409D01*
X155224049Y-74755272D01*
X155092571Y-74554031D01*
X154929764Y-74377175D01*
X154903623Y-74356829D01*
X154799586Y-74275853D01*
X154758773Y-74219143D01*
X154755098Y-74149370D01*
X154789730Y-74088687D01*
X154799586Y-74080147D01*
X154837955Y-74050282D01*
X154929764Y-73978825D01*
X154993122Y-73910000D01*
X158486001Y-73910000D01*
X158486001Y-74356829D01*
X158486321Y-74363111D01*
X158496493Y-74462695D01*
X158551642Y-74629122D01*
X158643683Y-74778345D01*
X158767654Y-74902316D01*
X158916877Y-74994357D01*
X159083303Y-75049506D01*
X159182890Y-75059680D01*
X159189168Y-75059999D01*
X159310999Y-75059999D01*
X159311000Y-75059998D01*
X159311000Y-73910000D01*
X159811000Y-73910000D01*
X159811000Y-75059999D01*
X159932829Y-75059999D01*
X159939111Y-75059678D01*
X160038695Y-75049506D01*
X160205122Y-74994357D01*
X160354345Y-74902316D01*
X160478316Y-74778345D01*
X160570357Y-74629122D01*
X160625506Y-74462696D01*
X160635680Y-74363109D01*
X160636000Y-74356831D01*
X160636000Y-73910000D01*
X159811000Y-73910000D01*
X159311000Y-73910000D01*
X158486001Y-73910000D01*
X154993122Y-73910000D01*
X155092571Y-73801969D01*
X155224049Y-73600728D01*
X155307710Y-73410000D01*
X158486000Y-73410000D01*
X159311000Y-73410000D01*
X159311000Y-72260000D01*
X159189171Y-72260000D01*
X159182888Y-72260321D01*
X159083304Y-72270493D01*
X158916877Y-72325642D01*
X158767654Y-72417683D01*
X158643683Y-72541654D01*
X158551642Y-72690877D01*
X158496493Y-72857303D01*
X158486319Y-72956890D01*
X158486000Y-72963168D01*
X158486000Y-73410000D01*
X155307710Y-73410000D01*
X155320610Y-73380591D01*
X155379620Y-73147563D01*
X155399471Y-72908000D01*
X155379620Y-72668437D01*
X155320610Y-72435409D01*
X155224049Y-72215272D01*
X155092571Y-72014031D01*
X154929764Y-71837175D01*
X154929760Y-71837172D01*
X154799585Y-71735852D01*
X154758772Y-71679142D01*
X154755099Y-71609369D01*
X154789730Y-71548686D01*
X154799568Y-71540160D01*
X154929764Y-71438825D01*
X155092571Y-71261969D01*
X155224049Y-71060728D01*
X155320610Y-70840591D01*
X155379620Y-70607563D01*
X155399471Y-70368000D01*
X155379620Y-70128437D01*
X155320610Y-69895409D01*
X155224049Y-69675272D01*
X155092571Y-69474031D01*
X155033046Y-69409369D01*
X155002125Y-69346716D01*
X155009985Y-69277290D01*
X155054132Y-69223135D01*
X155076822Y-69210828D01*
X155096841Y-69202536D01*
X155222282Y-69106282D01*
X155318536Y-68980841D01*
X155379044Y-68834762D01*
X155385422Y-68786314D01*
X155413688Y-68722418D01*
X155472013Y-68683947D01*
X155508361Y-68678500D01*
X156275349Y-68678500D01*
X156342388Y-68698185D01*
X156363030Y-68714819D01*
X159774681Y-72126470D01*
X159808166Y-72187793D01*
X159811000Y-72214151D01*
X159811000Y-73410000D01*
X160635999Y-73410000D01*
X160635999Y-73287148D01*
X160655684Y-73220109D01*
X160708488Y-73174354D01*
X160777646Y-73164410D01*
X160841202Y-73193435D01*
X160847664Y-73199452D01*
X161299182Y-73650970D01*
X161332666Y-73712291D01*
X161335500Y-73738648D01*
X161335500Y-74383954D01*
X161335640Y-74386021D01*
X161335641Y-74386045D01*
X161338316Y-74425494D01*
X161382963Y-74605022D01*
X161457480Y-74755272D01*
X161465158Y-74770753D01*
X161581060Y-74914940D01*
X161581061Y-74914941D01*
X161614187Y-74941568D01*
X161654106Y-74998911D01*
X161660500Y-75038215D01*
X161660500Y-76823264D01*
X161640815Y-76890303D01*
X161588011Y-76936058D01*
X161518853Y-76946002D01*
X161455297Y-76916977D01*
X161425412Y-76878359D01*
X161365842Y-76758248D01*
X161365842Y-76758247D01*
X161249940Y-76614060D01*
X161105753Y-76498158D01*
X161105751Y-76498157D01*
X160940022Y-76415963D01*
X160760494Y-76371316D01*
X160721045Y-76368641D01*
X160721021Y-76368640D01*
X160718954Y-76368500D01*
X159321046Y-76368500D01*
X159318979Y-76368640D01*
X159318954Y-76368641D01*
X159279505Y-76371316D01*
X159099977Y-76415963D01*
X158934248Y-76498157D01*
X158790060Y-76614060D01*
X158674157Y-76758248D01*
X158591963Y-76923977D01*
X158547316Y-77103505D01*
X158544641Y-77142954D01*
X158544640Y-77142979D01*
X158544500Y-77145046D01*
X158544500Y-77147143D01*
X158544500Y-77752848D01*
X158524815Y-77819887D01*
X158508181Y-77840529D01*
X155660610Y-80688099D01*
X155653208Y-80694924D01*
X155612898Y-80729164D01*
X155564922Y-80792273D01*
X155562859Y-80794912D01*
X155513086Y-80856835D01*
X155500998Y-80876324D01*
X155500946Y-80876435D01*
X155500946Y-80876436D01*
X155485652Y-80909494D01*
X155467644Y-80948416D01*
X155466194Y-80951441D01*
X155430908Y-81022590D01*
X155423293Y-81044219D01*
X155406219Y-81121783D01*
X155405453Y-81125049D01*
X155386289Y-81202110D01*
X155383500Y-81224890D01*
X155383500Y-81304272D01*
X155383455Y-81307629D01*
X155381303Y-81387050D01*
X155383500Y-81410150D01*
X155383500Y-81773500D01*
X155363815Y-81840539D01*
X155311011Y-81886294D01*
X155259500Y-81897500D01*
X154478694Y-81897500D01*
X154478678Y-81897500D01*
X154474640Y-81897501D01*
X154470627Y-81898029D01*
X154470615Y-81898030D01*
X154345183Y-81914542D01*
X154312816Y-81914542D01*
X154187383Y-81898029D01*
X154187375Y-81898028D01*
X154183361Y-81897500D01*
X154179307Y-81897500D01*
X153208694Y-81897500D01*
X153208678Y-81897500D01*
X153204640Y-81897501D01*
X153200627Y-81898029D01*
X153200615Y-81898030D01*
X153075183Y-81914542D01*
X153042816Y-81914542D01*
X152917383Y-81898029D01*
X152917375Y-81898028D01*
X152913361Y-81897500D01*
X152909307Y-81897500D01*
X151938694Y-81897500D01*
X151938678Y-81897500D01*
X151934640Y-81897501D01*
X151930627Y-81898029D01*
X151930615Y-81898030D01*
X151805183Y-81914542D01*
X151772816Y-81914542D01*
X151647383Y-81898029D01*
X151647375Y-81898028D01*
X151643361Y-81897500D01*
X151639307Y-81897500D01*
X150668694Y-81897500D01*
X150668678Y-81897500D01*
X150664640Y-81897501D01*
X150660627Y-81898029D01*
X150660615Y-81898030D01*
X150535183Y-81914542D01*
X150502816Y-81914542D01*
X150377383Y-81898029D01*
X150377375Y-81898028D01*
X150373361Y-81897500D01*
X150369307Y-81897500D01*
X149398694Y-81897500D01*
X149398678Y-81897500D01*
X149394640Y-81897501D01*
X149390627Y-81898029D01*
X149390615Y-81898030D01*
X149265183Y-81914542D01*
X149232816Y-81914542D01*
X149107383Y-81898029D01*
X149107375Y-81898028D01*
X149103361Y-81897500D01*
X149099307Y-81897500D01*
X148128694Y-81897500D01*
X148128678Y-81897500D01*
X148124640Y-81897501D01*
X148120627Y-81898029D01*
X148120615Y-81898030D01*
X147995183Y-81914542D01*
X147962816Y-81914542D01*
X147837383Y-81898029D01*
X147837375Y-81898028D01*
X147833361Y-81897500D01*
X147829307Y-81897500D01*
X146858694Y-81897500D01*
X146858678Y-81897500D01*
X146854640Y-81897501D01*
X146850627Y-81898029D01*
X146850615Y-81898030D01*
X146725183Y-81914542D01*
X146692816Y-81914542D01*
X146567383Y-81898029D01*
X146567375Y-81898028D01*
X146563361Y-81897500D01*
X146559307Y-81897500D01*
X145588694Y-81897500D01*
X145588678Y-81897500D01*
X145584640Y-81897501D01*
X145580627Y-81898029D01*
X145580615Y-81898030D01*
X145455183Y-81914542D01*
X145422816Y-81914542D01*
X145297383Y-81898029D01*
X145297375Y-81898028D01*
X145293361Y-81897500D01*
X145289307Y-81897500D01*
X144318694Y-81897500D01*
X144318678Y-81897500D01*
X144314640Y-81897501D01*
X144310627Y-81898029D01*
X144310615Y-81898030D01*
X144185183Y-81914542D01*
X144152816Y-81914542D01*
X144027383Y-81898029D01*
X144027375Y-81898028D01*
X144023361Y-81897500D01*
X144019307Y-81897500D01*
X143048694Y-81897500D01*
X143048678Y-81897500D01*
X143044640Y-81897501D01*
X143040627Y-81898029D01*
X143040615Y-81898030D01*
X142915183Y-81914542D01*
X142882816Y-81914542D01*
X142757383Y-81898029D01*
X142757375Y-81898028D01*
X142753361Y-81897500D01*
X142749307Y-81897500D01*
X141778694Y-81897500D01*
X141778678Y-81897500D01*
X141774640Y-81897501D01*
X141770627Y-81898029D01*
X141770615Y-81898030D01*
X141657239Y-81912955D01*
X141511158Y-81973464D01*
X141385717Y-82069717D01*
X141289463Y-82195159D01*
X141228956Y-82341237D01*
X141228956Y-82341238D01*
X141213500Y-82458639D01*
X141213500Y-82462691D01*
X141213500Y-82462692D01*
X141213501Y-83912300D01*
X141193816Y-83979339D01*
X141141013Y-84025094D01*
X141089501Y-84036300D01*
X138554000Y-84036300D01*
X138486961Y-84016615D01*
X138441206Y-83963811D01*
X138430000Y-83912300D01*
X138430000Y-79680362D01*
X138449685Y-79613323D01*
X138466319Y-79592681D01*
X152363681Y-65695319D01*
X152425004Y-65661834D01*
X152451362Y-65659000D01*
X161290000Y-65659000D01*
X161290000Y-53709571D01*
X161309685Y-53642532D01*
X161362489Y-53596777D01*
X161414218Y-53585571D01*
X166312874Y-53594284D01*
G37*
%TD.AperFunction*%
%TD*%
D34*
X105664000Y-126238000D02*
G75*
G03*
X105664000Y-126238000I-1524000J0D01*
G01*
X101600000Y-50934000D02*
X170976000Y-50934000D01*
X170976000Y-128778000D01*
X101600000Y-128778000D01*
X101600000Y-50934000D01*
X105664000Y-53594000D02*
G75*
G03*
X105664000Y-53594000I-1524000J0D01*
G01*
X169926000Y-126238000D02*
G75*
G03*
X169926000Y-126238000I-1524000J0D01*
G01*
X169926000Y-53594000D02*
G75*
G03*
X169926000Y-53594000I-1524000J0D01*
G01*
M02*
