%TF.GenerationSoftware,KiCad,Pcbnew,7.0.2-6a45011f42~172~ubuntu22.10.1*%
%TF.CreationDate,2023-05-26T16:24:23+05:00*%
%TF.ProjectId,IOTV,494f5456-2e6b-4696-9361-645f70636258,rev?*%
%TF.SameCoordinates,Original*%
%TF.FileFunction,Copper,L1,Top*%
%TF.FilePolarity,Positive*%
%FSLAX46Y46*%
G04 Gerber Fmt 4.6, Leading zero omitted, Abs format (unit mm)*
G04 Created by KiCad (PCBNEW 7.0.2-6a45011f42~172~ubuntu22.10.1) date 2023-05-26 16:24:23*
%MOMM*%
%LPD*%
G01*
G04 APERTURE LIST*
G04 Aperture macros list*
%AMRoundRect*
0 Rectangle with rounded corners*
0 $1 Rounding radius*
0 $2 $3 $4 $5 $6 $7 $8 $9 X,Y pos of 4 corners*
0 Add a 4 corners polygon primitive as box body*
4,1,4,$2,$3,$4,$5,$6,$7,$8,$9,$2,$3,0*
0 Add four circle primitives for the rounded corners*
1,1,$1+$1,$2,$3*
1,1,$1+$1,$4,$5*
1,1,$1+$1,$6,$7*
1,1,$1+$1,$8,$9*
0 Add four rect primitives between the rounded corners*
20,1,$1+$1,$2,$3,$4,$5,0*
20,1,$1+$1,$4,$5,$6,$7,0*
20,1,$1+$1,$6,$7,$8,$9,0*
20,1,$1+$1,$8,$9,$2,$3,0*%
G04 Aperture macros list end*
%TA.AperFunction,ComponentPad*%
%ADD10C,2.000000*%
%TD*%
%TA.AperFunction,SMDPad,CuDef*%
%ADD11RoundRect,0.218750X-0.218750X-0.256250X0.218750X-0.256250X0.218750X0.256250X-0.218750X0.256250X0*%
%TD*%
%TA.AperFunction,ComponentPad*%
%ADD12R,1.700000X1.700000*%
%TD*%
%TA.AperFunction,ComponentPad*%
%ADD13O,1.700000X1.700000*%
%TD*%
%TA.AperFunction,SMDPad,CuDef*%
%ADD14RoundRect,0.250000X-0.625000X0.312500X-0.625000X-0.312500X0.625000X-0.312500X0.625000X0.312500X0*%
%TD*%
%TA.AperFunction,ComponentPad*%
%ADD15C,4.000000*%
%TD*%
%TA.AperFunction,ComponentPad*%
%ADD16R,2.500000X2.500000*%
%TD*%
%TA.AperFunction,ComponentPad*%
%ADD17C,2.500000*%
%TD*%
%TA.AperFunction,ComponentPad*%
%ADD18R,2.600000X2.600000*%
%TD*%
%TA.AperFunction,ComponentPad*%
%ADD19C,2.600000*%
%TD*%
%TA.AperFunction,ComponentPad*%
%ADD20C,1.700000*%
%TD*%
%TA.AperFunction,ComponentPad*%
%ADD21O,2.300000X1.600000*%
%TD*%
%TA.AperFunction,ComponentPad*%
%ADD22R,3.000000X3.000000*%
%TD*%
%TA.AperFunction,ComponentPad*%
%ADD23C,3.000000*%
%TD*%
%TA.AperFunction,Conductor*%
%ADD24C,0.500000*%
%TD*%
%TA.AperFunction,Conductor*%
%ADD25C,0.250000*%
%TD*%
%TA.AperFunction,Profile*%
%ADD26C,0.150000*%
%TD*%
%TA.AperFunction,Profile*%
%ADD27C,0.500000*%
%TD*%
G04 APERTURE END LIST*
D10*
%TO.P,C1,1*%
%TO.N,~220*%
X118944000Y-66454000D03*
%TO.P,C1,2*%
%TO.N,J1-2*%
X108944000Y-66454000D03*
%TD*%
D11*
%TO.P,D2,1,K*%
%TO.N,GND*%
X163042500Y-122174000D03*
%TO.P,D2,2,A*%
%TO.N,Net-(D2-A)*%
X164617500Y-122174000D03*
%TD*%
D12*
%TO.P,J3,1,Pin_1*%
%TO.N,GND*%
X108894000Y-121454000D03*
D13*
%TO.P,J3,2,Pin_2*%
%TO.N,+3V*%
X111434000Y-121454000D03*
%TO.P,J3,3,Pin_3*%
%TO.N,SDA*%
X113974000Y-121454000D03*
%TO.P,J3,4,Pin_4*%
%TO.N,SCL*%
X116514000Y-121454000D03*
%TD*%
D12*
%TO.P,J5,1,Pin_1*%
%TO.N,GND*%
X131944000Y-121454000D03*
D13*
%TO.P,J5,2,Pin_2*%
%TO.N,+3V*%
X134484000Y-121454000D03*
%TO.P,J5,3,Pin_3*%
%TO.N,SDA*%
X137024000Y-121454000D03*
%TO.P,J5,4,Pin_4*%
%TO.N,SCL*%
X139564000Y-121454000D03*
%TD*%
D14*
%TO.P,R3,1*%
%TO.N,Net-(U1-IO15)*%
X176022000Y-103947500D03*
%TO.P,R3,2*%
%TO.N,Net-(D1-A)*%
X176022000Y-106872500D03*
%TD*%
D15*
%TO.P,F1,1*%
%TO.N,J1-1{slash}J2-1*%
X121506000Y-55719000D03*
%TO.P,F1,2*%
%TO.N,~220*%
X145636000Y-55719000D03*
%TD*%
D16*
%TO.P,PS1,1,AC1*%
%TO.N,HLK-AC2{slash}J1-2*%
X109394000Y-100204000D03*
D17*
%TO.P,PS1,2,AC2*%
%TO.N,HLK-AC1{slash}J2-2*%
X109394000Y-106204000D03*
%TO.P,PS1,3,-VO*%
%TO.N,GND*%
X142994000Y-94204000D03*
%TO.P,PS1,4,+VO*%
%TO.N,+3V*%
X142994000Y-112204000D03*
%TD*%
D11*
%TO.P,D1,1,K*%
%TO.N,GND*%
X177012500Y-122174000D03*
%TO.P,D1,2,A*%
%TO.N,Net-(D1-A)*%
X178587500Y-122174000D03*
%TD*%
D14*
%TO.P,R2,1*%
%TO.N,Net-(U1-IO5)*%
X165100000Y-103947500D03*
%TO.P,R2,2*%
%TO.N,Net-(D2-A)*%
X165100000Y-106872500D03*
%TD*%
D18*
%TO.P,J1,1,Pin_1*%
%TO.N,J1-1{slash}J2-1*%
X114944000Y-55399000D03*
D19*
%TO.P,J1,2,Pin_2*%
%TO.N,J1-2*%
X109944000Y-55399000D03*
%TD*%
D12*
%TO.P,J4,1,Pin_1*%
%TO.N,GND*%
X120394000Y-121454000D03*
D13*
%TO.P,J4,2,Pin_2*%
%TO.N,+3V*%
X122934000Y-121454000D03*
%TO.P,J4,3,Pin_3*%
%TO.N,SDA*%
X125474000Y-121454000D03*
%TO.P,J4,4,Pin_4*%
%TO.N,SCL*%
X128014000Y-121454000D03*
%TD*%
D12*
%TO.P,U1,1,EN*%
%TO.N,unconnected-(U1-EN-Pad1)*%
X154000200Y-73482200D03*
D20*
%TO.P,U1,2,SENSOR_VP*%
%TO.N,unconnected-(U1-SENSOR_VP-Pad2)*%
X154000200Y-76022200D03*
%TO.P,U1,3,SENSOR_VN*%
%TO.N,unconnected-(U1-SENSOR_VN-Pad3)*%
X154000200Y-78562200D03*
%TO.P,U1,4,IO34*%
%TO.N,unconnected-(U1-IO34-Pad4)*%
X154000200Y-81102200D03*
%TO.P,U1,5,IO35*%
%TO.N,unconnected-(U1-IO35-Pad5)*%
X154000200Y-83642200D03*
%TO.P,U1,6,IO32*%
%TO.N,RELEAY*%
X154000200Y-86182200D03*
%TO.P,U1,7,IO33*%
%TO.N,unconnected-(U1-IO33-Pad7)*%
X154000200Y-88722200D03*
%TO.P,U1,8,IO25*%
%TO.N,unconnected-(U1-IO25-Pad8)*%
X154000200Y-91262200D03*
%TO.P,U1,9,IO26*%
%TO.N,unconnected-(U1-IO26-Pad9)*%
X154000200Y-93802200D03*
%TO.P,U1,10,IO27*%
%TO.N,unconnected-(U1-IO27-Pad10)*%
X154000200Y-96342200D03*
%TO.P,U1,11,IO14*%
%TO.N,unconnected-(U1-IO14-Pad11)*%
X154000200Y-98882200D03*
%TO.P,U1,12,IO12*%
%TO.N,unconnected-(U1-IO12-Pad12)*%
X154000200Y-101422200D03*
%TO.P,U1,13,IO13*%
%TO.N,unconnected-(U1-IO13-Pad13)*%
X154000200Y-103962200D03*
%TO.P,U1,14,GND*%
%TO.N,GND*%
X154000200Y-106502200D03*
%TO.P,U1,15,VIN*%
%TO.N,unconnected-(U1-VIN-Pad15)*%
X154000200Y-109042200D03*
%TO.P,U1,16,3V3*%
%TO.N,+3V*%
X179400200Y-109042200D03*
%TO.P,U1,17,GND*%
%TO.N,GND*%
X179400200Y-106502200D03*
%TO.P,U1,18,IO15*%
%TO.N,Net-(U1-IO15)*%
X179400200Y-103962200D03*
%TO.P,U1,19,IO2*%
%TO.N,unconnected-(U1-IO2-Pad19)*%
X179400200Y-101422200D03*
%TO.P,U1,20,IO4*%
%TO.N,Net-(U1-IO4)*%
X179400200Y-98882200D03*
%TO.P,U1,21,IO16*%
%TO.N,unconnected-(U1-IO16-Pad21)*%
X179400200Y-96342200D03*
%TO.P,U1,22,IO17*%
%TO.N,unconnected-(U1-IO17-Pad22)*%
X179400200Y-93802200D03*
%TO.P,U1,23,IO5*%
%TO.N,Net-(U1-IO5)*%
X179400200Y-91262200D03*
%TO.P,U1,24,IO18*%
%TO.N,unconnected-(U1-IO18-Pad24)*%
X179400200Y-88722200D03*
%TO.P,U1,25,IO19*%
%TO.N,unconnected-(U1-IO19-Pad25)*%
X179400200Y-86182200D03*
%TO.P,U1,26,IO21*%
%TO.N,SDA*%
X179400200Y-83642200D03*
%TO.P,U1,27,RXD0/IO3*%
%TO.N,unconnected-(U1-RXD0{slash}IO3-Pad27)*%
X179400200Y-81102200D03*
%TO.P,U1,28,TXD0/IO1*%
%TO.N,unconnected-(U1-TXD0{slash}IO1-Pad28)*%
X179400200Y-78562200D03*
%TO.P,U1,29,IO22*%
%TO.N,SCL*%
X179400200Y-76022200D03*
%TO.P,U1,30,IO23*%
%TO.N,unconnected-(U1-IO23-Pad30)*%
X179400200Y-73482200D03*
%TD*%
D21*
%TO.P,K1,1*%
%TO.N,N/C*%
X137504000Y-86054000D03*
%TO.P,K1,5*%
%TO.N,Net-(D5-K)*%
X137504000Y-75894000D03*
%TO.P,K1,6*%
%TO.N,\u0420\u0435\u043B\u0435-\u0432\u044B\u0445\u043E\u0434{slash}J2-1*%
X137504000Y-73354000D03*
%TO.P,K1,7*%
%TO.N,unconnected-(K1-Pad7)*%
X129884000Y-73354000D03*
%TO.P,K1,8*%
%TO.N,GND*%
X129884000Y-75894000D03*
%TO.P,K1,12*%
%TO.N,HLK-AC2{slash}J1-2*%
X129884000Y-86054000D03*
%TD*%
D14*
%TO.P,R1,1*%
%TO.N,Net-(U1-IO4)*%
X170942000Y-103947500D03*
%TO.P,R1,2*%
%TO.N,Net-(D3-A)*%
X170942000Y-106872500D03*
%TD*%
D12*
%TO.P,C2,1*%
%TO.N,+3V*%
X149194000Y-82454000D03*
D20*
%TO.P,C2,2*%
%TO.N,GND*%
X144194000Y-82454000D03*
%TD*%
D22*
%TO.P,FL1,1,1*%
%TO.N,HLK-AC1{slash}J2-2*%
X122444000Y-85438750D03*
D23*
%TO.P,FL1,2,2*%
%TO.N,~220*%
X122444000Y-75532750D03*
%TO.P,FL1,3,3*%
%TO.N,J1-2*%
X109490000Y-75532750D03*
%TO.P,FL1,4,4*%
%TO.N,HLK-AC2{slash}J1-2*%
X109490000Y-85438750D03*
%TD*%
D18*
%TO.P,J2,1,Pin_1*%
%TO.N,J1-1{slash}J2-1*%
X157444000Y-55399000D03*
D19*
%TO.P,J2,2,Pin_2*%
%TO.N,\u0420\u0435\u043B\u0435-\u0432\u044B\u0445\u043E\u0434{slash}J2-1*%
X152444000Y-55399000D03*
%TD*%
D12*
%TO.P,J6,1,Pin_1*%
%TO.N,+3V*%
X166234000Y-53204000D03*
D13*
%TO.P,J6,2,Pin_2*%
%TO.N,SDA*%
X168774000Y-53204000D03*
%TO.P,J6,3,Pin_3*%
%TO.N,SCL*%
X171314000Y-53204000D03*
%TO.P,J6,4,Pin_4*%
%TO.N,unconnected-(J6-Pin_4-Pad4)*%
X173854000Y-53204000D03*
%TO.P,J6,5,Pin_5*%
%TO.N,GND*%
X176394000Y-53204000D03*
%TD*%
D10*
%TO.P,RVe1,1*%
%TO.N,~220*%
X139944000Y-67179000D03*
%TO.P,RVe1,2*%
%TO.N,J1-2*%
X129944000Y-65229000D03*
%TD*%
D11*
%TO.P,D3,1,K*%
%TO.N,GND*%
X169875000Y-122264000D03*
%TO.P,D3,2,A*%
%TO.N,Net-(D3-A)*%
X171450000Y-122264000D03*
%TD*%
D24*
%TO.N,SCL*%
X139564000Y-121454000D02*
X145854000Y-115164000D01*
X145854000Y-115164000D02*
X149787589Y-115164000D01*
X175615600Y-91433740D02*
X175615600Y-78105000D01*
X149787589Y-115164000D02*
X164316789Y-100634800D01*
X164316789Y-100634800D02*
X166414540Y-100634800D01*
X166414540Y-100634800D02*
X175615600Y-91433740D01*
X175615600Y-78105000D02*
X177698400Y-76022200D01*
X177698400Y-76022200D02*
X179400200Y-76022200D01*
%TO.N,Net-(U1-IO15)*%
X179400200Y-103962200D02*
X179388400Y-103974000D01*
X179388400Y-103974000D02*
X176048500Y-103974000D01*
%TO.N,Net-(U1-IO4)*%
X179400200Y-98882200D02*
X179388400Y-98894000D01*
X179388400Y-98894000D02*
X177254800Y-98894000D01*
X177254800Y-98894000D02*
X172201300Y-103947500D01*
X172201300Y-103947500D02*
X170942000Y-103947500D01*
%TO.N,Net-(U1-IO5)*%
X179400200Y-91262200D02*
X179273200Y-91262200D01*
X179273200Y-91262200D02*
X166587900Y-103947500D01*
X166587900Y-103947500D02*
X165100000Y-103947500D01*
%TO.N,Net-(D3-A)*%
X170942000Y-106872500D02*
X170942000Y-108483400D01*
X170942000Y-108483400D02*
X171450000Y-108991400D01*
X171450000Y-122264000D02*
X171450000Y-108991400D01*
%TO.N,Net-(D1-A)*%
X178587500Y-122174000D02*
X178587500Y-111760100D01*
X176022000Y-109194600D02*
X176022000Y-106872500D01*
X178587500Y-111760100D02*
X176022000Y-109194600D01*
%TO.N,Net-(D2-A)*%
X164617500Y-122174000D02*
X164617500Y-109829600D01*
X165100000Y-106872500D02*
X165100000Y-109347100D01*
X165100000Y-109347100D02*
X164617500Y-109829600D01*
%TO.N,SDA*%
X113974000Y-121454000D02*
X115584000Y-119844000D01*
X137024000Y-121454000D02*
X135414000Y-119844000D01*
X115584000Y-119844000D02*
X123864000Y-119844000D01*
X123864000Y-119844000D02*
X125474000Y-121454000D01*
X135414000Y-119844000D02*
X127084000Y-119844000D01*
X127084000Y-119844000D02*
X125474000Y-121454000D01*
D25*
%TO.N,Net-(U1-IO15)*%
X176048500Y-103974000D02*
X176022000Y-103947500D01*
%TD*%
%TA.AperFunction,Conductor*%
%TO.N,GND*%
G36*
X179805246Y-50801567D02*
G01*
X179872259Y-50821329D01*
X179917952Y-50874186D01*
X179922170Y-50884699D01*
X180056945Y-51270787D01*
X180366482Y-52157518D01*
X181412609Y-52622179D01*
X181821789Y-52803926D01*
X181875066Y-52849129D01*
X181895446Y-52915960D01*
X181895453Y-52917165D01*
X181942562Y-121366364D01*
X181922924Y-121433417D01*
X181870151Y-121479208D01*
X181859429Y-121483521D01*
X180590482Y-121926482D01*
X180590481Y-121926482D01*
X179944720Y-123380335D01*
X179899517Y-123433612D01*
X179832686Y-123453993D01*
X179831396Y-123454000D01*
X106228052Y-123454000D01*
X106161013Y-123434315D01*
X106115258Y-123381511D01*
X106110980Y-123370867D01*
X106053002Y-123204778D01*
X105667518Y-122100482D01*
X104744607Y-121690550D01*
X104213664Y-121454719D01*
X104212815Y-121453999D01*
X110328785Y-121453999D01*
X110347602Y-121657083D01*
X110403418Y-121853251D01*
X110494324Y-122035818D01*
X110617236Y-122198580D01*
X110767958Y-122335981D01*
X110941361Y-122443347D01*
X110941363Y-122443348D01*
X111131544Y-122517024D01*
X111332024Y-122554500D01*
X111332026Y-122554500D01*
X111535974Y-122554500D01*
X111535976Y-122554500D01*
X111736456Y-122517024D01*
X111926637Y-122443348D01*
X112100041Y-122335981D01*
X112250764Y-122198579D01*
X112373673Y-122035821D01*
X112373673Y-122035819D01*
X112373675Y-122035818D01*
X112428117Y-121926482D01*
X112464582Y-121853250D01*
X112520397Y-121657083D01*
X112539215Y-121454000D01*
X112539215Y-121453999D01*
X112868785Y-121453999D01*
X112887602Y-121657083D01*
X112943418Y-121853251D01*
X113034324Y-122035818D01*
X113157236Y-122198580D01*
X113307958Y-122335981D01*
X113481361Y-122443347D01*
X113481363Y-122443348D01*
X113671544Y-122517024D01*
X113872024Y-122554500D01*
X113872026Y-122554500D01*
X114075974Y-122554500D01*
X114075976Y-122554500D01*
X114276456Y-122517024D01*
X114466637Y-122443348D01*
X114640041Y-122335981D01*
X114790764Y-122198579D01*
X114913673Y-122035821D01*
X114913673Y-122035819D01*
X114913675Y-122035818D01*
X114968117Y-121926482D01*
X115004582Y-121853250D01*
X115060397Y-121657083D01*
X115079215Y-121454000D01*
X115060397Y-121250917D01*
X115041464Y-121184378D01*
X115042051Y-121114511D01*
X115073048Y-121062764D01*
X115344958Y-120790854D01*
X115406281Y-120757370D01*
X115475973Y-120762354D01*
X115531906Y-120804226D01*
X115556323Y-120869690D01*
X115543640Y-120933807D01*
X115483416Y-121054752D01*
X115427602Y-121250916D01*
X115408785Y-121453999D01*
X115427602Y-121657083D01*
X115483418Y-121853251D01*
X115574324Y-122035818D01*
X115697236Y-122198580D01*
X115847958Y-122335981D01*
X116021361Y-122443347D01*
X116021363Y-122443348D01*
X116211544Y-122517024D01*
X116412024Y-122554500D01*
X116412026Y-122554500D01*
X116615974Y-122554500D01*
X116615976Y-122554500D01*
X116816456Y-122517024D01*
X117006637Y-122443348D01*
X117180041Y-122335981D01*
X117330764Y-122198579D01*
X117453673Y-122035821D01*
X117453673Y-122035819D01*
X117453675Y-122035818D01*
X117508117Y-121926482D01*
X117544582Y-121853250D01*
X117600397Y-121657083D01*
X117619215Y-121454000D01*
X117600397Y-121250917D01*
X117544582Y-121054750D01*
X117544209Y-121054001D01*
X117453675Y-120872181D01*
X117330763Y-120709419D01*
X117171550Y-120564278D01*
X117173024Y-120562660D01*
X117136487Y-120521899D01*
X117125383Y-120452918D01*
X117153336Y-120388883D01*
X117211471Y-120350127D01*
X117248400Y-120344500D01*
X122199600Y-120344500D01*
X122266639Y-120364185D01*
X122312394Y-120416989D01*
X122322338Y-120486147D01*
X122293313Y-120549703D01*
X122276342Y-120564159D01*
X122276450Y-120564278D01*
X122117236Y-120709419D01*
X121994324Y-120872181D01*
X121903418Y-121054748D01*
X121847602Y-121250916D01*
X121828785Y-121453999D01*
X121847602Y-121657083D01*
X121903418Y-121853251D01*
X121994324Y-122035818D01*
X122117236Y-122198580D01*
X122267958Y-122335981D01*
X122441361Y-122443347D01*
X122441363Y-122443348D01*
X122631544Y-122517024D01*
X122832024Y-122554500D01*
X122832026Y-122554500D01*
X123035974Y-122554500D01*
X123035976Y-122554500D01*
X123236456Y-122517024D01*
X123426637Y-122443348D01*
X123600041Y-122335981D01*
X123750764Y-122198579D01*
X123873673Y-122035821D01*
X123873673Y-122035819D01*
X123873675Y-122035818D01*
X123928117Y-121926482D01*
X123964582Y-121853250D01*
X124020397Y-121657083D01*
X124039215Y-121454000D01*
X124020397Y-121250917D01*
X123964582Y-121054750D01*
X123964164Y-121053911D01*
X123904361Y-120933808D01*
X123892100Y-120865023D01*
X123918973Y-120800528D01*
X123976449Y-120760801D01*
X124046279Y-120758453D01*
X124103042Y-120790856D01*
X124374948Y-121062762D01*
X124408433Y-121124085D01*
X124406534Y-121184375D01*
X124387602Y-121250916D01*
X124368785Y-121454000D01*
X124387602Y-121657083D01*
X124443418Y-121853251D01*
X124534324Y-122035818D01*
X124657236Y-122198580D01*
X124807958Y-122335981D01*
X124981361Y-122443347D01*
X124981363Y-122443348D01*
X125171544Y-122517024D01*
X125372024Y-122554500D01*
X125372026Y-122554500D01*
X125575974Y-122554500D01*
X125575976Y-122554500D01*
X125776456Y-122517024D01*
X125966637Y-122443348D01*
X126140041Y-122335981D01*
X126290764Y-122198579D01*
X126413673Y-122035821D01*
X126413673Y-122035819D01*
X126413675Y-122035818D01*
X126468117Y-121926482D01*
X126504582Y-121853250D01*
X126560397Y-121657083D01*
X126579215Y-121454000D01*
X126560397Y-121250917D01*
X126541464Y-121184378D01*
X126542051Y-121114511D01*
X126573048Y-121062764D01*
X126844958Y-120790854D01*
X126906281Y-120757370D01*
X126975973Y-120762354D01*
X127031906Y-120804226D01*
X127056323Y-120869690D01*
X127043640Y-120933807D01*
X126983416Y-121054752D01*
X126927602Y-121250916D01*
X126908785Y-121454000D01*
X126927602Y-121657083D01*
X126983418Y-121853251D01*
X127074324Y-122035818D01*
X127197236Y-122198580D01*
X127347958Y-122335981D01*
X127521361Y-122443347D01*
X127521363Y-122443348D01*
X127711544Y-122517024D01*
X127912024Y-122554500D01*
X127912026Y-122554500D01*
X128115974Y-122554500D01*
X128115976Y-122554500D01*
X128316456Y-122517024D01*
X128506637Y-122443348D01*
X128680041Y-122335981D01*
X128830764Y-122198579D01*
X128953673Y-122035821D01*
X128953673Y-122035819D01*
X128953675Y-122035818D01*
X129008117Y-121926482D01*
X129044582Y-121853250D01*
X129100397Y-121657083D01*
X129119215Y-121454000D01*
X129100397Y-121250917D01*
X129044582Y-121054750D01*
X129044209Y-121054001D01*
X128953675Y-120872181D01*
X128830763Y-120709419D01*
X128671550Y-120564278D01*
X128673024Y-120562660D01*
X128636487Y-120521899D01*
X128625383Y-120452918D01*
X128653336Y-120388883D01*
X128711471Y-120350127D01*
X128748400Y-120344500D01*
X133749600Y-120344500D01*
X133816639Y-120364185D01*
X133862394Y-120416989D01*
X133872338Y-120486147D01*
X133843313Y-120549703D01*
X133826342Y-120564159D01*
X133826450Y-120564278D01*
X133667236Y-120709419D01*
X133544324Y-120872181D01*
X133453418Y-121054748D01*
X133397602Y-121250916D01*
X133378785Y-121453999D01*
X133397602Y-121657083D01*
X133453418Y-121853251D01*
X133544324Y-122035818D01*
X133667236Y-122198580D01*
X133817958Y-122335981D01*
X133991361Y-122443347D01*
X133991363Y-122443348D01*
X134181544Y-122517024D01*
X134382024Y-122554500D01*
X134382026Y-122554500D01*
X134585974Y-122554500D01*
X134585976Y-122554500D01*
X134786456Y-122517024D01*
X134976637Y-122443348D01*
X135150041Y-122335981D01*
X135300764Y-122198579D01*
X135423673Y-122035821D01*
X135423673Y-122035819D01*
X135423675Y-122035818D01*
X135478117Y-121926482D01*
X135514582Y-121853250D01*
X135570397Y-121657083D01*
X135589215Y-121454000D01*
X135570397Y-121250917D01*
X135514582Y-121054750D01*
X135514164Y-121053911D01*
X135454361Y-120933808D01*
X135442100Y-120865023D01*
X135468973Y-120800528D01*
X135526449Y-120760801D01*
X135596279Y-120758453D01*
X135653042Y-120790856D01*
X135924948Y-121062762D01*
X135958433Y-121124085D01*
X135956534Y-121184375D01*
X135937602Y-121250916D01*
X135918785Y-121454000D01*
X135937602Y-121657083D01*
X135993418Y-121853251D01*
X136084324Y-122035818D01*
X136207236Y-122198580D01*
X136357958Y-122335981D01*
X136531361Y-122443347D01*
X136531363Y-122443348D01*
X136721544Y-122517024D01*
X136922024Y-122554500D01*
X136922026Y-122554500D01*
X137125974Y-122554500D01*
X137125976Y-122554500D01*
X137326456Y-122517024D01*
X137516637Y-122443348D01*
X137690041Y-122335981D01*
X137840764Y-122198579D01*
X137963673Y-122035821D01*
X137963673Y-122035819D01*
X137963675Y-122035818D01*
X138018117Y-121926482D01*
X138054582Y-121853250D01*
X138110397Y-121657083D01*
X138129215Y-121454000D01*
X138129215Y-121453999D01*
X138458785Y-121453999D01*
X138477602Y-121657083D01*
X138533418Y-121853251D01*
X138624324Y-122035818D01*
X138747236Y-122198580D01*
X138897958Y-122335981D01*
X139071361Y-122443347D01*
X139071363Y-122443348D01*
X139261544Y-122517024D01*
X139462024Y-122554500D01*
X139462026Y-122554500D01*
X139665974Y-122554500D01*
X139665976Y-122554500D01*
X139866456Y-122517024D01*
X139974598Y-122475130D01*
X163929500Y-122475130D01*
X163929852Y-122478410D01*
X163929853Y-122478416D01*
X163935509Y-122531022D01*
X163982665Y-122657452D01*
X164063527Y-122765472D01*
X164171547Y-122846334D01*
X164171550Y-122846336D01*
X164297978Y-122893491D01*
X164353870Y-122899500D01*
X164357180Y-122899500D01*
X164877820Y-122899500D01*
X164881130Y-122899500D01*
X164937022Y-122893491D01*
X165063450Y-122846336D01*
X165171472Y-122765472D01*
X165252336Y-122657450D01*
X165299491Y-122531022D01*
X165305500Y-122475130D01*
X165305500Y-121872870D01*
X165299491Y-121816978D01*
X165252336Y-121690550D01*
X165227283Y-121657083D01*
X165171473Y-121582528D01*
X165167689Y-121579696D01*
X165125818Y-121523762D01*
X165118000Y-121480429D01*
X165118000Y-110088275D01*
X165137685Y-110021236D01*
X165154315Y-110000598D01*
X165406426Y-109748486D01*
X165427071Y-109731850D01*
X165431128Y-109729243D01*
X165463654Y-109691703D01*
X165469658Y-109685255D01*
X165479221Y-109675693D01*
X165487313Y-109664882D01*
X165492853Y-109658006D01*
X165525377Y-109620473D01*
X165527375Y-109616097D01*
X165540907Y-109593290D01*
X165540920Y-109593272D01*
X165543796Y-109589431D01*
X165561153Y-109542891D01*
X165564534Y-109534730D01*
X165569803Y-109523193D01*
X165585165Y-109489557D01*
X165585851Y-109484781D01*
X165592405Y-109459101D01*
X165594091Y-109454583D01*
X165597633Y-109405051D01*
X165598580Y-109396247D01*
X165599423Y-109390390D01*
X165600500Y-109382899D01*
X165600500Y-109369408D01*
X165600816Y-109360561D01*
X165604359Y-109311026D01*
X165603334Y-109306315D01*
X165600500Y-109279957D01*
X165600500Y-107809499D01*
X165620185Y-107742460D01*
X165672989Y-107696705D01*
X165724500Y-107685499D01*
X165769561Y-107685499D01*
X165772872Y-107685499D01*
X165832483Y-107679091D01*
X165967331Y-107628796D01*
X166082546Y-107542546D01*
X166168796Y-107427331D01*
X166219091Y-107292483D01*
X166225500Y-107232873D01*
X166225500Y-107229578D01*
X169816500Y-107229578D01*
X169816501Y-107232872D01*
X169822909Y-107292483D01*
X169873204Y-107427331D01*
X169959454Y-107542546D01*
X170074669Y-107628796D01*
X170209517Y-107679091D01*
X170269127Y-107685500D01*
X170317499Y-107685499D01*
X170384537Y-107705182D01*
X170430293Y-107757985D01*
X170441500Y-107809499D01*
X170441500Y-108416257D01*
X170438666Y-108442615D01*
X170437640Y-108447326D01*
X170441184Y-108496861D01*
X170441500Y-108505708D01*
X170441500Y-108519202D01*
X170443419Y-108532553D01*
X170444365Y-108541347D01*
X170447909Y-108590883D01*
X170449594Y-108595401D01*
X170456147Y-108621076D01*
X170456712Y-108625003D01*
X170456835Y-108625858D01*
X170477457Y-108671012D01*
X170480845Y-108679190D01*
X170495330Y-108718027D01*
X170498204Y-108725731D01*
X170501095Y-108729594D01*
X170514620Y-108752387D01*
X170516622Y-108756772D01*
X170516623Y-108756773D01*
X170549147Y-108794307D01*
X170554689Y-108801186D01*
X170562779Y-108811993D01*
X170572321Y-108821535D01*
X170578354Y-108828015D01*
X170610870Y-108865542D01*
X170614927Y-108868149D01*
X170635571Y-108884785D01*
X170913181Y-109162395D01*
X170946666Y-109223718D01*
X170949500Y-109250076D01*
X170949500Y-121570429D01*
X170929815Y-121637468D01*
X170899811Y-121669696D01*
X170896026Y-121672528D01*
X170815165Y-121780547D01*
X170768009Y-121906977D01*
X170763464Y-121949257D01*
X170762000Y-121962870D01*
X170762000Y-122565130D01*
X170762352Y-122568410D01*
X170762353Y-122568416D01*
X170768009Y-122621022D01*
X170815165Y-122747452D01*
X170896027Y-122855472D01*
X171004047Y-122936334D01*
X171004050Y-122936336D01*
X171130478Y-122983491D01*
X171186370Y-122989500D01*
X171189680Y-122989500D01*
X171710320Y-122989500D01*
X171713630Y-122989500D01*
X171769522Y-122983491D01*
X171895950Y-122936336D01*
X172003972Y-122855472D01*
X172084836Y-122747450D01*
X172131991Y-122621022D01*
X172138000Y-122565130D01*
X172138000Y-121962870D01*
X172131991Y-121906978D01*
X172084836Y-121780550D01*
X172084834Y-121780547D01*
X172003973Y-121672528D01*
X172000189Y-121669696D01*
X171958318Y-121613762D01*
X171950500Y-121570429D01*
X171950500Y-109058539D01*
X171953334Y-109032179D01*
X171954358Y-109027471D01*
X171950816Y-108977947D01*
X171950500Y-108969101D01*
X171950500Y-108955601D01*
X171948579Y-108942244D01*
X171947632Y-108933437D01*
X171947390Y-108930053D01*
X171944091Y-108883917D01*
X171942408Y-108879405D01*
X171935851Y-108853716D01*
X171935165Y-108848943D01*
X171914533Y-108803766D01*
X171911148Y-108795595D01*
X171893795Y-108749069D01*
X171890908Y-108745213D01*
X171877380Y-108722414D01*
X171875377Y-108718027D01*
X171842862Y-108680503D01*
X171837305Y-108673607D01*
X171829218Y-108662803D01*
X171819679Y-108653265D01*
X171813659Y-108646801D01*
X171781128Y-108609257D01*
X171781127Y-108609256D01*
X171781125Y-108609254D01*
X171777067Y-108606646D01*
X171756427Y-108590013D01*
X171478819Y-108312405D01*
X171445334Y-108251082D01*
X171442500Y-108224724D01*
X171442500Y-107809499D01*
X171462185Y-107742460D01*
X171514989Y-107696705D01*
X171566500Y-107685499D01*
X171611561Y-107685499D01*
X171614872Y-107685499D01*
X171674483Y-107679091D01*
X171809331Y-107628796D01*
X171924546Y-107542546D01*
X172010796Y-107427331D01*
X172061091Y-107292483D01*
X172067500Y-107232873D01*
X172067500Y-107229578D01*
X174896500Y-107229578D01*
X174896501Y-107232872D01*
X174902909Y-107292483D01*
X174953204Y-107427331D01*
X175039454Y-107542546D01*
X175154669Y-107628796D01*
X175289517Y-107679091D01*
X175349127Y-107685500D01*
X175397499Y-107685499D01*
X175464537Y-107705182D01*
X175510293Y-107757985D01*
X175521500Y-107809499D01*
X175521500Y-109127457D01*
X175518666Y-109153815D01*
X175517640Y-109158526D01*
X175521184Y-109208061D01*
X175521500Y-109216908D01*
X175521500Y-109230402D01*
X175523419Y-109243753D01*
X175524365Y-109252547D01*
X175527909Y-109302083D01*
X175529594Y-109306601D01*
X175536147Y-109332276D01*
X175536712Y-109336203D01*
X175536835Y-109337058D01*
X175557457Y-109382212D01*
X175560845Y-109390390D01*
X175578204Y-109436931D01*
X175581095Y-109440794D01*
X175594620Y-109463587D01*
X175596622Y-109467972D01*
X175596623Y-109467973D01*
X175629147Y-109505507D01*
X175634689Y-109512386D01*
X175642779Y-109523193D01*
X175652321Y-109532735D01*
X175658354Y-109539215D01*
X175690870Y-109576742D01*
X175694927Y-109579349D01*
X175715571Y-109595985D01*
X178050682Y-111931096D01*
X178084166Y-111992417D01*
X178087000Y-112018775D01*
X178087000Y-121480429D01*
X178067315Y-121547468D01*
X178037311Y-121579696D01*
X178033526Y-121582528D01*
X177952665Y-121690547D01*
X177952663Y-121690550D01*
X177952664Y-121690550D01*
X177905509Y-121816978D01*
X177899500Y-121872870D01*
X177899500Y-122475130D01*
X177899852Y-122478410D01*
X177899853Y-122478416D01*
X177905509Y-122531022D01*
X177952665Y-122657452D01*
X178033527Y-122765472D01*
X178141547Y-122846334D01*
X178141550Y-122846336D01*
X178267978Y-122893491D01*
X178323870Y-122899500D01*
X178327180Y-122899500D01*
X178847820Y-122899500D01*
X178851130Y-122899500D01*
X178907022Y-122893491D01*
X179033450Y-122846336D01*
X179141472Y-122765472D01*
X179222336Y-122657450D01*
X179269491Y-122531022D01*
X179275500Y-122475130D01*
X179275500Y-121872870D01*
X179269491Y-121816978D01*
X179222336Y-121690550D01*
X179197283Y-121657083D01*
X179141473Y-121582528D01*
X179137689Y-121579696D01*
X179095818Y-121523762D01*
X179088000Y-121480429D01*
X179088000Y-111827243D01*
X179090834Y-111800884D01*
X179091859Y-111796173D01*
X179088316Y-111746638D01*
X179088000Y-111737791D01*
X179088000Y-111724302D01*
X179088000Y-111724301D01*
X179086078Y-111710937D01*
X179085133Y-111702146D01*
X179081591Y-111652617D01*
X179079905Y-111648098D01*
X179073351Y-111622416D01*
X179072665Y-111617643D01*
X179052036Y-111572472D01*
X179048648Y-111564292D01*
X179031297Y-111517771D01*
X179028406Y-111513909D01*
X179014877Y-111491107D01*
X179013181Y-111487393D01*
X179012877Y-111486727D01*
X178980360Y-111449200D01*
X178974806Y-111442307D01*
X178966721Y-111431506D01*
X178957179Y-111421965D01*
X178951159Y-111415501D01*
X178918628Y-111377957D01*
X178918627Y-111377956D01*
X178918625Y-111377954D01*
X178914567Y-111375346D01*
X178893927Y-111358713D01*
X176577414Y-109042199D01*
X178294985Y-109042199D01*
X178313802Y-109245283D01*
X178369618Y-109441451D01*
X178460524Y-109624018D01*
X178583436Y-109786780D01*
X178734158Y-109924181D01*
X178907561Y-110031547D01*
X178907563Y-110031548D01*
X179097744Y-110105224D01*
X179298224Y-110142700D01*
X179298226Y-110142700D01*
X179502174Y-110142700D01*
X179502176Y-110142700D01*
X179702656Y-110105224D01*
X179892837Y-110031548D01*
X180066241Y-109924181D01*
X180216964Y-109786779D01*
X180339873Y-109624021D01*
X180339873Y-109624019D01*
X180339875Y-109624018D01*
X180397225Y-109508842D01*
X180430782Y-109441450D01*
X180486597Y-109245283D01*
X180505415Y-109042200D01*
X180487949Y-108853708D01*
X180486597Y-108839116D01*
X180460976Y-108749069D01*
X180430782Y-108642950D01*
X180414005Y-108609257D01*
X180339875Y-108460381D01*
X180216963Y-108297619D01*
X180066241Y-108160218D01*
X179892838Y-108052852D01*
X179702657Y-107979176D01*
X179635829Y-107966683D01*
X179502176Y-107941700D01*
X179298224Y-107941700D01*
X179197983Y-107960438D01*
X179097742Y-107979176D01*
X178907561Y-108052852D01*
X178734158Y-108160218D01*
X178583436Y-108297619D01*
X178460524Y-108460381D01*
X178369618Y-108642948D01*
X178313802Y-108839116D01*
X178294985Y-109042199D01*
X176577414Y-109042199D01*
X176558819Y-109023604D01*
X176525334Y-108962281D01*
X176522500Y-108935923D01*
X176522500Y-107809499D01*
X176542185Y-107742460D01*
X176594989Y-107696705D01*
X176646500Y-107685499D01*
X176691561Y-107685499D01*
X176694872Y-107685499D01*
X176754483Y-107679091D01*
X176889331Y-107628796D01*
X177004546Y-107542546D01*
X177090796Y-107427331D01*
X177141091Y-107292483D01*
X177147500Y-107232873D01*
X177147499Y-106512128D01*
X177141091Y-106452517D01*
X177090796Y-106317669D01*
X177004546Y-106202454D01*
X176889331Y-106116204D01*
X176754483Y-106065909D01*
X176694873Y-106059500D01*
X176691550Y-106059500D01*
X175352439Y-106059500D01*
X175352420Y-106059500D01*
X175349128Y-106059501D01*
X175345848Y-106059853D01*
X175345840Y-106059854D01*
X175289515Y-106065909D01*
X175154669Y-106116204D01*
X175039454Y-106202454D01*
X174953204Y-106317668D01*
X174902910Y-106452515D01*
X174902909Y-106452517D01*
X174896500Y-106512127D01*
X174896500Y-106515448D01*
X174896500Y-106515449D01*
X174896500Y-107229560D01*
X174896500Y-107229578D01*
X172067500Y-107229578D01*
X172067499Y-106512128D01*
X172061091Y-106452517D01*
X172010796Y-106317669D01*
X171924546Y-106202454D01*
X171809331Y-106116204D01*
X171674483Y-106065909D01*
X171614873Y-106059500D01*
X171611550Y-106059500D01*
X170272439Y-106059500D01*
X170272420Y-106059500D01*
X170269128Y-106059501D01*
X170265848Y-106059853D01*
X170265840Y-106059854D01*
X170209515Y-106065909D01*
X170074669Y-106116204D01*
X169959454Y-106202454D01*
X169873204Y-106317668D01*
X169822910Y-106452515D01*
X169822909Y-106452517D01*
X169816500Y-106512127D01*
X169816500Y-106515448D01*
X169816500Y-106515449D01*
X169816500Y-107229560D01*
X169816500Y-107229578D01*
X166225500Y-107229578D01*
X166225499Y-106512128D01*
X166219091Y-106452517D01*
X166168796Y-106317669D01*
X166082546Y-106202454D01*
X165967331Y-106116204D01*
X165832483Y-106065909D01*
X165772873Y-106059500D01*
X165769550Y-106059500D01*
X164430439Y-106059500D01*
X164430420Y-106059500D01*
X164427128Y-106059501D01*
X164423848Y-106059853D01*
X164423840Y-106059854D01*
X164367515Y-106065909D01*
X164232669Y-106116204D01*
X164117454Y-106202454D01*
X164031204Y-106317668D01*
X163980910Y-106452515D01*
X163980909Y-106452517D01*
X163974500Y-106512127D01*
X163974500Y-106515448D01*
X163974500Y-106515449D01*
X163974500Y-107229560D01*
X163974500Y-107229578D01*
X163974501Y-107232872D01*
X163980909Y-107292483D01*
X164031204Y-107427331D01*
X164117454Y-107542546D01*
X164232669Y-107628796D01*
X164367517Y-107679091D01*
X164427127Y-107685500D01*
X164475499Y-107685499D01*
X164542537Y-107705182D01*
X164588293Y-107757985D01*
X164599500Y-107809499D01*
X164599500Y-109088423D01*
X164579815Y-109155462D01*
X164563181Y-109176104D01*
X164311069Y-109428215D01*
X164290436Y-109444844D01*
X164286372Y-109447455D01*
X164253851Y-109484986D01*
X164247830Y-109491454D01*
X164238277Y-109501008D01*
X164230177Y-109511827D01*
X164224632Y-109518707D01*
X164192124Y-109556224D01*
X164190118Y-109560617D01*
X164176598Y-109583402D01*
X164173703Y-109587268D01*
X164156351Y-109633791D01*
X164152966Y-109641965D01*
X164132334Y-109687145D01*
X164131647Y-109691923D01*
X164125096Y-109717590D01*
X164123409Y-109722113D01*
X164119865Y-109771653D01*
X164118920Y-109780437D01*
X164117000Y-109793801D01*
X164117000Y-109793803D01*
X164117000Y-109807291D01*
X164116684Y-109816138D01*
X164113141Y-109865672D01*
X164114166Y-109870384D01*
X164117000Y-109896743D01*
X164117000Y-121480429D01*
X164097315Y-121547468D01*
X164067311Y-121579696D01*
X164063526Y-121582528D01*
X163982665Y-121690547D01*
X163982663Y-121690550D01*
X163982664Y-121690550D01*
X163935509Y-121816978D01*
X163929500Y-121872870D01*
X163929500Y-122475130D01*
X139974598Y-122475130D01*
X140056637Y-122443348D01*
X140230041Y-122335981D01*
X140380764Y-122198579D01*
X140503673Y-122035821D01*
X140503673Y-122035819D01*
X140503675Y-122035818D01*
X140558117Y-121926482D01*
X140594582Y-121853250D01*
X140650397Y-121657083D01*
X140669215Y-121454000D01*
X140650397Y-121250917D01*
X140631464Y-121184378D01*
X140632051Y-121114511D01*
X140663048Y-121062764D01*
X146024994Y-115700819D01*
X146086317Y-115667334D01*
X146112675Y-115664500D01*
X149720445Y-115664500D01*
X149746803Y-115667334D01*
X149751515Y-115668359D01*
X149751515Y-115668358D01*
X149751516Y-115668359D01*
X149801050Y-115664815D01*
X149809897Y-115664500D01*
X149823386Y-115664500D01*
X149823388Y-115664500D01*
X149836748Y-115662578D01*
X149845540Y-115661633D01*
X149895072Y-115658091D01*
X149899590Y-115656405D01*
X149925270Y-115649851D01*
X149930046Y-115649165D01*
X149975226Y-115628530D01*
X149983380Y-115625153D01*
X150029920Y-115607796D01*
X150033778Y-115604907D01*
X150056586Y-115591375D01*
X150060962Y-115589377D01*
X150098495Y-115556853D01*
X150105371Y-115551313D01*
X150116182Y-115543221D01*
X150125744Y-115533658D01*
X150132192Y-115527654D01*
X150169732Y-115495128D01*
X150172340Y-115491069D01*
X150188971Y-115470430D01*
X161354824Y-104304578D01*
X163974500Y-104304578D01*
X163974501Y-104307872D01*
X163974853Y-104311152D01*
X163974854Y-104311159D01*
X163980909Y-104367484D01*
X163996261Y-104408645D01*
X164031204Y-104502331D01*
X164117454Y-104617546D01*
X164232669Y-104703796D01*
X164367517Y-104754091D01*
X164427127Y-104760500D01*
X165772872Y-104760499D01*
X165832483Y-104754091D01*
X165967331Y-104703796D01*
X166082546Y-104617546D01*
X166168796Y-104502331D01*
X166168796Y-104502328D01*
X166172270Y-104497689D01*
X166228204Y-104455818D01*
X166271537Y-104448000D01*
X166520756Y-104448000D01*
X166547114Y-104450834D01*
X166551826Y-104451859D01*
X166551826Y-104451858D01*
X166551827Y-104451859D01*
X166601361Y-104448315D01*
X166610208Y-104448000D01*
X166623697Y-104448000D01*
X166623699Y-104448000D01*
X166637059Y-104446078D01*
X166645851Y-104445133D01*
X166695383Y-104441591D01*
X166699901Y-104439905D01*
X166725581Y-104433351D01*
X166730357Y-104432665D01*
X166775537Y-104412030D01*
X166783691Y-104408653D01*
X166830231Y-104391296D01*
X166834089Y-104388407D01*
X166856897Y-104374875D01*
X166861273Y-104372877D01*
X166898806Y-104340353D01*
X166905682Y-104334813D01*
X166916493Y-104326721D01*
X166926055Y-104317158D01*
X166932503Y-104311154D01*
X166940093Y-104304578D01*
X169816500Y-104304578D01*
X169816501Y-104307872D01*
X169816853Y-104311152D01*
X169816854Y-104311159D01*
X169822909Y-104367484D01*
X169838261Y-104408645D01*
X169873204Y-104502331D01*
X169959454Y-104617546D01*
X170074669Y-104703796D01*
X170209517Y-104754091D01*
X170269127Y-104760500D01*
X171614872Y-104760499D01*
X171674483Y-104754091D01*
X171809331Y-104703796D01*
X171924546Y-104617546D01*
X172010796Y-104502331D01*
X172010796Y-104502328D01*
X172014270Y-104497689D01*
X172070204Y-104455818D01*
X172113537Y-104448000D01*
X172134156Y-104448000D01*
X172160514Y-104450834D01*
X172165226Y-104451859D01*
X172165226Y-104451858D01*
X172165227Y-104451859D01*
X172214761Y-104448315D01*
X172223608Y-104448000D01*
X172237097Y-104448000D01*
X172237099Y-104448000D01*
X172250459Y-104446078D01*
X172259251Y-104445133D01*
X172308783Y-104441591D01*
X172313301Y-104439905D01*
X172338981Y-104433351D01*
X172343757Y-104432665D01*
X172388937Y-104412030D01*
X172397091Y-104408653D01*
X172443631Y-104391296D01*
X172447489Y-104388407D01*
X172470297Y-104374875D01*
X172474673Y-104372877D01*
X172512206Y-104340353D01*
X172519082Y-104334813D01*
X172529893Y-104326721D01*
X172539455Y-104317158D01*
X172545903Y-104311154D01*
X172553493Y-104304578D01*
X174896500Y-104304578D01*
X174896501Y-104307872D01*
X174896853Y-104311152D01*
X174896854Y-104311159D01*
X174902909Y-104367484D01*
X174918261Y-104408645D01*
X174953204Y-104502331D01*
X175039454Y-104617546D01*
X175154669Y-104703796D01*
X175289517Y-104754091D01*
X175349127Y-104760500D01*
X176694872Y-104760499D01*
X176754483Y-104754091D01*
X176889331Y-104703796D01*
X177004546Y-104617546D01*
X177074433Y-104524188D01*
X177130367Y-104482318D01*
X177173700Y-104474500D01*
X178349132Y-104474500D01*
X178416171Y-104494185D01*
X178453017Y-104535292D01*
X178453602Y-104534851D01*
X178458841Y-104541788D01*
X178460133Y-104543230D01*
X178460526Y-104544021D01*
X178583436Y-104706780D01*
X178734158Y-104844181D01*
X178907561Y-104951547D01*
X178907563Y-104951548D01*
X179097744Y-105025224D01*
X179298224Y-105062700D01*
X179298226Y-105062700D01*
X179502174Y-105062700D01*
X179502176Y-105062700D01*
X179702656Y-105025224D01*
X179892837Y-104951548D01*
X180066241Y-104844181D01*
X180216964Y-104706779D01*
X180339873Y-104544021D01*
X180339873Y-104544019D01*
X180339875Y-104544018D01*
X180387685Y-104448000D01*
X180430782Y-104361450D01*
X180486597Y-104165283D01*
X180505415Y-103962200D01*
X180486597Y-103759117D01*
X180430782Y-103562950D01*
X180413138Y-103527516D01*
X180339875Y-103380381D01*
X180216963Y-103217619D01*
X180066241Y-103080218D01*
X179892838Y-102972852D01*
X179702657Y-102899176D01*
X179635829Y-102886683D01*
X179502176Y-102861700D01*
X179298224Y-102861700D01*
X179197983Y-102880438D01*
X179097742Y-102899176D01*
X178907561Y-102972852D01*
X178734158Y-103080218D01*
X178583436Y-103217619D01*
X178460526Y-103380378D01*
X178448382Y-103404770D01*
X178400880Y-103456008D01*
X178337381Y-103473500D01*
X177207039Y-103473500D01*
X177140000Y-103453815D01*
X177094245Y-103401011D01*
X177090858Y-103392835D01*
X177090851Y-103392818D01*
X177090796Y-103392669D01*
X177004546Y-103277454D01*
X176889331Y-103191204D01*
X176754483Y-103140909D01*
X176694873Y-103134500D01*
X176691550Y-103134500D01*
X175352439Y-103134500D01*
X175352420Y-103134500D01*
X175349128Y-103134501D01*
X175345848Y-103134853D01*
X175345840Y-103134854D01*
X175289515Y-103140909D01*
X175154669Y-103191204D01*
X175039454Y-103277454D01*
X174953204Y-103392668D01*
X174902909Y-103527516D01*
X174899100Y-103562948D01*
X174896500Y-103587127D01*
X174896500Y-103590448D01*
X174896500Y-103590449D01*
X174896500Y-104304560D01*
X174896500Y-104304578D01*
X172553493Y-104304578D01*
X172583443Y-104278628D01*
X172586051Y-104274569D01*
X172602682Y-104253930D01*
X175434411Y-101422200D01*
X178294985Y-101422200D01*
X178313802Y-101625283D01*
X178369618Y-101821451D01*
X178460524Y-102004018D01*
X178583436Y-102166780D01*
X178734158Y-102304181D01*
X178907561Y-102411547D01*
X178907563Y-102411548D01*
X179097744Y-102485224D01*
X179298224Y-102522700D01*
X179298226Y-102522700D01*
X179502174Y-102522700D01*
X179502176Y-102522700D01*
X179702656Y-102485224D01*
X179892837Y-102411548D01*
X180066241Y-102304181D01*
X180216964Y-102166779D01*
X180339873Y-102004021D01*
X180339873Y-102004019D01*
X180339875Y-102004018D01*
X180385513Y-101912361D01*
X180430782Y-101821450D01*
X180486597Y-101625283D01*
X180505415Y-101422200D01*
X180486597Y-101219117D01*
X180473082Y-101171619D01*
X180441374Y-101060176D01*
X180430782Y-101022950D01*
X180390088Y-100941225D01*
X180339875Y-100840381D01*
X180216963Y-100677619D01*
X180066241Y-100540218D01*
X179892838Y-100432852D01*
X179702657Y-100359176D01*
X179635829Y-100346683D01*
X179502176Y-100321700D01*
X179298224Y-100321700D01*
X179197983Y-100340438D01*
X179097742Y-100359176D01*
X178907561Y-100432852D01*
X178734158Y-100540218D01*
X178583436Y-100677619D01*
X178460524Y-100840381D01*
X178369618Y-101022948D01*
X178313802Y-101219116D01*
X178294985Y-101422200D01*
X175434411Y-101422200D01*
X177425793Y-99430818D01*
X177487117Y-99397334D01*
X177513475Y-99394500D01*
X178349132Y-99394500D01*
X178416171Y-99414185D01*
X178453017Y-99455292D01*
X178453602Y-99454851D01*
X178458841Y-99461788D01*
X178460133Y-99463230D01*
X178460526Y-99464021D01*
X178583436Y-99626780D01*
X178734158Y-99764181D01*
X178907561Y-99871547D01*
X178907563Y-99871548D01*
X179097744Y-99945224D01*
X179298224Y-99982700D01*
X179298226Y-99982700D01*
X179502174Y-99982700D01*
X179502176Y-99982700D01*
X179702656Y-99945224D01*
X179892837Y-99871548D01*
X180066241Y-99764181D01*
X180216964Y-99626779D01*
X180339873Y-99464021D01*
X180339873Y-99464019D01*
X180339875Y-99464018D01*
X180385513Y-99372361D01*
X180430782Y-99281450D01*
X180486597Y-99085283D01*
X180505415Y-98882200D01*
X180486597Y-98679117D01*
X180430782Y-98482950D01*
X180405065Y-98431302D01*
X180339875Y-98300381D01*
X180216963Y-98137619D01*
X180066241Y-98000218D01*
X179892838Y-97892852D01*
X179702657Y-97819176D01*
X179635829Y-97806683D01*
X179502176Y-97781700D01*
X179298224Y-97781700D01*
X179197983Y-97800438D01*
X179097742Y-97819176D01*
X178907561Y-97892852D01*
X178734158Y-98000218D01*
X178583436Y-98137619D01*
X178460526Y-98300378D01*
X178448382Y-98324770D01*
X178400880Y-98376008D01*
X178337381Y-98393500D01*
X177321944Y-98393500D01*
X177295586Y-98390666D01*
X177290873Y-98389640D01*
X177241339Y-98393184D01*
X177232492Y-98393500D01*
X177219001Y-98393500D01*
X177205637Y-98395420D01*
X177196853Y-98396365D01*
X177147313Y-98399909D01*
X177142790Y-98401596D01*
X177117123Y-98408147D01*
X177112345Y-98408834D01*
X177067165Y-98429466D01*
X177058991Y-98432851D01*
X177012468Y-98450203D01*
X177008602Y-98453098D01*
X176985819Y-98466616D01*
X176981427Y-98468623D01*
X176943888Y-98501149D01*
X176937016Y-98506688D01*
X176926204Y-98514782D01*
X176916662Y-98524323D01*
X176910194Y-98530344D01*
X176872656Y-98562872D01*
X176870045Y-98566935D01*
X176853414Y-98587571D01*
X172128047Y-103312937D01*
X172066724Y-103346422D01*
X171997032Y-103341438D01*
X171941099Y-103299566D01*
X171924546Y-103277454D01*
X171809331Y-103191204D01*
X171674483Y-103140909D01*
X171614873Y-103134500D01*
X171611550Y-103134500D01*
X170272439Y-103134500D01*
X170272420Y-103134500D01*
X170269128Y-103134501D01*
X170265848Y-103134853D01*
X170265840Y-103134854D01*
X170209515Y-103140909D01*
X170074669Y-103191204D01*
X169959454Y-103277454D01*
X169873204Y-103392668D01*
X169822909Y-103527516D01*
X169819100Y-103562948D01*
X169816500Y-103587127D01*
X169816500Y-103590448D01*
X169816500Y-103590449D01*
X169816500Y-104304560D01*
X169816500Y-104304578D01*
X166940093Y-104304578D01*
X166970043Y-104278628D01*
X166972651Y-104274569D01*
X166989282Y-104253930D01*
X174901012Y-96342199D01*
X178294985Y-96342199D01*
X178313802Y-96545283D01*
X178369618Y-96741451D01*
X178460524Y-96924018D01*
X178583436Y-97086780D01*
X178734158Y-97224181D01*
X178907561Y-97331547D01*
X178907563Y-97331548D01*
X179097744Y-97405224D01*
X179298224Y-97442700D01*
X179298226Y-97442700D01*
X179502174Y-97442700D01*
X179502176Y-97442700D01*
X179702656Y-97405224D01*
X179892837Y-97331548D01*
X180066241Y-97224181D01*
X180216964Y-97086779D01*
X180339873Y-96924021D01*
X180339873Y-96924019D01*
X180339875Y-96924018D01*
X180385513Y-96832361D01*
X180430782Y-96741450D01*
X180486597Y-96545283D01*
X180505415Y-96342200D01*
X180486597Y-96139117D01*
X180430782Y-95942950D01*
X180430409Y-95942201D01*
X180339875Y-95760381D01*
X180216963Y-95597619D01*
X180066241Y-95460218D01*
X179892838Y-95352852D01*
X179702657Y-95279176D01*
X179635829Y-95266683D01*
X179502176Y-95241700D01*
X179298224Y-95241700D01*
X179197983Y-95260438D01*
X179097742Y-95279176D01*
X178907561Y-95352852D01*
X178734158Y-95460218D01*
X178583436Y-95597619D01*
X178460524Y-95760381D01*
X178369618Y-95942948D01*
X178313802Y-96139116D01*
X178294985Y-96342199D01*
X174901012Y-96342199D01*
X177441011Y-93802200D01*
X178294985Y-93802200D01*
X178313802Y-94005283D01*
X178369618Y-94201451D01*
X178460524Y-94384018D01*
X178583436Y-94546780D01*
X178734158Y-94684181D01*
X178907561Y-94791547D01*
X178907563Y-94791548D01*
X179097744Y-94865224D01*
X179298224Y-94902700D01*
X179298226Y-94902700D01*
X179502174Y-94902700D01*
X179502176Y-94902700D01*
X179702656Y-94865224D01*
X179892837Y-94791548D01*
X180066241Y-94684181D01*
X180216964Y-94546779D01*
X180339873Y-94384021D01*
X180339873Y-94384019D01*
X180339875Y-94384018D01*
X180385513Y-94292361D01*
X180430782Y-94201450D01*
X180486597Y-94005283D01*
X180505415Y-93802200D01*
X180486597Y-93599117D01*
X180430782Y-93402950D01*
X180430409Y-93402201D01*
X180339875Y-93220381D01*
X180216963Y-93057619D01*
X180066241Y-92920218D01*
X179892838Y-92812852D01*
X179702657Y-92739176D01*
X179635829Y-92726683D01*
X179502176Y-92701700D01*
X179298224Y-92701700D01*
X179197983Y-92720438D01*
X179097742Y-92739176D01*
X178907561Y-92812852D01*
X178734158Y-92920218D01*
X178583436Y-93057619D01*
X178460524Y-93220381D01*
X178369618Y-93402948D01*
X178313802Y-93599116D01*
X178294985Y-93802200D01*
X177441011Y-93802200D01*
X178911049Y-92332162D01*
X178972370Y-92298679D01*
X179042062Y-92303663D01*
X179043521Y-92304218D01*
X179097744Y-92325224D01*
X179298224Y-92362700D01*
X179298226Y-92362700D01*
X179502174Y-92362700D01*
X179502176Y-92362700D01*
X179702656Y-92325224D01*
X179892837Y-92251548D01*
X180066241Y-92144181D01*
X180216964Y-92006779D01*
X180339873Y-91844021D01*
X180339873Y-91844019D01*
X180339875Y-91844018D01*
X180408044Y-91707114D01*
X180430782Y-91661450D01*
X180486597Y-91465283D01*
X180505415Y-91262200D01*
X180486597Y-91059117D01*
X180430782Y-90862950D01*
X180430409Y-90862201D01*
X180339875Y-90680381D01*
X180216963Y-90517619D01*
X180066241Y-90380218D01*
X179892838Y-90272852D01*
X179702657Y-90199176D01*
X179635829Y-90186683D01*
X179502176Y-90161700D01*
X179298224Y-90161700D01*
X179197983Y-90180438D01*
X179097742Y-90199176D01*
X178907561Y-90272852D01*
X178734158Y-90380218D01*
X178583436Y-90517619D01*
X178460524Y-90680381D01*
X178369618Y-90862948D01*
X178313802Y-91059116D01*
X178294985Y-91262199D01*
X178312545Y-91451708D01*
X178299130Y-91520278D01*
X178276755Y-91550830D01*
X166416905Y-103410681D01*
X166355582Y-103444166D01*
X166329224Y-103447000D01*
X166271537Y-103447000D01*
X166204498Y-103427315D01*
X166172270Y-103397311D01*
X166168796Y-103392671D01*
X166168796Y-103392669D01*
X166082546Y-103277454D01*
X165967331Y-103191204D01*
X165832483Y-103140909D01*
X165772873Y-103134500D01*
X165769550Y-103134500D01*
X164430439Y-103134500D01*
X164430420Y-103134500D01*
X164427128Y-103134501D01*
X164423848Y-103134853D01*
X164423840Y-103134854D01*
X164367515Y-103140909D01*
X164232669Y-103191204D01*
X164117454Y-103277454D01*
X164031204Y-103392668D01*
X163980909Y-103527516D01*
X163977100Y-103562948D01*
X163974500Y-103587127D01*
X163974500Y-103590448D01*
X163974500Y-103590449D01*
X163974500Y-104304560D01*
X163974500Y-104304578D01*
X161354824Y-104304578D01*
X164487783Y-101171619D01*
X164549107Y-101138134D01*
X164575465Y-101135300D01*
X166347396Y-101135300D01*
X166373754Y-101138134D01*
X166378466Y-101139159D01*
X166378466Y-101139158D01*
X166378467Y-101139159D01*
X166428001Y-101135615D01*
X166436848Y-101135300D01*
X166450337Y-101135300D01*
X166450339Y-101135300D01*
X166463699Y-101133378D01*
X166472491Y-101132433D01*
X166522023Y-101128891D01*
X166526541Y-101127205D01*
X166552221Y-101120651D01*
X166556997Y-101119965D01*
X166602177Y-101099330D01*
X166610331Y-101095953D01*
X166656871Y-101078596D01*
X166660729Y-101075707D01*
X166683537Y-101062175D01*
X166687913Y-101060177D01*
X166725446Y-101027653D01*
X166732322Y-101022113D01*
X166743133Y-101014021D01*
X166752695Y-101004458D01*
X166759143Y-100998454D01*
X166796683Y-100965928D01*
X166799291Y-100961869D01*
X166815922Y-100941230D01*
X175922030Y-91835122D01*
X175942669Y-91818491D01*
X175946728Y-91815883D01*
X175979254Y-91778343D01*
X175985258Y-91771895D01*
X175994821Y-91762333D01*
X176002913Y-91751522D01*
X176008453Y-91744646D01*
X176040977Y-91707113D01*
X176042975Y-91702737D01*
X176056507Y-91679930D01*
X176056520Y-91679912D01*
X176059396Y-91676071D01*
X176076753Y-91629531D01*
X176080134Y-91621370D01*
X176100765Y-91576197D01*
X176101451Y-91571421D01*
X176108005Y-91545741D01*
X176109691Y-91541223D01*
X176113233Y-91491691D01*
X176114180Y-91482887D01*
X176116100Y-91469537D01*
X176116100Y-91456048D01*
X176116416Y-91447201D01*
X176119959Y-91397666D01*
X176118934Y-91392955D01*
X176116100Y-91366597D01*
X176116100Y-88722200D01*
X178294985Y-88722200D01*
X178313802Y-88925283D01*
X178369618Y-89121451D01*
X178460524Y-89304018D01*
X178583436Y-89466780D01*
X178734158Y-89604181D01*
X178907561Y-89711547D01*
X178907563Y-89711548D01*
X179097744Y-89785224D01*
X179298224Y-89822700D01*
X179298226Y-89822700D01*
X179502174Y-89822700D01*
X179502176Y-89822700D01*
X179702656Y-89785224D01*
X179892837Y-89711548D01*
X180066241Y-89604181D01*
X180216964Y-89466779D01*
X180339873Y-89304021D01*
X180339873Y-89304019D01*
X180339875Y-89304018D01*
X180385513Y-89212361D01*
X180430782Y-89121450D01*
X180486597Y-88925283D01*
X180505415Y-88722200D01*
X180486597Y-88519117D01*
X180430782Y-88322950D01*
X180430409Y-88322201D01*
X180339875Y-88140381D01*
X180216963Y-87977619D01*
X180066241Y-87840218D01*
X179892838Y-87732852D01*
X179702657Y-87659176D01*
X179635829Y-87646683D01*
X179502176Y-87621700D01*
X179298224Y-87621700D01*
X179197983Y-87640438D01*
X179097742Y-87659176D01*
X178907561Y-87732852D01*
X178734158Y-87840218D01*
X178583436Y-87977619D01*
X178460524Y-88140381D01*
X178369618Y-88322948D01*
X178313802Y-88519116D01*
X178294985Y-88722200D01*
X176116100Y-88722200D01*
X176116100Y-86182200D01*
X178294985Y-86182200D01*
X178313802Y-86385283D01*
X178369618Y-86581451D01*
X178460524Y-86764018D01*
X178583436Y-86926780D01*
X178734158Y-87064181D01*
X178907561Y-87171547D01*
X178907563Y-87171548D01*
X179097744Y-87245224D01*
X179298224Y-87282700D01*
X179298226Y-87282700D01*
X179502174Y-87282700D01*
X179502176Y-87282700D01*
X179702656Y-87245224D01*
X179892837Y-87171548D01*
X180066241Y-87064181D01*
X180216964Y-86926779D01*
X180339873Y-86764021D01*
X180339873Y-86764019D01*
X180339875Y-86764018D01*
X180385513Y-86672361D01*
X180430782Y-86581450D01*
X180486597Y-86385283D01*
X180505415Y-86182200D01*
X180486597Y-85979117D01*
X180430782Y-85782950D01*
X180430409Y-85782201D01*
X180339875Y-85600381D01*
X180216963Y-85437619D01*
X180066241Y-85300218D01*
X179892838Y-85192852D01*
X179702657Y-85119176D01*
X179635829Y-85106683D01*
X179502176Y-85081700D01*
X179298224Y-85081700D01*
X179197983Y-85100438D01*
X179097742Y-85119176D01*
X178907561Y-85192852D01*
X178734158Y-85300218D01*
X178583436Y-85437619D01*
X178460524Y-85600381D01*
X178369618Y-85782948D01*
X178313802Y-85979116D01*
X178294985Y-86182200D01*
X176116100Y-86182200D01*
X176116100Y-83642200D01*
X178294985Y-83642200D01*
X178313802Y-83845283D01*
X178369618Y-84041451D01*
X178460524Y-84224018D01*
X178583436Y-84386780D01*
X178734158Y-84524181D01*
X178907561Y-84631547D01*
X178907563Y-84631548D01*
X179097744Y-84705224D01*
X179298224Y-84742700D01*
X179298226Y-84742700D01*
X179502174Y-84742700D01*
X179502176Y-84742700D01*
X179702656Y-84705224D01*
X179892837Y-84631548D01*
X180066241Y-84524181D01*
X180216964Y-84386779D01*
X180339873Y-84224021D01*
X180339873Y-84224019D01*
X180339875Y-84224018D01*
X180385513Y-84132361D01*
X180430782Y-84041450D01*
X180486597Y-83845283D01*
X180505415Y-83642200D01*
X180486597Y-83439117D01*
X180430782Y-83242950D01*
X180430409Y-83242201D01*
X180339875Y-83060381D01*
X180216963Y-82897619D01*
X180066241Y-82760218D01*
X179892838Y-82652852D01*
X179702657Y-82579176D01*
X179635829Y-82566683D01*
X179502176Y-82541700D01*
X179298224Y-82541700D01*
X179197983Y-82560438D01*
X179097742Y-82579176D01*
X178907561Y-82652852D01*
X178734158Y-82760218D01*
X178583436Y-82897619D01*
X178460524Y-83060381D01*
X178369618Y-83242948D01*
X178313802Y-83439116D01*
X178294985Y-83642200D01*
X176116100Y-83642200D01*
X176116100Y-81102200D01*
X178294985Y-81102200D01*
X178313802Y-81305283D01*
X178369618Y-81501451D01*
X178460524Y-81684018D01*
X178583436Y-81846780D01*
X178734158Y-81984181D01*
X178907561Y-82091547D01*
X178907563Y-82091548D01*
X179097744Y-82165224D01*
X179298224Y-82202700D01*
X179298226Y-82202700D01*
X179502174Y-82202700D01*
X179502176Y-82202700D01*
X179702656Y-82165224D01*
X179892837Y-82091548D01*
X180066241Y-81984181D01*
X180216964Y-81846779D01*
X180339873Y-81684021D01*
X180339873Y-81684019D01*
X180339875Y-81684018D01*
X180428386Y-81506261D01*
X180430782Y-81501450D01*
X180486597Y-81305283D01*
X180505415Y-81102200D01*
X180486597Y-80899117D01*
X180430782Y-80702950D01*
X180430409Y-80702201D01*
X180339875Y-80520381D01*
X180216963Y-80357619D01*
X180066241Y-80220218D01*
X179892838Y-80112852D01*
X179702657Y-80039176D01*
X179635829Y-80026683D01*
X179502176Y-80001700D01*
X179298224Y-80001700D01*
X179197983Y-80020438D01*
X179097742Y-80039176D01*
X178907561Y-80112852D01*
X178734158Y-80220218D01*
X178583436Y-80357619D01*
X178460524Y-80520381D01*
X178369618Y-80702948D01*
X178313802Y-80899116D01*
X178294985Y-81102200D01*
X176116100Y-81102200D01*
X176116100Y-78562199D01*
X178294985Y-78562199D01*
X178313802Y-78765283D01*
X178369618Y-78961451D01*
X178460524Y-79144018D01*
X178583436Y-79306780D01*
X178734158Y-79444181D01*
X178907561Y-79551547D01*
X178907563Y-79551548D01*
X179097744Y-79625224D01*
X179298224Y-79662700D01*
X179298226Y-79662700D01*
X179502174Y-79662700D01*
X179502176Y-79662700D01*
X179702656Y-79625224D01*
X179892837Y-79551548D01*
X180066241Y-79444181D01*
X180216964Y-79306779D01*
X180339873Y-79144021D01*
X180339873Y-79144019D01*
X180339875Y-79144018D01*
X180385513Y-79052361D01*
X180430782Y-78961450D01*
X180486597Y-78765283D01*
X180505415Y-78562200D01*
X180486597Y-78359117D01*
X180430782Y-78162950D01*
X180419888Y-78141072D01*
X180339875Y-77980381D01*
X180216963Y-77817619D01*
X180066241Y-77680218D01*
X179892838Y-77572852D01*
X179702657Y-77499176D01*
X179635829Y-77486683D01*
X179502176Y-77461700D01*
X179298224Y-77461700D01*
X179197983Y-77480438D01*
X179097742Y-77499176D01*
X178907561Y-77572852D01*
X178734158Y-77680218D01*
X178583436Y-77817619D01*
X178460524Y-77980381D01*
X178369618Y-78162948D01*
X178313802Y-78359116D01*
X178294985Y-78562199D01*
X176116100Y-78562199D01*
X176116100Y-78363675D01*
X176135785Y-78296636D01*
X176152419Y-78275994D01*
X177869395Y-76559019D01*
X177930718Y-76525534D01*
X177957076Y-76522700D01*
X178343256Y-76522700D01*
X178410295Y-76542385D01*
X178454256Y-76591428D01*
X178460526Y-76604020D01*
X178583436Y-76766780D01*
X178734158Y-76904181D01*
X178907561Y-77011547D01*
X178907563Y-77011548D01*
X179097744Y-77085224D01*
X179298224Y-77122700D01*
X179298226Y-77122700D01*
X179502174Y-77122700D01*
X179502176Y-77122700D01*
X179702656Y-77085224D01*
X179892837Y-77011548D01*
X180066241Y-76904181D01*
X180216964Y-76766779D01*
X180339873Y-76604021D01*
X180339873Y-76604019D01*
X180339875Y-76604018D01*
X180385513Y-76512361D01*
X180430782Y-76421450D01*
X180486597Y-76225283D01*
X180505415Y-76022200D01*
X180486597Y-75819117D01*
X180430782Y-75622950D01*
X180417773Y-75596824D01*
X180339875Y-75440381D01*
X180216963Y-75277619D01*
X180066241Y-75140218D01*
X179892838Y-75032852D01*
X179702657Y-74959176D01*
X179635829Y-74946683D01*
X179502176Y-74921700D01*
X179298224Y-74921700D01*
X179197983Y-74940438D01*
X179097742Y-74959176D01*
X178907561Y-75032852D01*
X178734158Y-75140218D01*
X178583436Y-75277619D01*
X178460526Y-75440379D01*
X178454256Y-75452972D01*
X178406753Y-75504209D01*
X178343256Y-75521700D01*
X177765544Y-75521700D01*
X177739186Y-75518866D01*
X177734473Y-75517840D01*
X177684939Y-75521384D01*
X177676092Y-75521700D01*
X177662601Y-75521700D01*
X177649237Y-75523620D01*
X177640453Y-75524565D01*
X177590913Y-75528109D01*
X177586390Y-75529796D01*
X177560723Y-75536347D01*
X177555945Y-75537034D01*
X177510765Y-75557666D01*
X177502591Y-75561051D01*
X177456068Y-75578403D01*
X177452202Y-75581298D01*
X177429417Y-75594818D01*
X177425024Y-75596824D01*
X177387507Y-75629332D01*
X177380627Y-75634877D01*
X177369808Y-75642977D01*
X177360254Y-75652530D01*
X177353786Y-75658551D01*
X177316255Y-75691072D01*
X177313644Y-75695136D01*
X177297015Y-75715769D01*
X175309169Y-77703615D01*
X175288536Y-77720244D01*
X175284472Y-77722855D01*
X175251951Y-77760386D01*
X175245930Y-77766854D01*
X175236377Y-77776408D01*
X175228277Y-77787227D01*
X175222732Y-77794107D01*
X175190224Y-77831624D01*
X175188218Y-77836017D01*
X175174698Y-77858802D01*
X175171803Y-77862668D01*
X175154451Y-77909191D01*
X175151066Y-77917365D01*
X175130434Y-77962545D01*
X175129747Y-77967323D01*
X175123196Y-77992990D01*
X175121509Y-77997513D01*
X175117965Y-78047053D01*
X175117020Y-78055846D01*
X175115100Y-78069203D01*
X175115100Y-78082691D01*
X175114784Y-78091538D01*
X175111241Y-78141072D01*
X175112266Y-78145784D01*
X175115100Y-78172143D01*
X175115099Y-91175063D01*
X175095414Y-91242102D01*
X175078780Y-91262744D01*
X166243545Y-100097981D01*
X166182222Y-100131466D01*
X166155864Y-100134300D01*
X164383933Y-100134300D01*
X164357575Y-100131466D01*
X164352862Y-100130440D01*
X164303328Y-100133984D01*
X164294481Y-100134300D01*
X164280990Y-100134300D01*
X164267626Y-100136220D01*
X164258842Y-100137165D01*
X164209302Y-100140709D01*
X164204779Y-100142396D01*
X164179112Y-100148947D01*
X164174334Y-100149634D01*
X164129154Y-100170266D01*
X164120980Y-100173651D01*
X164074457Y-100191003D01*
X164070591Y-100193898D01*
X164047806Y-100207418D01*
X164043413Y-100209424D01*
X164005896Y-100241932D01*
X163999016Y-100247477D01*
X163988197Y-100255577D01*
X163978643Y-100265130D01*
X163972175Y-100271151D01*
X163934644Y-100303672D01*
X163932033Y-100307736D01*
X163915404Y-100328369D01*
X155300349Y-108943424D01*
X155239026Y-108976909D01*
X155169334Y-108971925D01*
X155113401Y-108930053D01*
X155089197Y-108867181D01*
X155089172Y-108866912D01*
X155086597Y-108839117D01*
X155081594Y-108821535D01*
X155060976Y-108749069D01*
X155030782Y-108642950D01*
X155014005Y-108609257D01*
X154939875Y-108460381D01*
X154816963Y-108297619D01*
X154666241Y-108160218D01*
X154492838Y-108052852D01*
X154302657Y-107979176D01*
X154235829Y-107966684D01*
X154102176Y-107941700D01*
X153898224Y-107941700D01*
X153797983Y-107960438D01*
X153697742Y-107979176D01*
X153507561Y-108052852D01*
X153334158Y-108160218D01*
X153183436Y-108297619D01*
X153060524Y-108460381D01*
X152969618Y-108642948D01*
X152913802Y-108839116D01*
X152894985Y-109042199D01*
X152913802Y-109245283D01*
X152969618Y-109441451D01*
X153060524Y-109624018D01*
X153183436Y-109786780D01*
X153334158Y-109924181D01*
X153507561Y-110031547D01*
X153507563Y-110031548D01*
X153697744Y-110105224D01*
X153837890Y-110131421D01*
X153900169Y-110163088D01*
X153935442Y-110223400D01*
X153932509Y-110293208D01*
X153902784Y-110340990D01*
X149616594Y-114627181D01*
X149555271Y-114660666D01*
X149528913Y-114663500D01*
X145921144Y-114663500D01*
X145894786Y-114660666D01*
X145890073Y-114659640D01*
X145840539Y-114663184D01*
X145831692Y-114663500D01*
X145818201Y-114663500D01*
X145804837Y-114665420D01*
X145796053Y-114666365D01*
X145746513Y-114669909D01*
X145741990Y-114671596D01*
X145716323Y-114678147D01*
X145711545Y-114678834D01*
X145666365Y-114699466D01*
X145658191Y-114702851D01*
X145611668Y-114720203D01*
X145607802Y-114723098D01*
X145585019Y-114736616D01*
X145580627Y-114738623D01*
X145543088Y-114771149D01*
X145536216Y-114776688D01*
X145525404Y-114784782D01*
X145515862Y-114794323D01*
X145509394Y-114800344D01*
X145471856Y-114832872D01*
X145469245Y-114836935D01*
X145452614Y-114857571D01*
X139957118Y-120353066D01*
X139895795Y-120386551D01*
X139846652Y-120387274D01*
X139665976Y-120353500D01*
X139462024Y-120353500D01*
X139361784Y-120372238D01*
X139261542Y-120390976D01*
X139071361Y-120464652D01*
X138897958Y-120572018D01*
X138747236Y-120709419D01*
X138624324Y-120872181D01*
X138533418Y-121054748D01*
X138477602Y-121250916D01*
X138458785Y-121453999D01*
X138129215Y-121453999D01*
X138110397Y-121250917D01*
X138054582Y-121054750D01*
X138054209Y-121054001D01*
X137963675Y-120872181D01*
X137840763Y-120709419D01*
X137690041Y-120572018D01*
X137516638Y-120464652D01*
X137326457Y-120390976D01*
X137259629Y-120378484D01*
X137125976Y-120353500D01*
X136922024Y-120353500D01*
X136877524Y-120361818D01*
X136741345Y-120387274D01*
X136671830Y-120380243D01*
X136630880Y-120353066D01*
X135815385Y-119537571D01*
X135798749Y-119516927D01*
X135796142Y-119512870D01*
X135758615Y-119480354D01*
X135752135Y-119474321D01*
X135742593Y-119464779D01*
X135731786Y-119456689D01*
X135724907Y-119451147D01*
X135687373Y-119418623D01*
X135687372Y-119418622D01*
X135682987Y-119416620D01*
X135660194Y-119403095D01*
X135656331Y-119400204D01*
X135656329Y-119400203D01*
X135609790Y-119382845D01*
X135601622Y-119379461D01*
X135579004Y-119369132D01*
X135556458Y-119358835D01*
X135555603Y-119358712D01*
X135551676Y-119358147D01*
X135526001Y-119351594D01*
X135521483Y-119349909D01*
X135471947Y-119346365D01*
X135463153Y-119345419D01*
X135449803Y-119343500D01*
X135449799Y-119343500D01*
X135436308Y-119343500D01*
X135427461Y-119343184D01*
X135377926Y-119339640D01*
X135373214Y-119340666D01*
X135346856Y-119343500D01*
X127151144Y-119343500D01*
X127124786Y-119340666D01*
X127120073Y-119339640D01*
X127070539Y-119343184D01*
X127061692Y-119343500D01*
X127048201Y-119343500D01*
X127034837Y-119345420D01*
X127026053Y-119346365D01*
X126976513Y-119349909D01*
X126971990Y-119351596D01*
X126946323Y-119358147D01*
X126941545Y-119358834D01*
X126896365Y-119379466D01*
X126888191Y-119382851D01*
X126841668Y-119400203D01*
X126837802Y-119403098D01*
X126815017Y-119416617D01*
X126813909Y-119417123D01*
X126810624Y-119418624D01*
X126773107Y-119451132D01*
X126766227Y-119456677D01*
X126755408Y-119464777D01*
X126745854Y-119474330D01*
X126739386Y-119480351D01*
X126701855Y-119512872D01*
X126699244Y-119516936D01*
X126682615Y-119537569D01*
X125867118Y-120353066D01*
X125805795Y-120386551D01*
X125756652Y-120387274D01*
X125575976Y-120353500D01*
X125372024Y-120353500D01*
X125327524Y-120361818D01*
X125191345Y-120387274D01*
X125121830Y-120380243D01*
X125080880Y-120353066D01*
X124265385Y-119537571D01*
X124248749Y-119516927D01*
X124246142Y-119512870D01*
X124208615Y-119480354D01*
X124202135Y-119474321D01*
X124192593Y-119464779D01*
X124181786Y-119456689D01*
X124174907Y-119451147D01*
X124137373Y-119418623D01*
X124137372Y-119418622D01*
X124132987Y-119416620D01*
X124110194Y-119403095D01*
X124106331Y-119400204D01*
X124106329Y-119400203D01*
X124059790Y-119382845D01*
X124051622Y-119379461D01*
X124029004Y-119369132D01*
X124006458Y-119358835D01*
X124005603Y-119358712D01*
X124001676Y-119358147D01*
X123976001Y-119351594D01*
X123971483Y-119349909D01*
X123921947Y-119346365D01*
X123913153Y-119345419D01*
X123899803Y-119343500D01*
X123899799Y-119343500D01*
X123886308Y-119343500D01*
X123877461Y-119343184D01*
X123827926Y-119339640D01*
X123823214Y-119340666D01*
X123796856Y-119343500D01*
X115651144Y-119343500D01*
X115624786Y-119340666D01*
X115620073Y-119339640D01*
X115570539Y-119343184D01*
X115561692Y-119343500D01*
X115548201Y-119343500D01*
X115534837Y-119345420D01*
X115526053Y-119346365D01*
X115476513Y-119349909D01*
X115471990Y-119351596D01*
X115446323Y-119358147D01*
X115441545Y-119358834D01*
X115396365Y-119379466D01*
X115388191Y-119382851D01*
X115341668Y-119400203D01*
X115337802Y-119403098D01*
X115315017Y-119416617D01*
X115313909Y-119417123D01*
X115310624Y-119418624D01*
X115273107Y-119451132D01*
X115266227Y-119456677D01*
X115255408Y-119464777D01*
X115245854Y-119474330D01*
X115239386Y-119480351D01*
X115201855Y-119512872D01*
X115199244Y-119516936D01*
X115182615Y-119537569D01*
X114367118Y-120353066D01*
X114305795Y-120386551D01*
X114256652Y-120387274D01*
X114075976Y-120353500D01*
X113872024Y-120353500D01*
X113771783Y-120372238D01*
X113671542Y-120390976D01*
X113481361Y-120464652D01*
X113307958Y-120572018D01*
X113157236Y-120709419D01*
X113034324Y-120872181D01*
X112943418Y-121054748D01*
X112887602Y-121250916D01*
X112868785Y-121453999D01*
X112539215Y-121453999D01*
X112520397Y-121250917D01*
X112464582Y-121054750D01*
X112464209Y-121054001D01*
X112373675Y-120872181D01*
X112250763Y-120709419D01*
X112100041Y-120572018D01*
X111926638Y-120464652D01*
X111736457Y-120390976D01*
X111669629Y-120378484D01*
X111535976Y-120353500D01*
X111332024Y-120353500D01*
X111231783Y-120372238D01*
X111131542Y-120390976D01*
X110941361Y-120464652D01*
X110767958Y-120572018D01*
X110617236Y-120709419D01*
X110494324Y-120872181D01*
X110403418Y-121054748D01*
X110347602Y-121250916D01*
X110328785Y-121453999D01*
X104212815Y-121453999D01*
X104160387Y-121409516D01*
X104140007Y-121342685D01*
X104140000Y-121341395D01*
X104140000Y-116328000D01*
X104159685Y-116260961D01*
X104212489Y-116215206D01*
X104264000Y-116204000D01*
X140694000Y-116204000D01*
X140694000Y-112203999D01*
X141488356Y-112203999D01*
X141508891Y-112451816D01*
X141508891Y-112451819D01*
X141508892Y-112451821D01*
X141569937Y-112692881D01*
X141614960Y-112795523D01*
X141669825Y-112920604D01*
X141669827Y-112920607D01*
X141805836Y-113128785D01*
X141974256Y-113311738D01*
X141974259Y-113311740D01*
X142170485Y-113464470D01*
X142170487Y-113464471D01*
X142170491Y-113464474D01*
X142389190Y-113582828D01*
X142624386Y-113663571D01*
X142869665Y-113704500D01*
X143118335Y-113704500D01*
X143363614Y-113663571D01*
X143598810Y-113582828D01*
X143817509Y-113464474D01*
X144013744Y-113311738D01*
X144182164Y-113128785D01*
X144318173Y-112920607D01*
X144418063Y-112692881D01*
X144479108Y-112451821D01*
X144499643Y-112204000D01*
X144479108Y-111956179D01*
X144418063Y-111715119D01*
X144318173Y-111487393D01*
X144182164Y-111279215D01*
X144013744Y-111096262D01*
X143991612Y-111079036D01*
X143817514Y-110943529D01*
X143817510Y-110943526D01*
X143817509Y-110943526D01*
X143598810Y-110825172D01*
X143598806Y-110825170D01*
X143598805Y-110825170D01*
X143363615Y-110744429D01*
X143118335Y-110703500D01*
X142869665Y-110703500D01*
X142624384Y-110744429D01*
X142389194Y-110825170D01*
X142170485Y-110943529D01*
X141974259Y-111096259D01*
X141805837Y-111279214D01*
X141669825Y-111487395D01*
X141604812Y-111635611D01*
X141569937Y-111715119D01*
X141544919Y-111813912D01*
X141508891Y-111956183D01*
X141488356Y-112203999D01*
X140694000Y-112203999D01*
X140694000Y-103962200D01*
X152894985Y-103962200D01*
X152913802Y-104165283D01*
X152969618Y-104361451D01*
X153060524Y-104544018D01*
X153183436Y-104706780D01*
X153334158Y-104844181D01*
X153507561Y-104951547D01*
X153507563Y-104951548D01*
X153697744Y-105025224D01*
X153898224Y-105062700D01*
X153898226Y-105062700D01*
X154102174Y-105062700D01*
X154102176Y-105062700D01*
X154302656Y-105025224D01*
X154492837Y-104951548D01*
X154666241Y-104844181D01*
X154816964Y-104706779D01*
X154939873Y-104544021D01*
X154939873Y-104544019D01*
X154939875Y-104544018D01*
X154987685Y-104448000D01*
X155030782Y-104361450D01*
X155086597Y-104165283D01*
X155105415Y-103962200D01*
X155086597Y-103759117D01*
X155030782Y-103562950D01*
X155013138Y-103527516D01*
X154939875Y-103380381D01*
X154816963Y-103217619D01*
X154666241Y-103080218D01*
X154492838Y-102972852D01*
X154302657Y-102899176D01*
X154235829Y-102886683D01*
X154102176Y-102861700D01*
X153898224Y-102861700D01*
X153797983Y-102880438D01*
X153697742Y-102899176D01*
X153507561Y-102972852D01*
X153334158Y-103080218D01*
X153183436Y-103217619D01*
X153060524Y-103380381D01*
X152969618Y-103562948D01*
X152913802Y-103759116D01*
X152894985Y-103962200D01*
X140694000Y-103962200D01*
X140694000Y-101422199D01*
X152894985Y-101422199D01*
X152913802Y-101625283D01*
X152969618Y-101821451D01*
X153060524Y-102004018D01*
X153183436Y-102166780D01*
X153334158Y-102304181D01*
X153507561Y-102411547D01*
X153507563Y-102411548D01*
X153697744Y-102485224D01*
X153898224Y-102522700D01*
X153898226Y-102522700D01*
X154102174Y-102522700D01*
X154102176Y-102522700D01*
X154302656Y-102485224D01*
X154492837Y-102411548D01*
X154666241Y-102304181D01*
X154816964Y-102166779D01*
X154939873Y-102004021D01*
X154939873Y-102004019D01*
X154939875Y-102004018D01*
X154985513Y-101912361D01*
X155030782Y-101821450D01*
X155086597Y-101625283D01*
X155105415Y-101422200D01*
X155086597Y-101219117D01*
X155073082Y-101171619D01*
X155041374Y-101060176D01*
X155030782Y-101022950D01*
X154990088Y-100941225D01*
X154939875Y-100840381D01*
X154816963Y-100677619D01*
X154666241Y-100540218D01*
X154492838Y-100432852D01*
X154302657Y-100359176D01*
X154235829Y-100346683D01*
X154102176Y-100321700D01*
X153898224Y-100321700D01*
X153797983Y-100340438D01*
X153697742Y-100359176D01*
X153507561Y-100432852D01*
X153334158Y-100540218D01*
X153183436Y-100677619D01*
X153060524Y-100840381D01*
X152969618Y-101022948D01*
X152913802Y-101219116D01*
X152894985Y-101422199D01*
X140694000Y-101422199D01*
X140694000Y-98882200D01*
X152894985Y-98882200D01*
X152913802Y-99085283D01*
X152969618Y-99281451D01*
X153060524Y-99464018D01*
X153183436Y-99626780D01*
X153334158Y-99764181D01*
X153507561Y-99871547D01*
X153507563Y-99871548D01*
X153697744Y-99945224D01*
X153898224Y-99982700D01*
X153898226Y-99982700D01*
X154102174Y-99982700D01*
X154102176Y-99982700D01*
X154302656Y-99945224D01*
X154492837Y-99871548D01*
X154666241Y-99764181D01*
X154816964Y-99626779D01*
X154939873Y-99464021D01*
X154939873Y-99464019D01*
X154939875Y-99464018D01*
X154985513Y-99372361D01*
X155030782Y-99281450D01*
X155086597Y-99085283D01*
X155105415Y-98882200D01*
X155086597Y-98679117D01*
X155030782Y-98482950D01*
X155005065Y-98431302D01*
X154939875Y-98300381D01*
X154816963Y-98137619D01*
X154666241Y-98000218D01*
X154492838Y-97892852D01*
X154302657Y-97819176D01*
X154235829Y-97806683D01*
X154102176Y-97781700D01*
X153898224Y-97781700D01*
X153797983Y-97800438D01*
X153697742Y-97819176D01*
X153507561Y-97892852D01*
X153334158Y-98000218D01*
X153183436Y-98137619D01*
X153060524Y-98300381D01*
X152969618Y-98482948D01*
X152913802Y-98679116D01*
X152894985Y-98882200D01*
X140694000Y-98882200D01*
X140694000Y-96342199D01*
X152894985Y-96342199D01*
X152913802Y-96545283D01*
X152969618Y-96741451D01*
X153060524Y-96924018D01*
X153183436Y-97086780D01*
X153334158Y-97224181D01*
X153507561Y-97331547D01*
X153507563Y-97331548D01*
X153697744Y-97405224D01*
X153898224Y-97442700D01*
X153898226Y-97442700D01*
X154102174Y-97442700D01*
X154102176Y-97442700D01*
X154302656Y-97405224D01*
X154492837Y-97331548D01*
X154666241Y-97224181D01*
X154816964Y-97086779D01*
X154939873Y-96924021D01*
X154939873Y-96924019D01*
X154939875Y-96924018D01*
X154985513Y-96832361D01*
X155030782Y-96741450D01*
X155086597Y-96545283D01*
X155105415Y-96342200D01*
X155086597Y-96139117D01*
X155030782Y-95942950D01*
X155030409Y-95942201D01*
X154939875Y-95760381D01*
X154816963Y-95597619D01*
X154666241Y-95460218D01*
X154492838Y-95352852D01*
X154302657Y-95279176D01*
X154235829Y-95266683D01*
X154102176Y-95241700D01*
X153898224Y-95241700D01*
X153797983Y-95260438D01*
X153697742Y-95279176D01*
X153507561Y-95352852D01*
X153334158Y-95460218D01*
X153183436Y-95597619D01*
X153060524Y-95760381D01*
X152969618Y-95942948D01*
X152913802Y-96139116D01*
X152894985Y-96342199D01*
X140694000Y-96342199D01*
X140694000Y-93802200D01*
X152894985Y-93802200D01*
X152913802Y-94005283D01*
X152969618Y-94201451D01*
X153060524Y-94384018D01*
X153183436Y-94546780D01*
X153334158Y-94684181D01*
X153507561Y-94791547D01*
X153507563Y-94791548D01*
X153697744Y-94865224D01*
X153898224Y-94902700D01*
X153898226Y-94902700D01*
X154102174Y-94902700D01*
X154102176Y-94902700D01*
X154302656Y-94865224D01*
X154492837Y-94791548D01*
X154666241Y-94684181D01*
X154816964Y-94546779D01*
X154939873Y-94384021D01*
X154939873Y-94384019D01*
X154939875Y-94384018D01*
X154985513Y-94292361D01*
X155030782Y-94201450D01*
X155086597Y-94005283D01*
X155105415Y-93802200D01*
X155086597Y-93599117D01*
X155030782Y-93402950D01*
X155030409Y-93402201D01*
X154939875Y-93220381D01*
X154816963Y-93057619D01*
X154666241Y-92920218D01*
X154492838Y-92812852D01*
X154302657Y-92739176D01*
X154235829Y-92726683D01*
X154102176Y-92701700D01*
X153898224Y-92701700D01*
X153797983Y-92720438D01*
X153697742Y-92739176D01*
X153507561Y-92812852D01*
X153334158Y-92920218D01*
X153183436Y-93057619D01*
X153060524Y-93220381D01*
X152969618Y-93402948D01*
X152913802Y-93599116D01*
X152894985Y-93802200D01*
X140694000Y-93802200D01*
X140694000Y-91262200D01*
X152894985Y-91262200D01*
X152913802Y-91465283D01*
X152969618Y-91661451D01*
X153060524Y-91844018D01*
X153183436Y-92006780D01*
X153334158Y-92144181D01*
X153507561Y-92251547D01*
X153507563Y-92251548D01*
X153697744Y-92325224D01*
X153898224Y-92362700D01*
X153898226Y-92362700D01*
X154102174Y-92362700D01*
X154102176Y-92362700D01*
X154302656Y-92325224D01*
X154492837Y-92251548D01*
X154666241Y-92144181D01*
X154816964Y-92006779D01*
X154939873Y-91844021D01*
X154939873Y-91844019D01*
X154939875Y-91844018D01*
X155008044Y-91707114D01*
X155030782Y-91661450D01*
X155086597Y-91465283D01*
X155105415Y-91262200D01*
X155086597Y-91059117D01*
X155030782Y-90862950D01*
X155030409Y-90862201D01*
X154939875Y-90680381D01*
X154816963Y-90517619D01*
X154666241Y-90380218D01*
X154492838Y-90272852D01*
X154302657Y-90199176D01*
X154235829Y-90186683D01*
X154102176Y-90161700D01*
X153898224Y-90161700D01*
X153797983Y-90180438D01*
X153697742Y-90199176D01*
X153507561Y-90272852D01*
X153334158Y-90380218D01*
X153183436Y-90517619D01*
X153060524Y-90680381D01*
X152969618Y-90862948D01*
X152913802Y-91059116D01*
X152894985Y-91262200D01*
X140694000Y-91262200D01*
X140694000Y-88722199D01*
X152894985Y-88722199D01*
X152913802Y-88925283D01*
X152969618Y-89121451D01*
X153060524Y-89304018D01*
X153183436Y-89466780D01*
X153334158Y-89604181D01*
X153507561Y-89711547D01*
X153507563Y-89711548D01*
X153697744Y-89785224D01*
X153898224Y-89822700D01*
X153898226Y-89822700D01*
X154102174Y-89822700D01*
X154102176Y-89822700D01*
X154302656Y-89785224D01*
X154492837Y-89711548D01*
X154666241Y-89604181D01*
X154816964Y-89466779D01*
X154939873Y-89304021D01*
X154939873Y-89304019D01*
X154939875Y-89304018D01*
X154985513Y-89212361D01*
X155030782Y-89121450D01*
X155086597Y-88925283D01*
X155105415Y-88722200D01*
X155086597Y-88519117D01*
X155030782Y-88322950D01*
X155030409Y-88322201D01*
X154939875Y-88140381D01*
X154816963Y-87977619D01*
X154666241Y-87840218D01*
X154492838Y-87732852D01*
X154302657Y-87659176D01*
X154235829Y-87646683D01*
X154102176Y-87621700D01*
X153898224Y-87621700D01*
X153797983Y-87640438D01*
X153697742Y-87659176D01*
X153507561Y-87732852D01*
X153334158Y-87840218D01*
X153183436Y-87977619D01*
X153060524Y-88140381D01*
X152969618Y-88322948D01*
X152913802Y-88519116D01*
X152894985Y-88722199D01*
X140694000Y-88722199D01*
X140694000Y-86182200D01*
X152894985Y-86182200D01*
X152913802Y-86385283D01*
X152969618Y-86581451D01*
X153060524Y-86764018D01*
X153183436Y-86926780D01*
X153334158Y-87064181D01*
X153507561Y-87171547D01*
X153507563Y-87171548D01*
X153697744Y-87245224D01*
X153898224Y-87282700D01*
X153898226Y-87282700D01*
X154102174Y-87282700D01*
X154102176Y-87282700D01*
X154302656Y-87245224D01*
X154492837Y-87171548D01*
X154666241Y-87064181D01*
X154816964Y-86926779D01*
X154939873Y-86764021D01*
X154939873Y-86764019D01*
X154939875Y-86764018D01*
X154985513Y-86672361D01*
X155030782Y-86581450D01*
X155086597Y-86385283D01*
X155105415Y-86182200D01*
X155086597Y-85979117D01*
X155030782Y-85782950D01*
X155030409Y-85782201D01*
X154939875Y-85600381D01*
X154816963Y-85437619D01*
X154666241Y-85300218D01*
X154492838Y-85192852D01*
X154302657Y-85119176D01*
X154235829Y-85106683D01*
X154102176Y-85081700D01*
X153898224Y-85081700D01*
X153797983Y-85100438D01*
X153697742Y-85119176D01*
X153507561Y-85192852D01*
X153334158Y-85300218D01*
X153183436Y-85437619D01*
X153060524Y-85600381D01*
X152969618Y-85782948D01*
X152913802Y-85979116D01*
X152894985Y-86182200D01*
X140694000Y-86182200D01*
X140694000Y-83642200D01*
X152894985Y-83642200D01*
X152913802Y-83845283D01*
X152969618Y-84041451D01*
X153060524Y-84224018D01*
X153183436Y-84386780D01*
X153334158Y-84524181D01*
X153507561Y-84631547D01*
X153507563Y-84631548D01*
X153697744Y-84705224D01*
X153898224Y-84742700D01*
X153898226Y-84742700D01*
X154102174Y-84742700D01*
X154102176Y-84742700D01*
X154302656Y-84705224D01*
X154492837Y-84631548D01*
X154666241Y-84524181D01*
X154816964Y-84386779D01*
X154939873Y-84224021D01*
X154939873Y-84224019D01*
X154939875Y-84224018D01*
X154985513Y-84132361D01*
X155030782Y-84041450D01*
X155086597Y-83845283D01*
X155105415Y-83642200D01*
X155086597Y-83439117D01*
X155030782Y-83242950D01*
X155030409Y-83242201D01*
X154939875Y-83060381D01*
X154816963Y-82897619D01*
X154666241Y-82760218D01*
X154492838Y-82652852D01*
X154302657Y-82579176D01*
X154235829Y-82566683D01*
X154102176Y-82541700D01*
X153898224Y-82541700D01*
X153797983Y-82560438D01*
X153697742Y-82579176D01*
X153507561Y-82652852D01*
X153334158Y-82760218D01*
X153183436Y-82897619D01*
X153060524Y-83060381D01*
X152969618Y-83242948D01*
X152913802Y-83439116D01*
X152894985Y-83642200D01*
X140694000Y-83642200D01*
X140694000Y-83328674D01*
X148093500Y-83328674D01*
X148108033Y-83401738D01*
X148108033Y-83401739D01*
X148108034Y-83401740D01*
X148163399Y-83484601D01*
X148246260Y-83539966D01*
X148282792Y-83547232D01*
X148319325Y-83554500D01*
X148319326Y-83554500D01*
X150068675Y-83554500D01*
X150093029Y-83549655D01*
X150141740Y-83539966D01*
X150224601Y-83484601D01*
X150279966Y-83401740D01*
X150294500Y-83328674D01*
X150294500Y-81579326D01*
X150279966Y-81506260D01*
X150224601Y-81423399D01*
X150141740Y-81368034D01*
X150141739Y-81368033D01*
X150141738Y-81368033D01*
X150068675Y-81353500D01*
X150068674Y-81353500D01*
X148319326Y-81353500D01*
X148319325Y-81353500D01*
X148246261Y-81368033D01*
X148163399Y-81423399D01*
X148108033Y-81506261D01*
X148093500Y-81579325D01*
X148093500Y-83328674D01*
X140694000Y-83328674D01*
X140694000Y-81102200D01*
X152894985Y-81102200D01*
X152913802Y-81305283D01*
X152969618Y-81501451D01*
X153060524Y-81684018D01*
X153183436Y-81846780D01*
X153334158Y-81984181D01*
X153507561Y-82091547D01*
X153507563Y-82091548D01*
X153697744Y-82165224D01*
X153898224Y-82202700D01*
X153898226Y-82202700D01*
X154102174Y-82202700D01*
X154102176Y-82202700D01*
X154302656Y-82165224D01*
X154492837Y-82091548D01*
X154666241Y-81984181D01*
X154816964Y-81846779D01*
X154939873Y-81684021D01*
X154939873Y-81684019D01*
X154939875Y-81684018D01*
X155028386Y-81506261D01*
X155030782Y-81501450D01*
X155086597Y-81305283D01*
X155105415Y-81102200D01*
X155086597Y-80899117D01*
X155030782Y-80702950D01*
X155030409Y-80702201D01*
X154939875Y-80520381D01*
X154816963Y-80357619D01*
X154666241Y-80220218D01*
X154492838Y-80112852D01*
X154302657Y-80039176D01*
X154235829Y-80026683D01*
X154102176Y-80001700D01*
X153898224Y-80001700D01*
X153797983Y-80020438D01*
X153697742Y-80039176D01*
X153507561Y-80112852D01*
X153334158Y-80220218D01*
X153183436Y-80357619D01*
X153060524Y-80520381D01*
X152969618Y-80702948D01*
X152913802Y-80899116D01*
X152894985Y-81102200D01*
X140694000Y-81102200D01*
X140694000Y-78562200D01*
X152894985Y-78562200D01*
X152913802Y-78765283D01*
X152969618Y-78961451D01*
X153060524Y-79144018D01*
X153183436Y-79306780D01*
X153334158Y-79444181D01*
X153507561Y-79551547D01*
X153507563Y-79551548D01*
X153697744Y-79625224D01*
X153898224Y-79662700D01*
X153898226Y-79662700D01*
X154102174Y-79662700D01*
X154102176Y-79662700D01*
X154302656Y-79625224D01*
X154492837Y-79551548D01*
X154666241Y-79444181D01*
X154816964Y-79306779D01*
X154939873Y-79144021D01*
X154939873Y-79144019D01*
X154939875Y-79144018D01*
X154985513Y-79052361D01*
X155030782Y-78961450D01*
X155086597Y-78765283D01*
X155105415Y-78562200D01*
X155086597Y-78359117D01*
X155030782Y-78162950D01*
X155019888Y-78141072D01*
X154939875Y-77980381D01*
X154816963Y-77817619D01*
X154666241Y-77680218D01*
X154492838Y-77572852D01*
X154302657Y-77499176D01*
X154235829Y-77486683D01*
X154102176Y-77461700D01*
X153898224Y-77461700D01*
X153797983Y-77480438D01*
X153697742Y-77499176D01*
X153507561Y-77572852D01*
X153334158Y-77680218D01*
X153183436Y-77817619D01*
X153060524Y-77980381D01*
X152969618Y-78162948D01*
X152913802Y-78359116D01*
X152894985Y-78562200D01*
X140694000Y-78562200D01*
X140694000Y-78254176D01*
X140713685Y-78187137D01*
X140728894Y-78167943D01*
X140754899Y-78141072D01*
X142805451Y-76022199D01*
X152894985Y-76022199D01*
X152913802Y-76225283D01*
X152969618Y-76421451D01*
X153060524Y-76604018D01*
X153183436Y-76766780D01*
X153334158Y-76904181D01*
X153507561Y-77011547D01*
X153507563Y-77011548D01*
X153697744Y-77085224D01*
X153898224Y-77122700D01*
X153898226Y-77122700D01*
X154102174Y-77122700D01*
X154102176Y-77122700D01*
X154302656Y-77085224D01*
X154492837Y-77011548D01*
X154666241Y-76904181D01*
X154816964Y-76766779D01*
X154939873Y-76604021D01*
X154939873Y-76604019D01*
X154939875Y-76604018D01*
X154985513Y-76512361D01*
X155030782Y-76421450D01*
X155086597Y-76225283D01*
X155105415Y-76022200D01*
X155086597Y-75819117D01*
X155030782Y-75622950D01*
X155017773Y-75596824D01*
X154939875Y-75440381D01*
X154816963Y-75277619D01*
X154666241Y-75140218D01*
X154492838Y-75032852D01*
X154302657Y-74959176D01*
X154235829Y-74946683D01*
X154102176Y-74921700D01*
X153898224Y-74921700D01*
X153797983Y-74940438D01*
X153697742Y-74959176D01*
X153507561Y-75032852D01*
X153334158Y-75140218D01*
X153183436Y-75277619D01*
X153060524Y-75440381D01*
X152969618Y-75622948D01*
X152913802Y-75819116D01*
X152894985Y-76022199D01*
X142805451Y-76022199D01*
X144417079Y-74356874D01*
X152899700Y-74356874D01*
X152914233Y-74429938D01*
X152914233Y-74429939D01*
X152914234Y-74429940D01*
X152969599Y-74512801D01*
X153052460Y-74568166D01*
X153088992Y-74575432D01*
X153125525Y-74582700D01*
X153125526Y-74582700D01*
X154874875Y-74582700D01*
X154899229Y-74577855D01*
X154947940Y-74568166D01*
X155030801Y-74512801D01*
X155086166Y-74429940D01*
X155100700Y-74356874D01*
X155100700Y-73482200D01*
X178294985Y-73482200D01*
X178313802Y-73685283D01*
X178369618Y-73881451D01*
X178460524Y-74064018D01*
X178583436Y-74226780D01*
X178734158Y-74364181D01*
X178907561Y-74471547D01*
X178907563Y-74471548D01*
X179097744Y-74545224D01*
X179298224Y-74582700D01*
X179298226Y-74582700D01*
X179502174Y-74582700D01*
X179502176Y-74582700D01*
X179702656Y-74545224D01*
X179892837Y-74471548D01*
X180066241Y-74364181D01*
X180216964Y-74226779D01*
X180339873Y-74064021D01*
X180339873Y-74064019D01*
X180339875Y-74064018D01*
X180385513Y-73972361D01*
X180430782Y-73881450D01*
X180486597Y-73685283D01*
X180505415Y-73482200D01*
X180486597Y-73279117D01*
X180430782Y-73082950D01*
X180430409Y-73082201D01*
X180339875Y-72900381D01*
X180216963Y-72737619D01*
X180066241Y-72600218D01*
X179892838Y-72492852D01*
X179702657Y-72419176D01*
X179579926Y-72396234D01*
X179502176Y-72381700D01*
X179298224Y-72381700D01*
X179220479Y-72396233D01*
X179097742Y-72419176D01*
X178907561Y-72492852D01*
X178734158Y-72600218D01*
X178583436Y-72737619D01*
X178460524Y-72900381D01*
X178369618Y-73082948D01*
X178313802Y-73279116D01*
X178294985Y-73482200D01*
X155100700Y-73482200D01*
X155100700Y-72607526D01*
X155086166Y-72534460D01*
X155030801Y-72451599D01*
X154947940Y-72396234D01*
X154947939Y-72396233D01*
X154947938Y-72396233D01*
X154874875Y-72381700D01*
X154874874Y-72381700D01*
X153125526Y-72381700D01*
X153125525Y-72381700D01*
X153052461Y-72396233D01*
X152969599Y-72451599D01*
X152914233Y-72534461D01*
X152899700Y-72607525D01*
X152899700Y-74356874D01*
X144417079Y-74356874D01*
X154157354Y-64292071D01*
X154218118Y-64257588D01*
X154246691Y-64254306D01*
X158233370Y-64262000D01*
X162358000Y-64262000D01*
X162358000Y-54078674D01*
X165133500Y-54078674D01*
X165148033Y-54151738D01*
X165148033Y-54151739D01*
X165148034Y-54151740D01*
X165203399Y-54234601D01*
X165286260Y-54289966D01*
X165322793Y-54297233D01*
X165359325Y-54304500D01*
X165359326Y-54304500D01*
X167108675Y-54304500D01*
X167133029Y-54299655D01*
X167181740Y-54289966D01*
X167264601Y-54234601D01*
X167319966Y-54151740D01*
X167334500Y-54078674D01*
X167334500Y-53204000D01*
X167668785Y-53204000D01*
X167687602Y-53407083D01*
X167743418Y-53603251D01*
X167834324Y-53785818D01*
X167957236Y-53948580D01*
X168107958Y-54085981D01*
X168281361Y-54193347D01*
X168281363Y-54193348D01*
X168471544Y-54267024D01*
X168672024Y-54304500D01*
X168672026Y-54304500D01*
X168875974Y-54304500D01*
X168875976Y-54304500D01*
X169076456Y-54267024D01*
X169266637Y-54193348D01*
X169440041Y-54085981D01*
X169590764Y-53948579D01*
X169713673Y-53785821D01*
X169713673Y-53785819D01*
X169713675Y-53785818D01*
X169759313Y-53694161D01*
X169804582Y-53603250D01*
X169860397Y-53407083D01*
X169879215Y-53204000D01*
X169879215Y-53203999D01*
X170208785Y-53203999D01*
X170227602Y-53407083D01*
X170283418Y-53603251D01*
X170374324Y-53785818D01*
X170497236Y-53948580D01*
X170647958Y-54085981D01*
X170821361Y-54193347D01*
X170821363Y-54193348D01*
X171011544Y-54267024D01*
X171212024Y-54304500D01*
X171212026Y-54304500D01*
X171415974Y-54304500D01*
X171415976Y-54304500D01*
X171616456Y-54267024D01*
X171806637Y-54193348D01*
X171980041Y-54085981D01*
X172130764Y-53948579D01*
X172253673Y-53785821D01*
X172253673Y-53785819D01*
X172253675Y-53785818D01*
X172299313Y-53694161D01*
X172344582Y-53603250D01*
X172400397Y-53407083D01*
X172419215Y-53204000D01*
X172419215Y-53203999D01*
X172748785Y-53203999D01*
X172767602Y-53407083D01*
X172823418Y-53603251D01*
X172914324Y-53785818D01*
X173037236Y-53948580D01*
X173187958Y-54085981D01*
X173361361Y-54193347D01*
X173361363Y-54193348D01*
X173551544Y-54267024D01*
X173752024Y-54304500D01*
X173752026Y-54304500D01*
X173955974Y-54304500D01*
X173955976Y-54304500D01*
X174156456Y-54267024D01*
X174346637Y-54193348D01*
X174520041Y-54085981D01*
X174670764Y-53948579D01*
X174793673Y-53785821D01*
X174793673Y-53785819D01*
X174793675Y-53785818D01*
X174839313Y-53694161D01*
X174884582Y-53603250D01*
X174940397Y-53407083D01*
X174959215Y-53204000D01*
X174940397Y-53000917D01*
X174884582Y-52804750D01*
X174884172Y-52803926D01*
X174793675Y-52622181D01*
X174670763Y-52459419D01*
X174520041Y-52322018D01*
X174346638Y-52214652D01*
X174156457Y-52140976D01*
X174033726Y-52118034D01*
X173955976Y-52103500D01*
X173752024Y-52103500D01*
X173674279Y-52118033D01*
X173551542Y-52140976D01*
X173361361Y-52214652D01*
X173187958Y-52322018D01*
X173037236Y-52459419D01*
X172914324Y-52622181D01*
X172823418Y-52804748D01*
X172767602Y-53000916D01*
X172748785Y-53203999D01*
X172419215Y-53203999D01*
X172400397Y-53000917D01*
X172344582Y-52804750D01*
X172344172Y-52803926D01*
X172253675Y-52622181D01*
X172130763Y-52459419D01*
X171980041Y-52322018D01*
X171806638Y-52214652D01*
X171616457Y-52140976D01*
X171493726Y-52118034D01*
X171415976Y-52103500D01*
X171212024Y-52103500D01*
X171134279Y-52118033D01*
X171011542Y-52140976D01*
X170821361Y-52214652D01*
X170647958Y-52322018D01*
X170497236Y-52459419D01*
X170374324Y-52622181D01*
X170283418Y-52804748D01*
X170227602Y-53000916D01*
X170208785Y-53203999D01*
X169879215Y-53203999D01*
X169860397Y-53000917D01*
X169804582Y-52804750D01*
X169804172Y-52803926D01*
X169713675Y-52622181D01*
X169590763Y-52459419D01*
X169440041Y-52322018D01*
X169266638Y-52214652D01*
X169076457Y-52140976D01*
X168953726Y-52118034D01*
X168875976Y-52103500D01*
X168672024Y-52103500D01*
X168594279Y-52118033D01*
X168471542Y-52140976D01*
X168281361Y-52214652D01*
X168107958Y-52322018D01*
X167957236Y-52459419D01*
X167834324Y-52622181D01*
X167743418Y-52804748D01*
X167687602Y-53000916D01*
X167668785Y-53204000D01*
X167334500Y-53204000D01*
X167334500Y-52329326D01*
X167319966Y-52256260D01*
X167264601Y-52173399D01*
X167181740Y-52118034D01*
X167181739Y-52118033D01*
X167181738Y-52118033D01*
X167108675Y-52103500D01*
X167108674Y-52103500D01*
X165359326Y-52103500D01*
X165359325Y-52103500D01*
X165286261Y-52118033D01*
X165203399Y-52173399D01*
X165148033Y-52256261D01*
X165133500Y-52329325D01*
X165133500Y-54078674D01*
X162358000Y-54078674D01*
X162358000Y-50905394D01*
X162377685Y-50838355D01*
X162430489Y-50792600D01*
X162482140Y-50781394D01*
X179805246Y-50801567D01*
G37*
%TD.AperFunction*%
%TD*%
D26*
X105664000Y-123444000D02*
G75*
G03*
X105664000Y-123444000I-1524000J0D01*
G01*
D27*
X101600000Y-48260000D02*
X184694000Y-48260000D01*
X184694000Y-126104000D01*
X101600000Y-126104000D01*
X101600000Y-48260000D01*
D26*
X105664000Y-50800000D02*
G75*
G03*
X105664000Y-50800000I-1524000J0D01*
G01*
X183468000Y-123454000D02*
G75*
G03*
X183468000Y-123454000I-1524000J0D01*
G01*
X183468000Y-50728000D02*
G75*
G03*
X183468000Y-50728000I-1524000J0D01*
G01*
M02*
