%TF.GenerationSoftware,KiCad,Pcbnew,7.0.2-6a45011f42~172~ubuntu22.10.1*%
%TF.CreationDate,2023-05-26T16:24:23+05:00*%
%TF.ProjectId,IOTV,494f5456-2e6b-4696-9361-645f70636258,rev?*%
%TF.SameCoordinates,Original*%
%TF.FileFunction,Soldermask,Bot*%
%TF.FilePolarity,Negative*%
%FSLAX46Y46*%
G04 Gerber Fmt 4.6, Leading zero omitted, Abs format (unit mm)*
G04 Created by KiCad (PCBNEW 7.0.2-6a45011f42~172~ubuntu22.10.1) date 2023-05-26 16:24:23*
%MOMM*%
%LPD*%
G01*
G04 APERTURE LIST*
G04 Aperture macros list*
%AMRoundRect*
0 Rectangle with rounded corners*
0 $1 Rounding radius*
0 $2 $3 $4 $5 $6 $7 $8 $9 X,Y pos of 4 corners*
0 Add a 4 corners polygon primitive as box body*
4,1,4,$2,$3,$4,$5,$6,$7,$8,$9,$2,$3,0*
0 Add four circle primitives for the rounded corners*
1,1,$1+$1,$2,$3*
1,1,$1+$1,$4,$5*
1,1,$1+$1,$6,$7*
1,1,$1+$1,$8,$9*
0 Add four rect primitives between the rounded corners*
20,1,$1+$1,$2,$3,$4,$5,0*
20,1,$1+$1,$4,$5,$6,$7,0*
20,1,$1+$1,$6,$7,$8,$9,0*
20,1,$1+$1,$8,$9,$2,$3,0*%
G04 Aperture macros list end*
%ADD10C,2.000000*%
%ADD11R,1.700000X1.700000*%
%ADD12O,1.700000X1.700000*%
%ADD13C,4.000000*%
%ADD14R,2.500000X2.500000*%
%ADD15C,2.500000*%
%ADD16R,2.600000X2.600000*%
%ADD17C,2.600000*%
%ADD18C,1.700000*%
%ADD19O,2.300000X1.600000*%
%ADD20R,3.000000X3.000000*%
%ADD21C,3.000000*%
%ADD22RoundRect,0.150000X-0.150000X0.587500X-0.150000X-0.587500X0.150000X-0.587500X0.150000X0.587500X0*%
%ADD23RoundRect,0.250000X-0.900000X1.000000X-0.900000X-1.000000X0.900000X-1.000000X0.900000X1.000000X0*%
%TA.AperFunction,Profile*%
%ADD24C,0.150000*%
%TD*%
%TA.AperFunction,Profile*%
%ADD25C,0.500000*%
%TD*%
G04 APERTURE END LIST*
D10*
%TO.C,C1*%
X118944000Y-66454000D03*
X108944000Y-66454000D03*
%TD*%
D11*
%TO.C,J3*%
X108894000Y-121454000D03*
D12*
X111434000Y-121454000D03*
X113974000Y-121454000D03*
X116514000Y-121454000D03*
%TD*%
D11*
%TO.C,J5*%
X131944000Y-121454000D03*
D12*
X134484000Y-121454000D03*
X137024000Y-121454000D03*
X139564000Y-121454000D03*
%TD*%
D13*
%TO.C,F1*%
X121506000Y-55719000D03*
X145636000Y-55719000D03*
%TD*%
D14*
%TO.C,PS1*%
X109394000Y-100204000D03*
D15*
X109394000Y-106204000D03*
X142994000Y-94204000D03*
X142994000Y-112204000D03*
%TD*%
D16*
%TO.C,J1*%
X114944000Y-55399000D03*
D17*
X109944000Y-55399000D03*
%TD*%
D11*
%TO.C,J4*%
X120394000Y-121454000D03*
D12*
X122934000Y-121454000D03*
X125474000Y-121454000D03*
X128014000Y-121454000D03*
%TD*%
D11*
%TO.C,U1*%
X154000200Y-73482200D03*
D18*
X154000200Y-76022200D03*
X154000200Y-78562200D03*
X154000200Y-81102200D03*
X154000200Y-83642200D03*
X154000200Y-86182200D03*
X154000200Y-88722200D03*
X154000200Y-91262200D03*
X154000200Y-93802200D03*
X154000200Y-96342200D03*
X154000200Y-98882200D03*
X154000200Y-101422200D03*
X154000200Y-103962200D03*
X154000200Y-106502200D03*
X154000200Y-109042200D03*
X179400200Y-109042200D03*
X179400200Y-106502200D03*
X179400200Y-103962200D03*
X179400200Y-101422200D03*
X179400200Y-98882200D03*
X179400200Y-96342200D03*
X179400200Y-93802200D03*
X179400200Y-91262200D03*
X179400200Y-88722200D03*
X179400200Y-86182200D03*
X179400200Y-83642200D03*
X179400200Y-81102200D03*
X179400200Y-78562200D03*
X179400200Y-76022200D03*
X179400200Y-73482200D03*
%TD*%
D19*
%TO.C,K1*%
X137504000Y-86054000D03*
X137504000Y-75894000D03*
X137504000Y-73354000D03*
X129884000Y-73354000D03*
X129884000Y-75894000D03*
X129884000Y-86054000D03*
%TD*%
D11*
%TO.C,C2*%
X149194000Y-82454000D03*
D18*
X144194000Y-82454000D03*
%TD*%
D20*
%TO.C,FL1*%
X122444000Y-85438750D03*
D21*
X122444000Y-75532750D03*
X109490000Y-75532750D03*
X109490000Y-85438750D03*
%TD*%
D16*
%TO.C,J2*%
X157444000Y-55399000D03*
D17*
X152444000Y-55399000D03*
%TD*%
D11*
%TO.C,J6*%
X166234000Y-53204000D03*
D12*
X168774000Y-53204000D03*
X171314000Y-53204000D03*
X173854000Y-53204000D03*
X176394000Y-53204000D03*
%TD*%
D10*
%TO.C,RVe1*%
X139944000Y-67179000D03*
X129944000Y-65229000D03*
%TD*%
D22*
%TO.C,Q1*%
X159704000Y-77736500D03*
X161604000Y-77736500D03*
X160654000Y-79611500D03*
%TD*%
D23*
%TO.C,D5*%
X165694000Y-75904000D03*
X165694000Y-80204000D03*
%TD*%
D24*
X105664000Y-123444000D02*
G75*
G03*
X105664000Y-123444000I-1524000J0D01*
G01*
D25*
X101600000Y-48260000D02*
X184694000Y-48260000D01*
X184694000Y-126104000D01*
X101600000Y-126104000D01*
X101600000Y-48260000D01*
D24*
X105664000Y-50800000D02*
G75*
G03*
X105664000Y-50800000I-1524000J0D01*
G01*
X183468000Y-123454000D02*
G75*
G03*
X183468000Y-123454000I-1524000J0D01*
G01*
X183468000Y-50728000D02*
G75*
G03*
X183468000Y-50728000I-1524000J0D01*
G01*
M02*
