%TF.GenerationSoftware,KiCad,Pcbnew,7.0.2-6a45011f42~172~ubuntu22.10.1*%
%TF.CreationDate,2023-08-15T16:25:11+05:00*%
%TF.ProjectId,IOTV,494f5456-2e6b-4696-9361-645f70636258,3*%
%TF.SameCoordinates,Original*%
%TF.FileFunction,Legend,Top*%
%TF.FilePolarity,Positive*%
%FSLAX46Y46*%
G04 Gerber Fmt 4.6, Leading zero omitted, Abs format (unit mm)*
G04 Created by KiCad (PCBNEW 7.0.2-6a45011f42~172~ubuntu22.10.1) date 2023-08-15 16:25:11*
%MOMM*%
%LPD*%
G01*
G04 APERTURE LIST*
%ADD10C,0.150000*%
%ADD11C,0.120000*%
%ADD12C,0.200000*%
%ADD13C,0.127000*%
%ADD14C,0.400000*%
%TA.AperFunction,Profile*%
%ADD15C,0.150000*%
%TD*%
G04 APERTURE END LIST*
D10*
X141444000Y-79988000D02*
X141444000Y-65988000D01*
X155444000Y-65988000D02*
X155444000Y-79988000D01*
X141444000Y-65988000D02*
X155444000Y-65988000D01*
X155444000Y-79988000D02*
X141444000Y-79988000D01*
X149190476Y-73328000D02*
X149333333Y-73375619D01*
X149333333Y-73375619D02*
X149571428Y-73375619D01*
X149571428Y-73375619D02*
X149666666Y-73328000D01*
X149666666Y-73328000D02*
X149714285Y-73280380D01*
X149714285Y-73280380D02*
X149761904Y-73185142D01*
X149761904Y-73185142D02*
X149761904Y-73089904D01*
X149761904Y-73089904D02*
X149714285Y-72994666D01*
X149714285Y-72994666D02*
X149666666Y-72947047D01*
X149666666Y-72947047D02*
X149571428Y-72899428D01*
X149571428Y-72899428D02*
X149380952Y-72851809D01*
X149380952Y-72851809D02*
X149285714Y-72804190D01*
X149285714Y-72804190D02*
X149238095Y-72756571D01*
X149238095Y-72756571D02*
X149190476Y-72661333D01*
X149190476Y-72661333D02*
X149190476Y-72566095D01*
X149190476Y-72566095D02*
X149238095Y-72470857D01*
X149238095Y-72470857D02*
X149285714Y-72423238D01*
X149285714Y-72423238D02*
X149380952Y-72375619D01*
X149380952Y-72375619D02*
X149619047Y-72375619D01*
X149619047Y-72375619D02*
X149761904Y-72423238D01*
X150761904Y-73280380D02*
X150714285Y-73328000D01*
X150714285Y-73328000D02*
X150571428Y-73375619D01*
X150571428Y-73375619D02*
X150476190Y-73375619D01*
X150476190Y-73375619D02*
X150333333Y-73328000D01*
X150333333Y-73328000D02*
X150238095Y-73232761D01*
X150238095Y-73232761D02*
X150190476Y-73137523D01*
X150190476Y-73137523D02*
X150142857Y-72947047D01*
X150142857Y-72947047D02*
X150142857Y-72804190D01*
X150142857Y-72804190D02*
X150190476Y-72613714D01*
X150190476Y-72613714D02*
X150238095Y-72518476D01*
X150238095Y-72518476D02*
X150333333Y-72423238D01*
X150333333Y-72423238D02*
X150476190Y-72375619D01*
X150476190Y-72375619D02*
X150571428Y-72375619D01*
X150571428Y-72375619D02*
X150714285Y-72423238D01*
X150714285Y-72423238D02*
X150761904Y-72470857D01*
X151666666Y-73375619D02*
X151190476Y-73375619D01*
X151190476Y-73375619D02*
X151190476Y-72375619D01*
X149190476Y-70788000D02*
X149333333Y-70835619D01*
X149333333Y-70835619D02*
X149571428Y-70835619D01*
X149571428Y-70835619D02*
X149666666Y-70788000D01*
X149666666Y-70788000D02*
X149714285Y-70740380D01*
X149714285Y-70740380D02*
X149761904Y-70645142D01*
X149761904Y-70645142D02*
X149761904Y-70549904D01*
X149761904Y-70549904D02*
X149714285Y-70454666D01*
X149714285Y-70454666D02*
X149666666Y-70407047D01*
X149666666Y-70407047D02*
X149571428Y-70359428D01*
X149571428Y-70359428D02*
X149380952Y-70311809D01*
X149380952Y-70311809D02*
X149285714Y-70264190D01*
X149285714Y-70264190D02*
X149238095Y-70216571D01*
X149238095Y-70216571D02*
X149190476Y-70121333D01*
X149190476Y-70121333D02*
X149190476Y-70026095D01*
X149190476Y-70026095D02*
X149238095Y-69930857D01*
X149238095Y-69930857D02*
X149285714Y-69883238D01*
X149285714Y-69883238D02*
X149380952Y-69835619D01*
X149380952Y-69835619D02*
X149619047Y-69835619D01*
X149619047Y-69835619D02*
X149761904Y-69883238D01*
X150190476Y-70835619D02*
X150190476Y-69835619D01*
X150190476Y-69835619D02*
X150428571Y-69835619D01*
X150428571Y-69835619D02*
X150571428Y-69883238D01*
X150571428Y-69883238D02*
X150666666Y-69978476D01*
X150666666Y-69978476D02*
X150714285Y-70073714D01*
X150714285Y-70073714D02*
X150761904Y-70264190D01*
X150761904Y-70264190D02*
X150761904Y-70407047D01*
X150761904Y-70407047D02*
X150714285Y-70597523D01*
X150714285Y-70597523D02*
X150666666Y-70692761D01*
X150666666Y-70692761D02*
X150571428Y-70788000D01*
X150571428Y-70788000D02*
X150428571Y-70835619D01*
X150428571Y-70835619D02*
X150190476Y-70835619D01*
X151142857Y-70549904D02*
X151619047Y-70549904D01*
X151047619Y-70835619D02*
X151380952Y-69835619D01*
X151380952Y-69835619D02*
X151714285Y-70835619D01*
X149142857Y-67295619D02*
X149761904Y-67295619D01*
X149761904Y-67295619D02*
X149428571Y-67676571D01*
X149428571Y-67676571D02*
X149571428Y-67676571D01*
X149571428Y-67676571D02*
X149666666Y-67724190D01*
X149666666Y-67724190D02*
X149714285Y-67771809D01*
X149714285Y-67771809D02*
X149761904Y-67867047D01*
X149761904Y-67867047D02*
X149761904Y-68105142D01*
X149761904Y-68105142D02*
X149714285Y-68200380D01*
X149714285Y-68200380D02*
X149666666Y-68248000D01*
X149666666Y-68248000D02*
X149571428Y-68295619D01*
X149571428Y-68295619D02*
X149285714Y-68295619D01*
X149285714Y-68295619D02*
X149190476Y-68248000D01*
X149190476Y-68248000D02*
X149142857Y-68200380D01*
X150190476Y-68200380D02*
X150238095Y-68248000D01*
X150238095Y-68248000D02*
X150190476Y-68295619D01*
X150190476Y-68295619D02*
X150142857Y-68248000D01*
X150142857Y-68248000D02*
X150190476Y-68200380D01*
X150190476Y-68200380D02*
X150190476Y-68295619D01*
X150571428Y-67295619D02*
X151190475Y-67295619D01*
X151190475Y-67295619D02*
X150857142Y-67676571D01*
X150857142Y-67676571D02*
X150999999Y-67676571D01*
X150999999Y-67676571D02*
X151095237Y-67724190D01*
X151095237Y-67724190D02*
X151142856Y-67771809D01*
X151142856Y-67771809D02*
X151190475Y-67867047D01*
X151190475Y-67867047D02*
X151190475Y-68105142D01*
X151190475Y-68105142D02*
X151142856Y-68200380D01*
X151142856Y-68200380D02*
X151095237Y-68248000D01*
X151095237Y-68248000D02*
X150999999Y-68295619D01*
X150999999Y-68295619D02*
X150714285Y-68295619D01*
X150714285Y-68295619D02*
X150619047Y-68248000D01*
X150619047Y-68248000D02*
X150571428Y-68200380D01*
X149761904Y-77503238D02*
X149666666Y-77455619D01*
X149666666Y-77455619D02*
X149523809Y-77455619D01*
X149523809Y-77455619D02*
X149380952Y-77503238D01*
X149380952Y-77503238D02*
X149285714Y-77598476D01*
X149285714Y-77598476D02*
X149238095Y-77693714D01*
X149238095Y-77693714D02*
X149190476Y-77884190D01*
X149190476Y-77884190D02*
X149190476Y-78027047D01*
X149190476Y-78027047D02*
X149238095Y-78217523D01*
X149238095Y-78217523D02*
X149285714Y-78312761D01*
X149285714Y-78312761D02*
X149380952Y-78408000D01*
X149380952Y-78408000D02*
X149523809Y-78455619D01*
X149523809Y-78455619D02*
X149619047Y-78455619D01*
X149619047Y-78455619D02*
X149761904Y-78408000D01*
X149761904Y-78408000D02*
X149809523Y-78360380D01*
X149809523Y-78360380D02*
X149809523Y-78027047D01*
X149809523Y-78027047D02*
X149619047Y-78027047D01*
X150238095Y-78455619D02*
X150238095Y-77455619D01*
X150238095Y-77455619D02*
X150809523Y-78455619D01*
X150809523Y-78455619D02*
X150809523Y-77455619D01*
X151285714Y-78455619D02*
X151285714Y-77455619D01*
X151285714Y-77455619D02*
X151523809Y-77455619D01*
X151523809Y-77455619D02*
X151666666Y-77503238D01*
X151666666Y-77503238D02*
X151761904Y-77598476D01*
X151761904Y-77598476D02*
X151809523Y-77693714D01*
X151809523Y-77693714D02*
X151857142Y-77884190D01*
X151857142Y-77884190D02*
X151857142Y-78027047D01*
X151857142Y-78027047D02*
X151809523Y-78217523D01*
X151809523Y-78217523D02*
X151761904Y-78312761D01*
X151761904Y-78312761D02*
X151666666Y-78408000D01*
X151666666Y-78408000D02*
X151523809Y-78455619D01*
X151523809Y-78455619D02*
X151285714Y-78455619D01*
X149238095Y-75915619D02*
X149238095Y-74915619D01*
X149238095Y-74915619D02*
X149809523Y-75915619D01*
X149809523Y-75915619D02*
X149809523Y-74915619D01*
X150857142Y-75820380D02*
X150809523Y-75868000D01*
X150809523Y-75868000D02*
X150666666Y-75915619D01*
X150666666Y-75915619D02*
X150571428Y-75915619D01*
X150571428Y-75915619D02*
X150428571Y-75868000D01*
X150428571Y-75868000D02*
X150333333Y-75772761D01*
X150333333Y-75772761D02*
X150285714Y-75677523D01*
X150285714Y-75677523D02*
X150238095Y-75487047D01*
X150238095Y-75487047D02*
X150238095Y-75344190D01*
X150238095Y-75344190D02*
X150285714Y-75153714D01*
X150285714Y-75153714D02*
X150333333Y-75058476D01*
X150333333Y-75058476D02*
X150428571Y-74963238D01*
X150428571Y-74963238D02*
X150571428Y-74915619D01*
X150571428Y-74915619D02*
X150666666Y-74915619D01*
X150666666Y-74915619D02*
X150809523Y-74963238D01*
X150809523Y-74963238D02*
X150857142Y-75010857D01*
X159361523Y-109375619D02*
X159028190Y-108899428D01*
X158790095Y-109375619D02*
X158790095Y-108375619D01*
X158790095Y-108375619D02*
X159171047Y-108375619D01*
X159171047Y-108375619D02*
X159266285Y-108423238D01*
X159266285Y-108423238D02*
X159313904Y-108470857D01*
X159313904Y-108470857D02*
X159361523Y-108566095D01*
X159361523Y-108566095D02*
X159361523Y-108708952D01*
X159361523Y-108708952D02*
X159313904Y-108804190D01*
X159313904Y-108804190D02*
X159266285Y-108851809D01*
X159266285Y-108851809D02*
X159171047Y-108899428D01*
X159171047Y-108899428D02*
X158790095Y-108899428D01*
X159694857Y-108375619D02*
X160361523Y-109375619D01*
X160361523Y-108375619D02*
X159694857Y-109375619D01*
X158694857Y-105811619D02*
X159313904Y-105811619D01*
X159313904Y-105811619D02*
X158980571Y-106192571D01*
X158980571Y-106192571D02*
X159123428Y-106192571D01*
X159123428Y-106192571D02*
X159218666Y-106240190D01*
X159218666Y-106240190D02*
X159266285Y-106287809D01*
X159266285Y-106287809D02*
X159313904Y-106383047D01*
X159313904Y-106383047D02*
X159313904Y-106621142D01*
X159313904Y-106621142D02*
X159266285Y-106716380D01*
X159266285Y-106716380D02*
X159218666Y-106764000D01*
X159218666Y-106764000D02*
X159123428Y-106811619D01*
X159123428Y-106811619D02*
X158837714Y-106811619D01*
X158837714Y-106811619D02*
X158742476Y-106764000D01*
X158742476Y-106764000D02*
X158694857Y-106716380D01*
X159742476Y-106716380D02*
X159790095Y-106764000D01*
X159790095Y-106764000D02*
X159742476Y-106811619D01*
X159742476Y-106811619D02*
X159694857Y-106764000D01*
X159694857Y-106764000D02*
X159742476Y-106716380D01*
X159742476Y-106716380D02*
X159742476Y-106811619D01*
X160123428Y-105811619D02*
X160742475Y-105811619D01*
X160742475Y-105811619D02*
X160409142Y-106192571D01*
X160409142Y-106192571D02*
X160551999Y-106192571D01*
X160551999Y-106192571D02*
X160647237Y-106240190D01*
X160647237Y-106240190D02*
X160694856Y-106287809D01*
X160694856Y-106287809D02*
X160742475Y-106383047D01*
X160742475Y-106383047D02*
X160742475Y-106621142D01*
X160742475Y-106621142D02*
X160694856Y-106716380D01*
X160694856Y-106716380D02*
X160647237Y-106764000D01*
X160647237Y-106764000D02*
X160551999Y-106811619D01*
X160551999Y-106811619D02*
X160266285Y-106811619D01*
X160266285Y-106811619D02*
X160171047Y-106764000D01*
X160171047Y-106764000D02*
X160123428Y-106716380D01*
X161071428Y-117514609D02*
X161214285Y-117562228D01*
X161214285Y-117562228D02*
X161261904Y-117609847D01*
X161261904Y-117609847D02*
X161309523Y-117705085D01*
X161309523Y-117705085D02*
X161309523Y-117847942D01*
X161309523Y-117847942D02*
X161261904Y-117943180D01*
X161261904Y-117943180D02*
X161214285Y-117990800D01*
X161214285Y-117990800D02*
X161119047Y-118038419D01*
X161119047Y-118038419D02*
X160738095Y-118038419D01*
X160738095Y-118038419D02*
X160738095Y-117038419D01*
X160738095Y-117038419D02*
X161071428Y-117038419D01*
X161071428Y-117038419D02*
X161166666Y-117086038D01*
X161166666Y-117086038D02*
X161214285Y-117133657D01*
X161214285Y-117133657D02*
X161261904Y-117228895D01*
X161261904Y-117228895D02*
X161261904Y-117324133D01*
X161261904Y-117324133D02*
X161214285Y-117419371D01*
X161214285Y-117419371D02*
X161166666Y-117466990D01*
X161166666Y-117466990D02*
X161071428Y-117514609D01*
X161071428Y-117514609D02*
X160738095Y-117514609D01*
X161880952Y-118038419D02*
X161785714Y-117990800D01*
X161785714Y-117990800D02*
X161738095Y-117943180D01*
X161738095Y-117943180D02*
X161690476Y-117847942D01*
X161690476Y-117847942D02*
X161690476Y-117562228D01*
X161690476Y-117562228D02*
X161738095Y-117466990D01*
X161738095Y-117466990D02*
X161785714Y-117419371D01*
X161785714Y-117419371D02*
X161880952Y-117371752D01*
X161880952Y-117371752D02*
X162023809Y-117371752D01*
X162023809Y-117371752D02*
X162119047Y-117419371D01*
X162119047Y-117419371D02*
X162166666Y-117466990D01*
X162166666Y-117466990D02*
X162214285Y-117562228D01*
X162214285Y-117562228D02*
X162214285Y-117847942D01*
X162214285Y-117847942D02*
X162166666Y-117943180D01*
X162166666Y-117943180D02*
X162119047Y-117990800D01*
X162119047Y-117990800D02*
X162023809Y-118038419D01*
X162023809Y-118038419D02*
X161880952Y-118038419D01*
X162785714Y-118038419D02*
X162690476Y-117990800D01*
X162690476Y-117990800D02*
X162642857Y-117943180D01*
X162642857Y-117943180D02*
X162595238Y-117847942D01*
X162595238Y-117847942D02*
X162595238Y-117562228D01*
X162595238Y-117562228D02*
X162642857Y-117466990D01*
X162642857Y-117466990D02*
X162690476Y-117419371D01*
X162690476Y-117419371D02*
X162785714Y-117371752D01*
X162785714Y-117371752D02*
X162928571Y-117371752D01*
X162928571Y-117371752D02*
X163023809Y-117419371D01*
X163023809Y-117419371D02*
X163071428Y-117466990D01*
X163071428Y-117466990D02*
X163119047Y-117562228D01*
X163119047Y-117562228D02*
X163119047Y-117847942D01*
X163119047Y-117847942D02*
X163071428Y-117943180D01*
X163071428Y-117943180D02*
X163023809Y-117990800D01*
X163023809Y-117990800D02*
X162928571Y-118038419D01*
X162928571Y-118038419D02*
X162785714Y-118038419D01*
X163404762Y-117371752D02*
X163785714Y-117371752D01*
X163547619Y-117038419D02*
X163547619Y-117895561D01*
X163547619Y-117895561D02*
X163595238Y-117990800D01*
X163595238Y-117990800D02*
X163690476Y-118038419D01*
X163690476Y-118038419D02*
X163785714Y-118038419D01*
X159257904Y-113479238D02*
X159162666Y-113431619D01*
X159162666Y-113431619D02*
X159019809Y-113431619D01*
X159019809Y-113431619D02*
X158876952Y-113479238D01*
X158876952Y-113479238D02*
X158781714Y-113574476D01*
X158781714Y-113574476D02*
X158734095Y-113669714D01*
X158734095Y-113669714D02*
X158686476Y-113860190D01*
X158686476Y-113860190D02*
X158686476Y-114003047D01*
X158686476Y-114003047D02*
X158734095Y-114193523D01*
X158734095Y-114193523D02*
X158781714Y-114288761D01*
X158781714Y-114288761D02*
X158876952Y-114384000D01*
X158876952Y-114384000D02*
X159019809Y-114431619D01*
X159019809Y-114431619D02*
X159115047Y-114431619D01*
X159115047Y-114431619D02*
X159257904Y-114384000D01*
X159257904Y-114384000D02*
X159305523Y-114336380D01*
X159305523Y-114336380D02*
X159305523Y-114003047D01*
X159305523Y-114003047D02*
X159115047Y-114003047D01*
X159734095Y-114431619D02*
X159734095Y-113431619D01*
X159734095Y-113431619D02*
X160305523Y-114431619D01*
X160305523Y-114431619D02*
X160305523Y-113431619D01*
X160781714Y-114431619D02*
X160781714Y-113431619D01*
X160781714Y-113431619D02*
X161019809Y-113431619D01*
X161019809Y-113431619D02*
X161162666Y-113479238D01*
X161162666Y-113479238D02*
X161257904Y-113574476D01*
X161257904Y-113574476D02*
X161305523Y-113669714D01*
X161305523Y-113669714D02*
X161353142Y-113860190D01*
X161353142Y-113860190D02*
X161353142Y-114003047D01*
X161353142Y-114003047D02*
X161305523Y-114193523D01*
X161305523Y-114193523D02*
X161257904Y-114288761D01*
X161257904Y-114288761D02*
X161162666Y-114384000D01*
X161162666Y-114384000D02*
X161019809Y-114431619D01*
X161019809Y-114431619D02*
X160781714Y-114431619D01*
X144384476Y-109328000D02*
X144527333Y-109375619D01*
X144527333Y-109375619D02*
X144765428Y-109375619D01*
X144765428Y-109375619D02*
X144860666Y-109328000D01*
X144860666Y-109328000D02*
X144908285Y-109280380D01*
X144908285Y-109280380D02*
X144955904Y-109185142D01*
X144955904Y-109185142D02*
X144955904Y-109089904D01*
X144955904Y-109089904D02*
X144908285Y-108994666D01*
X144908285Y-108994666D02*
X144860666Y-108947047D01*
X144860666Y-108947047D02*
X144765428Y-108899428D01*
X144765428Y-108899428D02*
X144574952Y-108851809D01*
X144574952Y-108851809D02*
X144479714Y-108804190D01*
X144479714Y-108804190D02*
X144432095Y-108756571D01*
X144432095Y-108756571D02*
X144384476Y-108661333D01*
X144384476Y-108661333D02*
X144384476Y-108566095D01*
X144384476Y-108566095D02*
X144432095Y-108470857D01*
X144432095Y-108470857D02*
X144479714Y-108423238D01*
X144479714Y-108423238D02*
X144574952Y-108375619D01*
X144574952Y-108375619D02*
X144813047Y-108375619D01*
X144813047Y-108375619D02*
X144955904Y-108423238D01*
X145384476Y-109375619D02*
X145384476Y-108375619D01*
X145384476Y-108375619D02*
X145622571Y-108375619D01*
X145622571Y-108375619D02*
X145765428Y-108423238D01*
X145765428Y-108423238D02*
X145860666Y-108518476D01*
X145860666Y-108518476D02*
X145908285Y-108613714D01*
X145908285Y-108613714D02*
X145955904Y-108804190D01*
X145955904Y-108804190D02*
X145955904Y-108947047D01*
X145955904Y-108947047D02*
X145908285Y-109137523D01*
X145908285Y-109137523D02*
X145860666Y-109232761D01*
X145860666Y-109232761D02*
X145765428Y-109328000D01*
X145765428Y-109328000D02*
X145622571Y-109375619D01*
X145622571Y-109375619D02*
X145384476Y-109375619D01*
X146336857Y-109089904D02*
X146813047Y-109089904D01*
X146241619Y-109375619D02*
X146574952Y-108375619D01*
X146574952Y-108375619D02*
X146908285Y-109375619D01*
X144955904Y-113423238D02*
X144860666Y-113375619D01*
X144860666Y-113375619D02*
X144717809Y-113375619D01*
X144717809Y-113375619D02*
X144574952Y-113423238D01*
X144574952Y-113423238D02*
X144479714Y-113518476D01*
X144479714Y-113518476D02*
X144432095Y-113613714D01*
X144432095Y-113613714D02*
X144384476Y-113804190D01*
X144384476Y-113804190D02*
X144384476Y-113947047D01*
X144384476Y-113947047D02*
X144432095Y-114137523D01*
X144432095Y-114137523D02*
X144479714Y-114232761D01*
X144479714Y-114232761D02*
X144574952Y-114328000D01*
X144574952Y-114328000D02*
X144717809Y-114375619D01*
X144717809Y-114375619D02*
X144813047Y-114375619D01*
X144813047Y-114375619D02*
X144955904Y-114328000D01*
X144955904Y-114328000D02*
X145003523Y-114280380D01*
X145003523Y-114280380D02*
X145003523Y-113947047D01*
X145003523Y-113947047D02*
X144813047Y-113947047D01*
X145432095Y-114375619D02*
X145432095Y-113375619D01*
X145432095Y-113375619D02*
X146003523Y-114375619D01*
X146003523Y-114375619D02*
X146003523Y-113375619D01*
X146479714Y-114375619D02*
X146479714Y-113375619D01*
X146479714Y-113375619D02*
X146717809Y-113375619D01*
X146717809Y-113375619D02*
X146860666Y-113423238D01*
X146860666Y-113423238D02*
X146955904Y-113518476D01*
X146955904Y-113518476D02*
X147003523Y-113613714D01*
X147003523Y-113613714D02*
X147051142Y-113804190D01*
X147051142Y-113804190D02*
X147051142Y-113947047D01*
X147051142Y-113947047D02*
X147003523Y-114137523D01*
X147003523Y-114137523D02*
X146955904Y-114232761D01*
X146955904Y-114232761D02*
X146860666Y-114328000D01*
X146860666Y-114328000D02*
X146717809Y-114375619D01*
X146717809Y-114375619D02*
X146479714Y-114375619D01*
X144336857Y-110875619D02*
X144955904Y-110875619D01*
X144955904Y-110875619D02*
X144622571Y-111256571D01*
X144622571Y-111256571D02*
X144765428Y-111256571D01*
X144765428Y-111256571D02*
X144860666Y-111304190D01*
X144860666Y-111304190D02*
X144908285Y-111351809D01*
X144908285Y-111351809D02*
X144955904Y-111447047D01*
X144955904Y-111447047D02*
X144955904Y-111685142D01*
X144955904Y-111685142D02*
X144908285Y-111780380D01*
X144908285Y-111780380D02*
X144860666Y-111828000D01*
X144860666Y-111828000D02*
X144765428Y-111875619D01*
X144765428Y-111875619D02*
X144479714Y-111875619D01*
X144479714Y-111875619D02*
X144384476Y-111828000D01*
X144384476Y-111828000D02*
X144336857Y-111780380D01*
X145384476Y-111780380D02*
X145432095Y-111828000D01*
X145432095Y-111828000D02*
X145384476Y-111875619D01*
X145384476Y-111875619D02*
X145336857Y-111828000D01*
X145336857Y-111828000D02*
X145384476Y-111780380D01*
X145384476Y-111780380D02*
X145384476Y-111875619D01*
X145765428Y-110875619D02*
X146384475Y-110875619D01*
X146384475Y-110875619D02*
X146051142Y-111256571D01*
X146051142Y-111256571D02*
X146193999Y-111256571D01*
X146193999Y-111256571D02*
X146289237Y-111304190D01*
X146289237Y-111304190D02*
X146336856Y-111351809D01*
X146336856Y-111351809D02*
X146384475Y-111447047D01*
X146384475Y-111447047D02*
X146384475Y-111685142D01*
X146384475Y-111685142D02*
X146336856Y-111780380D01*
X146336856Y-111780380D02*
X146289237Y-111828000D01*
X146289237Y-111828000D02*
X146193999Y-111875619D01*
X146193999Y-111875619D02*
X145908285Y-111875619D01*
X145908285Y-111875619D02*
X145813047Y-111828000D01*
X145813047Y-111828000D02*
X145765428Y-111780380D01*
X144384476Y-106828000D02*
X144527333Y-106875619D01*
X144527333Y-106875619D02*
X144765428Y-106875619D01*
X144765428Y-106875619D02*
X144860666Y-106828000D01*
X144860666Y-106828000D02*
X144908285Y-106780380D01*
X144908285Y-106780380D02*
X144955904Y-106685142D01*
X144955904Y-106685142D02*
X144955904Y-106589904D01*
X144955904Y-106589904D02*
X144908285Y-106494666D01*
X144908285Y-106494666D02*
X144860666Y-106447047D01*
X144860666Y-106447047D02*
X144765428Y-106399428D01*
X144765428Y-106399428D02*
X144574952Y-106351809D01*
X144574952Y-106351809D02*
X144479714Y-106304190D01*
X144479714Y-106304190D02*
X144432095Y-106256571D01*
X144432095Y-106256571D02*
X144384476Y-106161333D01*
X144384476Y-106161333D02*
X144384476Y-106066095D01*
X144384476Y-106066095D02*
X144432095Y-105970857D01*
X144432095Y-105970857D02*
X144479714Y-105923238D01*
X144479714Y-105923238D02*
X144574952Y-105875619D01*
X144574952Y-105875619D02*
X144813047Y-105875619D01*
X144813047Y-105875619D02*
X144955904Y-105923238D01*
X145955904Y-106780380D02*
X145908285Y-106828000D01*
X145908285Y-106828000D02*
X145765428Y-106875619D01*
X145765428Y-106875619D02*
X145670190Y-106875619D01*
X145670190Y-106875619D02*
X145527333Y-106828000D01*
X145527333Y-106828000D02*
X145432095Y-106732761D01*
X145432095Y-106732761D02*
X145384476Y-106637523D01*
X145384476Y-106637523D02*
X145336857Y-106447047D01*
X145336857Y-106447047D02*
X145336857Y-106304190D01*
X145336857Y-106304190D02*
X145384476Y-106113714D01*
X145384476Y-106113714D02*
X145432095Y-106018476D01*
X145432095Y-106018476D02*
X145527333Y-105923238D01*
X145527333Y-105923238D02*
X145670190Y-105875619D01*
X145670190Y-105875619D02*
X145765428Y-105875619D01*
X145765428Y-105875619D02*
X145908285Y-105923238D01*
X145908285Y-105923238D02*
X145955904Y-105970857D01*
X146860666Y-106875619D02*
X146384476Y-106875619D01*
X146384476Y-106875619D02*
X146384476Y-105875619D01*
X145238095Y-117647809D02*
X145571428Y-117647809D01*
X145714285Y-118171619D02*
X145238095Y-118171619D01*
X145238095Y-118171619D02*
X145238095Y-117171619D01*
X145238095Y-117171619D02*
X145714285Y-117171619D01*
X146142857Y-117504952D02*
X146142857Y-118171619D01*
X146142857Y-117600190D02*
X146190476Y-117552571D01*
X146190476Y-117552571D02*
X146285714Y-117504952D01*
X146285714Y-117504952D02*
X146428571Y-117504952D01*
X146428571Y-117504952D02*
X146523809Y-117552571D01*
X146523809Y-117552571D02*
X146571428Y-117647809D01*
X146571428Y-117647809D02*
X146571428Y-118171619D01*
X158647238Y-110875619D02*
X159218666Y-110875619D01*
X158932952Y-111875619D02*
X158932952Y-110875619D01*
X159456762Y-110875619D02*
X160123428Y-111875619D01*
X160123428Y-110875619D02*
X159456762Y-111875619D01*
X146893780Y-68475753D02*
X147893780Y-68475753D01*
X147893780Y-68475753D02*
X147893780Y-68713848D01*
X147893780Y-68713848D02*
X147846161Y-68856705D01*
X147846161Y-68856705D02*
X147750923Y-68951943D01*
X147750923Y-68951943D02*
X147655685Y-68999562D01*
X147655685Y-68999562D02*
X147465209Y-69047181D01*
X147465209Y-69047181D02*
X147322352Y-69047181D01*
X147322352Y-69047181D02*
X147131876Y-68999562D01*
X147131876Y-68999562D02*
X147036638Y-68951943D01*
X147036638Y-68951943D02*
X146941400Y-68856705D01*
X146941400Y-68856705D02*
X146893780Y-68713848D01*
X146893780Y-68713848D02*
X146893780Y-68475753D01*
X146941400Y-69428134D02*
X146893780Y-69570991D01*
X146893780Y-69570991D02*
X146893780Y-69809086D01*
X146893780Y-69809086D02*
X146941400Y-69904324D01*
X146941400Y-69904324D02*
X146989019Y-69951943D01*
X146989019Y-69951943D02*
X147084257Y-69999562D01*
X147084257Y-69999562D02*
X147179495Y-69999562D01*
X147179495Y-69999562D02*
X147274733Y-69951943D01*
X147274733Y-69951943D02*
X147322352Y-69904324D01*
X147322352Y-69904324D02*
X147369971Y-69809086D01*
X147369971Y-69809086D02*
X147417590Y-69618610D01*
X147417590Y-69618610D02*
X147465209Y-69523372D01*
X147465209Y-69523372D02*
X147512828Y-69475753D01*
X147512828Y-69475753D02*
X147608066Y-69428134D01*
X147608066Y-69428134D02*
X147703304Y-69428134D01*
X147703304Y-69428134D02*
X147798542Y-69475753D01*
X147798542Y-69475753D02*
X147846161Y-69523372D01*
X147846161Y-69523372D02*
X147893780Y-69618610D01*
X147893780Y-69618610D02*
X147893780Y-69856705D01*
X147893780Y-69856705D02*
X147846161Y-69999562D01*
X147893780Y-70332896D02*
X147893780Y-70951943D01*
X147893780Y-70951943D02*
X147512828Y-70618610D01*
X147512828Y-70618610D02*
X147512828Y-70761467D01*
X147512828Y-70761467D02*
X147465209Y-70856705D01*
X147465209Y-70856705D02*
X147417590Y-70904324D01*
X147417590Y-70904324D02*
X147322352Y-70951943D01*
X147322352Y-70951943D02*
X147084257Y-70951943D01*
X147084257Y-70951943D02*
X146989019Y-70904324D01*
X146989019Y-70904324D02*
X146941400Y-70856705D01*
X146941400Y-70856705D02*
X146893780Y-70761467D01*
X146893780Y-70761467D02*
X146893780Y-70475753D01*
X146893780Y-70475753D02*
X146941400Y-70380515D01*
X146941400Y-70380515D02*
X146989019Y-70332896D01*
X147798542Y-71332896D02*
X147846161Y-71380515D01*
X147846161Y-71380515D02*
X147893780Y-71475753D01*
X147893780Y-71475753D02*
X147893780Y-71713848D01*
X147893780Y-71713848D02*
X147846161Y-71809086D01*
X147846161Y-71809086D02*
X147798542Y-71856705D01*
X147798542Y-71856705D02*
X147703304Y-71904324D01*
X147703304Y-71904324D02*
X147608066Y-71904324D01*
X147608066Y-71904324D02*
X147465209Y-71856705D01*
X147465209Y-71856705D02*
X146893780Y-71285277D01*
X146893780Y-71285277D02*
X146893780Y-71904324D01*
X147893780Y-72237658D02*
X147893780Y-72856705D01*
X147893780Y-72856705D02*
X147512828Y-72523372D01*
X147512828Y-72523372D02*
X147512828Y-72666229D01*
X147512828Y-72666229D02*
X147465209Y-72761467D01*
X147465209Y-72761467D02*
X147417590Y-72809086D01*
X147417590Y-72809086D02*
X147322352Y-72856705D01*
X147322352Y-72856705D02*
X147084257Y-72856705D01*
X147084257Y-72856705D02*
X146989019Y-72809086D01*
X146989019Y-72809086D02*
X146941400Y-72761467D01*
X146941400Y-72761467D02*
X146893780Y-72666229D01*
X146893780Y-72666229D02*
X146893780Y-72380515D01*
X146893780Y-72380515D02*
X146941400Y-72285277D01*
X146941400Y-72285277D02*
X146989019Y-72237658D01*
X146893780Y-73809086D02*
X146893780Y-73237658D01*
X146893780Y-73523372D02*
X147893780Y-73523372D01*
X147893780Y-73523372D02*
X147750923Y-73428134D01*
X147750923Y-73428134D02*
X147655685Y-73332896D01*
X147655685Y-73332896D02*
X147608066Y-73237658D01*
X146798542Y-73999563D02*
X146798542Y-74761467D01*
X146893780Y-74999563D02*
X147560447Y-74999563D01*
X147465209Y-74999563D02*
X147512828Y-75047182D01*
X147512828Y-75047182D02*
X147560447Y-75142420D01*
X147560447Y-75142420D02*
X147560447Y-75285277D01*
X147560447Y-75285277D02*
X147512828Y-75380515D01*
X147512828Y-75380515D02*
X147417590Y-75428134D01*
X147417590Y-75428134D02*
X146893780Y-75428134D01*
X147417590Y-75428134D02*
X147512828Y-75475753D01*
X147512828Y-75475753D02*
X147560447Y-75570991D01*
X147560447Y-75570991D02*
X147560447Y-75713848D01*
X147560447Y-75713848D02*
X147512828Y-75809087D01*
X147512828Y-75809087D02*
X147417590Y-75856706D01*
X147417590Y-75856706D02*
X146893780Y-75856706D01*
X146893780Y-76332896D02*
X147560447Y-76332896D01*
X147893780Y-76332896D02*
X147846161Y-76285277D01*
X147846161Y-76285277D02*
X147798542Y-76332896D01*
X147798542Y-76332896D02*
X147846161Y-76380515D01*
X147846161Y-76380515D02*
X147893780Y-76332896D01*
X147893780Y-76332896D02*
X147798542Y-76332896D01*
X147560447Y-76809086D02*
X146893780Y-76809086D01*
X147465209Y-76809086D02*
X147512828Y-76856705D01*
X147512828Y-76856705D02*
X147560447Y-76951943D01*
X147560447Y-76951943D02*
X147560447Y-77094800D01*
X147560447Y-77094800D02*
X147512828Y-77190038D01*
X147512828Y-77190038D02*
X147417590Y-77237657D01*
X147417590Y-77237657D02*
X146893780Y-77237657D01*
X146893780Y-77713848D02*
X147560447Y-77713848D01*
X147893780Y-77713848D02*
X147846161Y-77666229D01*
X147846161Y-77666229D02*
X147798542Y-77713848D01*
X147798542Y-77713848D02*
X147846161Y-77761467D01*
X147846161Y-77761467D02*
X147893780Y-77713848D01*
X147893780Y-77713848D02*
X147798542Y-77713848D01*
%TO.C,C5*%
X112527333Y-68365380D02*
X112479714Y-68413000D01*
X112479714Y-68413000D02*
X112336857Y-68460619D01*
X112336857Y-68460619D02*
X112241619Y-68460619D01*
X112241619Y-68460619D02*
X112098762Y-68413000D01*
X112098762Y-68413000D02*
X112003524Y-68317761D01*
X112003524Y-68317761D02*
X111955905Y-68222523D01*
X111955905Y-68222523D02*
X111908286Y-68032047D01*
X111908286Y-68032047D02*
X111908286Y-67889190D01*
X111908286Y-67889190D02*
X111955905Y-67698714D01*
X111955905Y-67698714D02*
X112003524Y-67603476D01*
X112003524Y-67603476D02*
X112098762Y-67508238D01*
X112098762Y-67508238D02*
X112241619Y-67460619D01*
X112241619Y-67460619D02*
X112336857Y-67460619D01*
X112336857Y-67460619D02*
X112479714Y-67508238D01*
X112479714Y-67508238D02*
X112527333Y-67555857D01*
X113432095Y-67460619D02*
X112955905Y-67460619D01*
X112955905Y-67460619D02*
X112908286Y-67936809D01*
X112908286Y-67936809D02*
X112955905Y-67889190D01*
X112955905Y-67889190D02*
X113051143Y-67841571D01*
X113051143Y-67841571D02*
X113289238Y-67841571D01*
X113289238Y-67841571D02*
X113384476Y-67889190D01*
X113384476Y-67889190D02*
X113432095Y-67936809D01*
X113432095Y-67936809D02*
X113479714Y-68032047D01*
X113479714Y-68032047D02*
X113479714Y-68270142D01*
X113479714Y-68270142D02*
X113432095Y-68365380D01*
X113432095Y-68365380D02*
X113384476Y-68413000D01*
X113384476Y-68413000D02*
X113289238Y-68460619D01*
X113289238Y-68460619D02*
X113051143Y-68460619D01*
X113051143Y-68460619D02*
X112955905Y-68413000D01*
X112955905Y-68413000D02*
X112908286Y-68365380D01*
%TO.C,J8*%
X162861666Y-102960619D02*
X162861666Y-103674904D01*
X162861666Y-103674904D02*
X162814047Y-103817761D01*
X162814047Y-103817761D02*
X162718809Y-103913000D01*
X162718809Y-103913000D02*
X162575952Y-103960619D01*
X162575952Y-103960619D02*
X162480714Y-103960619D01*
X163480714Y-103389190D02*
X163385476Y-103341571D01*
X163385476Y-103341571D02*
X163337857Y-103293952D01*
X163337857Y-103293952D02*
X163290238Y-103198714D01*
X163290238Y-103198714D02*
X163290238Y-103151095D01*
X163290238Y-103151095D02*
X163337857Y-103055857D01*
X163337857Y-103055857D02*
X163385476Y-103008238D01*
X163385476Y-103008238D02*
X163480714Y-102960619D01*
X163480714Y-102960619D02*
X163671190Y-102960619D01*
X163671190Y-102960619D02*
X163766428Y-103008238D01*
X163766428Y-103008238D02*
X163814047Y-103055857D01*
X163814047Y-103055857D02*
X163861666Y-103151095D01*
X163861666Y-103151095D02*
X163861666Y-103198714D01*
X163861666Y-103198714D02*
X163814047Y-103293952D01*
X163814047Y-103293952D02*
X163766428Y-103341571D01*
X163766428Y-103341571D02*
X163671190Y-103389190D01*
X163671190Y-103389190D02*
X163480714Y-103389190D01*
X163480714Y-103389190D02*
X163385476Y-103436809D01*
X163385476Y-103436809D02*
X163337857Y-103484428D01*
X163337857Y-103484428D02*
X163290238Y-103579666D01*
X163290238Y-103579666D02*
X163290238Y-103770142D01*
X163290238Y-103770142D02*
X163337857Y-103865380D01*
X163337857Y-103865380D02*
X163385476Y-103913000D01*
X163385476Y-103913000D02*
X163480714Y-103960619D01*
X163480714Y-103960619D02*
X163671190Y-103960619D01*
X163671190Y-103960619D02*
X163766428Y-103913000D01*
X163766428Y-103913000D02*
X163814047Y-103865380D01*
X163814047Y-103865380D02*
X163861666Y-103770142D01*
X163861666Y-103770142D02*
X163861666Y-103579666D01*
X163861666Y-103579666D02*
X163814047Y-103484428D01*
X163814047Y-103484428D02*
X163766428Y-103436809D01*
X163766428Y-103436809D02*
X163671190Y-103389190D01*
%TO.C,U1*%
X155784095Y-91460619D02*
X155784095Y-92270142D01*
X155784095Y-92270142D02*
X155831714Y-92365380D01*
X155831714Y-92365380D02*
X155879333Y-92413000D01*
X155879333Y-92413000D02*
X155974571Y-92460619D01*
X155974571Y-92460619D02*
X156165047Y-92460619D01*
X156165047Y-92460619D02*
X156260285Y-92413000D01*
X156260285Y-92413000D02*
X156307904Y-92365380D01*
X156307904Y-92365380D02*
X156355523Y-92270142D01*
X156355523Y-92270142D02*
X156355523Y-91460619D01*
X157355523Y-92460619D02*
X156784095Y-92460619D01*
X157069809Y-92460619D02*
X157069809Y-91460619D01*
X157069809Y-91460619D02*
X156974571Y-91603476D01*
X156974571Y-91603476D02*
X156879333Y-91698714D01*
X156879333Y-91698714D02*
X156784095Y-91746333D01*
X163440904Y-96759905D02*
X163440904Y-96283715D01*
X163726619Y-96855143D02*
X162726619Y-96521810D01*
X162726619Y-96521810D02*
X163726619Y-96188477D01*
X163059952Y-95855143D02*
X163726619Y-95855143D01*
X163155190Y-95855143D02*
X163107571Y-95807524D01*
X163107571Y-95807524D02*
X163059952Y-95712286D01*
X163059952Y-95712286D02*
X163059952Y-95569429D01*
X163059952Y-95569429D02*
X163107571Y-95474191D01*
X163107571Y-95474191D02*
X163202809Y-95426572D01*
X163202809Y-95426572D02*
X163726619Y-95426572D01*
X163059952Y-95093238D02*
X163059952Y-94712286D01*
X162726619Y-94950381D02*
X163583761Y-94950381D01*
X163583761Y-94950381D02*
X163679000Y-94902762D01*
X163679000Y-94902762D02*
X163726619Y-94807524D01*
X163726619Y-94807524D02*
X163726619Y-94712286D01*
X163679000Y-93998000D02*
X163726619Y-94093238D01*
X163726619Y-94093238D02*
X163726619Y-94283714D01*
X163726619Y-94283714D02*
X163679000Y-94378952D01*
X163679000Y-94378952D02*
X163583761Y-94426571D01*
X163583761Y-94426571D02*
X163202809Y-94426571D01*
X163202809Y-94426571D02*
X163107571Y-94378952D01*
X163107571Y-94378952D02*
X163059952Y-94283714D01*
X163059952Y-94283714D02*
X163059952Y-94093238D01*
X163059952Y-94093238D02*
X163107571Y-93998000D01*
X163107571Y-93998000D02*
X163202809Y-93950381D01*
X163202809Y-93950381D02*
X163298047Y-93950381D01*
X163298047Y-93950381D02*
X163393285Y-94426571D01*
X163059952Y-93521809D02*
X163726619Y-93521809D01*
X163155190Y-93521809D02*
X163107571Y-93474190D01*
X163107571Y-93474190D02*
X163059952Y-93378952D01*
X163059952Y-93378952D02*
X163059952Y-93236095D01*
X163059952Y-93236095D02*
X163107571Y-93140857D01*
X163107571Y-93140857D02*
X163202809Y-93093238D01*
X163202809Y-93093238D02*
X163726619Y-93093238D01*
X163059952Y-92617047D02*
X163726619Y-92617047D01*
X163155190Y-92617047D02*
X163107571Y-92569428D01*
X163107571Y-92569428D02*
X163059952Y-92474190D01*
X163059952Y-92474190D02*
X163059952Y-92331333D01*
X163059952Y-92331333D02*
X163107571Y-92236095D01*
X163107571Y-92236095D02*
X163202809Y-92188476D01*
X163202809Y-92188476D02*
X163726619Y-92188476D01*
X163726619Y-91283714D02*
X163202809Y-91283714D01*
X163202809Y-91283714D02*
X163107571Y-91331333D01*
X163107571Y-91331333D02*
X163059952Y-91426571D01*
X163059952Y-91426571D02*
X163059952Y-91617047D01*
X163059952Y-91617047D02*
X163107571Y-91712285D01*
X163679000Y-91283714D02*
X163726619Y-91378952D01*
X163726619Y-91378952D02*
X163726619Y-91617047D01*
X163726619Y-91617047D02*
X163679000Y-91712285D01*
X163679000Y-91712285D02*
X163583761Y-91759904D01*
X163583761Y-91759904D02*
X163488523Y-91759904D01*
X163488523Y-91759904D02*
X163393285Y-91712285D01*
X163393285Y-91712285D02*
X163345666Y-91617047D01*
X163345666Y-91617047D02*
X163345666Y-91378952D01*
X163345666Y-91378952D02*
X163298047Y-91283714D01*
X163440904Y-90093237D02*
X163440904Y-89617047D01*
X163726619Y-90188475D02*
X162726619Y-89855142D01*
X162726619Y-89855142D02*
X163726619Y-89521809D01*
X163726619Y-89188475D02*
X163059952Y-89188475D01*
X163250428Y-89188475D02*
X163155190Y-89140856D01*
X163155190Y-89140856D02*
X163107571Y-89093237D01*
X163107571Y-89093237D02*
X163059952Y-88997999D01*
X163059952Y-88997999D02*
X163059952Y-88902761D01*
X163679000Y-88188475D02*
X163726619Y-88283713D01*
X163726619Y-88283713D02*
X163726619Y-88474189D01*
X163726619Y-88474189D02*
X163679000Y-88569427D01*
X163679000Y-88569427D02*
X163583761Y-88617046D01*
X163583761Y-88617046D02*
X163202809Y-88617046D01*
X163202809Y-88617046D02*
X163107571Y-88569427D01*
X163107571Y-88569427D02*
X163059952Y-88474189D01*
X163059952Y-88474189D02*
X163059952Y-88283713D01*
X163059952Y-88283713D02*
X163107571Y-88188475D01*
X163107571Y-88188475D02*
X163202809Y-88140856D01*
X163202809Y-88140856D02*
X163298047Y-88140856D01*
X163298047Y-88140856D02*
X163393285Y-88617046D01*
X163726619Y-87283713D02*
X163202809Y-87283713D01*
X163202809Y-87283713D02*
X163107571Y-87331332D01*
X163107571Y-87331332D02*
X163059952Y-87426570D01*
X163059952Y-87426570D02*
X163059952Y-87617046D01*
X163059952Y-87617046D02*
X163107571Y-87712284D01*
X163679000Y-87283713D02*
X163726619Y-87378951D01*
X163726619Y-87378951D02*
X163726619Y-87617046D01*
X163726619Y-87617046D02*
X163679000Y-87712284D01*
X163679000Y-87712284D02*
X163583761Y-87759903D01*
X163583761Y-87759903D02*
X163488523Y-87759903D01*
X163488523Y-87759903D02*
X163393285Y-87712284D01*
X163393285Y-87712284D02*
X163345666Y-87617046D01*
X163345666Y-87617046D02*
X163345666Y-87378951D01*
X163345666Y-87378951D02*
X163298047Y-87283713D01*
%TO.C,SW2*%
X160666667Y-122413000D02*
X160809524Y-122460619D01*
X160809524Y-122460619D02*
X161047619Y-122460619D01*
X161047619Y-122460619D02*
X161142857Y-122413000D01*
X161142857Y-122413000D02*
X161190476Y-122365380D01*
X161190476Y-122365380D02*
X161238095Y-122270142D01*
X161238095Y-122270142D02*
X161238095Y-122174904D01*
X161238095Y-122174904D02*
X161190476Y-122079666D01*
X161190476Y-122079666D02*
X161142857Y-122032047D01*
X161142857Y-122032047D02*
X161047619Y-121984428D01*
X161047619Y-121984428D02*
X160857143Y-121936809D01*
X160857143Y-121936809D02*
X160761905Y-121889190D01*
X160761905Y-121889190D02*
X160714286Y-121841571D01*
X160714286Y-121841571D02*
X160666667Y-121746333D01*
X160666667Y-121746333D02*
X160666667Y-121651095D01*
X160666667Y-121651095D02*
X160714286Y-121555857D01*
X160714286Y-121555857D02*
X160761905Y-121508238D01*
X160761905Y-121508238D02*
X160857143Y-121460619D01*
X160857143Y-121460619D02*
X161095238Y-121460619D01*
X161095238Y-121460619D02*
X161238095Y-121508238D01*
X161571429Y-121460619D02*
X161809524Y-122460619D01*
X161809524Y-122460619D02*
X162000000Y-121746333D01*
X162000000Y-121746333D02*
X162190476Y-122460619D01*
X162190476Y-122460619D02*
X162428572Y-121460619D01*
X162761905Y-121555857D02*
X162809524Y-121508238D01*
X162809524Y-121508238D02*
X162904762Y-121460619D01*
X162904762Y-121460619D02*
X163142857Y-121460619D01*
X163142857Y-121460619D02*
X163238095Y-121508238D01*
X163238095Y-121508238D02*
X163285714Y-121555857D01*
X163285714Y-121555857D02*
X163333333Y-121651095D01*
X163333333Y-121651095D02*
X163333333Y-121746333D01*
X163333333Y-121746333D02*
X163285714Y-121889190D01*
X163285714Y-121889190D02*
X162714286Y-122460619D01*
X162714286Y-122460619D02*
X163333333Y-122460619D01*
%TO.C,J3*%
X133360666Y-102840619D02*
X133360666Y-103554904D01*
X133360666Y-103554904D02*
X133313047Y-103697761D01*
X133313047Y-103697761D02*
X133217809Y-103793000D01*
X133217809Y-103793000D02*
X133074952Y-103840619D01*
X133074952Y-103840619D02*
X132979714Y-103840619D01*
X133741619Y-102840619D02*
X134360666Y-102840619D01*
X134360666Y-102840619D02*
X134027333Y-103221571D01*
X134027333Y-103221571D02*
X134170190Y-103221571D01*
X134170190Y-103221571D02*
X134265428Y-103269190D01*
X134265428Y-103269190D02*
X134313047Y-103316809D01*
X134313047Y-103316809D02*
X134360666Y-103412047D01*
X134360666Y-103412047D02*
X134360666Y-103650142D01*
X134360666Y-103650142D02*
X134313047Y-103745380D01*
X134313047Y-103745380D02*
X134265428Y-103793000D01*
X134265428Y-103793000D02*
X134170190Y-103840619D01*
X134170190Y-103840619D02*
X133884476Y-103840619D01*
X133884476Y-103840619D02*
X133789238Y-103793000D01*
X133789238Y-103793000D02*
X133741619Y-103745380D01*
%TO.C,U2*%
X133932095Y-85460619D02*
X133932095Y-86270142D01*
X133932095Y-86270142D02*
X133979714Y-86365380D01*
X133979714Y-86365380D02*
X134027333Y-86413000D01*
X134027333Y-86413000D02*
X134122571Y-86460619D01*
X134122571Y-86460619D02*
X134313047Y-86460619D01*
X134313047Y-86460619D02*
X134408285Y-86413000D01*
X134408285Y-86413000D02*
X134455904Y-86365380D01*
X134455904Y-86365380D02*
X134503523Y-86270142D01*
X134503523Y-86270142D02*
X134503523Y-85460619D01*
X134932095Y-85555857D02*
X134979714Y-85508238D01*
X134979714Y-85508238D02*
X135074952Y-85460619D01*
X135074952Y-85460619D02*
X135313047Y-85460619D01*
X135313047Y-85460619D02*
X135408285Y-85508238D01*
X135408285Y-85508238D02*
X135455904Y-85555857D01*
X135455904Y-85555857D02*
X135503523Y-85651095D01*
X135503523Y-85651095D02*
X135503523Y-85746333D01*
X135503523Y-85746333D02*
X135455904Y-85889190D01*
X135455904Y-85889190D02*
X134884476Y-86460619D01*
X134884476Y-86460619D02*
X135503523Y-86460619D01*
%TO.C,J5*%
X141360666Y-102840619D02*
X141360666Y-103554904D01*
X141360666Y-103554904D02*
X141313047Y-103697761D01*
X141313047Y-103697761D02*
X141217809Y-103793000D01*
X141217809Y-103793000D02*
X141074952Y-103840619D01*
X141074952Y-103840619D02*
X140979714Y-103840619D01*
X142313047Y-102840619D02*
X141836857Y-102840619D01*
X141836857Y-102840619D02*
X141789238Y-103316809D01*
X141789238Y-103316809D02*
X141836857Y-103269190D01*
X141836857Y-103269190D02*
X141932095Y-103221571D01*
X141932095Y-103221571D02*
X142170190Y-103221571D01*
X142170190Y-103221571D02*
X142265428Y-103269190D01*
X142265428Y-103269190D02*
X142313047Y-103316809D01*
X142313047Y-103316809D02*
X142360666Y-103412047D01*
X142360666Y-103412047D02*
X142360666Y-103650142D01*
X142360666Y-103650142D02*
X142313047Y-103745380D01*
X142313047Y-103745380D02*
X142265428Y-103793000D01*
X142265428Y-103793000D02*
X142170190Y-103840619D01*
X142170190Y-103840619D02*
X141932095Y-103840619D01*
X141932095Y-103840619D02*
X141836857Y-103793000D01*
X141836857Y-103793000D02*
X141789238Y-103745380D01*
%TO.C,F1*%
X132661666Y-58936809D02*
X132328333Y-58936809D01*
X132328333Y-59460619D02*
X132328333Y-58460619D01*
X132328333Y-58460619D02*
X132804523Y-58460619D01*
X133709285Y-59460619D02*
X133137857Y-59460619D01*
X133423571Y-59460619D02*
X133423571Y-58460619D01*
X133423571Y-58460619D02*
X133328333Y-58603476D01*
X133328333Y-58603476D02*
X133233095Y-58698714D01*
X133233095Y-58698714D02*
X133137857Y-58746333D01*
%TO.C,PS1*%
X131991619Y-92837285D02*
X130991619Y-92837285D01*
X130991619Y-92837285D02*
X130991619Y-92456333D01*
X130991619Y-92456333D02*
X131039238Y-92361095D01*
X131039238Y-92361095D02*
X131086857Y-92313476D01*
X131086857Y-92313476D02*
X131182095Y-92265857D01*
X131182095Y-92265857D02*
X131324952Y-92265857D01*
X131324952Y-92265857D02*
X131420190Y-92313476D01*
X131420190Y-92313476D02*
X131467809Y-92361095D01*
X131467809Y-92361095D02*
X131515428Y-92456333D01*
X131515428Y-92456333D02*
X131515428Y-92837285D01*
X131944000Y-91884904D02*
X131991619Y-91742047D01*
X131991619Y-91742047D02*
X131991619Y-91503952D01*
X131991619Y-91503952D02*
X131944000Y-91408714D01*
X131944000Y-91408714D02*
X131896380Y-91361095D01*
X131896380Y-91361095D02*
X131801142Y-91313476D01*
X131801142Y-91313476D02*
X131705904Y-91313476D01*
X131705904Y-91313476D02*
X131610666Y-91361095D01*
X131610666Y-91361095D02*
X131563047Y-91408714D01*
X131563047Y-91408714D02*
X131515428Y-91503952D01*
X131515428Y-91503952D02*
X131467809Y-91694428D01*
X131467809Y-91694428D02*
X131420190Y-91789666D01*
X131420190Y-91789666D02*
X131372571Y-91837285D01*
X131372571Y-91837285D02*
X131277333Y-91884904D01*
X131277333Y-91884904D02*
X131182095Y-91884904D01*
X131182095Y-91884904D02*
X131086857Y-91837285D01*
X131086857Y-91837285D02*
X131039238Y-91789666D01*
X131039238Y-91789666D02*
X130991619Y-91694428D01*
X130991619Y-91694428D02*
X130991619Y-91456333D01*
X130991619Y-91456333D02*
X131039238Y-91313476D01*
X131991619Y-90361095D02*
X131991619Y-90932523D01*
X131991619Y-90646809D02*
X130991619Y-90646809D01*
X130991619Y-90646809D02*
X131134476Y-90742047D01*
X131134476Y-90742047D02*
X131229714Y-90837285D01*
X131229714Y-90837285D02*
X131277333Y-90932523D01*
%TO.C,J1*%
X111919666Y-61460619D02*
X111919666Y-62174904D01*
X111919666Y-62174904D02*
X111872047Y-62317761D01*
X111872047Y-62317761D02*
X111776809Y-62413000D01*
X111776809Y-62413000D02*
X111633952Y-62460619D01*
X111633952Y-62460619D02*
X111538714Y-62460619D01*
X112919666Y-62460619D02*
X112348238Y-62460619D01*
X112633952Y-62460619D02*
X112633952Y-61460619D01*
X112633952Y-61460619D02*
X112538714Y-61603476D01*
X112538714Y-61603476D02*
X112443476Y-61698714D01*
X112443476Y-61698714D02*
X112348238Y-61746333D01*
%TO.C,J4*%
X137360666Y-102840619D02*
X137360666Y-103554904D01*
X137360666Y-103554904D02*
X137313047Y-103697761D01*
X137313047Y-103697761D02*
X137217809Y-103793000D01*
X137217809Y-103793000D02*
X137074952Y-103840619D01*
X137074952Y-103840619D02*
X136979714Y-103840619D01*
X138265428Y-103173952D02*
X138265428Y-103840619D01*
X138027333Y-102793000D02*
X137789238Y-103507285D01*
X137789238Y-103507285D02*
X138408285Y-103507285D01*
%TO.C,SW1*%
X144666667Y-122413000D02*
X144809524Y-122460619D01*
X144809524Y-122460619D02*
X145047619Y-122460619D01*
X145047619Y-122460619D02*
X145142857Y-122413000D01*
X145142857Y-122413000D02*
X145190476Y-122365380D01*
X145190476Y-122365380D02*
X145238095Y-122270142D01*
X145238095Y-122270142D02*
X145238095Y-122174904D01*
X145238095Y-122174904D02*
X145190476Y-122079666D01*
X145190476Y-122079666D02*
X145142857Y-122032047D01*
X145142857Y-122032047D02*
X145047619Y-121984428D01*
X145047619Y-121984428D02*
X144857143Y-121936809D01*
X144857143Y-121936809D02*
X144761905Y-121889190D01*
X144761905Y-121889190D02*
X144714286Y-121841571D01*
X144714286Y-121841571D02*
X144666667Y-121746333D01*
X144666667Y-121746333D02*
X144666667Y-121651095D01*
X144666667Y-121651095D02*
X144714286Y-121555857D01*
X144714286Y-121555857D02*
X144761905Y-121508238D01*
X144761905Y-121508238D02*
X144857143Y-121460619D01*
X144857143Y-121460619D02*
X145095238Y-121460619D01*
X145095238Y-121460619D02*
X145238095Y-121508238D01*
X145571429Y-121460619D02*
X145809524Y-122460619D01*
X145809524Y-122460619D02*
X146000000Y-121746333D01*
X146000000Y-121746333D02*
X146190476Y-122460619D01*
X146190476Y-122460619D02*
X146428572Y-121460619D01*
X147333333Y-122460619D02*
X146761905Y-122460619D01*
X147047619Y-122460619D02*
X147047619Y-121460619D01*
X147047619Y-121460619D02*
X146952381Y-121603476D01*
X146952381Y-121603476D02*
X146857143Y-121698714D01*
X146857143Y-121698714D02*
X146761905Y-121746333D01*
%TO.C,C6*%
X134961333Y-117715380D02*
X134913714Y-117763000D01*
X134913714Y-117763000D02*
X134770857Y-117810619D01*
X134770857Y-117810619D02*
X134675619Y-117810619D01*
X134675619Y-117810619D02*
X134532762Y-117763000D01*
X134532762Y-117763000D02*
X134437524Y-117667761D01*
X134437524Y-117667761D02*
X134389905Y-117572523D01*
X134389905Y-117572523D02*
X134342286Y-117382047D01*
X134342286Y-117382047D02*
X134342286Y-117239190D01*
X134342286Y-117239190D02*
X134389905Y-117048714D01*
X134389905Y-117048714D02*
X134437524Y-116953476D01*
X134437524Y-116953476D02*
X134532762Y-116858238D01*
X134532762Y-116858238D02*
X134675619Y-116810619D01*
X134675619Y-116810619D02*
X134770857Y-116810619D01*
X134770857Y-116810619D02*
X134913714Y-116858238D01*
X134913714Y-116858238D02*
X134961333Y-116905857D01*
X135818476Y-116810619D02*
X135628000Y-116810619D01*
X135628000Y-116810619D02*
X135532762Y-116858238D01*
X135532762Y-116858238D02*
X135485143Y-116905857D01*
X135485143Y-116905857D02*
X135389905Y-117048714D01*
X135389905Y-117048714D02*
X135342286Y-117239190D01*
X135342286Y-117239190D02*
X135342286Y-117620142D01*
X135342286Y-117620142D02*
X135389905Y-117715380D01*
X135389905Y-117715380D02*
X135437524Y-117763000D01*
X135437524Y-117763000D02*
X135532762Y-117810619D01*
X135532762Y-117810619D02*
X135723238Y-117810619D01*
X135723238Y-117810619D02*
X135818476Y-117763000D01*
X135818476Y-117763000D02*
X135866095Y-117715380D01*
X135866095Y-117715380D02*
X135913714Y-117620142D01*
X135913714Y-117620142D02*
X135913714Y-117382047D01*
X135913714Y-117382047D02*
X135866095Y-117286809D01*
X135866095Y-117286809D02*
X135818476Y-117239190D01*
X135818476Y-117239190D02*
X135723238Y-117191571D01*
X135723238Y-117191571D02*
X135532762Y-117191571D01*
X135532762Y-117191571D02*
X135437524Y-117239190D01*
X135437524Y-117239190D02*
X135389905Y-117286809D01*
X135389905Y-117286809D02*
X135342286Y-117382047D01*
%TO.C,FL1*%
X108955904Y-78936809D02*
X108622571Y-78936809D01*
X108622571Y-79460619D02*
X108622571Y-78460619D01*
X108622571Y-78460619D02*
X109098761Y-78460619D01*
X109955904Y-79460619D02*
X109479714Y-79460619D01*
X109479714Y-79460619D02*
X109479714Y-78460619D01*
X110813047Y-79460619D02*
X110241619Y-79460619D01*
X110527333Y-79460619D02*
X110527333Y-78460619D01*
X110527333Y-78460619D02*
X110432095Y-78603476D01*
X110432095Y-78603476D02*
X110336857Y-78698714D01*
X110336857Y-78698714D02*
X110241619Y-78746333D01*
%TO.C,J2*%
X154360666Y-61460619D02*
X154360666Y-62174904D01*
X154360666Y-62174904D02*
X154313047Y-62317761D01*
X154313047Y-62317761D02*
X154217809Y-62413000D01*
X154217809Y-62413000D02*
X154074952Y-62460619D01*
X154074952Y-62460619D02*
X153979714Y-62460619D01*
X154789238Y-61555857D02*
X154836857Y-61508238D01*
X154836857Y-61508238D02*
X154932095Y-61460619D01*
X154932095Y-61460619D02*
X155170190Y-61460619D01*
X155170190Y-61460619D02*
X155265428Y-61508238D01*
X155265428Y-61508238D02*
X155313047Y-61555857D01*
X155313047Y-61555857D02*
X155360666Y-61651095D01*
X155360666Y-61651095D02*
X155360666Y-61746333D01*
X155360666Y-61746333D02*
X155313047Y-61889190D01*
X155313047Y-61889190D02*
X154741619Y-62460619D01*
X154741619Y-62460619D02*
X155360666Y-62460619D01*
%TO.C,J6*%
X156610666Y-72450619D02*
X156610666Y-73164904D01*
X156610666Y-73164904D02*
X156563047Y-73307761D01*
X156563047Y-73307761D02*
X156467809Y-73403000D01*
X156467809Y-73403000D02*
X156324952Y-73450619D01*
X156324952Y-73450619D02*
X156229714Y-73450619D01*
X157515428Y-72450619D02*
X157324952Y-72450619D01*
X157324952Y-72450619D02*
X157229714Y-72498238D01*
X157229714Y-72498238D02*
X157182095Y-72545857D01*
X157182095Y-72545857D02*
X157086857Y-72688714D01*
X157086857Y-72688714D02*
X157039238Y-72879190D01*
X157039238Y-72879190D02*
X157039238Y-73260142D01*
X157039238Y-73260142D02*
X157086857Y-73355380D01*
X157086857Y-73355380D02*
X157134476Y-73403000D01*
X157134476Y-73403000D02*
X157229714Y-73450619D01*
X157229714Y-73450619D02*
X157420190Y-73450619D01*
X157420190Y-73450619D02*
X157515428Y-73403000D01*
X157515428Y-73403000D02*
X157563047Y-73355380D01*
X157563047Y-73355380D02*
X157610666Y-73260142D01*
X157610666Y-73260142D02*
X157610666Y-73022047D01*
X157610666Y-73022047D02*
X157563047Y-72926809D01*
X157563047Y-72926809D02*
X157515428Y-72879190D01*
X157515428Y-72879190D02*
X157420190Y-72831571D01*
X157420190Y-72831571D02*
X157229714Y-72831571D01*
X157229714Y-72831571D02*
X157134476Y-72879190D01*
X157134476Y-72879190D02*
X157086857Y-72926809D01*
X157086857Y-72926809D02*
X157039238Y-73022047D01*
%TO.C,RVe1*%
X128181619Y-76021809D02*
X127705428Y-76355142D01*
X128181619Y-76593237D02*
X127181619Y-76593237D01*
X127181619Y-76593237D02*
X127181619Y-76212285D01*
X127181619Y-76212285D02*
X127229238Y-76117047D01*
X127229238Y-76117047D02*
X127276857Y-76069428D01*
X127276857Y-76069428D02*
X127372095Y-76021809D01*
X127372095Y-76021809D02*
X127514952Y-76021809D01*
X127514952Y-76021809D02*
X127610190Y-76069428D01*
X127610190Y-76069428D02*
X127657809Y-76117047D01*
X127657809Y-76117047D02*
X127705428Y-76212285D01*
X127705428Y-76212285D02*
X127705428Y-76593237D01*
X127181619Y-75736094D02*
X128181619Y-75402761D01*
X128181619Y-75402761D02*
X127181619Y-75069428D01*
X128134000Y-74355142D02*
X128181619Y-74450380D01*
X128181619Y-74450380D02*
X128181619Y-74640856D01*
X128181619Y-74640856D02*
X128134000Y-74736094D01*
X128134000Y-74736094D02*
X128038761Y-74783713D01*
X128038761Y-74783713D02*
X127657809Y-74783713D01*
X127657809Y-74783713D02*
X127562571Y-74736094D01*
X127562571Y-74736094D02*
X127514952Y-74640856D01*
X127514952Y-74640856D02*
X127514952Y-74450380D01*
X127514952Y-74450380D02*
X127562571Y-74355142D01*
X127562571Y-74355142D02*
X127657809Y-74307523D01*
X127657809Y-74307523D02*
X127753047Y-74307523D01*
X127753047Y-74307523D02*
X127848285Y-74783713D01*
X128181619Y-73355142D02*
X128181619Y-73926570D01*
X128181619Y-73640856D02*
X127181619Y-73640856D01*
X127181619Y-73640856D02*
X127324476Y-73736094D01*
X127324476Y-73736094D02*
X127419714Y-73831332D01*
X127419714Y-73831332D02*
X127467333Y-73926570D01*
%TO.C,C1*%
X165187333Y-76313380D02*
X165139714Y-76361000D01*
X165139714Y-76361000D02*
X164996857Y-76408619D01*
X164996857Y-76408619D02*
X164901619Y-76408619D01*
X164901619Y-76408619D02*
X164758762Y-76361000D01*
X164758762Y-76361000D02*
X164663524Y-76265761D01*
X164663524Y-76265761D02*
X164615905Y-76170523D01*
X164615905Y-76170523D02*
X164568286Y-75980047D01*
X164568286Y-75980047D02*
X164568286Y-75837190D01*
X164568286Y-75837190D02*
X164615905Y-75646714D01*
X164615905Y-75646714D02*
X164663524Y-75551476D01*
X164663524Y-75551476D02*
X164758762Y-75456238D01*
X164758762Y-75456238D02*
X164901619Y-75408619D01*
X164901619Y-75408619D02*
X164996857Y-75408619D01*
X164996857Y-75408619D02*
X165139714Y-75456238D01*
X165139714Y-75456238D02*
X165187333Y-75503857D01*
X166139714Y-76408619D02*
X165568286Y-76408619D01*
X165854000Y-76408619D02*
X165854000Y-75408619D01*
X165854000Y-75408619D02*
X165758762Y-75551476D01*
X165758762Y-75551476D02*
X165663524Y-75646714D01*
X165663524Y-75646714D02*
X165568286Y-75694333D01*
%TO.C,C4*%
X153401733Y-117664580D02*
X153354114Y-117712200D01*
X153354114Y-117712200D02*
X153211257Y-117759819D01*
X153211257Y-117759819D02*
X153116019Y-117759819D01*
X153116019Y-117759819D02*
X152973162Y-117712200D01*
X152973162Y-117712200D02*
X152877924Y-117616961D01*
X152877924Y-117616961D02*
X152830305Y-117521723D01*
X152830305Y-117521723D02*
X152782686Y-117331247D01*
X152782686Y-117331247D02*
X152782686Y-117188390D01*
X152782686Y-117188390D02*
X152830305Y-116997914D01*
X152830305Y-116997914D02*
X152877924Y-116902676D01*
X152877924Y-116902676D02*
X152973162Y-116807438D01*
X152973162Y-116807438D02*
X153116019Y-116759819D01*
X153116019Y-116759819D02*
X153211257Y-116759819D01*
X153211257Y-116759819D02*
X153354114Y-116807438D01*
X153354114Y-116807438D02*
X153401733Y-116855057D01*
X154258876Y-117093152D02*
X154258876Y-117759819D01*
X154020781Y-116712200D02*
X153782686Y-117426485D01*
X153782686Y-117426485D02*
X154401733Y-117426485D01*
%TO.C,R2*%
X152833333Y-120256619D02*
X152500000Y-119780428D01*
X152261905Y-120256619D02*
X152261905Y-119256619D01*
X152261905Y-119256619D02*
X152642857Y-119256619D01*
X152642857Y-119256619D02*
X152738095Y-119304238D01*
X152738095Y-119304238D02*
X152785714Y-119351857D01*
X152785714Y-119351857D02*
X152833333Y-119447095D01*
X152833333Y-119447095D02*
X152833333Y-119589952D01*
X152833333Y-119589952D02*
X152785714Y-119685190D01*
X152785714Y-119685190D02*
X152738095Y-119732809D01*
X152738095Y-119732809D02*
X152642857Y-119780428D01*
X152642857Y-119780428D02*
X152261905Y-119780428D01*
X153214286Y-119351857D02*
X153261905Y-119304238D01*
X153261905Y-119304238D02*
X153357143Y-119256619D01*
X153357143Y-119256619D02*
X153595238Y-119256619D01*
X153595238Y-119256619D02*
X153690476Y-119304238D01*
X153690476Y-119304238D02*
X153738095Y-119351857D01*
X153738095Y-119351857D02*
X153785714Y-119447095D01*
X153785714Y-119447095D02*
X153785714Y-119542333D01*
X153785714Y-119542333D02*
X153738095Y-119685190D01*
X153738095Y-119685190D02*
X153166667Y-120256619D01*
X153166667Y-120256619D02*
X153785714Y-120256619D01*
%TO.C,R1*%
X159853333Y-76408619D02*
X159520000Y-75932428D01*
X159281905Y-76408619D02*
X159281905Y-75408619D01*
X159281905Y-75408619D02*
X159662857Y-75408619D01*
X159662857Y-75408619D02*
X159758095Y-75456238D01*
X159758095Y-75456238D02*
X159805714Y-75503857D01*
X159805714Y-75503857D02*
X159853333Y-75599095D01*
X159853333Y-75599095D02*
X159853333Y-75741952D01*
X159853333Y-75741952D02*
X159805714Y-75837190D01*
X159805714Y-75837190D02*
X159758095Y-75884809D01*
X159758095Y-75884809D02*
X159662857Y-75932428D01*
X159662857Y-75932428D02*
X159281905Y-75932428D01*
X160805714Y-76408619D02*
X160234286Y-76408619D01*
X160520000Y-76408619D02*
X160520000Y-75408619D01*
X160520000Y-75408619D02*
X160424762Y-75551476D01*
X160424762Y-75551476D02*
X160329524Y-75646714D01*
X160329524Y-75646714D02*
X160234286Y-75694333D01*
%TO.C,C2*%
X160869333Y-72027380D02*
X160821714Y-72075000D01*
X160821714Y-72075000D02*
X160678857Y-72122619D01*
X160678857Y-72122619D02*
X160583619Y-72122619D01*
X160583619Y-72122619D02*
X160440762Y-72075000D01*
X160440762Y-72075000D02*
X160345524Y-71979761D01*
X160345524Y-71979761D02*
X160297905Y-71884523D01*
X160297905Y-71884523D02*
X160250286Y-71694047D01*
X160250286Y-71694047D02*
X160250286Y-71551190D01*
X160250286Y-71551190D02*
X160297905Y-71360714D01*
X160297905Y-71360714D02*
X160345524Y-71265476D01*
X160345524Y-71265476D02*
X160440762Y-71170238D01*
X160440762Y-71170238D02*
X160583619Y-71122619D01*
X160583619Y-71122619D02*
X160678857Y-71122619D01*
X160678857Y-71122619D02*
X160821714Y-71170238D01*
X160821714Y-71170238D02*
X160869333Y-71217857D01*
X161250286Y-71217857D02*
X161297905Y-71170238D01*
X161297905Y-71170238D02*
X161393143Y-71122619D01*
X161393143Y-71122619D02*
X161631238Y-71122619D01*
X161631238Y-71122619D02*
X161726476Y-71170238D01*
X161726476Y-71170238D02*
X161774095Y-71217857D01*
X161774095Y-71217857D02*
X161821714Y-71313095D01*
X161821714Y-71313095D02*
X161821714Y-71408333D01*
X161821714Y-71408333D02*
X161774095Y-71551190D01*
X161774095Y-71551190D02*
X161202667Y-72122619D01*
X161202667Y-72122619D02*
X161821714Y-72122619D01*
%TO.C,C3*%
X155833333Y-120161380D02*
X155785714Y-120209000D01*
X155785714Y-120209000D02*
X155642857Y-120256619D01*
X155642857Y-120256619D02*
X155547619Y-120256619D01*
X155547619Y-120256619D02*
X155404762Y-120209000D01*
X155404762Y-120209000D02*
X155309524Y-120113761D01*
X155309524Y-120113761D02*
X155261905Y-120018523D01*
X155261905Y-120018523D02*
X155214286Y-119828047D01*
X155214286Y-119828047D02*
X155214286Y-119685190D01*
X155214286Y-119685190D02*
X155261905Y-119494714D01*
X155261905Y-119494714D02*
X155309524Y-119399476D01*
X155309524Y-119399476D02*
X155404762Y-119304238D01*
X155404762Y-119304238D02*
X155547619Y-119256619D01*
X155547619Y-119256619D02*
X155642857Y-119256619D01*
X155642857Y-119256619D02*
X155785714Y-119304238D01*
X155785714Y-119304238D02*
X155833333Y-119351857D01*
X156166667Y-119256619D02*
X156785714Y-119256619D01*
X156785714Y-119256619D02*
X156452381Y-119637571D01*
X156452381Y-119637571D02*
X156595238Y-119637571D01*
X156595238Y-119637571D02*
X156690476Y-119685190D01*
X156690476Y-119685190D02*
X156738095Y-119732809D01*
X156738095Y-119732809D02*
X156785714Y-119828047D01*
X156785714Y-119828047D02*
X156785714Y-120066142D01*
X156785714Y-120066142D02*
X156738095Y-120161380D01*
X156738095Y-120161380D02*
X156690476Y-120209000D01*
X156690476Y-120209000D02*
X156595238Y-120256619D01*
X156595238Y-120256619D02*
X156309524Y-120256619D01*
X156309524Y-120256619D02*
X156214286Y-120209000D01*
X156214286Y-120209000D02*
X156166667Y-120161380D01*
%TO.C,C5*%
X119314000Y-70618000D02*
X119314000Y-65378000D01*
X119314000Y-70618000D02*
X106074000Y-70618000D01*
X119314000Y-65378000D02*
X106074000Y-65378000D01*
X106074000Y-70618000D02*
X106074000Y-65378000D01*
D11*
%TO.C,J8*%
X164525000Y-115328000D02*
X163195000Y-115328000D01*
X164525000Y-113998000D02*
X164525000Y-115328000D01*
X164525000Y-112728000D02*
X164525000Y-105048000D01*
X164525000Y-112728000D02*
X161865000Y-112728000D01*
X164525000Y-105048000D02*
X161865000Y-105048000D01*
X161865000Y-112728000D02*
X161865000Y-105048000D01*
%TO.C,U1*%
X166264000Y-82998000D02*
X159514000Y-82998000D01*
X166264000Y-82998000D02*
X166264000Y-100998000D01*
X141514000Y-82998000D02*
X140764000Y-82998000D01*
X140764000Y-82998000D02*
X140764000Y-83748000D01*
X140764000Y-83748000D02*
X140764000Y-85498000D01*
X140764000Y-100248000D02*
X140764000Y-98498000D01*
X166264000Y-100998000D02*
X159514000Y-100998000D01*
X160324000Y-100998000D02*
X160324000Y-82998000D01*
X141514000Y-100998000D02*
X140764000Y-100998000D01*
X140764000Y-100998000D02*
X140764000Y-100248000D01*
%TO.C,SW2*%
X164750000Y-120998000D02*
X164750000Y-122998000D01*
X163700000Y-124298000D02*
X163250000Y-124748000D01*
X163700000Y-119698000D02*
X163250000Y-119248000D01*
X160750000Y-124748000D02*
X163250000Y-124748000D01*
X160750000Y-119248000D02*
X163250000Y-119248000D01*
X160300000Y-124298000D02*
X160750000Y-124748000D01*
X160300000Y-119698000D02*
X160750000Y-119248000D01*
X159250000Y-120998000D02*
X159250000Y-122998000D01*
D10*
%TO.C,J3*%
X132364000Y-112728000D02*
X132364000Y-105048000D01*
X135024000Y-105048000D02*
X132364000Y-105048000D01*
X135024000Y-112728000D02*
X132364000Y-112728000D01*
X135024000Y-112728000D02*
X135024000Y-105048000D01*
X135024000Y-113998000D02*
X135024000Y-115328000D01*
X135024000Y-115328000D02*
X133694000Y-115328000D01*
D11*
%TO.C,U2*%
X132136500Y-101098000D02*
X132536500Y-101098000D01*
X132136500Y-101098000D02*
X132136500Y-72898000D01*
X137336500Y-101098000D02*
X134536500Y-101098000D01*
X131936500Y-95148000D02*
X131936500Y-97148000D01*
X132136500Y-72898000D02*
X137336500Y-72898000D01*
X137336500Y-72898000D02*
X137336500Y-101098000D01*
D10*
%TO.C,J5*%
X143024000Y-115328000D02*
X141694000Y-115328000D01*
X143024000Y-113998000D02*
X143024000Y-115328000D01*
X143024000Y-112728000D02*
X143024000Y-105048000D01*
X143024000Y-112728000D02*
X140364000Y-112728000D01*
X143024000Y-105048000D02*
X140364000Y-105048000D01*
X140364000Y-112728000D02*
X140364000Y-105048000D01*
%TO.C,F1*%
X118712000Y-53603000D02*
X148176000Y-53603000D01*
X118712000Y-63423000D02*
X118712000Y-53603000D01*
X118712000Y-63423000D02*
X148176000Y-63423000D01*
X148176000Y-63423000D02*
X148176000Y-53603000D01*
D12*
%TO.C,PS1*%
X121494000Y-87698000D02*
G75*
G03*
X121494000Y-87698000I-100000J0D01*
G01*
D13*
X106694000Y-126498000D02*
X129694000Y-126498000D01*
X129694000Y-126498000D02*
X129694000Y-88498000D01*
X106694000Y-88498000D02*
X106694000Y-126498000D01*
X129694000Y-88498000D02*
X106694000Y-88498000D01*
D10*
%TO.C,J1*%
X117504000Y-63454000D02*
X117504000Y-53533000D01*
X117504000Y-63454000D02*
X107384000Y-63454000D01*
X117504000Y-60494000D02*
X107384000Y-60494000D01*
X117504000Y-55593000D02*
X107384000Y-55593000D01*
X117504000Y-54093000D02*
X107384000Y-54093000D01*
X117504000Y-53533000D02*
X107384000Y-53533000D01*
X107384000Y-63454000D02*
X107384000Y-53533000D01*
X116478999Y-58876999D02*
G75*
G03*
X116479426Y-57509958I-1534992J684000D01*
G01*
X114260001Y-59727999D02*
G75*
G03*
X115627042Y-59728426I684000J1534992D01*
G01*
X115628000Y-56658001D02*
G75*
G03*
X114915195Y-56512748I-683999J-1535000D01*
G01*
X114944000Y-56513001D02*
G75*
G03*
X114260682Y-56658245I0J-1679999D01*
G01*
X113409001Y-57509001D02*
G75*
G03*
X113408574Y-58876042I1535003J-684000D01*
G01*
X111624000Y-58193000D02*
G75*
G03*
X111624000Y-58193000I-1680000J0D01*
G01*
%TO.C,J4*%
X139024000Y-115328000D02*
X137694000Y-115328000D01*
X139024000Y-113998000D02*
X139024000Y-115328000D01*
X139024000Y-112728000D02*
X139024000Y-105048000D01*
X139024000Y-112728000D02*
X136364000Y-112728000D01*
X139024000Y-105048000D02*
X136364000Y-105048000D01*
X136364000Y-112728000D02*
X136364000Y-105048000D01*
D11*
%TO.C,SW1*%
X148750000Y-120998000D02*
X148750000Y-122998000D01*
X147700000Y-124298000D02*
X147250000Y-124748000D01*
X147700000Y-119698000D02*
X147250000Y-119248000D01*
X144750000Y-124748000D02*
X147250000Y-124748000D01*
X144750000Y-119248000D02*
X147250000Y-119248000D01*
X144300000Y-124298000D02*
X144750000Y-124748000D01*
X144300000Y-119698000D02*
X144750000Y-119248000D01*
X143250000Y-120998000D02*
X143250000Y-122998000D01*
D10*
%TO.C,C6*%
X139209000Y-122428000D02*
G75*
G03*
X139209000Y-122428000I-4120000J0D01*
G01*
D11*
X131008000Y-122961000D02*
X131008000Y-121895000D01*
X131048000Y-123196000D02*
X131048000Y-121660000D01*
X131088000Y-123376000D02*
X131088000Y-121480000D01*
X131128000Y-123526000D02*
X131128000Y-121330000D01*
X131168000Y-123657000D02*
X131168000Y-121199000D01*
X131208000Y-123774000D02*
X131208000Y-121082000D01*
X131248000Y-123881000D02*
X131248000Y-120975000D01*
X131288000Y-123980000D02*
X131288000Y-120876000D01*
X131328000Y-124073000D02*
X131328000Y-120783000D01*
X131368000Y-124159000D02*
X131368000Y-120697000D01*
X131408000Y-124241000D02*
X131408000Y-120615000D01*
X131448000Y-124318000D02*
X131448000Y-120538000D01*
X131488000Y-124392000D02*
X131488000Y-120464000D01*
X131528000Y-124462000D02*
X131528000Y-120394000D01*
X131568000Y-121388000D02*
X131568000Y-120326000D01*
X131568000Y-124530000D02*
X131568000Y-123468000D01*
X131608000Y-121388000D02*
X131608000Y-120262000D01*
X131608000Y-124594000D02*
X131608000Y-123468000D01*
X131648000Y-121388000D02*
X131648000Y-120200000D01*
X131648000Y-124656000D02*
X131648000Y-123468000D01*
X131688000Y-121388000D02*
X131688000Y-120141000D01*
X131688000Y-124715000D02*
X131688000Y-123468000D01*
X131728000Y-121388000D02*
X131728000Y-120083000D01*
X131728000Y-124773000D02*
X131728000Y-123468000D01*
X131768000Y-121388000D02*
X131768000Y-120028000D01*
X131768000Y-124828000D02*
X131768000Y-123468000D01*
X131808000Y-121388000D02*
X131808000Y-119974000D01*
X131808000Y-124882000D02*
X131808000Y-123468000D01*
X131848000Y-121388000D02*
X131848000Y-119923000D01*
X131848000Y-124933000D02*
X131848000Y-123468000D01*
X131888000Y-121388000D02*
X131888000Y-119872000D01*
X131888000Y-124984000D02*
X131888000Y-123468000D01*
X131928000Y-121388000D02*
X131928000Y-119824000D01*
X131928000Y-125032000D02*
X131928000Y-123468000D01*
X131968000Y-121388000D02*
X131968000Y-119777000D01*
X131968000Y-125079000D02*
X131968000Y-123468000D01*
X132008000Y-121388000D02*
X132008000Y-119731000D01*
X132008000Y-125125000D02*
X132008000Y-123468000D01*
X132048000Y-121388000D02*
X132048000Y-119687000D01*
X132048000Y-125169000D02*
X132048000Y-123468000D01*
X132088000Y-121388000D02*
X132088000Y-119644000D01*
X132088000Y-125212000D02*
X132088000Y-123468000D01*
X132128000Y-121388000D02*
X132128000Y-119602000D01*
X132128000Y-125254000D02*
X132128000Y-123468000D01*
X132168000Y-121388000D02*
X132168000Y-119561000D01*
X132168000Y-125295000D02*
X132168000Y-123468000D01*
X132208000Y-121388000D02*
X132208000Y-119521000D01*
X132208000Y-125335000D02*
X132208000Y-123468000D01*
X132248000Y-121388000D02*
X132248000Y-119483000D01*
X132248000Y-125373000D02*
X132248000Y-123468000D01*
X132288000Y-121388000D02*
X132288000Y-119445000D01*
X132288000Y-125411000D02*
X132288000Y-123468000D01*
X132328000Y-121388000D02*
X132328000Y-119409000D01*
X132328000Y-125447000D02*
X132328000Y-123468000D01*
X132368000Y-121388000D02*
X132368000Y-119373000D01*
X132368000Y-125483000D02*
X132368000Y-123468000D01*
X132408000Y-121388000D02*
X132408000Y-119338000D01*
X132408000Y-125518000D02*
X132408000Y-123468000D01*
X132448000Y-121388000D02*
X132448000Y-119304000D01*
X132448000Y-125552000D02*
X132448000Y-123468000D01*
X132488000Y-121388000D02*
X132488000Y-119272000D01*
X132488000Y-125584000D02*
X132488000Y-123468000D01*
X132528000Y-121388000D02*
X132528000Y-119239000D01*
X132528000Y-125617000D02*
X132528000Y-123468000D01*
X132568000Y-121388000D02*
X132568000Y-119208000D01*
X132568000Y-125648000D02*
X132568000Y-123468000D01*
X132608000Y-121388000D02*
X132608000Y-119178000D01*
X132608000Y-125678000D02*
X132608000Y-123468000D01*
X132648000Y-121388000D02*
X132648000Y-119148000D01*
X132648000Y-125708000D02*
X132648000Y-123468000D01*
X132688000Y-121388000D02*
X132688000Y-119119000D01*
X132688000Y-125737000D02*
X132688000Y-123468000D01*
X132728000Y-121388000D02*
X132728000Y-119090000D01*
X132728000Y-125766000D02*
X132728000Y-123468000D01*
X132768000Y-121388000D02*
X132768000Y-119063000D01*
X132768000Y-125793000D02*
X132768000Y-123468000D01*
X132808000Y-121388000D02*
X132808000Y-119036000D01*
X132808000Y-125820000D02*
X132808000Y-123468000D01*
X132848000Y-121388000D02*
X132848000Y-119010000D01*
X132848000Y-125846000D02*
X132848000Y-123468000D01*
X132888000Y-121388000D02*
X132888000Y-118984000D01*
X132888000Y-125872000D02*
X132888000Y-123468000D01*
X132928000Y-121388000D02*
X132928000Y-118959000D01*
X132928000Y-125897000D02*
X132928000Y-123468000D01*
X132968000Y-121388000D02*
X132968000Y-118935000D01*
X132968000Y-125921000D02*
X132968000Y-123468000D01*
X133008000Y-121388000D02*
X133008000Y-118911000D01*
X133008000Y-125945000D02*
X133008000Y-123468000D01*
X133048000Y-121388000D02*
X133048000Y-118888000D01*
X133048000Y-125968000D02*
X133048000Y-123468000D01*
X133088000Y-121388000D02*
X133088000Y-118866000D01*
X133088000Y-125990000D02*
X133088000Y-123468000D01*
X133128000Y-121388000D02*
X133128000Y-118844000D01*
X133128000Y-126012000D02*
X133128000Y-123468000D01*
X133168000Y-121388000D02*
X133168000Y-118822000D01*
X133168000Y-126034000D02*
X133168000Y-123468000D01*
X133208000Y-121388000D02*
X133208000Y-118801000D01*
X133208000Y-126055000D02*
X133208000Y-123468000D01*
X133248000Y-121388000D02*
X133248000Y-118781000D01*
X133248000Y-126075000D02*
X133248000Y-123468000D01*
X133288000Y-121388000D02*
X133288000Y-118762000D01*
X133288000Y-126094000D02*
X133288000Y-123468000D01*
X133328000Y-121388000D02*
X133328000Y-118742000D01*
X133328000Y-126114000D02*
X133328000Y-123468000D01*
X133368000Y-121388000D02*
X133368000Y-118724000D01*
X133368000Y-126132000D02*
X133368000Y-123468000D01*
X133408000Y-121388000D02*
X133408000Y-118706000D01*
X133408000Y-126150000D02*
X133408000Y-123468000D01*
X133448000Y-121388000D02*
X133448000Y-118688000D01*
X133448000Y-126168000D02*
X133448000Y-123468000D01*
X133488000Y-121388000D02*
X133488000Y-118671000D01*
X133488000Y-126185000D02*
X133488000Y-123468000D01*
X133528000Y-121388000D02*
X133528000Y-118654000D01*
X133528000Y-126202000D02*
X133528000Y-123468000D01*
X133568000Y-121388000D02*
X133568000Y-118638000D01*
X133568000Y-126218000D02*
X133568000Y-123468000D01*
X133608000Y-121388000D02*
X133608000Y-118623000D01*
X133608000Y-126233000D02*
X133608000Y-123468000D01*
X133648000Y-126249000D02*
X133648000Y-118607000D01*
X133688000Y-126263000D02*
X133688000Y-118593000D01*
X133728000Y-126278000D02*
X133728000Y-118578000D01*
X133768000Y-126291000D02*
X133768000Y-118565000D01*
X133808000Y-126305000D02*
X133808000Y-118551000D01*
X133848000Y-126317000D02*
X133848000Y-118539000D01*
X133888000Y-126330000D02*
X133888000Y-118526000D01*
X133928000Y-126342000D02*
X133928000Y-118514000D01*
X133968000Y-126353000D02*
X133968000Y-118503000D01*
X134008000Y-126364000D02*
X134008000Y-118492000D01*
X134048000Y-126375000D02*
X134048000Y-118481000D01*
X134088000Y-126385000D02*
X134088000Y-118471000D01*
X134128000Y-126395000D02*
X134128000Y-118461000D01*
X134168000Y-126404000D02*
X134168000Y-118452000D01*
X134208000Y-126413000D02*
X134208000Y-118443000D01*
X134248000Y-126422000D02*
X134248000Y-118434000D01*
X134288000Y-126430000D02*
X134288000Y-118426000D01*
X134328000Y-126438000D02*
X134328000Y-118418000D01*
X134368000Y-126445000D02*
X134368000Y-118411000D01*
X134409000Y-126452000D02*
X134409000Y-118404000D01*
X134449000Y-126458000D02*
X134449000Y-118398000D01*
X134489000Y-126465000D02*
X134489000Y-118391000D01*
X134529000Y-126470000D02*
X134529000Y-118386000D01*
X134569000Y-126476000D02*
X134569000Y-118380000D01*
X134609000Y-126480000D02*
X134609000Y-118376000D01*
X134649000Y-126485000D02*
X134649000Y-118371000D01*
X134689000Y-126489000D02*
X134689000Y-118367000D01*
X134729000Y-126493000D02*
X134729000Y-118363000D01*
X134769000Y-126496000D02*
X134769000Y-118360000D01*
X134809000Y-126499000D02*
X134809000Y-118357000D01*
X134849000Y-126502000D02*
X134849000Y-118354000D01*
X134889000Y-126504000D02*
X134889000Y-118352000D01*
X134929000Y-126505000D02*
X134929000Y-118351000D01*
X134969000Y-126507000D02*
X134969000Y-118349000D01*
X135009000Y-126508000D02*
X135009000Y-118348000D01*
X135049000Y-126508000D02*
X135049000Y-118348000D01*
X135089000Y-126508000D02*
X135089000Y-118348000D01*
D10*
X139983000Y-125622000D02*
X139983000Y-124822000D01*
X140383000Y-125222000D02*
X139583000Y-125222000D01*
%TO.C,FL1*%
X123323000Y-86325750D02*
X123323000Y-71790750D01*
X123323000Y-86325750D02*
X106096000Y-86325750D01*
X123323000Y-71670250D02*
X106071000Y-71670250D01*
X116408500Y-74584750D02*
X119393000Y-74584750D01*
X116345000Y-83728750D02*
X119393000Y-83728750D01*
X114821000Y-74584750D02*
X114821000Y-83474750D01*
X114313000Y-83474750D02*
X114313000Y-74584750D01*
X112789000Y-83728750D02*
X109995000Y-83728750D01*
X112725500Y-74584750D02*
X109995000Y-74584750D01*
X106065000Y-86325750D02*
X106065000Y-71657750D01*
X116345000Y-82204750D02*
G75*
G03*
X116345000Y-83728750I0J-762000D01*
G01*
X116345000Y-80680750D02*
G75*
G03*
X116345000Y-82204750I0J-762000D01*
G01*
X116345000Y-79156750D02*
G75*
G03*
X116345000Y-80680750I0J-762000D01*
G01*
X116345000Y-77632750D02*
G75*
G03*
X116345000Y-79156750I0J-762000D01*
G01*
X116345000Y-76108750D02*
G75*
G03*
X116345000Y-77632750I0J-762000D01*
G01*
X116345000Y-74584750D02*
G75*
G03*
X116345000Y-76108750I0J-762000D01*
G01*
X112789000Y-83728750D02*
G75*
G03*
X112789000Y-82204750I0J762000D01*
G01*
X112789000Y-82204750D02*
G75*
G03*
X112789000Y-80680750I0J762000D01*
G01*
X112789000Y-80680750D02*
G75*
G03*
X112789000Y-79156750I0J762000D01*
G01*
X112789000Y-79156750D02*
G75*
G03*
X112789000Y-77632750I0J762000D01*
G01*
X112789000Y-77632750D02*
G75*
G03*
X112789000Y-76108750I0J762000D01*
G01*
X112789000Y-76108750D02*
G75*
G03*
X112789000Y-74584750I0J762000D01*
G01*
D14*
X115683000Y-84363750D02*
G75*
G03*
X115683000Y-84363750I-100000J0D01*
G01*
X113651000Y-84363750D02*
G75*
G03*
X113651000Y-84363750I-100000J0D01*
G01*
D10*
%TO.C,J2*%
X160004000Y-63454000D02*
X160004000Y-53533000D01*
X160004000Y-63454000D02*
X149884000Y-63454000D01*
X160004000Y-60494000D02*
X149884000Y-60494000D01*
X160004000Y-55593000D02*
X149884000Y-55593000D01*
X160004000Y-54093000D02*
X149884000Y-54093000D01*
X160004000Y-53533000D02*
X149884000Y-53533000D01*
X149884000Y-63454000D02*
X149884000Y-53533000D01*
X158979000Y-58877000D02*
G75*
G03*
X158979426Y-57509958I-1535000J684000D01*
G01*
X156760000Y-59728000D02*
G75*
G03*
X158127042Y-59728427I684000J1534990D01*
G01*
X158128000Y-56658001D02*
G75*
G03*
X157415195Y-56512748I-684000J-1534999D01*
G01*
X157444000Y-56513001D02*
G75*
G03*
X156760682Y-56658245I0J-1679999D01*
G01*
X155909000Y-57509000D02*
G75*
G03*
X155908574Y-58876042I1535000J-684000D01*
G01*
X154124000Y-58193000D02*
G75*
G03*
X154124000Y-58193000I-1680000J0D01*
G01*
%TO.C,J6*%
X152614000Y-66498000D02*
X153944000Y-66498000D01*
X152614000Y-67828000D02*
X152614000Y-66498000D01*
X152614000Y-69098000D02*
X152614000Y-79318000D01*
X152614000Y-69098000D02*
X155274000Y-69098000D01*
X152614000Y-79318000D02*
X155274000Y-79318000D01*
X155274000Y-69098000D02*
X155274000Y-79318000D01*
%TO.C,RVe1*%
X130119000Y-64248000D02*
X125319000Y-64248000D01*
X130119000Y-64248000D02*
X130119000Y-85748000D01*
X125319000Y-64248000D02*
X125319000Y-85748000D01*
X130119000Y-85748000D02*
X125319000Y-85748000D01*
D11*
%TO.C,C1*%
X164444000Y-79705252D02*
X164444000Y-78282748D01*
X166264000Y-79705252D02*
X166264000Y-78282748D01*
%TO.C,C4*%
X150571252Y-116387200D02*
X149148748Y-116387200D01*
X150571252Y-118207200D02*
X149148748Y-118207200D01*
%TO.C,R2*%
X153910000Y-123521064D02*
X153910000Y-122066936D01*
X152090000Y-123521064D02*
X152090000Y-122066936D01*
%TO.C,R1*%
X160930000Y-79721064D02*
X160930000Y-78266936D01*
X159110000Y-79721064D02*
X159110000Y-78266936D01*
%TO.C,C2*%
X161747252Y-72750000D02*
X160324748Y-72750000D01*
X161747252Y-74570000D02*
X160324748Y-74570000D01*
%TO.C,C3*%
X156910000Y-122082748D02*
X156910000Y-123505252D01*
X155090000Y-122082748D02*
X155090000Y-123505252D01*
%TD*%
D15*
X105664000Y-126238000D02*
G75*
G03*
X105664000Y-126238000I-1524000J0D01*
G01*
X101600000Y-50934000D02*
X170976000Y-50934000D01*
X170976000Y-128778000D01*
X101600000Y-128778000D01*
X101600000Y-50934000D01*
X105664000Y-53594000D02*
G75*
G03*
X105664000Y-53594000I-1524000J0D01*
G01*
X169926000Y-126238000D02*
G75*
G03*
X169926000Y-126238000I-1524000J0D01*
G01*
X169926000Y-53594000D02*
G75*
G03*
X169926000Y-53594000I-1524000J0D01*
G01*
M02*
