M48
; DRILL file {KiCad 7.0.2-6a45011f42~172~ubuntu22.10.1} date Пт 26 мая 2023 16:24:25
; FORMAT={-:-/ absolute / inch / decimal}
; #@! TF.CreationDate,2023-05-26T16:24:25+05:00
; #@! TF.GenerationSoftware,Kicad,Pcbnew,7.0.2-6a45011f42~172~ubuntu22.10.1
; #@! TF.FileFunction,Plated,1,2,PTH
FMAT,2
INCH
; #@! TA.AperFunction,Plated,PTH,ComponentDrill
T1C0.0394
; #@! TA.AperFunction,Plated,PTH,ComponentDrill
T2C0.0512
; #@! TA.AperFunction,Plated,PTH,ComponentDrill
T3C0.0591
; #@! TA.AperFunction,Plated,PTH,ComponentDrill
T4C0.0787
%
G90
G05
T1
X4.2872Y-4.7817
X4.2891Y-2.6163
X4.3069Y-3.945
X4.3069Y-4.1813
X4.3872Y-4.7817
X4.4872Y-4.7817
X4.5872Y-4.7817
X4.6828Y-2.6163
X4.7399Y-4.7817
X4.8399Y-4.7817
X4.9399Y-4.7817
X5.0399Y-4.7817
X5.1135Y-2.888
X5.1135Y-2.988
X5.1135Y-3.388
X5.1159Y-2.5681
X5.1946Y-4.7817
X5.2946Y-4.7817
X5.3946Y-4.7817
X5.4135Y-2.888
X5.4135Y-2.988
X5.4135Y-3.388
X5.4946Y-4.7817
X5.5096Y-2.6448
X5.6297Y-3.7088
X5.6297Y-4.4175
X5.6769Y-3.2462
X5.8738Y-3.2462
X6.063Y-2.893
X6.063Y-2.993
X6.063Y-3.093
X6.063Y-3.193
X6.063Y-3.293
X6.063Y-3.393
X6.063Y-3.493
X6.063Y-3.593
X6.063Y-3.693
X6.063Y-3.793
X6.063Y-3.893
X6.063Y-3.993
X6.063Y-4.093
X6.063Y-4.193
X6.063Y-4.293
X6.5446Y-2.0946
X6.6446Y-2.0946
X6.7446Y-2.0946
X6.8446Y-2.0946
X6.9446Y-2.0946
X7.063Y-2.893
X7.063Y-2.993
X7.063Y-3.093
X7.063Y-3.193
X7.063Y-3.293
X7.063Y-3.393
X7.063Y-3.493
X7.063Y-3.593
X7.063Y-3.693
X7.063Y-3.793
X7.063Y-3.893
X7.063Y-3.993
X7.063Y-4.093
X7.063Y-4.193
X7.063Y-4.293
T2
X4.3285Y-2.1811
X4.5254Y-2.1811
X6.0017Y-2.1811
X6.1986Y-2.1811
T3
X4.3106Y-2.9737
X4.3106Y-3.3637
X4.8206Y-2.9737
X4.8206Y-3.3637
T4
X4.7837Y-2.1937
X5.7337Y-2.1937
T0
M30
