M48
; DRILL file {KiCad 7.0.2-6a45011f42~172~ubuntu22.10.1} date Вт 15 авг 2023 16:25:08
; FORMAT={-:-/ absolute / inch / decimal}
; #@! TF.CreationDate,2023-08-15T16:25:08+05:00
; #@! TF.GenerationSoftware,Kicad,Pcbnew,7.0.2-6a45011f42~172~ubuntu22.10.1
; #@! TF.FileFunction,Plated,1,2,PTH
FMAT,2
INCH
; #@! TA.AperFunction,Plated,PTH,ViaDrill
T1C0.0157
; #@! TA.AperFunction,Plated,PTH,ComponentDrill
T2C0.0394
; #@! TA.AperFunction,Plated,PTH,ComponentDrill
T3C0.0512
; #@! TA.AperFunction,Plated,PTH,ComponentDrill
T4C0.0591
; #@! TA.AperFunction,Plated,PTH,ComponentDrill
T5C0.0787
%
G90
G05
T1
X6.0Y-3.85
X6.14Y-4.635
X6.15Y-3.85
X6.152Y-3.368
T2
X4.2399Y-2.6771
X4.299Y-4.8936
X4.5352Y-3.5708
X4.6336Y-2.6771
X4.7714Y-3.5708
X4.9899Y-3.1495
X5.0076Y-4.8936
X5.0667Y-2.7558
X5.22Y-4.82
X5.2635Y-4.1881
X5.2635Y-4.2881
X5.2635Y-4.3881
X5.2635Y-4.4881
X5.4169Y-4.82
X5.421Y-4.1881
X5.421Y-4.2881
X5.421Y-4.3881
X5.421Y-4.4881
X5.5785Y-4.1881
X5.5785Y-4.2881
X5.5785Y-4.3881
X5.5785Y-4.4881
X6.0608Y-2.6704
X6.0608Y-2.7704
X6.0608Y-2.8704
X6.0608Y-2.9704
X6.0608Y-3.0704
X6.425Y-4.1881
X6.425Y-4.2881
X6.425Y-4.3881
X6.425Y-4.4881
T3
X4.3285Y-2.2911
X4.5254Y-2.2911
X5.2573Y-2.9487
X5.2573Y-3.1456
X5.2573Y-3.7854
X5.2573Y-3.933
X6.0017Y-2.2911
X6.1986Y-2.2911
T4
X4.2605Y-2.9164
X4.2605Y-3.3064
X4.7705Y-2.9164
X4.7705Y-3.3064
T5
X4.7837Y-2.3037
X5.7337Y-2.3037
T0
M30
