%TF.GenerationSoftware,KiCad,Pcbnew,7.0.2-6a45011f42~172~ubuntu22.10.1*%
%TF.CreationDate,2023-08-16T11:39:28+05:00*%
%TF.ProjectId,IOTV,494f5456-2e6b-4696-9361-645f70636258,3*%
%TF.SameCoordinates,Original*%
%TF.FileFunction,Soldermask,Bot*%
%TF.FilePolarity,Negative*%
%FSLAX46Y46*%
G04 Gerber Fmt 4.6, Leading zero omitted, Abs format (unit mm)*
G04 Created by KiCad (PCBNEW 7.0.2-6a45011f42~172~ubuntu22.10.1) date 2023-08-16 11:39:28*
%MOMM*%
%LPD*%
G01*
G04 APERTURE LIST*
G04 Aperture macros list*
%AMRoundRect*
0 Rectangle with rounded corners*
0 $1 Rounding radius*
0 $2 $3 $4 $5 $6 $7 $8 $9 X,Y pos of 4 corners*
0 Add a 4 corners polygon primitive as box body*
4,1,4,$2,$3,$4,$5,$6,$7,$8,$9,$2,$3,0*
0 Add four circle primitives for the rounded corners*
1,1,$1+$1,$2,$3*
1,1,$1+$1,$4,$5*
1,1,$1+$1,$6,$7*
1,1,$1+$1,$8,$9*
0 Add four rect primitives between the rounded corners*
20,1,$1+$1,$2,$3,$4,$5,0*
20,1,$1+$1,$4,$5,$6,$7,0*
20,1,$1+$1,$6,$7,$8,$9,0*
20,1,$1+$1,$8,$9,$2,$3,0*%
%AMFreePoly0*
4,1,18,0.843072,1.985355,1.985355,0.843072,2.000000,0.807717,2.000000,-0.807717,1.985355,-0.843072,0.843072,-1.985355,0.807717,-2.000000,0.000000,-2.000000,-0.807717,-2.000000,-0.843072,-1.985354,-1.985355,-0.843072,-2.000000,-0.807717,-2.000000,0.807717,-1.985354,0.843072,-0.843072,1.985355,-0.807717,2.000000,0.807717,2.000000,0.843072,1.985355,0.843072,1.985355,$1*%
G04 Aperture macros list end*
%ADD10C,2.000000*%
%ADD11R,1.700000X1.700000*%
%ADD12O,1.700000X1.700000*%
%ADD13C,2.500000*%
%ADD14C,4.000000*%
%ADD15FreePoly0,0.000000*%
%ADD16R,1.500000X1.500000*%
%ADD17C,1.500000*%
%ADD18R,2.600000X2.600000*%
%ADD19C,2.600000*%
%ADD20C,1.700000*%
%ADD21R,3.000000X3.000000*%
%ADD22C,3.000000*%
%ADD23RoundRect,0.250000X0.650000X-0.325000X0.650000X0.325000X-0.650000X0.325000X-0.650000X-0.325000X0*%
%ADD24RoundRect,0.250000X-0.625000X0.312500X-0.625000X-0.312500X0.625000X-0.312500X0.625000X0.312500X0*%
%ADD25RoundRect,0.250000X-0.650000X0.325000X-0.650000X-0.325000X0.650000X-0.325000X0.650000X0.325000X0*%
%TA.AperFunction,Profile*%
%ADD26C,0.150000*%
%TD*%
G04 APERTURE END LIST*
D10*
%TO.C,C5*%
X117694000Y-67998000D03*
X107694000Y-67998000D03*
%TD*%
D11*
%TO.C,J8*%
X150693000Y-79454000D03*
D12*
X150693000Y-76914000D03*
X150693000Y-74374000D03*
X150693000Y-71834000D03*
%TD*%
D11*
%TO.C,J3*%
X134025000Y-102680000D03*
D12*
X136565000Y-102680000D03*
X139105000Y-102680000D03*
X141645000Y-102680000D03*
%TD*%
D13*
%TO.C,U2*%
X137820400Y-71602600D03*
X137820400Y-79095600D03*
X137820400Y-85572600D03*
X137820400Y-90652600D03*
%TD*%
D11*
%TO.C,J5*%
X134025000Y-110680000D03*
D12*
X136565000Y-110680000D03*
X139105000Y-110680000D03*
X141645000Y-110680000D03*
%TD*%
D14*
%TO.C,F1*%
X121506000Y-58513000D03*
D15*
X145636000Y-58513000D03*
%TD*%
D16*
%TO.C,PS1*%
X121265200Y-90170000D03*
D17*
X115265200Y-90170000D03*
X127265200Y-123770000D03*
X109265200Y-123770000D03*
%TD*%
D18*
%TO.C,J1*%
X114944000Y-58193000D03*
D19*
X109944000Y-58193000D03*
%TD*%
D11*
%TO.C,J4*%
X134025000Y-106680000D03*
D12*
X136565000Y-106680000D03*
X139105000Y-106680000D03*
X141645000Y-106680000D03*
%TD*%
D11*
%TO.C,C6*%
X137639800Y-122072400D03*
D20*
X132639800Y-122072400D03*
%TD*%
D21*
%TO.C,FL1*%
X121171000Y-83982750D03*
D22*
X121171000Y-74076750D03*
X108217000Y-74076750D03*
X108217000Y-83982750D03*
%TD*%
D18*
%TO.C,J2*%
X157444000Y-58193000D03*
D19*
X152444000Y-58193000D03*
%TD*%
D11*
%TO.C,J6*%
X155480000Y-68810000D03*
D12*
X158020000Y-68810000D03*
X160560000Y-68810000D03*
X163100000Y-68810000D03*
X165640000Y-68810000D03*
%TD*%
D10*
%TO.C,RVe1*%
X128694000Y-69998000D03*
X126744000Y-79998000D03*
%TD*%
D23*
%TO.C,C1*%
X161544000Y-98200000D03*
X161544000Y-95250000D03*
%TD*%
D24*
%TO.C,R1*%
X153797000Y-95057500D03*
X153797000Y-97982500D03*
%TD*%
D25*
%TO.C,C2*%
X157988000Y-95045000D03*
X157988000Y-97995000D03*
%TD*%
D26*
X105664000Y-126238000D02*
G75*
G03*
X105664000Y-126238000I-1524000J0D01*
G01*
X101600000Y-50934000D02*
X170976000Y-50934000D01*
X170976000Y-128778000D01*
X101600000Y-128778000D01*
X101600000Y-50934000D01*
X105664000Y-53594000D02*
G75*
G03*
X105664000Y-53594000I-1524000J0D01*
G01*
X169926000Y-126238000D02*
G75*
G03*
X169926000Y-126238000I-1524000J0D01*
G01*
X169926000Y-53594000D02*
G75*
G03*
X169926000Y-53594000I-1524000J0D01*
G01*
M02*
