M48
; DRILL file {KiCad 7.0.2-6a45011f42~172~ubuntu22.10.1} date Ср 16 авг 2023 11:39:26
; FORMAT={-:-/ absolute / inch / decimal}
; #@! TF.CreationDate,2023-08-16T11:39:26+05:00
; #@! TF.GenerationSoftware,Kicad,Pcbnew,7.0.2-6a45011f42~172~ubuntu22.10.1
; #@! TF.FileFunction,Plated,1,2,PTH
FMAT,2
INCH
; #@! TA.AperFunction,Plated,PTH,ViaDrill
T1C0.0157
; #@! TA.AperFunction,Plated,PTH,ComponentDrill
T2C0.0315
; #@! TA.AperFunction,Plated,PTH,ComponentDrill
T3C0.0394
; #@! TA.AperFunction,Plated,PTH,ComponentDrill
T4C0.0512
; #@! TA.AperFunction,Plated,PTH,ComponentDrill
T5C0.0591
; #@! TA.AperFunction,Plated,PTH,ComponentDrill
T6C0.0787
%
G90
G05
T1
X5.95Y-3.8
X5.95Y-3.85
X5.95Y-3.9
X5.95Y-4.0
X5.954Y-4.375
X6.45Y-3.75
T2
X5.426Y-2.819
X5.426Y-3.114
X5.426Y-3.369
X5.426Y-3.569
T3
X4.2399Y-2.6771
X4.3018Y-4.8728
X4.538Y-3.55
X4.6336Y-2.6771
X4.7742Y-3.55
X4.9899Y-3.1495
X5.0104Y-4.8728
X5.0667Y-2.7558
X5.222Y-4.806
X5.2766Y-4.0425
X5.2766Y-4.2
X5.2766Y-4.3575
X5.3766Y-4.0425
X5.3766Y-4.2
X5.3766Y-4.3575
X5.4189Y-4.806
X5.4766Y-4.0425
X5.4766Y-4.2
X5.4766Y-4.3575
X5.5766Y-4.0425
X5.5766Y-4.2
X5.5766Y-4.3575
X5.9328Y-2.8281
X5.9328Y-2.9281
X5.9328Y-3.0281
X5.9328Y-3.1281
X6.1213Y-2.7091
X6.2213Y-2.7091
X6.3213Y-2.7091
X6.4213Y-2.7091
X6.5213Y-2.7091
T4
X4.3285Y-2.2911
X4.5254Y-2.2911
X6.0017Y-2.2911
X6.1986Y-2.2911
T5
X4.2605Y-2.9164
X4.2605Y-3.3064
X4.7705Y-2.9164
X4.7705Y-3.3064
T6
X4.7837Y-2.3037
X5.7337Y-2.3037
T0
M30
