%TF.GenerationSoftware,KiCad,Pcbnew,7.0.2-6a45011f42~172~ubuntu22.10.1*%
%TF.CreationDate,2023-08-15T16:25:11+05:00*%
%TF.ProjectId,IOTV,494f5456-2e6b-4696-9361-645f70636258,3*%
%TF.SameCoordinates,Original*%
%TF.FileFunction,Copper,L2,Bot*%
%TF.FilePolarity,Positive*%
%FSLAX46Y46*%
G04 Gerber Fmt 4.6, Leading zero omitted, Abs format (unit mm)*
G04 Created by KiCad (PCBNEW 7.0.2-6a45011f42~172~ubuntu22.10.1) date 2023-08-15 16:25:11*
%MOMM*%
%LPD*%
G01*
G04 APERTURE LIST*
G04 Aperture macros list*
%AMRoundRect*
0 Rectangle with rounded corners*
0 $1 Rounding radius*
0 $2 $3 $4 $5 $6 $7 $8 $9 X,Y pos of 4 corners*
0 Add a 4 corners polygon primitive as box body*
4,1,4,$2,$3,$4,$5,$6,$7,$8,$9,$2,$3,0*
0 Add four circle primitives for the rounded corners*
1,1,$1+$1,$2,$3*
1,1,$1+$1,$4,$5*
1,1,$1+$1,$6,$7*
1,1,$1+$1,$8,$9*
0 Add four rect primitives between the rounded corners*
20,1,$1+$1,$2,$3,$4,$5,0*
20,1,$1+$1,$4,$5,$6,$7,0*
20,1,$1+$1,$6,$7,$8,$9,0*
20,1,$1+$1,$8,$9,$2,$3,0*%
%AMFreePoly0*
4,1,18,0.843072,1.985355,1.985355,0.843072,2.000000,0.807717,2.000000,-0.807717,1.985355,-0.843072,0.843072,-1.985355,0.807717,-2.000000,0.000000,-2.000000,-0.807717,-2.000000,-0.843072,-1.985354,-1.985355,-0.843072,-2.000000,-0.807717,-2.000000,0.807717,-1.985354,0.843072,-0.843072,1.985355,-0.807717,2.000000,0.807717,2.000000,0.843072,1.985355,0.843072,1.985355,$1*%
G04 Aperture macros list end*
%TA.AperFunction,ComponentPad*%
%ADD10C,2.000000*%
%TD*%
%TA.AperFunction,ComponentPad*%
%ADD11R,1.700000X1.700000*%
%TD*%
%TA.AperFunction,ComponentPad*%
%ADD12O,1.700000X1.700000*%
%TD*%
%TA.AperFunction,ComponentPad*%
%ADD13C,2.400000*%
%TD*%
%TA.AperFunction,ComponentPad*%
%ADD14RoundRect,0.249600X0.950400X-0.950400X0.950400X0.950400X-0.950400X0.950400X-0.950400X-0.950400X0*%
%TD*%
%TA.AperFunction,ComponentPad*%
%ADD15C,4.000000*%
%TD*%
%TA.AperFunction,ComponentPad*%
%ADD16FreePoly0,0.000000*%
%TD*%
%TA.AperFunction,ComponentPad*%
%ADD17C,1.500000*%
%TD*%
%TA.AperFunction,ComponentPad*%
%ADD18R,1.500000X1.500000*%
%TD*%
%TA.AperFunction,ComponentPad*%
%ADD19R,2.600000X2.600000*%
%TD*%
%TA.AperFunction,ComponentPad*%
%ADD20C,2.600000*%
%TD*%
%TA.AperFunction,ComponentPad*%
%ADD21C,1.700000*%
%TD*%
%TA.AperFunction,ComponentPad*%
%ADD22R,3.000000X3.000000*%
%TD*%
%TA.AperFunction,ComponentPad*%
%ADD23C,3.000000*%
%TD*%
%TA.AperFunction,ViaPad*%
%ADD24C,0.800000*%
%TD*%
%TA.AperFunction,Conductor*%
%ADD25C,0.500000*%
%TD*%
%TA.AperFunction,Conductor*%
%ADD26C,2.500000*%
%TD*%
%TA.AperFunction,Profile*%
%ADD27C,0.150000*%
%TD*%
G04 APERTURE END LIST*
D10*
%TO.P,C5,1*%
%TO.N,~220*%
X117694000Y-67998000D03*
%TO.P,C5,2*%
%TO.N,SSD-1*%
X107694000Y-67998000D03*
%TD*%
D11*
%TO.P,J8,1,Pin_1*%
%TO.N,GND*%
X163195000Y-113998000D03*
D12*
%TO.P,J8,2,Pin_2*%
%TO.N,U0RX*%
X163195000Y-111458000D03*
%TO.P,J8,3,Pin_3*%
%TO.N,U0TX*%
X163195000Y-108918000D03*
%TO.P,J8,4,Pin_4*%
%TO.N,+3.3V*%
X163195000Y-106378000D03*
%TD*%
%TO.P,J3,4,Pin_4*%
%TO.N,SCL*%
X133694000Y-106378000D03*
%TO.P,J3,3,Pin_3*%
%TO.N,SDA*%
X133694000Y-108918000D03*
%TO.P,J3,2,Pin_2*%
%TO.N,+3.3V*%
X133694000Y-111458000D03*
D11*
%TO.P,J3,1,Pin_1*%
%TO.N,GND*%
X133694000Y-113998000D03*
%TD*%
D13*
%TO.P,U2,11*%
%TO.N,SSD-1*%
X133536500Y-79898000D03*
%TO.P,U2,14*%
%TO.N,SSD-2*%
X133536500Y-74898000D03*
D14*
%TO.P,U2,A1*%
%TO.N,GPIO34*%
X133536500Y-96148000D03*
D13*
%TO.P,U2,A2*%
%TO.N,GND*%
X133536500Y-99898000D03*
%TD*%
D11*
%TO.P,J5,1,Pin_1*%
%TO.N,GND*%
X141694000Y-113998000D03*
D12*
%TO.P,J5,2,Pin_2*%
%TO.N,+3.3V*%
X141694000Y-111458000D03*
%TO.P,J5,3,Pin_3*%
%TO.N,SDA*%
X141694000Y-108918000D03*
%TO.P,J5,4,Pin_4*%
%TO.N,SCL*%
X141694000Y-106378000D03*
%TD*%
D15*
%TO.P,F1,1*%
%TO.N,Net-(J1-Pin_1)*%
X121506000Y-58513000D03*
D16*
%TO.P,F1,2*%
%TO.N,~220*%
X145636000Y-58513000D03*
%TD*%
D17*
%TO.P,PS1,4,+VO*%
%TO.N,+3.3V*%
X109194000Y-124298000D03*
%TO.P,PS1,3,-VO*%
%TO.N,GND*%
X127194000Y-124298000D03*
%TO.P,PS1,2,AC2*%
%TO.N,Net-(PS1-AC2)*%
X115194000Y-90698000D03*
D18*
%TO.P,PS1,1,AC1*%
%TO.N,Net-(PS1-AC1)*%
X121194000Y-90698000D03*
%TD*%
D19*
%TO.P,J1,1,Pin_1*%
%TO.N,Net-(J1-Pin_1)*%
X114944000Y-58193000D03*
D20*
%TO.P,J1,2,Pin_2*%
%TO.N,SSD-1*%
X109944000Y-58193000D03*
%TD*%
D11*
%TO.P,J4,1,Pin_1*%
%TO.N,GND*%
X137694000Y-113998000D03*
D12*
%TO.P,J4,2,Pin_2*%
%TO.N,+3.3V*%
X137694000Y-111458000D03*
%TO.P,J4,3,Pin_3*%
%TO.N,SDA*%
X137694000Y-108918000D03*
%TO.P,J4,4,Pin_4*%
%TO.N,SCL*%
X137694000Y-106378000D03*
%TD*%
D21*
%TO.P,C6,2*%
%TO.N,GND*%
X132589000Y-122428000D03*
D11*
%TO.P,C6,1*%
%TO.N,+3.3V*%
X137589000Y-122428000D03*
%TD*%
D22*
%TO.P,FL1,1,1*%
%TO.N,Net-(PS1-AC1)*%
X121171000Y-83982750D03*
D23*
%TO.P,FL1,2,2*%
%TO.N,~220*%
X121171000Y-74076750D03*
%TO.P,FL1,3,3*%
%TO.N,SSD-1*%
X108217000Y-74076750D03*
%TO.P,FL1,4,4*%
%TO.N,Net-(PS1-AC2)*%
X108217000Y-83982750D03*
%TD*%
D19*
%TO.P,J2,1,Pin_1*%
%TO.N,Net-(J1-Pin_1)*%
X157444000Y-58193000D03*
D20*
%TO.P,J2,2,Pin_2*%
%TO.N,SSD-2*%
X152444000Y-58193000D03*
%TD*%
D11*
%TO.P,J6,1,Pin_1*%
%TO.N,+3.3V*%
X153944000Y-67828000D03*
D12*
%TO.P,J6,2,Pin_2*%
%TO.N,SDA*%
X153944000Y-70368000D03*
%TO.P,J6,3,Pin_3*%
%TO.N,SCL*%
X153944000Y-72908000D03*
%TO.P,J6,4,Pin_4*%
%TO.N,unconnected-(J6-Pin_4-Pad4)*%
X153944000Y-75448000D03*
%TO.P,J6,5,Pin_5*%
%TO.N,GND*%
X153944000Y-77988000D03*
%TD*%
D10*
%TO.P,RVe1,1*%
%TO.N,~220*%
X128694000Y-69998000D03*
%TO.P,RVe1,2*%
%TO.N,SSD-1*%
X126744000Y-79998000D03*
%TD*%
D24*
%TO.N,EN*%
X156260800Y-85547200D03*
X155956000Y-117729000D03*
%TO.N,SCL*%
X156210000Y-97790000D03*
%TO.N,SDA*%
X152400000Y-97790000D03*
%TD*%
D25*
%TO.N,EN*%
X156210000Y-85598000D02*
X156260800Y-85547200D01*
X156210000Y-96517207D02*
X156210000Y-85598000D01*
X157110000Y-97417207D02*
X156210000Y-96517207D01*
X157110000Y-116575000D02*
X157110000Y-97417207D01*
X155956000Y-117729000D02*
X157110000Y-116575000D01*
%TO.N,SDA*%
X152400000Y-97790000D02*
X152400000Y-71912000D01*
X152400000Y-71912000D02*
X153944000Y-70368000D01*
X152400000Y-97790000D02*
X146812000Y-103378000D01*
X146812000Y-103378000D02*
X134784811Y-103378000D01*
X134784811Y-103378000D02*
X132344000Y-105818811D01*
X132344000Y-105818811D02*
X132344000Y-107568000D01*
X132344000Y-107568000D02*
X133694000Y-108918000D01*
%TO.N,SCL*%
X141694000Y-106378000D02*
X143932000Y-104140000D01*
X143932000Y-104140000D02*
X149860000Y-104140000D01*
X149860000Y-104140000D02*
X156210000Y-97790000D01*
X156210000Y-97790000D02*
X155310000Y-96890000D01*
X155310000Y-96890000D02*
X155310000Y-74274000D01*
X155310000Y-74274000D02*
X153944000Y-72908000D01*
D26*
%TO.N,Net-(PS1-AC1)*%
X121171000Y-83982750D02*
X121171000Y-90675000D01*
X121171000Y-90675000D02*
X121194000Y-90698000D01*
%TO.N,Net-(PS1-AC2)*%
X108217000Y-83982750D02*
X114932250Y-90698000D01*
X114932250Y-90698000D02*
X115194000Y-90698000D01*
%TO.N,SSD-1*%
X126744000Y-79998000D02*
X133436500Y-79998000D01*
X133436500Y-79998000D02*
X133536500Y-79898000D01*
%TO.N,SSD-2*%
X152444000Y-58193000D02*
X152444000Y-60850000D01*
X152444000Y-60850000D02*
X138396000Y-74898000D01*
X138396000Y-74898000D02*
X133536500Y-74898000D01*
%TO.N,~220*%
X145636000Y-58513000D02*
X140179000Y-58513000D01*
X140179000Y-58513000D02*
X128694000Y-69998000D01*
%TO.N,SSD-1*%
X126744000Y-79998000D02*
X125744000Y-78998000D01*
X125744000Y-78998000D02*
X113138250Y-78998000D01*
X113138250Y-78998000D02*
X108217000Y-74076750D01*
%TO.N,~220*%
X121171000Y-74076750D02*
X124615250Y-74076750D01*
X124615250Y-74076750D02*
X128694000Y-69998000D01*
X121171000Y-74076750D02*
X121171000Y-71475000D01*
X121171000Y-71475000D02*
X117694000Y-67998000D01*
%TO.N,SSD-1*%
X107694000Y-67998000D02*
X107694000Y-73553750D01*
X107694000Y-73553750D02*
X108217000Y-74076750D01*
X109944000Y-58193000D02*
X109944000Y-65748000D01*
X109944000Y-65748000D02*
X107694000Y-67998000D01*
%TO.N,Net-(J1-Pin_1)*%
X126577000Y-53441600D02*
X121506000Y-58513000D01*
X121186000Y-58193000D02*
X121506000Y-58513000D01*
X157444000Y-55463000D02*
X155423000Y-53441600D01*
X114944000Y-58193000D02*
X121186000Y-58193000D01*
X155423000Y-53441600D02*
X126577000Y-53441600D01*
X157444000Y-58193000D02*
X157444000Y-55463000D01*
%TD*%
%TA.AperFunction,Conductor*%
%TO.N,+3.3V*%
G36*
X166313910Y-53597869D02*
G01*
X166380947Y-53617558D01*
X166426699Y-53670365D01*
X166430973Y-53681002D01*
X166654173Y-54320400D01*
X166841276Y-54856394D01*
X166874482Y-54951517D01*
X166874482Y-54951518D01*
X168328335Y-55597280D01*
X168381612Y-55642483D01*
X168401993Y-55709314D01*
X168402000Y-55710604D01*
X168402000Y-124159947D01*
X168382315Y-124226986D01*
X168329511Y-124272741D01*
X168318867Y-124277019D01*
X167048482Y-124720482D01*
X167048481Y-124720482D01*
X166402720Y-126174335D01*
X166357517Y-126227612D01*
X166290686Y-126247993D01*
X166289396Y-126248000D01*
X106230824Y-126248000D01*
X106163785Y-126228315D01*
X106118030Y-126175511D01*
X106113752Y-126164867D01*
X105671518Y-124898000D01*
X105065443Y-124628798D01*
X104320694Y-124298000D01*
X107939224Y-124298000D01*
X107958287Y-124515886D01*
X108014898Y-124727161D01*
X108107331Y-124925386D01*
X108150873Y-124987571D01*
X108150874Y-124987572D01*
X108710922Y-124427523D01*
X108734507Y-124507844D01*
X108812239Y-124628798D01*
X108920900Y-124722952D01*
X109051685Y-124782680D01*
X109061466Y-124784086D01*
X108504426Y-125341124D01*
X108504427Y-125341125D01*
X108566610Y-125384666D01*
X108764840Y-125477102D01*
X108976113Y-125533712D01*
X109194000Y-125552775D01*
X109411886Y-125533712D01*
X109623159Y-125477102D01*
X109821385Y-125384667D01*
X109883572Y-125341124D01*
X109326534Y-124784086D01*
X109336315Y-124782680D01*
X109467100Y-124722952D01*
X109575761Y-124628798D01*
X109653493Y-124507844D01*
X109677076Y-124427524D01*
X110237124Y-124987572D01*
X110280667Y-124925385D01*
X110373102Y-124727159D01*
X110429712Y-124515886D01*
X110448775Y-124298000D01*
X125838340Y-124298000D01*
X125858936Y-124533407D01*
X125884496Y-124628798D01*
X125920097Y-124761663D01*
X126019965Y-124975830D01*
X126155505Y-125169401D01*
X126322599Y-125336495D01*
X126516170Y-125472035D01*
X126730337Y-125571903D01*
X126958592Y-125633063D01*
X127194000Y-125653659D01*
X127429408Y-125633063D01*
X127657663Y-125571903D01*
X127871830Y-125472035D01*
X128065401Y-125336495D01*
X128232495Y-125169401D01*
X128368035Y-124975830D01*
X128467903Y-124761663D01*
X128529063Y-124533408D01*
X128549659Y-124298000D01*
X128545284Y-124248000D01*
X128529063Y-124062592D01*
X128529062Y-124062591D01*
X128467903Y-123834337D01*
X128368035Y-123620171D01*
X128232495Y-123426599D01*
X128065401Y-123259505D01*
X127871830Y-123123965D01*
X127657663Y-123024097D01*
X127596502Y-123007709D01*
X127429407Y-122962936D01*
X127194000Y-122942340D01*
X126958592Y-122962936D01*
X126730336Y-123024097D01*
X126516170Y-123123965D01*
X126322598Y-123259505D01*
X126155505Y-123426598D01*
X126019965Y-123620170D01*
X125920097Y-123834336D01*
X125858936Y-124062592D01*
X125838340Y-124298000D01*
X110448775Y-124298000D01*
X110429712Y-124080113D01*
X110373102Y-123868840D01*
X110280667Y-123670615D01*
X110237123Y-123608428D01*
X109677076Y-124168475D01*
X109653493Y-124088156D01*
X109575761Y-123967202D01*
X109467100Y-123873048D01*
X109336315Y-123813320D01*
X109326533Y-123811913D01*
X109883572Y-123254874D01*
X109883571Y-123254873D01*
X109821386Y-123211331D01*
X109623161Y-123118898D01*
X109411886Y-123062287D01*
X109194000Y-123043224D01*
X108976113Y-123062287D01*
X108764840Y-123118897D01*
X108566611Y-123211333D01*
X108504428Y-123254874D01*
X108504427Y-123254875D01*
X109061467Y-123811913D01*
X109051685Y-123813320D01*
X108920900Y-123873048D01*
X108812239Y-123967202D01*
X108734507Y-124088156D01*
X108710923Y-124168475D01*
X108150875Y-123608427D01*
X108150874Y-123608428D01*
X108107333Y-123670611D01*
X108014897Y-123868840D01*
X107958287Y-124080113D01*
X107939224Y-124298000D01*
X104320694Y-124298000D01*
X104213664Y-124250460D01*
X104160387Y-124205257D01*
X104140007Y-124138426D01*
X104140000Y-124137136D01*
X104140000Y-122427999D01*
X131133528Y-122427999D01*
X131153379Y-122667558D01*
X131153379Y-122667561D01*
X131153380Y-122667563D01*
X131212390Y-122900591D01*
X131308951Y-123120728D01*
X131440429Y-123321969D01*
X131603236Y-123498825D01*
X131603239Y-123498827D01*
X131792927Y-123646468D01*
X131792929Y-123646469D01*
X131792933Y-123646472D01*
X132004344Y-123760882D01*
X132231703Y-123838934D01*
X132468808Y-123878500D01*
X132468809Y-123878500D01*
X132709191Y-123878500D01*
X132709192Y-123878500D01*
X132946297Y-123838934D01*
X133173656Y-123760882D01*
X133385067Y-123646472D01*
X133574764Y-123498825D01*
X133737066Y-123322518D01*
X136239000Y-123322518D01*
X136239354Y-123329132D01*
X136245400Y-123385371D01*
X136295647Y-123520089D01*
X136381811Y-123635188D01*
X136496910Y-123721352D01*
X136631628Y-123771599D01*
X136687867Y-123777645D01*
X136694482Y-123778000D01*
X137339000Y-123778000D01*
X137339000Y-122863501D01*
X137446685Y-122912680D01*
X137553237Y-122928000D01*
X137624763Y-122928000D01*
X137731315Y-122912680D01*
X137839000Y-122863501D01*
X137839000Y-123778000D01*
X138483518Y-123778000D01*
X138490132Y-123777645D01*
X138546371Y-123771599D01*
X138681089Y-123721352D01*
X138796188Y-123635188D01*
X138882352Y-123520089D01*
X138932599Y-123385371D01*
X138938645Y-123329132D01*
X138939000Y-123322518D01*
X138939000Y-122678000D01*
X138022686Y-122678000D01*
X138048493Y-122637844D01*
X138089000Y-122499889D01*
X138089000Y-122356111D01*
X138048493Y-122218156D01*
X138022686Y-122178000D01*
X138939000Y-122178000D01*
X138939000Y-121533481D01*
X138938645Y-121526867D01*
X138932599Y-121470628D01*
X138882352Y-121335910D01*
X138796188Y-121220811D01*
X138681089Y-121134647D01*
X138546371Y-121084400D01*
X138490132Y-121078354D01*
X138483518Y-121078000D01*
X137839000Y-121078000D01*
X137839000Y-121992498D01*
X137731315Y-121943320D01*
X137624763Y-121928000D01*
X137553237Y-121928000D01*
X137446685Y-121943320D01*
X137339000Y-121992498D01*
X137339000Y-121078000D01*
X136694482Y-121078000D01*
X136687867Y-121078354D01*
X136631628Y-121084400D01*
X136496910Y-121134647D01*
X136381811Y-121220811D01*
X136295647Y-121335910D01*
X136245400Y-121470628D01*
X136239354Y-121526867D01*
X136239000Y-121533481D01*
X136239000Y-122178000D01*
X137155314Y-122178000D01*
X137129507Y-122218156D01*
X137089000Y-122356111D01*
X137089000Y-122499889D01*
X137129507Y-122637844D01*
X137155314Y-122678000D01*
X136239000Y-122678000D01*
X136239000Y-123322518D01*
X133737066Y-123322518D01*
X133737571Y-123321969D01*
X133869049Y-123120728D01*
X133965610Y-122900591D01*
X134024620Y-122667563D01*
X134044471Y-122428000D01*
X134024620Y-122188437D01*
X133965610Y-121955409D01*
X133869049Y-121735272D01*
X133737571Y-121534031D01*
X133574764Y-121357175D01*
X133547443Y-121335910D01*
X133385072Y-121209531D01*
X133385068Y-121209528D01*
X133385067Y-121209528D01*
X133173656Y-121095118D01*
X133173655Y-121095117D01*
X133173652Y-121095116D01*
X132946299Y-121017066D01*
X132788226Y-120990688D01*
X132709192Y-120977500D01*
X132468808Y-120977500D01*
X132409531Y-120987391D01*
X132231700Y-121017066D01*
X132004347Y-121095116D01*
X131792927Y-121209531D01*
X131603239Y-121357172D01*
X131603236Y-121357174D01*
X131603236Y-121357175D01*
X131440429Y-121534031D01*
X131308951Y-121735272D01*
X131212390Y-121955409D01*
X131176484Y-122097202D01*
X131153379Y-122188441D01*
X131133528Y-122427999D01*
X104140000Y-122427999D01*
X104140000Y-107591167D01*
X131488799Y-107591167D01*
X131499502Y-107669732D01*
X131499910Y-107673062D01*
X131508498Y-107752025D01*
X131513732Y-107774356D01*
X131513772Y-107774467D01*
X131513773Y-107774468D01*
X131541129Y-107848934D01*
X131542228Y-107852054D01*
X131567594Y-107927333D01*
X131577508Y-107948023D01*
X131594198Y-107974133D01*
X131620295Y-108014962D01*
X131622037Y-108017771D01*
X131662990Y-108085835D01*
X131677116Y-108103905D01*
X131677199Y-108103988D01*
X131677200Y-108103989D01*
X131733303Y-108160092D01*
X131735609Y-108162462D01*
X131790151Y-108220041D01*
X131790152Y-108220042D01*
X131790234Y-108220128D01*
X131808118Y-108234907D01*
X132217222Y-108644011D01*
X132250707Y-108705334D01*
X132253118Y-108741931D01*
X132238529Y-108918000D01*
X132258379Y-109157558D01*
X132258379Y-109157561D01*
X132258380Y-109157563D01*
X132317390Y-109390591D01*
X132413951Y-109610728D01*
X132545429Y-109811969D01*
X132708236Y-109988825D01*
X132897933Y-110136472D01*
X132907428Y-110141610D01*
X132957019Y-110190827D01*
X132972129Y-110259043D01*
X132947959Y-110324600D01*
X132919536Y-110352239D01*
X132822922Y-110419889D01*
X132655890Y-110586921D01*
X132520400Y-110780421D01*
X132420569Y-110994507D01*
X132363364Y-111207999D01*
X132363364Y-111208000D01*
X133260314Y-111208000D01*
X133234507Y-111248156D01*
X133194000Y-111386111D01*
X133194000Y-111529889D01*
X133234507Y-111667844D01*
X133260314Y-111708000D01*
X132363364Y-111708000D01*
X132420569Y-111921492D01*
X132520399Y-112135576D01*
X132655893Y-112329081D01*
X132699223Y-112372411D01*
X132732708Y-112433734D01*
X132727724Y-112503426D01*
X132685852Y-112559359D01*
X132658996Y-112574653D01*
X132541157Y-112623464D01*
X132415717Y-112719717D01*
X132319463Y-112845159D01*
X132258956Y-112991237D01*
X132258956Y-112991238D01*
X132243500Y-113108639D01*
X132243500Y-113112691D01*
X132243500Y-113112692D01*
X132243500Y-114883305D01*
X132243500Y-114883320D01*
X132243501Y-114887360D01*
X132244029Y-114891373D01*
X132244030Y-114891384D01*
X132258955Y-115004760D01*
X132319464Y-115150841D01*
X132415717Y-115276282D01*
X132541159Y-115372535D01*
X132541159Y-115372536D01*
X132687238Y-115433044D01*
X132804639Y-115448500D01*
X134583360Y-115448499D01*
X134700762Y-115433044D01*
X134846841Y-115372536D01*
X134972282Y-115276282D01*
X135068536Y-115150841D01*
X135129044Y-115004762D01*
X135144500Y-114887361D01*
X135144499Y-113108640D01*
X135129044Y-112991238D01*
X135068536Y-112845159D01*
X135046139Y-112815970D01*
X134972282Y-112719717D01*
X134846841Y-112623464D01*
X134729003Y-112574654D01*
X134674600Y-112530813D01*
X134652535Y-112464519D01*
X134669814Y-112396820D01*
X134688776Y-112372411D01*
X134732107Y-112329080D01*
X134867600Y-112135576D01*
X134967430Y-111921492D01*
X135024636Y-111708000D01*
X134127686Y-111708000D01*
X134153493Y-111667844D01*
X134194000Y-111529889D01*
X134194000Y-111386111D01*
X134153493Y-111248156D01*
X134127686Y-111208000D01*
X135024636Y-111208000D01*
X135024635Y-111207999D01*
X134967430Y-110994507D01*
X134867599Y-110780421D01*
X134732109Y-110586921D01*
X134565081Y-110419893D01*
X134468463Y-110352240D01*
X134424838Y-110297663D01*
X134417646Y-110228164D01*
X134449168Y-110165810D01*
X134480571Y-110141610D01*
X134490067Y-110136472D01*
X134679764Y-109988825D01*
X134842571Y-109811969D01*
X134974049Y-109610728D01*
X135070610Y-109390591D01*
X135129620Y-109157563D01*
X135149471Y-108918000D01*
X136238528Y-108918000D01*
X136258379Y-109157558D01*
X136258379Y-109157561D01*
X136258380Y-109157563D01*
X136317390Y-109390591D01*
X136413951Y-109610728D01*
X136545429Y-109811969D01*
X136708236Y-109988825D01*
X136897933Y-110136472D01*
X136907428Y-110141610D01*
X136957019Y-110190827D01*
X136972129Y-110259043D01*
X136947959Y-110324600D01*
X136919536Y-110352239D01*
X136822922Y-110419889D01*
X136655890Y-110586921D01*
X136520400Y-110780421D01*
X136420569Y-110994507D01*
X136363364Y-111207999D01*
X136363364Y-111208000D01*
X137260314Y-111208000D01*
X137234507Y-111248156D01*
X137194000Y-111386111D01*
X137194000Y-111529889D01*
X137234507Y-111667844D01*
X137260314Y-111708000D01*
X136363364Y-111708000D01*
X136420569Y-111921492D01*
X136520399Y-112135576D01*
X136655893Y-112329081D01*
X136699223Y-112372411D01*
X136732708Y-112433734D01*
X136727724Y-112503426D01*
X136685852Y-112559359D01*
X136658996Y-112574653D01*
X136541157Y-112623464D01*
X136415717Y-112719717D01*
X136319463Y-112845159D01*
X136258956Y-112991237D01*
X136258956Y-112991238D01*
X136243500Y-113108639D01*
X136243500Y-113112691D01*
X136243500Y-113112692D01*
X136243500Y-114883305D01*
X136243500Y-114883320D01*
X136243501Y-114887360D01*
X136244029Y-114891373D01*
X136244030Y-114891384D01*
X136258955Y-115004760D01*
X136319464Y-115150841D01*
X136415717Y-115276282D01*
X136541158Y-115372535D01*
X136541159Y-115372536D01*
X136687238Y-115433044D01*
X136804639Y-115448500D01*
X138583360Y-115448499D01*
X138700762Y-115433044D01*
X138846841Y-115372536D01*
X138972282Y-115276282D01*
X139068536Y-115150841D01*
X139129044Y-115004762D01*
X139144500Y-114887361D01*
X139144499Y-113108640D01*
X139129044Y-112991238D01*
X139068536Y-112845159D01*
X139046139Y-112815970D01*
X138972282Y-112719717D01*
X138846841Y-112623464D01*
X138729003Y-112574654D01*
X138674600Y-112530813D01*
X138652535Y-112464519D01*
X138669814Y-112396820D01*
X138688776Y-112372411D01*
X138732107Y-112329080D01*
X138867600Y-112135576D01*
X138967430Y-111921492D01*
X139024636Y-111708000D01*
X138127686Y-111708000D01*
X138153493Y-111667844D01*
X138194000Y-111529889D01*
X138194000Y-111386111D01*
X138153493Y-111248156D01*
X138127686Y-111208000D01*
X139024636Y-111208000D01*
X139024635Y-111207999D01*
X138967430Y-110994507D01*
X138867599Y-110780421D01*
X138732109Y-110586921D01*
X138565081Y-110419893D01*
X138468463Y-110352240D01*
X138424838Y-110297663D01*
X138417646Y-110228164D01*
X138449168Y-110165810D01*
X138480571Y-110141610D01*
X138490067Y-110136472D01*
X138679764Y-109988825D01*
X138842571Y-109811969D01*
X138974049Y-109610728D01*
X139070610Y-109390591D01*
X139129620Y-109157563D01*
X139149471Y-108918000D01*
X139129620Y-108678437D01*
X139070610Y-108445409D01*
X138974049Y-108225272D01*
X138842571Y-108024031D01*
X138679764Y-107847175D01*
X138571538Y-107762939D01*
X138549586Y-107745853D01*
X138508773Y-107689143D01*
X138505098Y-107619370D01*
X138539730Y-107558687D01*
X138549586Y-107550147D01*
X138634879Y-107483760D01*
X138679764Y-107448825D01*
X138842571Y-107271969D01*
X138974049Y-107070728D01*
X139070610Y-106850591D01*
X139129620Y-106617563D01*
X139149471Y-106378000D01*
X139129620Y-106138437D01*
X139070610Y-105905409D01*
X138974049Y-105685272D01*
X138842571Y-105484031D01*
X138679764Y-105307175D01*
X138581220Y-105230475D01*
X138490072Y-105159531D01*
X138490068Y-105159528D01*
X138490067Y-105159528D01*
X138278656Y-105045118D01*
X138278655Y-105045117D01*
X138278652Y-105045116D01*
X138051299Y-104967066D01*
X137860515Y-104935230D01*
X137814192Y-104927500D01*
X137573808Y-104927500D01*
X137527485Y-104935230D01*
X137336700Y-104967066D01*
X137109347Y-105045116D01*
X136897927Y-105159531D01*
X136708239Y-105307172D01*
X136708236Y-105307174D01*
X136708236Y-105307175D01*
X136545429Y-105484031D01*
X136413951Y-105685272D01*
X136317390Y-105905409D01*
X136281484Y-106047202D01*
X136258379Y-106138441D01*
X136238528Y-106377999D01*
X136258379Y-106617558D01*
X136258379Y-106617561D01*
X136258380Y-106617563D01*
X136317390Y-106850591D01*
X136413951Y-107070728D01*
X136545429Y-107271969D01*
X136708236Y-107448825D01*
X136708239Y-107448827D01*
X136838414Y-107550147D01*
X136879227Y-107606857D01*
X136882902Y-107676630D01*
X136848270Y-107737313D01*
X136838414Y-107745853D01*
X136708239Y-107847172D01*
X136708236Y-107847174D01*
X136708236Y-107847175D01*
X136545429Y-108024031D01*
X136493190Y-108103989D01*
X136413950Y-108225274D01*
X136317391Y-108445407D01*
X136258379Y-108678441D01*
X136238528Y-108918000D01*
X135149471Y-108918000D01*
X135129620Y-108678437D01*
X135070610Y-108445409D01*
X134974049Y-108225272D01*
X134842571Y-108024031D01*
X134679764Y-107847175D01*
X134571538Y-107762939D01*
X134549586Y-107745853D01*
X134508773Y-107689143D01*
X134505098Y-107619370D01*
X134539730Y-107558687D01*
X134549586Y-107550147D01*
X134634879Y-107483760D01*
X134679764Y-107448825D01*
X134842571Y-107271969D01*
X134974049Y-107070728D01*
X135070610Y-106850591D01*
X135129620Y-106617563D01*
X135149471Y-106378000D01*
X135129620Y-106138437D01*
X135070610Y-105905409D01*
X134974049Y-105685272D01*
X134842571Y-105484031D01*
X134679764Y-105307175D01*
X134490067Y-105159528D01*
X134452045Y-105138951D01*
X134402454Y-105089732D01*
X134387347Y-105021515D01*
X134411518Y-104955959D01*
X134423374Y-104942224D01*
X135100780Y-104264819D01*
X135162104Y-104231334D01*
X135188462Y-104228500D01*
X142341349Y-104228500D01*
X142408388Y-104248185D01*
X142454143Y-104300989D01*
X142464087Y-104370147D01*
X142435062Y-104433703D01*
X142429030Y-104440181D01*
X141968607Y-104900602D01*
X141907284Y-104934087D01*
X141860517Y-104935230D01*
X141814192Y-104927500D01*
X141573808Y-104927500D01*
X141527485Y-104935230D01*
X141336700Y-104967066D01*
X141109347Y-105045116D01*
X140897927Y-105159531D01*
X140708239Y-105307172D01*
X140708236Y-105307174D01*
X140708236Y-105307175D01*
X140545429Y-105484031D01*
X140413951Y-105685272D01*
X140317390Y-105905409D01*
X140281484Y-106047202D01*
X140258379Y-106138441D01*
X140238528Y-106377999D01*
X140258379Y-106617558D01*
X140258379Y-106617561D01*
X140258380Y-106617563D01*
X140317390Y-106850591D01*
X140413951Y-107070728D01*
X140545429Y-107271969D01*
X140708236Y-107448825D01*
X140708239Y-107448827D01*
X140838414Y-107550147D01*
X140879227Y-107606857D01*
X140882902Y-107676630D01*
X140848270Y-107737313D01*
X140838414Y-107745853D01*
X140708239Y-107847172D01*
X140708236Y-107847174D01*
X140708236Y-107847175D01*
X140545429Y-108024031D01*
X140493190Y-108103989D01*
X140413950Y-108225274D01*
X140317391Y-108445407D01*
X140258379Y-108678441D01*
X140238528Y-108918000D01*
X140258379Y-109157558D01*
X140258379Y-109157561D01*
X140258380Y-109157563D01*
X140317390Y-109390591D01*
X140413951Y-109610728D01*
X140545429Y-109811969D01*
X140708236Y-109988825D01*
X140897933Y-110136472D01*
X140907428Y-110141610D01*
X140957019Y-110190827D01*
X140972129Y-110259043D01*
X140947959Y-110324600D01*
X140919536Y-110352239D01*
X140822922Y-110419889D01*
X140655890Y-110586921D01*
X140520400Y-110780421D01*
X140420569Y-110994507D01*
X140363364Y-111207999D01*
X140363364Y-111208000D01*
X141260314Y-111208000D01*
X141234507Y-111248156D01*
X141194000Y-111386111D01*
X141194000Y-111529889D01*
X141234507Y-111667844D01*
X141260314Y-111708000D01*
X140363364Y-111708000D01*
X140420569Y-111921492D01*
X140520399Y-112135576D01*
X140655893Y-112329081D01*
X140699223Y-112372411D01*
X140732708Y-112433734D01*
X140727724Y-112503426D01*
X140685852Y-112559359D01*
X140658996Y-112574653D01*
X140541157Y-112623464D01*
X140415717Y-112719717D01*
X140319463Y-112845159D01*
X140258956Y-112991237D01*
X140258956Y-112991238D01*
X140243500Y-113108639D01*
X140243500Y-113112691D01*
X140243500Y-113112692D01*
X140243500Y-114883305D01*
X140243500Y-114883320D01*
X140243501Y-114887360D01*
X140244029Y-114891373D01*
X140244030Y-114891384D01*
X140258955Y-115004760D01*
X140319464Y-115150841D01*
X140415717Y-115276282D01*
X140541158Y-115372535D01*
X140541159Y-115372536D01*
X140687238Y-115433044D01*
X140804639Y-115448500D01*
X142583360Y-115448499D01*
X142700762Y-115433044D01*
X142846841Y-115372536D01*
X142972282Y-115276282D01*
X143068536Y-115150841D01*
X143129044Y-115004762D01*
X143144500Y-114887361D01*
X143144499Y-113108640D01*
X143129044Y-112991238D01*
X143068536Y-112845159D01*
X143046139Y-112815970D01*
X142972282Y-112719717D01*
X142846841Y-112623464D01*
X142729003Y-112574654D01*
X142674600Y-112530813D01*
X142652535Y-112464519D01*
X142669814Y-112396820D01*
X142688776Y-112372411D01*
X142732107Y-112329080D01*
X142867600Y-112135576D01*
X142967430Y-111921492D01*
X143024636Y-111708000D01*
X142127686Y-111708000D01*
X142153493Y-111667844D01*
X142194000Y-111529889D01*
X142194000Y-111386111D01*
X142153493Y-111248156D01*
X142127686Y-111208000D01*
X143024636Y-111208000D01*
X143024635Y-111207999D01*
X142967430Y-110994507D01*
X142867599Y-110780421D01*
X142732109Y-110586921D01*
X142565081Y-110419893D01*
X142468463Y-110352240D01*
X142424838Y-110297663D01*
X142417646Y-110228164D01*
X142449168Y-110165810D01*
X142480571Y-110141610D01*
X142490067Y-110136472D01*
X142679764Y-109988825D01*
X142842571Y-109811969D01*
X142974049Y-109610728D01*
X143070610Y-109390591D01*
X143129620Y-109157563D01*
X143149471Y-108918000D01*
X143129620Y-108678437D01*
X143070610Y-108445409D01*
X142974049Y-108225272D01*
X142842571Y-108024031D01*
X142679764Y-107847175D01*
X142571538Y-107762939D01*
X142549586Y-107745853D01*
X142508773Y-107689143D01*
X142505098Y-107619370D01*
X142539730Y-107558687D01*
X142549586Y-107550147D01*
X142634879Y-107483760D01*
X142679764Y-107448825D01*
X142842571Y-107271969D01*
X142974049Y-107070728D01*
X143070610Y-106850591D01*
X143129620Y-106617563D01*
X143149471Y-106378000D01*
X143134881Y-106201931D01*
X143148961Y-106133496D01*
X143170773Y-106104014D01*
X144247969Y-105026819D01*
X144309292Y-104993334D01*
X144335650Y-104990500D01*
X149820394Y-104990500D01*
X149830457Y-104990909D01*
X149834124Y-104991207D01*
X149883167Y-104995201D01*
X149961748Y-104984493D01*
X149965074Y-104984086D01*
X149997583Y-104980551D01*
X150044031Y-104975501D01*
X150066351Y-104970269D01*
X150066463Y-104970227D01*
X150066468Y-104970227D01*
X150140983Y-104942851D01*
X150144033Y-104941777D01*
X150219221Y-104916444D01*
X150219224Y-104916441D01*
X150219340Y-104916403D01*
X150240020Y-104906492D01*
X150240110Y-104906433D01*
X150240116Y-104906432D01*
X150307004Y-104863677D01*
X150309742Y-104861978D01*
X150377736Y-104821070D01*
X150377735Y-104821070D01*
X150377836Y-104821010D01*
X150395899Y-104806889D01*
X150395986Y-104806801D01*
X150395989Y-104806800D01*
X150452091Y-104750696D01*
X150454422Y-104748427D01*
X150512041Y-104693849D01*
X150512042Y-104693847D01*
X150512129Y-104693765D01*
X150526910Y-104675878D01*
X152711607Y-102491181D01*
X156047821Y-99154967D01*
X156109142Y-99121484D01*
X156178834Y-99126468D01*
X156234767Y-99168340D01*
X156259184Y-99233804D01*
X156259500Y-99242650D01*
X156259500Y-116171348D01*
X156239815Y-116238387D01*
X156223181Y-116259029D01*
X155752213Y-116729997D01*
X155700528Y-116760976D01*
X155571272Y-116800185D01*
X155397463Y-116893089D01*
X155245117Y-117018117D01*
X155120089Y-117170463D01*
X155027185Y-117344273D01*
X154969976Y-117532866D01*
X154950659Y-117728999D01*
X154969976Y-117925133D01*
X155027185Y-118113726D01*
X155027186Y-118113727D01*
X155120090Y-118287538D01*
X155245117Y-118439883D01*
X155397462Y-118564910D01*
X155571273Y-118657814D01*
X155759868Y-118715024D01*
X155956000Y-118734341D01*
X156152132Y-118715024D01*
X156340727Y-118657814D01*
X156514538Y-118564910D01*
X156666883Y-118439883D01*
X156791910Y-118287538D01*
X156884814Y-118113727D01*
X156924024Y-117984467D01*
X156955000Y-117932787D01*
X157683397Y-117204390D01*
X157690777Y-117197586D01*
X157731100Y-117163337D01*
X157779169Y-117100101D01*
X157781075Y-117097663D01*
X157830841Y-117035754D01*
X157830842Y-117035751D01*
X157830923Y-117035651D01*
X157843000Y-117016180D01*
X157876350Y-116944094D01*
X157877803Y-116941062D01*
X157913088Y-116869917D01*
X157920706Y-116848280D01*
X157920729Y-116848171D01*
X157920732Y-116848167D01*
X157937792Y-116770655D01*
X157938530Y-116767506D01*
X157957684Y-116690495D01*
X157957684Y-116690491D01*
X157957711Y-116690383D01*
X157960500Y-116667619D01*
X157960500Y-116588226D01*
X157960545Y-116584869D01*
X157962696Y-116505448D01*
X157960500Y-116482350D01*
X157960500Y-111457999D01*
X161739528Y-111457999D01*
X161759379Y-111697558D01*
X161759379Y-111697561D01*
X161759380Y-111697563D01*
X161818390Y-111930591D01*
X161914951Y-112150728D01*
X162046429Y-112351969D01*
X162105952Y-112416628D01*
X162136874Y-112479283D01*
X162129014Y-112548709D01*
X162084867Y-112602864D01*
X162062177Y-112615171D01*
X162042160Y-112623462D01*
X161916717Y-112719717D01*
X161820463Y-112845159D01*
X161759956Y-112991237D01*
X161759956Y-112991238D01*
X161744500Y-113108639D01*
X161744500Y-113112691D01*
X161744500Y-113112692D01*
X161744500Y-114883305D01*
X161744500Y-114883320D01*
X161744501Y-114887360D01*
X161745029Y-114891373D01*
X161745030Y-114891384D01*
X161759955Y-115004760D01*
X161820464Y-115150841D01*
X161916717Y-115276282D01*
X162042158Y-115372535D01*
X162042159Y-115372536D01*
X162188238Y-115433044D01*
X162305639Y-115448500D01*
X164084360Y-115448499D01*
X164201762Y-115433044D01*
X164347841Y-115372536D01*
X164473282Y-115276282D01*
X164569536Y-115150841D01*
X164630044Y-115004762D01*
X164645500Y-114887361D01*
X164645499Y-113108640D01*
X164630044Y-112991238D01*
X164569536Y-112845159D01*
X164547139Y-112815970D01*
X164473282Y-112719717D01*
X164347839Y-112623462D01*
X164327823Y-112615171D01*
X164273420Y-112571330D01*
X164251356Y-112505035D01*
X164268636Y-112437336D01*
X164284048Y-112416628D01*
X164343567Y-112351973D01*
X164343571Y-112351969D01*
X164475049Y-112150728D01*
X164571610Y-111930591D01*
X164630620Y-111697563D01*
X164650471Y-111458000D01*
X164630620Y-111218437D01*
X164571610Y-110985409D01*
X164475049Y-110765272D01*
X164343571Y-110564031D01*
X164180764Y-110387175D01*
X164155265Y-110367329D01*
X164050586Y-110285853D01*
X164009773Y-110229143D01*
X164006098Y-110159370D01*
X164040730Y-110098687D01*
X164050586Y-110090147D01*
X164088955Y-110060282D01*
X164180764Y-109988825D01*
X164343571Y-109811969D01*
X164475049Y-109610728D01*
X164571610Y-109390591D01*
X164630620Y-109157563D01*
X164650471Y-108918000D01*
X164630620Y-108678437D01*
X164571610Y-108445409D01*
X164475049Y-108225272D01*
X164343571Y-108024031D01*
X164180764Y-107847175D01*
X164072538Y-107762939D01*
X163991069Y-107699529D01*
X163981569Y-107694388D01*
X163931979Y-107645167D01*
X163916872Y-107576951D01*
X163941044Y-107511395D01*
X163969464Y-107483759D01*
X164066081Y-107416106D01*
X164233106Y-107249081D01*
X164368600Y-107055576D01*
X164468430Y-106841492D01*
X164525636Y-106628000D01*
X163628686Y-106628000D01*
X163654493Y-106587844D01*
X163695000Y-106449889D01*
X163695000Y-106306111D01*
X163654493Y-106168156D01*
X163628686Y-106128000D01*
X164525636Y-106128000D01*
X164525635Y-106127999D01*
X164468430Y-105914507D01*
X164368599Y-105700421D01*
X164233109Y-105506921D01*
X164066081Y-105339893D01*
X163872576Y-105204399D01*
X163658492Y-105104569D01*
X163445000Y-105047364D01*
X163445000Y-105942498D01*
X163337315Y-105893320D01*
X163230763Y-105878000D01*
X163159237Y-105878000D01*
X163052685Y-105893320D01*
X162945000Y-105942498D01*
X162945000Y-105047364D01*
X162944999Y-105047364D01*
X162731507Y-105104569D01*
X162517421Y-105204400D01*
X162323921Y-105339890D01*
X162156890Y-105506921D01*
X162021400Y-105700421D01*
X161921569Y-105914507D01*
X161864364Y-106127999D01*
X161864364Y-106128000D01*
X162761314Y-106128000D01*
X162735507Y-106168156D01*
X162695000Y-106306111D01*
X162695000Y-106449889D01*
X162735507Y-106587844D01*
X162761314Y-106628000D01*
X161864364Y-106628000D01*
X161921569Y-106841492D01*
X162021399Y-107055576D01*
X162156893Y-107249081D01*
X162323922Y-107416110D01*
X162420535Y-107483760D01*
X162464160Y-107538337D01*
X162471352Y-107607835D01*
X162439830Y-107670190D01*
X162408433Y-107694386D01*
X162398933Y-107699527D01*
X162209239Y-107847172D01*
X162209236Y-107847174D01*
X162209236Y-107847175D01*
X162046429Y-108024031D01*
X161994190Y-108103989D01*
X161914950Y-108225274D01*
X161818391Y-108445407D01*
X161759379Y-108678441D01*
X161739528Y-108917999D01*
X161759379Y-109157558D01*
X161759379Y-109157561D01*
X161759380Y-109157563D01*
X161818390Y-109390591D01*
X161914951Y-109610728D01*
X162046429Y-109811969D01*
X162209236Y-109988825D01*
X162209239Y-109988827D01*
X162339414Y-110090147D01*
X162380227Y-110146857D01*
X162383902Y-110216630D01*
X162349270Y-110277313D01*
X162339414Y-110285853D01*
X162209239Y-110387172D01*
X162209236Y-110387174D01*
X162209236Y-110387175D01*
X162046429Y-110564031D01*
X161914951Y-110765272D01*
X161818390Y-110985409D01*
X161782484Y-111127202D01*
X161759379Y-111218441D01*
X161739528Y-111457999D01*
X157960500Y-111457999D01*
X157960500Y-97456812D01*
X157960909Y-97446749D01*
X157962606Y-97425905D01*
X157965201Y-97394040D01*
X157954490Y-97315431D01*
X157954086Y-97312126D01*
X157951261Y-97286150D01*
X157945514Y-97233297D01*
X157945513Y-97233296D01*
X157945501Y-97233178D01*
X157940270Y-97210857D01*
X157926749Y-97174054D01*
X157912877Y-97136293D01*
X157911762Y-97133127D01*
X157899410Y-97096468D01*
X157886444Y-97057986D01*
X157886441Y-97057982D01*
X157886404Y-97057870D01*
X157876496Y-97037192D01*
X157876432Y-97037093D01*
X157876432Y-97037091D01*
X157833715Y-96970262D01*
X157831957Y-96967428D01*
X157799310Y-96913167D01*
X157791070Y-96899471D01*
X157791067Y-96899468D01*
X157791010Y-96899373D01*
X157776882Y-96881301D01*
X157720748Y-96825167D01*
X157718406Y-96822761D01*
X157663770Y-96765083D01*
X157645877Y-96750296D01*
X157096819Y-96201237D01*
X157063334Y-96139914D01*
X157060500Y-96113556D01*
X157060500Y-86194227D01*
X157080185Y-86127188D01*
X157088644Y-86115566D01*
X157096710Y-86105738D01*
X157189614Y-85931927D01*
X157246824Y-85743332D01*
X157266141Y-85547200D01*
X157246824Y-85351068D01*
X157189614Y-85162473D01*
X157096710Y-84988662D01*
X156971683Y-84836317D01*
X156819338Y-84711290D01*
X156796891Y-84699292D01*
X156645526Y-84618385D01*
X156456933Y-84561176D01*
X156272346Y-84542996D01*
X156207559Y-84516835D01*
X156167200Y-84459801D01*
X156160500Y-84419593D01*
X156160500Y-81534000D01*
X160020000Y-81534000D01*
X160020000Y-102616000D01*
X167386000Y-102616000D01*
X167386000Y-81534000D01*
X160020000Y-81534000D01*
X156160500Y-81534000D01*
X156160500Y-74313605D01*
X156160909Y-74303542D01*
X156165201Y-74250833D01*
X156154490Y-74172224D01*
X156154086Y-74168919D01*
X156145501Y-74089971D01*
X156140270Y-74067650D01*
X156112868Y-73993061D01*
X156111753Y-73989894D01*
X156086405Y-73914662D01*
X156076493Y-73893980D01*
X156076434Y-73893889D01*
X156076433Y-73893884D01*
X156033699Y-73827029D01*
X156031941Y-73824193D01*
X155991009Y-73756161D01*
X155976886Y-73738097D01*
X155920731Y-73681942D01*
X155918389Y-73679536D01*
X155863768Y-73621874D01*
X155845882Y-73607093D01*
X155420776Y-73181987D01*
X155387291Y-73120664D01*
X155384881Y-73084068D01*
X155399471Y-72908000D01*
X155379620Y-72668437D01*
X155320610Y-72435409D01*
X155224049Y-72215272D01*
X155092571Y-72014031D01*
X154929764Y-71837175D01*
X154906914Y-71819390D01*
X154799585Y-71735852D01*
X154758772Y-71679142D01*
X154755099Y-71609369D01*
X154789730Y-71548686D01*
X154799568Y-71540160D01*
X154929764Y-71438825D01*
X155092571Y-71261969D01*
X155224049Y-71060728D01*
X155320610Y-70840591D01*
X155379620Y-70607563D01*
X155399471Y-70368000D01*
X155379620Y-70128437D01*
X155320610Y-69895409D01*
X155224049Y-69675272D01*
X155092571Y-69474031D01*
X154961376Y-69331515D01*
X154930456Y-69268863D01*
X154938316Y-69199437D01*
X154982463Y-69145282D01*
X155009276Y-69131353D01*
X155036087Y-69121353D01*
X155151188Y-69035188D01*
X155237352Y-68920089D01*
X155287599Y-68785371D01*
X155293645Y-68729132D01*
X155294000Y-68722518D01*
X155294000Y-68078000D01*
X154377686Y-68078000D01*
X154403493Y-68037844D01*
X154444000Y-67899889D01*
X154444000Y-67756111D01*
X154403493Y-67618156D01*
X154377686Y-67578000D01*
X155294000Y-67578000D01*
X155294000Y-66933481D01*
X155293645Y-66926867D01*
X155287599Y-66870628D01*
X155237352Y-66735910D01*
X155151188Y-66620811D01*
X155036089Y-66534647D01*
X154901371Y-66484400D01*
X154845132Y-66478354D01*
X154838518Y-66478000D01*
X154194000Y-66478000D01*
X154194000Y-67392498D01*
X154086315Y-67343320D01*
X153979763Y-67328000D01*
X153908237Y-67328000D01*
X153801685Y-67343320D01*
X153694000Y-67392498D01*
X153694000Y-66478000D01*
X153049482Y-66478000D01*
X153042867Y-66478354D01*
X152986628Y-66484400D01*
X152851910Y-66534647D01*
X152736811Y-66620811D01*
X152650647Y-66735910D01*
X152600400Y-66870628D01*
X152594354Y-66926867D01*
X152594000Y-66933481D01*
X152594000Y-67578000D01*
X153510314Y-67578000D01*
X153484507Y-67618156D01*
X153444000Y-67756111D01*
X153444000Y-67899889D01*
X153484507Y-68037844D01*
X153510314Y-68078000D01*
X152594000Y-68078000D01*
X152594000Y-68722518D01*
X152594354Y-68729132D01*
X152600400Y-68785371D01*
X152650647Y-68920089D01*
X152736811Y-69035188D01*
X152851911Y-69121352D01*
X152878724Y-69131353D01*
X152934658Y-69173224D01*
X152959075Y-69238688D01*
X152944224Y-69306961D01*
X152926621Y-69331518D01*
X152795430Y-69474030D01*
X152663950Y-69675274D01*
X152567391Y-69895407D01*
X152508379Y-70128441D01*
X152488528Y-70367995D01*
X152503117Y-70544068D01*
X152489035Y-70612504D01*
X152467221Y-70641988D01*
X151826610Y-71282599D01*
X151819208Y-71289424D01*
X151778898Y-71323664D01*
X151730922Y-71386773D01*
X151728859Y-71389412D01*
X151679086Y-71451335D01*
X151666998Y-71470824D01*
X151633644Y-71542916D01*
X151632194Y-71545941D01*
X151596908Y-71617090D01*
X151589293Y-71638719D01*
X151572219Y-71716283D01*
X151571453Y-71719549D01*
X151552289Y-71796610D01*
X151549500Y-71819390D01*
X151549500Y-71898772D01*
X151549455Y-71902129D01*
X151547303Y-71981550D01*
X151549500Y-72004650D01*
X151549500Y-97227697D01*
X151534858Y-97286150D01*
X151471186Y-97405271D01*
X151431975Y-97534529D01*
X151400996Y-97586213D01*
X146496030Y-102491181D01*
X146434707Y-102524666D01*
X146408349Y-102527500D01*
X134824417Y-102527500D01*
X134814354Y-102527091D01*
X134798715Y-102525817D01*
X134761644Y-102522799D01*
X134761643Y-102522799D01*
X134761642Y-102522799D01*
X134683075Y-102533502D01*
X134679747Y-102533910D01*
X134615319Y-102540917D01*
X134600901Y-102542486D01*
X134600900Y-102542486D01*
X134600783Y-102542499D01*
X134578447Y-102547734D01*
X134503886Y-102575125D01*
X134500723Y-102576239D01*
X134425488Y-102601590D01*
X134404784Y-102611510D01*
X134337870Y-102654280D01*
X134335019Y-102656049D01*
X134266976Y-102696989D01*
X134248906Y-102711116D01*
X134192770Y-102767251D01*
X134190367Y-102769589D01*
X134132686Y-102824229D01*
X134117905Y-102842115D01*
X131770610Y-105189410D01*
X131763208Y-105196235D01*
X131722898Y-105230475D01*
X131674922Y-105293584D01*
X131672859Y-105296223D01*
X131623086Y-105358146D01*
X131610998Y-105377635D01*
X131577644Y-105449727D01*
X131576194Y-105452752D01*
X131540908Y-105523901D01*
X131533293Y-105545530D01*
X131516219Y-105623094D01*
X131515453Y-105626360D01*
X131496289Y-105703421D01*
X131493500Y-105726201D01*
X131493500Y-105805583D01*
X131493455Y-105808940D01*
X131491303Y-105888361D01*
X131493500Y-105911461D01*
X131493500Y-107528393D01*
X131493091Y-107538456D01*
X131488799Y-107591167D01*
X104140000Y-107591167D01*
X104140000Y-94993000D01*
X104159685Y-94925961D01*
X104212489Y-94880206D01*
X104264000Y-94869000D01*
X131633211Y-94869000D01*
X131700250Y-94888685D01*
X131746005Y-94941489D01*
X131755949Y-95010647D01*
X131753546Y-95022926D01*
X131738814Y-95082161D01*
X131736141Y-95121579D01*
X131736140Y-95121608D01*
X131736000Y-95123673D01*
X131736000Y-95125769D01*
X131736000Y-95125770D01*
X131736000Y-97170225D01*
X131736000Y-97170254D01*
X131736001Y-97172326D01*
X131736142Y-97174418D01*
X131736143Y-97174423D01*
X131738814Y-97213837D01*
X131783440Y-97393284D01*
X131865597Y-97558937D01*
X131893676Y-97593868D01*
X131981444Y-97703056D01*
X132056816Y-97763642D01*
X132125562Y-97818902D01*
X132125563Y-97818902D01*
X132125564Y-97818903D01*
X132291217Y-97901060D01*
X132470660Y-97945685D01*
X132512173Y-97948500D01*
X132925480Y-97948499D01*
X132992517Y-97968183D01*
X133038272Y-98020987D01*
X133048216Y-98090146D01*
X133019191Y-98153702D01*
X132962029Y-98190990D01*
X132876858Y-98217262D01*
X132633728Y-98334347D01*
X132410757Y-98486366D01*
X132212939Y-98669915D01*
X132044684Y-98880899D01*
X131909757Y-99114601D01*
X131811166Y-99365804D01*
X131751116Y-99628899D01*
X131730950Y-99898000D01*
X131751116Y-100167100D01*
X131751117Y-100167103D01*
X131811166Y-100430195D01*
X131909757Y-100681398D01*
X132044685Y-100915102D01*
X132212939Y-101126085D01*
X132410759Y-101309635D01*
X132633726Y-101461651D01*
X132876859Y-101578738D01*
X133134728Y-101658280D01*
X133401571Y-101698500D01*
X133671429Y-101698500D01*
X133938272Y-101658280D01*
X134196141Y-101578738D01*
X134439275Y-101461651D01*
X134662241Y-101309635D01*
X134860061Y-101126085D01*
X135028315Y-100915102D01*
X135163243Y-100681398D01*
X135261834Y-100430195D01*
X135321883Y-100167103D01*
X135342049Y-99898000D01*
X135321883Y-99628897D01*
X135261834Y-99365805D01*
X135163243Y-99114602D01*
X135028315Y-98880898D01*
X134860061Y-98669915D01*
X134812635Y-98625910D01*
X134662243Y-98486366D01*
X134604705Y-98447137D01*
X134439275Y-98334349D01*
X134196141Y-98217262D01*
X134110968Y-98190989D01*
X134052710Y-98152420D01*
X134024552Y-98088475D01*
X134035436Y-98019458D01*
X134081904Y-97967281D01*
X134147518Y-97948499D01*
X134560826Y-97948499D01*
X134602340Y-97945685D01*
X134781783Y-97901060D01*
X134947436Y-97818903D01*
X135091556Y-97703056D01*
X135207403Y-97558936D01*
X135289560Y-97393283D01*
X135334185Y-97213840D01*
X135337000Y-97172327D01*
X135336999Y-95123674D01*
X135334185Y-95082160D01*
X135319454Y-95022924D01*
X135322378Y-94953117D01*
X135362579Y-94895971D01*
X135427293Y-94869631D01*
X135439789Y-94869000D01*
X138430000Y-94869000D01*
X138430000Y-79680362D01*
X138449685Y-79613323D01*
X138466319Y-79592681D01*
X152363681Y-65695319D01*
X152425004Y-65661834D01*
X152451362Y-65659000D01*
X161290000Y-65659000D01*
X161290000Y-53721563D01*
X161309685Y-53654524D01*
X161362489Y-53608769D01*
X161414000Y-53597564D01*
X166313910Y-53597869D01*
G37*
%TD.AperFunction*%
%TD*%
D27*
X105664000Y-126238000D02*
G75*
G03*
X105664000Y-126238000I-1524000J0D01*
G01*
X101600000Y-50934000D02*
X170976000Y-50934000D01*
X170976000Y-128778000D01*
X101600000Y-128778000D01*
X101600000Y-50934000D01*
X105664000Y-53594000D02*
G75*
G03*
X105664000Y-53594000I-1524000J0D01*
G01*
X169926000Y-126238000D02*
G75*
G03*
X169926000Y-126238000I-1524000J0D01*
G01*
X169926000Y-53594000D02*
G75*
G03*
X169926000Y-53594000I-1524000J0D01*
G01*
M02*
