%TF.GenerationSoftware,KiCad,Pcbnew,7.0.2-6a45011f42~172~ubuntu22.10.1*%
%TF.CreationDate,2023-08-16T11:39:27+05:00*%
%TF.ProjectId,IOTV,494f5456-2e6b-4696-9361-645f70636258,3*%
%TF.SameCoordinates,Original*%
%TF.FileFunction,Copper,L1,Top*%
%TF.FilePolarity,Positive*%
%FSLAX46Y46*%
G04 Gerber Fmt 4.6, Leading zero omitted, Abs format (unit mm)*
G04 Created by KiCad (PCBNEW 7.0.2-6a45011f42~172~ubuntu22.10.1) date 2023-08-16 11:39:27*
%MOMM*%
%LPD*%
G01*
G04 APERTURE LIST*
G04 Aperture macros list*
%AMRoundRect*
0 Rectangle with rounded corners*
0 $1 Rounding radius*
0 $2 $3 $4 $5 $6 $7 $8 $9 X,Y pos of 4 corners*
0 Add a 4 corners polygon primitive as box body*
4,1,4,$2,$3,$4,$5,$6,$7,$8,$9,$2,$3,0*
0 Add four circle primitives for the rounded corners*
1,1,$1+$1,$2,$3*
1,1,$1+$1,$4,$5*
1,1,$1+$1,$6,$7*
1,1,$1+$1,$8,$9*
0 Add four rect primitives between the rounded corners*
20,1,$1+$1,$2,$3,$4,$5,0*
20,1,$1+$1,$4,$5,$6,$7,0*
20,1,$1+$1,$6,$7,$8,$9,0*
20,1,$1+$1,$8,$9,$2,$3,0*%
%AMFreePoly0*
4,1,18,0.843072,1.985355,1.985355,0.843072,2.000000,0.807717,2.000000,-0.807717,1.985355,-0.843072,0.843072,-1.985355,0.807717,-2.000000,0.000000,-2.000000,-0.807717,-2.000000,-0.843072,-1.985354,-1.985355,-0.843072,-2.000000,-0.807717,-2.000000,0.807717,-1.985354,0.843072,-0.843072,1.985355,-0.807717,2.000000,0.807717,2.000000,0.843072,1.985355,0.843072,1.985355,$1*%
G04 Aperture macros list end*
%TA.AperFunction,ComponentPad*%
%ADD10C,2.000000*%
%TD*%
%TA.AperFunction,ComponentPad*%
%ADD11R,1.700000X1.700000*%
%TD*%
%TA.AperFunction,ComponentPad*%
%ADD12O,1.700000X1.700000*%
%TD*%
%TA.AperFunction,SMDPad,CuDef*%
%ADD13R,1.500000X0.900000*%
%TD*%
%TA.AperFunction,SMDPad,CuDef*%
%ADD14R,0.900000X1.500000*%
%TD*%
%TA.AperFunction,SMDPad,CuDef*%
%ADD15R,0.900000X0.900000*%
%TD*%
%TA.AperFunction,SMDPad,CuDef*%
%ADD16R,1.700000X1.000000*%
%TD*%
%TA.AperFunction,ComponentPad*%
%ADD17C,2.500000*%
%TD*%
%TA.AperFunction,SMDPad,CuDef*%
%ADD18RoundRect,0.250000X0.325000X0.650000X-0.325000X0.650000X-0.325000X-0.650000X0.325000X-0.650000X0*%
%TD*%
%TA.AperFunction,ComponentPad*%
%ADD19C,4.000000*%
%TD*%
%TA.AperFunction,ComponentPad*%
%ADD20FreePoly0,0.000000*%
%TD*%
%TA.AperFunction,ComponentPad*%
%ADD21R,1.500000X1.500000*%
%TD*%
%TA.AperFunction,ComponentPad*%
%ADD22C,1.500000*%
%TD*%
%TA.AperFunction,SMDPad,CuDef*%
%ADD23RoundRect,0.250000X0.625000X-0.312500X0.625000X0.312500X-0.625000X0.312500X-0.625000X-0.312500X0*%
%TD*%
%TA.AperFunction,ComponentPad*%
%ADD24R,2.600000X2.600000*%
%TD*%
%TA.AperFunction,ComponentPad*%
%ADD25C,2.600000*%
%TD*%
%TA.AperFunction,ComponentPad*%
%ADD26C,1.700000*%
%TD*%
%TA.AperFunction,ComponentPad*%
%ADD27R,3.000000X3.000000*%
%TD*%
%TA.AperFunction,ComponentPad*%
%ADD28C,3.000000*%
%TD*%
%TA.AperFunction,SMDPad,CuDef*%
%ADD29RoundRect,0.250000X-0.650000X0.325000X-0.650000X-0.325000X0.650000X-0.325000X0.650000X0.325000X0*%
%TD*%
%TA.AperFunction,ViaPad*%
%ADD30C,0.800000*%
%TD*%
%TA.AperFunction,Conductor*%
%ADD31C,0.500000*%
%TD*%
%TA.AperFunction,Conductor*%
%ADD32C,2.500000*%
%TD*%
%TA.AperFunction,Profile*%
%ADD33C,0.150000*%
%TD*%
G04 APERTURE END LIST*
D10*
%TO.P,C5,1*%
%TO.N,~220*%
X117694000Y-67998000D03*
%TO.P,C5,2*%
%TO.N,SSD-1*%
X107694000Y-67998000D03*
%TD*%
D11*
%TO.P,J8,1,Pin_1*%
%TO.N,GND*%
X150693000Y-79454000D03*
D12*
%TO.P,J8,2,Pin_2*%
%TO.N,U0TX*%
X150693000Y-76914000D03*
%TO.P,J8,3,Pin_3*%
%TO.N,U0RX*%
X150693000Y-74374000D03*
%TO.P,J8,4,Pin_4*%
%TO.N,+3.3V*%
X150693000Y-71834000D03*
%TD*%
D13*
%TO.P,U1,1,GND*%
%TO.N,GND*%
X148195000Y-95250000D03*
%TO.P,U1,2,3V3*%
%TO.N,+3.3V*%
X148195000Y-96520000D03*
%TO.P,U1,3,EN/CHIP_PU*%
%TO.N,EN*%
X148195000Y-97790000D03*
%TO.P,U1,4,SENSOR_VP/GPIO36/ADC1_CH0*%
%TO.N,unconnected-(U1-SENSOR_VP{slash}GPIO36{slash}ADC1_CH0-Pad4)*%
X148195000Y-99060000D03*
%TO.P,U1,5,SENSOR_VN/GPIO39/ADC1_CH3*%
%TO.N,unconnected-(U1-SENSOR_VN{slash}GPIO39{slash}ADC1_CH3-Pad5)*%
X148195000Y-100330000D03*
%TO.P,U1,6,GPIO34/ADC1_CH6*%
%TO.N,GPIO34*%
X148195000Y-101600000D03*
%TO.P,U1,7,GPIO35/ADC1_CH7*%
%TO.N,unconnected-(U1-GPIO35{slash}ADC1_CH7-Pad7)*%
X148195000Y-102870000D03*
%TO.P,U1,8,32K_XP/GPIO32/ADC1_CH4*%
%TO.N,unconnected-(U1-32K_XP{slash}GPIO32{slash}ADC1_CH4-Pad8)*%
X148195000Y-104140000D03*
%TO.P,U1,9,32K_XN/GPIO33/ADC1_CH5*%
%TO.N,unconnected-(U1-32K_XN{slash}GPIO33{slash}ADC1_CH5-Pad9)*%
X148195000Y-105410000D03*
%TO.P,U1,10,DAC_1/ADC2_CH8/GPIO25*%
%TO.N,unconnected-(U1-DAC_1{slash}ADC2_CH8{slash}GPIO25-Pad10)*%
X148195000Y-106680000D03*
%TO.P,U1,11,DAC_2/ADC2_CH9/GPIO26*%
%TO.N,unconnected-(U1-DAC_2{slash}ADC2_CH9{slash}GPIO26-Pad11)*%
X148195000Y-107950000D03*
%TO.P,U1,12,ADC2_CH7/GPIO27*%
%TO.N,unconnected-(U1-ADC2_CH7{slash}GPIO27-Pad12)*%
X148195000Y-109220000D03*
%TO.P,U1,13,MTMS/GPIO14/ADC2_CH6*%
%TO.N,unconnected-(U1-MTMS{slash}GPIO14{slash}ADC2_CH6-Pad13)*%
X148195000Y-110490000D03*
%TO.P,U1,14,MTDI/GPIO12/ADC2_CH5*%
%TO.N,unconnected-(U1-MTDI{slash}GPIO12{slash}ADC2_CH5-Pad14)*%
X148195000Y-111760000D03*
D14*
%TO.P,U1,15,GND*%
%TO.N,GND*%
X151225000Y-113010000D03*
%TO.P,U1,16,MTCK/GPIO13/ADC2_CH4*%
%TO.N,unconnected-(U1-MTCK{slash}GPIO13{slash}ADC2_CH4-Pad16)*%
X152495000Y-113010000D03*
%TO.P,U1,17*%
%TO.N,N/C*%
X153765000Y-113010000D03*
%TO.P,U1,18*%
X155035000Y-113010000D03*
%TO.P,U1,19*%
X156305000Y-113010000D03*
%TO.P,U1,20*%
X157575000Y-113010000D03*
%TO.P,U1,21*%
X158845000Y-113010000D03*
%TO.P,U1,22*%
X160115000Y-113010000D03*
%TO.P,U1,23,MTDO/GPIO15/ADC2_CH3*%
%TO.N,unconnected-(U1-MTDO{slash}GPIO15{slash}ADC2_CH3-Pad23)*%
X161385000Y-113010000D03*
%TO.P,U1,24,ADC2_CH2/GPIO2*%
%TO.N,unconnected-(U1-ADC2_CH2{slash}GPIO2-Pad24)*%
X162655000Y-113010000D03*
D13*
%TO.P,U1,25,GPIO0/BOOT/ADC2_CH1*%
%TO.N,GPIO0*%
X165695000Y-111760000D03*
%TO.P,U1,26,ADC2_CH0/GPIO4*%
%TO.N,unconnected-(U1-ADC2_CH0{slash}GPIO4-Pad26)*%
X165695000Y-110490000D03*
%TO.P,U1,27,GPIO16*%
%TO.N,unconnected-(U1-GPIO16-Pad27)*%
X165695000Y-109220000D03*
%TO.P,U1,28,GPIO17*%
%TO.N,unconnected-(U1-GPIO17-Pad28)*%
X165695000Y-107950000D03*
%TO.P,U1,29,GPIO5*%
%TO.N,unconnected-(U1-GPIO5-Pad29)*%
X165695000Y-106680000D03*
%TO.P,U1,30,GPIO18*%
%TO.N,unconnected-(U1-GPIO18-Pad30)*%
X165695000Y-105410000D03*
%TO.P,U1,31,GPIO19*%
%TO.N,unconnected-(U1-GPIO19-Pad31)*%
X165695000Y-104140000D03*
%TO.P,U1,32*%
%TO.N,N/C*%
X165695000Y-102870000D03*
%TO.P,U1,33,GPIO21*%
%TO.N,SDA*%
X165695000Y-101600000D03*
%TO.P,U1,34,U0RXD/GPIO3*%
%TO.N,U0RX*%
X165695000Y-100330000D03*
%TO.P,U1,35,U0TXD/GPIO1*%
%TO.N,U0TX*%
X165695000Y-99060000D03*
%TO.P,U1,36,GPIO22*%
%TO.N,SCL*%
X165695000Y-97790000D03*
%TO.P,U1,37,GPIO23*%
%TO.N,unconnected-(U1-GPIO23-Pad37)*%
X165695000Y-96520000D03*
%TO.P,U1,38,GND*%
%TO.N,GND*%
X165695000Y-95250000D03*
D15*
%TO.P,U1,39,GND_THERMAL*%
X154045000Y-101570000D03*
X154045000Y-101570000D03*
X154045000Y-102970000D03*
X154045000Y-104370000D03*
X154045000Y-104370000D03*
X155445000Y-101570000D03*
X155445000Y-102970000D03*
X155445000Y-104370000D03*
X155445000Y-104370000D03*
X156845000Y-101570000D03*
X156845000Y-102970000D03*
X156845000Y-104370000D03*
%TD*%
D16*
%TO.P,SW2,1,1*%
%TO.N,GPIO0*%
X158850000Y-120098000D03*
X165150000Y-120098000D03*
%TO.P,SW2,2,2*%
%TO.N,GND*%
X158850000Y-123898000D03*
X165150000Y-123898000D03*
%TD*%
D11*
%TO.P,J3,1,Pin_1*%
%TO.N,GND*%
X134025000Y-102680000D03*
D12*
%TO.P,J3,2,Pin_2*%
%TO.N,+3.3V*%
X136565000Y-102680000D03*
%TO.P,J3,3,Pin_3*%
%TO.N,SDA*%
X139105000Y-102680000D03*
%TO.P,J3,4,Pin_4*%
%TO.N,SCL*%
X141645000Y-102680000D03*
%TD*%
D17*
%TO.P,U2,11*%
%TO.N,SSD-1*%
X137820400Y-71602600D03*
%TO.P,U2,14*%
%TO.N,SSD-2*%
X137820400Y-79095600D03*
%TO.P,U2,A1*%
%TO.N,GPIO34*%
X137820400Y-85572600D03*
%TO.P,U2,A2*%
%TO.N,GND*%
X137820400Y-90652600D03*
%TD*%
D11*
%TO.P,J5,1,Pin_1*%
%TO.N,GND*%
X134025000Y-110680000D03*
D12*
%TO.P,J5,2,Pin_2*%
%TO.N,+3.3V*%
X136565000Y-110680000D03*
%TO.P,J5,3,Pin_3*%
%TO.N,SDA*%
X139105000Y-110680000D03*
%TO.P,J5,4,Pin_4*%
%TO.N,SCL*%
X141645000Y-110680000D03*
%TD*%
D18*
%TO.P,C4,1*%
%TO.N,Net-(C4-Pad1)*%
X151335000Y-117297200D03*
%TO.P,C4,2*%
%TO.N,GND*%
X148385000Y-117297200D03*
%TD*%
D19*
%TO.P,F1,1*%
%TO.N,Net-(J1-Pin_1)*%
X121506000Y-58513000D03*
D20*
%TO.P,F1,2*%
%TO.N,~220*%
X145636000Y-58513000D03*
%TD*%
D21*
%TO.P,PS1,1,AC1*%
%TO.N,Net-(PS1-AC1)*%
X121265200Y-90170000D03*
D22*
%TO.P,PS1,2,AC2*%
%TO.N,Net-(PS1-AC2)*%
X115265200Y-90170000D03*
%TO.P,PS1,3,-VO*%
%TO.N,GND*%
X127265200Y-123770000D03*
%TO.P,PS1,4,+VO*%
%TO.N,+3.3V*%
X109265200Y-123770000D03*
%TD*%
D23*
%TO.P,R2,1*%
%TO.N,Net-(C4-Pad1)*%
X153000000Y-124256500D03*
%TO.P,R2,2*%
%TO.N,EN*%
X153000000Y-121331500D03*
%TD*%
D24*
%TO.P,J1,1,Pin_1*%
%TO.N,Net-(J1-Pin_1)*%
X114944000Y-58193000D03*
D25*
%TO.P,J1,2,Pin_2*%
%TO.N,SSD-1*%
X109944000Y-58193000D03*
%TD*%
D11*
%TO.P,J4,1,Pin_1*%
%TO.N,GND*%
X134025000Y-106680000D03*
D12*
%TO.P,J4,2,Pin_2*%
%TO.N,+3.3V*%
X136565000Y-106680000D03*
%TO.P,J4,3,Pin_3*%
%TO.N,SDA*%
X139105000Y-106680000D03*
%TO.P,J4,4,Pin_4*%
%TO.N,SCL*%
X141645000Y-106680000D03*
%TD*%
D16*
%TO.P,SW1,1,1*%
%TO.N,Net-(C4-Pad1)*%
X142850000Y-120098000D03*
X149150000Y-120098000D03*
%TO.P,SW1,2,2*%
%TO.N,GND*%
X142850000Y-123898000D03*
X149150000Y-123898000D03*
%TD*%
D11*
%TO.P,C6,1*%
%TO.N,+3.3V*%
X137639800Y-122072400D03*
D26*
%TO.P,C6,2*%
%TO.N,GND*%
X132639800Y-122072400D03*
%TD*%
D27*
%TO.P,FL1,1,1*%
%TO.N,Net-(PS1-AC1)*%
X121171000Y-83982750D03*
D28*
%TO.P,FL1,2,2*%
%TO.N,~220*%
X121171000Y-74076750D03*
%TO.P,FL1,3,3*%
%TO.N,SSD-1*%
X108217000Y-74076750D03*
%TO.P,FL1,4,4*%
%TO.N,Net-(PS1-AC2)*%
X108217000Y-83982750D03*
%TD*%
D24*
%TO.P,J2,1,Pin_1*%
%TO.N,Net-(J1-Pin_1)*%
X157444000Y-58193000D03*
D25*
%TO.P,J2,2,Pin_2*%
%TO.N,SSD-2*%
X152444000Y-58193000D03*
%TD*%
D11*
%TO.P,J6,1,Pin_1*%
%TO.N,+3.3V*%
X155480000Y-68810000D03*
D12*
%TO.P,J6,2,Pin_2*%
%TO.N,SDA*%
X158020000Y-68810000D03*
%TO.P,J6,3,Pin_3*%
%TO.N,SCL*%
X160560000Y-68810000D03*
%TO.P,J6,4,Pin_4*%
%TO.N,unconnected-(J6-Pin_4-Pad4)*%
X163100000Y-68810000D03*
%TO.P,J6,5,Pin_5*%
%TO.N,GND*%
X165640000Y-68810000D03*
%TD*%
D10*
%TO.P,RVe1,1*%
%TO.N,~220*%
X128694000Y-69998000D03*
%TO.P,RVe1,2*%
%TO.N,SSD-1*%
X126744000Y-79998000D03*
%TD*%
D29*
%TO.P,C3,1*%
%TO.N,EN*%
X156000000Y-121319000D03*
%TO.P,C3,2*%
%TO.N,GND*%
X156000000Y-124269000D03*
%TD*%
D30*
%TO.N,GND*%
X163830000Y-95250000D03*
X151231600Y-111125000D03*
%TO.N,+3.3V*%
X151130000Y-96520000D03*
%TO.N,EN*%
X151130000Y-99060000D03*
%TO.N,SDA*%
X151130000Y-101600000D03*
%TO.N,SCL*%
X151130000Y-97790000D03*
%TD*%
D31*
%TO.N,GND*%
X151225000Y-113010000D02*
X151225000Y-111131600D01*
X151225000Y-111131600D02*
X151231600Y-111125000D01*
X165695000Y-95250000D02*
X163830000Y-95250000D01*
%TO.N,+3.3V*%
X148195000Y-96520000D02*
X151130000Y-96520000D01*
%TO.N,EN*%
X151035000Y-99060000D02*
X151130000Y-99060000D01*
X150230000Y-114215000D02*
X150230000Y-99960000D01*
X156000000Y-121319000D02*
X156000000Y-118865200D01*
X149765000Y-97790000D02*
X151035000Y-99060000D01*
X152298400Y-115163600D02*
X151178600Y-115163600D01*
X156000000Y-118865200D02*
X152298400Y-115163600D01*
X156000000Y-121319000D02*
X153012500Y-121319000D01*
X148195000Y-97790000D02*
X149765000Y-97790000D01*
X153012500Y-121319000D02*
X153000000Y-121331500D01*
X150230000Y-99960000D02*
X151130000Y-99060000D01*
X151178600Y-115163600D02*
X150230000Y-114215000D01*
%TO.N,Net-(C4-Pad1)*%
X151335000Y-117297200D02*
X151335000Y-118209800D01*
X153000000Y-124256500D02*
X153000000Y-123948000D01*
X153000000Y-123948000D02*
X149150000Y-120098000D01*
X142850000Y-120098000D02*
X149150000Y-120098000D01*
X151335000Y-118209800D02*
X149446800Y-120098000D01*
X149446800Y-120098000D02*
X149150000Y-120098000D01*
%TO.N,SDA*%
X152110000Y-100620000D02*
X163465000Y-100620000D01*
X163465000Y-100620000D02*
X164445000Y-101600000D01*
X164445000Y-101600000D02*
X165695000Y-101600000D01*
X151130000Y-101600000D02*
X152110000Y-100620000D01*
%TO.N,SCL*%
X165695000Y-97790000D02*
X151130000Y-97790000D01*
D32*
%TO.N,Net-(PS1-AC2)*%
X108217000Y-83982750D02*
X114404250Y-90170000D01*
X114404250Y-90170000D02*
X115265200Y-90170000D01*
%TO.N,Net-(PS1-AC1)*%
X121265200Y-84076950D02*
X121171000Y-83982750D01*
X121265200Y-90170000D02*
X121265200Y-84076950D01*
D31*
%TO.N,U0TX*%
X166945000Y-98740000D02*
X166625000Y-99060000D01*
X155452554Y-76914000D02*
X166945000Y-88406446D01*
X166945000Y-88406446D02*
X166945000Y-98740000D01*
X166625000Y-99060000D02*
X165695000Y-99060000D01*
X150693000Y-76914000D02*
X155452554Y-76914000D01*
%TO.N,U0RX*%
X153973214Y-74374000D02*
X150693000Y-74374000D01*
X165695000Y-100330000D02*
X166625000Y-100330000D01*
X166625000Y-100330000D02*
X167695000Y-99260000D01*
X167695000Y-88095786D02*
X153973214Y-74374000D01*
X167695000Y-99260000D02*
X167695000Y-88095786D01*
%TO.N,GPIO0*%
X165695000Y-119553000D02*
X165150000Y-120098000D01*
X158850000Y-120098000D02*
X165150000Y-120098000D01*
X165695000Y-111760000D02*
X165695000Y-119553000D01*
%TO.N,GPIO34*%
X141224000Y-88976200D02*
X141224000Y-95559000D01*
X137820400Y-85572600D02*
X141224000Y-88976200D01*
X141224000Y-95559000D02*
X147265000Y-101600000D01*
X147265000Y-101600000D02*
X148195000Y-101600000D01*
%TD*%
%TA.AperFunction,Conductor*%
%TO.N,GND*%
G36*
X166312874Y-53594284D02*
G01*
X166379875Y-53614087D01*
X166425536Y-53666972D01*
X166429722Y-53677416D01*
X166841276Y-54856394D01*
X166874482Y-54951517D01*
X166874482Y-54951518D01*
X168328335Y-55597280D01*
X168381612Y-55642483D01*
X168401993Y-55709314D01*
X168402000Y-55710604D01*
X168402000Y-87300635D01*
X168382315Y-87367674D01*
X168329511Y-87413429D01*
X168260353Y-87423373D01*
X168196797Y-87394348D01*
X168190319Y-87388316D01*
X154602614Y-73800611D01*
X154595787Y-73793205D01*
X154561555Y-73752904D01*
X154561553Y-73752902D01*
X154561551Y-73752900D01*
X154498381Y-73704879D01*
X154495836Y-73702889D01*
X154433968Y-73653158D01*
X154433965Y-73653156D01*
X154433880Y-73653088D01*
X154414388Y-73640997D01*
X154342296Y-73607643D01*
X154339271Y-73606193D01*
X154268121Y-73570907D01*
X154246494Y-73563292D01*
X154168947Y-73546223D01*
X154165678Y-73545457D01*
X154088600Y-73526289D01*
X154065830Y-73523500D01*
X154065711Y-73523500D01*
X153986441Y-73523500D01*
X153983084Y-73523455D01*
X153903662Y-73521303D01*
X153880564Y-73523500D01*
X152542859Y-73523500D01*
X152497866Y-73515049D01*
X151632851Y-73178223D01*
X151577523Y-73135555D01*
X151554046Y-73069747D01*
X151569874Y-73001694D01*
X151601681Y-72964821D01*
X151678764Y-72904825D01*
X151841571Y-72727969D01*
X151973049Y-72526728D01*
X152069610Y-72306591D01*
X152128620Y-72073563D01*
X152148471Y-71834000D01*
X152128620Y-71594437D01*
X152069610Y-71361409D01*
X151973049Y-71141272D01*
X151841571Y-70940031D01*
X151678764Y-70763175D01*
X151657370Y-70746523D01*
X151489072Y-70615531D01*
X151489068Y-70615528D01*
X151489067Y-70615528D01*
X151277656Y-70501118D01*
X151277655Y-70501117D01*
X151277652Y-70501116D01*
X151050299Y-70423066D01*
X150892227Y-70396688D01*
X150813192Y-70383500D01*
X150572808Y-70383500D01*
X150513531Y-70393391D01*
X150335700Y-70423066D01*
X150108347Y-70501116D01*
X149896927Y-70615531D01*
X149707239Y-70763172D01*
X149544430Y-70940030D01*
X149412950Y-71141274D01*
X149316391Y-71361407D01*
X149257379Y-71594441D01*
X149237528Y-71833999D01*
X149257379Y-72073558D01*
X149257379Y-72073561D01*
X149257380Y-72073563D01*
X149316390Y-72306591D01*
X149412951Y-72526728D01*
X149544429Y-72727969D01*
X149707236Y-72904825D01*
X149837416Y-73006148D01*
X149878227Y-73062855D01*
X149881902Y-73132628D01*
X149847271Y-73193312D01*
X149837415Y-73201852D01*
X149707236Y-73303174D01*
X149557362Y-73465980D01*
X149544429Y-73480031D01*
X149439264Y-73640997D01*
X149412950Y-73681274D01*
X149316391Y-73901407D01*
X149257379Y-74134441D01*
X149237528Y-74374000D01*
X149257379Y-74613558D01*
X149257379Y-74613561D01*
X149257380Y-74613563D01*
X149316390Y-74846591D01*
X149412951Y-75066728D01*
X149544429Y-75267969D01*
X149707236Y-75444825D01*
X149707239Y-75444827D01*
X149837414Y-75546147D01*
X149878227Y-75602857D01*
X149881902Y-75672630D01*
X149847270Y-75733313D01*
X149837414Y-75741853D01*
X149707239Y-75843172D01*
X149707236Y-75843174D01*
X149707236Y-75843175D01*
X149544429Y-76020031D01*
X149516236Y-76063184D01*
X149412950Y-76221274D01*
X149316391Y-76441407D01*
X149257379Y-76674441D01*
X149237528Y-76914000D01*
X149257379Y-77153558D01*
X149257379Y-77153561D01*
X149257380Y-77153563D01*
X149316390Y-77386591D01*
X149412951Y-77606728D01*
X149544429Y-77807969D01*
X149675621Y-77950482D01*
X149706543Y-78013136D01*
X149698683Y-78082562D01*
X149654536Y-78136717D01*
X149627726Y-78150645D01*
X149600913Y-78160646D01*
X149485811Y-78246811D01*
X149399647Y-78361910D01*
X149349400Y-78496628D01*
X149343354Y-78552867D01*
X149343000Y-78559481D01*
X149343000Y-79204000D01*
X150259314Y-79204000D01*
X150233507Y-79244156D01*
X150193000Y-79382111D01*
X150193000Y-79525889D01*
X150233507Y-79663844D01*
X150259314Y-79704000D01*
X149343000Y-79704000D01*
X149343000Y-80348518D01*
X149343354Y-80355132D01*
X149349400Y-80411371D01*
X149399647Y-80546089D01*
X149485811Y-80661188D01*
X149600910Y-80747352D01*
X149735628Y-80797599D01*
X149791867Y-80803645D01*
X149798482Y-80804000D01*
X150443000Y-80804000D01*
X150443000Y-79889501D01*
X150550685Y-79938680D01*
X150657237Y-79954000D01*
X150728763Y-79954000D01*
X150835315Y-79938680D01*
X150943000Y-79889501D01*
X150943000Y-80804000D01*
X151587518Y-80804000D01*
X151594132Y-80803645D01*
X151650371Y-80797599D01*
X151785089Y-80747352D01*
X151900188Y-80661188D01*
X151986352Y-80546089D01*
X152036599Y-80411371D01*
X152042645Y-80355132D01*
X152043000Y-80348518D01*
X152043000Y-79704000D01*
X151126686Y-79704000D01*
X151152493Y-79663844D01*
X151193000Y-79525889D01*
X151193000Y-79382111D01*
X151152493Y-79244156D01*
X151126686Y-79204000D01*
X152043000Y-79204000D01*
X152043000Y-78559481D01*
X152042645Y-78552867D01*
X152036599Y-78496628D01*
X151986352Y-78361910D01*
X151900188Y-78246810D01*
X151867030Y-78221988D01*
X151825159Y-78166054D01*
X151820175Y-78096362D01*
X151853660Y-78035039D01*
X151896342Y-78007175D01*
X152497863Y-77772951D01*
X152542857Y-77764500D01*
X155048903Y-77764500D01*
X155115942Y-77784185D01*
X155136584Y-77800819D01*
X164884084Y-87548319D01*
X164917569Y-87609642D01*
X164912585Y-87679334D01*
X164870713Y-87735267D01*
X164805249Y-87759684D01*
X164796403Y-87760000D01*
X147945000Y-87760000D01*
X147945000Y-93710000D01*
X165970500Y-93710000D01*
X166037539Y-93729685D01*
X166083294Y-93782489D01*
X166094500Y-93834000D01*
X166094500Y-94176000D01*
X166074815Y-94243039D01*
X166022011Y-94288794D01*
X165970500Y-94300000D01*
X165945000Y-94300000D01*
X165945000Y-95345500D01*
X165925315Y-95412539D01*
X165872511Y-95458294D01*
X165821000Y-95469500D01*
X164909694Y-95469500D01*
X164909678Y-95469500D01*
X164905640Y-95469501D01*
X164901627Y-95470029D01*
X164901615Y-95470030D01*
X164788241Y-95484954D01*
X164778237Y-95489098D01*
X164774705Y-95490561D01*
X164727253Y-95500000D01*
X164445000Y-95500000D01*
X164445000Y-95693090D01*
X164425315Y-95760129D01*
X164420596Y-95766839D01*
X164359956Y-95913239D01*
X164347566Y-96007353D01*
X164344500Y-96030639D01*
X164344500Y-96034691D01*
X164344500Y-96034692D01*
X164344501Y-96815500D01*
X164324817Y-96882539D01*
X164272013Y-96928294D01*
X164220501Y-96939500D01*
X152215461Y-96939500D01*
X152148422Y-96919815D01*
X152102667Y-96867011D01*
X152092723Y-96797853D01*
X152096800Y-96779505D01*
X152099543Y-96770459D01*
X152116024Y-96716132D01*
X152135341Y-96520000D01*
X152116024Y-96323868D01*
X152058814Y-96135273D01*
X151965910Y-95961462D01*
X151840883Y-95809117D01*
X151688538Y-95684090D01*
X151609266Y-95641718D01*
X151514726Y-95591185D01*
X151326133Y-95533976D01*
X151228065Y-95524317D01*
X151130000Y-95514659D01*
X151129999Y-95514659D01*
X150933867Y-95533976D01*
X150882106Y-95549677D01*
X150868964Y-95552892D01*
X150258383Y-95667376D01*
X150235531Y-95669500D01*
X149569000Y-95669500D01*
X149501961Y-95649815D01*
X149456206Y-95597011D01*
X149445000Y-95545500D01*
X149445000Y-95500000D01*
X149162748Y-95500000D01*
X149117974Y-95486853D01*
X149117944Y-95487087D01*
X149116804Y-95486936D01*
X149115303Y-95490563D01*
X149101765Y-95484956D01*
X149061738Y-95479686D01*
X149050482Y-95477672D01*
X149017952Y-95470289D01*
X149002477Y-95470539D01*
X148992377Y-95470290D01*
X148988371Y-95470027D01*
X148984361Y-95469500D01*
X148980309Y-95469500D01*
X147409694Y-95469500D01*
X147409678Y-95469500D01*
X147405640Y-95469501D01*
X147401627Y-95470029D01*
X147401615Y-95470030D01*
X147288241Y-95484954D01*
X147278237Y-95489098D01*
X147274705Y-95490561D01*
X147227253Y-95500000D01*
X146945000Y-95500000D01*
X146945000Y-95693090D01*
X146925315Y-95760129D01*
X146920596Y-95766839D01*
X146859956Y-95913239D01*
X146847566Y-96007353D01*
X146844500Y-96030639D01*
X146844500Y-96034691D01*
X146844500Y-96034692D01*
X146844500Y-97005305D01*
X146844500Y-97005320D01*
X146844501Y-97009360D01*
X146845029Y-97013373D01*
X146845030Y-97013384D01*
X146861542Y-97138816D01*
X146861542Y-97171183D01*
X146845029Y-97296616D01*
X146845028Y-97296625D01*
X146844500Y-97300639D01*
X146844500Y-97304691D01*
X146844500Y-97304692D01*
X146844500Y-98275305D01*
X146844500Y-98275320D01*
X146844501Y-98279360D01*
X146845029Y-98283373D01*
X146845030Y-98283384D01*
X146861542Y-98408816D01*
X146861542Y-98441183D01*
X146845029Y-98566616D01*
X146845028Y-98566625D01*
X146844500Y-98570639D01*
X146844500Y-98574691D01*
X146844500Y-98574692D01*
X146844500Y-99545305D01*
X146844500Y-99545320D01*
X146844501Y-99549360D01*
X146845029Y-99553373D01*
X146845030Y-99553384D01*
X146861542Y-99678816D01*
X146861529Y-99711287D01*
X146861476Y-99711687D01*
X146833156Y-99775560D01*
X146774799Y-99813982D01*
X146704934Y-99814755D01*
X146650869Y-99783080D01*
X142110819Y-95243030D01*
X142077334Y-95181707D01*
X142074500Y-95155349D01*
X142074500Y-95000000D01*
X146945000Y-95000000D01*
X147945000Y-95000000D01*
X147945000Y-94300000D01*
X148445000Y-94300000D01*
X148445000Y-95000000D01*
X149445000Y-95000000D01*
X164445000Y-95000000D01*
X165445000Y-95000000D01*
X165445000Y-94300000D01*
X164900482Y-94300000D01*
X164893867Y-94300354D01*
X164837628Y-94306400D01*
X164702910Y-94356647D01*
X164587811Y-94442811D01*
X164501647Y-94557910D01*
X164451400Y-94692628D01*
X164445354Y-94748867D01*
X164445000Y-94755481D01*
X164445000Y-95000000D01*
X149445000Y-95000000D01*
X149445000Y-94755481D01*
X149444645Y-94748867D01*
X149438599Y-94692628D01*
X149388352Y-94557910D01*
X149302188Y-94442811D01*
X149187089Y-94356647D01*
X149052371Y-94306400D01*
X148996132Y-94300354D01*
X148989518Y-94300000D01*
X148445000Y-94300000D01*
X147945000Y-94300000D01*
X147400482Y-94300000D01*
X147393867Y-94300354D01*
X147337628Y-94306400D01*
X147202910Y-94356647D01*
X147087811Y-94442811D01*
X147001647Y-94557910D01*
X146951400Y-94692628D01*
X146945354Y-94748867D01*
X146945000Y-94755481D01*
X146945000Y-95000000D01*
X142074500Y-95000000D01*
X142074500Y-89015805D01*
X142074909Y-89005742D01*
X142079201Y-88953033D01*
X142068490Y-88874424D01*
X142068086Y-88871119D01*
X142059501Y-88792171D01*
X142054270Y-88769850D01*
X142050186Y-88758734D01*
X142026877Y-88695286D01*
X142025762Y-88692120D01*
X142000444Y-88616979D01*
X142000441Y-88616975D01*
X142000404Y-88616863D01*
X141990496Y-88596185D01*
X141990432Y-88596086D01*
X141990432Y-88596084D01*
X141947715Y-88529255D01*
X141945957Y-88526421D01*
X141905070Y-88458464D01*
X141905067Y-88458461D01*
X141905010Y-88458366D01*
X141890882Y-88440294D01*
X141834749Y-88384161D01*
X141832407Y-88381755D01*
X141777770Y-88324076D01*
X141759877Y-88309289D01*
X140130337Y-86679748D01*
X140100567Y-86631829D01*
X139662946Y-85339104D01*
X139657437Y-85311765D01*
X139656742Y-85308572D01*
X139600477Y-85049922D01*
X139507974Y-84801911D01*
X139381116Y-84569589D01*
X139222487Y-84357685D01*
X139035315Y-84170513D01*
X138929363Y-84091198D01*
X138823409Y-84011882D01*
X138657298Y-83921179D01*
X138591089Y-83885026D01*
X138343078Y-83792523D01*
X138343073Y-83792521D01*
X138084427Y-83736257D01*
X137820399Y-83717372D01*
X137556372Y-83736257D01*
X137297726Y-83792521D01*
X137173716Y-83838774D01*
X137049711Y-83885026D01*
X137049708Y-83885027D01*
X137049707Y-83885028D01*
X136817390Y-84011882D01*
X136605482Y-84170515D01*
X136418315Y-84357682D01*
X136259682Y-84569590D01*
X136132828Y-84801907D01*
X136132826Y-84801911D01*
X136086574Y-84925916D01*
X136040321Y-85049926D01*
X135984057Y-85308572D01*
X135965172Y-85572600D01*
X135984057Y-85836627D01*
X136040321Y-86095273D01*
X136040323Y-86095278D01*
X136132826Y-86343289D01*
X136132828Y-86343292D01*
X136259682Y-86575609D01*
X136301767Y-86631828D01*
X136418313Y-86787515D01*
X136605485Y-86974687D01*
X136764412Y-87093658D01*
X136817390Y-87133317D01*
X136900445Y-87178668D01*
X137049711Y-87260174D01*
X137297722Y-87352677D01*
X137499098Y-87396483D01*
X137511788Y-87399957D01*
X138880456Y-87854066D01*
X138929087Y-87884076D01*
X140337181Y-89292169D01*
X140370666Y-89353492D01*
X140373500Y-89379850D01*
X140373500Y-95519393D01*
X140373091Y-95529456D01*
X140368799Y-95582167D01*
X140379502Y-95660732D01*
X140379910Y-95664062D01*
X140388498Y-95743025D01*
X140393732Y-95765356D01*
X140393772Y-95765467D01*
X140393773Y-95765468D01*
X140421129Y-95839934D01*
X140422228Y-95843054D01*
X140445877Y-95913239D01*
X140447594Y-95918333D01*
X140457508Y-95939023D01*
X140471851Y-95961462D01*
X140500295Y-96005962D01*
X140502037Y-96008771D01*
X140542990Y-96076835D01*
X140557116Y-96094905D01*
X140557199Y-96094988D01*
X140557200Y-96094989D01*
X140613303Y-96151092D01*
X140615609Y-96153462D01*
X140670151Y-96211041D01*
X140670152Y-96211042D01*
X140670234Y-96211128D01*
X140688118Y-96225907D01*
X146453775Y-101991564D01*
X146462207Y-102000898D01*
X146466445Y-102006097D01*
X146472633Y-102011210D01*
X146481332Y-102019121D01*
X146635598Y-102173387D01*
X146642424Y-102180791D01*
X146676663Y-102221100D01*
X146739806Y-102269100D01*
X146742401Y-102271129D01*
X146798187Y-102315972D01*
X146838106Y-102373314D01*
X146844500Y-102412618D01*
X146844500Y-103355305D01*
X146844500Y-103355320D01*
X146844501Y-103359360D01*
X146845029Y-103363373D01*
X146845030Y-103363384D01*
X146861542Y-103488816D01*
X146861542Y-103521183D01*
X146845029Y-103646616D01*
X146845028Y-103646625D01*
X146844500Y-103650639D01*
X146844500Y-103654691D01*
X146844500Y-103654692D01*
X146844500Y-104625305D01*
X146844500Y-104625320D01*
X146844501Y-104629360D01*
X146845029Y-104633373D01*
X146845030Y-104633384D01*
X146861542Y-104758816D01*
X146861542Y-104791183D01*
X146845029Y-104916616D01*
X146845028Y-104916625D01*
X146844500Y-104920639D01*
X146844500Y-104924691D01*
X146844500Y-104924692D01*
X146844500Y-105895305D01*
X146844500Y-105895320D01*
X146844501Y-105899360D01*
X146845029Y-105903373D01*
X146845030Y-105903384D01*
X146861542Y-106028816D01*
X146861542Y-106061183D01*
X146845029Y-106186616D01*
X146845028Y-106186625D01*
X146844500Y-106190639D01*
X146844500Y-106194691D01*
X146844500Y-106194692D01*
X146844500Y-107165305D01*
X146844500Y-107165320D01*
X146844501Y-107169360D01*
X146845029Y-107173373D01*
X146845030Y-107173384D01*
X146861542Y-107298816D01*
X146861542Y-107331183D01*
X146845029Y-107456616D01*
X146845028Y-107456625D01*
X146844500Y-107460639D01*
X146844500Y-107464691D01*
X146844500Y-107464692D01*
X146844500Y-108435305D01*
X146844500Y-108435320D01*
X146844501Y-108439360D01*
X146845029Y-108443373D01*
X146845030Y-108443384D01*
X146861542Y-108568816D01*
X146861542Y-108601183D01*
X146845029Y-108726616D01*
X146845028Y-108726625D01*
X146844500Y-108730639D01*
X146844500Y-108734691D01*
X146844500Y-108734692D01*
X146844500Y-109705305D01*
X146844500Y-109705320D01*
X146844501Y-109709360D01*
X146845029Y-109713373D01*
X146845030Y-109713384D01*
X146861542Y-109838816D01*
X146861542Y-109871183D01*
X146845029Y-109996616D01*
X146845028Y-109996625D01*
X146844500Y-110000639D01*
X146844500Y-110004691D01*
X146844500Y-110004692D01*
X146844500Y-110975305D01*
X146844500Y-110975320D01*
X146844501Y-110979360D01*
X146845029Y-110983373D01*
X146845030Y-110983384D01*
X146861542Y-111108816D01*
X146861542Y-111141183D01*
X146845029Y-111266616D01*
X146845028Y-111266625D01*
X146844500Y-111270639D01*
X146844500Y-111274691D01*
X146844500Y-111274692D01*
X146844500Y-112245305D01*
X146844500Y-112245320D01*
X146844501Y-112249360D01*
X146845029Y-112253373D01*
X146845030Y-112253384D01*
X146859955Y-112366760D01*
X146920464Y-112512841D01*
X147016717Y-112638282D01*
X147142159Y-112734536D01*
X147288238Y-112795044D01*
X147405639Y-112810500D01*
X148984360Y-112810499D01*
X149019100Y-112805925D01*
X149101760Y-112795045D01*
X149150575Y-112774825D01*
X149208047Y-112751018D01*
X149277516Y-112743550D01*
X149339995Y-112774825D01*
X149375648Y-112834913D01*
X149379500Y-112865580D01*
X149379500Y-114175393D01*
X149379091Y-114185456D01*
X149374799Y-114238167D01*
X149385502Y-114316732D01*
X149385910Y-114320062D01*
X149394498Y-114399025D01*
X149399732Y-114421356D01*
X149399772Y-114421467D01*
X149399773Y-114421468D01*
X149427129Y-114495934D01*
X149428228Y-114499054D01*
X149453594Y-114574333D01*
X149463508Y-114595023D01*
X149480198Y-114621133D01*
X149506295Y-114661962D01*
X149508037Y-114664771D01*
X149548990Y-114732835D01*
X149563116Y-114750905D01*
X149563199Y-114750988D01*
X149563200Y-114750989D01*
X149619302Y-114807091D01*
X149621608Y-114809461D01*
X149676151Y-114867041D01*
X149676152Y-114867042D01*
X149676233Y-114867127D01*
X149694117Y-114881906D01*
X150549193Y-115736981D01*
X150556017Y-115744383D01*
X150562642Y-115752182D01*
X150591042Y-115816019D01*
X150580420Y-115885077D01*
X150545825Y-115929107D01*
X150405062Y-116042257D01*
X150289157Y-116186448D01*
X150206963Y-116352177D01*
X150162316Y-116531705D01*
X150159641Y-116571154D01*
X150159640Y-116571179D01*
X150159500Y-116573246D01*
X150159500Y-116575343D01*
X150159500Y-117905994D01*
X150158456Y-117922040D01*
X150154505Y-117952323D01*
X150154509Y-117956369D01*
X150154509Y-117956378D01*
X150154711Y-118135797D01*
X150135102Y-118202858D01*
X150118392Y-118223617D01*
X149799732Y-118542277D01*
X149764407Y-118567001D01*
X149547477Y-118668042D01*
X148865037Y-118985905D01*
X148812683Y-118997500D01*
X148285320Y-118997500D01*
X148277887Y-118997277D01*
X148260369Y-118996225D01*
X148256341Y-118996510D01*
X148256327Y-118996511D01*
X148253466Y-118996715D01*
X148253463Y-118996715D01*
X148251439Y-118996859D01*
X148249441Y-118997133D01*
X148249423Y-118997135D01*
X148167111Y-119008430D01*
X148153870Y-119011555D01*
X148143240Y-119012954D01*
X148074722Y-119041334D01*
X148067779Y-119043969D01*
X148027369Y-119057935D01*
X148027344Y-119057945D01*
X148023532Y-119059263D01*
X148019911Y-119061073D01*
X148019905Y-119061076D01*
X147673240Y-119234409D01*
X147617786Y-119247500D01*
X144382212Y-119247500D01*
X144326758Y-119234409D01*
X143977937Y-119059998D01*
X143977921Y-119059990D01*
X143976464Y-119059262D01*
X143918308Y-119033901D01*
X143916023Y-119033044D01*
X143912492Y-119032175D01*
X143912490Y-119032175D01*
X143898670Y-119028776D01*
X143880837Y-119022927D01*
X143856763Y-119012956D01*
X143815251Y-119007490D01*
X143801836Y-119004965D01*
X143777918Y-118999084D01*
X143761412Y-118999208D01*
X143744316Y-118998152D01*
X143743386Y-118998029D01*
X143743373Y-118998028D01*
X143739361Y-118997500D01*
X143735306Y-118997500D01*
X141964694Y-118997500D01*
X141964678Y-118997500D01*
X141960640Y-118997501D01*
X141956627Y-118998029D01*
X141956615Y-118998030D01*
X141843239Y-119012955D01*
X141697158Y-119073464D01*
X141571717Y-119169717D01*
X141475463Y-119295159D01*
X141414956Y-119441237D01*
X141400066Y-119554342D01*
X141399500Y-119558639D01*
X141399500Y-119562691D01*
X141399500Y-119562692D01*
X141399500Y-120633305D01*
X141399500Y-120633320D01*
X141399501Y-120637360D01*
X141400029Y-120641373D01*
X141400030Y-120641384D01*
X141414955Y-120754760D01*
X141475464Y-120900841D01*
X141571717Y-121026282D01*
X141658780Y-121093087D01*
X141697159Y-121122536D01*
X141843238Y-121183044D01*
X141960639Y-121198500D01*
X143714793Y-121198499D01*
X143722219Y-121198722D01*
X143723054Y-121198772D01*
X143739687Y-121199770D01*
X143748619Y-121199135D01*
X143827071Y-121188366D01*
X143827071Y-121188365D01*
X143832927Y-121187562D01*
X143846140Y-121184442D01*
X143856763Y-121183044D01*
X143925299Y-121154655D01*
X143932251Y-121152016D01*
X143933429Y-121151608D01*
X143976468Y-121136735D01*
X144326756Y-120961591D01*
X144382211Y-120948500D01*
X147617788Y-120948500D01*
X147673242Y-120961591D01*
X148023530Y-121136735D01*
X148081658Y-121162086D01*
X148083948Y-121162945D01*
X148101297Y-121167210D01*
X148119141Y-121173062D01*
X148143238Y-121183044D01*
X148184799Y-121188514D01*
X148198194Y-121191035D01*
X148222121Y-121196919D01*
X148222122Y-121196918D01*
X148222123Y-121196919D01*
X148223137Y-121196911D01*
X148238585Y-121196794D01*
X148255715Y-121197851D01*
X148260639Y-121198500D01*
X148732499Y-121198499D01*
X148796296Y-121216170D01*
X149455919Y-121611944D01*
X149479803Y-121630592D01*
X151499925Y-123650714D01*
X151533410Y-123712037D01*
X151535645Y-123750572D01*
X151529261Y-123815269D01*
X151527536Y-123825261D01*
X151526038Y-123847338D01*
X151525724Y-123851114D01*
X151523324Y-123875446D01*
X151522853Y-123880430D01*
X151523023Y-123884602D01*
X151523023Y-123884615D01*
X151524397Y-123918248D01*
X151524500Y-123923305D01*
X151524500Y-124642954D01*
X151524640Y-124645021D01*
X151524641Y-124645045D01*
X151527316Y-124684494D01*
X151571963Y-124864022D01*
X151611646Y-124944035D01*
X151654158Y-125029753D01*
X151770060Y-125173940D01*
X151914247Y-125289842D01*
X152079979Y-125372037D01*
X152259505Y-125416683D01*
X152301046Y-125419500D01*
X152303144Y-125419500D01*
X153696856Y-125419500D01*
X153698954Y-125419500D01*
X153740495Y-125416683D01*
X153920021Y-125372037D01*
X154085753Y-125289842D01*
X154229940Y-125173940D01*
X154345842Y-125029753D01*
X154426764Y-124866587D01*
X154474181Y-124815279D01*
X154541816Y-124797749D01*
X154608192Y-124819569D01*
X154652234Y-124873810D01*
X154655555Y-124882681D01*
X154665642Y-124913123D01*
X154757683Y-125062345D01*
X154881654Y-125186316D01*
X155030877Y-125278357D01*
X155197303Y-125333506D01*
X155296890Y-125343680D01*
X155303168Y-125343999D01*
X155749999Y-125343999D01*
X156250000Y-125343999D01*
X156696829Y-125343999D01*
X156703111Y-125343678D01*
X156802695Y-125333506D01*
X156969122Y-125278357D01*
X157118345Y-125186316D01*
X157242316Y-125062345D01*
X157334357Y-124913122D01*
X157390593Y-124743415D01*
X157430366Y-124685970D01*
X157494881Y-124659147D01*
X157563657Y-124671462D01*
X157607566Y-124708108D01*
X157642810Y-124755188D01*
X157757910Y-124841352D01*
X157892628Y-124891599D01*
X157948867Y-124897645D01*
X157955482Y-124898000D01*
X158600000Y-124898000D01*
X158600000Y-124148000D01*
X159100000Y-124148000D01*
X159100000Y-124898000D01*
X159744518Y-124898000D01*
X159751132Y-124897645D01*
X159807371Y-124891599D01*
X159942089Y-124841352D01*
X160057188Y-124755188D01*
X160143352Y-124640089D01*
X160193599Y-124505371D01*
X160199645Y-124449132D01*
X160200000Y-124442518D01*
X160200000Y-124148000D01*
X163800000Y-124148000D01*
X163800000Y-124442518D01*
X163800354Y-124449132D01*
X163806400Y-124505371D01*
X163856647Y-124640089D01*
X163942811Y-124755188D01*
X164057910Y-124841352D01*
X164192628Y-124891599D01*
X164248867Y-124897645D01*
X164255482Y-124898000D01*
X164900000Y-124898000D01*
X164900000Y-124148000D01*
X165400000Y-124148000D01*
X165400000Y-124898000D01*
X166044518Y-124898000D01*
X166051132Y-124897645D01*
X166107371Y-124891599D01*
X166242089Y-124841352D01*
X166357188Y-124755188D01*
X166443352Y-124640089D01*
X166493599Y-124505371D01*
X166499645Y-124449132D01*
X166500000Y-124442518D01*
X166500000Y-124148000D01*
X165400000Y-124148000D01*
X164900000Y-124148000D01*
X163800000Y-124148000D01*
X160200000Y-124148000D01*
X159100000Y-124148000D01*
X158600000Y-124148000D01*
X158600000Y-122898000D01*
X159100000Y-122898000D01*
X159100000Y-123648000D01*
X160200000Y-123648000D01*
X163800000Y-123648000D01*
X164900000Y-123648000D01*
X164900000Y-122898000D01*
X165400000Y-122898000D01*
X165400000Y-123648000D01*
X166500000Y-123648000D01*
X166500000Y-123353481D01*
X166499645Y-123346867D01*
X166493599Y-123290628D01*
X166443352Y-123155910D01*
X166357188Y-123040811D01*
X166242089Y-122954647D01*
X166107371Y-122904400D01*
X166051132Y-122898354D01*
X166044518Y-122898000D01*
X165400000Y-122898000D01*
X164900000Y-122898000D01*
X164255482Y-122898000D01*
X164248867Y-122898354D01*
X164192628Y-122904400D01*
X164057910Y-122954647D01*
X163942811Y-123040811D01*
X163856647Y-123155910D01*
X163806400Y-123290628D01*
X163800354Y-123346867D01*
X163800000Y-123353481D01*
X163800000Y-123648000D01*
X160200000Y-123648000D01*
X160200000Y-123353481D01*
X160199645Y-123346867D01*
X160193599Y-123290628D01*
X160143352Y-123155910D01*
X160057188Y-123040811D01*
X159942089Y-122954647D01*
X159807371Y-122904400D01*
X159751132Y-122898354D01*
X159744518Y-122898000D01*
X159100000Y-122898000D01*
X158600000Y-122898000D01*
X157955482Y-122898000D01*
X157948867Y-122898354D01*
X157892628Y-122904400D01*
X157757910Y-122954647D01*
X157642811Y-123040811D01*
X157556647Y-123155910D01*
X157506400Y-123290628D01*
X157500354Y-123346867D01*
X157500000Y-123353481D01*
X157500000Y-123456188D01*
X157480315Y-123523227D01*
X157427511Y-123568982D01*
X157358353Y-123578926D01*
X157294797Y-123549901D01*
X157270461Y-123521285D01*
X157242315Y-123475653D01*
X157118345Y-123351683D01*
X156969122Y-123259642D01*
X156802696Y-123204493D01*
X156703109Y-123194319D01*
X156696832Y-123194000D01*
X156250000Y-123194000D01*
X156250000Y-125343999D01*
X155749999Y-125343999D01*
X155750000Y-125343998D01*
X155750000Y-123194000D01*
X155303171Y-123194000D01*
X155296888Y-123194321D01*
X155197304Y-123204493D01*
X155030877Y-123259642D01*
X154881654Y-123351683D01*
X154757683Y-123475654D01*
X154665642Y-123624878D01*
X154660520Y-123640334D01*
X154620745Y-123697777D01*
X154556228Y-123724598D01*
X154487453Y-123712281D01*
X154436255Y-123664737D01*
X154431727Y-123656420D01*
X154423749Y-123640334D01*
X154345842Y-123483247D01*
X154229940Y-123339060D01*
X154085753Y-123223158D01*
X154048118Y-123204493D01*
X153920022Y-123140963D01*
X153740494Y-123096316D01*
X153701045Y-123093641D01*
X153701021Y-123093640D01*
X153698954Y-123093500D01*
X153696856Y-123093500D01*
X153546303Y-123093500D01*
X153479264Y-123073815D01*
X153472346Y-123069030D01*
X152999978Y-122718030D01*
X152957908Y-122662246D01*
X152952676Y-122592572D01*
X152985943Y-122531131D01*
X153047147Y-122497428D01*
X153073935Y-122494500D01*
X153696856Y-122494500D01*
X153698954Y-122494500D01*
X153740495Y-122491683D01*
X153920021Y-122447037D01*
X153934387Y-122439911D01*
X153956103Y-122431577D01*
X153964598Y-122429204D01*
X154434652Y-122228565D01*
X154504034Y-122220352D01*
X154531292Y-122228263D01*
X155013928Y-122430741D01*
X155015751Y-122431374D01*
X155015766Y-122431380D01*
X155033890Y-122437676D01*
X155048290Y-122443719D01*
X155054979Y-122447037D01*
X155070152Y-122450810D01*
X155080913Y-122454011D01*
X155083964Y-122455071D01*
X155083969Y-122455072D01*
X155085804Y-122455710D01*
X155088635Y-122456498D01*
X155092866Y-122457107D01*
X155105113Y-122459504D01*
X155234505Y-122491683D01*
X155276046Y-122494500D01*
X155278144Y-122494500D01*
X156721856Y-122494500D01*
X156723954Y-122494500D01*
X156765495Y-122491683D01*
X156945021Y-122447037D01*
X157110753Y-122364842D01*
X157254940Y-122248940D01*
X157370842Y-122104753D01*
X157453037Y-121939021D01*
X157497683Y-121759495D01*
X157500500Y-121717954D01*
X157500500Y-121223081D01*
X157520185Y-121156042D01*
X157572989Y-121110287D01*
X157642147Y-121100343D01*
X157681768Y-121117032D01*
X157682076Y-121116289D01*
X157731438Y-121136735D01*
X157843238Y-121183044D01*
X157960639Y-121198500D01*
X159714793Y-121198499D01*
X159722219Y-121198722D01*
X159723054Y-121198772D01*
X159739687Y-121199770D01*
X159748619Y-121199135D01*
X159827071Y-121188366D01*
X159827071Y-121188365D01*
X159832927Y-121187562D01*
X159846140Y-121184442D01*
X159856763Y-121183044D01*
X159925299Y-121154655D01*
X159932251Y-121152016D01*
X159933429Y-121151608D01*
X159976468Y-121136735D01*
X160326756Y-120961591D01*
X160382211Y-120948500D01*
X163617788Y-120948500D01*
X163673242Y-120961591D01*
X164023530Y-121136735D01*
X164081658Y-121162086D01*
X164083948Y-121162945D01*
X164101297Y-121167210D01*
X164119141Y-121173062D01*
X164143238Y-121183044D01*
X164184799Y-121188514D01*
X164198194Y-121191035D01*
X164222121Y-121196919D01*
X164222122Y-121196918D01*
X164222123Y-121196919D01*
X164223137Y-121196911D01*
X164238585Y-121196794D01*
X164255715Y-121197851D01*
X164260639Y-121198500D01*
X166039360Y-121198499D01*
X166156762Y-121183044D01*
X166302841Y-121122536D01*
X166428282Y-121026282D01*
X166524536Y-120900841D01*
X166585044Y-120754762D01*
X166600500Y-120637361D01*
X166600499Y-119558640D01*
X166600205Y-119556408D01*
X166600027Y-119548990D01*
X166600504Y-119522039D01*
X166547802Y-119058601D01*
X166547478Y-119056321D01*
X166546899Y-119052637D01*
X166545500Y-119034065D01*
X166545500Y-112901202D01*
X166565185Y-112834163D01*
X166617989Y-112788408D01*
X166622036Y-112786646D01*
X166747841Y-112734536D01*
X166873282Y-112638282D01*
X166969536Y-112512841D01*
X167030044Y-112366762D01*
X167045500Y-112249361D01*
X167045499Y-111270640D01*
X167030044Y-111153238D01*
X167030043Y-111153237D01*
X167028457Y-111141183D01*
X167028457Y-111108814D01*
X167041361Y-111010798D01*
X167045500Y-110979361D01*
X167045499Y-110000640D01*
X167030044Y-109883238D01*
X167028457Y-109871181D01*
X167028457Y-109838811D01*
X167030042Y-109826764D01*
X167030044Y-109826762D01*
X167045500Y-109709361D01*
X167045499Y-108730640D01*
X167030044Y-108613238D01*
X167028457Y-108601181D01*
X167028457Y-108568811D01*
X167030042Y-108556764D01*
X167030044Y-108556762D01*
X167045500Y-108439361D01*
X167045499Y-107460640D01*
X167030044Y-107343238D01*
X167030043Y-107343237D01*
X167028457Y-107331183D01*
X167028457Y-107298814D01*
X167030044Y-107286762D01*
X167045500Y-107169361D01*
X167045499Y-106190640D01*
X167030044Y-106073238D01*
X167030043Y-106073237D01*
X167028457Y-106061184D01*
X167028457Y-106028815D01*
X167035951Y-105971890D01*
X167045500Y-105899361D01*
X167045499Y-104920640D01*
X167030044Y-104803238D01*
X167030043Y-104803237D01*
X167028457Y-104791184D01*
X167028457Y-104758815D01*
X167030044Y-104746762D01*
X167045500Y-104629361D01*
X167045499Y-103650640D01*
X167030044Y-103533238D01*
X167030043Y-103533237D01*
X167028457Y-103521184D01*
X167028457Y-103488815D01*
X167041715Y-103388109D01*
X167045500Y-103359361D01*
X167045499Y-102380640D01*
X167030044Y-102263238D01*
X167030043Y-102263237D01*
X167028457Y-102251184D01*
X167028457Y-102218815D01*
X167033968Y-102176954D01*
X167045500Y-102089361D01*
X167045499Y-101139680D01*
X167065183Y-101072642D01*
X167105571Y-101033430D01*
X167142736Y-101011070D01*
X167142737Y-101011068D01*
X167142838Y-101011008D01*
X167160899Y-100996889D01*
X167160986Y-100996801D01*
X167160989Y-100996800D01*
X167217090Y-100940697D01*
X167219421Y-100938428D01*
X167277041Y-100883849D01*
X167277042Y-100883847D01*
X167277128Y-100883766D01*
X167291905Y-100865882D01*
X168190319Y-99967467D01*
X168251642Y-99933983D01*
X168321334Y-99938967D01*
X168377267Y-99980839D01*
X168401684Y-100046303D01*
X168402000Y-100055149D01*
X168402000Y-124159947D01*
X168382315Y-124226986D01*
X168329511Y-124272741D01*
X168318867Y-124277019D01*
X167048482Y-124720482D01*
X167048481Y-124720482D01*
X166402720Y-126174335D01*
X166357517Y-126227612D01*
X166290686Y-126247993D01*
X166289396Y-126248000D01*
X106230824Y-126248000D01*
X106163785Y-126228315D01*
X106118030Y-126175511D01*
X106113752Y-126164867D01*
X105671518Y-124898000D01*
X105092590Y-124640856D01*
X104213664Y-124250460D01*
X104160387Y-124205257D01*
X104140007Y-124138426D01*
X104140000Y-124137136D01*
X104140000Y-123770000D01*
X107909540Y-123770000D01*
X107930136Y-124005407D01*
X107968344Y-124148000D01*
X107991297Y-124233663D01*
X108091165Y-124447830D01*
X108226705Y-124641401D01*
X108393799Y-124808495D01*
X108587370Y-124944035D01*
X108801537Y-125043903D01*
X109008165Y-125099268D01*
X109029792Y-125105063D01*
X109265199Y-125125659D01*
X109265199Y-125125658D01*
X109265200Y-125125659D01*
X109500608Y-125105063D01*
X109728863Y-125043903D01*
X109943030Y-124944035D01*
X110136601Y-124808495D01*
X110303695Y-124641401D01*
X110439235Y-124447830D01*
X110539103Y-124233663D01*
X110600263Y-124005408D01*
X110620859Y-123770000D01*
X126010424Y-123770000D01*
X126029487Y-123987886D01*
X126086098Y-124199161D01*
X126178531Y-124397386D01*
X126222073Y-124459571D01*
X126222074Y-124459572D01*
X126782123Y-123899523D01*
X126805707Y-123979844D01*
X126883439Y-124100798D01*
X126992100Y-124194952D01*
X127122885Y-124254680D01*
X127132666Y-124256086D01*
X126575626Y-124813124D01*
X126575627Y-124813125D01*
X126637810Y-124856666D01*
X126836040Y-124949102D01*
X127047313Y-125005712D01*
X127265200Y-125024775D01*
X127483086Y-125005712D01*
X127694359Y-124949102D01*
X127892585Y-124856667D01*
X127954772Y-124813124D01*
X127397734Y-124256086D01*
X127407515Y-124254680D01*
X127538300Y-124194952D01*
X127646961Y-124100798D01*
X127724693Y-123979844D01*
X127748276Y-123899525D01*
X128308324Y-124459572D01*
X128351867Y-124397385D01*
X128444302Y-124199159D01*
X128458010Y-124148000D01*
X141500000Y-124148000D01*
X141500000Y-124442518D01*
X141500354Y-124449132D01*
X141506400Y-124505371D01*
X141556647Y-124640089D01*
X141642811Y-124755188D01*
X141757910Y-124841352D01*
X141892628Y-124891599D01*
X141948867Y-124897645D01*
X141955482Y-124898000D01*
X142600000Y-124898000D01*
X142600000Y-124148000D01*
X143100000Y-124148000D01*
X143100000Y-124898000D01*
X143744518Y-124898000D01*
X143751132Y-124897645D01*
X143807371Y-124891599D01*
X143942089Y-124841352D01*
X144057188Y-124755188D01*
X144143352Y-124640089D01*
X144193599Y-124505371D01*
X144199645Y-124449132D01*
X144200000Y-124442518D01*
X144200000Y-124148000D01*
X147800000Y-124148000D01*
X147800000Y-124442518D01*
X147800354Y-124449132D01*
X147806400Y-124505371D01*
X147856647Y-124640089D01*
X147942811Y-124755188D01*
X148057910Y-124841352D01*
X148192628Y-124891599D01*
X148248867Y-124897645D01*
X148255482Y-124898000D01*
X148900000Y-124898000D01*
X148900000Y-124148000D01*
X149400000Y-124148000D01*
X149400000Y-124898000D01*
X150044518Y-124898000D01*
X150051132Y-124897645D01*
X150107371Y-124891599D01*
X150242089Y-124841352D01*
X150357188Y-124755188D01*
X150443352Y-124640089D01*
X150493599Y-124505371D01*
X150499645Y-124449132D01*
X150500000Y-124442518D01*
X150500000Y-124148000D01*
X149400000Y-124148000D01*
X148900000Y-124148000D01*
X147800000Y-124148000D01*
X144200000Y-124148000D01*
X143100000Y-124148000D01*
X142600000Y-124148000D01*
X141500000Y-124148000D01*
X128458010Y-124148000D01*
X128500912Y-123987886D01*
X128519975Y-123770000D01*
X128509301Y-123648000D01*
X141500000Y-123648000D01*
X142600000Y-123648000D01*
X142600000Y-122898000D01*
X143100000Y-122898000D01*
X143100000Y-123648000D01*
X144200000Y-123648000D01*
X147800000Y-123648000D01*
X148900000Y-123648000D01*
X148900000Y-122898000D01*
X149400000Y-122898000D01*
X149400000Y-123648000D01*
X150500000Y-123648000D01*
X150500000Y-123353481D01*
X150499645Y-123346867D01*
X150493599Y-123290628D01*
X150443352Y-123155910D01*
X150357188Y-123040811D01*
X150242089Y-122954647D01*
X150107371Y-122904400D01*
X150051132Y-122898354D01*
X150044518Y-122898000D01*
X149400000Y-122898000D01*
X148900000Y-122898000D01*
X148255482Y-122898000D01*
X148248867Y-122898354D01*
X148192628Y-122904400D01*
X148057910Y-122954647D01*
X147942811Y-123040811D01*
X147856647Y-123155910D01*
X147806400Y-123290628D01*
X147800354Y-123346867D01*
X147800000Y-123353481D01*
X147800000Y-123648000D01*
X144200000Y-123648000D01*
X144200000Y-123353481D01*
X144199645Y-123346867D01*
X144193599Y-123290628D01*
X144143352Y-123155910D01*
X144057188Y-123040811D01*
X143942089Y-122954647D01*
X143807371Y-122904400D01*
X143751132Y-122898354D01*
X143744518Y-122898000D01*
X143100000Y-122898000D01*
X142600000Y-122898000D01*
X141955482Y-122898000D01*
X141948867Y-122898354D01*
X141892628Y-122904400D01*
X141757910Y-122954647D01*
X141642811Y-123040811D01*
X141556647Y-123155910D01*
X141506400Y-123290628D01*
X141500354Y-123346867D01*
X141500000Y-123353481D01*
X141500000Y-123648000D01*
X128509301Y-123648000D01*
X128500912Y-123552113D01*
X128444302Y-123340840D01*
X128351867Y-123142615D01*
X128308323Y-123080428D01*
X127748276Y-123640475D01*
X127724693Y-123560156D01*
X127646961Y-123439202D01*
X127538300Y-123345048D01*
X127407515Y-123285320D01*
X127397731Y-123283913D01*
X127954772Y-122726874D01*
X127954771Y-122726873D01*
X127892586Y-122683331D01*
X127694361Y-122590898D01*
X127483086Y-122534287D01*
X127265200Y-122515224D01*
X127047313Y-122534287D01*
X126836040Y-122590897D01*
X126637811Y-122683333D01*
X126575628Y-122726874D01*
X126575627Y-122726875D01*
X127132665Y-123283913D01*
X127122885Y-123285320D01*
X126992100Y-123345048D01*
X126883439Y-123439202D01*
X126805707Y-123560156D01*
X126782122Y-123640476D01*
X126222075Y-123080427D01*
X126222074Y-123080428D01*
X126178533Y-123142611D01*
X126086097Y-123340840D01*
X126029487Y-123552113D01*
X126010424Y-123770000D01*
X110620859Y-123770000D01*
X110611649Y-123664737D01*
X110600263Y-123534592D01*
X110592989Y-123507444D01*
X110539103Y-123306337D01*
X110439235Y-123092171D01*
X110303695Y-122898599D01*
X110136601Y-122731505D01*
X109943030Y-122595965D01*
X109728863Y-122496097D01*
X109667702Y-122479709D01*
X109500607Y-122434936D01*
X109265199Y-122414340D01*
X109029792Y-122434936D01*
X108801536Y-122496097D01*
X108587370Y-122595965D01*
X108393798Y-122731505D01*
X108226705Y-122898598D01*
X108091165Y-123092170D01*
X107991297Y-123306336D01*
X107930136Y-123534592D01*
X107909540Y-123770000D01*
X104140000Y-123770000D01*
X104140000Y-122072400D01*
X131284642Y-122072400D01*
X131305230Y-122307718D01*
X131366369Y-122535892D01*
X131466200Y-122749980D01*
X131524873Y-122833773D01*
X132156723Y-122201923D01*
X132180307Y-122282244D01*
X132258039Y-122403198D01*
X132366700Y-122497352D01*
X132497485Y-122557080D01*
X132507266Y-122558486D01*
X131878425Y-123187325D01*
X131962220Y-123245999D01*
X132176307Y-123345830D01*
X132404481Y-123406969D01*
X132639799Y-123427557D01*
X132875118Y-123406969D01*
X133103292Y-123345830D01*
X133317376Y-123246000D01*
X133401173Y-123187325D01*
X133171568Y-122957720D01*
X136189300Y-122957720D01*
X136189301Y-122961760D01*
X136189829Y-122965773D01*
X136189830Y-122965784D01*
X136204755Y-123079160D01*
X136265264Y-123225241D01*
X136361517Y-123350682D01*
X136461704Y-123427557D01*
X136486959Y-123446936D01*
X136633038Y-123507444D01*
X136750439Y-123522900D01*
X138529160Y-123522899D01*
X138646562Y-123507444D01*
X138792641Y-123446936D01*
X138918082Y-123350682D01*
X139014336Y-123225241D01*
X139074844Y-123079162D01*
X139090300Y-122961761D01*
X139090299Y-121183040D01*
X139074844Y-121065638D01*
X139014336Y-120919559D01*
X138991939Y-120890370D01*
X138918082Y-120794117D01*
X138792640Y-120697863D01*
X138646562Y-120637356D01*
X138533180Y-120622429D01*
X138533178Y-120622428D01*
X138529161Y-120621900D01*
X138525107Y-120621900D01*
X136754494Y-120621900D01*
X136754478Y-120621900D01*
X136750440Y-120621901D01*
X136746427Y-120622429D01*
X136746415Y-120622430D01*
X136633039Y-120637355D01*
X136486958Y-120697864D01*
X136361517Y-120794117D01*
X136265263Y-120919559D01*
X136204756Y-121065637D01*
X136192144Y-121161439D01*
X136189300Y-121183039D01*
X136189300Y-121187091D01*
X136189300Y-121187092D01*
X136189300Y-122957705D01*
X136189300Y-122957720D01*
X133171568Y-122957720D01*
X132772333Y-122558486D01*
X132782115Y-122557080D01*
X132912900Y-122497352D01*
X133021561Y-122403198D01*
X133099293Y-122282244D01*
X133122877Y-122201923D01*
X133754725Y-122833772D01*
X133813400Y-122749976D01*
X133913230Y-122535892D01*
X133974369Y-122307718D01*
X133994957Y-122072399D01*
X133974369Y-121837081D01*
X133913230Y-121608907D01*
X133813399Y-121394821D01*
X133754726Y-121311026D01*
X133754725Y-121311025D01*
X133122876Y-121942873D01*
X133099293Y-121862556D01*
X133021561Y-121741602D01*
X132912900Y-121647448D01*
X132782115Y-121587720D01*
X132772333Y-121586313D01*
X133401173Y-120957473D01*
X133401173Y-120957472D01*
X133317380Y-120898800D01*
X133103292Y-120798969D01*
X132875118Y-120737830D01*
X132639799Y-120717242D01*
X132404481Y-120737830D01*
X132176307Y-120798969D01*
X131962222Y-120898799D01*
X131878425Y-120957472D01*
X132507266Y-121586313D01*
X132497485Y-121587720D01*
X132366700Y-121647448D01*
X132258039Y-121741602D01*
X132180307Y-121862556D01*
X132156723Y-121942876D01*
X131524872Y-121311025D01*
X131466199Y-121394822D01*
X131366369Y-121608907D01*
X131305230Y-121837081D01*
X131284642Y-122072400D01*
X104140000Y-122072400D01*
X104140000Y-117547200D01*
X147310001Y-117547200D01*
X147310001Y-117994029D01*
X147310321Y-118000311D01*
X147320493Y-118099895D01*
X147375642Y-118266322D01*
X147467683Y-118415545D01*
X147591654Y-118539516D01*
X147740877Y-118631557D01*
X147907303Y-118686706D01*
X148006890Y-118696880D01*
X148013168Y-118697199D01*
X148134999Y-118697199D01*
X148135000Y-118697198D01*
X148135000Y-117547200D01*
X148635000Y-117547200D01*
X148635000Y-118697199D01*
X148756829Y-118697199D01*
X148763111Y-118696878D01*
X148862695Y-118686706D01*
X149029122Y-118631557D01*
X149178345Y-118539516D01*
X149302316Y-118415545D01*
X149394357Y-118266322D01*
X149449506Y-118099896D01*
X149459680Y-118000309D01*
X149460000Y-117994031D01*
X149460000Y-117547200D01*
X148635000Y-117547200D01*
X148135000Y-117547200D01*
X147310001Y-117547200D01*
X104140000Y-117547200D01*
X104140000Y-117047200D01*
X147310000Y-117047200D01*
X148135000Y-117047200D01*
X148135000Y-115897200D01*
X148635000Y-115897200D01*
X148635000Y-117047200D01*
X149459999Y-117047200D01*
X149459999Y-116600370D01*
X149459678Y-116594088D01*
X149449506Y-116494504D01*
X149394357Y-116328077D01*
X149302316Y-116178854D01*
X149178345Y-116054883D01*
X149029122Y-115962842D01*
X148862696Y-115907693D01*
X148763109Y-115897519D01*
X148756832Y-115897200D01*
X148635000Y-115897200D01*
X148135000Y-115897200D01*
X148013171Y-115897200D01*
X148006888Y-115897521D01*
X147907304Y-115907693D01*
X147740877Y-115962842D01*
X147591654Y-116054883D01*
X147467683Y-116178854D01*
X147375642Y-116328077D01*
X147320493Y-116494503D01*
X147310319Y-116594090D01*
X147310000Y-116600368D01*
X147310000Y-117047200D01*
X104140000Y-117047200D01*
X104140000Y-111574518D01*
X132675000Y-111574518D01*
X132675354Y-111581132D01*
X132681400Y-111637371D01*
X132731647Y-111772089D01*
X132817811Y-111887188D01*
X132932910Y-111973352D01*
X133067628Y-112023599D01*
X133123867Y-112029645D01*
X133130482Y-112030000D01*
X133775000Y-112030000D01*
X133774999Y-111115501D01*
X133882685Y-111164680D01*
X133989237Y-111180000D01*
X134060763Y-111180000D01*
X134167315Y-111164680D01*
X134275000Y-111115501D01*
X134275000Y-112030000D01*
X134919518Y-112030000D01*
X134926132Y-112029645D01*
X134982371Y-112023599D01*
X135117089Y-111973352D01*
X135232188Y-111887188D01*
X135318352Y-111772088D01*
X135328625Y-111744547D01*
X135370496Y-111688613D01*
X135435960Y-111664196D01*
X135504233Y-111679047D01*
X135536037Y-111703898D01*
X135579236Y-111750825D01*
X135768927Y-111898468D01*
X135768929Y-111898469D01*
X135768933Y-111898472D01*
X135980344Y-112012882D01*
X136207703Y-112090934D01*
X136444808Y-112130500D01*
X136444809Y-112130500D01*
X136685191Y-112130500D01*
X136685192Y-112130500D01*
X136922297Y-112090934D01*
X137149656Y-112012882D01*
X137361067Y-111898472D01*
X137550764Y-111750825D01*
X137713571Y-111573969D01*
X137731192Y-111546998D01*
X137784337Y-111501642D01*
X137853568Y-111492218D01*
X137916904Y-111521719D01*
X137938807Y-111546996D01*
X137956429Y-111573969D01*
X138119236Y-111750825D01*
X138119239Y-111750827D01*
X138308927Y-111898468D01*
X138308929Y-111898469D01*
X138308933Y-111898472D01*
X138520344Y-112012882D01*
X138747703Y-112090934D01*
X138984808Y-112130500D01*
X138984809Y-112130500D01*
X139225191Y-112130500D01*
X139225192Y-112130500D01*
X139462297Y-112090934D01*
X139689656Y-112012882D01*
X139901067Y-111898472D01*
X140090764Y-111750825D01*
X140253571Y-111573969D01*
X140271192Y-111546998D01*
X140324337Y-111501642D01*
X140393568Y-111492218D01*
X140456904Y-111521719D01*
X140478807Y-111546996D01*
X140496429Y-111573969D01*
X140659236Y-111750825D01*
X140659239Y-111750827D01*
X140848927Y-111898468D01*
X140848929Y-111898469D01*
X140848933Y-111898472D01*
X141060344Y-112012882D01*
X141287703Y-112090934D01*
X141524808Y-112130500D01*
X141524809Y-112130500D01*
X141765191Y-112130500D01*
X141765192Y-112130500D01*
X142002297Y-112090934D01*
X142229656Y-112012882D01*
X142441067Y-111898472D01*
X142630764Y-111750825D01*
X142793571Y-111573969D01*
X142925049Y-111372728D01*
X143021610Y-111152591D01*
X143080620Y-110919563D01*
X143100471Y-110680000D01*
X143080620Y-110440437D01*
X143021610Y-110207409D01*
X142925049Y-109987272D01*
X142793571Y-109786031D01*
X142630764Y-109609175D01*
X142603443Y-109587910D01*
X142441072Y-109461531D01*
X142441068Y-109461528D01*
X142441067Y-109461528D01*
X142229656Y-109347118D01*
X142229655Y-109347117D01*
X142229652Y-109347116D01*
X142002299Y-109269066D01*
X141844226Y-109242688D01*
X141765192Y-109229500D01*
X141524808Y-109229500D01*
X141465531Y-109239391D01*
X141287700Y-109269066D01*
X141060347Y-109347116D01*
X140848927Y-109461531D01*
X140659239Y-109609172D01*
X140659236Y-109609174D01*
X140659236Y-109609175D01*
X140631468Y-109639338D01*
X140496426Y-109786033D01*
X140478808Y-109813000D01*
X140425662Y-109858357D01*
X140356430Y-109867780D01*
X140293095Y-109838278D01*
X140271192Y-109813000D01*
X140253573Y-109786033D01*
X140235059Y-109765922D01*
X140090764Y-109609175D01*
X140063443Y-109587910D01*
X139901072Y-109461531D01*
X139901068Y-109461528D01*
X139901067Y-109461528D01*
X139689656Y-109347118D01*
X139689655Y-109347117D01*
X139689652Y-109347116D01*
X139462299Y-109269066D01*
X139304226Y-109242688D01*
X139225192Y-109229500D01*
X138984808Y-109229500D01*
X138925531Y-109239391D01*
X138747700Y-109269066D01*
X138520347Y-109347116D01*
X138308927Y-109461531D01*
X138119239Y-109609172D01*
X138119236Y-109609174D01*
X138119236Y-109609175D01*
X138091468Y-109639338D01*
X137956426Y-109786033D01*
X137938808Y-109813000D01*
X137885662Y-109858357D01*
X137816430Y-109867780D01*
X137753095Y-109838278D01*
X137731192Y-109813000D01*
X137713573Y-109786033D01*
X137695059Y-109765922D01*
X137550764Y-109609175D01*
X137523443Y-109587910D01*
X137361072Y-109461531D01*
X137361068Y-109461528D01*
X137361067Y-109461528D01*
X137149656Y-109347118D01*
X137149655Y-109347117D01*
X137149652Y-109347116D01*
X136922299Y-109269066D01*
X136764227Y-109242688D01*
X136685192Y-109229500D01*
X136444808Y-109229500D01*
X136385531Y-109239391D01*
X136207700Y-109269066D01*
X135980347Y-109347116D01*
X135768927Y-109461531D01*
X135579238Y-109609172D01*
X135536035Y-109656103D01*
X135476147Y-109692093D01*
X135406309Y-109689992D01*
X135348694Y-109650467D01*
X135328623Y-109615450D01*
X135318351Y-109587910D01*
X135232188Y-109472811D01*
X135117089Y-109386647D01*
X134982371Y-109336400D01*
X134926132Y-109330354D01*
X134919518Y-109330000D01*
X134275000Y-109330000D01*
X134275000Y-110244498D01*
X134167315Y-110195320D01*
X134060763Y-110180000D01*
X133989237Y-110180000D01*
X133882685Y-110195320D01*
X133774999Y-110244498D01*
X133775000Y-109330000D01*
X133130482Y-109330000D01*
X133123867Y-109330354D01*
X133067628Y-109336400D01*
X132932910Y-109386647D01*
X132817811Y-109472811D01*
X132731647Y-109587910D01*
X132681400Y-109722628D01*
X132675354Y-109778867D01*
X132675000Y-109785481D01*
X132675000Y-110430000D01*
X133591314Y-110430000D01*
X133565507Y-110470156D01*
X133525000Y-110608111D01*
X133525000Y-110751889D01*
X133565507Y-110889844D01*
X133591314Y-110930000D01*
X132675000Y-110930000D01*
X132675000Y-111574518D01*
X104140000Y-111574518D01*
X104140000Y-107574518D01*
X132675000Y-107574518D01*
X132675354Y-107581132D01*
X132681400Y-107637371D01*
X132731647Y-107772089D01*
X132817811Y-107887188D01*
X132932910Y-107973352D01*
X133067628Y-108023599D01*
X133123867Y-108029645D01*
X133130482Y-108030000D01*
X133775000Y-108030000D01*
X133774999Y-107115501D01*
X133882685Y-107164680D01*
X133989237Y-107180000D01*
X134060763Y-107180000D01*
X134167315Y-107164680D01*
X134275000Y-107115501D01*
X134275000Y-108030000D01*
X134919518Y-108030000D01*
X134926132Y-108029645D01*
X134982371Y-108023599D01*
X135117089Y-107973352D01*
X135232188Y-107887188D01*
X135318352Y-107772088D01*
X135328625Y-107744547D01*
X135370496Y-107688613D01*
X135435960Y-107664196D01*
X135504233Y-107679047D01*
X135536037Y-107703898D01*
X135579236Y-107750825D01*
X135768927Y-107898468D01*
X135768929Y-107898469D01*
X135768933Y-107898472D01*
X135980344Y-108012882D01*
X136207703Y-108090934D01*
X136444808Y-108130500D01*
X136444809Y-108130500D01*
X136685191Y-108130500D01*
X136685192Y-108130500D01*
X136922297Y-108090934D01*
X137149656Y-108012882D01*
X137361067Y-107898472D01*
X137550764Y-107750825D01*
X137713571Y-107573969D01*
X137731192Y-107546998D01*
X137784337Y-107501642D01*
X137853568Y-107492218D01*
X137916904Y-107521719D01*
X137938807Y-107546996D01*
X137956429Y-107573969D01*
X138119236Y-107750825D01*
X138119239Y-107750827D01*
X138308927Y-107898468D01*
X138308929Y-107898469D01*
X138308933Y-107898472D01*
X138520344Y-108012882D01*
X138747703Y-108090934D01*
X138984808Y-108130500D01*
X138984809Y-108130500D01*
X139225191Y-108130500D01*
X139225192Y-108130500D01*
X139462297Y-108090934D01*
X139689656Y-108012882D01*
X139901067Y-107898472D01*
X140090764Y-107750825D01*
X140253571Y-107573969D01*
X140271192Y-107546998D01*
X140324337Y-107501642D01*
X140393568Y-107492218D01*
X140456904Y-107521719D01*
X140478807Y-107546996D01*
X140496429Y-107573969D01*
X140659236Y-107750825D01*
X140659239Y-107750827D01*
X140848927Y-107898468D01*
X140848929Y-107898469D01*
X140848933Y-107898472D01*
X141060344Y-108012882D01*
X141287703Y-108090934D01*
X141524808Y-108130500D01*
X141524809Y-108130500D01*
X141765191Y-108130500D01*
X141765192Y-108130500D01*
X142002297Y-108090934D01*
X142229656Y-108012882D01*
X142441067Y-107898472D01*
X142630764Y-107750825D01*
X142793571Y-107573969D01*
X142925049Y-107372728D01*
X143021610Y-107152591D01*
X143080620Y-106919563D01*
X143100471Y-106680000D01*
X143080620Y-106440437D01*
X143021610Y-106207409D01*
X142925049Y-105987272D01*
X142793571Y-105786031D01*
X142630764Y-105609175D01*
X142603443Y-105587910D01*
X142441072Y-105461531D01*
X142441068Y-105461528D01*
X142441067Y-105461528D01*
X142229656Y-105347118D01*
X142229655Y-105347117D01*
X142229652Y-105347116D01*
X142002299Y-105269066D01*
X141844227Y-105242688D01*
X141765192Y-105229500D01*
X141524808Y-105229500D01*
X141465531Y-105239391D01*
X141287700Y-105269066D01*
X141060347Y-105347116D01*
X140848927Y-105461531D01*
X140659239Y-105609172D01*
X140659236Y-105609174D01*
X140659236Y-105609175D01*
X140631468Y-105639338D01*
X140496426Y-105786033D01*
X140478808Y-105813000D01*
X140425662Y-105858357D01*
X140356430Y-105867780D01*
X140293095Y-105838278D01*
X140271192Y-105813000D01*
X140253573Y-105786033D01*
X140235059Y-105765922D01*
X140090764Y-105609175D01*
X140063443Y-105587910D01*
X139901072Y-105461531D01*
X139901068Y-105461528D01*
X139901067Y-105461528D01*
X139689656Y-105347118D01*
X139689655Y-105347117D01*
X139689652Y-105347116D01*
X139462299Y-105269066D01*
X139304226Y-105242688D01*
X139225192Y-105229500D01*
X138984808Y-105229500D01*
X138925531Y-105239391D01*
X138747700Y-105269066D01*
X138520347Y-105347116D01*
X138308927Y-105461531D01*
X138119239Y-105609172D01*
X138119236Y-105609174D01*
X138119236Y-105609175D01*
X138091468Y-105639338D01*
X137956426Y-105786033D01*
X137938808Y-105813000D01*
X137885662Y-105858357D01*
X137816430Y-105867780D01*
X137753095Y-105838278D01*
X137731192Y-105813000D01*
X137713573Y-105786033D01*
X137695059Y-105765922D01*
X137550764Y-105609175D01*
X137523443Y-105587910D01*
X137361072Y-105461531D01*
X137361068Y-105461528D01*
X137361067Y-105461528D01*
X137149656Y-105347118D01*
X137149655Y-105347117D01*
X137149652Y-105347116D01*
X136922299Y-105269066D01*
X136764227Y-105242688D01*
X136685192Y-105229500D01*
X136444808Y-105229500D01*
X136385531Y-105239391D01*
X136207700Y-105269066D01*
X135980347Y-105347116D01*
X135768927Y-105461531D01*
X135579238Y-105609172D01*
X135536035Y-105656103D01*
X135476147Y-105692093D01*
X135406309Y-105689992D01*
X135348694Y-105650467D01*
X135328623Y-105615450D01*
X135318351Y-105587910D01*
X135232188Y-105472811D01*
X135117089Y-105386647D01*
X134982371Y-105336400D01*
X134926132Y-105330354D01*
X134919518Y-105330000D01*
X134275000Y-105330000D01*
X134275000Y-106244498D01*
X134167315Y-106195320D01*
X134060763Y-106180000D01*
X133989237Y-106180000D01*
X133882685Y-106195320D01*
X133774999Y-106244498D01*
X133775000Y-105330000D01*
X133130482Y-105330000D01*
X133123867Y-105330354D01*
X133067628Y-105336400D01*
X132932910Y-105386647D01*
X132817811Y-105472811D01*
X132731647Y-105587910D01*
X132681400Y-105722628D01*
X132675354Y-105778867D01*
X132675000Y-105785481D01*
X132675000Y-106430000D01*
X133591314Y-106430000D01*
X133565507Y-106470156D01*
X133525000Y-106608111D01*
X133525000Y-106751889D01*
X133565507Y-106889844D01*
X133591314Y-106930000D01*
X132675000Y-106930000D01*
X132675000Y-107574518D01*
X104140000Y-107574518D01*
X104140000Y-103574518D01*
X132675000Y-103574518D01*
X132675354Y-103581132D01*
X132681400Y-103637371D01*
X132731647Y-103772089D01*
X132817811Y-103887188D01*
X132932910Y-103973352D01*
X133067628Y-104023599D01*
X133123867Y-104029645D01*
X133130482Y-104030000D01*
X133775000Y-104030000D01*
X133774999Y-103115501D01*
X133882685Y-103164680D01*
X133989237Y-103180000D01*
X134060763Y-103180000D01*
X134167315Y-103164680D01*
X134275000Y-103115501D01*
X134275000Y-104030000D01*
X134919518Y-104030000D01*
X134926132Y-104029645D01*
X134982371Y-104023599D01*
X135117089Y-103973352D01*
X135232188Y-103887188D01*
X135318352Y-103772088D01*
X135328625Y-103744547D01*
X135370496Y-103688613D01*
X135435960Y-103664196D01*
X135504233Y-103679047D01*
X135536036Y-103703897D01*
X135544723Y-103713334D01*
X135579236Y-103750825D01*
X135768927Y-103898468D01*
X135768929Y-103898469D01*
X135768933Y-103898472D01*
X135980344Y-104012882D01*
X136207703Y-104090934D01*
X136444808Y-104130500D01*
X136444809Y-104130500D01*
X136685191Y-104130500D01*
X136685192Y-104130500D01*
X136922297Y-104090934D01*
X137149656Y-104012882D01*
X137361067Y-103898472D01*
X137550764Y-103750825D01*
X137713571Y-103573969D01*
X137731192Y-103546998D01*
X137784337Y-103501642D01*
X137853568Y-103492218D01*
X137916904Y-103521719D01*
X137938807Y-103546996D01*
X137956429Y-103573969D01*
X138119236Y-103750825D01*
X138119239Y-103750827D01*
X138308927Y-103898468D01*
X138308929Y-103898469D01*
X138308933Y-103898472D01*
X138520344Y-104012882D01*
X138747703Y-104090934D01*
X138984808Y-104130500D01*
X138984809Y-104130500D01*
X139225191Y-104130500D01*
X139225192Y-104130500D01*
X139462297Y-104090934D01*
X139689656Y-104012882D01*
X139901067Y-103898472D01*
X140090764Y-103750825D01*
X140253571Y-103573969D01*
X140271192Y-103546998D01*
X140324337Y-103501642D01*
X140393568Y-103492218D01*
X140456904Y-103521719D01*
X140478807Y-103546996D01*
X140496429Y-103573969D01*
X140659236Y-103750825D01*
X140659239Y-103750827D01*
X140848927Y-103898468D01*
X140848929Y-103898469D01*
X140848933Y-103898472D01*
X141060344Y-104012882D01*
X141287703Y-104090934D01*
X141524808Y-104130500D01*
X141524809Y-104130500D01*
X141765191Y-104130500D01*
X141765192Y-104130500D01*
X142002297Y-104090934D01*
X142229656Y-104012882D01*
X142441067Y-103898472D01*
X142630764Y-103750825D01*
X142793571Y-103573969D01*
X142925049Y-103372728D01*
X143021610Y-103152591D01*
X143080620Y-102919563D01*
X143100471Y-102680000D01*
X143080620Y-102440437D01*
X143021610Y-102207409D01*
X142925049Y-101987272D01*
X142793571Y-101786031D01*
X142630764Y-101609175D01*
X142589512Y-101577067D01*
X142441072Y-101461531D01*
X142441068Y-101461528D01*
X142441067Y-101461528D01*
X142229656Y-101347118D01*
X142229655Y-101347117D01*
X142229652Y-101347116D01*
X142002299Y-101269066D01*
X141844227Y-101242688D01*
X141765192Y-101229500D01*
X141524808Y-101229500D01*
X141465531Y-101239391D01*
X141287700Y-101269066D01*
X141060347Y-101347116D01*
X140848927Y-101461531D01*
X140659239Y-101609172D01*
X140659236Y-101609174D01*
X140659236Y-101609175D01*
X140631468Y-101639338D01*
X140496426Y-101786033D01*
X140478808Y-101813000D01*
X140425662Y-101858357D01*
X140356430Y-101867780D01*
X140293095Y-101838278D01*
X140271192Y-101813000D01*
X140253573Y-101786033D01*
X140235059Y-101765922D01*
X140090764Y-101609175D01*
X140049512Y-101577067D01*
X139901072Y-101461531D01*
X139901068Y-101461528D01*
X139901067Y-101461528D01*
X139689656Y-101347118D01*
X139689655Y-101347117D01*
X139689652Y-101347116D01*
X139462299Y-101269066D01*
X139304226Y-101242688D01*
X139225192Y-101229500D01*
X138984808Y-101229500D01*
X138925531Y-101239391D01*
X138747700Y-101269066D01*
X138520347Y-101347116D01*
X138308927Y-101461531D01*
X138119239Y-101609172D01*
X138119236Y-101609174D01*
X138119236Y-101609175D01*
X138091468Y-101639338D01*
X137956426Y-101786033D01*
X137938808Y-101813000D01*
X137885662Y-101858357D01*
X137816430Y-101867780D01*
X137753095Y-101838278D01*
X137731192Y-101813000D01*
X137713573Y-101786033D01*
X137695059Y-101765922D01*
X137550764Y-101609175D01*
X137509512Y-101577067D01*
X137361072Y-101461531D01*
X137361068Y-101461528D01*
X137361067Y-101461528D01*
X137149656Y-101347118D01*
X137149655Y-101347117D01*
X137149652Y-101347116D01*
X136922299Y-101269066D01*
X136764227Y-101242688D01*
X136685192Y-101229500D01*
X136444808Y-101229500D01*
X136385531Y-101239391D01*
X136207700Y-101269066D01*
X135980347Y-101347116D01*
X135768927Y-101461531D01*
X135579238Y-101609172D01*
X135536035Y-101656103D01*
X135476147Y-101692093D01*
X135406309Y-101689992D01*
X135348694Y-101650467D01*
X135328623Y-101615450D01*
X135318351Y-101587910D01*
X135232188Y-101472811D01*
X135117089Y-101386647D01*
X134982371Y-101336400D01*
X134926132Y-101330354D01*
X134919518Y-101330000D01*
X134275000Y-101330000D01*
X134275000Y-102244498D01*
X134167315Y-102195320D01*
X134060763Y-102180000D01*
X133989237Y-102180000D01*
X133882685Y-102195320D01*
X133774999Y-102244498D01*
X133775000Y-101330000D01*
X133130482Y-101330000D01*
X133123867Y-101330354D01*
X133067628Y-101336400D01*
X132932910Y-101386647D01*
X132817811Y-101472811D01*
X132731647Y-101587910D01*
X132681400Y-101722628D01*
X132675354Y-101778867D01*
X132675000Y-101785481D01*
X132675000Y-102430000D01*
X133591314Y-102430000D01*
X133565507Y-102470156D01*
X133525000Y-102608111D01*
X133525000Y-102751889D01*
X133565507Y-102889844D01*
X133591314Y-102930000D01*
X132675000Y-102930000D01*
X132675000Y-103574518D01*
X104140000Y-103574518D01*
X104140000Y-94993000D01*
X104159685Y-94925961D01*
X104212489Y-94880206D01*
X104264000Y-94869000D01*
X135255000Y-94869000D01*
X135297590Y-90652599D01*
X136065492Y-90652599D01*
X136085093Y-90914152D01*
X136143459Y-91169870D01*
X136239282Y-91414024D01*
X136370427Y-91641173D01*
X136418273Y-91701171D01*
X136418274Y-91701171D01*
X137422446Y-90696999D01*
X137435235Y-90777748D01*
X137492759Y-90890645D01*
X137582355Y-90980241D01*
X137695252Y-91037765D01*
X137775999Y-91050553D01*
X136771231Y-92055320D01*
X136942946Y-92172393D01*
X137179260Y-92286196D01*
X137429896Y-92363508D01*
X137689256Y-92402600D01*
X137951544Y-92402600D01*
X138210903Y-92363508D01*
X138461539Y-92286196D01*
X138697856Y-92172392D01*
X138869567Y-92055320D01*
X137864801Y-91050553D01*
X137945548Y-91037765D01*
X138058445Y-90980241D01*
X138148041Y-90890645D01*
X138205565Y-90777748D01*
X138218353Y-90697000D01*
X139222524Y-91701171D01*
X139270372Y-91641172D01*
X139401517Y-91414023D01*
X139497340Y-91169870D01*
X139555706Y-90914152D01*
X139575307Y-90652599D01*
X139555706Y-90391047D01*
X139497340Y-90135329D01*
X139401517Y-89891175D01*
X139270372Y-89664026D01*
X139222525Y-89604027D01*
X138218353Y-90608199D01*
X138205565Y-90527452D01*
X138148041Y-90414555D01*
X138058445Y-90324959D01*
X137945548Y-90267435D01*
X137864800Y-90254646D01*
X138869567Y-89249878D01*
X138697851Y-89132805D01*
X138461539Y-89019003D01*
X138210903Y-88941691D01*
X137951544Y-88902600D01*
X137689256Y-88902600D01*
X137429896Y-88941691D01*
X137179260Y-89019003D01*
X136942945Y-89132806D01*
X136771232Y-89249878D01*
X137776000Y-90254646D01*
X137695252Y-90267435D01*
X137582355Y-90324959D01*
X137492759Y-90414555D01*
X137435235Y-90527452D01*
X137422446Y-90608200D01*
X136418273Y-89604027D01*
X136370428Y-89664024D01*
X136239282Y-89891176D01*
X136143459Y-90135329D01*
X136085093Y-90391047D01*
X136065492Y-90652599D01*
X135297590Y-90652599D01*
X135307575Y-89664026D01*
X135380760Y-82418747D01*
X135401121Y-82351910D01*
X135454384Y-82306691D01*
X135504754Y-82296000D01*
X141224000Y-82296000D01*
X141224000Y-78283361D01*
X141243685Y-78216322D01*
X141260314Y-78195685D01*
X149606000Y-69850000D01*
X149755993Y-69695320D01*
X154029500Y-69695320D01*
X154029501Y-69699360D01*
X154030029Y-69703373D01*
X154030030Y-69703384D01*
X154044955Y-69816760D01*
X154105464Y-69962841D01*
X154201717Y-70088282D01*
X154327158Y-70184535D01*
X154327159Y-70184536D01*
X154473238Y-70245044D01*
X154590639Y-70260500D01*
X156369360Y-70260499D01*
X156486762Y-70245044D01*
X156632841Y-70184536D01*
X156758282Y-70088282D01*
X156854536Y-69962841D01*
X156861750Y-69945423D01*
X156905590Y-69891019D01*
X156971884Y-69868953D01*
X157039583Y-69886231D01*
X157052471Y-69895018D01*
X157223933Y-70028472D01*
X157435344Y-70142882D01*
X157662703Y-70220934D01*
X157899808Y-70260500D01*
X157899809Y-70260500D01*
X158140191Y-70260500D01*
X158140192Y-70260500D01*
X158377297Y-70220934D01*
X158604656Y-70142882D01*
X158816067Y-70028472D01*
X159005764Y-69880825D01*
X159168571Y-69703969D01*
X159186193Y-69676997D01*
X159239337Y-69631642D01*
X159308568Y-69622218D01*
X159371904Y-69651719D01*
X159393807Y-69676996D01*
X159411429Y-69703969D01*
X159574236Y-69880825D01*
X159592474Y-69895020D01*
X159763927Y-70028468D01*
X159763929Y-70028469D01*
X159763933Y-70028472D01*
X159975344Y-70142882D01*
X160202703Y-70220934D01*
X160439808Y-70260500D01*
X160439809Y-70260500D01*
X160680191Y-70260500D01*
X160680192Y-70260500D01*
X160917297Y-70220934D01*
X161144656Y-70142882D01*
X161356067Y-70028472D01*
X161545764Y-69880825D01*
X161708571Y-69703969D01*
X161726191Y-69676998D01*
X161779334Y-69631643D01*
X161848565Y-69622218D01*
X161911901Y-69651718D01*
X161933807Y-69676997D01*
X161933810Y-69677001D01*
X161951429Y-69703969D01*
X162114236Y-69880825D01*
X162132474Y-69895020D01*
X162303927Y-70028468D01*
X162303929Y-70028469D01*
X162303933Y-70028472D01*
X162515344Y-70142882D01*
X162742703Y-70220934D01*
X162979808Y-70260500D01*
X162979809Y-70260500D01*
X163220191Y-70260500D01*
X163220192Y-70260500D01*
X163457297Y-70220934D01*
X163684656Y-70142882D01*
X163896067Y-70028472D01*
X164085764Y-69880825D01*
X164248571Y-69703969D01*
X164326598Y-69584539D01*
X164379744Y-69539184D01*
X164448975Y-69529760D01*
X164512311Y-69559262D01*
X164531980Y-69581238D01*
X164601889Y-69681077D01*
X164768918Y-69848106D01*
X164962423Y-69983600D01*
X165176509Y-70083430D01*
X165390000Y-70140634D01*
X165390000Y-69245501D01*
X165497685Y-69294680D01*
X165604237Y-69310000D01*
X165675763Y-69310000D01*
X165782315Y-69294680D01*
X165890000Y-69245501D01*
X165890000Y-70140633D01*
X166103490Y-70083430D01*
X166317576Y-69983600D01*
X166511081Y-69848106D01*
X166678106Y-69681081D01*
X166813600Y-69487576D01*
X166913430Y-69273492D01*
X166970636Y-69060000D01*
X166073686Y-69060000D01*
X166099493Y-69019844D01*
X166140000Y-68881889D01*
X166140000Y-68738111D01*
X166099493Y-68600156D01*
X166073686Y-68560000D01*
X166970636Y-68560000D01*
X166970635Y-68559999D01*
X166913430Y-68346507D01*
X166813599Y-68132421D01*
X166678109Y-67938921D01*
X166511081Y-67771893D01*
X166317576Y-67636399D01*
X166103492Y-67536569D01*
X165890000Y-67479364D01*
X165890000Y-68374498D01*
X165782315Y-68325320D01*
X165675763Y-68310000D01*
X165604237Y-68310000D01*
X165497685Y-68325320D01*
X165390000Y-68374498D01*
X165390000Y-67479364D01*
X165389999Y-67479364D01*
X165176507Y-67536569D01*
X164962421Y-67636400D01*
X164768921Y-67771890D01*
X164601893Y-67938918D01*
X164531982Y-68038762D01*
X164477405Y-68082386D01*
X164407906Y-68089579D01*
X164345552Y-68058057D01*
X164326599Y-68035460D01*
X164248573Y-67916034D01*
X164248572Y-67916033D01*
X164248571Y-67916031D01*
X164085764Y-67739175D01*
X164064370Y-67722523D01*
X163896072Y-67591531D01*
X163896068Y-67591528D01*
X163896067Y-67591528D01*
X163684656Y-67477118D01*
X163684655Y-67477117D01*
X163684652Y-67477116D01*
X163457299Y-67399066D01*
X163299227Y-67372688D01*
X163220192Y-67359500D01*
X162979808Y-67359500D01*
X162920531Y-67369391D01*
X162742700Y-67399066D01*
X162515347Y-67477116D01*
X162303927Y-67591531D01*
X162114239Y-67739172D01*
X161951426Y-67916033D01*
X161933808Y-67943000D01*
X161880662Y-67988357D01*
X161811430Y-67997780D01*
X161748095Y-67968278D01*
X161726192Y-67943000D01*
X161708573Y-67916033D01*
X161657422Y-67860468D01*
X161545764Y-67739175D01*
X161524370Y-67722523D01*
X161356072Y-67591531D01*
X161356068Y-67591528D01*
X161356067Y-67591528D01*
X161144656Y-67477118D01*
X161144655Y-67477117D01*
X161144652Y-67477116D01*
X160917299Y-67399066D01*
X160759227Y-67372688D01*
X160680192Y-67359500D01*
X160439808Y-67359500D01*
X160380531Y-67369391D01*
X160202700Y-67399066D01*
X159975347Y-67477116D01*
X159763927Y-67591531D01*
X159574239Y-67739172D01*
X159411426Y-67916033D01*
X159393808Y-67943000D01*
X159340662Y-67988357D01*
X159271430Y-67997780D01*
X159208095Y-67968278D01*
X159186192Y-67943000D01*
X159168573Y-67916033D01*
X159117422Y-67860468D01*
X159005764Y-67739175D01*
X158984370Y-67722523D01*
X158816072Y-67591531D01*
X158816068Y-67591528D01*
X158816067Y-67591528D01*
X158604656Y-67477118D01*
X158604655Y-67477117D01*
X158604652Y-67477116D01*
X158377299Y-67399066D01*
X158219227Y-67372688D01*
X158140192Y-67359500D01*
X157899808Y-67359500D01*
X157840531Y-67369391D01*
X157662700Y-67399066D01*
X157435347Y-67477116D01*
X157223931Y-67591529D01*
X157052474Y-67724979D01*
X156987480Y-67750621D01*
X156918940Y-67737054D01*
X156868615Y-67688586D01*
X156861755Y-67674587D01*
X156854536Y-67657159D01*
X156838607Y-67636400D01*
X156758282Y-67531717D01*
X156632840Y-67435463D01*
X156486762Y-67374956D01*
X156373380Y-67360029D01*
X156373378Y-67360028D01*
X156369361Y-67359500D01*
X156365307Y-67359500D01*
X154594694Y-67359500D01*
X154594678Y-67359500D01*
X154590640Y-67359501D01*
X154586627Y-67360029D01*
X154586615Y-67360030D01*
X154473239Y-67374955D01*
X154327158Y-67435464D01*
X154201717Y-67531717D01*
X154105463Y-67657159D01*
X154044956Y-67803237D01*
X154030107Y-67916031D01*
X154029500Y-67920639D01*
X154029500Y-67924691D01*
X154029500Y-67924692D01*
X154029500Y-69695305D01*
X154029500Y-69695320D01*
X149755993Y-69695320D01*
X149773759Y-69676999D01*
X153633465Y-65696678D01*
X153694265Y-65662254D01*
X153722484Y-65659000D01*
X161290000Y-65659000D01*
X161290000Y-53709571D01*
X161309685Y-53642532D01*
X161362489Y-53596777D01*
X161414218Y-53585571D01*
X166312874Y-53594284D01*
G37*
%TD.AperFunction*%
%TA.AperFunction,Conductor*%
G36*
X163128388Y-101490185D02*
G01*
X163149030Y-101506819D01*
X163815598Y-102173387D01*
X163822424Y-102180791D01*
X163856663Y-102221100D01*
X163886317Y-102243642D01*
X163919773Y-102269075D01*
X163922418Y-102271143D01*
X163984336Y-102320914D01*
X164003821Y-102333000D01*
X164003933Y-102333051D01*
X164003936Y-102333054D01*
X164075943Y-102366368D01*
X164078942Y-102367805D01*
X164150095Y-102403094D01*
X164171716Y-102410706D01*
X164171831Y-102410731D01*
X164171833Y-102410732D01*
X164247156Y-102427311D01*
X164308395Y-102460944D01*
X164341730Y-102522349D01*
X164344500Y-102548411D01*
X164344500Y-103355305D01*
X164344500Y-103355320D01*
X164344501Y-103359360D01*
X164345029Y-103363373D01*
X164345030Y-103363384D01*
X164361542Y-103488816D01*
X164361542Y-103521183D01*
X164345029Y-103646616D01*
X164345028Y-103646625D01*
X164344500Y-103650639D01*
X164344500Y-103654691D01*
X164344500Y-103654692D01*
X164344500Y-104625305D01*
X164344500Y-104625320D01*
X164344501Y-104629360D01*
X164345029Y-104633373D01*
X164345030Y-104633384D01*
X164361542Y-104758816D01*
X164361542Y-104791183D01*
X164345029Y-104916616D01*
X164345028Y-104916625D01*
X164344500Y-104920639D01*
X164344500Y-104924691D01*
X164344500Y-104924692D01*
X164344500Y-105895305D01*
X164344500Y-105895320D01*
X164344501Y-105899360D01*
X164345029Y-105903373D01*
X164345030Y-105903384D01*
X164361542Y-106028816D01*
X164361542Y-106061183D01*
X164345029Y-106186616D01*
X164345028Y-106186625D01*
X164344500Y-106190639D01*
X164344500Y-106194691D01*
X164344500Y-106194692D01*
X164344500Y-107165305D01*
X164344500Y-107165320D01*
X164344501Y-107169360D01*
X164345029Y-107173373D01*
X164345030Y-107173384D01*
X164361542Y-107298816D01*
X164361542Y-107331183D01*
X164345029Y-107456616D01*
X164345028Y-107456625D01*
X164344500Y-107460639D01*
X164344500Y-107464691D01*
X164344500Y-107464692D01*
X164344500Y-108435305D01*
X164344500Y-108435320D01*
X164344501Y-108439360D01*
X164345029Y-108443373D01*
X164345030Y-108443384D01*
X164361542Y-108568816D01*
X164361542Y-108601183D01*
X164345029Y-108726616D01*
X164345028Y-108726625D01*
X164344500Y-108730639D01*
X164344500Y-108734691D01*
X164344500Y-108734692D01*
X164344500Y-109705305D01*
X164344500Y-109705320D01*
X164344501Y-109709360D01*
X164345029Y-109713373D01*
X164345030Y-109713384D01*
X164361542Y-109838816D01*
X164361542Y-109871183D01*
X164345029Y-109996616D01*
X164345028Y-109996625D01*
X164344500Y-110000639D01*
X164344500Y-110004691D01*
X164344500Y-110004692D01*
X164344500Y-110975305D01*
X164344500Y-110975320D01*
X164344501Y-110979360D01*
X164345029Y-110983373D01*
X164345030Y-110983384D01*
X164361542Y-111108816D01*
X164361542Y-111141183D01*
X164345029Y-111266616D01*
X164345028Y-111266625D01*
X164344500Y-111270639D01*
X164344500Y-111274691D01*
X164344500Y-111274692D01*
X164344500Y-112245305D01*
X164344500Y-112245320D01*
X164344501Y-112249360D01*
X164345029Y-112253373D01*
X164345030Y-112253384D01*
X164359955Y-112366760D01*
X164420464Y-112512841D01*
X164516717Y-112638282D01*
X164642158Y-112734535D01*
X164642159Y-112734536D01*
X164767952Y-112786641D01*
X164822356Y-112830482D01*
X164844421Y-112896776D01*
X164844500Y-112901202D01*
X164844500Y-118766663D01*
X164824815Y-118833702D01*
X164798980Y-118862667D01*
X164668287Y-118969504D01*
X164603925Y-118996694D01*
X164589807Y-118997500D01*
X164285320Y-118997500D01*
X164277887Y-118997277D01*
X164260369Y-118996225D01*
X164256341Y-118996510D01*
X164256327Y-118996511D01*
X164253466Y-118996715D01*
X164253463Y-118996715D01*
X164251439Y-118996859D01*
X164249441Y-118997133D01*
X164249423Y-118997135D01*
X164167111Y-119008430D01*
X164153870Y-119011555D01*
X164143240Y-119012954D01*
X164074722Y-119041334D01*
X164067779Y-119043969D01*
X164027369Y-119057935D01*
X164027344Y-119057945D01*
X164023532Y-119059263D01*
X164019911Y-119061073D01*
X164019905Y-119061076D01*
X163673240Y-119234409D01*
X163617786Y-119247500D01*
X160382212Y-119247500D01*
X160326758Y-119234409D01*
X159977937Y-119059998D01*
X159977921Y-119059990D01*
X159976464Y-119059262D01*
X159918308Y-119033901D01*
X159916023Y-119033044D01*
X159912492Y-119032175D01*
X159912490Y-119032175D01*
X159898670Y-119028776D01*
X159880837Y-119022927D01*
X159856763Y-119012956D01*
X159815251Y-119007490D01*
X159801836Y-119004965D01*
X159777918Y-118999084D01*
X159761412Y-118999208D01*
X159744316Y-118998152D01*
X159743386Y-118998029D01*
X159743373Y-118998028D01*
X159739361Y-118997500D01*
X159735306Y-118997500D01*
X157964694Y-118997500D01*
X157964678Y-118997500D01*
X157960640Y-118997501D01*
X157956627Y-118998029D01*
X157956615Y-118998030D01*
X157843239Y-119012955D01*
X157697158Y-119073464D01*
X157571717Y-119169717D01*
X157475463Y-119295159D01*
X157414956Y-119441237D01*
X157400066Y-119554342D01*
X157399500Y-119558639D01*
X157399500Y-119562691D01*
X157399500Y-119562692D01*
X157399500Y-120246492D01*
X157379815Y-120313531D01*
X157327011Y-120359286D01*
X157257853Y-120369230D01*
X157197813Y-120343139D01*
X157110754Y-120273158D01*
X156997089Y-120216786D01*
X156945777Y-120169365D01*
X156944234Y-120166712D01*
X156866550Y-120029269D01*
X156850500Y-119968255D01*
X156850500Y-118904805D01*
X156850909Y-118894742D01*
X156855201Y-118842033D01*
X156844490Y-118763424D01*
X156844086Y-118760119D01*
X156835501Y-118681171D01*
X156830270Y-118658850D01*
X156802877Y-118584286D01*
X156801762Y-118581120D01*
X156797005Y-118567001D01*
X156776444Y-118505979D01*
X156776441Y-118505975D01*
X156776404Y-118505863D01*
X156766494Y-118485180D01*
X156723722Y-118418264D01*
X156721951Y-118415410D01*
X156681009Y-118347363D01*
X156666885Y-118329296D01*
X156610731Y-118273142D01*
X156608389Y-118270736D01*
X156553768Y-118213074D01*
X156535882Y-118198293D01*
X152927800Y-114590211D01*
X152920985Y-114582820D01*
X152904821Y-114563790D01*
X152876425Y-114499955D01*
X152887049Y-114430898D01*
X152933321Y-114378547D01*
X152991093Y-114359836D01*
X152984360Y-114360499D01*
X153101762Y-114345044D01*
X153101763Y-114345043D01*
X153113815Y-114343457D01*
X153146184Y-114343457D01*
X153158237Y-114345043D01*
X153158238Y-114345044D01*
X153275639Y-114360500D01*
X154254360Y-114360499D01*
X154371762Y-114345044D01*
X154371763Y-114345043D01*
X154383815Y-114343457D01*
X154416184Y-114343457D01*
X154428237Y-114345043D01*
X154428238Y-114345044D01*
X154545639Y-114360500D01*
X155524360Y-114360499D01*
X155641762Y-114345044D01*
X155641763Y-114345043D01*
X155653815Y-114343457D01*
X155686184Y-114343457D01*
X155698237Y-114345043D01*
X155698238Y-114345044D01*
X155815639Y-114360500D01*
X156794360Y-114360499D01*
X156911762Y-114345044D01*
X156911763Y-114345043D01*
X156923815Y-114343457D01*
X156956184Y-114343457D01*
X156968237Y-114345043D01*
X156968238Y-114345044D01*
X157085639Y-114360500D01*
X158064360Y-114360499D01*
X158181762Y-114345044D01*
X158181763Y-114345043D01*
X158193815Y-114343457D01*
X158226184Y-114343457D01*
X158238237Y-114345043D01*
X158238238Y-114345044D01*
X158355639Y-114360500D01*
X159334360Y-114360499D01*
X159451762Y-114345044D01*
X159451763Y-114345043D01*
X159463815Y-114343457D01*
X159496184Y-114343457D01*
X159508237Y-114345043D01*
X159508238Y-114345044D01*
X159625639Y-114360500D01*
X160604360Y-114360499D01*
X160721762Y-114345044D01*
X160721763Y-114345043D01*
X160733815Y-114343457D01*
X160766184Y-114343457D01*
X160778237Y-114345043D01*
X160778238Y-114345044D01*
X160895639Y-114360500D01*
X161874360Y-114360499D01*
X161991762Y-114345044D01*
X161991763Y-114345043D01*
X162003815Y-114343457D01*
X162036184Y-114343457D01*
X162048237Y-114345043D01*
X162048238Y-114345044D01*
X162165639Y-114360500D01*
X163144360Y-114360499D01*
X163261762Y-114345044D01*
X163407841Y-114284536D01*
X163533282Y-114188282D01*
X163629536Y-114062841D01*
X163690044Y-113916762D01*
X163705500Y-113799361D01*
X163705499Y-112220640D01*
X163690044Y-112103238D01*
X163629536Y-111957159D01*
X163575846Y-111887188D01*
X163533282Y-111831717D01*
X163407840Y-111735463D01*
X163261762Y-111674956D01*
X163148380Y-111660029D01*
X163148378Y-111660028D01*
X163144361Y-111659500D01*
X163140307Y-111659500D01*
X162169694Y-111659500D01*
X162169678Y-111659500D01*
X162165640Y-111659501D01*
X162161627Y-111660029D01*
X162161615Y-111660030D01*
X162036183Y-111676542D01*
X162003816Y-111676542D01*
X161878383Y-111660029D01*
X161878375Y-111660028D01*
X161874361Y-111659500D01*
X161870307Y-111659500D01*
X160899694Y-111659500D01*
X160899678Y-111659500D01*
X160895640Y-111659501D01*
X160891627Y-111660029D01*
X160891615Y-111660030D01*
X160766183Y-111676542D01*
X160733816Y-111676542D01*
X160608383Y-111660029D01*
X160608375Y-111660028D01*
X160604361Y-111659500D01*
X160600307Y-111659500D01*
X159629694Y-111659500D01*
X159629678Y-111659500D01*
X159625640Y-111659501D01*
X159621627Y-111660029D01*
X159621615Y-111660030D01*
X159496183Y-111676542D01*
X159463816Y-111676542D01*
X159338383Y-111660029D01*
X159338375Y-111660028D01*
X159334361Y-111659500D01*
X159330307Y-111659500D01*
X158359694Y-111659500D01*
X158359678Y-111659500D01*
X158355640Y-111659501D01*
X158351627Y-111660029D01*
X158351615Y-111660030D01*
X158226183Y-111676542D01*
X158193816Y-111676542D01*
X158068383Y-111660029D01*
X158068375Y-111660028D01*
X158064361Y-111659500D01*
X158060307Y-111659500D01*
X157089694Y-111659500D01*
X157089678Y-111659500D01*
X157085640Y-111659501D01*
X157081627Y-111660029D01*
X157081615Y-111660030D01*
X156956183Y-111676542D01*
X156923816Y-111676542D01*
X156798383Y-111660029D01*
X156798375Y-111660028D01*
X156794361Y-111659500D01*
X156790307Y-111659500D01*
X155819694Y-111659500D01*
X155819678Y-111659500D01*
X155815640Y-111659501D01*
X155811627Y-111660029D01*
X155811615Y-111660030D01*
X155686183Y-111676542D01*
X155653816Y-111676542D01*
X155528383Y-111660029D01*
X155528375Y-111660028D01*
X155524361Y-111659500D01*
X155520307Y-111659500D01*
X154549694Y-111659500D01*
X154549678Y-111659500D01*
X154545640Y-111659501D01*
X154541627Y-111660029D01*
X154541615Y-111660030D01*
X154416183Y-111676542D01*
X154383816Y-111676542D01*
X154258383Y-111660029D01*
X154258375Y-111660028D01*
X154254361Y-111659500D01*
X154250307Y-111659500D01*
X153279694Y-111659500D01*
X153279678Y-111659500D01*
X153275640Y-111659501D01*
X153271627Y-111660029D01*
X153271615Y-111660030D01*
X153146183Y-111676542D01*
X153113816Y-111676542D01*
X152988383Y-111660029D01*
X152988375Y-111660028D01*
X152984361Y-111659500D01*
X152980307Y-111659500D01*
X152009694Y-111659500D01*
X152009678Y-111659500D01*
X152005640Y-111659501D01*
X152001627Y-111660029D01*
X152001615Y-111660030D01*
X151888239Y-111674955D01*
X151727077Y-111741711D01*
X151726735Y-111740886D01*
X151678411Y-111759570D01*
X151668091Y-111760000D01*
X151475000Y-111760000D01*
X151475000Y-112042254D01*
X151465560Y-112089706D01*
X151459956Y-112103238D01*
X151444500Y-112220639D01*
X151444500Y-112901202D01*
X151444501Y-113136000D01*
X151424817Y-113203039D01*
X151372013Y-113248794D01*
X151320501Y-113260000D01*
X151204500Y-113260000D01*
X151137461Y-113240315D01*
X151091706Y-113187511D01*
X151080500Y-113136000D01*
X151080500Y-104620000D01*
X153095000Y-104620000D01*
X153095000Y-104864518D01*
X153095354Y-104871132D01*
X153101400Y-104927371D01*
X153151647Y-105062089D01*
X153237811Y-105177188D01*
X153352910Y-105263352D01*
X153487628Y-105313599D01*
X153543867Y-105319645D01*
X153550482Y-105320000D01*
X153795000Y-105320000D01*
X153795000Y-104620000D01*
X154295000Y-104620000D01*
X154295000Y-105320000D01*
X154539518Y-105320000D01*
X154546132Y-105319645D01*
X154602375Y-105313598D01*
X154701665Y-105276565D01*
X154771356Y-105271580D01*
X154788333Y-105276564D01*
X154887628Y-105313599D01*
X154943867Y-105319645D01*
X154950482Y-105320000D01*
X155195000Y-105320000D01*
X155195000Y-104620000D01*
X155695000Y-104620000D01*
X155695000Y-105320000D01*
X155939518Y-105320000D01*
X155946132Y-105319645D01*
X156002375Y-105313598D01*
X156101665Y-105276565D01*
X156171356Y-105271580D01*
X156188333Y-105276564D01*
X156287628Y-105313599D01*
X156343867Y-105319645D01*
X156350482Y-105320000D01*
X156595000Y-105320000D01*
X156595000Y-104620000D01*
X157095000Y-104620000D01*
X157095000Y-105320000D01*
X157339518Y-105320000D01*
X157346132Y-105319645D01*
X157402371Y-105313599D01*
X157537089Y-105263352D01*
X157652188Y-105177188D01*
X157738352Y-105062089D01*
X157788599Y-104927371D01*
X157794645Y-104871132D01*
X157795000Y-104864518D01*
X157795000Y-104620000D01*
X157095000Y-104620000D01*
X156595000Y-104620000D01*
X155695000Y-104620000D01*
X155195000Y-104620000D01*
X154295000Y-104620000D01*
X153795000Y-104620000D01*
X153095000Y-104620000D01*
X151080500Y-104620000D01*
X151080500Y-103220000D01*
X153095000Y-103220000D01*
X153095000Y-103464518D01*
X153095354Y-103471132D01*
X153101400Y-103527373D01*
X153138435Y-103626666D01*
X153143419Y-103696357D01*
X153138435Y-103713332D01*
X153101400Y-103812626D01*
X153095354Y-103868867D01*
X153095000Y-103875481D01*
X153095000Y-104120000D01*
X153795000Y-104120000D01*
X153795000Y-103220000D01*
X154295000Y-103220000D01*
X154295000Y-104120000D01*
X155195000Y-104120000D01*
X155195000Y-103220000D01*
X155695000Y-103220000D01*
X155695000Y-104120000D01*
X156595000Y-104120000D01*
X156595000Y-103220000D01*
X157095000Y-103220000D01*
X157095000Y-104120000D01*
X157795000Y-104120000D01*
X157795000Y-103875481D01*
X157794645Y-103868867D01*
X157788599Y-103812628D01*
X157751564Y-103713334D01*
X157746580Y-103643642D01*
X157751564Y-103626666D01*
X157788599Y-103527371D01*
X157794645Y-103471132D01*
X157795000Y-103464518D01*
X157795000Y-103220000D01*
X157095000Y-103220000D01*
X156595000Y-103220000D01*
X155695000Y-103220000D01*
X155195000Y-103220000D01*
X154295000Y-103220000D01*
X153795000Y-103220000D01*
X153095000Y-103220000D01*
X151080500Y-103220000D01*
X151080500Y-102722603D01*
X151100185Y-102655564D01*
X151152989Y-102609809D01*
X151192344Y-102599200D01*
X151326132Y-102586024D01*
X151514727Y-102528814D01*
X151688538Y-102435910D01*
X151840883Y-102310883D01*
X151965910Y-102158538D01*
X151991413Y-102110822D01*
X151998416Y-102099282D01*
X152189503Y-101820000D01*
X153095000Y-101820000D01*
X153095000Y-102064518D01*
X153095354Y-102071132D01*
X153101400Y-102127373D01*
X153138435Y-102226667D01*
X153143419Y-102296359D01*
X153138435Y-102313333D01*
X153101400Y-102412626D01*
X153095354Y-102468867D01*
X153095000Y-102475481D01*
X153095000Y-102720000D01*
X153795000Y-102720000D01*
X153795000Y-101820000D01*
X154295000Y-101820000D01*
X154295000Y-102720000D01*
X155195000Y-102720000D01*
X155195000Y-101820000D01*
X155695000Y-101820000D01*
X155695000Y-102720000D01*
X156595000Y-102720000D01*
X156595000Y-101820000D01*
X157095000Y-101820000D01*
X157095000Y-102720000D01*
X157795000Y-102720000D01*
X157795000Y-102475481D01*
X157794645Y-102468867D01*
X157788599Y-102412628D01*
X157751564Y-102313334D01*
X157746580Y-102243642D01*
X157751564Y-102226666D01*
X157788599Y-102127371D01*
X157794645Y-102071132D01*
X157795000Y-102064518D01*
X157795000Y-101820000D01*
X157095000Y-101820000D01*
X156595000Y-101820000D01*
X155695000Y-101820000D01*
X155195000Y-101820000D01*
X154295000Y-101820000D01*
X153795000Y-101820000D01*
X153095000Y-101820000D01*
X152189503Y-101820000D01*
X152349216Y-101586573D01*
X152363864Y-101568923D01*
X152425971Y-101506817D01*
X152487296Y-101473333D01*
X152513652Y-101470500D01*
X163061349Y-101470500D01*
X163128388Y-101490185D01*
G37*
%TD.AperFunction*%
%TD*%
%TA.AperFunction,Conductor*%
%TO.N,+3.3V*%
G36*
X151124942Y-96124435D02*
G01*
X151129835Y-96131935D01*
X151130035Y-96134062D01*
X151131000Y-96520000D01*
X151130035Y-96905937D01*
X151126587Y-96914202D01*
X151118306Y-96917608D01*
X151116179Y-96917408D01*
X150339544Y-96771789D01*
X150332044Y-96766896D01*
X150330000Y-96760289D01*
X150330000Y-96279710D01*
X150333427Y-96271437D01*
X150339542Y-96268210D01*
X151116180Y-96122591D01*
X151124942Y-96124435D01*
G37*
%TD.AperFunction*%
%TD*%
%TA.AperFunction,Conductor*%
%TO.N,+3.3V*%
G36*
X148950546Y-96072465D02*
G01*
X149388053Y-96266912D01*
X149394220Y-96273403D01*
X149395000Y-96277603D01*
X149395000Y-96762396D01*
X149391573Y-96770669D01*
X149388052Y-96773088D01*
X148950552Y-96967532D01*
X148941600Y-96967760D01*
X148939786Y-96966876D01*
X148210747Y-96530034D01*
X148205413Y-96522844D01*
X148206726Y-96513986D01*
X148210746Y-96509965D01*
X148939788Y-96073122D01*
X148948644Y-96071810D01*
X148950546Y-96072465D01*
G37*
%TD.AperFunction*%
%TD*%
%TA.AperFunction,Conductor*%
%TO.N,EN*%
G36*
X156251446Y-120172427D02*
G01*
X156253359Y-120174943D01*
X156570628Y-120736265D01*
X156571715Y-120745153D01*
X156568722Y-120750288D01*
X156008280Y-121311705D01*
X156000010Y-121315139D01*
X155991734Y-121311719D01*
X155991720Y-121311705D01*
X155431277Y-120750288D01*
X155427857Y-120742012D01*
X155429370Y-120736268D01*
X155746640Y-120174943D01*
X155753696Y-120169427D01*
X155756827Y-120169000D01*
X156243173Y-120169000D01*
X156251446Y-120172427D01*
G37*
%TD.AperFunction*%
%TD*%
%TA.AperFunction,Conductor*%
%TO.N,EN*%
G36*
X150710721Y-98378671D02*
G01*
X151273855Y-98685427D01*
X151279481Y-98692394D01*
X151279078Y-98700154D01*
X151131603Y-99058527D01*
X151129035Y-99062369D01*
X150856346Y-99333699D01*
X150848065Y-99337105D01*
X150839800Y-99333657D01*
X150839000Y-99332766D01*
X150356112Y-98736225D01*
X150353570Y-98727639D01*
X150356932Y-98720592D01*
X150696852Y-98380672D01*
X150705124Y-98377246D01*
X150710721Y-98378671D01*
G37*
%TD.AperFunction*%
%TD*%
%TA.AperFunction,Conductor*%
%TO.N,EN*%
G36*
X153726753Y-120790414D02*
G01*
X154430071Y-121066088D01*
X154436522Y-121072297D01*
X154437500Y-121076980D01*
X154437500Y-121561272D01*
X154434073Y-121569545D01*
X154430393Y-121572033D01*
X153726895Y-121872313D01*
X153717941Y-121872409D01*
X153715264Y-121870898D01*
X153524531Y-121727262D01*
X153011409Y-121340845D01*
X153006862Y-121333132D01*
X153009102Y-121324462D01*
X153011408Y-121322155D01*
X153715450Y-120791961D01*
X153724119Y-120789722D01*
X153726753Y-120790414D01*
G37*
%TD.AperFunction*%
%TD*%
%TA.AperFunction,Conductor*%
%TO.N,EN*%
G36*
X155259685Y-120767018D02*
G01*
X155988397Y-121309616D01*
X155992986Y-121317305D01*
X155990793Y-121325988D01*
X155988397Y-121328384D01*
X155259685Y-121870981D01*
X155251002Y-121873174D01*
X155248171Y-121872386D01*
X154532174Y-121572009D01*
X154525870Y-121565648D01*
X154525000Y-121561220D01*
X154525000Y-121076779D01*
X154528427Y-121068506D01*
X154532172Y-121065990D01*
X155248172Y-120765612D01*
X155257125Y-120765572D01*
X155259685Y-120767018D01*
G37*
%TD.AperFunction*%
%TD*%
%TA.AperFunction,Conductor*%
%TO.N,EN*%
G36*
X148950546Y-97342465D02*
G01*
X149388053Y-97536912D01*
X149394220Y-97543403D01*
X149395000Y-97547603D01*
X149395000Y-98032396D01*
X149391573Y-98040669D01*
X149388052Y-98043088D01*
X148950552Y-98237532D01*
X148941600Y-98237760D01*
X148939786Y-98236876D01*
X148210747Y-97800034D01*
X148205413Y-97792844D01*
X148206726Y-97783986D01*
X148210746Y-97779965D01*
X148939788Y-97343122D01*
X148948644Y-97341810D01*
X148950546Y-97342465D01*
G37*
%TD.AperFunction*%
%TD*%
%TA.AperFunction,Conductor*%
%TO.N,EN*%
G36*
X150855479Y-98785713D02*
G01*
X150857124Y-98787075D01*
X151130707Y-99059293D01*
X151402924Y-99332875D01*
X151406330Y-99341156D01*
X151402882Y-99349421D01*
X151401237Y-99350783D01*
X150749104Y-99796978D01*
X150740341Y-99798822D01*
X150734224Y-99795595D01*
X150394404Y-99455775D01*
X150390977Y-99447502D01*
X150393021Y-99440895D01*
X150839217Y-98788761D01*
X150846716Y-98783869D01*
X150855479Y-98785713D01*
G37*
%TD.AperFunction*%
%TD*%
%TA.AperFunction,Conductor*%
%TO.N,Net-(C4-Pad1)*%
G36*
X151339189Y-117310214D02*
G01*
X151342431Y-117314977D01*
X151660698Y-118189828D01*
X151660306Y-118198774D01*
X151658252Y-118201815D01*
X151122363Y-118775408D01*
X151114211Y-118779114D01*
X151105827Y-118775970D01*
X151105541Y-118775694D01*
X150763968Y-118434121D01*
X150760541Y-118425862D01*
X150760005Y-117951639D01*
X150762941Y-117943875D01*
X151322674Y-117311223D01*
X151330722Y-117307299D01*
X151339189Y-117310214D01*
G37*
%TD.AperFunction*%
%TD*%
%TA.AperFunction,Conductor*%
%TO.N,Net-(C4-Pad1)*%
G36*
X152533136Y-123125499D02*
G01*
X153006441Y-123477195D01*
X153290158Y-123688015D01*
X153294755Y-123695700D01*
X153293525Y-123702871D01*
X153005443Y-124248239D01*
X152998549Y-124253953D01*
X152991158Y-124253791D01*
X152133600Y-123947075D01*
X152126964Y-123941062D01*
X152125897Y-123934909D01*
X152171065Y-123477192D01*
X152174433Y-123470072D01*
X152517888Y-123126617D01*
X152526160Y-123123191D01*
X152533136Y-123125499D01*
G37*
%TD.AperFunction*%
%TD*%
%TA.AperFunction,Conductor*%
%TO.N,Net-(C4-Pad1)*%
G36*
X149993100Y-120239729D02*
G01*
X150000688Y-120244485D01*
X150002238Y-120247522D01*
X150178005Y-120767895D01*
X150177406Y-120776830D01*
X150175193Y-120779912D01*
X149833235Y-121121870D01*
X149824962Y-121125297D01*
X149818943Y-121123630D01*
X148951529Y-120603181D01*
X148946198Y-120595986D01*
X148946732Y-120588689D01*
X149145735Y-120105921D01*
X149152055Y-120099581D01*
X149158495Y-120098846D01*
X149993100Y-120239729D01*
G37*
%TD.AperFunction*%
%TD*%
%TA.AperFunction,Conductor*%
%TO.N,Net-(C4-Pad1)*%
G36*
X143705676Y-119600838D02*
G01*
X144193532Y-119844765D01*
X144193532Y-119844766D01*
X144199400Y-119851531D01*
X144200000Y-119855231D01*
X144200000Y-120340769D01*
X144196573Y-120349042D01*
X144193532Y-120351234D01*
X143705681Y-120595159D01*
X143696749Y-120595794D01*
X143694526Y-120594783D01*
X142866168Y-120108087D01*
X142860772Y-120100942D01*
X142862008Y-120092073D01*
X142866167Y-120087913D01*
X143694525Y-119601216D01*
X143703391Y-119599981D01*
X143705676Y-119600838D01*
G37*
%TD.AperFunction*%
%TD*%
%TA.AperFunction,Conductor*%
%TO.N,Net-(C4-Pad1)*%
G36*
X148305469Y-119601213D02*
G01*
X149133831Y-120087912D01*
X149139227Y-120095057D01*
X149137991Y-120103926D01*
X149133830Y-120108087D01*
X148305477Y-120594782D01*
X148296608Y-120596018D01*
X148294318Y-120595159D01*
X148293564Y-120594782D01*
X147806466Y-120351233D01*
X147800599Y-120344469D01*
X147800000Y-120340775D01*
X147800000Y-119855228D01*
X147803426Y-119846958D01*
X147806464Y-119844767D01*
X148294320Y-119600839D01*
X148303250Y-119600205D01*
X148305469Y-119601213D01*
G37*
%TD.AperFunction*%
%TD*%
%TA.AperFunction,Conductor*%
%TO.N,Net-(C4-Pad1)*%
G36*
X150129366Y-119073460D02*
G01*
X150470125Y-119414219D01*
X150473552Y-119422492D01*
X150471377Y-119429287D01*
X150003455Y-120085163D01*
X149995860Y-120089908D01*
X149994050Y-120090067D01*
X149157859Y-120098619D01*
X149149551Y-120095277D01*
X149146622Y-120090568D01*
X148988216Y-119607868D01*
X148988893Y-119598939D01*
X148994391Y-119593615D01*
X150116154Y-119071126D01*
X150125099Y-119070740D01*
X150129366Y-119073460D01*
G37*
%TD.AperFunction*%
%TD*%
%TA.AperFunction,Conductor*%
%TO.N,SDA*%
G36*
X164950207Y-101153120D02*
G01*
X165658463Y-101577508D01*
X165679251Y-101589964D01*
X165684586Y-101597156D01*
X165683273Y-101606014D01*
X165679251Y-101610036D01*
X164950213Y-102046876D01*
X164941355Y-102048189D01*
X164939447Y-102047532D01*
X164501948Y-101853088D01*
X164495780Y-101846596D01*
X164495000Y-101842396D01*
X164495000Y-101357603D01*
X164498427Y-101349330D01*
X164501943Y-101346913D01*
X164939449Y-101152466D01*
X164948399Y-101152239D01*
X164950207Y-101153120D01*
G37*
%TD.AperFunction*%
%TD*%
%TA.AperFunction,Conductor*%
%TO.N,SDA*%
G36*
X151525775Y-100864404D02*
G01*
X151865595Y-101204224D01*
X151869022Y-101212497D01*
X151866978Y-101219104D01*
X151420783Y-101871237D01*
X151413283Y-101876130D01*
X151404520Y-101874286D01*
X151402875Y-101872924D01*
X151129293Y-101600707D01*
X150857075Y-101327124D01*
X150853669Y-101318843D01*
X150857117Y-101310578D01*
X150858756Y-101309220D01*
X151510895Y-100863020D01*
X151519658Y-100861177D01*
X151525775Y-100864404D01*
G37*
%TD.AperFunction*%
%TD*%
%TA.AperFunction,Conductor*%
%TO.N,SCL*%
G36*
X151143817Y-97392590D02*
G01*
X151920457Y-97538210D01*
X151927956Y-97543103D01*
X151930000Y-97549710D01*
X151930000Y-98030289D01*
X151926573Y-98038562D01*
X151920456Y-98041789D01*
X151143820Y-98187408D01*
X151135057Y-98185564D01*
X151130164Y-98178064D01*
X151129964Y-98175946D01*
X151129000Y-97790000D01*
X151129964Y-97404059D01*
X151133412Y-97395797D01*
X151141693Y-97392391D01*
X151143817Y-97392590D01*
G37*
%TD.AperFunction*%
%TD*%
%TA.AperFunction,Conductor*%
%TO.N,SCL*%
G36*
X164950207Y-97343120D02*
G01*
X165658463Y-97767508D01*
X165679251Y-97779964D01*
X165684586Y-97787156D01*
X165683273Y-97796014D01*
X165679251Y-97800036D01*
X164950213Y-98236876D01*
X164941355Y-98238189D01*
X164939447Y-98237532D01*
X164501948Y-98043088D01*
X164495780Y-98036596D01*
X164495000Y-98032396D01*
X164495000Y-97547603D01*
X164498427Y-97539330D01*
X164501943Y-97536913D01*
X164939449Y-97342466D01*
X164948399Y-97342239D01*
X164950207Y-97343120D01*
G37*
%TD.AperFunction*%
%TD*%
%TA.AperFunction,Conductor*%
%TO.N,U0TX*%
G36*
X166450477Y-98612322D02*
G01*
X166637047Y-98691417D01*
X166640752Y-98693915D01*
X166982306Y-99035469D01*
X166985733Y-99043742D01*
X166982306Y-99052015D01*
X166980244Y-99053657D01*
X166450237Y-99385691D01*
X166441407Y-99387179D01*
X166439338Y-99386496D01*
X166163214Y-99265754D01*
X165715061Y-99069788D01*
X165708855Y-99063335D01*
X165709030Y-99054381D01*
X165713726Y-99049039D01*
X166439895Y-98613064D01*
X166448751Y-98611745D01*
X166450477Y-98612322D01*
G37*
%TD.AperFunction*%
%TD*%
%TA.AperFunction,Conductor*%
%TO.N,U0TX*%
G36*
X152385545Y-76661097D02*
G01*
X152392011Y-76667293D01*
X152393000Y-76672000D01*
X152393000Y-77155999D01*
X152389573Y-77164272D01*
X152385545Y-77166902D01*
X151028941Y-77695146D01*
X151019989Y-77694954D01*
X151013891Y-77688732D01*
X150693865Y-76918489D01*
X150693856Y-76909534D01*
X150693865Y-76909511D01*
X150792548Y-76672000D01*
X151013891Y-76139266D01*
X151020230Y-76132942D01*
X151028941Y-76132853D01*
X152385545Y-76661097D01*
G37*
%TD.AperFunction*%
%TD*%
%TA.AperFunction,Conductor*%
%TO.N,U0RX*%
G36*
X152385545Y-74121097D02*
G01*
X152392011Y-74127293D01*
X152393000Y-74132000D01*
X152393000Y-74615999D01*
X152389573Y-74624272D01*
X152385545Y-74626902D01*
X151028941Y-75155146D01*
X151019989Y-75154954D01*
X151013891Y-75148732D01*
X150693865Y-74378489D01*
X150693856Y-74369534D01*
X150693865Y-74369511D01*
X150792548Y-74132000D01*
X151013891Y-73599266D01*
X151020230Y-73592942D01*
X151028941Y-73592853D01*
X152385545Y-74121097D01*
G37*
%TD.AperFunction*%
%TD*%
%TA.AperFunction,Conductor*%
%TO.N,U0RX*%
G36*
X166450477Y-99882322D02*
G01*
X166637047Y-99961417D01*
X166640752Y-99963915D01*
X166982306Y-100305469D01*
X166985733Y-100313742D01*
X166982306Y-100322015D01*
X166980244Y-100323657D01*
X166450237Y-100655691D01*
X166441407Y-100657179D01*
X166439338Y-100656496D01*
X166163214Y-100535754D01*
X165715061Y-100339788D01*
X165708855Y-100333335D01*
X165709030Y-100324381D01*
X165713726Y-100319039D01*
X166439895Y-99883064D01*
X166448751Y-99881745D01*
X166450477Y-99882322D01*
G37*
%TD.AperFunction*%
%TD*%
%TA.AperFunction,Conductor*%
%TO.N,GPIO0*%
G36*
X165942828Y-119120066D02*
G01*
X165946180Y-119127017D01*
X165998882Y-119590455D01*
X165996412Y-119599062D01*
X165993199Y-119601856D01*
X165160101Y-120093044D01*
X165151234Y-120094294D01*
X165144080Y-120088907D01*
X165144067Y-120088884D01*
X164861221Y-119606638D01*
X164859991Y-119597768D01*
X164863906Y-119591663D01*
X165441768Y-119119280D01*
X165449173Y-119116639D01*
X165934555Y-119116639D01*
X165942828Y-119120066D01*
G37*
%TD.AperFunction*%
%TD*%
%TA.AperFunction,Conductor*%
%TO.N,GPIO0*%
G36*
X159705676Y-119600838D02*
G01*
X160193532Y-119844765D01*
X160193532Y-119844766D01*
X160199400Y-119851531D01*
X160200000Y-119855231D01*
X160200000Y-120340769D01*
X160196573Y-120349042D01*
X160193532Y-120351234D01*
X159705681Y-120595159D01*
X159696749Y-120595794D01*
X159694526Y-120594783D01*
X158866168Y-120108087D01*
X158860772Y-120100942D01*
X158862008Y-120092073D01*
X158866167Y-120087913D01*
X159694525Y-119601216D01*
X159703391Y-119599981D01*
X159705676Y-119600838D01*
G37*
%TD.AperFunction*%
%TD*%
%TA.AperFunction,Conductor*%
%TO.N,GPIO0*%
G36*
X164305469Y-119601213D02*
G01*
X165133831Y-120087912D01*
X165139227Y-120095057D01*
X165137991Y-120103926D01*
X165133830Y-120108087D01*
X164305477Y-120594782D01*
X164296608Y-120596018D01*
X164294318Y-120595159D01*
X164293564Y-120594782D01*
X163806466Y-120351233D01*
X163800599Y-120344469D01*
X163800000Y-120340775D01*
X163800000Y-119855228D01*
X163803426Y-119846958D01*
X163806464Y-119844767D01*
X164294320Y-119600839D01*
X164303250Y-119600205D01*
X164305469Y-119601213D01*
G37*
%TD.AperFunction*%
%TD*%
%TA.AperFunction,Conductor*%
%TO.N,GPIO0*%
G36*
X165703264Y-111767282D02*
G01*
X165703282Y-111767300D01*
X166139330Y-112204317D01*
X166142748Y-112212594D01*
X166141740Y-112217333D01*
X165948088Y-112653052D01*
X165941596Y-112659220D01*
X165937396Y-112660000D01*
X165452604Y-112660000D01*
X165444331Y-112656573D01*
X165441912Y-112653052D01*
X165248259Y-112217333D01*
X165248031Y-112208381D01*
X165250666Y-112204321D01*
X165686718Y-111767299D01*
X165694987Y-111763864D01*
X165703264Y-111767282D01*
G37*
%TD.AperFunction*%
%TD*%
%TA.AperFunction,Conductor*%
%TO.N,GPIO34*%
G36*
X139034174Y-85376879D02*
G01*
X139038426Y-85382626D01*
X139575733Y-86969825D01*
X139575140Y-86978761D01*
X139572924Y-86981850D01*
X139229616Y-87325158D01*
X139221343Y-87328585D01*
X139217659Y-87327990D01*
X137646526Y-86806705D01*
X137639752Y-86800847D01*
X137638636Y-86793887D01*
X137818440Y-85580344D01*
X137823043Y-85572665D01*
X137828124Y-85570514D01*
X139025459Y-85374831D01*
X139034174Y-85376879D01*
G37*
%TD.AperFunction*%
%TD*%
%TA.AperFunction,Conductor*%
%TO.N,GPIO34*%
G36*
X147450105Y-101153065D02*
G01*
X148176271Y-101589038D01*
X148181600Y-101596234D01*
X148180280Y-101605091D01*
X148174937Y-101609789D01*
X147450661Y-101926496D01*
X147441707Y-101926671D01*
X147439765Y-101925692D01*
X147200362Y-101775714D01*
X146909755Y-101593657D01*
X146904563Y-101586361D01*
X146906051Y-101577531D01*
X146907689Y-101575473D01*
X147249250Y-101233912D01*
X147252949Y-101231418D01*
X147439518Y-101152323D01*
X147448471Y-101152250D01*
X147450105Y-101153065D01*
G37*
%TD.AperFunction*%
%TD*%
D33*
X105664000Y-126238000D02*
G75*
G03*
X105664000Y-126238000I-1524000J0D01*
G01*
X101600000Y-50934000D02*
X170976000Y-50934000D01*
X170976000Y-128778000D01*
X101600000Y-128778000D01*
X101600000Y-50934000D01*
X105664000Y-53594000D02*
G75*
G03*
X105664000Y-53594000I-1524000J0D01*
G01*
X169926000Y-126238000D02*
G75*
G03*
X169926000Y-126238000I-1524000J0D01*
G01*
X169926000Y-53594000D02*
G75*
G03*
X169926000Y-53594000I-1524000J0D01*
G01*
M02*
