%TF.GenerationSoftware,KiCad,Pcbnew,7.0.2*%
%TF.CreationDate,2023-08-24T00:14:33+05:00*%
%TF.ProjectId,IOTV,494f5456-2e6b-4696-9361-645f70636258,3*%
%TF.SameCoordinates,Original*%
%TF.FileFunction,Copper,L1,Top*%
%TF.FilePolarity,Positive*%
%FSLAX46Y46*%
G04 Gerber Fmt 4.6, Leading zero omitted, Abs format (unit mm)*
G04 Created by KiCad (PCBNEW 7.0.2) date 2023-08-24 00:14:33*
%MOMM*%
%LPD*%
G01*
G04 APERTURE LIST*
G04 Aperture macros list*
%AMRoundRect*
0 Rectangle with rounded corners*
0 $1 Rounding radius*
0 $2 $3 $4 $5 $6 $7 $8 $9 X,Y pos of 4 corners*
0 Add a 4 corners polygon primitive as box body*
4,1,4,$2,$3,$4,$5,$6,$7,$8,$9,$2,$3,0*
0 Add four circle primitives for the rounded corners*
1,1,$1+$1,$2,$3*
1,1,$1+$1,$4,$5*
1,1,$1+$1,$6,$7*
1,1,$1+$1,$8,$9*
0 Add four rect primitives between the rounded corners*
20,1,$1+$1,$2,$3,$4,$5,0*
20,1,$1+$1,$4,$5,$6,$7,0*
20,1,$1+$1,$6,$7,$8,$9,0*
20,1,$1+$1,$8,$9,$2,$3,0*%
%AMFreePoly0*
4,1,18,0.843072,1.985355,1.985355,0.843072,2.000000,0.807717,2.000000,-0.807717,1.985355,-0.843072,0.843072,-1.985355,0.807717,-2.000000,0.000000,-2.000000,-0.807717,-2.000000,-0.843072,-1.985354,-1.985355,-0.843072,-2.000000,-0.807717,-2.000000,0.807717,-1.985354,0.843072,-0.843072,1.985355,-0.807717,2.000000,0.807717,2.000000,0.843072,1.985355,0.843072,1.985355,$1*%
G04 Aperture macros list end*
%TA.AperFunction,ComponentPad*%
%ADD10C,2.500000*%
%TD*%
%TA.AperFunction,ComponentPad*%
%ADD11C,2.000000*%
%TD*%
%TA.AperFunction,ComponentPad*%
%ADD12R,1.700000X1.700000*%
%TD*%
%TA.AperFunction,ComponentPad*%
%ADD13O,1.700000X1.700000*%
%TD*%
%TA.AperFunction,SMDPad,CuDef*%
%ADD14R,1.500000X0.900000*%
%TD*%
%TA.AperFunction,SMDPad,CuDef*%
%ADD15R,0.900000X1.500000*%
%TD*%
%TA.AperFunction,SMDPad,CuDef*%
%ADD16R,0.900000X0.900000*%
%TD*%
%TA.AperFunction,SMDPad,CuDef*%
%ADD17R,1.700000X1.000000*%
%TD*%
%TA.AperFunction,SMDPad,CuDef*%
%ADD18RoundRect,0.250000X0.325000X0.650000X-0.325000X0.650000X-0.325000X-0.650000X0.325000X-0.650000X0*%
%TD*%
%TA.AperFunction,ComponentPad*%
%ADD19C,4.000000*%
%TD*%
%TA.AperFunction,ComponentPad*%
%ADD20FreePoly0,0.000000*%
%TD*%
%TA.AperFunction,ComponentPad*%
%ADD21R,1.500000X1.500000*%
%TD*%
%TA.AperFunction,ComponentPad*%
%ADD22C,1.500000*%
%TD*%
%TA.AperFunction,SMDPad,CuDef*%
%ADD23RoundRect,0.250000X0.625000X-0.312500X0.625000X0.312500X-0.625000X0.312500X-0.625000X-0.312500X0*%
%TD*%
%TA.AperFunction,ComponentPad*%
%ADD24R,2.600000X2.600000*%
%TD*%
%TA.AperFunction,ComponentPad*%
%ADD25C,2.600000*%
%TD*%
%TA.AperFunction,ComponentPad*%
%ADD26C,1.700000*%
%TD*%
%TA.AperFunction,ComponentPad*%
%ADD27R,3.000000X3.000000*%
%TD*%
%TA.AperFunction,ComponentPad*%
%ADD28C,3.000000*%
%TD*%
%TA.AperFunction,SMDPad,CuDef*%
%ADD29RoundRect,0.250000X-0.650000X0.325000X-0.650000X-0.325000X0.650000X-0.325000X0.650000X0.325000X0*%
%TD*%
%TA.AperFunction,ViaPad*%
%ADD30C,0.800000*%
%TD*%
%TA.AperFunction,Conductor*%
%ADD31C,0.500000*%
%TD*%
%TA.AperFunction,Conductor*%
%ADD32C,2.500000*%
%TD*%
%TA.AperFunction,Profile*%
%ADD33C,0.150000*%
%TD*%
G04 APERTURE END LIST*
D10*
%TO.P,U2,11*%
%TO.N,SSD-1*%
X138633200Y-70104000D03*
%TO.P,U2,14*%
%TO.N,SSD-2*%
X138633200Y-80899000D03*
%TO.P,U2,A1*%
%TO.N,GPIO34*%
X138633200Y-92329000D03*
%TO.P,U2,A2*%
%TO.N,GND*%
X138633200Y-96774000D03*
%TD*%
D11*
%TO.P,C5,1*%
%TO.N,~220*%
X117694000Y-67998000D03*
%TO.P,C5,2*%
%TO.N,SSD-1*%
X107694000Y-67998000D03*
%TD*%
D12*
%TO.P,J8,1,Pin_1*%
%TO.N,GND*%
X150693000Y-79454000D03*
D13*
%TO.P,J8,2,Pin_2*%
%TO.N,U0TX*%
X150693000Y-76914000D03*
%TO.P,J8,3,Pin_3*%
%TO.N,U0RX*%
X150693000Y-74374000D03*
%TO.P,J8,4,Pin_4*%
%TO.N,+3.3V*%
X150693000Y-71834000D03*
%TD*%
D14*
%TO.P,U1,1,GND*%
%TO.N,GND*%
X148195000Y-95250000D03*
%TO.P,U1,2,3V3*%
%TO.N,+3.3V*%
X148195000Y-96520000D03*
%TO.P,U1,3,EN/CHIP_PU*%
%TO.N,EN*%
X148195000Y-97790000D03*
%TO.P,U1,4,SENSOR_VP/GPIO36/ADC1_CH0*%
%TO.N,unconnected-(U1-SENSOR_VP{slash}GPIO36{slash}ADC1_CH0-Pad4)*%
X148195000Y-99060000D03*
%TO.P,U1,5,SENSOR_VN/GPIO39/ADC1_CH3*%
%TO.N,unconnected-(U1-SENSOR_VN{slash}GPIO39{slash}ADC1_CH3-Pad5)*%
X148195000Y-100330000D03*
%TO.P,U1,6,GPIO34/ADC1_CH6*%
%TO.N,GPIO34*%
X148195000Y-101600000D03*
%TO.P,U1,7,GPIO35/ADC1_CH7*%
%TO.N,unconnected-(U1-GPIO35{slash}ADC1_CH7-Pad7)*%
X148195000Y-102870000D03*
%TO.P,U1,8,32K_XP/GPIO32/ADC1_CH4*%
%TO.N,unconnected-(U1-32K_XP{slash}GPIO32{slash}ADC1_CH4-Pad8)*%
X148195000Y-104140000D03*
%TO.P,U1,9,32K_XN/GPIO33/ADC1_CH5*%
%TO.N,unconnected-(U1-32K_XN{slash}GPIO33{slash}ADC1_CH5-Pad9)*%
X148195000Y-105410000D03*
%TO.P,U1,10,DAC_1/ADC2_CH8/GPIO25*%
%TO.N,unconnected-(U1-DAC_1{slash}ADC2_CH8{slash}GPIO25-Pad10)*%
X148195000Y-106680000D03*
%TO.P,U1,11,DAC_2/ADC2_CH9/GPIO26*%
%TO.N,unconnected-(U1-DAC_2{slash}ADC2_CH9{slash}GPIO26-Pad11)*%
X148195000Y-107950000D03*
%TO.P,U1,12,ADC2_CH7/GPIO27*%
%TO.N,unconnected-(U1-ADC2_CH7{slash}GPIO27-Pad12)*%
X148195000Y-109220000D03*
%TO.P,U1,13,MTMS/GPIO14/ADC2_CH6*%
%TO.N,unconnected-(U1-MTMS{slash}GPIO14{slash}ADC2_CH6-Pad13)*%
X148195000Y-110490000D03*
%TO.P,U1,14,MTDI/GPIO12/ADC2_CH5*%
%TO.N,unconnected-(U1-MTDI{slash}GPIO12{slash}ADC2_CH5-Pad14)*%
X148195000Y-111760000D03*
D15*
%TO.P,U1,15,GND*%
%TO.N,GND*%
X151225000Y-113010000D03*
%TO.P,U1,16,MTCK/GPIO13/ADC2_CH4*%
%TO.N,unconnected-(U1-MTCK{slash}GPIO13{slash}ADC2_CH4-Pad16)*%
X152495000Y-113010000D03*
%TO.P,U1,17*%
%TO.N,N/C*%
X153765000Y-113010000D03*
%TO.P,U1,18*%
X155035000Y-113010000D03*
%TO.P,U1,19*%
X156305000Y-113010000D03*
%TO.P,U1,20*%
X157575000Y-113010000D03*
%TO.P,U1,21*%
X158845000Y-113010000D03*
%TO.P,U1,22*%
X160115000Y-113010000D03*
%TO.P,U1,23,MTDO/GPIO15/ADC2_CH3*%
%TO.N,unconnected-(U1-MTDO{slash}GPIO15{slash}ADC2_CH3-Pad23)*%
X161385000Y-113010000D03*
%TO.P,U1,24,ADC2_CH2/GPIO2*%
%TO.N,unconnected-(U1-ADC2_CH2{slash}GPIO2-Pad24)*%
X162655000Y-113010000D03*
D14*
%TO.P,U1,25,GPIO0/BOOT/ADC2_CH1*%
%TO.N,GPIO0*%
X165695000Y-111760000D03*
%TO.P,U1,26,ADC2_CH0/GPIO4*%
%TO.N,unconnected-(U1-ADC2_CH0{slash}GPIO4-Pad26)*%
X165695000Y-110490000D03*
%TO.P,U1,27,GPIO16*%
%TO.N,unconnected-(U1-GPIO16-Pad27)*%
X165695000Y-109220000D03*
%TO.P,U1,28,GPIO17*%
%TO.N,unconnected-(U1-GPIO17-Pad28)*%
X165695000Y-107950000D03*
%TO.P,U1,29,GPIO5*%
%TO.N,unconnected-(U1-GPIO5-Pad29)*%
X165695000Y-106680000D03*
%TO.P,U1,30,GPIO18*%
%TO.N,unconnected-(U1-GPIO18-Pad30)*%
X165695000Y-105410000D03*
%TO.P,U1,31,GPIO19*%
%TO.N,unconnected-(U1-GPIO19-Pad31)*%
X165695000Y-104140000D03*
%TO.P,U1,32*%
%TO.N,N/C*%
X165695000Y-102870000D03*
%TO.P,U1,33,GPIO21*%
%TO.N,SDA*%
X165695000Y-101600000D03*
%TO.P,U1,34,U0RXD/GPIO3*%
%TO.N,U0RX*%
X165695000Y-100330000D03*
%TO.P,U1,35,U0TXD/GPIO1*%
%TO.N,U0TX*%
X165695000Y-99060000D03*
%TO.P,U1,36,GPIO22*%
%TO.N,SCL*%
X165695000Y-97790000D03*
%TO.P,U1,37,GPIO23*%
%TO.N,unconnected-(U1-GPIO23-Pad37)*%
X165695000Y-96520000D03*
%TO.P,U1,38,GND*%
%TO.N,GND*%
X165695000Y-95250000D03*
D16*
%TO.P,U1,39,GND_THERMAL*%
X154045000Y-101570000D03*
X154045000Y-101570000D03*
X154045000Y-102970000D03*
X154045000Y-104370000D03*
X154045000Y-104370000D03*
X155445000Y-101570000D03*
X155445000Y-102970000D03*
X155445000Y-104370000D03*
X155445000Y-104370000D03*
X156845000Y-101570000D03*
X156845000Y-102970000D03*
X156845000Y-104370000D03*
%TD*%
D17*
%TO.P,SW2,1,1*%
%TO.N,GPIO0*%
X158850000Y-120098000D03*
X165150000Y-120098000D03*
%TO.P,SW2,2,2*%
%TO.N,GND*%
X158850000Y-123898000D03*
X165150000Y-123898000D03*
%TD*%
D13*
%TO.P,J3,4,Pin_4*%
%TO.N,SCL*%
X133109200Y-107264200D03*
%TO.P,J3,3,Pin_3*%
%TO.N,SDA*%
X133109200Y-109804200D03*
%TO.P,J3,2,Pin_2*%
%TO.N,+3.3V*%
X133109200Y-112344200D03*
D12*
%TO.P,J3,1,Pin_1*%
%TO.N,GND*%
X133109200Y-114884200D03*
%TD*%
D13*
%TO.P,J5,4,Pin_4*%
%TO.N,SCL*%
X141109200Y-107264200D03*
%TO.P,J5,3,Pin_3*%
%TO.N,SDA*%
X141109200Y-109804200D03*
%TO.P,J5,2,Pin_2*%
%TO.N,+3.3V*%
X141109200Y-112344200D03*
D12*
%TO.P,J5,1,Pin_1*%
%TO.N,GND*%
X141109200Y-114884200D03*
%TD*%
D18*
%TO.P,C4,1*%
%TO.N,Net-(C4-Pad1)*%
X151335000Y-117297200D03*
%TO.P,C4,2*%
%TO.N,GND*%
X148385000Y-117297200D03*
%TD*%
D19*
%TO.P,F1,1*%
%TO.N,Net-(J1-Pin_1)*%
X121506000Y-58513000D03*
D20*
%TO.P,F1,2*%
%TO.N,~220*%
X145636000Y-58513000D03*
%TD*%
D21*
%TO.P,PS1,1,AC1*%
%TO.N,Net-(PS1-AC1)*%
X121265200Y-90170000D03*
D22*
%TO.P,PS1,2,AC2*%
%TO.N,Net-(PS1-AC2)*%
X115265200Y-90170000D03*
%TO.P,PS1,3,-VO*%
%TO.N,GND*%
X127265200Y-123770000D03*
%TO.P,PS1,4,+VO*%
%TO.N,+3.3V*%
X109265200Y-123770000D03*
%TD*%
D23*
%TO.P,R2,1*%
%TO.N,Net-(C4-Pad1)*%
X153000000Y-124256500D03*
%TO.P,R2,2*%
%TO.N,EN*%
X153000000Y-121331500D03*
%TD*%
D24*
%TO.P,J1,1,Pin_1*%
%TO.N,Net-(J1-Pin_1)*%
X114944000Y-58193000D03*
D25*
%TO.P,J1,2,Pin_2*%
%TO.N,SSD-1*%
X109944000Y-58193000D03*
%TD*%
D13*
%TO.P,J4,4,Pin_4*%
%TO.N,SCL*%
X137109200Y-107264200D03*
%TO.P,J4,3,Pin_3*%
%TO.N,SDA*%
X137109200Y-109804200D03*
%TO.P,J4,2,Pin_2*%
%TO.N,+3.3V*%
X137109200Y-112344200D03*
D12*
%TO.P,J4,1,Pin_1*%
%TO.N,GND*%
X137109200Y-114884200D03*
%TD*%
D17*
%TO.P,SW1,1,1*%
%TO.N,Net-(C4-Pad1)*%
X142850000Y-120098000D03*
X149150000Y-120098000D03*
%TO.P,SW1,2,2*%
%TO.N,GND*%
X142850000Y-123898000D03*
X149150000Y-123898000D03*
%TD*%
D12*
%TO.P,C6,1*%
%TO.N,+3.3V*%
X137639800Y-122072400D03*
D26*
%TO.P,C6,2*%
%TO.N,GND*%
X132639800Y-122072400D03*
%TD*%
D27*
%TO.P,FL1,1,1*%
%TO.N,Net-(PS1-AC1)*%
X121171000Y-83982750D03*
D28*
%TO.P,FL1,2,2*%
%TO.N,~220*%
X121171000Y-74076750D03*
%TO.P,FL1,3,3*%
%TO.N,SSD-1*%
X108217000Y-74076750D03*
%TO.P,FL1,4,4*%
%TO.N,Net-(PS1-AC2)*%
X108217000Y-83982750D03*
%TD*%
D24*
%TO.P,J2,1,Pin_1*%
%TO.N,Net-(J1-Pin_1)*%
X157444000Y-58193000D03*
D25*
%TO.P,J2,2,Pin_2*%
%TO.N,SSD-2*%
X152444000Y-58193000D03*
%TD*%
D12*
%TO.P,J6,1,Pin_1*%
%TO.N,+3.3V*%
X155480000Y-68810000D03*
D13*
%TO.P,J6,2,Pin_2*%
%TO.N,SDA*%
X158020000Y-68810000D03*
%TO.P,J6,3,Pin_3*%
%TO.N,SCL*%
X160560000Y-68810000D03*
%TO.P,J6,4,Pin_4*%
%TO.N,unconnected-(J6-Pin_4-Pad4)*%
X163100000Y-68810000D03*
%TO.P,J6,5,Pin_5*%
%TO.N,GND*%
X165640000Y-68810000D03*
%TD*%
D11*
%TO.P,RVe1,1*%
%TO.N,~220*%
X128694000Y-69998000D03*
%TO.P,RVe1,2*%
%TO.N,SSD-1*%
X126744000Y-79998000D03*
%TD*%
D29*
%TO.P,C3,1*%
%TO.N,EN*%
X156000000Y-121319000D03*
%TO.P,C3,2*%
%TO.N,GND*%
X156000000Y-124269000D03*
%TD*%
D30*
%TO.N,GND*%
X163830000Y-95250000D03*
X151231600Y-111125000D03*
%TO.N,+3.3V*%
X151130000Y-96520000D03*
%TO.N,EN*%
X151130000Y-99060000D03*
%TO.N,SDA*%
X151130000Y-101600000D03*
%TO.N,SCL*%
X151130000Y-97790000D03*
%TD*%
D31*
%TO.N,GPIO34*%
X148195000Y-101600000D02*
X147265000Y-101600000D01*
X147265000Y-101600000D02*
X141478000Y-95813000D01*
X141478000Y-95813000D02*
X141478000Y-94488000D01*
X141478000Y-94488000D02*
X139319000Y-92329000D01*
X139319000Y-92329000D02*
X138633200Y-92329000D01*
%TO.N,SDA*%
X137109200Y-109804200D02*
X133109200Y-109804200D01*
X141109200Y-109804200D02*
X137109200Y-109804200D01*
%TO.N,SCL*%
X137109200Y-107264200D02*
X141109200Y-107264200D01*
X133109200Y-107264200D02*
X137109200Y-107264200D01*
%TO.N,GND*%
X151225000Y-113010000D02*
X151225000Y-111131600D01*
X151225000Y-111131600D02*
X151231600Y-111125000D01*
X165695000Y-95250000D02*
X163830000Y-95250000D01*
%TO.N,+3.3V*%
X148195000Y-96520000D02*
X151130000Y-96520000D01*
%TO.N,EN*%
X151035000Y-99060000D02*
X151130000Y-99060000D01*
X150230000Y-114215000D02*
X150230000Y-99960000D01*
X156000000Y-121319000D02*
X156000000Y-118865200D01*
X149765000Y-97790000D02*
X151035000Y-99060000D01*
X152298400Y-115163600D02*
X151178600Y-115163600D01*
X156000000Y-118865200D02*
X152298400Y-115163600D01*
X156000000Y-121319000D02*
X153012500Y-121319000D01*
X148195000Y-97790000D02*
X149765000Y-97790000D01*
X153012500Y-121319000D02*
X153000000Y-121331500D01*
X150230000Y-99960000D02*
X151130000Y-99060000D01*
X151178600Y-115163600D02*
X150230000Y-114215000D01*
%TO.N,Net-(C4-Pad1)*%
X151335000Y-117297200D02*
X151335000Y-118209800D01*
X153000000Y-124256500D02*
X153000000Y-123948000D01*
X153000000Y-123948000D02*
X149150000Y-120098000D01*
X142850000Y-120098000D02*
X149150000Y-120098000D01*
X151335000Y-118209800D02*
X149446800Y-120098000D01*
X149446800Y-120098000D02*
X149150000Y-120098000D01*
%TO.N,SDA*%
X152110000Y-100620000D02*
X163465000Y-100620000D01*
X163465000Y-100620000D02*
X164445000Y-101600000D01*
X164445000Y-101600000D02*
X165695000Y-101600000D01*
X151130000Y-101600000D02*
X152110000Y-100620000D01*
%TO.N,SCL*%
X165695000Y-97790000D02*
X151130000Y-97790000D01*
D32*
%TO.N,Net-(PS1-AC2)*%
X108217000Y-83982750D02*
X114404250Y-90170000D01*
X114404250Y-90170000D02*
X115265200Y-90170000D01*
%TO.N,Net-(PS1-AC1)*%
X121265200Y-84076950D02*
X121171000Y-83982750D01*
X121265200Y-90170000D02*
X121265200Y-84076950D01*
D31*
%TO.N,U0TX*%
X166945000Y-98740000D02*
X166625000Y-99060000D01*
X155452554Y-76914000D02*
X166945000Y-88406446D01*
X166945000Y-88406446D02*
X166945000Y-98740000D01*
X166625000Y-99060000D02*
X165695000Y-99060000D01*
X150693000Y-76914000D02*
X155452554Y-76914000D01*
%TO.N,U0RX*%
X153973214Y-74374000D02*
X150693000Y-74374000D01*
X165695000Y-100330000D02*
X166625000Y-100330000D01*
X166625000Y-100330000D02*
X167695000Y-99260000D01*
X167695000Y-88095786D02*
X153973214Y-74374000D01*
X167695000Y-99260000D02*
X167695000Y-88095786D01*
%TO.N,GPIO0*%
X165695000Y-119553000D02*
X165150000Y-120098000D01*
X158850000Y-120098000D02*
X165150000Y-120098000D01*
X165695000Y-111760000D02*
X165695000Y-119553000D01*
%TD*%
%TA.AperFunction,Conductor*%
%TO.N,GND*%
G36*
X166312874Y-53594284D02*
G01*
X166379875Y-53614087D01*
X166425536Y-53666972D01*
X166429722Y-53677416D01*
X166841276Y-54856394D01*
X166874482Y-54951517D01*
X166874482Y-54951518D01*
X168328335Y-55597280D01*
X168381612Y-55642483D01*
X168401993Y-55709314D01*
X168402000Y-55710604D01*
X168402000Y-87300635D01*
X168382315Y-87367674D01*
X168329511Y-87413429D01*
X168260353Y-87423373D01*
X168196797Y-87394348D01*
X168190319Y-87388316D01*
X154602614Y-73800611D01*
X154595787Y-73793205D01*
X154561555Y-73752904D01*
X154561553Y-73752902D01*
X154561551Y-73752900D01*
X154498381Y-73704879D01*
X154495836Y-73702889D01*
X154433968Y-73653158D01*
X154433965Y-73653156D01*
X154433880Y-73653088D01*
X154414388Y-73640997D01*
X154342296Y-73607643D01*
X154339271Y-73606193D01*
X154268121Y-73570907D01*
X154246494Y-73563292D01*
X154168947Y-73546223D01*
X154165678Y-73545457D01*
X154088600Y-73526289D01*
X154065830Y-73523500D01*
X154065711Y-73523500D01*
X153986441Y-73523500D01*
X153983084Y-73523455D01*
X153903662Y-73521303D01*
X153880564Y-73523500D01*
X151935979Y-73523500D01*
X151868940Y-73503815D01*
X151844749Y-73483483D01*
X151819874Y-73456462D01*
X151678764Y-73303175D01*
X151653265Y-73283329D01*
X151548586Y-73201853D01*
X151507773Y-73145143D01*
X151504098Y-73075370D01*
X151538730Y-73014687D01*
X151548586Y-73006147D01*
X151586955Y-72976282D01*
X151678764Y-72904825D01*
X151841571Y-72727969D01*
X151973049Y-72526728D01*
X152069610Y-72306591D01*
X152128620Y-72073563D01*
X152148471Y-71834000D01*
X152128620Y-71594437D01*
X152069610Y-71361409D01*
X151973049Y-71141272D01*
X151841571Y-70940031D01*
X151678764Y-70763175D01*
X151657370Y-70746523D01*
X151489072Y-70615531D01*
X151489068Y-70615528D01*
X151489067Y-70615528D01*
X151277656Y-70501118D01*
X151277655Y-70501117D01*
X151277652Y-70501116D01*
X151050299Y-70423066D01*
X150892227Y-70396688D01*
X150813192Y-70383500D01*
X150572808Y-70383500D01*
X150513531Y-70393391D01*
X150335700Y-70423066D01*
X150108347Y-70501116D01*
X149896927Y-70615531D01*
X149707239Y-70763172D01*
X149544430Y-70940030D01*
X149412950Y-71141274D01*
X149316391Y-71361407D01*
X149257379Y-71594441D01*
X149237528Y-71833999D01*
X149257379Y-72073558D01*
X149257379Y-72073561D01*
X149257380Y-72073563D01*
X149316390Y-72306591D01*
X149412951Y-72526728D01*
X149544429Y-72727969D01*
X149707236Y-72904825D01*
X149837415Y-73006147D01*
X149878227Y-73062855D01*
X149881902Y-73132628D01*
X149847271Y-73193312D01*
X149837415Y-73201852D01*
X149707236Y-73303174D01*
X149557362Y-73465980D01*
X149544429Y-73480031D01*
X149439264Y-73640997D01*
X149412950Y-73681274D01*
X149316391Y-73901407D01*
X149257379Y-74134441D01*
X149237528Y-74374000D01*
X149257379Y-74613558D01*
X149257379Y-74613561D01*
X149257380Y-74613563D01*
X149316390Y-74846591D01*
X149412951Y-75066728D01*
X149544429Y-75267969D01*
X149707236Y-75444825D01*
X149707239Y-75444827D01*
X149837414Y-75546147D01*
X149878227Y-75602857D01*
X149881902Y-75672630D01*
X149847270Y-75733313D01*
X149837414Y-75741853D01*
X149707239Y-75843172D01*
X149544430Y-76020030D01*
X149412950Y-76221274D01*
X149316391Y-76441407D01*
X149257379Y-76674441D01*
X149237528Y-76914000D01*
X149257379Y-77153558D01*
X149257379Y-77153561D01*
X149257380Y-77153563D01*
X149316390Y-77386591D01*
X149412951Y-77606728D01*
X149544429Y-77807969D01*
X149675621Y-77950482D01*
X149706543Y-78013136D01*
X149698683Y-78082562D01*
X149654536Y-78136717D01*
X149627726Y-78150645D01*
X149600913Y-78160646D01*
X149485811Y-78246811D01*
X149399647Y-78361910D01*
X149349400Y-78496628D01*
X149343354Y-78552867D01*
X149343000Y-78559481D01*
X149343000Y-79204000D01*
X150259314Y-79204000D01*
X150233507Y-79244156D01*
X150193000Y-79382111D01*
X150193000Y-79525889D01*
X150233507Y-79663844D01*
X150259314Y-79704000D01*
X149343000Y-79704000D01*
X149343000Y-80348518D01*
X149343354Y-80355132D01*
X149349400Y-80411371D01*
X149399647Y-80546089D01*
X149485811Y-80661188D01*
X149600910Y-80747352D01*
X149735628Y-80797599D01*
X149791867Y-80803645D01*
X149798482Y-80804000D01*
X150443000Y-80804000D01*
X150443000Y-79889501D01*
X150550685Y-79938680D01*
X150657237Y-79954000D01*
X150728763Y-79954000D01*
X150835315Y-79938680D01*
X150943000Y-79889501D01*
X150943000Y-80804000D01*
X151587518Y-80804000D01*
X151594132Y-80803645D01*
X151650371Y-80797599D01*
X151785089Y-80747352D01*
X151900188Y-80661188D01*
X151986352Y-80546089D01*
X152036599Y-80411371D01*
X152042645Y-80355132D01*
X152043000Y-80348518D01*
X152043000Y-79704000D01*
X151126686Y-79704000D01*
X151152493Y-79663844D01*
X151193000Y-79525889D01*
X151193000Y-79382111D01*
X151152493Y-79244156D01*
X151126686Y-79204000D01*
X152043000Y-79204000D01*
X152043000Y-78559481D01*
X152042645Y-78552867D01*
X152036599Y-78496628D01*
X151986352Y-78361910D01*
X151900188Y-78246811D01*
X151785088Y-78160647D01*
X151758274Y-78150646D01*
X151702341Y-78108774D01*
X151677924Y-78043309D01*
X151692776Y-77975037D01*
X151710376Y-77950484D01*
X151763568Y-77892702D01*
X151844750Y-77804517D01*
X151904637Y-77768526D01*
X151935979Y-77764500D01*
X155048903Y-77764500D01*
X155115942Y-77784185D01*
X155136584Y-77800819D01*
X164884084Y-87548319D01*
X164917569Y-87609642D01*
X164912585Y-87679334D01*
X164870713Y-87735267D01*
X164805249Y-87759684D01*
X164796403Y-87760000D01*
X147945000Y-87760000D01*
X147945000Y-93710000D01*
X165970500Y-93710000D01*
X166037539Y-93729685D01*
X166083294Y-93782489D01*
X166094500Y-93834000D01*
X166094500Y-94176000D01*
X166074815Y-94243039D01*
X166022011Y-94288794D01*
X165970500Y-94300000D01*
X165945000Y-94300000D01*
X165945000Y-95345500D01*
X165925315Y-95412539D01*
X165872511Y-95458294D01*
X165821000Y-95469500D01*
X164909694Y-95469500D01*
X164909678Y-95469500D01*
X164905640Y-95469501D01*
X164901627Y-95470029D01*
X164901615Y-95470030D01*
X164788241Y-95484954D01*
X164778237Y-95489098D01*
X164774705Y-95490561D01*
X164727253Y-95500000D01*
X164445000Y-95500000D01*
X164445000Y-95693090D01*
X164425315Y-95760129D01*
X164420596Y-95766839D01*
X164359956Y-95913239D01*
X164345971Y-96019468D01*
X164344500Y-96030639D01*
X164344500Y-96479907D01*
X164344501Y-96815500D01*
X164324817Y-96882539D01*
X164272013Y-96928294D01*
X164220501Y-96939500D01*
X152215461Y-96939500D01*
X152148422Y-96919815D01*
X152102667Y-96867011D01*
X152092723Y-96797853D01*
X152096800Y-96779505D01*
X152099543Y-96770459D01*
X152116024Y-96716132D01*
X152135341Y-96520000D01*
X152116024Y-96323868D01*
X152058814Y-96135273D01*
X151965910Y-95961462D01*
X151840883Y-95809117D01*
X151688538Y-95684090D01*
X151609266Y-95641718D01*
X151514726Y-95591185D01*
X151326133Y-95533976D01*
X151228065Y-95524317D01*
X151130000Y-95514659D01*
X151129999Y-95514659D01*
X150933866Y-95533976D01*
X150745273Y-95591185D01*
X150626151Y-95654858D01*
X150567698Y-95669500D01*
X149569000Y-95669500D01*
X149501961Y-95649815D01*
X149456206Y-95597011D01*
X149445000Y-95545500D01*
X149445000Y-95500000D01*
X149162746Y-95500000D01*
X149115294Y-95490561D01*
X149101762Y-95484956D01*
X149061426Y-95479645D01*
X148988381Y-95470029D01*
X148988377Y-95470028D01*
X148984361Y-95469500D01*
X148980307Y-95469500D01*
X147409694Y-95469500D01*
X147409678Y-95469500D01*
X147405640Y-95469501D01*
X147401627Y-95470029D01*
X147401615Y-95470030D01*
X147288241Y-95484954D01*
X147278237Y-95489098D01*
X147274705Y-95490561D01*
X147227253Y-95500000D01*
X146945000Y-95500000D01*
X146945000Y-95693090D01*
X146925315Y-95760129D01*
X146920596Y-95766839D01*
X146859956Y-95913239D01*
X146845971Y-96019468D01*
X146844500Y-96030639D01*
X146844500Y-96034691D01*
X146844500Y-96034692D01*
X146844500Y-97005305D01*
X146844500Y-97005320D01*
X146844501Y-97009360D01*
X146845029Y-97013373D01*
X146845030Y-97013384D01*
X146861542Y-97138816D01*
X146861542Y-97171183D01*
X146845029Y-97296616D01*
X146845028Y-97296625D01*
X146844500Y-97300639D01*
X146844500Y-97304691D01*
X146844500Y-97304692D01*
X146844500Y-98275305D01*
X146844500Y-98275320D01*
X146844501Y-98279360D01*
X146845029Y-98283373D01*
X146845030Y-98283384D01*
X146861542Y-98408816D01*
X146861542Y-98441183D01*
X146845029Y-98566616D01*
X146845028Y-98566625D01*
X146844500Y-98570639D01*
X146844500Y-98574691D01*
X146844500Y-98574692D01*
X146844500Y-99545305D01*
X146844500Y-99545320D01*
X146844501Y-99549360D01*
X146845029Y-99553373D01*
X146845030Y-99553384D01*
X146861542Y-99678816D01*
X146861529Y-99711287D01*
X146861476Y-99711687D01*
X146833156Y-99775560D01*
X146774799Y-99813982D01*
X146704934Y-99814755D01*
X146650869Y-99783080D01*
X142364819Y-95497029D01*
X142331334Y-95435706D01*
X142328500Y-95409348D01*
X142328500Y-95000000D01*
X146945000Y-95000000D01*
X147945000Y-95000000D01*
X147945000Y-94300000D01*
X148445000Y-94300000D01*
X148445000Y-95000000D01*
X149445000Y-95000000D01*
X164445000Y-95000000D01*
X165445000Y-95000000D01*
X165445000Y-94300000D01*
X164900482Y-94300000D01*
X164893867Y-94300354D01*
X164837628Y-94306400D01*
X164702910Y-94356647D01*
X164587811Y-94442811D01*
X164501647Y-94557910D01*
X164451400Y-94692628D01*
X164445354Y-94748867D01*
X164445000Y-94755481D01*
X164445000Y-95000000D01*
X149445000Y-95000000D01*
X149445000Y-94755481D01*
X149444645Y-94748867D01*
X149438599Y-94692628D01*
X149388352Y-94557910D01*
X149302188Y-94442811D01*
X149187089Y-94356647D01*
X149052371Y-94306400D01*
X148996132Y-94300354D01*
X148989518Y-94300000D01*
X148445000Y-94300000D01*
X147945000Y-94300000D01*
X147400482Y-94300000D01*
X147393867Y-94300354D01*
X147337628Y-94306400D01*
X147202910Y-94356647D01*
X147087811Y-94442811D01*
X147001647Y-94557910D01*
X146951400Y-94692628D01*
X146945354Y-94748867D01*
X146945000Y-94755481D01*
X146945000Y-95000000D01*
X142328500Y-95000000D01*
X142328500Y-94527605D01*
X142328909Y-94517542D01*
X142333201Y-94464833D01*
X142322490Y-94386224D01*
X142322086Y-94382919D01*
X142313501Y-94303971D01*
X142308270Y-94281650D01*
X142280877Y-94207086D01*
X142279762Y-94203920D01*
X142254444Y-94128779D01*
X142254441Y-94128775D01*
X142254404Y-94128663D01*
X142244494Y-94107980D01*
X142201722Y-94041064D01*
X142199951Y-94038210D01*
X142159009Y-93970163D01*
X142144885Y-93952096D01*
X142088731Y-93895942D01*
X142086389Y-93893536D01*
X142082771Y-93889717D01*
X142031849Y-93835959D01*
X142031847Y-93835958D01*
X142031768Y-93835874D01*
X142013882Y-93821093D01*
X140518560Y-92325771D01*
X140485075Y-92264448D01*
X140482557Y-92246936D01*
X140469543Y-92064974D01*
X140413277Y-91806322D01*
X140320774Y-91558311D01*
X140193916Y-91325989D01*
X140035287Y-91114085D01*
X139848115Y-90926913D01*
X139742163Y-90847598D01*
X139636209Y-90768282D01*
X139470098Y-90677579D01*
X139403889Y-90641426D01*
X139155878Y-90548923D01*
X139155873Y-90548921D01*
X138897227Y-90492657D01*
X138633200Y-90473772D01*
X138369172Y-90492657D01*
X138110526Y-90548921D01*
X137986516Y-90595174D01*
X137862511Y-90641426D01*
X137862508Y-90641427D01*
X137862507Y-90641428D01*
X137630190Y-90768282D01*
X137418282Y-90926915D01*
X137231115Y-91114082D01*
X137072482Y-91325990D01*
X136945628Y-91558307D01*
X136945626Y-91558311D01*
X136899374Y-91682316D01*
X136853121Y-91806326D01*
X136796857Y-92064972D01*
X136777972Y-92329000D01*
X136796857Y-92593027D01*
X136853121Y-92851673D01*
X136853123Y-92851678D01*
X136945626Y-93099689D01*
X136945628Y-93099692D01*
X137072482Y-93332009D01*
X137151798Y-93437962D01*
X137231113Y-93543915D01*
X137418285Y-93731087D01*
X137538519Y-93821093D01*
X137630190Y-93889717D01*
X137702841Y-93929387D01*
X137862511Y-94016574D01*
X138110522Y-94109077D01*
X138110525Y-94109077D01*
X138110526Y-94109078D01*
X138155264Y-94118810D01*
X138369174Y-94165343D01*
X138633200Y-94184227D01*
X138897226Y-94165343D01*
X139155878Y-94109077D01*
X139403889Y-94016574D01*
X139581076Y-93919821D01*
X139649349Y-93904970D01*
X139714813Y-93929387D01*
X139728184Y-93940973D01*
X140591181Y-94803970D01*
X140624666Y-94865293D01*
X140627500Y-94891651D01*
X140627500Y-95773393D01*
X140627091Y-95783456D01*
X140622799Y-95836167D01*
X140633502Y-95914732D01*
X140633910Y-95918062D01*
X140642498Y-95997025D01*
X140647732Y-96019356D01*
X140647772Y-96019467D01*
X140647773Y-96019468D01*
X140675129Y-96093934D01*
X140676228Y-96097054D01*
X140701594Y-96172333D01*
X140711508Y-96193023D01*
X140728198Y-96219133D01*
X140754295Y-96259962D01*
X140756037Y-96262771D01*
X140792796Y-96323866D01*
X140796990Y-96330835D01*
X140811116Y-96348905D01*
X140811199Y-96348988D01*
X140811200Y-96348989D01*
X140867303Y-96405092D01*
X140869609Y-96407462D01*
X140924151Y-96465041D01*
X140924152Y-96465042D01*
X140924234Y-96465128D01*
X140942118Y-96479907D01*
X146635592Y-102173380D01*
X146642418Y-102180784D01*
X146676663Y-102221100D01*
X146739854Y-102269136D01*
X146742419Y-102271143D01*
X146791857Y-102310883D01*
X146798188Y-102315972D01*
X146838107Y-102373315D01*
X146844500Y-102412618D01*
X146844500Y-103355305D01*
X146844500Y-103355320D01*
X146844501Y-103359360D01*
X146845029Y-103363373D01*
X146845030Y-103363384D01*
X146861542Y-103488816D01*
X146861542Y-103521183D01*
X146845029Y-103646616D01*
X146845028Y-103646625D01*
X146844500Y-103650639D01*
X146844500Y-103654691D01*
X146844500Y-103654692D01*
X146844500Y-104625305D01*
X146844500Y-104625320D01*
X146844501Y-104629360D01*
X146845029Y-104633373D01*
X146845030Y-104633384D01*
X146861542Y-104758816D01*
X146861542Y-104791183D01*
X146845029Y-104916616D01*
X146845028Y-104916625D01*
X146844500Y-104920639D01*
X146844500Y-104924691D01*
X146844500Y-104924692D01*
X146844500Y-105895305D01*
X146844500Y-105895320D01*
X146844501Y-105899360D01*
X146845029Y-105903373D01*
X146845030Y-105903384D01*
X146861542Y-106028816D01*
X146861542Y-106061183D01*
X146845029Y-106186616D01*
X146845028Y-106186625D01*
X146844500Y-106190639D01*
X146844500Y-106194691D01*
X146844500Y-106194692D01*
X146844500Y-107165305D01*
X146844500Y-107165320D01*
X146844501Y-107169360D01*
X146845029Y-107173373D01*
X146845030Y-107173384D01*
X146861542Y-107298816D01*
X146861542Y-107331183D01*
X146845029Y-107456616D01*
X146845028Y-107456625D01*
X146844500Y-107460639D01*
X146844500Y-107464691D01*
X146844500Y-107464692D01*
X146844500Y-108435305D01*
X146844500Y-108435320D01*
X146844501Y-108439360D01*
X146845029Y-108443373D01*
X146845030Y-108443384D01*
X146861542Y-108568816D01*
X146861542Y-108601183D01*
X146845029Y-108726616D01*
X146845028Y-108726625D01*
X146844500Y-108730639D01*
X146844500Y-108734691D01*
X146844500Y-108734692D01*
X146844500Y-109705305D01*
X146844500Y-109705320D01*
X146844501Y-109709360D01*
X146845029Y-109713373D01*
X146845030Y-109713384D01*
X146861542Y-109838816D01*
X146861542Y-109871183D01*
X146845029Y-109996616D01*
X146845028Y-109996625D01*
X146844500Y-110000639D01*
X146844500Y-110004691D01*
X146844500Y-110004692D01*
X146844500Y-110975305D01*
X146844500Y-110975320D01*
X146844501Y-110979360D01*
X146845029Y-110983373D01*
X146845030Y-110983384D01*
X146861542Y-111108816D01*
X146861542Y-111141183D01*
X146845029Y-111266616D01*
X146845028Y-111266625D01*
X146844500Y-111270639D01*
X146844500Y-111274691D01*
X146844500Y-111274692D01*
X146844500Y-112245305D01*
X146844500Y-112245320D01*
X146844501Y-112249360D01*
X146845029Y-112253373D01*
X146845030Y-112253384D01*
X146859955Y-112366760D01*
X146920464Y-112512841D01*
X147016717Y-112638282D01*
X147142159Y-112734536D01*
X147288238Y-112795044D01*
X147405639Y-112810500D01*
X148984360Y-112810499D01*
X149019100Y-112805925D01*
X149101760Y-112795045D01*
X149150575Y-112774825D01*
X149208047Y-112751018D01*
X149277516Y-112743550D01*
X149339995Y-112774825D01*
X149375648Y-112834913D01*
X149379500Y-112865580D01*
X149379500Y-114175393D01*
X149379091Y-114185456D01*
X149374799Y-114238167D01*
X149385502Y-114316732D01*
X149385910Y-114320062D01*
X149394498Y-114399025D01*
X149399732Y-114421356D01*
X149399772Y-114421467D01*
X149399773Y-114421468D01*
X149427129Y-114495934D01*
X149428228Y-114499054D01*
X149453594Y-114574333D01*
X149463508Y-114595023D01*
X149480198Y-114621133D01*
X149506295Y-114661962D01*
X149508037Y-114664771D01*
X149548990Y-114732835D01*
X149563116Y-114750905D01*
X149563199Y-114750988D01*
X149563200Y-114750989D01*
X149619302Y-114807091D01*
X149621608Y-114809461D01*
X149676151Y-114867041D01*
X149676152Y-114867042D01*
X149676233Y-114867127D01*
X149694117Y-114881906D01*
X150549193Y-115736981D01*
X150556017Y-115744383D01*
X150562642Y-115752182D01*
X150591042Y-115816019D01*
X150580420Y-115885077D01*
X150545825Y-115929107D01*
X150405062Y-116042257D01*
X150289157Y-116186448D01*
X150206963Y-116352177D01*
X150162316Y-116531705D01*
X150159641Y-116571154D01*
X150159640Y-116571179D01*
X150159500Y-116573246D01*
X150159500Y-118021154D01*
X150159640Y-118023221D01*
X150159641Y-118023245D01*
X150162317Y-118062699D01*
X150168698Y-118088361D01*
X150165773Y-118158169D01*
X150136044Y-118205965D01*
X149380828Y-118961181D01*
X149319505Y-118994666D01*
X149293147Y-118997500D01*
X148264694Y-118997500D01*
X148264678Y-118997500D01*
X148260640Y-118997501D01*
X148256627Y-118998029D01*
X148256615Y-118998030D01*
X148143239Y-119012955D01*
X147997158Y-119073464D01*
X147871718Y-119169717D01*
X147849260Y-119198986D01*
X147792833Y-119240189D01*
X147750884Y-119247500D01*
X144249116Y-119247500D01*
X144182077Y-119227815D01*
X144150740Y-119198986D01*
X144128281Y-119169717D01*
X144002840Y-119073463D01*
X143856762Y-119012956D01*
X143743380Y-118998029D01*
X143743378Y-118998028D01*
X143739361Y-118997500D01*
X143735307Y-118997500D01*
X141964694Y-118997500D01*
X141964678Y-118997500D01*
X141960640Y-118997501D01*
X141956627Y-118998029D01*
X141956615Y-118998030D01*
X141843239Y-119012955D01*
X141697158Y-119073464D01*
X141571717Y-119169717D01*
X141475463Y-119295159D01*
X141414956Y-119441237D01*
X141414956Y-119441238D01*
X141399500Y-119558639D01*
X141399500Y-119562691D01*
X141399500Y-119562692D01*
X141399500Y-120633305D01*
X141399500Y-120633320D01*
X141399501Y-120637360D01*
X141400029Y-120641373D01*
X141400030Y-120641384D01*
X141414955Y-120754760D01*
X141475464Y-120900841D01*
X141571717Y-121026282D01*
X141658780Y-121093087D01*
X141697159Y-121122536D01*
X141843238Y-121183044D01*
X141960639Y-121198500D01*
X143739360Y-121198499D01*
X143856762Y-121183044D01*
X144002841Y-121122536D01*
X144128282Y-121026282D01*
X144150740Y-120997013D01*
X144207167Y-120955811D01*
X144249116Y-120948500D01*
X147750884Y-120948500D01*
X147817923Y-120968185D01*
X147849259Y-120997013D01*
X147871718Y-121026282D01*
X147997159Y-121122536D01*
X148143238Y-121183044D01*
X148260639Y-121198500D01*
X148996348Y-121198499D01*
X149063387Y-121218183D01*
X149084029Y-121234818D01*
X151507697Y-123658486D01*
X151541182Y-123719809D01*
X151540351Y-123776093D01*
X151527316Y-123828505D01*
X151524641Y-123867954D01*
X151524640Y-123867979D01*
X151524500Y-123870046D01*
X151524500Y-124642954D01*
X151524640Y-124645021D01*
X151524641Y-124645045D01*
X151527316Y-124684494D01*
X151571963Y-124864022D01*
X151611646Y-124944035D01*
X151654158Y-125029753D01*
X151770060Y-125173940D01*
X151914247Y-125289842D01*
X152079979Y-125372037D01*
X152259505Y-125416683D01*
X152301046Y-125419500D01*
X152303144Y-125419500D01*
X153696856Y-125419500D01*
X153698954Y-125419500D01*
X153740495Y-125416683D01*
X153920021Y-125372037D01*
X154085753Y-125289842D01*
X154229940Y-125173940D01*
X154345842Y-125029753D01*
X154426764Y-124866587D01*
X154474181Y-124815279D01*
X154541816Y-124797749D01*
X154608192Y-124819569D01*
X154652234Y-124873810D01*
X154655555Y-124882681D01*
X154665642Y-124913123D01*
X154757683Y-125062345D01*
X154881654Y-125186316D01*
X155030877Y-125278357D01*
X155197303Y-125333506D01*
X155296890Y-125343680D01*
X155303168Y-125343999D01*
X155749999Y-125343999D01*
X156250000Y-125343999D01*
X156696829Y-125343999D01*
X156703111Y-125343678D01*
X156802695Y-125333506D01*
X156969122Y-125278357D01*
X157118345Y-125186316D01*
X157242316Y-125062345D01*
X157334357Y-124913122D01*
X157390593Y-124743415D01*
X157430366Y-124685970D01*
X157494881Y-124659147D01*
X157563657Y-124671462D01*
X157607566Y-124708108D01*
X157642810Y-124755188D01*
X157757910Y-124841352D01*
X157892628Y-124891599D01*
X157948867Y-124897645D01*
X157955482Y-124898000D01*
X158600000Y-124898000D01*
X158600000Y-124148000D01*
X159100000Y-124148000D01*
X159100000Y-124898000D01*
X159744518Y-124898000D01*
X159751132Y-124897645D01*
X159807371Y-124891599D01*
X159942089Y-124841352D01*
X160057188Y-124755188D01*
X160143352Y-124640089D01*
X160193599Y-124505371D01*
X160199645Y-124449132D01*
X160200000Y-124442518D01*
X160200000Y-124148000D01*
X163800000Y-124148000D01*
X163800000Y-124442518D01*
X163800354Y-124449132D01*
X163806400Y-124505371D01*
X163856647Y-124640089D01*
X163942811Y-124755188D01*
X164057910Y-124841352D01*
X164192628Y-124891599D01*
X164248867Y-124897645D01*
X164255482Y-124898000D01*
X164900000Y-124898000D01*
X164900000Y-124148000D01*
X165400000Y-124148000D01*
X165400000Y-124898000D01*
X166044518Y-124898000D01*
X166051132Y-124897645D01*
X166107371Y-124891599D01*
X166242089Y-124841352D01*
X166357188Y-124755188D01*
X166443352Y-124640089D01*
X166493599Y-124505371D01*
X166499645Y-124449132D01*
X166500000Y-124442518D01*
X166500000Y-124148000D01*
X165400000Y-124148000D01*
X164900000Y-124148000D01*
X163800000Y-124148000D01*
X160200000Y-124148000D01*
X159100000Y-124148000D01*
X158600000Y-124148000D01*
X158600000Y-122898000D01*
X159100000Y-122898000D01*
X159100000Y-123648000D01*
X160200000Y-123648000D01*
X163800000Y-123648000D01*
X164900000Y-123648000D01*
X164900000Y-122898000D01*
X165400000Y-122898000D01*
X165400000Y-123648000D01*
X166500000Y-123648000D01*
X166500000Y-123353481D01*
X166499645Y-123346867D01*
X166493599Y-123290628D01*
X166443352Y-123155910D01*
X166357188Y-123040811D01*
X166242089Y-122954647D01*
X166107371Y-122904400D01*
X166051132Y-122898354D01*
X166044518Y-122898000D01*
X165400000Y-122898000D01*
X164900000Y-122898000D01*
X164255482Y-122898000D01*
X164248867Y-122898354D01*
X164192628Y-122904400D01*
X164057910Y-122954647D01*
X163942811Y-123040811D01*
X163856647Y-123155910D01*
X163806400Y-123290628D01*
X163800354Y-123346867D01*
X163800000Y-123353481D01*
X163800000Y-123648000D01*
X160200000Y-123648000D01*
X160200000Y-123353481D01*
X160199645Y-123346867D01*
X160193599Y-123290628D01*
X160143352Y-123155910D01*
X160057188Y-123040811D01*
X159942089Y-122954647D01*
X159807371Y-122904400D01*
X159751132Y-122898354D01*
X159744518Y-122898000D01*
X159100000Y-122898000D01*
X158600000Y-122898000D01*
X157955482Y-122898000D01*
X157948867Y-122898354D01*
X157892628Y-122904400D01*
X157757910Y-122954647D01*
X157642811Y-123040811D01*
X157556647Y-123155910D01*
X157506400Y-123290628D01*
X157500354Y-123346867D01*
X157500000Y-123353481D01*
X157500000Y-123456188D01*
X157480315Y-123523227D01*
X157427511Y-123568982D01*
X157358353Y-123578926D01*
X157294797Y-123549901D01*
X157270461Y-123521285D01*
X157242315Y-123475653D01*
X157118345Y-123351683D01*
X156969122Y-123259642D01*
X156802696Y-123204493D01*
X156703109Y-123194319D01*
X156696832Y-123194000D01*
X156250000Y-123194000D01*
X156250000Y-125343999D01*
X155749999Y-125343999D01*
X155750000Y-125343998D01*
X155750000Y-123194000D01*
X155303171Y-123194000D01*
X155296888Y-123194321D01*
X155197304Y-123204493D01*
X155030877Y-123259642D01*
X154881654Y-123351683D01*
X154757683Y-123475654D01*
X154665642Y-123624878D01*
X154660520Y-123640334D01*
X154620745Y-123697777D01*
X154556228Y-123724598D01*
X154487453Y-123712281D01*
X154436255Y-123664737D01*
X154431727Y-123656420D01*
X154423749Y-123640334D01*
X154345842Y-123483247D01*
X154229940Y-123339060D01*
X154085753Y-123223158D01*
X154048118Y-123204493D01*
X153920022Y-123140963D01*
X153740494Y-123096316D01*
X153701045Y-123093641D01*
X153701021Y-123093640D01*
X153698954Y-123093500D01*
X153696856Y-123093500D01*
X153399650Y-123093500D01*
X153332611Y-123073815D01*
X153311969Y-123057181D01*
X152960969Y-122706181D01*
X152927484Y-122644858D01*
X152932468Y-122575166D01*
X152974340Y-122519233D01*
X153039804Y-122494816D01*
X153048650Y-122494500D01*
X153696856Y-122494500D01*
X153698954Y-122494500D01*
X153740495Y-122491683D01*
X153920021Y-122447037D01*
X154085753Y-122364842D01*
X154229940Y-122248940D01*
X154256568Y-122215812D01*
X154313911Y-122175894D01*
X154353215Y-122169500D01*
X154621785Y-122169500D01*
X154688824Y-122189185D01*
X154718430Y-122215811D01*
X154745060Y-122248940D01*
X154889247Y-122364842D01*
X155054979Y-122447037D01*
X155234505Y-122491683D01*
X155276046Y-122494500D01*
X155278144Y-122494500D01*
X156721856Y-122494500D01*
X156723954Y-122494500D01*
X156765495Y-122491683D01*
X156945021Y-122447037D01*
X157110753Y-122364842D01*
X157254940Y-122248940D01*
X157370842Y-122104753D01*
X157453037Y-121939021D01*
X157497683Y-121759495D01*
X157500500Y-121717954D01*
X157500500Y-121223081D01*
X157520185Y-121156042D01*
X157572989Y-121110287D01*
X157642147Y-121100343D01*
X157681768Y-121117032D01*
X157682076Y-121116289D01*
X157763161Y-121149875D01*
X157843238Y-121183044D01*
X157960639Y-121198500D01*
X159739360Y-121198499D01*
X159856762Y-121183044D01*
X160002841Y-121122536D01*
X160128282Y-121026282D01*
X160150740Y-120997013D01*
X160207167Y-120955811D01*
X160249116Y-120948500D01*
X163750884Y-120948500D01*
X163817923Y-120968185D01*
X163849259Y-120997013D01*
X163871718Y-121026282D01*
X163997159Y-121122536D01*
X164143238Y-121183044D01*
X164260639Y-121198500D01*
X166039360Y-121198499D01*
X166156762Y-121183044D01*
X166302841Y-121122536D01*
X166428282Y-121026282D01*
X166524536Y-120900841D01*
X166585044Y-120754762D01*
X166600500Y-120637361D01*
X166600499Y-119558640D01*
X166585044Y-119441238D01*
X166554939Y-119368557D01*
X166545500Y-119321104D01*
X166545500Y-112901202D01*
X166565185Y-112834163D01*
X166617989Y-112788408D01*
X166622036Y-112786646D01*
X166747841Y-112734536D01*
X166873282Y-112638282D01*
X166969536Y-112512841D01*
X167030044Y-112366762D01*
X167045500Y-112249361D01*
X167045499Y-111270640D01*
X167030044Y-111153238D01*
X167030043Y-111153237D01*
X167028457Y-111141183D01*
X167028457Y-111108814D01*
X167036783Y-111045570D01*
X167045500Y-110979361D01*
X167045499Y-110000640D01*
X167030044Y-109883238D01*
X167028457Y-109871181D01*
X167028457Y-109838811D01*
X167030042Y-109826764D01*
X167030044Y-109826762D01*
X167045500Y-109709361D01*
X167045499Y-108730640D01*
X167030044Y-108613238D01*
X167028457Y-108601181D01*
X167028457Y-108568811D01*
X167030042Y-108556764D01*
X167030044Y-108556762D01*
X167045500Y-108439361D01*
X167045499Y-107460640D01*
X167030044Y-107343238D01*
X167030043Y-107343237D01*
X167028457Y-107331183D01*
X167028457Y-107298814D01*
X167033014Y-107264200D01*
X167045500Y-107169361D01*
X167045499Y-106190640D01*
X167030044Y-106073238D01*
X167030043Y-106073237D01*
X167028457Y-106061184D01*
X167028457Y-106028815D01*
X167030044Y-106016762D01*
X167045500Y-105899361D01*
X167045499Y-104920640D01*
X167030044Y-104803238D01*
X167030043Y-104803237D01*
X167028457Y-104791184D01*
X167028457Y-104758815D01*
X167030044Y-104746762D01*
X167045500Y-104629361D01*
X167045499Y-103650640D01*
X167030044Y-103533238D01*
X167030043Y-103533237D01*
X167028457Y-103521184D01*
X167028457Y-103488815D01*
X167031656Y-103464518D01*
X167045500Y-103359361D01*
X167045499Y-102380640D01*
X167030044Y-102263238D01*
X167030043Y-102263237D01*
X167028457Y-102251184D01*
X167028457Y-102218815D01*
X167033969Y-102176947D01*
X167045500Y-102089361D01*
X167045499Y-101139680D01*
X167065183Y-101072642D01*
X167105571Y-101033430D01*
X167142736Y-101011070D01*
X167142737Y-101011068D01*
X167142838Y-101011008D01*
X167160899Y-100996889D01*
X167160986Y-100996801D01*
X167160989Y-100996800D01*
X167217090Y-100940697D01*
X167219421Y-100938428D01*
X167277041Y-100883849D01*
X167277042Y-100883847D01*
X167277128Y-100883766D01*
X167291905Y-100865882D01*
X168190319Y-99967467D01*
X168251642Y-99933983D01*
X168321334Y-99938967D01*
X168377267Y-99980839D01*
X168401684Y-100046303D01*
X168402000Y-100055149D01*
X168402000Y-124159947D01*
X168382315Y-124226986D01*
X168329511Y-124272741D01*
X168318867Y-124277019D01*
X167048482Y-124720482D01*
X167048481Y-124720482D01*
X166402720Y-126174335D01*
X166357517Y-126227612D01*
X166290686Y-126247993D01*
X166289396Y-126248000D01*
X106230824Y-126248000D01*
X106163785Y-126228315D01*
X106118030Y-126175511D01*
X106113752Y-126164867D01*
X105671518Y-124898000D01*
X105092590Y-124640856D01*
X104213664Y-124250460D01*
X104160387Y-124205257D01*
X104140007Y-124138426D01*
X104140000Y-124137136D01*
X104140000Y-123770000D01*
X107909540Y-123770000D01*
X107930136Y-124005407D01*
X107968344Y-124148000D01*
X107991297Y-124233663D01*
X108091165Y-124447830D01*
X108226705Y-124641401D01*
X108393799Y-124808495D01*
X108587370Y-124944035D01*
X108801537Y-125043903D01*
X109008165Y-125099268D01*
X109029792Y-125105063D01*
X109265199Y-125125659D01*
X109265199Y-125125658D01*
X109265200Y-125125659D01*
X109500608Y-125105063D01*
X109728863Y-125043903D01*
X109943030Y-124944035D01*
X110136601Y-124808495D01*
X110303695Y-124641401D01*
X110439235Y-124447830D01*
X110539103Y-124233663D01*
X110600263Y-124005408D01*
X110620859Y-123770000D01*
X126010424Y-123770000D01*
X126029487Y-123987886D01*
X126086098Y-124199161D01*
X126178531Y-124397386D01*
X126222073Y-124459571D01*
X126222074Y-124459572D01*
X126782123Y-123899523D01*
X126805707Y-123979844D01*
X126883439Y-124100798D01*
X126992100Y-124194952D01*
X127122885Y-124254680D01*
X127132666Y-124256086D01*
X126575626Y-124813124D01*
X126575627Y-124813125D01*
X126637810Y-124856666D01*
X126836040Y-124949102D01*
X127047313Y-125005712D01*
X127265200Y-125024775D01*
X127483086Y-125005712D01*
X127694359Y-124949102D01*
X127892585Y-124856667D01*
X127954772Y-124813124D01*
X127397734Y-124256086D01*
X127407515Y-124254680D01*
X127538300Y-124194952D01*
X127646961Y-124100798D01*
X127724693Y-123979844D01*
X127748276Y-123899525D01*
X128308324Y-124459572D01*
X128351867Y-124397385D01*
X128444302Y-124199159D01*
X128458010Y-124148000D01*
X141500000Y-124148000D01*
X141500000Y-124442518D01*
X141500354Y-124449132D01*
X141506400Y-124505371D01*
X141556647Y-124640089D01*
X141642811Y-124755188D01*
X141757910Y-124841352D01*
X141892628Y-124891599D01*
X141948867Y-124897645D01*
X141955482Y-124898000D01*
X142600000Y-124898000D01*
X142600000Y-124148000D01*
X143100000Y-124148000D01*
X143100000Y-124898000D01*
X143744518Y-124898000D01*
X143751132Y-124897645D01*
X143807371Y-124891599D01*
X143942089Y-124841352D01*
X144057188Y-124755188D01*
X144143352Y-124640089D01*
X144193599Y-124505371D01*
X144199645Y-124449132D01*
X144200000Y-124442518D01*
X144200000Y-124148000D01*
X147800000Y-124148000D01*
X147800000Y-124442518D01*
X147800354Y-124449132D01*
X147806400Y-124505371D01*
X147856647Y-124640089D01*
X147942811Y-124755188D01*
X148057910Y-124841352D01*
X148192628Y-124891599D01*
X148248867Y-124897645D01*
X148255482Y-124898000D01*
X148900000Y-124898000D01*
X148900000Y-124148000D01*
X149400000Y-124148000D01*
X149400000Y-124898000D01*
X150044518Y-124898000D01*
X150051132Y-124897645D01*
X150107371Y-124891599D01*
X150242089Y-124841352D01*
X150357188Y-124755188D01*
X150443352Y-124640089D01*
X150493599Y-124505371D01*
X150499645Y-124449132D01*
X150500000Y-124442518D01*
X150500000Y-124148000D01*
X149400000Y-124148000D01*
X148900000Y-124148000D01*
X147800000Y-124148000D01*
X144200000Y-124148000D01*
X143100000Y-124148000D01*
X142600000Y-124148000D01*
X141500000Y-124148000D01*
X128458010Y-124148000D01*
X128500912Y-123987886D01*
X128519975Y-123770000D01*
X128509301Y-123648000D01*
X141500000Y-123648000D01*
X142600000Y-123648000D01*
X142600000Y-122898000D01*
X143100000Y-122898000D01*
X143100000Y-123648000D01*
X144200000Y-123648000D01*
X147800000Y-123648000D01*
X148900000Y-123648000D01*
X148900000Y-122898000D01*
X149400000Y-122898000D01*
X149400000Y-123648000D01*
X150500000Y-123648000D01*
X150500000Y-123353481D01*
X150499645Y-123346867D01*
X150493599Y-123290628D01*
X150443352Y-123155910D01*
X150357188Y-123040811D01*
X150242089Y-122954647D01*
X150107371Y-122904400D01*
X150051132Y-122898354D01*
X150044518Y-122898000D01*
X149400000Y-122898000D01*
X148900000Y-122898000D01*
X148255482Y-122898000D01*
X148248867Y-122898354D01*
X148192628Y-122904400D01*
X148057910Y-122954647D01*
X147942811Y-123040811D01*
X147856647Y-123155910D01*
X147806400Y-123290628D01*
X147800354Y-123346867D01*
X147800000Y-123353481D01*
X147800000Y-123648000D01*
X144200000Y-123648000D01*
X144200000Y-123353481D01*
X144199645Y-123346867D01*
X144193599Y-123290628D01*
X144143352Y-123155910D01*
X144057188Y-123040811D01*
X143942089Y-122954647D01*
X143807371Y-122904400D01*
X143751132Y-122898354D01*
X143744518Y-122898000D01*
X143100000Y-122898000D01*
X142600000Y-122898000D01*
X141955482Y-122898000D01*
X141948867Y-122898354D01*
X141892628Y-122904400D01*
X141757910Y-122954647D01*
X141642811Y-123040811D01*
X141556647Y-123155910D01*
X141506400Y-123290628D01*
X141500354Y-123346867D01*
X141500000Y-123353481D01*
X141500000Y-123648000D01*
X128509301Y-123648000D01*
X128500912Y-123552113D01*
X128444302Y-123340840D01*
X128351867Y-123142615D01*
X128308323Y-123080428D01*
X127748276Y-123640475D01*
X127724693Y-123560156D01*
X127646961Y-123439202D01*
X127538300Y-123345048D01*
X127407515Y-123285320D01*
X127397731Y-123283913D01*
X127954772Y-122726874D01*
X127954771Y-122726873D01*
X127892586Y-122683331D01*
X127694361Y-122590898D01*
X127483086Y-122534287D01*
X127265200Y-122515224D01*
X127047313Y-122534287D01*
X126836040Y-122590897D01*
X126637811Y-122683333D01*
X126575628Y-122726874D01*
X126575627Y-122726875D01*
X127132665Y-123283913D01*
X127122885Y-123285320D01*
X126992100Y-123345048D01*
X126883439Y-123439202D01*
X126805707Y-123560156D01*
X126782122Y-123640476D01*
X126222075Y-123080427D01*
X126222074Y-123080428D01*
X126178533Y-123142611D01*
X126086097Y-123340840D01*
X126029487Y-123552113D01*
X126010424Y-123770000D01*
X110620859Y-123770000D01*
X110611649Y-123664737D01*
X110600263Y-123534592D01*
X110592989Y-123507444D01*
X110539103Y-123306337D01*
X110439235Y-123092171D01*
X110303695Y-122898599D01*
X110136601Y-122731505D01*
X109943030Y-122595965D01*
X109728863Y-122496097D01*
X109667702Y-122479709D01*
X109500607Y-122434936D01*
X109265199Y-122414340D01*
X109029792Y-122434936D01*
X108801536Y-122496097D01*
X108587370Y-122595965D01*
X108393798Y-122731505D01*
X108226705Y-122898598D01*
X108091165Y-123092170D01*
X107991297Y-123306336D01*
X107930136Y-123534592D01*
X107909540Y-123770000D01*
X104140000Y-123770000D01*
X104140000Y-122072400D01*
X131284642Y-122072400D01*
X131305230Y-122307718D01*
X131366369Y-122535892D01*
X131466200Y-122749980D01*
X131524873Y-122833773D01*
X132156723Y-122201923D01*
X132180307Y-122282244D01*
X132258039Y-122403198D01*
X132366700Y-122497352D01*
X132497485Y-122557080D01*
X132507266Y-122558486D01*
X131878425Y-123187325D01*
X131962220Y-123245999D01*
X132176307Y-123345830D01*
X132404481Y-123406969D01*
X132639799Y-123427557D01*
X132875118Y-123406969D01*
X133103292Y-123345830D01*
X133317376Y-123246000D01*
X133401173Y-123187325D01*
X133171568Y-122957720D01*
X136189300Y-122957720D01*
X136189301Y-122961760D01*
X136189829Y-122965773D01*
X136189830Y-122965784D01*
X136204755Y-123079160D01*
X136265264Y-123225241D01*
X136361517Y-123350682D01*
X136461704Y-123427557D01*
X136486959Y-123446936D01*
X136633038Y-123507444D01*
X136750439Y-123522900D01*
X138529160Y-123522899D01*
X138646562Y-123507444D01*
X138792641Y-123446936D01*
X138918082Y-123350682D01*
X139014336Y-123225241D01*
X139074844Y-123079162D01*
X139090300Y-122961761D01*
X139090299Y-121183040D01*
X139074844Y-121065638D01*
X139014336Y-120919559D01*
X138991939Y-120890370D01*
X138918082Y-120794117D01*
X138792640Y-120697863D01*
X138646562Y-120637356D01*
X138533180Y-120622429D01*
X138533178Y-120622428D01*
X138529161Y-120621900D01*
X138525107Y-120621900D01*
X136754494Y-120621900D01*
X136754478Y-120621900D01*
X136750440Y-120621901D01*
X136746427Y-120622429D01*
X136746415Y-120622430D01*
X136633039Y-120637355D01*
X136486958Y-120697864D01*
X136361517Y-120794117D01*
X136265263Y-120919559D01*
X136204756Y-121065637D01*
X136204756Y-121065638D01*
X136189300Y-121183039D01*
X136189300Y-121187091D01*
X136189300Y-121187092D01*
X136189300Y-122957705D01*
X136189300Y-122957720D01*
X133171568Y-122957720D01*
X132772333Y-122558486D01*
X132782115Y-122557080D01*
X132912900Y-122497352D01*
X133021561Y-122403198D01*
X133099293Y-122282244D01*
X133122877Y-122201923D01*
X133754725Y-122833772D01*
X133813400Y-122749976D01*
X133913230Y-122535892D01*
X133974369Y-122307718D01*
X133994957Y-122072399D01*
X133974369Y-121837081D01*
X133913230Y-121608907D01*
X133813399Y-121394821D01*
X133754726Y-121311026D01*
X133754725Y-121311025D01*
X133122876Y-121942873D01*
X133099293Y-121862556D01*
X133021561Y-121741602D01*
X132912900Y-121647448D01*
X132782115Y-121587720D01*
X132772333Y-121586313D01*
X133401173Y-120957473D01*
X133401173Y-120957472D01*
X133317380Y-120898800D01*
X133103292Y-120798969D01*
X132875118Y-120737830D01*
X132639799Y-120717242D01*
X132404481Y-120737830D01*
X132176307Y-120798969D01*
X131962222Y-120898799D01*
X131878425Y-120957472D01*
X132507266Y-121586313D01*
X132497485Y-121587720D01*
X132366700Y-121647448D01*
X132258039Y-121741602D01*
X132180307Y-121862556D01*
X132156723Y-121942876D01*
X131524872Y-121311025D01*
X131466199Y-121394822D01*
X131366369Y-121608907D01*
X131305230Y-121837081D01*
X131284642Y-122072400D01*
X104140000Y-122072400D01*
X104140000Y-117547200D01*
X147310001Y-117547200D01*
X147310001Y-117994029D01*
X147310321Y-118000311D01*
X147320493Y-118099895D01*
X147375642Y-118266322D01*
X147467683Y-118415545D01*
X147591654Y-118539516D01*
X147740877Y-118631557D01*
X147907303Y-118686706D01*
X148006890Y-118696880D01*
X148013168Y-118697199D01*
X148134999Y-118697199D01*
X148135000Y-118697198D01*
X148135000Y-117547200D01*
X148635000Y-117547200D01*
X148635000Y-118697199D01*
X148756829Y-118697199D01*
X148763111Y-118696878D01*
X148862695Y-118686706D01*
X149029122Y-118631557D01*
X149178345Y-118539516D01*
X149302316Y-118415545D01*
X149394357Y-118266322D01*
X149449506Y-118099896D01*
X149459680Y-118000309D01*
X149460000Y-117994031D01*
X149460000Y-117547200D01*
X148635000Y-117547200D01*
X148135000Y-117547200D01*
X147310001Y-117547200D01*
X104140000Y-117547200D01*
X104140000Y-117047200D01*
X147310000Y-117047200D01*
X148135000Y-117047200D01*
X148135000Y-115897200D01*
X148635000Y-115897200D01*
X148635000Y-117047200D01*
X149459999Y-117047200D01*
X149459999Y-116600370D01*
X149459678Y-116594088D01*
X149449506Y-116494504D01*
X149394357Y-116328077D01*
X149302316Y-116178854D01*
X149178345Y-116054883D01*
X149029122Y-115962842D01*
X148862696Y-115907693D01*
X148763109Y-115897519D01*
X148756832Y-115897200D01*
X148635000Y-115897200D01*
X148135000Y-115897200D01*
X148013171Y-115897200D01*
X148006888Y-115897521D01*
X147907304Y-115907693D01*
X147740877Y-115962842D01*
X147591654Y-116054883D01*
X147467683Y-116178854D01*
X147375642Y-116328077D01*
X147320493Y-116494503D01*
X147310319Y-116594090D01*
X147310000Y-116600368D01*
X147310000Y-117047200D01*
X104140000Y-117047200D01*
X104140000Y-112344200D01*
X131653728Y-112344200D01*
X131673579Y-112583758D01*
X131673579Y-112583761D01*
X131673580Y-112583763D01*
X131732590Y-112816791D01*
X131829151Y-113036928D01*
X131960629Y-113238169D01*
X132091821Y-113380682D01*
X132122743Y-113443336D01*
X132114883Y-113512762D01*
X132070736Y-113566917D01*
X132043926Y-113580845D01*
X132017113Y-113590846D01*
X131902011Y-113677011D01*
X131815847Y-113792110D01*
X131765600Y-113926828D01*
X131759554Y-113983067D01*
X131759200Y-113989681D01*
X131759200Y-114634200D01*
X132675514Y-114634200D01*
X132649707Y-114674356D01*
X132609200Y-114812311D01*
X132609200Y-114956089D01*
X132649707Y-115094044D01*
X132675514Y-115134200D01*
X131759200Y-115134200D01*
X131759200Y-115778718D01*
X131759554Y-115785332D01*
X131765600Y-115841571D01*
X131815847Y-115976289D01*
X131902011Y-116091388D01*
X132017110Y-116177552D01*
X132151828Y-116227799D01*
X132208067Y-116233845D01*
X132214682Y-116234200D01*
X132859200Y-116234200D01*
X132859200Y-115319701D01*
X132966885Y-115368880D01*
X133073437Y-115384200D01*
X133144963Y-115384200D01*
X133251515Y-115368880D01*
X133359200Y-115319701D01*
X133359200Y-116234200D01*
X134003718Y-116234200D01*
X134010332Y-116233845D01*
X134066571Y-116227799D01*
X134201289Y-116177552D01*
X134316388Y-116091388D01*
X134402552Y-115976289D01*
X134452799Y-115841571D01*
X134458845Y-115785332D01*
X134459200Y-115778718D01*
X134459200Y-115134200D01*
X133542886Y-115134200D01*
X133568693Y-115094044D01*
X133609200Y-114956089D01*
X133609200Y-114812311D01*
X133568693Y-114674356D01*
X133542886Y-114634200D01*
X134459200Y-114634200D01*
X134459200Y-113989681D01*
X134458845Y-113983067D01*
X134452799Y-113926828D01*
X134402552Y-113792110D01*
X134316388Y-113677011D01*
X134201288Y-113590847D01*
X134174474Y-113580846D01*
X134118541Y-113538974D01*
X134094124Y-113473509D01*
X134108976Y-113405237D01*
X134126576Y-113380684D01*
X134257771Y-113238169D01*
X134389249Y-113036928D01*
X134485810Y-112816791D01*
X134544820Y-112583763D01*
X134564671Y-112344200D01*
X134544820Y-112104637D01*
X134485810Y-111871609D01*
X134389249Y-111651472D01*
X134257771Y-111450231D01*
X134094964Y-111273375D01*
X134069465Y-111253529D01*
X133964786Y-111172053D01*
X133923973Y-111115343D01*
X133920298Y-111045570D01*
X133954930Y-110984887D01*
X133964786Y-110976347D01*
X134003155Y-110946482D01*
X134094964Y-110875025D01*
X134257771Y-110698169D01*
X134257770Y-110698169D01*
X134260949Y-110694717D01*
X134320836Y-110658727D01*
X134352179Y-110654700D01*
X135866221Y-110654700D01*
X135933260Y-110674385D01*
X135957451Y-110694717D01*
X135960629Y-110698169D01*
X136123436Y-110875025D01*
X136123439Y-110875027D01*
X136253614Y-110976347D01*
X136294427Y-111033057D01*
X136298102Y-111102830D01*
X136263470Y-111163513D01*
X136253614Y-111172053D01*
X136123439Y-111273372D01*
X135960630Y-111450230D01*
X135829150Y-111651474D01*
X135781735Y-111759570D01*
X135732590Y-111871609D01*
X135710926Y-111957159D01*
X135673579Y-112104641D01*
X135653728Y-112344200D01*
X135673579Y-112583758D01*
X135673579Y-112583761D01*
X135673580Y-112583763D01*
X135732590Y-112816791D01*
X135829151Y-113036928D01*
X135960629Y-113238169D01*
X136091821Y-113380682D01*
X136122743Y-113443336D01*
X136114883Y-113512762D01*
X136070736Y-113566917D01*
X136043926Y-113580845D01*
X136017113Y-113590846D01*
X135902011Y-113677011D01*
X135815847Y-113792110D01*
X135765600Y-113926828D01*
X135759554Y-113983067D01*
X135759200Y-113989681D01*
X135759200Y-114634200D01*
X136675514Y-114634200D01*
X136649707Y-114674356D01*
X136609200Y-114812311D01*
X136609200Y-114956089D01*
X136649707Y-115094044D01*
X136675514Y-115134200D01*
X135759200Y-115134200D01*
X135759200Y-115778718D01*
X135759554Y-115785332D01*
X135765600Y-115841571D01*
X135815847Y-115976289D01*
X135902011Y-116091388D01*
X136017110Y-116177552D01*
X136151828Y-116227799D01*
X136208067Y-116233845D01*
X136214682Y-116234200D01*
X136859200Y-116234200D01*
X136859200Y-115319701D01*
X136966885Y-115368880D01*
X137073437Y-115384200D01*
X137144963Y-115384200D01*
X137251515Y-115368880D01*
X137359200Y-115319701D01*
X137359200Y-116234200D01*
X138003718Y-116234200D01*
X138010332Y-116233845D01*
X138066571Y-116227799D01*
X138201289Y-116177552D01*
X138316388Y-116091388D01*
X138402552Y-115976289D01*
X138452799Y-115841571D01*
X138458845Y-115785332D01*
X138459200Y-115778718D01*
X138459200Y-115134200D01*
X137542886Y-115134200D01*
X137568693Y-115094044D01*
X137609200Y-114956089D01*
X137609200Y-114812311D01*
X137568693Y-114674356D01*
X137542886Y-114634200D01*
X138459200Y-114634200D01*
X138459200Y-113989681D01*
X138458845Y-113983067D01*
X138452799Y-113926828D01*
X138402552Y-113792110D01*
X138316388Y-113677011D01*
X138201288Y-113590847D01*
X138174474Y-113580846D01*
X138118541Y-113538974D01*
X138094124Y-113473509D01*
X138108976Y-113405237D01*
X138126576Y-113380684D01*
X138257771Y-113238169D01*
X138389249Y-113036928D01*
X138485810Y-112816791D01*
X138544820Y-112583763D01*
X138564671Y-112344200D01*
X138544820Y-112104637D01*
X138485810Y-111871609D01*
X138389249Y-111651472D01*
X138257771Y-111450231D01*
X138094964Y-111273375D01*
X138069465Y-111253529D01*
X137964786Y-111172053D01*
X137923973Y-111115343D01*
X137920298Y-111045570D01*
X137954930Y-110984887D01*
X137964786Y-110976347D01*
X138003155Y-110946482D01*
X138094964Y-110875025D01*
X138257771Y-110698169D01*
X138257770Y-110698169D01*
X138260949Y-110694717D01*
X138320836Y-110658727D01*
X138352179Y-110654700D01*
X139866221Y-110654700D01*
X139933260Y-110674385D01*
X139957451Y-110694717D01*
X139960629Y-110698169D01*
X140123436Y-110875025D01*
X140123439Y-110875027D01*
X140253614Y-110976347D01*
X140294427Y-111033057D01*
X140298102Y-111102830D01*
X140263470Y-111163513D01*
X140253614Y-111172053D01*
X140123439Y-111273372D01*
X139960630Y-111450230D01*
X139829150Y-111651474D01*
X139781735Y-111759570D01*
X139732590Y-111871609D01*
X139710926Y-111957159D01*
X139673579Y-112104641D01*
X139653728Y-112344200D01*
X139673579Y-112583758D01*
X139673579Y-112583761D01*
X139673580Y-112583763D01*
X139732590Y-112816791D01*
X139829151Y-113036928D01*
X139960629Y-113238169D01*
X140091821Y-113380682D01*
X140122743Y-113443336D01*
X140114883Y-113512762D01*
X140070736Y-113566917D01*
X140043926Y-113580845D01*
X140017113Y-113590846D01*
X139902011Y-113677011D01*
X139815847Y-113792110D01*
X139765600Y-113926828D01*
X139759554Y-113983067D01*
X139759200Y-113989681D01*
X139759200Y-114634200D01*
X140675514Y-114634200D01*
X140649707Y-114674356D01*
X140609200Y-114812311D01*
X140609200Y-114956089D01*
X140649707Y-115094044D01*
X140675514Y-115134200D01*
X139759200Y-115134200D01*
X139759200Y-115778718D01*
X139759554Y-115785332D01*
X139765600Y-115841571D01*
X139815847Y-115976289D01*
X139902011Y-116091388D01*
X140017110Y-116177552D01*
X140151828Y-116227799D01*
X140208067Y-116233845D01*
X140214682Y-116234200D01*
X140859200Y-116234200D01*
X140859200Y-115319701D01*
X140966885Y-115368880D01*
X141073437Y-115384200D01*
X141144963Y-115384200D01*
X141251515Y-115368880D01*
X141359200Y-115319701D01*
X141359200Y-116234200D01*
X142003718Y-116234200D01*
X142010332Y-116233845D01*
X142066571Y-116227799D01*
X142201289Y-116177552D01*
X142316388Y-116091388D01*
X142402552Y-115976289D01*
X142452799Y-115841571D01*
X142458845Y-115785332D01*
X142459200Y-115778718D01*
X142459200Y-115134200D01*
X141542886Y-115134200D01*
X141568693Y-115094044D01*
X141609200Y-114956089D01*
X141609200Y-114812311D01*
X141568693Y-114674356D01*
X141542886Y-114634200D01*
X142459200Y-114634200D01*
X142459200Y-113989681D01*
X142458845Y-113983067D01*
X142452799Y-113926828D01*
X142402552Y-113792110D01*
X142316388Y-113677011D01*
X142201288Y-113590847D01*
X142174474Y-113580846D01*
X142118541Y-113538974D01*
X142094124Y-113473509D01*
X142108976Y-113405237D01*
X142126576Y-113380684D01*
X142257771Y-113238169D01*
X142389249Y-113036928D01*
X142485810Y-112816791D01*
X142544820Y-112583763D01*
X142564671Y-112344200D01*
X142544820Y-112104637D01*
X142485810Y-111871609D01*
X142389249Y-111651472D01*
X142257771Y-111450231D01*
X142094964Y-111273375D01*
X142069465Y-111253529D01*
X141964786Y-111172053D01*
X141923973Y-111115343D01*
X141920298Y-111045570D01*
X141954930Y-110984887D01*
X141964786Y-110976347D01*
X142003155Y-110946482D01*
X142094964Y-110875025D01*
X142257771Y-110698169D01*
X142389249Y-110496928D01*
X142485810Y-110276791D01*
X142544820Y-110043763D01*
X142564671Y-109804200D01*
X142544820Y-109564637D01*
X142485810Y-109331609D01*
X142389249Y-109111472D01*
X142257771Y-108910231D01*
X142094964Y-108733375D01*
X142069465Y-108713529D01*
X141964786Y-108632053D01*
X141923973Y-108575343D01*
X141920298Y-108505570D01*
X141954930Y-108444887D01*
X141964786Y-108436347D01*
X142003155Y-108406482D01*
X142094964Y-108335025D01*
X142257771Y-108158169D01*
X142389249Y-107956928D01*
X142485810Y-107736791D01*
X142544820Y-107503763D01*
X142564671Y-107264200D01*
X142544820Y-107024637D01*
X142485810Y-106791609D01*
X142389249Y-106571472D01*
X142257771Y-106370231D01*
X142094964Y-106193375D01*
X142073570Y-106176723D01*
X141905272Y-106045731D01*
X141905268Y-106045728D01*
X141905267Y-106045728D01*
X141693856Y-105931318D01*
X141693855Y-105931317D01*
X141693852Y-105931316D01*
X141466499Y-105853266D01*
X141308426Y-105826888D01*
X141229392Y-105813700D01*
X140989008Y-105813700D01*
X140929731Y-105823591D01*
X140751900Y-105853266D01*
X140524547Y-105931316D01*
X140313127Y-106045731D01*
X140123439Y-106193372D01*
X139957451Y-106373683D01*
X139897564Y-106409673D01*
X139866221Y-106413700D01*
X138352179Y-106413700D01*
X138285140Y-106394015D01*
X138260949Y-106373683D01*
X138236074Y-106346662D01*
X138094964Y-106193375D01*
X138073570Y-106176723D01*
X137905272Y-106045731D01*
X137905268Y-106045728D01*
X137905267Y-106045728D01*
X137693856Y-105931318D01*
X137693855Y-105931317D01*
X137693852Y-105931316D01*
X137466499Y-105853266D01*
X137308426Y-105826888D01*
X137229392Y-105813700D01*
X136989008Y-105813700D01*
X136929731Y-105823591D01*
X136751900Y-105853266D01*
X136524547Y-105931316D01*
X136313127Y-106045731D01*
X136123439Y-106193372D01*
X135957451Y-106373683D01*
X135897564Y-106409673D01*
X135866221Y-106413700D01*
X134352179Y-106413700D01*
X134285140Y-106394015D01*
X134260949Y-106373683D01*
X134236074Y-106346662D01*
X134094964Y-106193375D01*
X134073570Y-106176723D01*
X133905272Y-106045731D01*
X133905268Y-106045728D01*
X133905267Y-106045728D01*
X133693856Y-105931318D01*
X133693855Y-105931317D01*
X133693852Y-105931316D01*
X133466499Y-105853266D01*
X133308426Y-105826888D01*
X133229392Y-105813700D01*
X132989008Y-105813700D01*
X132929731Y-105823591D01*
X132751900Y-105853266D01*
X132524547Y-105931316D01*
X132313127Y-106045731D01*
X132123439Y-106193372D01*
X131960630Y-106370230D01*
X131829150Y-106571474D01*
X131732591Y-106791607D01*
X131673579Y-107024641D01*
X131653728Y-107264200D01*
X131673579Y-107503758D01*
X131673579Y-107503761D01*
X131673580Y-107503763D01*
X131732590Y-107736791D01*
X131829151Y-107956928D01*
X131960629Y-108158169D01*
X132123436Y-108335025D01*
X132123439Y-108335027D01*
X132253614Y-108436347D01*
X132294427Y-108493057D01*
X132298102Y-108562830D01*
X132263470Y-108623513D01*
X132253614Y-108632053D01*
X132123439Y-108733372D01*
X131960630Y-108910230D01*
X131829150Y-109111474D01*
X131732591Y-109331607D01*
X131673579Y-109564641D01*
X131653728Y-109804199D01*
X131673579Y-110043758D01*
X131673579Y-110043761D01*
X131673580Y-110043763D01*
X131732590Y-110276791D01*
X131829151Y-110496928D01*
X131960629Y-110698169D01*
X132123436Y-110875025D01*
X132123439Y-110875027D01*
X132253614Y-110976347D01*
X132294427Y-111033057D01*
X132298102Y-111102830D01*
X132263470Y-111163513D01*
X132253614Y-111172053D01*
X132123439Y-111273372D01*
X131960630Y-111450230D01*
X131829150Y-111651474D01*
X131781735Y-111759570D01*
X131732590Y-111871609D01*
X131710926Y-111957159D01*
X131673579Y-112104641D01*
X131653728Y-112344200D01*
X104140000Y-112344200D01*
X104140000Y-96774000D01*
X136878292Y-96774000D01*
X136897893Y-97035552D01*
X136956259Y-97291270D01*
X137052082Y-97535424D01*
X137183227Y-97762573D01*
X137231073Y-97822571D01*
X137231074Y-97822571D01*
X138150122Y-96903523D01*
X138173707Y-96983844D01*
X138251439Y-97104798D01*
X138360100Y-97198952D01*
X138490885Y-97258680D01*
X138500666Y-97260086D01*
X137584031Y-98176720D01*
X137755746Y-98293793D01*
X137992060Y-98407596D01*
X138242696Y-98484908D01*
X138502056Y-98524000D01*
X138764344Y-98524000D01*
X139023703Y-98484908D01*
X139274339Y-98407596D01*
X139510656Y-98293792D01*
X139682367Y-98176720D01*
X138765734Y-97260086D01*
X138775515Y-97258680D01*
X138906300Y-97198952D01*
X139014961Y-97104798D01*
X139092693Y-96983844D01*
X139116276Y-96903523D01*
X140035324Y-97822571D01*
X140083172Y-97762572D01*
X140214317Y-97535423D01*
X140310140Y-97291270D01*
X140368506Y-97035552D01*
X140388107Y-96774000D01*
X140368506Y-96512447D01*
X140310140Y-96256729D01*
X140214317Y-96012575D01*
X140083172Y-95785426D01*
X140035325Y-95725427D01*
X139116276Y-96644475D01*
X139092693Y-96564156D01*
X139014961Y-96443202D01*
X138906300Y-96349048D01*
X138775515Y-96289320D01*
X138765733Y-96287913D01*
X139682367Y-95371278D01*
X139510651Y-95254205D01*
X139274339Y-95140403D01*
X139023703Y-95063091D01*
X138764344Y-95024000D01*
X138502056Y-95024000D01*
X138242696Y-95063091D01*
X137992060Y-95140403D01*
X137755745Y-95254206D01*
X137584032Y-95371278D01*
X138500667Y-96287913D01*
X138490885Y-96289320D01*
X138360100Y-96349048D01*
X138251439Y-96443202D01*
X138173707Y-96564156D01*
X138150122Y-96644476D01*
X137231073Y-95725427D01*
X137183228Y-95785424D01*
X137052082Y-96012576D01*
X136956259Y-96256729D01*
X136897893Y-96512447D01*
X136878292Y-96774000D01*
X104140000Y-96774000D01*
X104140000Y-94993000D01*
X104159685Y-94925961D01*
X104212489Y-94880206D01*
X104264000Y-94869000D01*
X135255000Y-94869000D01*
X135380591Y-83942574D01*
X135401045Y-83875766D01*
X135454371Y-83830621D01*
X135504583Y-83820000D01*
X141224000Y-83820000D01*
X141224000Y-78283362D01*
X141243685Y-78216323D01*
X141260319Y-78195681D01*
X149606000Y-69850000D01*
X149755993Y-69695320D01*
X154029500Y-69695320D01*
X154029501Y-69699360D01*
X154030029Y-69703373D01*
X154030030Y-69703384D01*
X154044955Y-69816760D01*
X154105464Y-69962841D01*
X154201717Y-70088282D01*
X154327158Y-70184535D01*
X154327159Y-70184536D01*
X154473238Y-70245044D01*
X154590639Y-70260500D01*
X156369360Y-70260499D01*
X156486762Y-70245044D01*
X156632841Y-70184536D01*
X156758282Y-70088282D01*
X156854536Y-69962841D01*
X156861750Y-69945423D01*
X156905590Y-69891019D01*
X156971884Y-69868953D01*
X157039583Y-69886231D01*
X157052471Y-69895018D01*
X157223933Y-70028472D01*
X157435344Y-70142882D01*
X157662703Y-70220934D01*
X157899808Y-70260500D01*
X157899809Y-70260500D01*
X158140191Y-70260500D01*
X158140192Y-70260500D01*
X158377297Y-70220934D01*
X158604656Y-70142882D01*
X158816067Y-70028472D01*
X159005764Y-69880825D01*
X159168571Y-69703969D01*
X159186193Y-69676997D01*
X159239337Y-69631642D01*
X159308568Y-69622218D01*
X159371904Y-69651719D01*
X159393807Y-69676996D01*
X159411429Y-69703969D01*
X159574236Y-69880825D01*
X159592474Y-69895020D01*
X159763927Y-70028468D01*
X159763929Y-70028469D01*
X159763933Y-70028472D01*
X159975344Y-70142882D01*
X160202703Y-70220934D01*
X160439808Y-70260500D01*
X160439809Y-70260500D01*
X160680191Y-70260500D01*
X160680192Y-70260500D01*
X160917297Y-70220934D01*
X161144656Y-70142882D01*
X161356067Y-70028472D01*
X161545764Y-69880825D01*
X161708571Y-69703969D01*
X161726191Y-69676998D01*
X161779334Y-69631643D01*
X161848565Y-69622218D01*
X161911901Y-69651718D01*
X161933807Y-69676997D01*
X161933810Y-69677001D01*
X161951429Y-69703969D01*
X162114236Y-69880825D01*
X162132474Y-69895020D01*
X162303927Y-70028468D01*
X162303929Y-70028469D01*
X162303933Y-70028472D01*
X162515344Y-70142882D01*
X162742703Y-70220934D01*
X162979808Y-70260500D01*
X162979809Y-70260500D01*
X163220191Y-70260500D01*
X163220192Y-70260500D01*
X163457297Y-70220934D01*
X163684656Y-70142882D01*
X163896067Y-70028472D01*
X164085764Y-69880825D01*
X164248571Y-69703969D01*
X164326598Y-69584539D01*
X164379744Y-69539184D01*
X164448975Y-69529760D01*
X164512311Y-69559262D01*
X164531980Y-69581238D01*
X164601889Y-69681077D01*
X164768918Y-69848106D01*
X164962423Y-69983600D01*
X165176509Y-70083430D01*
X165390000Y-70140634D01*
X165390000Y-69245501D01*
X165497685Y-69294680D01*
X165604237Y-69310000D01*
X165675763Y-69310000D01*
X165782315Y-69294680D01*
X165890000Y-69245501D01*
X165890000Y-70140633D01*
X166103490Y-70083430D01*
X166317576Y-69983600D01*
X166511081Y-69848106D01*
X166678106Y-69681081D01*
X166813600Y-69487576D01*
X166913430Y-69273492D01*
X166970636Y-69060000D01*
X166073686Y-69060000D01*
X166099493Y-69019844D01*
X166140000Y-68881889D01*
X166140000Y-68738111D01*
X166099493Y-68600156D01*
X166073686Y-68560000D01*
X166970636Y-68560000D01*
X166970635Y-68559999D01*
X166913430Y-68346507D01*
X166813599Y-68132421D01*
X166678109Y-67938921D01*
X166511081Y-67771893D01*
X166317576Y-67636399D01*
X166103492Y-67536569D01*
X165890000Y-67479364D01*
X165890000Y-68374498D01*
X165782315Y-68325320D01*
X165675763Y-68310000D01*
X165604237Y-68310000D01*
X165497685Y-68325320D01*
X165390000Y-68374498D01*
X165390000Y-67479364D01*
X165389999Y-67479364D01*
X165176507Y-67536569D01*
X164962421Y-67636400D01*
X164768921Y-67771890D01*
X164601893Y-67938918D01*
X164531982Y-68038762D01*
X164477405Y-68082386D01*
X164407906Y-68089579D01*
X164345552Y-68058057D01*
X164326599Y-68035460D01*
X164248573Y-67916034D01*
X164248572Y-67916033D01*
X164248571Y-67916031D01*
X164085764Y-67739175D01*
X164064370Y-67722523D01*
X163896072Y-67591531D01*
X163896068Y-67591528D01*
X163896067Y-67591528D01*
X163684656Y-67477118D01*
X163684655Y-67477117D01*
X163684652Y-67477116D01*
X163457299Y-67399066D01*
X163299227Y-67372688D01*
X163220192Y-67359500D01*
X162979808Y-67359500D01*
X162920531Y-67369391D01*
X162742700Y-67399066D01*
X162515347Y-67477116D01*
X162303927Y-67591531D01*
X162114239Y-67739172D01*
X161951426Y-67916033D01*
X161933808Y-67943000D01*
X161880662Y-67988357D01*
X161811430Y-67997780D01*
X161748095Y-67968278D01*
X161726192Y-67943000D01*
X161708573Y-67916033D01*
X161657422Y-67860468D01*
X161545764Y-67739175D01*
X161524370Y-67722523D01*
X161356072Y-67591531D01*
X161356068Y-67591528D01*
X161356067Y-67591528D01*
X161144656Y-67477118D01*
X161144655Y-67477117D01*
X161144652Y-67477116D01*
X160917299Y-67399066D01*
X160759227Y-67372688D01*
X160680192Y-67359500D01*
X160439808Y-67359500D01*
X160380531Y-67369391D01*
X160202700Y-67399066D01*
X159975347Y-67477116D01*
X159763927Y-67591531D01*
X159574239Y-67739172D01*
X159411426Y-67916033D01*
X159393808Y-67943000D01*
X159340662Y-67988357D01*
X159271430Y-67997780D01*
X159208095Y-67968278D01*
X159186192Y-67943000D01*
X159168573Y-67916033D01*
X159117422Y-67860468D01*
X159005764Y-67739175D01*
X158984370Y-67722523D01*
X158816072Y-67591531D01*
X158816068Y-67591528D01*
X158816067Y-67591528D01*
X158604656Y-67477118D01*
X158604655Y-67477117D01*
X158604652Y-67477116D01*
X158377299Y-67399066D01*
X158219227Y-67372688D01*
X158140192Y-67359500D01*
X157899808Y-67359500D01*
X157840531Y-67369391D01*
X157662700Y-67399066D01*
X157435347Y-67477116D01*
X157223931Y-67591529D01*
X157052474Y-67724979D01*
X156987480Y-67750621D01*
X156918940Y-67737054D01*
X156868615Y-67688586D01*
X156861755Y-67674587D01*
X156854536Y-67657159D01*
X156838607Y-67636400D01*
X156758282Y-67531717D01*
X156632840Y-67435463D01*
X156486762Y-67374956D01*
X156373380Y-67360029D01*
X156373378Y-67360028D01*
X156369361Y-67359500D01*
X156365307Y-67359500D01*
X154594694Y-67359500D01*
X154594678Y-67359500D01*
X154590640Y-67359501D01*
X154586627Y-67360029D01*
X154586615Y-67360030D01*
X154473239Y-67374955D01*
X154327158Y-67435464D01*
X154201717Y-67531717D01*
X154105463Y-67657159D01*
X154044956Y-67803237D01*
X154030107Y-67916031D01*
X154029500Y-67920639D01*
X154029500Y-67924691D01*
X154029500Y-67924692D01*
X154029500Y-69695305D01*
X154029500Y-69695320D01*
X149755993Y-69695320D01*
X153633465Y-65696678D01*
X153694265Y-65662254D01*
X153722484Y-65659000D01*
X161290000Y-65659000D01*
X161290000Y-53709571D01*
X161309685Y-53642532D01*
X161362489Y-53596777D01*
X161414218Y-53585571D01*
X166312874Y-53594284D01*
G37*
%TD.AperFunction*%
%TA.AperFunction,Conductor*%
G36*
X163128388Y-101490185D02*
G01*
X163149030Y-101506819D01*
X163815598Y-102173387D01*
X163822418Y-102180784D01*
X163856663Y-102221100D01*
X163886317Y-102243642D01*
X163919773Y-102269075D01*
X163922418Y-102271143D01*
X163984336Y-102320914D01*
X164003821Y-102333000D01*
X164003933Y-102333051D01*
X164003936Y-102333054D01*
X164075943Y-102366368D01*
X164078942Y-102367805D01*
X164150095Y-102403094D01*
X164171716Y-102410706D01*
X164171831Y-102410731D01*
X164171833Y-102410732D01*
X164247156Y-102427311D01*
X164308395Y-102460944D01*
X164341730Y-102522349D01*
X164344500Y-102548411D01*
X164344500Y-103355305D01*
X164344500Y-103355320D01*
X164344501Y-103359360D01*
X164345029Y-103363373D01*
X164345030Y-103363384D01*
X164361542Y-103488816D01*
X164361542Y-103521183D01*
X164345029Y-103646616D01*
X164345028Y-103646625D01*
X164344500Y-103650639D01*
X164344500Y-103654691D01*
X164344500Y-103654692D01*
X164344500Y-104625305D01*
X164344500Y-104625320D01*
X164344501Y-104629360D01*
X164345029Y-104633373D01*
X164345030Y-104633384D01*
X164361542Y-104758816D01*
X164361542Y-104791183D01*
X164345029Y-104916616D01*
X164345028Y-104916625D01*
X164344500Y-104920639D01*
X164344500Y-104924691D01*
X164344500Y-104924692D01*
X164344500Y-105895305D01*
X164344500Y-105895320D01*
X164344501Y-105899360D01*
X164345029Y-105903373D01*
X164345030Y-105903384D01*
X164361542Y-106028816D01*
X164361542Y-106061183D01*
X164345029Y-106186616D01*
X164345028Y-106186625D01*
X164344500Y-106190639D01*
X164344500Y-106194691D01*
X164344500Y-106194692D01*
X164344500Y-107165305D01*
X164344500Y-107165320D01*
X164344501Y-107169360D01*
X164345029Y-107173373D01*
X164345030Y-107173384D01*
X164361542Y-107298816D01*
X164361542Y-107331183D01*
X164345029Y-107456616D01*
X164345028Y-107456625D01*
X164344500Y-107460639D01*
X164344500Y-107464691D01*
X164344500Y-107464692D01*
X164344500Y-108435305D01*
X164344500Y-108435320D01*
X164344501Y-108439360D01*
X164345029Y-108443373D01*
X164345030Y-108443384D01*
X164361542Y-108568816D01*
X164361542Y-108601183D01*
X164345029Y-108726616D01*
X164345028Y-108726625D01*
X164344500Y-108730639D01*
X164344500Y-108734691D01*
X164344500Y-108734692D01*
X164344500Y-109705305D01*
X164344500Y-109705320D01*
X164344501Y-109709360D01*
X164345029Y-109713373D01*
X164345030Y-109713384D01*
X164361542Y-109838816D01*
X164361542Y-109871183D01*
X164345029Y-109996616D01*
X164345028Y-109996625D01*
X164344500Y-110000639D01*
X164344500Y-110004691D01*
X164344500Y-110004692D01*
X164344500Y-110975305D01*
X164344500Y-110975320D01*
X164344501Y-110979360D01*
X164345029Y-110983373D01*
X164345030Y-110983384D01*
X164361542Y-111108816D01*
X164361542Y-111141183D01*
X164345029Y-111266616D01*
X164345028Y-111266625D01*
X164344500Y-111270639D01*
X164344500Y-111274691D01*
X164344500Y-111274692D01*
X164344500Y-112245305D01*
X164344500Y-112245320D01*
X164344501Y-112249360D01*
X164345029Y-112253373D01*
X164345030Y-112253384D01*
X164359955Y-112366760D01*
X164420464Y-112512841D01*
X164516717Y-112638282D01*
X164642158Y-112734535D01*
X164642159Y-112734536D01*
X164767952Y-112786641D01*
X164822356Y-112830482D01*
X164844421Y-112896776D01*
X164844500Y-112901202D01*
X164844499Y-118873500D01*
X164824814Y-118940539D01*
X164772010Y-118986294D01*
X164720499Y-118997500D01*
X164264694Y-118997500D01*
X164264678Y-118997500D01*
X164260640Y-118997501D01*
X164256627Y-118998029D01*
X164256615Y-118998030D01*
X164143239Y-119012955D01*
X163997158Y-119073464D01*
X163871718Y-119169717D01*
X163849260Y-119198986D01*
X163792833Y-119240189D01*
X163750884Y-119247500D01*
X160249116Y-119247500D01*
X160182077Y-119227815D01*
X160150740Y-119198986D01*
X160128281Y-119169717D01*
X160002840Y-119073463D01*
X159856762Y-119012956D01*
X159743380Y-118998029D01*
X159743378Y-118998028D01*
X159739361Y-118997500D01*
X159735307Y-118997500D01*
X157964694Y-118997500D01*
X157964678Y-118997500D01*
X157960640Y-118997501D01*
X157956627Y-118998029D01*
X157956615Y-118998030D01*
X157843239Y-119012955D01*
X157697158Y-119073464D01*
X157571717Y-119169717D01*
X157475463Y-119295159D01*
X157414956Y-119441237D01*
X157414956Y-119441238D01*
X157399500Y-119558639D01*
X157399500Y-119562691D01*
X157399500Y-119562692D01*
X157399500Y-120246492D01*
X157379815Y-120313531D01*
X157327011Y-120359286D01*
X157257853Y-120369230D01*
X157197813Y-120343139D01*
X157110754Y-120273159D01*
X157110753Y-120273158D01*
X156945021Y-120190963D01*
X156945019Y-120190962D01*
X156944572Y-120190851D01*
X156943330Y-120190124D01*
X156932939Y-120184971D01*
X156933294Y-120184253D01*
X156884265Y-120155568D01*
X156852608Y-120093282D01*
X156850500Y-120070517D01*
X156850500Y-118904805D01*
X156850909Y-118894742D01*
X156855201Y-118842033D01*
X156844490Y-118763424D01*
X156844086Y-118760119D01*
X156835501Y-118681171D01*
X156830270Y-118658850D01*
X156802877Y-118584286D01*
X156801762Y-118581120D01*
X156776444Y-118505979D01*
X156776441Y-118505975D01*
X156776404Y-118505863D01*
X156766494Y-118485180D01*
X156723722Y-118418264D01*
X156721951Y-118415410D01*
X156681009Y-118347363D01*
X156666885Y-118329296D01*
X156610731Y-118273142D01*
X156608389Y-118270736D01*
X156553768Y-118213074D01*
X156535882Y-118198293D01*
X152927800Y-114590211D01*
X152920985Y-114582820D01*
X152904821Y-114563790D01*
X152876425Y-114499955D01*
X152887049Y-114430898D01*
X152933321Y-114378547D01*
X152991093Y-114359836D01*
X152984360Y-114360499D01*
X153101762Y-114345044D01*
X153101763Y-114345043D01*
X153113815Y-114343457D01*
X153146184Y-114343457D01*
X153158237Y-114345043D01*
X153158238Y-114345044D01*
X153275639Y-114360500D01*
X154254360Y-114360499D01*
X154371762Y-114345044D01*
X154371763Y-114345043D01*
X154383815Y-114343457D01*
X154416184Y-114343457D01*
X154428237Y-114345043D01*
X154428238Y-114345044D01*
X154545639Y-114360500D01*
X155524360Y-114360499D01*
X155641762Y-114345044D01*
X155641763Y-114345043D01*
X155653815Y-114343457D01*
X155686184Y-114343457D01*
X155698237Y-114345043D01*
X155698238Y-114345044D01*
X155815639Y-114360500D01*
X156794360Y-114360499D01*
X156911762Y-114345044D01*
X156911763Y-114345043D01*
X156923815Y-114343457D01*
X156956184Y-114343457D01*
X156968237Y-114345043D01*
X156968238Y-114345044D01*
X157085639Y-114360500D01*
X158064360Y-114360499D01*
X158181762Y-114345044D01*
X158181763Y-114345043D01*
X158193815Y-114343457D01*
X158226184Y-114343457D01*
X158238237Y-114345043D01*
X158238238Y-114345044D01*
X158355639Y-114360500D01*
X159334360Y-114360499D01*
X159451762Y-114345044D01*
X159451763Y-114345043D01*
X159463815Y-114343457D01*
X159496184Y-114343457D01*
X159508237Y-114345043D01*
X159508238Y-114345044D01*
X159625639Y-114360500D01*
X160604360Y-114360499D01*
X160721762Y-114345044D01*
X160721763Y-114345043D01*
X160733815Y-114343457D01*
X160766184Y-114343457D01*
X160778237Y-114345043D01*
X160778238Y-114345044D01*
X160895639Y-114360500D01*
X161874360Y-114360499D01*
X161991762Y-114345044D01*
X161991763Y-114345043D01*
X162003815Y-114343457D01*
X162036184Y-114343457D01*
X162048237Y-114345043D01*
X162048238Y-114345044D01*
X162165639Y-114360500D01*
X163144360Y-114360499D01*
X163261762Y-114345044D01*
X163407841Y-114284536D01*
X163533282Y-114188282D01*
X163629536Y-114062841D01*
X163690044Y-113916762D01*
X163705500Y-113799361D01*
X163705499Y-112220640D01*
X163690044Y-112103238D01*
X163629536Y-111957159D01*
X163607139Y-111927971D01*
X163533282Y-111831717D01*
X163407840Y-111735463D01*
X163261762Y-111674956D01*
X163148380Y-111660029D01*
X163148378Y-111660028D01*
X163144361Y-111659500D01*
X163140307Y-111659500D01*
X162169694Y-111659500D01*
X162169678Y-111659500D01*
X162165640Y-111659501D01*
X162161627Y-111660029D01*
X162161615Y-111660030D01*
X162036183Y-111676542D01*
X162003816Y-111676542D01*
X161878383Y-111660029D01*
X161878375Y-111660028D01*
X161874361Y-111659500D01*
X161870307Y-111659500D01*
X160899694Y-111659500D01*
X160899678Y-111659500D01*
X160895640Y-111659501D01*
X160891627Y-111660029D01*
X160891615Y-111660030D01*
X160766183Y-111676542D01*
X160733816Y-111676542D01*
X160608383Y-111660029D01*
X160608375Y-111660028D01*
X160604361Y-111659500D01*
X160600307Y-111659500D01*
X159629694Y-111659500D01*
X159629678Y-111659500D01*
X159625640Y-111659501D01*
X159621627Y-111660029D01*
X159621615Y-111660030D01*
X159496183Y-111676542D01*
X159463816Y-111676542D01*
X159338383Y-111660029D01*
X159338375Y-111660028D01*
X159334361Y-111659500D01*
X159330307Y-111659500D01*
X158359694Y-111659500D01*
X158359678Y-111659500D01*
X158355640Y-111659501D01*
X158351627Y-111660029D01*
X158351615Y-111660030D01*
X158226183Y-111676542D01*
X158193816Y-111676542D01*
X158068383Y-111660029D01*
X158068375Y-111660028D01*
X158064361Y-111659500D01*
X158060307Y-111659500D01*
X157089694Y-111659500D01*
X157089678Y-111659500D01*
X157085640Y-111659501D01*
X157081627Y-111660029D01*
X157081615Y-111660030D01*
X156956183Y-111676542D01*
X156923816Y-111676542D01*
X156798383Y-111660029D01*
X156798375Y-111660028D01*
X156794361Y-111659500D01*
X156790307Y-111659500D01*
X155819694Y-111659500D01*
X155819678Y-111659500D01*
X155815640Y-111659501D01*
X155811627Y-111660029D01*
X155811615Y-111660030D01*
X155686183Y-111676542D01*
X155653816Y-111676542D01*
X155528383Y-111660029D01*
X155528375Y-111660028D01*
X155524361Y-111659500D01*
X155520307Y-111659500D01*
X154549694Y-111659500D01*
X154549678Y-111659500D01*
X154545640Y-111659501D01*
X154541627Y-111660029D01*
X154541615Y-111660030D01*
X154416183Y-111676542D01*
X154383816Y-111676542D01*
X154258383Y-111660029D01*
X154258375Y-111660028D01*
X154254361Y-111659500D01*
X154250307Y-111659500D01*
X153279694Y-111659500D01*
X153279678Y-111659500D01*
X153275640Y-111659501D01*
X153271627Y-111660029D01*
X153271615Y-111660030D01*
X153146183Y-111676542D01*
X153113816Y-111676542D01*
X152988383Y-111660029D01*
X152988375Y-111660028D01*
X152984361Y-111659500D01*
X152980307Y-111659500D01*
X152009694Y-111659500D01*
X152009678Y-111659500D01*
X152005640Y-111659501D01*
X152001627Y-111660029D01*
X152001615Y-111660030D01*
X151888239Y-111674955D01*
X151727077Y-111741711D01*
X151726735Y-111740886D01*
X151678411Y-111759570D01*
X151668091Y-111760000D01*
X151475000Y-111760000D01*
X151475000Y-112042254D01*
X151465560Y-112089706D01*
X151459956Y-112103238D01*
X151444500Y-112220639D01*
X151444500Y-112901202D01*
X151444501Y-113136000D01*
X151424817Y-113203039D01*
X151372013Y-113248794D01*
X151320501Y-113260000D01*
X151204500Y-113260000D01*
X151137461Y-113240315D01*
X151091706Y-113187511D01*
X151080500Y-113136000D01*
X151080500Y-104620000D01*
X153095000Y-104620000D01*
X153095000Y-104864518D01*
X153095354Y-104871132D01*
X153101400Y-104927371D01*
X153151647Y-105062089D01*
X153237811Y-105177188D01*
X153352910Y-105263352D01*
X153487628Y-105313599D01*
X153543867Y-105319645D01*
X153550482Y-105320000D01*
X153795000Y-105320000D01*
X153795000Y-104620000D01*
X154295000Y-104620000D01*
X154295000Y-105320000D01*
X154539518Y-105320000D01*
X154546132Y-105319645D01*
X154602375Y-105313598D01*
X154701665Y-105276565D01*
X154771356Y-105271580D01*
X154788333Y-105276564D01*
X154887628Y-105313599D01*
X154943867Y-105319645D01*
X154950482Y-105320000D01*
X155195000Y-105320000D01*
X155195000Y-104620000D01*
X155695000Y-104620000D01*
X155695000Y-105320000D01*
X155939518Y-105320000D01*
X155946132Y-105319645D01*
X156002375Y-105313598D01*
X156101665Y-105276565D01*
X156171356Y-105271580D01*
X156188333Y-105276564D01*
X156287628Y-105313599D01*
X156343867Y-105319645D01*
X156350482Y-105320000D01*
X156595000Y-105320000D01*
X156595000Y-104620000D01*
X157095000Y-104620000D01*
X157095000Y-105320000D01*
X157339518Y-105320000D01*
X157346132Y-105319645D01*
X157402371Y-105313599D01*
X157537089Y-105263352D01*
X157652188Y-105177188D01*
X157738352Y-105062089D01*
X157788599Y-104927371D01*
X157794645Y-104871132D01*
X157795000Y-104864518D01*
X157795000Y-104620000D01*
X157095000Y-104620000D01*
X156595000Y-104620000D01*
X155695000Y-104620000D01*
X155195000Y-104620000D01*
X154295000Y-104620000D01*
X153795000Y-104620000D01*
X153095000Y-104620000D01*
X151080500Y-104620000D01*
X151080500Y-103220000D01*
X153095000Y-103220000D01*
X153095000Y-103464518D01*
X153095354Y-103471132D01*
X153101400Y-103527373D01*
X153138435Y-103626666D01*
X153143419Y-103696357D01*
X153138435Y-103713332D01*
X153101400Y-103812626D01*
X153095354Y-103868867D01*
X153095000Y-103875481D01*
X153095000Y-104120000D01*
X153795000Y-104120000D01*
X153795000Y-103220000D01*
X154295000Y-103220000D01*
X154295000Y-104120000D01*
X155195000Y-104120000D01*
X155195000Y-103220000D01*
X155695000Y-103220000D01*
X155695000Y-104120000D01*
X156595000Y-104120000D01*
X156595000Y-103220000D01*
X157095000Y-103220000D01*
X157095000Y-104120000D01*
X157795000Y-104120000D01*
X157795000Y-103875481D01*
X157794645Y-103868867D01*
X157788599Y-103812628D01*
X157751564Y-103713334D01*
X157746580Y-103643642D01*
X157751564Y-103626666D01*
X157788599Y-103527371D01*
X157794645Y-103471132D01*
X157795000Y-103464518D01*
X157795000Y-103220000D01*
X157095000Y-103220000D01*
X156595000Y-103220000D01*
X155695000Y-103220000D01*
X155195000Y-103220000D01*
X154295000Y-103220000D01*
X153795000Y-103220000D01*
X153095000Y-103220000D01*
X151080500Y-103220000D01*
X151080500Y-102722603D01*
X151100185Y-102655564D01*
X151152989Y-102609809D01*
X151192344Y-102599200D01*
X151326132Y-102586024D01*
X151514727Y-102528814D01*
X151688538Y-102435910D01*
X151840883Y-102310883D01*
X151965910Y-102158538D01*
X152058814Y-101984727D01*
X152098024Y-101855467D01*
X152119282Y-101820000D01*
X153095000Y-101820000D01*
X153095000Y-102064518D01*
X153095354Y-102071132D01*
X153101400Y-102127373D01*
X153138435Y-102226667D01*
X153143419Y-102296359D01*
X153138435Y-102313333D01*
X153101400Y-102412626D01*
X153095354Y-102468867D01*
X153095000Y-102475481D01*
X153095000Y-102720000D01*
X153795000Y-102720000D01*
X153795000Y-101820000D01*
X154295000Y-101820000D01*
X154295000Y-102720000D01*
X155195000Y-102720000D01*
X155195000Y-101820000D01*
X155695000Y-101820000D01*
X155695000Y-102720000D01*
X156595000Y-102720000D01*
X156595000Y-101820000D01*
X157095000Y-101820000D01*
X157095000Y-102720000D01*
X157795000Y-102720000D01*
X157795000Y-102475481D01*
X157794645Y-102468867D01*
X157788599Y-102412628D01*
X157751564Y-102313334D01*
X157746580Y-102243642D01*
X157751564Y-102226666D01*
X157788599Y-102127371D01*
X157794645Y-102071132D01*
X157795000Y-102064518D01*
X157795000Y-101820000D01*
X157095000Y-101820000D01*
X156595000Y-101820000D01*
X155695000Y-101820000D01*
X155195000Y-101820000D01*
X154295000Y-101820000D01*
X153795000Y-101820000D01*
X153095000Y-101820000D01*
X152119282Y-101820000D01*
X152128998Y-101803789D01*
X152425971Y-101506816D01*
X152487293Y-101473334D01*
X152513651Y-101470500D01*
X163061349Y-101470500D01*
X163128388Y-101490185D01*
G37*
%TD.AperFunction*%
%TD*%
D33*
X105664000Y-126238000D02*
G75*
G03*
X105664000Y-126238000I-1524000J0D01*
G01*
X101600000Y-50934000D02*
X170976000Y-50934000D01*
X170976000Y-128778000D01*
X101600000Y-128778000D01*
X101600000Y-50934000D01*
X105664000Y-53594000D02*
G75*
G03*
X105664000Y-53594000I-1524000J0D01*
G01*
X169926000Y-126238000D02*
G75*
G03*
X169926000Y-126238000I-1524000J0D01*
G01*
X169926000Y-53594000D02*
G75*
G03*
X169926000Y-53594000I-1524000J0D01*
G01*
M02*
