%TF.GenerationSoftware,KiCad,Pcbnew,7.0.2-6a45011f42~172~ubuntu22.10.1*%
%TF.CreationDate,2023-08-16T11:39:28+05:00*%
%TF.ProjectId,IOTV,494f5456-2e6b-4696-9361-645f70636258,3*%
%TF.SameCoordinates,Original*%
%TF.FileFunction,Legend,Top*%
%TF.FilePolarity,Positive*%
%FSLAX46Y46*%
G04 Gerber Fmt 4.6, Leading zero omitted, Abs format (unit mm)*
G04 Created by KiCad (PCBNEW 7.0.2-6a45011f42~172~ubuntu22.10.1) date 2023-08-16 11:39:28*
%MOMM*%
%LPD*%
G01*
G04 APERTURE LIST*
%ADD10C,0.150000*%
%ADD11C,0.200000*%
%ADD12C,0.157000*%
%ADD13C,0.400000*%
%TA.AperFunction,Profile*%
%ADD14C,0.150000*%
%TD*%
G04 APERTURE END LIST*
D10*
X167640000Y-81310000D02*
X153640000Y-81310000D01*
X153640000Y-67310000D02*
X167640000Y-67310000D01*
X153640000Y-81310000D02*
X153640000Y-67310000D01*
X167640000Y-67310000D02*
X167640000Y-81310000D01*
X146859523Y-74831619D02*
X146526190Y-74355428D01*
X146288095Y-74831619D02*
X146288095Y-73831619D01*
X146288095Y-73831619D02*
X146669047Y-73831619D01*
X146669047Y-73831619D02*
X146764285Y-73879238D01*
X146764285Y-73879238D02*
X146811904Y-73926857D01*
X146811904Y-73926857D02*
X146859523Y-74022095D01*
X146859523Y-74022095D02*
X146859523Y-74164952D01*
X146859523Y-74164952D02*
X146811904Y-74260190D01*
X146811904Y-74260190D02*
X146764285Y-74307809D01*
X146764285Y-74307809D02*
X146669047Y-74355428D01*
X146669047Y-74355428D02*
X146288095Y-74355428D01*
X147192857Y-73831619D02*
X147859523Y-74831619D01*
X147859523Y-73831619D02*
X147192857Y-74831619D01*
X146192857Y-71267619D02*
X146811904Y-71267619D01*
X146811904Y-71267619D02*
X146478571Y-71648571D01*
X146478571Y-71648571D02*
X146621428Y-71648571D01*
X146621428Y-71648571D02*
X146716666Y-71696190D01*
X146716666Y-71696190D02*
X146764285Y-71743809D01*
X146764285Y-71743809D02*
X146811904Y-71839047D01*
X146811904Y-71839047D02*
X146811904Y-72077142D01*
X146811904Y-72077142D02*
X146764285Y-72172380D01*
X146764285Y-72172380D02*
X146716666Y-72220000D01*
X146716666Y-72220000D02*
X146621428Y-72267619D01*
X146621428Y-72267619D02*
X146335714Y-72267619D01*
X146335714Y-72267619D02*
X146240476Y-72220000D01*
X146240476Y-72220000D02*
X146192857Y-72172380D01*
X147240476Y-72172380D02*
X147288095Y-72220000D01*
X147288095Y-72220000D02*
X147240476Y-72267619D01*
X147240476Y-72267619D02*
X147192857Y-72220000D01*
X147192857Y-72220000D02*
X147240476Y-72172380D01*
X147240476Y-72172380D02*
X147240476Y-72267619D01*
X147621428Y-71267619D02*
X148240475Y-71267619D01*
X148240475Y-71267619D02*
X147907142Y-71648571D01*
X147907142Y-71648571D02*
X148049999Y-71648571D01*
X148049999Y-71648571D02*
X148145237Y-71696190D01*
X148145237Y-71696190D02*
X148192856Y-71743809D01*
X148192856Y-71743809D02*
X148240475Y-71839047D01*
X148240475Y-71839047D02*
X148240475Y-72077142D01*
X148240475Y-72077142D02*
X148192856Y-72172380D01*
X148192856Y-72172380D02*
X148145237Y-72220000D01*
X148145237Y-72220000D02*
X148049999Y-72267619D01*
X148049999Y-72267619D02*
X147764285Y-72267619D01*
X147764285Y-72267619D02*
X147669047Y-72220000D01*
X147669047Y-72220000D02*
X147621428Y-72172380D01*
X161071428Y-117514609D02*
X161214285Y-117562228D01*
X161214285Y-117562228D02*
X161261904Y-117609847D01*
X161261904Y-117609847D02*
X161309523Y-117705085D01*
X161309523Y-117705085D02*
X161309523Y-117847942D01*
X161309523Y-117847942D02*
X161261904Y-117943180D01*
X161261904Y-117943180D02*
X161214285Y-117990800D01*
X161214285Y-117990800D02*
X161119047Y-118038419D01*
X161119047Y-118038419D02*
X160738095Y-118038419D01*
X160738095Y-118038419D02*
X160738095Y-117038419D01*
X160738095Y-117038419D02*
X161071428Y-117038419D01*
X161071428Y-117038419D02*
X161166666Y-117086038D01*
X161166666Y-117086038D02*
X161214285Y-117133657D01*
X161214285Y-117133657D02*
X161261904Y-117228895D01*
X161261904Y-117228895D02*
X161261904Y-117324133D01*
X161261904Y-117324133D02*
X161214285Y-117419371D01*
X161214285Y-117419371D02*
X161166666Y-117466990D01*
X161166666Y-117466990D02*
X161071428Y-117514609D01*
X161071428Y-117514609D02*
X160738095Y-117514609D01*
X161880952Y-118038419D02*
X161785714Y-117990800D01*
X161785714Y-117990800D02*
X161738095Y-117943180D01*
X161738095Y-117943180D02*
X161690476Y-117847942D01*
X161690476Y-117847942D02*
X161690476Y-117562228D01*
X161690476Y-117562228D02*
X161738095Y-117466990D01*
X161738095Y-117466990D02*
X161785714Y-117419371D01*
X161785714Y-117419371D02*
X161880952Y-117371752D01*
X161880952Y-117371752D02*
X162023809Y-117371752D01*
X162023809Y-117371752D02*
X162119047Y-117419371D01*
X162119047Y-117419371D02*
X162166666Y-117466990D01*
X162166666Y-117466990D02*
X162214285Y-117562228D01*
X162214285Y-117562228D02*
X162214285Y-117847942D01*
X162214285Y-117847942D02*
X162166666Y-117943180D01*
X162166666Y-117943180D02*
X162119047Y-117990800D01*
X162119047Y-117990800D02*
X162023809Y-118038419D01*
X162023809Y-118038419D02*
X161880952Y-118038419D01*
X162785714Y-118038419D02*
X162690476Y-117990800D01*
X162690476Y-117990800D02*
X162642857Y-117943180D01*
X162642857Y-117943180D02*
X162595238Y-117847942D01*
X162595238Y-117847942D02*
X162595238Y-117562228D01*
X162595238Y-117562228D02*
X162642857Y-117466990D01*
X162642857Y-117466990D02*
X162690476Y-117419371D01*
X162690476Y-117419371D02*
X162785714Y-117371752D01*
X162785714Y-117371752D02*
X162928571Y-117371752D01*
X162928571Y-117371752D02*
X163023809Y-117419371D01*
X163023809Y-117419371D02*
X163071428Y-117466990D01*
X163071428Y-117466990D02*
X163119047Y-117562228D01*
X163119047Y-117562228D02*
X163119047Y-117847942D01*
X163119047Y-117847942D02*
X163071428Y-117943180D01*
X163071428Y-117943180D02*
X163023809Y-117990800D01*
X163023809Y-117990800D02*
X162928571Y-118038419D01*
X162928571Y-118038419D02*
X162785714Y-118038419D01*
X163404762Y-117371752D02*
X163785714Y-117371752D01*
X163547619Y-117038419D02*
X163547619Y-117895561D01*
X163547619Y-117895561D02*
X163595238Y-117990800D01*
X163595238Y-117990800D02*
X163690476Y-118038419D01*
X163690476Y-118038419D02*
X163785714Y-118038419D01*
X160980000Y-73563523D02*
X161027619Y-73420666D01*
X161027619Y-73420666D02*
X161027619Y-73182571D01*
X161027619Y-73182571D02*
X160980000Y-73087333D01*
X160980000Y-73087333D02*
X160932380Y-73039714D01*
X160932380Y-73039714D02*
X160837142Y-72992095D01*
X160837142Y-72992095D02*
X160741904Y-72992095D01*
X160741904Y-72992095D02*
X160646666Y-73039714D01*
X160646666Y-73039714D02*
X160599047Y-73087333D01*
X160599047Y-73087333D02*
X160551428Y-73182571D01*
X160551428Y-73182571D02*
X160503809Y-73373047D01*
X160503809Y-73373047D02*
X160456190Y-73468285D01*
X160456190Y-73468285D02*
X160408571Y-73515904D01*
X160408571Y-73515904D02*
X160313333Y-73563523D01*
X160313333Y-73563523D02*
X160218095Y-73563523D01*
X160218095Y-73563523D02*
X160122857Y-73515904D01*
X160122857Y-73515904D02*
X160075238Y-73468285D01*
X160075238Y-73468285D02*
X160027619Y-73373047D01*
X160027619Y-73373047D02*
X160027619Y-73134952D01*
X160027619Y-73134952D02*
X160075238Y-72992095D01*
X160932380Y-71992095D02*
X160980000Y-72039714D01*
X160980000Y-72039714D02*
X161027619Y-72182571D01*
X161027619Y-72182571D02*
X161027619Y-72277809D01*
X161027619Y-72277809D02*
X160980000Y-72420666D01*
X160980000Y-72420666D02*
X160884761Y-72515904D01*
X160884761Y-72515904D02*
X160789523Y-72563523D01*
X160789523Y-72563523D02*
X160599047Y-72611142D01*
X160599047Y-72611142D02*
X160456190Y-72611142D01*
X160456190Y-72611142D02*
X160265714Y-72563523D01*
X160265714Y-72563523D02*
X160170476Y-72515904D01*
X160170476Y-72515904D02*
X160075238Y-72420666D01*
X160075238Y-72420666D02*
X160027619Y-72277809D01*
X160027619Y-72277809D02*
X160027619Y-72182571D01*
X160027619Y-72182571D02*
X160075238Y-72039714D01*
X160075238Y-72039714D02*
X160122857Y-71992095D01*
X161027619Y-71087333D02*
X161027619Y-71563523D01*
X161027619Y-71563523D02*
X160027619Y-71563523D01*
X146755904Y-78935238D02*
X146660666Y-78887619D01*
X146660666Y-78887619D02*
X146517809Y-78887619D01*
X146517809Y-78887619D02*
X146374952Y-78935238D01*
X146374952Y-78935238D02*
X146279714Y-79030476D01*
X146279714Y-79030476D02*
X146232095Y-79125714D01*
X146232095Y-79125714D02*
X146184476Y-79316190D01*
X146184476Y-79316190D02*
X146184476Y-79459047D01*
X146184476Y-79459047D02*
X146232095Y-79649523D01*
X146232095Y-79649523D02*
X146279714Y-79744761D01*
X146279714Y-79744761D02*
X146374952Y-79840000D01*
X146374952Y-79840000D02*
X146517809Y-79887619D01*
X146517809Y-79887619D02*
X146613047Y-79887619D01*
X146613047Y-79887619D02*
X146755904Y-79840000D01*
X146755904Y-79840000D02*
X146803523Y-79792380D01*
X146803523Y-79792380D02*
X146803523Y-79459047D01*
X146803523Y-79459047D02*
X146613047Y-79459047D01*
X147232095Y-79887619D02*
X147232095Y-78887619D01*
X147232095Y-78887619D02*
X147803523Y-79887619D01*
X147803523Y-79887619D02*
X147803523Y-78887619D01*
X148279714Y-79887619D02*
X148279714Y-78887619D01*
X148279714Y-78887619D02*
X148517809Y-78887619D01*
X148517809Y-78887619D02*
X148660666Y-78935238D01*
X148660666Y-78935238D02*
X148755904Y-79030476D01*
X148755904Y-79030476D02*
X148803523Y-79125714D01*
X148803523Y-79125714D02*
X148851142Y-79316190D01*
X148851142Y-79316190D02*
X148851142Y-79459047D01*
X148851142Y-79459047D02*
X148803523Y-79649523D01*
X148803523Y-79649523D02*
X148755904Y-79744761D01*
X148755904Y-79744761D02*
X148660666Y-79840000D01*
X148660666Y-79840000D02*
X148517809Y-79887619D01*
X148517809Y-79887619D02*
X148279714Y-79887619D01*
X138640000Y-113220476D02*
X138592380Y-113363333D01*
X138592380Y-113363333D02*
X138592380Y-113601428D01*
X138592380Y-113601428D02*
X138640000Y-113696666D01*
X138640000Y-113696666D02*
X138687619Y-113744285D01*
X138687619Y-113744285D02*
X138782857Y-113791904D01*
X138782857Y-113791904D02*
X138878095Y-113791904D01*
X138878095Y-113791904D02*
X138973333Y-113744285D01*
X138973333Y-113744285D02*
X139020952Y-113696666D01*
X139020952Y-113696666D02*
X139068571Y-113601428D01*
X139068571Y-113601428D02*
X139116190Y-113410952D01*
X139116190Y-113410952D02*
X139163809Y-113315714D01*
X139163809Y-113315714D02*
X139211428Y-113268095D01*
X139211428Y-113268095D02*
X139306666Y-113220476D01*
X139306666Y-113220476D02*
X139401904Y-113220476D01*
X139401904Y-113220476D02*
X139497142Y-113268095D01*
X139497142Y-113268095D02*
X139544761Y-113315714D01*
X139544761Y-113315714D02*
X139592380Y-113410952D01*
X139592380Y-113410952D02*
X139592380Y-113649047D01*
X139592380Y-113649047D02*
X139544761Y-113791904D01*
X138592380Y-114220476D02*
X139592380Y-114220476D01*
X139592380Y-114220476D02*
X139592380Y-114458571D01*
X139592380Y-114458571D02*
X139544761Y-114601428D01*
X139544761Y-114601428D02*
X139449523Y-114696666D01*
X139449523Y-114696666D02*
X139354285Y-114744285D01*
X139354285Y-114744285D02*
X139163809Y-114791904D01*
X139163809Y-114791904D02*
X139020952Y-114791904D01*
X139020952Y-114791904D02*
X138830476Y-114744285D01*
X138830476Y-114744285D02*
X138735238Y-114696666D01*
X138735238Y-114696666D02*
X138640000Y-114601428D01*
X138640000Y-114601428D02*
X138592380Y-114458571D01*
X138592380Y-114458571D02*
X138592380Y-114220476D01*
X138878095Y-115172857D02*
X138878095Y-115649047D01*
X138592380Y-115077619D02*
X139592380Y-115410952D01*
X139592380Y-115410952D02*
X138592380Y-115744285D01*
X134544761Y-113791904D02*
X134592380Y-113696666D01*
X134592380Y-113696666D02*
X134592380Y-113553809D01*
X134592380Y-113553809D02*
X134544761Y-113410952D01*
X134544761Y-113410952D02*
X134449523Y-113315714D01*
X134449523Y-113315714D02*
X134354285Y-113268095D01*
X134354285Y-113268095D02*
X134163809Y-113220476D01*
X134163809Y-113220476D02*
X134020952Y-113220476D01*
X134020952Y-113220476D02*
X133830476Y-113268095D01*
X133830476Y-113268095D02*
X133735238Y-113315714D01*
X133735238Y-113315714D02*
X133640000Y-113410952D01*
X133640000Y-113410952D02*
X133592380Y-113553809D01*
X133592380Y-113553809D02*
X133592380Y-113649047D01*
X133592380Y-113649047D02*
X133640000Y-113791904D01*
X133640000Y-113791904D02*
X133687619Y-113839523D01*
X133687619Y-113839523D02*
X134020952Y-113839523D01*
X134020952Y-113839523D02*
X134020952Y-113649047D01*
X133592380Y-114268095D02*
X134592380Y-114268095D01*
X134592380Y-114268095D02*
X133592380Y-114839523D01*
X133592380Y-114839523D02*
X134592380Y-114839523D01*
X133592380Y-115315714D02*
X134592380Y-115315714D01*
X134592380Y-115315714D02*
X134592380Y-115553809D01*
X134592380Y-115553809D02*
X134544761Y-115696666D01*
X134544761Y-115696666D02*
X134449523Y-115791904D01*
X134449523Y-115791904D02*
X134354285Y-115839523D01*
X134354285Y-115839523D02*
X134163809Y-115887142D01*
X134163809Y-115887142D02*
X134020952Y-115887142D01*
X134020952Y-115887142D02*
X133830476Y-115839523D01*
X133830476Y-115839523D02*
X133735238Y-115791904D01*
X133735238Y-115791904D02*
X133640000Y-115696666D01*
X133640000Y-115696666D02*
X133592380Y-115553809D01*
X133592380Y-115553809D02*
X133592380Y-115315714D01*
X137092380Y-113172857D02*
X137092380Y-113791904D01*
X137092380Y-113791904D02*
X136711428Y-113458571D01*
X136711428Y-113458571D02*
X136711428Y-113601428D01*
X136711428Y-113601428D02*
X136663809Y-113696666D01*
X136663809Y-113696666D02*
X136616190Y-113744285D01*
X136616190Y-113744285D02*
X136520952Y-113791904D01*
X136520952Y-113791904D02*
X136282857Y-113791904D01*
X136282857Y-113791904D02*
X136187619Y-113744285D01*
X136187619Y-113744285D02*
X136140000Y-113696666D01*
X136140000Y-113696666D02*
X136092380Y-113601428D01*
X136092380Y-113601428D02*
X136092380Y-113315714D01*
X136092380Y-113315714D02*
X136140000Y-113220476D01*
X136140000Y-113220476D02*
X136187619Y-113172857D01*
X136187619Y-114220476D02*
X136140000Y-114268095D01*
X136140000Y-114268095D02*
X136092380Y-114220476D01*
X136092380Y-114220476D02*
X136140000Y-114172857D01*
X136140000Y-114172857D02*
X136187619Y-114220476D01*
X136187619Y-114220476D02*
X136092380Y-114220476D01*
X137092380Y-114601428D02*
X137092380Y-115220475D01*
X137092380Y-115220475D02*
X136711428Y-114887142D01*
X136711428Y-114887142D02*
X136711428Y-115029999D01*
X136711428Y-115029999D02*
X136663809Y-115125237D01*
X136663809Y-115125237D02*
X136616190Y-115172856D01*
X136616190Y-115172856D02*
X136520952Y-115220475D01*
X136520952Y-115220475D02*
X136282857Y-115220475D01*
X136282857Y-115220475D02*
X136187619Y-115172856D01*
X136187619Y-115172856D02*
X136140000Y-115125237D01*
X136140000Y-115125237D02*
X136092380Y-115029999D01*
X136092380Y-115029999D02*
X136092380Y-114744285D01*
X136092380Y-114744285D02*
X136140000Y-114649047D01*
X136140000Y-114649047D02*
X136187619Y-114601428D01*
X141140000Y-113220476D02*
X141092380Y-113363333D01*
X141092380Y-113363333D02*
X141092380Y-113601428D01*
X141092380Y-113601428D02*
X141140000Y-113696666D01*
X141140000Y-113696666D02*
X141187619Y-113744285D01*
X141187619Y-113744285D02*
X141282857Y-113791904D01*
X141282857Y-113791904D02*
X141378095Y-113791904D01*
X141378095Y-113791904D02*
X141473333Y-113744285D01*
X141473333Y-113744285D02*
X141520952Y-113696666D01*
X141520952Y-113696666D02*
X141568571Y-113601428D01*
X141568571Y-113601428D02*
X141616190Y-113410952D01*
X141616190Y-113410952D02*
X141663809Y-113315714D01*
X141663809Y-113315714D02*
X141711428Y-113268095D01*
X141711428Y-113268095D02*
X141806666Y-113220476D01*
X141806666Y-113220476D02*
X141901904Y-113220476D01*
X141901904Y-113220476D02*
X141997142Y-113268095D01*
X141997142Y-113268095D02*
X142044761Y-113315714D01*
X142044761Y-113315714D02*
X142092380Y-113410952D01*
X142092380Y-113410952D02*
X142092380Y-113649047D01*
X142092380Y-113649047D02*
X142044761Y-113791904D01*
X141187619Y-114791904D02*
X141140000Y-114744285D01*
X141140000Y-114744285D02*
X141092380Y-114601428D01*
X141092380Y-114601428D02*
X141092380Y-114506190D01*
X141092380Y-114506190D02*
X141140000Y-114363333D01*
X141140000Y-114363333D02*
X141235238Y-114268095D01*
X141235238Y-114268095D02*
X141330476Y-114220476D01*
X141330476Y-114220476D02*
X141520952Y-114172857D01*
X141520952Y-114172857D02*
X141663809Y-114172857D01*
X141663809Y-114172857D02*
X141854285Y-114220476D01*
X141854285Y-114220476D02*
X141949523Y-114268095D01*
X141949523Y-114268095D02*
X142044761Y-114363333D01*
X142044761Y-114363333D02*
X142092380Y-114506190D01*
X142092380Y-114506190D02*
X142092380Y-114601428D01*
X142092380Y-114601428D02*
X142044761Y-114744285D01*
X142044761Y-114744285D02*
X141997142Y-114791904D01*
X141092380Y-115696666D02*
X141092380Y-115220476D01*
X141092380Y-115220476D02*
X142092380Y-115220476D01*
X158440000Y-73563523D02*
X158487619Y-73420666D01*
X158487619Y-73420666D02*
X158487619Y-73182571D01*
X158487619Y-73182571D02*
X158440000Y-73087333D01*
X158440000Y-73087333D02*
X158392380Y-73039714D01*
X158392380Y-73039714D02*
X158297142Y-72992095D01*
X158297142Y-72992095D02*
X158201904Y-72992095D01*
X158201904Y-72992095D02*
X158106666Y-73039714D01*
X158106666Y-73039714D02*
X158059047Y-73087333D01*
X158059047Y-73087333D02*
X158011428Y-73182571D01*
X158011428Y-73182571D02*
X157963809Y-73373047D01*
X157963809Y-73373047D02*
X157916190Y-73468285D01*
X157916190Y-73468285D02*
X157868571Y-73515904D01*
X157868571Y-73515904D02*
X157773333Y-73563523D01*
X157773333Y-73563523D02*
X157678095Y-73563523D01*
X157678095Y-73563523D02*
X157582857Y-73515904D01*
X157582857Y-73515904D02*
X157535238Y-73468285D01*
X157535238Y-73468285D02*
X157487619Y-73373047D01*
X157487619Y-73373047D02*
X157487619Y-73134952D01*
X157487619Y-73134952D02*
X157535238Y-72992095D01*
X158487619Y-72563523D02*
X157487619Y-72563523D01*
X157487619Y-72563523D02*
X157487619Y-72325428D01*
X157487619Y-72325428D02*
X157535238Y-72182571D01*
X157535238Y-72182571D02*
X157630476Y-72087333D01*
X157630476Y-72087333D02*
X157725714Y-72039714D01*
X157725714Y-72039714D02*
X157916190Y-71992095D01*
X157916190Y-71992095D02*
X158059047Y-71992095D01*
X158059047Y-71992095D02*
X158249523Y-72039714D01*
X158249523Y-72039714D02*
X158344761Y-72087333D01*
X158344761Y-72087333D02*
X158440000Y-72182571D01*
X158440000Y-72182571D02*
X158487619Y-72325428D01*
X158487619Y-72325428D02*
X158487619Y-72563523D01*
X158201904Y-71611142D02*
X158201904Y-71134952D01*
X158487619Y-71706380D02*
X157487619Y-71373047D01*
X157487619Y-71373047D02*
X158487619Y-71039714D01*
X145238095Y-117647809D02*
X145571428Y-117647809D01*
X145714285Y-118171619D02*
X145238095Y-118171619D01*
X145238095Y-118171619D02*
X145238095Y-117171619D01*
X145238095Y-117171619D02*
X145714285Y-117171619D01*
X146142857Y-117504952D02*
X146142857Y-118171619D01*
X146142857Y-117600190D02*
X146190476Y-117552571D01*
X146190476Y-117552571D02*
X146285714Y-117504952D01*
X146285714Y-117504952D02*
X146428571Y-117504952D01*
X146428571Y-117504952D02*
X146523809Y-117552571D01*
X146523809Y-117552571D02*
X146571428Y-117647809D01*
X146571428Y-117647809D02*
X146571428Y-118171619D01*
X146145238Y-76331619D02*
X146716666Y-76331619D01*
X146430952Y-77331619D02*
X146430952Y-76331619D01*
X146954762Y-76331619D02*
X147621428Y-77331619D01*
X147621428Y-76331619D02*
X146954762Y-77331619D01*
X154947619Y-73611142D02*
X154947619Y-72992095D01*
X154947619Y-72992095D02*
X155328571Y-73325428D01*
X155328571Y-73325428D02*
X155328571Y-73182571D01*
X155328571Y-73182571D02*
X155376190Y-73087333D01*
X155376190Y-73087333D02*
X155423809Y-73039714D01*
X155423809Y-73039714D02*
X155519047Y-72992095D01*
X155519047Y-72992095D02*
X155757142Y-72992095D01*
X155757142Y-72992095D02*
X155852380Y-73039714D01*
X155852380Y-73039714D02*
X155900000Y-73087333D01*
X155900000Y-73087333D02*
X155947619Y-73182571D01*
X155947619Y-73182571D02*
X155947619Y-73468285D01*
X155947619Y-73468285D02*
X155900000Y-73563523D01*
X155900000Y-73563523D02*
X155852380Y-73611142D01*
X155852380Y-72563523D02*
X155900000Y-72515904D01*
X155900000Y-72515904D02*
X155947619Y-72563523D01*
X155947619Y-72563523D02*
X155900000Y-72611142D01*
X155900000Y-72611142D02*
X155852380Y-72563523D01*
X155852380Y-72563523D02*
X155947619Y-72563523D01*
X154947619Y-72182571D02*
X154947619Y-71563524D01*
X154947619Y-71563524D02*
X155328571Y-71896857D01*
X155328571Y-71896857D02*
X155328571Y-71754000D01*
X155328571Y-71754000D02*
X155376190Y-71658762D01*
X155376190Y-71658762D02*
X155423809Y-71611143D01*
X155423809Y-71611143D02*
X155519047Y-71563524D01*
X155519047Y-71563524D02*
X155757142Y-71563524D01*
X155757142Y-71563524D02*
X155852380Y-71611143D01*
X155852380Y-71611143D02*
X155900000Y-71658762D01*
X155900000Y-71658762D02*
X155947619Y-71754000D01*
X155947619Y-71754000D02*
X155947619Y-72039714D01*
X155947619Y-72039714D02*
X155900000Y-72134952D01*
X155900000Y-72134952D02*
X155852380Y-72182571D01*
X165155238Y-72992095D02*
X165107619Y-73087333D01*
X165107619Y-73087333D02*
X165107619Y-73230190D01*
X165107619Y-73230190D02*
X165155238Y-73373047D01*
X165155238Y-73373047D02*
X165250476Y-73468285D01*
X165250476Y-73468285D02*
X165345714Y-73515904D01*
X165345714Y-73515904D02*
X165536190Y-73563523D01*
X165536190Y-73563523D02*
X165679047Y-73563523D01*
X165679047Y-73563523D02*
X165869523Y-73515904D01*
X165869523Y-73515904D02*
X165964761Y-73468285D01*
X165964761Y-73468285D02*
X166060000Y-73373047D01*
X166060000Y-73373047D02*
X166107619Y-73230190D01*
X166107619Y-73230190D02*
X166107619Y-73134952D01*
X166107619Y-73134952D02*
X166060000Y-72992095D01*
X166060000Y-72992095D02*
X166012380Y-72944476D01*
X166012380Y-72944476D02*
X165679047Y-72944476D01*
X165679047Y-72944476D02*
X165679047Y-73134952D01*
X166107619Y-72515904D02*
X165107619Y-72515904D01*
X165107619Y-72515904D02*
X166107619Y-71944476D01*
X166107619Y-71944476D02*
X165107619Y-71944476D01*
X166107619Y-71468285D02*
X165107619Y-71468285D01*
X165107619Y-71468285D02*
X165107619Y-71230190D01*
X165107619Y-71230190D02*
X165155238Y-71087333D01*
X165155238Y-71087333D02*
X165250476Y-70992095D01*
X165250476Y-70992095D02*
X165345714Y-70944476D01*
X165345714Y-70944476D02*
X165536190Y-70896857D01*
X165536190Y-70896857D02*
X165679047Y-70896857D01*
X165679047Y-70896857D02*
X165869523Y-70944476D01*
X165869523Y-70944476D02*
X165964761Y-70992095D01*
X165964761Y-70992095D02*
X166060000Y-71087333D01*
X166060000Y-71087333D02*
X166107619Y-71230190D01*
X166107619Y-71230190D02*
X166107619Y-71468285D01*
X163567619Y-73515904D02*
X162567619Y-73515904D01*
X162567619Y-73515904D02*
X163567619Y-72944476D01*
X163567619Y-72944476D02*
X162567619Y-72944476D01*
X163472380Y-71896857D02*
X163520000Y-71944476D01*
X163520000Y-71944476D02*
X163567619Y-72087333D01*
X163567619Y-72087333D02*
X163567619Y-72182571D01*
X163567619Y-72182571D02*
X163520000Y-72325428D01*
X163520000Y-72325428D02*
X163424761Y-72420666D01*
X163424761Y-72420666D02*
X163329523Y-72468285D01*
X163329523Y-72468285D02*
X163139047Y-72515904D01*
X163139047Y-72515904D02*
X162996190Y-72515904D01*
X162996190Y-72515904D02*
X162805714Y-72468285D01*
X162805714Y-72468285D02*
X162710476Y-72420666D01*
X162710476Y-72420666D02*
X162615238Y-72325428D01*
X162615238Y-72325428D02*
X162567619Y-72182571D01*
X162567619Y-72182571D02*
X162567619Y-72087333D01*
X162567619Y-72087333D02*
X162615238Y-71944476D01*
X162615238Y-71944476D02*
X162662857Y-71896857D01*
X156127753Y-75860219D02*
X156127753Y-74860219D01*
X156127753Y-74860219D02*
X156365848Y-74860219D01*
X156365848Y-74860219D02*
X156508705Y-74907838D01*
X156508705Y-74907838D02*
X156603943Y-75003076D01*
X156603943Y-75003076D02*
X156651562Y-75098314D01*
X156651562Y-75098314D02*
X156699181Y-75288790D01*
X156699181Y-75288790D02*
X156699181Y-75431647D01*
X156699181Y-75431647D02*
X156651562Y-75622123D01*
X156651562Y-75622123D02*
X156603943Y-75717361D01*
X156603943Y-75717361D02*
X156508705Y-75812600D01*
X156508705Y-75812600D02*
X156365848Y-75860219D01*
X156365848Y-75860219D02*
X156127753Y-75860219D01*
X157080134Y-75812600D02*
X157222991Y-75860219D01*
X157222991Y-75860219D02*
X157461086Y-75860219D01*
X157461086Y-75860219D02*
X157556324Y-75812600D01*
X157556324Y-75812600D02*
X157603943Y-75764980D01*
X157603943Y-75764980D02*
X157651562Y-75669742D01*
X157651562Y-75669742D02*
X157651562Y-75574504D01*
X157651562Y-75574504D02*
X157603943Y-75479266D01*
X157603943Y-75479266D02*
X157556324Y-75431647D01*
X157556324Y-75431647D02*
X157461086Y-75384028D01*
X157461086Y-75384028D02*
X157270610Y-75336409D01*
X157270610Y-75336409D02*
X157175372Y-75288790D01*
X157175372Y-75288790D02*
X157127753Y-75241171D01*
X157127753Y-75241171D02*
X157080134Y-75145933D01*
X157080134Y-75145933D02*
X157080134Y-75050695D01*
X157080134Y-75050695D02*
X157127753Y-74955457D01*
X157127753Y-74955457D02*
X157175372Y-74907838D01*
X157175372Y-74907838D02*
X157270610Y-74860219D01*
X157270610Y-74860219D02*
X157508705Y-74860219D01*
X157508705Y-74860219D02*
X157651562Y-74907838D01*
X157984896Y-74860219D02*
X158603943Y-74860219D01*
X158603943Y-74860219D02*
X158270610Y-75241171D01*
X158270610Y-75241171D02*
X158413467Y-75241171D01*
X158413467Y-75241171D02*
X158508705Y-75288790D01*
X158508705Y-75288790D02*
X158556324Y-75336409D01*
X158556324Y-75336409D02*
X158603943Y-75431647D01*
X158603943Y-75431647D02*
X158603943Y-75669742D01*
X158603943Y-75669742D02*
X158556324Y-75764980D01*
X158556324Y-75764980D02*
X158508705Y-75812600D01*
X158508705Y-75812600D02*
X158413467Y-75860219D01*
X158413467Y-75860219D02*
X158127753Y-75860219D01*
X158127753Y-75860219D02*
X158032515Y-75812600D01*
X158032515Y-75812600D02*
X157984896Y-75764980D01*
X158984896Y-74955457D02*
X159032515Y-74907838D01*
X159032515Y-74907838D02*
X159127753Y-74860219D01*
X159127753Y-74860219D02*
X159365848Y-74860219D01*
X159365848Y-74860219D02*
X159461086Y-74907838D01*
X159461086Y-74907838D02*
X159508705Y-74955457D01*
X159508705Y-74955457D02*
X159556324Y-75050695D01*
X159556324Y-75050695D02*
X159556324Y-75145933D01*
X159556324Y-75145933D02*
X159508705Y-75288790D01*
X159508705Y-75288790D02*
X158937277Y-75860219D01*
X158937277Y-75860219D02*
X159556324Y-75860219D01*
X159889658Y-74860219D02*
X160508705Y-74860219D01*
X160508705Y-74860219D02*
X160175372Y-75241171D01*
X160175372Y-75241171D02*
X160318229Y-75241171D01*
X160318229Y-75241171D02*
X160413467Y-75288790D01*
X160413467Y-75288790D02*
X160461086Y-75336409D01*
X160461086Y-75336409D02*
X160508705Y-75431647D01*
X160508705Y-75431647D02*
X160508705Y-75669742D01*
X160508705Y-75669742D02*
X160461086Y-75764980D01*
X160461086Y-75764980D02*
X160413467Y-75812600D01*
X160413467Y-75812600D02*
X160318229Y-75860219D01*
X160318229Y-75860219D02*
X160032515Y-75860219D01*
X160032515Y-75860219D02*
X159937277Y-75812600D01*
X159937277Y-75812600D02*
X159889658Y-75764980D01*
X161461086Y-75860219D02*
X160889658Y-75860219D01*
X161175372Y-75860219D02*
X161175372Y-74860219D01*
X161175372Y-74860219D02*
X161080134Y-75003076D01*
X161080134Y-75003076D02*
X160984896Y-75098314D01*
X160984896Y-75098314D02*
X160889658Y-75145933D01*
X161651563Y-75955457D02*
X162413467Y-75955457D01*
X162651563Y-75860219D02*
X162651563Y-75193552D01*
X162651563Y-75288790D02*
X162699182Y-75241171D01*
X162699182Y-75241171D02*
X162794420Y-75193552D01*
X162794420Y-75193552D02*
X162937277Y-75193552D01*
X162937277Y-75193552D02*
X163032515Y-75241171D01*
X163032515Y-75241171D02*
X163080134Y-75336409D01*
X163080134Y-75336409D02*
X163080134Y-75860219D01*
X163080134Y-75336409D02*
X163127753Y-75241171D01*
X163127753Y-75241171D02*
X163222991Y-75193552D01*
X163222991Y-75193552D02*
X163365848Y-75193552D01*
X163365848Y-75193552D02*
X163461087Y-75241171D01*
X163461087Y-75241171D02*
X163508706Y-75336409D01*
X163508706Y-75336409D02*
X163508706Y-75860219D01*
X163984896Y-75860219D02*
X163984896Y-75193552D01*
X163984896Y-74860219D02*
X163937277Y-74907838D01*
X163937277Y-74907838D02*
X163984896Y-74955457D01*
X163984896Y-74955457D02*
X164032515Y-74907838D01*
X164032515Y-74907838D02*
X163984896Y-74860219D01*
X163984896Y-74860219D02*
X163984896Y-74955457D01*
X164461086Y-75193552D02*
X164461086Y-75860219D01*
X164461086Y-75288790D02*
X164508705Y-75241171D01*
X164508705Y-75241171D02*
X164603943Y-75193552D01*
X164603943Y-75193552D02*
X164746800Y-75193552D01*
X164746800Y-75193552D02*
X164842038Y-75241171D01*
X164842038Y-75241171D02*
X164889657Y-75336409D01*
X164889657Y-75336409D02*
X164889657Y-75860219D01*
X165365848Y-75860219D02*
X165365848Y-75193552D01*
X165365848Y-74860219D02*
X165318229Y-74907838D01*
X165318229Y-74907838D02*
X165365848Y-74955457D01*
X165365848Y-74955457D02*
X165413467Y-74907838D01*
X165413467Y-74907838D02*
X165365848Y-74860219D01*
X165365848Y-74860219D02*
X165365848Y-74955457D01*
%TO.C,C5*%
X112527333Y-68365380D02*
X112479714Y-68413000D01*
X112479714Y-68413000D02*
X112336857Y-68460619D01*
X112336857Y-68460619D02*
X112241619Y-68460619D01*
X112241619Y-68460619D02*
X112098762Y-68413000D01*
X112098762Y-68413000D02*
X112003524Y-68317761D01*
X112003524Y-68317761D02*
X111955905Y-68222523D01*
X111955905Y-68222523D02*
X111908286Y-68032047D01*
X111908286Y-68032047D02*
X111908286Y-67889190D01*
X111908286Y-67889190D02*
X111955905Y-67698714D01*
X111955905Y-67698714D02*
X112003524Y-67603476D01*
X112003524Y-67603476D02*
X112098762Y-67508238D01*
X112098762Y-67508238D02*
X112241619Y-67460619D01*
X112241619Y-67460619D02*
X112336857Y-67460619D01*
X112336857Y-67460619D02*
X112479714Y-67508238D01*
X112479714Y-67508238D02*
X112527333Y-67555857D01*
X113432095Y-67460619D02*
X112955905Y-67460619D01*
X112955905Y-67460619D02*
X112908286Y-67936809D01*
X112908286Y-67936809D02*
X112955905Y-67889190D01*
X112955905Y-67889190D02*
X113051143Y-67841571D01*
X113051143Y-67841571D02*
X113289238Y-67841571D01*
X113289238Y-67841571D02*
X113384476Y-67889190D01*
X113384476Y-67889190D02*
X113432095Y-67936809D01*
X113432095Y-67936809D02*
X113479714Y-68032047D01*
X113479714Y-68032047D02*
X113479714Y-68270142D01*
X113479714Y-68270142D02*
X113432095Y-68365380D01*
X113432095Y-68365380D02*
X113384476Y-68413000D01*
X113384476Y-68413000D02*
X113289238Y-68460619D01*
X113289238Y-68460619D02*
X113051143Y-68460619D01*
X113051143Y-68460619D02*
X112955905Y-68413000D01*
X112955905Y-68413000D02*
X112908286Y-68365380D01*
%TO.C,J8*%
X150359666Y-68416619D02*
X150359666Y-69130904D01*
X150359666Y-69130904D02*
X150312047Y-69273761D01*
X150312047Y-69273761D02*
X150216809Y-69369000D01*
X150216809Y-69369000D02*
X150073952Y-69416619D01*
X150073952Y-69416619D02*
X149978714Y-69416619D01*
X150978714Y-68845190D02*
X150883476Y-68797571D01*
X150883476Y-68797571D02*
X150835857Y-68749952D01*
X150835857Y-68749952D02*
X150788238Y-68654714D01*
X150788238Y-68654714D02*
X150788238Y-68607095D01*
X150788238Y-68607095D02*
X150835857Y-68511857D01*
X150835857Y-68511857D02*
X150883476Y-68464238D01*
X150883476Y-68464238D02*
X150978714Y-68416619D01*
X150978714Y-68416619D02*
X151169190Y-68416619D01*
X151169190Y-68416619D02*
X151264428Y-68464238D01*
X151264428Y-68464238D02*
X151312047Y-68511857D01*
X151312047Y-68511857D02*
X151359666Y-68607095D01*
X151359666Y-68607095D02*
X151359666Y-68654714D01*
X151359666Y-68654714D02*
X151312047Y-68749952D01*
X151312047Y-68749952D02*
X151264428Y-68797571D01*
X151264428Y-68797571D02*
X151169190Y-68845190D01*
X151169190Y-68845190D02*
X150978714Y-68845190D01*
X150978714Y-68845190D02*
X150883476Y-68892809D01*
X150883476Y-68892809D02*
X150835857Y-68940428D01*
X150835857Y-68940428D02*
X150788238Y-69035666D01*
X150788238Y-69035666D02*
X150788238Y-69226142D01*
X150788238Y-69226142D02*
X150835857Y-69321380D01*
X150835857Y-69321380D02*
X150883476Y-69369000D01*
X150883476Y-69369000D02*
X150978714Y-69416619D01*
X150978714Y-69416619D02*
X151169190Y-69416619D01*
X151169190Y-69416619D02*
X151264428Y-69369000D01*
X151264428Y-69369000D02*
X151312047Y-69321380D01*
X151312047Y-69321380D02*
X151359666Y-69226142D01*
X151359666Y-69226142D02*
X151359666Y-69035666D01*
X151359666Y-69035666D02*
X151312047Y-68940428D01*
X151312047Y-68940428D02*
X151264428Y-68892809D01*
X151264428Y-68892809D02*
X151169190Y-68845190D01*
%TO.C,U1*%
X156183095Y-96940619D02*
X156183095Y-97750142D01*
X156183095Y-97750142D02*
X156230714Y-97845380D01*
X156230714Y-97845380D02*
X156278333Y-97893000D01*
X156278333Y-97893000D02*
X156373571Y-97940619D01*
X156373571Y-97940619D02*
X156564047Y-97940619D01*
X156564047Y-97940619D02*
X156659285Y-97893000D01*
X156659285Y-97893000D02*
X156706904Y-97845380D01*
X156706904Y-97845380D02*
X156754523Y-97750142D01*
X156754523Y-97750142D02*
X156754523Y-96940619D01*
X157754523Y-97940619D02*
X157183095Y-97940619D01*
X157468809Y-97940619D02*
X157468809Y-96940619D01*
X157468809Y-96940619D02*
X157373571Y-97083476D01*
X157373571Y-97083476D02*
X157278333Y-97178714D01*
X157278333Y-97178714D02*
X157183095Y-97226333D01*
X152183094Y-90936904D02*
X152659284Y-90936904D01*
X152087856Y-91222619D02*
X152421189Y-90222619D01*
X152421189Y-90222619D02*
X152754522Y-91222619D01*
X153087856Y-90555952D02*
X153087856Y-91222619D01*
X153087856Y-90651190D02*
X153135475Y-90603571D01*
X153135475Y-90603571D02*
X153230713Y-90555952D01*
X153230713Y-90555952D02*
X153373570Y-90555952D01*
X153373570Y-90555952D02*
X153468808Y-90603571D01*
X153468808Y-90603571D02*
X153516427Y-90698809D01*
X153516427Y-90698809D02*
X153516427Y-91222619D01*
X153849761Y-90555952D02*
X154230713Y-90555952D01*
X153992618Y-90222619D02*
X153992618Y-91079761D01*
X153992618Y-91079761D02*
X154040237Y-91175000D01*
X154040237Y-91175000D02*
X154135475Y-91222619D01*
X154135475Y-91222619D02*
X154230713Y-91222619D01*
X154944999Y-91175000D02*
X154849761Y-91222619D01*
X154849761Y-91222619D02*
X154659285Y-91222619D01*
X154659285Y-91222619D02*
X154564047Y-91175000D01*
X154564047Y-91175000D02*
X154516428Y-91079761D01*
X154516428Y-91079761D02*
X154516428Y-90698809D01*
X154516428Y-90698809D02*
X154564047Y-90603571D01*
X154564047Y-90603571D02*
X154659285Y-90555952D01*
X154659285Y-90555952D02*
X154849761Y-90555952D01*
X154849761Y-90555952D02*
X154944999Y-90603571D01*
X154944999Y-90603571D02*
X154992618Y-90698809D01*
X154992618Y-90698809D02*
X154992618Y-90794047D01*
X154992618Y-90794047D02*
X154516428Y-90889285D01*
X155421190Y-90555952D02*
X155421190Y-91222619D01*
X155421190Y-90651190D02*
X155468809Y-90603571D01*
X155468809Y-90603571D02*
X155564047Y-90555952D01*
X155564047Y-90555952D02*
X155706904Y-90555952D01*
X155706904Y-90555952D02*
X155802142Y-90603571D01*
X155802142Y-90603571D02*
X155849761Y-90698809D01*
X155849761Y-90698809D02*
X155849761Y-91222619D01*
X156325952Y-90555952D02*
X156325952Y-91222619D01*
X156325952Y-90651190D02*
X156373571Y-90603571D01*
X156373571Y-90603571D02*
X156468809Y-90555952D01*
X156468809Y-90555952D02*
X156611666Y-90555952D01*
X156611666Y-90555952D02*
X156706904Y-90603571D01*
X156706904Y-90603571D02*
X156754523Y-90698809D01*
X156754523Y-90698809D02*
X156754523Y-91222619D01*
X157659285Y-91222619D02*
X157659285Y-90698809D01*
X157659285Y-90698809D02*
X157611666Y-90603571D01*
X157611666Y-90603571D02*
X157516428Y-90555952D01*
X157516428Y-90555952D02*
X157325952Y-90555952D01*
X157325952Y-90555952D02*
X157230714Y-90603571D01*
X157659285Y-91175000D02*
X157564047Y-91222619D01*
X157564047Y-91222619D02*
X157325952Y-91222619D01*
X157325952Y-91222619D02*
X157230714Y-91175000D01*
X157230714Y-91175000D02*
X157183095Y-91079761D01*
X157183095Y-91079761D02*
X157183095Y-90984523D01*
X157183095Y-90984523D02*
X157230714Y-90889285D01*
X157230714Y-90889285D02*
X157325952Y-90841666D01*
X157325952Y-90841666D02*
X157564047Y-90841666D01*
X157564047Y-90841666D02*
X157659285Y-90794047D01*
X158849762Y-90936904D02*
X159325952Y-90936904D01*
X158754524Y-91222619D02*
X159087857Y-90222619D01*
X159087857Y-90222619D02*
X159421190Y-91222619D01*
X159754524Y-91222619D02*
X159754524Y-90555952D01*
X159754524Y-90746428D02*
X159802143Y-90651190D01*
X159802143Y-90651190D02*
X159849762Y-90603571D01*
X159849762Y-90603571D02*
X159945000Y-90555952D01*
X159945000Y-90555952D02*
X160040238Y-90555952D01*
X160754524Y-91175000D02*
X160659286Y-91222619D01*
X160659286Y-91222619D02*
X160468810Y-91222619D01*
X160468810Y-91222619D02*
X160373572Y-91175000D01*
X160373572Y-91175000D02*
X160325953Y-91079761D01*
X160325953Y-91079761D02*
X160325953Y-90698809D01*
X160325953Y-90698809D02*
X160373572Y-90603571D01*
X160373572Y-90603571D02*
X160468810Y-90555952D01*
X160468810Y-90555952D02*
X160659286Y-90555952D01*
X160659286Y-90555952D02*
X160754524Y-90603571D01*
X160754524Y-90603571D02*
X160802143Y-90698809D01*
X160802143Y-90698809D02*
X160802143Y-90794047D01*
X160802143Y-90794047D02*
X160325953Y-90889285D01*
X161659286Y-91222619D02*
X161659286Y-90698809D01*
X161659286Y-90698809D02*
X161611667Y-90603571D01*
X161611667Y-90603571D02*
X161516429Y-90555952D01*
X161516429Y-90555952D02*
X161325953Y-90555952D01*
X161325953Y-90555952D02*
X161230715Y-90603571D01*
X161659286Y-91175000D02*
X161564048Y-91222619D01*
X161564048Y-91222619D02*
X161325953Y-91222619D01*
X161325953Y-91222619D02*
X161230715Y-91175000D01*
X161230715Y-91175000D02*
X161183096Y-91079761D01*
X161183096Y-91079761D02*
X161183096Y-90984523D01*
X161183096Y-90984523D02*
X161230715Y-90889285D01*
X161230715Y-90889285D02*
X161325953Y-90841666D01*
X161325953Y-90841666D02*
X161564048Y-90841666D01*
X161564048Y-90841666D02*
X161659286Y-90794047D01*
%TO.C,SW2*%
X160666667Y-122413000D02*
X160809524Y-122460619D01*
X160809524Y-122460619D02*
X161047619Y-122460619D01*
X161047619Y-122460619D02*
X161142857Y-122413000D01*
X161142857Y-122413000D02*
X161190476Y-122365380D01*
X161190476Y-122365380D02*
X161238095Y-122270142D01*
X161238095Y-122270142D02*
X161238095Y-122174904D01*
X161238095Y-122174904D02*
X161190476Y-122079666D01*
X161190476Y-122079666D02*
X161142857Y-122032047D01*
X161142857Y-122032047D02*
X161047619Y-121984428D01*
X161047619Y-121984428D02*
X160857143Y-121936809D01*
X160857143Y-121936809D02*
X160761905Y-121889190D01*
X160761905Y-121889190D02*
X160714286Y-121841571D01*
X160714286Y-121841571D02*
X160666667Y-121746333D01*
X160666667Y-121746333D02*
X160666667Y-121651095D01*
X160666667Y-121651095D02*
X160714286Y-121555857D01*
X160714286Y-121555857D02*
X160761905Y-121508238D01*
X160761905Y-121508238D02*
X160857143Y-121460619D01*
X160857143Y-121460619D02*
X161095238Y-121460619D01*
X161095238Y-121460619D02*
X161238095Y-121508238D01*
X161571429Y-121460619D02*
X161809524Y-122460619D01*
X161809524Y-122460619D02*
X162000000Y-121746333D01*
X162000000Y-121746333D02*
X162190476Y-122460619D01*
X162190476Y-122460619D02*
X162428572Y-121460619D01*
X162761905Y-121555857D02*
X162809524Y-121508238D01*
X162809524Y-121508238D02*
X162904762Y-121460619D01*
X162904762Y-121460619D02*
X163142857Y-121460619D01*
X163142857Y-121460619D02*
X163238095Y-121508238D01*
X163238095Y-121508238D02*
X163285714Y-121555857D01*
X163285714Y-121555857D02*
X163333333Y-121651095D01*
X163333333Y-121651095D02*
X163333333Y-121746333D01*
X163333333Y-121746333D02*
X163285714Y-121889190D01*
X163285714Y-121889190D02*
X162714286Y-122460619D01*
X162714286Y-122460619D02*
X163333333Y-122460619D01*
%TO.C,J3*%
X144311666Y-102142619D02*
X144311666Y-102856904D01*
X144311666Y-102856904D02*
X144264047Y-102999761D01*
X144264047Y-102999761D02*
X144168809Y-103095000D01*
X144168809Y-103095000D02*
X144025952Y-103142619D01*
X144025952Y-103142619D02*
X143930714Y-103142619D01*
X144692619Y-102142619D02*
X145311666Y-102142619D01*
X145311666Y-102142619D02*
X144978333Y-102523571D01*
X144978333Y-102523571D02*
X145121190Y-102523571D01*
X145121190Y-102523571D02*
X145216428Y-102571190D01*
X145216428Y-102571190D02*
X145264047Y-102618809D01*
X145264047Y-102618809D02*
X145311666Y-102714047D01*
X145311666Y-102714047D02*
X145311666Y-102952142D01*
X145311666Y-102952142D02*
X145264047Y-103047380D01*
X145264047Y-103047380D02*
X145216428Y-103095000D01*
X145216428Y-103095000D02*
X145121190Y-103142619D01*
X145121190Y-103142619D02*
X144835476Y-103142619D01*
X144835476Y-103142619D02*
X144740238Y-103095000D01*
X144740238Y-103095000D02*
X144692619Y-103047380D01*
D11*
%TO.C,U2*%
X136867995Y-74494219D02*
X136867995Y-75303742D01*
X136867995Y-75303742D02*
X136915614Y-75398980D01*
X136915614Y-75398980D02*
X136963233Y-75446600D01*
X136963233Y-75446600D02*
X137058471Y-75494219D01*
X137058471Y-75494219D02*
X137248947Y-75494219D01*
X137248947Y-75494219D02*
X137344185Y-75446600D01*
X137344185Y-75446600D02*
X137391804Y-75398980D01*
X137391804Y-75398980D02*
X137439423Y-75303742D01*
X137439423Y-75303742D02*
X137439423Y-74494219D01*
X137867995Y-74589457D02*
X137915614Y-74541838D01*
X137915614Y-74541838D02*
X138010852Y-74494219D01*
X138010852Y-74494219D02*
X138248947Y-74494219D01*
X138248947Y-74494219D02*
X138344185Y-74541838D01*
X138344185Y-74541838D02*
X138391804Y-74589457D01*
X138391804Y-74589457D02*
X138439423Y-74684695D01*
X138439423Y-74684695D02*
X138439423Y-74779933D01*
X138439423Y-74779933D02*
X138391804Y-74922790D01*
X138391804Y-74922790D02*
X137820376Y-75494219D01*
X137820376Y-75494219D02*
X138439423Y-75494219D01*
D10*
%TO.C,J5*%
X144311666Y-110142619D02*
X144311666Y-110856904D01*
X144311666Y-110856904D02*
X144264047Y-110999761D01*
X144264047Y-110999761D02*
X144168809Y-111095000D01*
X144168809Y-111095000D02*
X144025952Y-111142619D01*
X144025952Y-111142619D02*
X143930714Y-111142619D01*
X145264047Y-110142619D02*
X144787857Y-110142619D01*
X144787857Y-110142619D02*
X144740238Y-110618809D01*
X144740238Y-110618809D02*
X144787857Y-110571190D01*
X144787857Y-110571190D02*
X144883095Y-110523571D01*
X144883095Y-110523571D02*
X145121190Y-110523571D01*
X145121190Y-110523571D02*
X145216428Y-110571190D01*
X145216428Y-110571190D02*
X145264047Y-110618809D01*
X145264047Y-110618809D02*
X145311666Y-110714047D01*
X145311666Y-110714047D02*
X145311666Y-110952142D01*
X145311666Y-110952142D02*
X145264047Y-111047380D01*
X145264047Y-111047380D02*
X145216428Y-111095000D01*
X145216428Y-111095000D02*
X145121190Y-111142619D01*
X145121190Y-111142619D02*
X144883095Y-111142619D01*
X144883095Y-111142619D02*
X144787857Y-111095000D01*
X144787857Y-111095000D02*
X144740238Y-111047380D01*
%TO.C,C4*%
X149693333Y-115683380D02*
X149645714Y-115731000D01*
X149645714Y-115731000D02*
X149502857Y-115778619D01*
X149502857Y-115778619D02*
X149407619Y-115778619D01*
X149407619Y-115778619D02*
X149264762Y-115731000D01*
X149264762Y-115731000D02*
X149169524Y-115635761D01*
X149169524Y-115635761D02*
X149121905Y-115540523D01*
X149121905Y-115540523D02*
X149074286Y-115350047D01*
X149074286Y-115350047D02*
X149074286Y-115207190D01*
X149074286Y-115207190D02*
X149121905Y-115016714D01*
X149121905Y-115016714D02*
X149169524Y-114921476D01*
X149169524Y-114921476D02*
X149264762Y-114826238D01*
X149264762Y-114826238D02*
X149407619Y-114778619D01*
X149407619Y-114778619D02*
X149502857Y-114778619D01*
X149502857Y-114778619D02*
X149645714Y-114826238D01*
X149645714Y-114826238D02*
X149693333Y-114873857D01*
X150550476Y-115111952D02*
X150550476Y-115778619D01*
X150312381Y-114731000D02*
X150074286Y-115445285D01*
X150074286Y-115445285D02*
X150693333Y-115445285D01*
%TO.C,F1*%
X132661666Y-58936809D02*
X132328333Y-58936809D01*
X132328333Y-59460619D02*
X132328333Y-58460619D01*
X132328333Y-58460619D02*
X132804523Y-58460619D01*
X133709285Y-59460619D02*
X133137857Y-59460619D01*
X133423571Y-59460619D02*
X133423571Y-58460619D01*
X133423571Y-58460619D02*
X133328333Y-58603476D01*
X133328333Y-58603476D02*
X133233095Y-58698714D01*
X133233095Y-58698714D02*
X133137857Y-58746333D01*
%TO.C,PS1*%
X117098914Y-107142619D02*
X117098914Y-106142619D01*
X117098914Y-106142619D02*
X117479866Y-106142619D01*
X117479866Y-106142619D02*
X117575104Y-106190238D01*
X117575104Y-106190238D02*
X117622723Y-106237857D01*
X117622723Y-106237857D02*
X117670342Y-106333095D01*
X117670342Y-106333095D02*
X117670342Y-106475952D01*
X117670342Y-106475952D02*
X117622723Y-106571190D01*
X117622723Y-106571190D02*
X117575104Y-106618809D01*
X117575104Y-106618809D02*
X117479866Y-106666428D01*
X117479866Y-106666428D02*
X117098914Y-106666428D01*
X118051295Y-107095000D02*
X118194152Y-107142619D01*
X118194152Y-107142619D02*
X118432247Y-107142619D01*
X118432247Y-107142619D02*
X118527485Y-107095000D01*
X118527485Y-107095000D02*
X118575104Y-107047380D01*
X118575104Y-107047380D02*
X118622723Y-106952142D01*
X118622723Y-106952142D02*
X118622723Y-106856904D01*
X118622723Y-106856904D02*
X118575104Y-106761666D01*
X118575104Y-106761666D02*
X118527485Y-106714047D01*
X118527485Y-106714047D02*
X118432247Y-106666428D01*
X118432247Y-106666428D02*
X118241771Y-106618809D01*
X118241771Y-106618809D02*
X118146533Y-106571190D01*
X118146533Y-106571190D02*
X118098914Y-106523571D01*
X118098914Y-106523571D02*
X118051295Y-106428333D01*
X118051295Y-106428333D02*
X118051295Y-106333095D01*
X118051295Y-106333095D02*
X118098914Y-106237857D01*
X118098914Y-106237857D02*
X118146533Y-106190238D01*
X118146533Y-106190238D02*
X118241771Y-106142619D01*
X118241771Y-106142619D02*
X118479866Y-106142619D01*
X118479866Y-106142619D02*
X118622723Y-106190238D01*
X119575104Y-107142619D02*
X119003676Y-107142619D01*
X119289390Y-107142619D02*
X119289390Y-106142619D01*
X119289390Y-106142619D02*
X119194152Y-106285476D01*
X119194152Y-106285476D02*
X119098914Y-106380714D01*
X119098914Y-106380714D02*
X119003676Y-106428333D01*
%TO.C,R2*%
X152833333Y-120256619D02*
X152500000Y-119780428D01*
X152261905Y-120256619D02*
X152261905Y-119256619D01*
X152261905Y-119256619D02*
X152642857Y-119256619D01*
X152642857Y-119256619D02*
X152738095Y-119304238D01*
X152738095Y-119304238D02*
X152785714Y-119351857D01*
X152785714Y-119351857D02*
X152833333Y-119447095D01*
X152833333Y-119447095D02*
X152833333Y-119589952D01*
X152833333Y-119589952D02*
X152785714Y-119685190D01*
X152785714Y-119685190D02*
X152738095Y-119732809D01*
X152738095Y-119732809D02*
X152642857Y-119780428D01*
X152642857Y-119780428D02*
X152261905Y-119780428D01*
X153214286Y-119351857D02*
X153261905Y-119304238D01*
X153261905Y-119304238D02*
X153357143Y-119256619D01*
X153357143Y-119256619D02*
X153595238Y-119256619D01*
X153595238Y-119256619D02*
X153690476Y-119304238D01*
X153690476Y-119304238D02*
X153738095Y-119351857D01*
X153738095Y-119351857D02*
X153785714Y-119447095D01*
X153785714Y-119447095D02*
X153785714Y-119542333D01*
X153785714Y-119542333D02*
X153738095Y-119685190D01*
X153738095Y-119685190D02*
X153166667Y-120256619D01*
X153166667Y-120256619D02*
X153785714Y-120256619D01*
%TO.C,J1*%
X111919666Y-61460619D02*
X111919666Y-62174904D01*
X111919666Y-62174904D02*
X111872047Y-62317761D01*
X111872047Y-62317761D02*
X111776809Y-62413000D01*
X111776809Y-62413000D02*
X111633952Y-62460619D01*
X111633952Y-62460619D02*
X111538714Y-62460619D01*
X112919666Y-62460619D02*
X112348238Y-62460619D01*
X112633952Y-62460619D02*
X112633952Y-61460619D01*
X112633952Y-61460619D02*
X112538714Y-61603476D01*
X112538714Y-61603476D02*
X112443476Y-61698714D01*
X112443476Y-61698714D02*
X112348238Y-61746333D01*
%TO.C,J4*%
X144311666Y-106142619D02*
X144311666Y-106856904D01*
X144311666Y-106856904D02*
X144264047Y-106999761D01*
X144264047Y-106999761D02*
X144168809Y-107095000D01*
X144168809Y-107095000D02*
X144025952Y-107142619D01*
X144025952Y-107142619D02*
X143930714Y-107142619D01*
X145216428Y-106475952D02*
X145216428Y-107142619D01*
X144978333Y-106095000D02*
X144740238Y-106809285D01*
X144740238Y-106809285D02*
X145359285Y-106809285D01*
%TO.C,SW1*%
X144666667Y-122413000D02*
X144809524Y-122460619D01*
X144809524Y-122460619D02*
X145047619Y-122460619D01*
X145047619Y-122460619D02*
X145142857Y-122413000D01*
X145142857Y-122413000D02*
X145190476Y-122365380D01*
X145190476Y-122365380D02*
X145238095Y-122270142D01*
X145238095Y-122270142D02*
X145238095Y-122174904D01*
X145238095Y-122174904D02*
X145190476Y-122079666D01*
X145190476Y-122079666D02*
X145142857Y-122032047D01*
X145142857Y-122032047D02*
X145047619Y-121984428D01*
X145047619Y-121984428D02*
X144857143Y-121936809D01*
X144857143Y-121936809D02*
X144761905Y-121889190D01*
X144761905Y-121889190D02*
X144714286Y-121841571D01*
X144714286Y-121841571D02*
X144666667Y-121746333D01*
X144666667Y-121746333D02*
X144666667Y-121651095D01*
X144666667Y-121651095D02*
X144714286Y-121555857D01*
X144714286Y-121555857D02*
X144761905Y-121508238D01*
X144761905Y-121508238D02*
X144857143Y-121460619D01*
X144857143Y-121460619D02*
X145095238Y-121460619D01*
X145095238Y-121460619D02*
X145238095Y-121508238D01*
X145571429Y-121460619D02*
X145809524Y-122460619D01*
X145809524Y-122460619D02*
X146000000Y-121746333D01*
X146000000Y-121746333D02*
X146190476Y-122460619D01*
X146190476Y-122460619D02*
X146428572Y-121460619D01*
X147333333Y-122460619D02*
X146761905Y-122460619D01*
X147047619Y-122460619D02*
X147047619Y-121460619D01*
X147047619Y-121460619D02*
X146952381Y-121603476D01*
X146952381Y-121603476D02*
X146857143Y-121698714D01*
X146857143Y-121698714D02*
X146761905Y-121746333D01*
%TO.C,C6*%
X135012133Y-117359780D02*
X134964514Y-117407400D01*
X134964514Y-117407400D02*
X134821657Y-117455019D01*
X134821657Y-117455019D02*
X134726419Y-117455019D01*
X134726419Y-117455019D02*
X134583562Y-117407400D01*
X134583562Y-117407400D02*
X134488324Y-117312161D01*
X134488324Y-117312161D02*
X134440705Y-117216923D01*
X134440705Y-117216923D02*
X134393086Y-117026447D01*
X134393086Y-117026447D02*
X134393086Y-116883590D01*
X134393086Y-116883590D02*
X134440705Y-116693114D01*
X134440705Y-116693114D02*
X134488324Y-116597876D01*
X134488324Y-116597876D02*
X134583562Y-116502638D01*
X134583562Y-116502638D02*
X134726419Y-116455019D01*
X134726419Y-116455019D02*
X134821657Y-116455019D01*
X134821657Y-116455019D02*
X134964514Y-116502638D01*
X134964514Y-116502638D02*
X135012133Y-116550257D01*
X135869276Y-116455019D02*
X135678800Y-116455019D01*
X135678800Y-116455019D02*
X135583562Y-116502638D01*
X135583562Y-116502638D02*
X135535943Y-116550257D01*
X135535943Y-116550257D02*
X135440705Y-116693114D01*
X135440705Y-116693114D02*
X135393086Y-116883590D01*
X135393086Y-116883590D02*
X135393086Y-117264542D01*
X135393086Y-117264542D02*
X135440705Y-117359780D01*
X135440705Y-117359780D02*
X135488324Y-117407400D01*
X135488324Y-117407400D02*
X135583562Y-117455019D01*
X135583562Y-117455019D02*
X135774038Y-117455019D01*
X135774038Y-117455019D02*
X135869276Y-117407400D01*
X135869276Y-117407400D02*
X135916895Y-117359780D01*
X135916895Y-117359780D02*
X135964514Y-117264542D01*
X135964514Y-117264542D02*
X135964514Y-117026447D01*
X135964514Y-117026447D02*
X135916895Y-116931209D01*
X135916895Y-116931209D02*
X135869276Y-116883590D01*
X135869276Y-116883590D02*
X135774038Y-116835971D01*
X135774038Y-116835971D02*
X135583562Y-116835971D01*
X135583562Y-116835971D02*
X135488324Y-116883590D01*
X135488324Y-116883590D02*
X135440705Y-116931209D01*
X135440705Y-116931209D02*
X135393086Y-117026447D01*
%TO.C,FL1*%
X108955904Y-78936809D02*
X108622571Y-78936809D01*
X108622571Y-79460619D02*
X108622571Y-78460619D01*
X108622571Y-78460619D02*
X109098761Y-78460619D01*
X109955904Y-79460619D02*
X109479714Y-79460619D01*
X109479714Y-79460619D02*
X109479714Y-78460619D01*
X110813047Y-79460619D02*
X110241619Y-79460619D01*
X110527333Y-79460619D02*
X110527333Y-78460619D01*
X110527333Y-78460619D02*
X110432095Y-78603476D01*
X110432095Y-78603476D02*
X110336857Y-78698714D01*
X110336857Y-78698714D02*
X110241619Y-78746333D01*
%TO.C,J2*%
X154360666Y-61460619D02*
X154360666Y-62174904D01*
X154360666Y-62174904D02*
X154313047Y-62317761D01*
X154313047Y-62317761D02*
X154217809Y-62413000D01*
X154217809Y-62413000D02*
X154074952Y-62460619D01*
X154074952Y-62460619D02*
X153979714Y-62460619D01*
X154789238Y-61555857D02*
X154836857Y-61508238D01*
X154836857Y-61508238D02*
X154932095Y-61460619D01*
X154932095Y-61460619D02*
X155170190Y-61460619D01*
X155170190Y-61460619D02*
X155265428Y-61508238D01*
X155265428Y-61508238D02*
X155313047Y-61555857D01*
X155313047Y-61555857D02*
X155360666Y-61651095D01*
X155360666Y-61651095D02*
X155360666Y-61746333D01*
X155360666Y-61746333D02*
X155313047Y-61889190D01*
X155313047Y-61889190D02*
X154741619Y-62460619D01*
X154741619Y-62460619D02*
X155360666Y-62460619D01*
%TO.C,J6*%
X160102619Y-66143333D02*
X160816904Y-66143333D01*
X160816904Y-66143333D02*
X160959761Y-66190952D01*
X160959761Y-66190952D02*
X161055000Y-66286190D01*
X161055000Y-66286190D02*
X161102619Y-66429047D01*
X161102619Y-66429047D02*
X161102619Y-66524285D01*
X160102619Y-65238571D02*
X160102619Y-65429047D01*
X160102619Y-65429047D02*
X160150238Y-65524285D01*
X160150238Y-65524285D02*
X160197857Y-65571904D01*
X160197857Y-65571904D02*
X160340714Y-65667142D01*
X160340714Y-65667142D02*
X160531190Y-65714761D01*
X160531190Y-65714761D02*
X160912142Y-65714761D01*
X160912142Y-65714761D02*
X161007380Y-65667142D01*
X161007380Y-65667142D02*
X161055000Y-65619523D01*
X161055000Y-65619523D02*
X161102619Y-65524285D01*
X161102619Y-65524285D02*
X161102619Y-65333809D01*
X161102619Y-65333809D02*
X161055000Y-65238571D01*
X161055000Y-65238571D02*
X161007380Y-65190952D01*
X161007380Y-65190952D02*
X160912142Y-65143333D01*
X160912142Y-65143333D02*
X160674047Y-65143333D01*
X160674047Y-65143333D02*
X160578809Y-65190952D01*
X160578809Y-65190952D02*
X160531190Y-65238571D01*
X160531190Y-65238571D02*
X160483571Y-65333809D01*
X160483571Y-65333809D02*
X160483571Y-65524285D01*
X160483571Y-65524285D02*
X160531190Y-65619523D01*
X160531190Y-65619523D02*
X160578809Y-65667142D01*
X160578809Y-65667142D02*
X160674047Y-65714761D01*
%TO.C,RVe1*%
X128181619Y-76021809D02*
X127705428Y-76355142D01*
X128181619Y-76593237D02*
X127181619Y-76593237D01*
X127181619Y-76593237D02*
X127181619Y-76212285D01*
X127181619Y-76212285D02*
X127229238Y-76117047D01*
X127229238Y-76117047D02*
X127276857Y-76069428D01*
X127276857Y-76069428D02*
X127372095Y-76021809D01*
X127372095Y-76021809D02*
X127514952Y-76021809D01*
X127514952Y-76021809D02*
X127610190Y-76069428D01*
X127610190Y-76069428D02*
X127657809Y-76117047D01*
X127657809Y-76117047D02*
X127705428Y-76212285D01*
X127705428Y-76212285D02*
X127705428Y-76593237D01*
X127181619Y-75736094D02*
X128181619Y-75402761D01*
X128181619Y-75402761D02*
X127181619Y-75069428D01*
X128134000Y-74355142D02*
X128181619Y-74450380D01*
X128181619Y-74450380D02*
X128181619Y-74640856D01*
X128181619Y-74640856D02*
X128134000Y-74736094D01*
X128134000Y-74736094D02*
X128038761Y-74783713D01*
X128038761Y-74783713D02*
X127657809Y-74783713D01*
X127657809Y-74783713D02*
X127562571Y-74736094D01*
X127562571Y-74736094D02*
X127514952Y-74640856D01*
X127514952Y-74640856D02*
X127514952Y-74450380D01*
X127514952Y-74450380D02*
X127562571Y-74355142D01*
X127562571Y-74355142D02*
X127657809Y-74307523D01*
X127657809Y-74307523D02*
X127753047Y-74307523D01*
X127753047Y-74307523D02*
X127848285Y-74783713D01*
X128181619Y-73355142D02*
X128181619Y-73926570D01*
X128181619Y-73640856D02*
X127181619Y-73640856D01*
X127181619Y-73640856D02*
X127324476Y-73736094D01*
X127324476Y-73736094D02*
X127419714Y-73831332D01*
X127419714Y-73831332D02*
X127467333Y-73926570D01*
%TO.C,C3*%
X155833333Y-120161380D02*
X155785714Y-120209000D01*
X155785714Y-120209000D02*
X155642857Y-120256619D01*
X155642857Y-120256619D02*
X155547619Y-120256619D01*
X155547619Y-120256619D02*
X155404762Y-120209000D01*
X155404762Y-120209000D02*
X155309524Y-120113761D01*
X155309524Y-120113761D02*
X155261905Y-120018523D01*
X155261905Y-120018523D02*
X155214286Y-119828047D01*
X155214286Y-119828047D02*
X155214286Y-119685190D01*
X155214286Y-119685190D02*
X155261905Y-119494714D01*
X155261905Y-119494714D02*
X155309524Y-119399476D01*
X155309524Y-119399476D02*
X155404762Y-119304238D01*
X155404762Y-119304238D02*
X155547619Y-119256619D01*
X155547619Y-119256619D02*
X155642857Y-119256619D01*
X155642857Y-119256619D02*
X155785714Y-119304238D01*
X155785714Y-119304238D02*
X155833333Y-119351857D01*
X156166667Y-119256619D02*
X156785714Y-119256619D01*
X156785714Y-119256619D02*
X156452381Y-119637571D01*
X156452381Y-119637571D02*
X156595238Y-119637571D01*
X156595238Y-119637571D02*
X156690476Y-119685190D01*
X156690476Y-119685190D02*
X156738095Y-119732809D01*
X156738095Y-119732809D02*
X156785714Y-119828047D01*
X156785714Y-119828047D02*
X156785714Y-120066142D01*
X156785714Y-120066142D02*
X156738095Y-120161380D01*
X156738095Y-120161380D02*
X156690476Y-120209000D01*
X156690476Y-120209000D02*
X156595238Y-120256619D01*
X156595238Y-120256619D02*
X156309524Y-120256619D01*
X156309524Y-120256619D02*
X156214286Y-120209000D01*
X156214286Y-120209000D02*
X156166667Y-120161380D01*
%TO.C,C5*%
X119314000Y-70618000D02*
X119314000Y-65378000D01*
X119314000Y-70618000D02*
X106074000Y-70618000D01*
X119314000Y-65378000D02*
X106074000Y-65378000D01*
X106074000Y-70618000D02*
X106074000Y-65378000D01*
%TO.C,J8*%
X152023000Y-80784000D02*
X150693000Y-80784000D01*
X152023000Y-79454000D02*
X152023000Y-80784000D01*
X152023000Y-78184000D02*
X152023000Y-70504000D01*
X152023000Y-78184000D02*
X149363000Y-78184000D01*
X152023000Y-70504000D02*
X149363000Y-70504000D01*
X149363000Y-78184000D02*
X149363000Y-70504000D01*
%TO.C,U1*%
X147945000Y-87760000D02*
X147945000Y-94510000D01*
X147945000Y-87760000D02*
X165945000Y-87760000D01*
X147945000Y-112510000D02*
X147945000Y-113260000D01*
X147945000Y-113260000D02*
X148695000Y-113260000D01*
X148695000Y-113260000D02*
X150445000Y-113260000D01*
X165195000Y-113260000D02*
X163445000Y-113260000D01*
X165945000Y-87760000D02*
X165945000Y-94510000D01*
X165945000Y-93700000D02*
X147945000Y-93700000D01*
X165945000Y-112510000D02*
X165945000Y-113260000D01*
X165945000Y-113260000D02*
X165195000Y-113260000D01*
%TO.C,SW2*%
X159250000Y-120998000D02*
X159250000Y-122998000D01*
X160300000Y-119698000D02*
X160750000Y-119248000D01*
X160300000Y-124298000D02*
X160750000Y-124748000D01*
X160750000Y-119248000D02*
X163250000Y-119248000D01*
X160750000Y-124748000D02*
X163250000Y-124748000D01*
X163700000Y-119698000D02*
X163250000Y-119248000D01*
X163700000Y-124298000D02*
X163250000Y-124748000D01*
X164750000Y-120998000D02*
X164750000Y-122998000D01*
%TO.C,J3*%
X132695000Y-104010000D02*
X132695000Y-102680000D01*
X134025000Y-104010000D02*
X132695000Y-104010000D01*
X135295000Y-104010000D02*
X142975000Y-104010000D01*
X135295000Y-104010000D02*
X135295000Y-101350000D01*
X142975000Y-104010000D02*
X142975000Y-101350000D01*
X135295000Y-101350000D02*
X142975000Y-101350000D01*
%TO.C,U2*%
X144043400Y-65633600D02*
X131978400Y-65633600D01*
X131978400Y-65633600D02*
X131978400Y-98653600D01*
X131978400Y-98653600D02*
X144043400Y-98653600D01*
X144043400Y-98653600D02*
X144043400Y-65633600D01*
%TO.C,J5*%
X132695000Y-112010000D02*
X132695000Y-110680000D01*
X134025000Y-112010000D02*
X132695000Y-112010000D01*
X135295000Y-112010000D02*
X142975000Y-112010000D01*
X135295000Y-112010000D02*
X135295000Y-109350000D01*
X142975000Y-112010000D02*
X142975000Y-109350000D01*
X135295000Y-109350000D02*
X142975000Y-109350000D01*
%TO.C,C4*%
X150571252Y-118207200D02*
X149148748Y-118207200D01*
X150571252Y-116387200D02*
X149148748Y-116387200D01*
%TO.C,F1*%
X118712000Y-53603000D02*
X148176000Y-53603000D01*
X118712000Y-63423000D02*
X118712000Y-53603000D01*
X118712000Y-63423000D02*
X148176000Y-63423000D01*
X148176000Y-63423000D02*
X148176000Y-53603000D01*
D12*
%TO.C,PS1*%
X129765200Y-87970000D02*
X106765200Y-87970000D01*
X106765200Y-87970000D02*
X106765200Y-125970000D01*
X129765200Y-125970000D02*
X129765200Y-87970000D01*
X106765200Y-125970000D02*
X129765200Y-125970000D01*
D11*
X121565200Y-87170000D02*
G75*
G03*
X121565200Y-87170000I-100000J0D01*
G01*
D10*
%TO.C,R2*%
X152090000Y-123521064D02*
X152090000Y-122066936D01*
X153910000Y-123521064D02*
X153910000Y-122066936D01*
%TO.C,J1*%
X117504000Y-63454000D02*
X117504000Y-53533000D01*
X117504000Y-63454000D02*
X107384000Y-63454000D01*
X117504000Y-60494000D02*
X107384000Y-60494000D01*
X117504000Y-55593000D02*
X107384000Y-55593000D01*
X117504000Y-54093000D02*
X107384000Y-54093000D01*
X117504000Y-53533000D02*
X107384000Y-53533000D01*
X107384000Y-63454000D02*
X107384000Y-53533000D01*
X116478999Y-58876999D02*
G75*
G03*
X116479426Y-57509958I-1534992J684000D01*
G01*
X114260001Y-59727999D02*
G75*
G03*
X115627042Y-59728426I684000J1534992D01*
G01*
X115628000Y-56658001D02*
G75*
G03*
X114915195Y-56512748I-683999J-1535000D01*
G01*
X114944000Y-56513001D02*
G75*
G03*
X114260682Y-56658245I0J-1679999D01*
G01*
X113409001Y-57509001D02*
G75*
G03*
X113408574Y-58876042I1535003J-684000D01*
G01*
X111624000Y-58193000D02*
G75*
G03*
X111624000Y-58193000I-1680000J0D01*
G01*
%TO.C,J4*%
X132695000Y-108010000D02*
X132695000Y-106680000D01*
X134025000Y-108010000D02*
X132695000Y-108010000D01*
X135295000Y-108010000D02*
X142975000Y-108010000D01*
X135295000Y-108010000D02*
X135295000Y-105350000D01*
X142975000Y-108010000D02*
X142975000Y-105350000D01*
X135295000Y-105350000D02*
X142975000Y-105350000D01*
%TO.C,SW1*%
X143250000Y-120998000D02*
X143250000Y-122998000D01*
X144300000Y-119698000D02*
X144750000Y-119248000D01*
X144300000Y-124298000D02*
X144750000Y-124748000D01*
X144750000Y-119248000D02*
X147250000Y-119248000D01*
X144750000Y-124748000D02*
X147250000Y-124748000D01*
X147700000Y-119698000D02*
X147250000Y-119248000D01*
X147700000Y-124298000D02*
X147250000Y-124748000D01*
X148750000Y-120998000D02*
X148750000Y-122998000D01*
%TO.C,C6*%
X140433800Y-124866400D02*
X139633800Y-124866400D01*
X140033800Y-125266400D02*
X140033800Y-124466400D01*
X135139800Y-126152400D02*
X135139800Y-117992400D01*
X135099800Y-126152400D02*
X135099800Y-117992400D01*
X135059800Y-126152400D02*
X135059800Y-117992400D01*
X135019800Y-126151400D02*
X135019800Y-117993400D01*
X134979800Y-126149400D02*
X134979800Y-117995400D01*
X134939800Y-126148400D02*
X134939800Y-117996400D01*
X134899800Y-126146400D02*
X134899800Y-117998400D01*
X134859800Y-126143400D02*
X134859800Y-118001400D01*
X134819800Y-126140400D02*
X134819800Y-118004400D01*
X134779800Y-126137400D02*
X134779800Y-118007400D01*
X134739800Y-126133400D02*
X134739800Y-118011400D01*
X134699800Y-126129400D02*
X134699800Y-118015400D01*
X134659800Y-126124400D02*
X134659800Y-118020400D01*
X134619800Y-126120400D02*
X134619800Y-118024400D01*
X134579800Y-126114400D02*
X134579800Y-118030400D01*
X134539800Y-126109400D02*
X134539800Y-118035400D01*
X134499800Y-126102400D02*
X134499800Y-118042400D01*
X134459800Y-126096400D02*
X134459800Y-118048400D01*
X134418800Y-126089400D02*
X134418800Y-118055400D01*
X134378800Y-126082400D02*
X134378800Y-118062400D01*
X134338800Y-126074400D02*
X134338800Y-118070400D01*
X134298800Y-126066400D02*
X134298800Y-118078400D01*
X134258800Y-126057400D02*
X134258800Y-118087400D01*
X134218800Y-126048400D02*
X134218800Y-118096400D01*
X134178800Y-126039400D02*
X134178800Y-118105400D01*
X134138800Y-126029400D02*
X134138800Y-118115400D01*
X134098800Y-126019400D02*
X134098800Y-118125400D01*
X134058800Y-126008400D02*
X134058800Y-118136400D01*
X134018800Y-125997400D02*
X134018800Y-118147400D01*
X133978800Y-125986400D02*
X133978800Y-118158400D01*
X133938800Y-125974400D02*
X133938800Y-118170400D01*
X133898800Y-125961400D02*
X133898800Y-118183400D01*
X133858800Y-125949400D02*
X133858800Y-118195400D01*
X133818800Y-125935400D02*
X133818800Y-118209400D01*
X133778800Y-125922400D02*
X133778800Y-118222400D01*
X133738800Y-125907400D02*
X133738800Y-118237400D01*
X133698800Y-125893400D02*
X133698800Y-118251400D01*
X133658800Y-125877400D02*
X133658800Y-123112400D01*
X133658800Y-121032400D02*
X133658800Y-118267400D01*
X133618800Y-125862400D02*
X133618800Y-123112400D01*
X133618800Y-121032400D02*
X133618800Y-118282400D01*
X133578800Y-125846400D02*
X133578800Y-123112400D01*
X133578800Y-121032400D02*
X133578800Y-118298400D01*
X133538800Y-125829400D02*
X133538800Y-123112400D01*
X133538800Y-121032400D02*
X133538800Y-118315400D01*
X133498800Y-125812400D02*
X133498800Y-123112400D01*
X133498800Y-121032400D02*
X133498800Y-118332400D01*
X133458800Y-125794400D02*
X133458800Y-123112400D01*
X133458800Y-121032400D02*
X133458800Y-118350400D01*
X133418800Y-125776400D02*
X133418800Y-123112400D01*
X133418800Y-121032400D02*
X133418800Y-118368400D01*
X133378800Y-125758400D02*
X133378800Y-123112400D01*
X133378800Y-121032400D02*
X133378800Y-118386400D01*
X133338800Y-125738400D02*
X133338800Y-123112400D01*
X133338800Y-121032400D02*
X133338800Y-118406400D01*
X133298800Y-125719400D02*
X133298800Y-123112400D01*
X133298800Y-121032400D02*
X133298800Y-118425400D01*
X133258800Y-125699400D02*
X133258800Y-123112400D01*
X133258800Y-121032400D02*
X133258800Y-118445400D01*
X133218800Y-125678400D02*
X133218800Y-123112400D01*
X133218800Y-121032400D02*
X133218800Y-118466400D01*
X133178800Y-125656400D02*
X133178800Y-123112400D01*
X133178800Y-121032400D02*
X133178800Y-118488400D01*
X133138800Y-125634400D02*
X133138800Y-123112400D01*
X133138800Y-121032400D02*
X133138800Y-118510400D01*
X133098800Y-125612400D02*
X133098800Y-123112400D01*
X133098800Y-121032400D02*
X133098800Y-118532400D01*
X133058800Y-125589400D02*
X133058800Y-123112400D01*
X133058800Y-121032400D02*
X133058800Y-118555400D01*
X133018800Y-125565400D02*
X133018800Y-123112400D01*
X133018800Y-121032400D02*
X133018800Y-118579400D01*
X132978800Y-125541400D02*
X132978800Y-123112400D01*
X132978800Y-121032400D02*
X132978800Y-118603400D01*
X132938800Y-125516400D02*
X132938800Y-123112400D01*
X132938800Y-121032400D02*
X132938800Y-118628400D01*
X132898800Y-125490400D02*
X132898800Y-123112400D01*
X132898800Y-121032400D02*
X132898800Y-118654400D01*
X132858800Y-125464400D02*
X132858800Y-123112400D01*
X132858800Y-121032400D02*
X132858800Y-118680400D01*
X132818800Y-125437400D02*
X132818800Y-123112400D01*
X132818800Y-121032400D02*
X132818800Y-118707400D01*
X132778800Y-125410400D02*
X132778800Y-123112400D01*
X132778800Y-121032400D02*
X132778800Y-118734400D01*
X132738800Y-125381400D02*
X132738800Y-123112400D01*
X132738800Y-121032400D02*
X132738800Y-118763400D01*
X132698800Y-125352400D02*
X132698800Y-123112400D01*
X132698800Y-121032400D02*
X132698800Y-118792400D01*
X132658800Y-125322400D02*
X132658800Y-123112400D01*
X132658800Y-121032400D02*
X132658800Y-118822400D01*
X132618800Y-125292400D02*
X132618800Y-123112400D01*
X132618800Y-121032400D02*
X132618800Y-118852400D01*
X132578800Y-125261400D02*
X132578800Y-123112400D01*
X132578800Y-121032400D02*
X132578800Y-118883400D01*
X132538800Y-125228400D02*
X132538800Y-123112400D01*
X132538800Y-121032400D02*
X132538800Y-118916400D01*
X132498800Y-125196400D02*
X132498800Y-123112400D01*
X132498800Y-121032400D02*
X132498800Y-118948400D01*
X132458800Y-125162400D02*
X132458800Y-123112400D01*
X132458800Y-121032400D02*
X132458800Y-118982400D01*
X132418800Y-125127400D02*
X132418800Y-123112400D01*
X132418800Y-121032400D02*
X132418800Y-119017400D01*
X132378800Y-125091400D02*
X132378800Y-123112400D01*
X132378800Y-121032400D02*
X132378800Y-119053400D01*
X132338800Y-125055400D02*
X132338800Y-123112400D01*
X132338800Y-121032400D02*
X132338800Y-119089400D01*
X132298800Y-125017400D02*
X132298800Y-123112400D01*
X132298800Y-121032400D02*
X132298800Y-119127400D01*
X132258800Y-124979400D02*
X132258800Y-123112400D01*
X132258800Y-121032400D02*
X132258800Y-119165400D01*
X132218800Y-124939400D02*
X132218800Y-123112400D01*
X132218800Y-121032400D02*
X132218800Y-119205400D01*
X132178800Y-124898400D02*
X132178800Y-123112400D01*
X132178800Y-121032400D02*
X132178800Y-119246400D01*
X132138800Y-124856400D02*
X132138800Y-123112400D01*
X132138800Y-121032400D02*
X132138800Y-119288400D01*
X132098800Y-124813400D02*
X132098800Y-123112400D01*
X132098800Y-121032400D02*
X132098800Y-119331400D01*
X132058800Y-124769400D02*
X132058800Y-123112400D01*
X132058800Y-121032400D02*
X132058800Y-119375400D01*
X132018800Y-124723400D02*
X132018800Y-123112400D01*
X132018800Y-121032400D02*
X132018800Y-119421400D01*
X131978800Y-124676400D02*
X131978800Y-123112400D01*
X131978800Y-121032400D02*
X131978800Y-119468400D01*
X131938800Y-124628400D02*
X131938800Y-123112400D01*
X131938800Y-121032400D02*
X131938800Y-119516400D01*
X131898800Y-124577400D02*
X131898800Y-123112400D01*
X131898800Y-121032400D02*
X131898800Y-119567400D01*
X131858800Y-124526400D02*
X131858800Y-123112400D01*
X131858800Y-121032400D02*
X131858800Y-119618400D01*
X131818800Y-124472400D02*
X131818800Y-123112400D01*
X131818800Y-121032400D02*
X131818800Y-119672400D01*
X131778800Y-124417400D02*
X131778800Y-123112400D01*
X131778800Y-121032400D02*
X131778800Y-119727400D01*
X131738800Y-124359400D02*
X131738800Y-123112400D01*
X131738800Y-121032400D02*
X131738800Y-119785400D01*
X131698800Y-124300400D02*
X131698800Y-123112400D01*
X131698800Y-121032400D02*
X131698800Y-119844400D01*
X131658800Y-124238400D02*
X131658800Y-123112400D01*
X131658800Y-121032400D02*
X131658800Y-119906400D01*
X131618800Y-124174400D02*
X131618800Y-123112400D01*
X131618800Y-121032400D02*
X131618800Y-119970400D01*
X131578800Y-124106400D02*
X131578800Y-120038400D01*
X131538800Y-124036400D02*
X131538800Y-120108400D01*
X131498800Y-123962400D02*
X131498800Y-120182400D01*
X131458800Y-123885400D02*
X131458800Y-120259400D01*
X131418800Y-123803400D02*
X131418800Y-120341400D01*
X131378800Y-123717400D02*
X131378800Y-120427400D01*
X131338800Y-123624400D02*
X131338800Y-120520400D01*
X131298800Y-123525400D02*
X131298800Y-120619400D01*
X131258800Y-123418400D02*
X131258800Y-120726400D01*
X131218800Y-123301400D02*
X131218800Y-120843400D01*
X131178800Y-123170400D02*
X131178800Y-120974400D01*
X131138800Y-123020400D02*
X131138800Y-121124400D01*
X131098800Y-122840400D02*
X131098800Y-121304400D01*
X131058800Y-122605400D02*
X131058800Y-121539400D01*
X139259800Y-122072400D02*
G75*
G03*
X139259800Y-122072400I-4120000J0D01*
G01*
%TO.C,FL1*%
X123323000Y-86325750D02*
X123323000Y-71790750D01*
X123323000Y-86325750D02*
X106096000Y-86325750D01*
X123323000Y-71670250D02*
X106071000Y-71670250D01*
X116408500Y-74584750D02*
X119393000Y-74584750D01*
X116345000Y-83728750D02*
X119393000Y-83728750D01*
X114821000Y-74584750D02*
X114821000Y-83474750D01*
X114313000Y-83474750D02*
X114313000Y-74584750D01*
X112789000Y-83728750D02*
X109995000Y-83728750D01*
X112725500Y-74584750D02*
X109995000Y-74584750D01*
X106065000Y-86325750D02*
X106065000Y-71657750D01*
X116345000Y-82204750D02*
G75*
G03*
X116345000Y-83728750I0J-762000D01*
G01*
X116345000Y-80680750D02*
G75*
G03*
X116345000Y-82204750I0J-762000D01*
G01*
X116345000Y-79156750D02*
G75*
G03*
X116345000Y-80680750I0J-762000D01*
G01*
X116345000Y-77632750D02*
G75*
G03*
X116345000Y-79156750I0J-762000D01*
G01*
X116345000Y-76108750D02*
G75*
G03*
X116345000Y-77632750I0J-762000D01*
G01*
X116345000Y-74584750D02*
G75*
G03*
X116345000Y-76108750I0J-762000D01*
G01*
X112789000Y-83728750D02*
G75*
G03*
X112789000Y-82204750I0J762000D01*
G01*
X112789000Y-82204750D02*
G75*
G03*
X112789000Y-80680750I0J762000D01*
G01*
X112789000Y-80680750D02*
G75*
G03*
X112789000Y-79156750I0J762000D01*
G01*
X112789000Y-79156750D02*
G75*
G03*
X112789000Y-77632750I0J762000D01*
G01*
X112789000Y-77632750D02*
G75*
G03*
X112789000Y-76108750I0J762000D01*
G01*
X112789000Y-76108750D02*
G75*
G03*
X112789000Y-74584750I0J762000D01*
G01*
D13*
X115683000Y-84363750D02*
G75*
G03*
X115683000Y-84363750I-100000J0D01*
G01*
X113651000Y-84363750D02*
G75*
G03*
X113651000Y-84363750I-100000J0D01*
G01*
D10*
%TO.C,J2*%
X160004000Y-63454000D02*
X160004000Y-53533000D01*
X160004000Y-63454000D02*
X149884000Y-63454000D01*
X160004000Y-60494000D02*
X149884000Y-60494000D01*
X160004000Y-55593000D02*
X149884000Y-55593000D01*
X160004000Y-54093000D02*
X149884000Y-54093000D01*
X160004000Y-53533000D02*
X149884000Y-53533000D01*
X149884000Y-63454000D02*
X149884000Y-53533000D01*
X158979000Y-58877000D02*
G75*
G03*
X158979426Y-57509958I-1535000J684000D01*
G01*
X156760000Y-59728000D02*
G75*
G03*
X158127042Y-59728427I684000J1534990D01*
G01*
X158128000Y-56658001D02*
G75*
G03*
X157415195Y-56512748I-684000J-1534999D01*
G01*
X157444000Y-56513001D02*
G75*
G03*
X156760682Y-56658245I0J-1679999D01*
G01*
X155909000Y-57509000D02*
G75*
G03*
X155908574Y-58876042I1535000J-684000D01*
G01*
X154124000Y-58193000D02*
G75*
G03*
X154124000Y-58193000I-1680000J0D01*
G01*
%TO.C,J6*%
X154150000Y-70140000D02*
X154150000Y-68810000D01*
X155480000Y-70140000D02*
X154150000Y-70140000D01*
X156750000Y-70140000D02*
X166970000Y-70140000D01*
X156750000Y-70140000D02*
X156750000Y-67480000D01*
X166970000Y-70140000D02*
X166970000Y-67480000D01*
X156750000Y-67480000D02*
X166970000Y-67480000D01*
%TO.C,RVe1*%
X130119000Y-64248000D02*
X125319000Y-64248000D01*
X130119000Y-64248000D02*
X130119000Y-85748000D01*
X125319000Y-64248000D02*
X125319000Y-85748000D01*
X130119000Y-85748000D02*
X125319000Y-85748000D01*
%TO.C,C3*%
X156910000Y-122082748D02*
X156910000Y-123505252D01*
X155090000Y-122082748D02*
X155090000Y-123505252D01*
%TD*%
D14*
X105664000Y-126238000D02*
G75*
G03*
X105664000Y-126238000I-1524000J0D01*
G01*
X101600000Y-50934000D02*
X170976000Y-50934000D01*
X170976000Y-128778000D01*
X101600000Y-128778000D01*
X101600000Y-50934000D01*
X105664000Y-53594000D02*
G75*
G03*
X105664000Y-53594000I-1524000J0D01*
G01*
X169926000Y-126238000D02*
G75*
G03*
X169926000Y-126238000I-1524000J0D01*
G01*
X169926000Y-53594000D02*
G75*
G03*
X169926000Y-53594000I-1524000J0D01*
G01*
M02*
