%TF.GenerationSoftware,KiCad,Pcbnew,7.0.2*%
%TF.CreationDate,2023-08-24T00:14:34+05:00*%
%TF.ProjectId,IOTV,494f5456-2e6b-4696-9361-645f70636258,3*%
%TF.SameCoordinates,Original*%
%TF.FileFunction,Copper,L2,Bot*%
%TF.FilePolarity,Positive*%
%FSLAX46Y46*%
G04 Gerber Fmt 4.6, Leading zero omitted, Abs format (unit mm)*
G04 Created by KiCad (PCBNEW 7.0.2) date 2023-08-24 00:14:34*
%MOMM*%
%LPD*%
G01*
G04 APERTURE LIST*
G04 Aperture macros list*
%AMRoundRect*
0 Rectangle with rounded corners*
0 $1 Rounding radius*
0 $2 $3 $4 $5 $6 $7 $8 $9 X,Y pos of 4 corners*
0 Add a 4 corners polygon primitive as box body*
4,1,4,$2,$3,$4,$5,$6,$7,$8,$9,$2,$3,0*
0 Add four circle primitives for the rounded corners*
1,1,$1+$1,$2,$3*
1,1,$1+$1,$4,$5*
1,1,$1+$1,$6,$7*
1,1,$1+$1,$8,$9*
0 Add four rect primitives between the rounded corners*
20,1,$1+$1,$2,$3,$4,$5,0*
20,1,$1+$1,$4,$5,$6,$7,0*
20,1,$1+$1,$6,$7,$8,$9,0*
20,1,$1+$1,$8,$9,$2,$3,0*%
%AMFreePoly0*
4,1,18,0.843072,1.985355,1.985355,0.843072,2.000000,0.807717,2.000000,-0.807717,1.985355,-0.843072,0.843072,-1.985355,0.807717,-2.000000,0.000000,-2.000000,-0.807717,-2.000000,-0.843072,-1.985354,-1.985355,-0.843072,-2.000000,-0.807717,-2.000000,0.807717,-1.985354,0.843072,-0.843072,1.985355,-0.807717,2.000000,0.807717,2.000000,0.843072,1.985355,0.843072,1.985355,$1*%
G04 Aperture macros list end*
%TA.AperFunction,ComponentPad*%
%ADD10C,2.500000*%
%TD*%
%TA.AperFunction,ComponentPad*%
%ADD11C,2.000000*%
%TD*%
%TA.AperFunction,ComponentPad*%
%ADD12R,1.700000X1.700000*%
%TD*%
%TA.AperFunction,ComponentPad*%
%ADD13O,1.700000X1.700000*%
%TD*%
%TA.AperFunction,ComponentPad*%
%ADD14C,4.000000*%
%TD*%
%TA.AperFunction,ComponentPad*%
%ADD15FreePoly0,0.000000*%
%TD*%
%TA.AperFunction,ComponentPad*%
%ADD16R,1.500000X1.500000*%
%TD*%
%TA.AperFunction,ComponentPad*%
%ADD17C,1.500000*%
%TD*%
%TA.AperFunction,ComponentPad*%
%ADD18R,2.600000X2.600000*%
%TD*%
%TA.AperFunction,ComponentPad*%
%ADD19C,2.600000*%
%TD*%
%TA.AperFunction,ComponentPad*%
%ADD20C,1.700000*%
%TD*%
%TA.AperFunction,ComponentPad*%
%ADD21R,3.000000X3.000000*%
%TD*%
%TA.AperFunction,ComponentPad*%
%ADD22C,3.000000*%
%TD*%
%TA.AperFunction,SMDPad,CuDef*%
%ADD23RoundRect,0.250000X0.650000X-0.325000X0.650000X0.325000X-0.650000X0.325000X-0.650000X-0.325000X0*%
%TD*%
%TA.AperFunction,SMDPad,CuDef*%
%ADD24RoundRect,0.250000X-0.625000X0.312500X-0.625000X-0.312500X0.625000X-0.312500X0.625000X0.312500X0*%
%TD*%
%TA.AperFunction,SMDPad,CuDef*%
%ADD25RoundRect,0.250000X-0.650000X0.325000X-0.650000X-0.325000X0.650000X-0.325000X0.650000X0.325000X0*%
%TD*%
%TA.AperFunction,ViaPad*%
%ADD26C,0.800000*%
%TD*%
%TA.AperFunction,Conductor*%
%ADD27C,0.500000*%
%TD*%
%TA.AperFunction,Conductor*%
%ADD28C,2.500000*%
%TD*%
%TA.AperFunction,Profile*%
%ADD29C,0.150000*%
%TD*%
G04 APERTURE END LIST*
D10*
%TO.P,U2,11*%
%TO.N,SSD-1*%
X138633200Y-70104000D03*
%TO.P,U2,14*%
%TO.N,SSD-2*%
X138633200Y-80899000D03*
%TO.P,U2,A1*%
%TO.N,GPIO34*%
X138633200Y-92329000D03*
%TO.P,U2,A2*%
%TO.N,GND*%
X138633200Y-96774000D03*
%TD*%
D11*
%TO.P,C5,1*%
%TO.N,~220*%
X117694000Y-67998000D03*
%TO.P,C5,2*%
%TO.N,SSD-1*%
X107694000Y-67998000D03*
%TD*%
D12*
%TO.P,J8,1,Pin_1*%
%TO.N,GND*%
X150693000Y-79454000D03*
D13*
%TO.P,J8,2,Pin_2*%
%TO.N,U0TX*%
X150693000Y-76914000D03*
%TO.P,J8,3,Pin_3*%
%TO.N,U0RX*%
X150693000Y-74374000D03*
%TO.P,J8,4,Pin_4*%
%TO.N,+3.3V*%
X150693000Y-71834000D03*
%TD*%
%TO.P,J3,4,Pin_4*%
%TO.N,SCL*%
X133109200Y-107264200D03*
%TO.P,J3,3,Pin_3*%
%TO.N,SDA*%
X133109200Y-109804200D03*
%TO.P,J3,2,Pin_2*%
%TO.N,+3.3V*%
X133109200Y-112344200D03*
D12*
%TO.P,J3,1,Pin_1*%
%TO.N,GND*%
X133109200Y-114884200D03*
%TD*%
D13*
%TO.P,J5,4,Pin_4*%
%TO.N,SCL*%
X141109200Y-107264200D03*
%TO.P,J5,3,Pin_3*%
%TO.N,SDA*%
X141109200Y-109804200D03*
%TO.P,J5,2,Pin_2*%
%TO.N,+3.3V*%
X141109200Y-112344200D03*
D12*
%TO.P,J5,1,Pin_1*%
%TO.N,GND*%
X141109200Y-114884200D03*
%TD*%
D14*
%TO.P,F1,1*%
%TO.N,Net-(J1-Pin_1)*%
X121506000Y-58513000D03*
D15*
%TO.P,F1,2*%
%TO.N,~220*%
X145636000Y-58513000D03*
%TD*%
D16*
%TO.P,PS1,1,AC1*%
%TO.N,Net-(PS1-AC1)*%
X121265200Y-90170000D03*
D17*
%TO.P,PS1,2,AC2*%
%TO.N,Net-(PS1-AC2)*%
X115265200Y-90170000D03*
%TO.P,PS1,3,-VO*%
%TO.N,GND*%
X127265200Y-123770000D03*
%TO.P,PS1,4,+VO*%
%TO.N,+3.3V*%
X109265200Y-123770000D03*
%TD*%
D18*
%TO.P,J1,1,Pin_1*%
%TO.N,Net-(J1-Pin_1)*%
X114944000Y-58193000D03*
D19*
%TO.P,J1,2,Pin_2*%
%TO.N,SSD-1*%
X109944000Y-58193000D03*
%TD*%
D13*
%TO.P,J4,4,Pin_4*%
%TO.N,SCL*%
X137109200Y-107264200D03*
%TO.P,J4,3,Pin_3*%
%TO.N,SDA*%
X137109200Y-109804200D03*
%TO.P,J4,2,Pin_2*%
%TO.N,+3.3V*%
X137109200Y-112344200D03*
D12*
%TO.P,J4,1,Pin_1*%
%TO.N,GND*%
X137109200Y-114884200D03*
%TD*%
%TO.P,C6,1*%
%TO.N,+3.3V*%
X137639800Y-122072400D03*
D20*
%TO.P,C6,2*%
%TO.N,GND*%
X132639800Y-122072400D03*
%TD*%
D21*
%TO.P,FL1,1,1*%
%TO.N,Net-(PS1-AC1)*%
X121171000Y-83982750D03*
D22*
%TO.P,FL1,2,2*%
%TO.N,~220*%
X121171000Y-74076750D03*
%TO.P,FL1,3,3*%
%TO.N,SSD-1*%
X108217000Y-74076750D03*
%TO.P,FL1,4,4*%
%TO.N,Net-(PS1-AC2)*%
X108217000Y-83982750D03*
%TD*%
D18*
%TO.P,J2,1,Pin_1*%
%TO.N,Net-(J1-Pin_1)*%
X157444000Y-58193000D03*
D19*
%TO.P,J2,2,Pin_2*%
%TO.N,SSD-2*%
X152444000Y-58193000D03*
%TD*%
D12*
%TO.P,J6,1,Pin_1*%
%TO.N,+3.3V*%
X155480000Y-68810000D03*
D13*
%TO.P,J6,2,Pin_2*%
%TO.N,SDA*%
X158020000Y-68810000D03*
%TO.P,J6,3,Pin_3*%
%TO.N,SCL*%
X160560000Y-68810000D03*
%TO.P,J6,4,Pin_4*%
%TO.N,unconnected-(J6-Pin_4-Pad4)*%
X163100000Y-68810000D03*
%TO.P,J6,5,Pin_5*%
%TO.N,GND*%
X165640000Y-68810000D03*
%TD*%
D11*
%TO.P,RVe1,1*%
%TO.N,~220*%
X128694000Y-69998000D03*
%TO.P,RVe1,2*%
%TO.N,SSD-1*%
X126744000Y-79998000D03*
%TD*%
D23*
%TO.P,C1,1*%
%TO.N,+3.3V*%
X161544000Y-98200000D03*
%TO.P,C1,2*%
%TO.N,GND*%
X161544000Y-95250000D03*
%TD*%
D24*
%TO.P,R1,1*%
%TO.N,+3.3V*%
X153797000Y-95057500D03*
%TO.P,R1,2*%
%TO.N,EN*%
X153797000Y-97982500D03*
%TD*%
D25*
%TO.P,C2,1*%
%TO.N,+3.3V*%
X157988000Y-95045000D03*
%TO.P,C2,2*%
%TO.N,GND*%
X157988000Y-97995000D03*
%TD*%
D26*
%TO.N,GND*%
X163830000Y-95250000D03*
X151231600Y-111125000D03*
%TO.N,+3.3V*%
X151130000Y-96520000D03*
%TO.N,EN*%
X151130000Y-99060000D03*
%TO.N,SDA*%
X151130000Y-101600000D03*
%TO.N,SCL*%
X151130000Y-97790000D03*
%TD*%
D27*
%TO.N,SDA*%
X158020000Y-68810000D02*
X158020000Y-74644000D01*
X158020000Y-74644000D02*
X146945000Y-85719000D01*
X146945000Y-94228000D02*
X135128000Y-106045000D01*
X146945000Y-85719000D02*
X146945000Y-94228000D01*
X135128000Y-106045000D02*
X135128000Y-107785400D01*
X135128000Y-107785400D02*
X133109200Y-109804200D01*
%TO.N,SCL*%
X141109200Y-107264200D02*
X150583400Y-97790000D01*
X150583400Y-97790000D02*
X151130000Y-97790000D01*
%TO.N,SDA*%
X151130000Y-101600000D02*
X151130000Y-102167811D01*
X151130000Y-102167811D02*
X143493611Y-109804200D01*
X143493611Y-109804200D02*
X141109200Y-109804200D01*
D28*
%TO.N,SSD-2*%
X138633200Y-80899000D02*
X138633200Y-76708000D01*
X138633200Y-76708000D02*
X152444000Y-62897200D01*
X152444000Y-62897200D02*
X152444000Y-58193000D01*
%TO.N,SSD-1*%
X126744000Y-79998000D02*
X126744000Y-79910400D01*
X126744000Y-79910400D02*
X136550400Y-70104000D01*
X136550400Y-70104000D02*
X138633200Y-70104000D01*
D27*
%TO.N,GND*%
X157988000Y-104368600D02*
X151231600Y-111125000D01*
X161544000Y-95250000D02*
X163830000Y-95250000D01*
X161544000Y-95250000D02*
X160733000Y-95250000D01*
X160733000Y-95250000D02*
X157988000Y-97995000D01*
X157988000Y-97995000D02*
X157988000Y-104368600D01*
%TO.N,+3.3V*%
X153797000Y-95057500D02*
X152592500Y-95057500D01*
X152592500Y-95057500D02*
X151130000Y-96520000D01*
D28*
%TO.N,~220*%
X121171000Y-74076750D02*
X121171000Y-71475000D01*
X124615250Y-74076750D02*
X128694000Y-69998000D01*
X140179000Y-58513000D02*
X128694000Y-69998000D01*
X145636000Y-58513000D02*
X140179000Y-58513000D01*
X121171000Y-74076750D02*
X124615250Y-74076750D01*
X121171000Y-71475000D02*
X117694000Y-67998000D01*
D27*
%TO.N,EN*%
X152719500Y-99060000D02*
X151130000Y-99060000D01*
X153797000Y-97982500D02*
X152719500Y-99060000D01*
%TO.N,SCL*%
X151130000Y-97790000D02*
X150876000Y-97790000D01*
X150876000Y-97790000D02*
X147695000Y-94609000D01*
X160560000Y-73164660D02*
X160560000Y-68810000D01*
X147695000Y-86029660D02*
X160560000Y-73164660D01*
X147695000Y-94609000D02*
X147695000Y-86029660D01*
D28*
%TO.N,SSD-1*%
X107694000Y-73553750D02*
X108217000Y-74076750D01*
X109944000Y-58193000D02*
X109944000Y-65748000D01*
X125744000Y-78998000D02*
X113138250Y-78998000D01*
X126744000Y-79998000D02*
X125744000Y-78998000D01*
X113138250Y-78998000D02*
X108217000Y-74076750D01*
X107694000Y-67998000D02*
X107694000Y-73553750D01*
X109944000Y-65748000D02*
X107694000Y-67998000D01*
%TO.N,Net-(J1-Pin_1)*%
X126577000Y-53441600D02*
X121506000Y-58513000D01*
X121186000Y-58193000D02*
X121506000Y-58513000D01*
X157444000Y-55463000D02*
X155423000Y-53441600D01*
X114944000Y-58193000D02*
X121186000Y-58193000D01*
X155423000Y-53441600D02*
X126577000Y-53441600D01*
X157444000Y-58193000D02*
X157444000Y-55463000D01*
%TD*%
%TA.AperFunction,Conductor*%
%TO.N,+3.3V*%
G36*
X166313910Y-53597869D02*
G01*
X166380947Y-53617558D01*
X166426699Y-53670365D01*
X166430973Y-53681002D01*
X166654173Y-54320400D01*
X166841276Y-54856394D01*
X166874482Y-54951517D01*
X166874482Y-54951518D01*
X168328335Y-55597280D01*
X168381612Y-55642483D01*
X168401993Y-55709314D01*
X168402000Y-55710604D01*
X168402000Y-124159947D01*
X168382315Y-124226986D01*
X168329511Y-124272741D01*
X168318867Y-124277019D01*
X167048482Y-124720482D01*
X167048481Y-124720482D01*
X166402720Y-126174335D01*
X166357517Y-126227612D01*
X166290686Y-126247993D01*
X166289396Y-126248000D01*
X106230824Y-126248000D01*
X106163785Y-126228315D01*
X106118030Y-126175511D01*
X106113752Y-126164867D01*
X105671518Y-124898000D01*
X105093817Y-124641401D01*
X104213664Y-124250460D01*
X104160387Y-124205257D01*
X104140007Y-124138426D01*
X104140000Y-124137136D01*
X104140000Y-123770000D01*
X108010424Y-123770000D01*
X108029487Y-123987886D01*
X108086098Y-124199161D01*
X108178531Y-124397386D01*
X108222073Y-124459571D01*
X108222075Y-124459572D01*
X108782123Y-123899523D01*
X108805707Y-123979844D01*
X108883439Y-124100798D01*
X108992100Y-124194952D01*
X109122885Y-124254680D01*
X109132666Y-124256086D01*
X108575626Y-124813124D01*
X108575627Y-124813125D01*
X108637810Y-124856666D01*
X108836040Y-124949102D01*
X109047313Y-125005712D01*
X109265200Y-125024775D01*
X109483086Y-125005712D01*
X109694359Y-124949102D01*
X109892585Y-124856667D01*
X109954772Y-124813124D01*
X109397734Y-124256086D01*
X109407515Y-124254680D01*
X109538300Y-124194952D01*
X109646961Y-124100798D01*
X109724693Y-123979844D01*
X109748276Y-123899524D01*
X110308324Y-124459572D01*
X110351867Y-124397385D01*
X110444302Y-124199159D01*
X110500912Y-123987886D01*
X110519975Y-123770000D01*
X110519975Y-123769999D01*
X125909540Y-123769999D01*
X125930136Y-124005407D01*
X125971545Y-124159947D01*
X125991297Y-124233663D01*
X126091165Y-124447830D01*
X126226705Y-124641401D01*
X126393799Y-124808495D01*
X126587370Y-124944035D01*
X126801537Y-125043903D01*
X127029792Y-125105063D01*
X127265200Y-125125659D01*
X127500608Y-125105063D01*
X127728863Y-125043903D01*
X127943030Y-124944035D01*
X128136601Y-124808495D01*
X128303695Y-124641401D01*
X128439235Y-124447830D01*
X128539103Y-124233663D01*
X128600263Y-124005408D01*
X128620859Y-123770000D01*
X128600263Y-123534592D01*
X128539103Y-123306337D01*
X128439235Y-123092171D01*
X128303695Y-122898599D01*
X128136601Y-122731505D01*
X127943030Y-122595965D01*
X127728863Y-122496097D01*
X127667702Y-122479709D01*
X127500607Y-122434936D01*
X127265199Y-122414340D01*
X127029792Y-122434936D01*
X126801536Y-122496097D01*
X126587370Y-122595965D01*
X126393798Y-122731505D01*
X126226705Y-122898598D01*
X126091165Y-123092170D01*
X125991297Y-123306336D01*
X125930136Y-123534592D01*
X125909540Y-123769999D01*
X110519975Y-123769999D01*
X110500912Y-123552113D01*
X110444302Y-123340840D01*
X110351867Y-123142615D01*
X110308323Y-123080428D01*
X109748276Y-123640475D01*
X109724693Y-123560156D01*
X109646961Y-123439202D01*
X109538300Y-123345048D01*
X109407515Y-123285320D01*
X109397734Y-123283913D01*
X109954772Y-122726875D01*
X109954771Y-122726873D01*
X109892586Y-122683331D01*
X109694361Y-122590898D01*
X109483086Y-122534287D01*
X109265200Y-122515224D01*
X109047313Y-122534287D01*
X108836040Y-122590897D01*
X108637811Y-122683333D01*
X108575628Y-122726874D01*
X108575627Y-122726875D01*
X109132666Y-123283913D01*
X109122885Y-123285320D01*
X108992100Y-123345048D01*
X108883439Y-123439202D01*
X108805707Y-123560156D01*
X108782123Y-123640475D01*
X108222075Y-123080427D01*
X108222074Y-123080428D01*
X108178533Y-123142611D01*
X108086097Y-123340840D01*
X108029487Y-123552113D01*
X108010424Y-123770000D01*
X104140000Y-123770000D01*
X104140000Y-122072399D01*
X131184328Y-122072399D01*
X131204179Y-122311958D01*
X131204179Y-122311961D01*
X131204180Y-122311963D01*
X131263190Y-122544991D01*
X131359751Y-122765128D01*
X131491229Y-122966369D01*
X131654036Y-123143225D01*
X131654039Y-123143227D01*
X131843727Y-123290868D01*
X131843729Y-123290869D01*
X131843733Y-123290872D01*
X132055144Y-123405282D01*
X132282503Y-123483334D01*
X132519608Y-123522900D01*
X132519609Y-123522900D01*
X132759991Y-123522900D01*
X132759992Y-123522900D01*
X132997097Y-123483334D01*
X133224456Y-123405282D01*
X133435867Y-123290872D01*
X133625564Y-123143225D01*
X133787866Y-122966918D01*
X136289800Y-122966918D01*
X136290154Y-122973532D01*
X136296200Y-123029771D01*
X136346447Y-123164489D01*
X136432611Y-123279588D01*
X136547710Y-123365752D01*
X136682428Y-123415999D01*
X136738667Y-123422045D01*
X136745282Y-123422400D01*
X137389800Y-123422400D01*
X137389800Y-122507901D01*
X137497485Y-122557080D01*
X137604037Y-122572400D01*
X137675563Y-122572400D01*
X137782115Y-122557080D01*
X137889800Y-122507901D01*
X137889800Y-123422400D01*
X138534318Y-123422400D01*
X138540932Y-123422045D01*
X138597171Y-123415999D01*
X138731889Y-123365752D01*
X138846988Y-123279588D01*
X138933152Y-123164489D01*
X138983399Y-123029771D01*
X138989445Y-122973532D01*
X138989800Y-122966918D01*
X138989800Y-122322400D01*
X138073486Y-122322400D01*
X138099293Y-122282244D01*
X138139800Y-122144289D01*
X138139800Y-122000511D01*
X138099293Y-121862556D01*
X138073486Y-121822400D01*
X138989800Y-121822400D01*
X138989800Y-121177881D01*
X138989445Y-121171267D01*
X138983399Y-121115028D01*
X138933152Y-120980310D01*
X138846988Y-120865211D01*
X138731889Y-120779047D01*
X138597171Y-120728800D01*
X138540932Y-120722754D01*
X138534318Y-120722400D01*
X137889800Y-120722400D01*
X137889800Y-121636898D01*
X137782115Y-121587720D01*
X137675563Y-121572400D01*
X137604037Y-121572400D01*
X137497485Y-121587720D01*
X137389800Y-121636898D01*
X137389800Y-120722400D01*
X136745282Y-120722400D01*
X136738667Y-120722754D01*
X136682428Y-120728800D01*
X136547710Y-120779047D01*
X136432611Y-120865211D01*
X136346447Y-120980310D01*
X136296200Y-121115028D01*
X136290154Y-121171267D01*
X136289800Y-121177881D01*
X136289800Y-121822400D01*
X137206114Y-121822400D01*
X137180307Y-121862556D01*
X137139800Y-122000511D01*
X137139800Y-122144289D01*
X137180307Y-122282244D01*
X137206114Y-122322400D01*
X136289800Y-122322400D01*
X136289800Y-122966918D01*
X133787866Y-122966918D01*
X133788371Y-122966369D01*
X133919849Y-122765128D01*
X134016410Y-122544991D01*
X134075420Y-122311963D01*
X134095271Y-122072400D01*
X134075420Y-121832837D01*
X134016410Y-121599809D01*
X133919849Y-121379672D01*
X133788371Y-121178431D01*
X133625564Y-121001575D01*
X133598243Y-120980310D01*
X133435872Y-120853931D01*
X133435868Y-120853928D01*
X133435867Y-120853928D01*
X133224456Y-120739518D01*
X133224455Y-120739517D01*
X133224452Y-120739516D01*
X132997099Y-120661466D01*
X132839027Y-120635088D01*
X132759992Y-120621900D01*
X132519608Y-120621900D01*
X132460331Y-120631791D01*
X132282500Y-120661466D01*
X132055147Y-120739516D01*
X131843727Y-120853931D01*
X131654039Y-121001572D01*
X131654036Y-121001574D01*
X131654036Y-121001575D01*
X131491229Y-121178431D01*
X131359751Y-121379672D01*
X131263190Y-121599809D01*
X131227284Y-121741602D01*
X131204179Y-121832841D01*
X131184328Y-122072399D01*
X104140000Y-122072399D01*
X104140000Y-109804199D01*
X131653728Y-109804199D01*
X131673579Y-110043758D01*
X131673579Y-110043761D01*
X131673580Y-110043763D01*
X131732590Y-110276791D01*
X131829151Y-110496928D01*
X131960629Y-110698169D01*
X132123436Y-110875025D01*
X132313133Y-111022672D01*
X132322628Y-111027810D01*
X132372219Y-111077027D01*
X132387329Y-111145243D01*
X132363159Y-111210800D01*
X132334736Y-111238439D01*
X132238122Y-111306089D01*
X132071090Y-111473121D01*
X131935600Y-111666621D01*
X131835769Y-111880707D01*
X131778564Y-112094199D01*
X131778564Y-112094200D01*
X132675514Y-112094200D01*
X132649707Y-112134356D01*
X132609200Y-112272311D01*
X132609200Y-112416089D01*
X132649707Y-112554044D01*
X132675514Y-112594200D01*
X131778564Y-112594200D01*
X131835769Y-112807692D01*
X131935599Y-113021776D01*
X132071093Y-113215281D01*
X132114423Y-113258611D01*
X132147908Y-113319934D01*
X132142924Y-113389626D01*
X132101052Y-113445559D01*
X132074196Y-113460853D01*
X131956357Y-113509664D01*
X131830917Y-113605917D01*
X131734663Y-113731359D01*
X131674156Y-113877437D01*
X131674156Y-113877438D01*
X131658700Y-113994839D01*
X131658700Y-113998891D01*
X131658700Y-113998892D01*
X131658700Y-115769505D01*
X131658700Y-115769520D01*
X131658701Y-115773560D01*
X131659229Y-115777573D01*
X131659230Y-115777584D01*
X131674155Y-115890960D01*
X131734664Y-116037041D01*
X131830917Y-116162482D01*
X131956358Y-116258735D01*
X131956359Y-116258736D01*
X132102438Y-116319244D01*
X132219839Y-116334700D01*
X133998560Y-116334699D01*
X134115962Y-116319244D01*
X134262041Y-116258736D01*
X134387482Y-116162482D01*
X134483736Y-116037041D01*
X134544244Y-115890962D01*
X134559700Y-115773561D01*
X134559699Y-113994840D01*
X134544244Y-113877438D01*
X134483736Y-113731359D01*
X134461339Y-113702170D01*
X134387482Y-113605917D01*
X134262041Y-113509664D01*
X134144203Y-113460854D01*
X134089800Y-113417013D01*
X134067735Y-113350719D01*
X134085014Y-113283020D01*
X134103976Y-113258611D01*
X134147307Y-113215280D01*
X134282800Y-113021776D01*
X134382630Y-112807692D01*
X134439836Y-112594200D01*
X133542886Y-112594200D01*
X133568693Y-112554044D01*
X133609200Y-112416089D01*
X133609200Y-112272311D01*
X133568693Y-112134356D01*
X133542886Y-112094200D01*
X134439836Y-112094200D01*
X134439835Y-112094199D01*
X134382630Y-111880707D01*
X134282799Y-111666621D01*
X134147309Y-111473121D01*
X133980281Y-111306093D01*
X133883663Y-111238440D01*
X133840038Y-111183863D01*
X133832846Y-111114364D01*
X133864368Y-111052010D01*
X133895771Y-111027810D01*
X133905267Y-111022672D01*
X134094964Y-110875025D01*
X134257771Y-110698169D01*
X134389249Y-110496928D01*
X134485810Y-110276791D01*
X134544820Y-110043763D01*
X134564671Y-109804200D01*
X134550081Y-109628131D01*
X134564161Y-109559696D01*
X134585973Y-109530214D01*
X135701397Y-108414790D01*
X135708777Y-108407986D01*
X135749100Y-108373737D01*
X135797169Y-108310501D01*
X135799067Y-108308073D01*
X135848430Y-108246664D01*
X135905771Y-108206749D01*
X135975593Y-108204171D01*
X136035725Y-108239750D01*
X136036292Y-108240361D01*
X136123436Y-108335025D01*
X136123439Y-108335027D01*
X136253614Y-108436347D01*
X136294427Y-108493057D01*
X136298102Y-108562830D01*
X136263470Y-108623513D01*
X136253614Y-108632053D01*
X136123439Y-108733372D01*
X135960630Y-108910230D01*
X135829150Y-109111474D01*
X135732591Y-109331607D01*
X135673579Y-109564641D01*
X135653728Y-109804199D01*
X135673579Y-110043758D01*
X135673579Y-110043761D01*
X135673580Y-110043763D01*
X135732590Y-110276791D01*
X135829151Y-110496928D01*
X135960629Y-110698169D01*
X136123436Y-110875025D01*
X136313133Y-111022672D01*
X136322628Y-111027810D01*
X136372219Y-111077027D01*
X136387329Y-111145243D01*
X136363159Y-111210800D01*
X136334736Y-111238439D01*
X136238122Y-111306089D01*
X136071090Y-111473121D01*
X135935600Y-111666621D01*
X135835769Y-111880707D01*
X135778564Y-112094199D01*
X135778564Y-112094200D01*
X136675514Y-112094200D01*
X136649707Y-112134356D01*
X136609200Y-112272311D01*
X136609200Y-112416089D01*
X136649707Y-112554044D01*
X136675514Y-112594200D01*
X135778564Y-112594200D01*
X135835769Y-112807692D01*
X135935599Y-113021776D01*
X136071093Y-113215281D01*
X136114423Y-113258611D01*
X136147908Y-113319934D01*
X136142924Y-113389626D01*
X136101052Y-113445559D01*
X136074196Y-113460853D01*
X135956357Y-113509664D01*
X135830917Y-113605917D01*
X135734663Y-113731359D01*
X135674156Y-113877437D01*
X135674156Y-113877438D01*
X135658700Y-113994839D01*
X135658700Y-113998891D01*
X135658700Y-113998892D01*
X135658700Y-115769505D01*
X135658700Y-115769520D01*
X135658701Y-115773560D01*
X135659229Y-115777573D01*
X135659230Y-115777584D01*
X135674155Y-115890960D01*
X135734664Y-116037041D01*
X135830917Y-116162482D01*
X135956358Y-116258735D01*
X135956359Y-116258736D01*
X136102438Y-116319244D01*
X136219839Y-116334700D01*
X137998560Y-116334699D01*
X138115962Y-116319244D01*
X138262041Y-116258736D01*
X138387482Y-116162482D01*
X138483736Y-116037041D01*
X138544244Y-115890962D01*
X138559700Y-115773561D01*
X138559699Y-113994840D01*
X138544244Y-113877438D01*
X138483736Y-113731359D01*
X138461339Y-113702170D01*
X138387482Y-113605917D01*
X138262041Y-113509664D01*
X138144203Y-113460854D01*
X138089800Y-113417013D01*
X138067735Y-113350719D01*
X138085014Y-113283020D01*
X138103976Y-113258611D01*
X138147307Y-113215280D01*
X138282800Y-113021776D01*
X138382630Y-112807692D01*
X138439836Y-112594200D01*
X137542886Y-112594200D01*
X137568693Y-112554044D01*
X137609200Y-112416089D01*
X137609200Y-112272311D01*
X137568693Y-112134356D01*
X137542886Y-112094200D01*
X138439836Y-112094200D01*
X138439835Y-112094199D01*
X138382630Y-111880707D01*
X138282799Y-111666621D01*
X138147309Y-111473121D01*
X137980281Y-111306093D01*
X137883663Y-111238440D01*
X137840038Y-111183863D01*
X137832846Y-111114364D01*
X137864368Y-111052010D01*
X137895771Y-111027810D01*
X137905267Y-111022672D01*
X138094964Y-110875025D01*
X138257771Y-110698169D01*
X138389249Y-110496928D01*
X138485810Y-110276791D01*
X138544820Y-110043763D01*
X138564671Y-109804200D01*
X138544820Y-109564637D01*
X138485810Y-109331609D01*
X138389249Y-109111472D01*
X138257771Y-108910231D01*
X138094964Y-108733375D01*
X138069465Y-108713529D01*
X137964786Y-108632053D01*
X137923973Y-108575343D01*
X137920298Y-108505570D01*
X137954930Y-108444887D01*
X137964786Y-108436347D01*
X138003155Y-108406482D01*
X138094964Y-108335025D01*
X138257771Y-108158169D01*
X138389249Y-107956928D01*
X138485810Y-107736791D01*
X138544820Y-107503763D01*
X138564671Y-107264200D01*
X138544820Y-107024637D01*
X138485810Y-106791609D01*
X138389249Y-106571472D01*
X138257771Y-106370231D01*
X138094964Y-106193375D01*
X138073570Y-106176723D01*
X137905272Y-106045731D01*
X137905268Y-106045728D01*
X137905267Y-106045728D01*
X137693856Y-105931318D01*
X137693855Y-105931317D01*
X137693852Y-105931316D01*
X137466499Y-105853266D01*
X137275715Y-105821430D01*
X137229392Y-105813700D01*
X136989008Y-105813700D01*
X136858366Y-105835500D01*
X136789001Y-105827118D01*
X136735179Y-105782565D01*
X136713989Y-105715986D01*
X136732157Y-105648520D01*
X136750272Y-105625514D01*
X147041817Y-95333969D01*
X147103141Y-95300484D01*
X147172833Y-95305468D01*
X147217180Y-95333969D01*
X149439229Y-97556018D01*
X149472714Y-97617341D01*
X149467730Y-97687033D01*
X149439229Y-97731380D01*
X141383807Y-105786802D01*
X141322484Y-105820287D01*
X141275717Y-105821430D01*
X141229392Y-105813700D01*
X140989008Y-105813700D01*
X140942685Y-105821430D01*
X140751900Y-105853266D01*
X140524547Y-105931316D01*
X140313127Y-106045731D01*
X140123439Y-106193372D01*
X140123436Y-106193374D01*
X140123436Y-106193375D01*
X139960629Y-106370231D01*
X139829151Y-106571472D01*
X139829150Y-106571474D01*
X139732591Y-106791607D01*
X139673579Y-107024641D01*
X139653728Y-107264200D01*
X139673579Y-107503758D01*
X139673579Y-107503761D01*
X139673580Y-107503763D01*
X139732590Y-107736791D01*
X139829151Y-107956928D01*
X139960629Y-108158169D01*
X140123436Y-108335025D01*
X140123439Y-108335027D01*
X140253614Y-108436347D01*
X140294427Y-108493057D01*
X140298102Y-108562830D01*
X140263470Y-108623513D01*
X140253614Y-108632053D01*
X140123439Y-108733372D01*
X139960630Y-108910230D01*
X139829150Y-109111474D01*
X139732591Y-109331607D01*
X139673579Y-109564641D01*
X139653728Y-109804200D01*
X139673579Y-110043758D01*
X139673579Y-110043761D01*
X139673580Y-110043763D01*
X139732590Y-110276791D01*
X139829151Y-110496928D01*
X139960629Y-110698169D01*
X140123436Y-110875025D01*
X140313133Y-111022672D01*
X140322628Y-111027810D01*
X140372219Y-111077027D01*
X140387329Y-111145243D01*
X140363159Y-111210800D01*
X140334736Y-111238439D01*
X140238122Y-111306089D01*
X140071090Y-111473121D01*
X139935600Y-111666621D01*
X139835769Y-111880707D01*
X139778564Y-112094199D01*
X139778564Y-112094200D01*
X140675514Y-112094200D01*
X140649707Y-112134356D01*
X140609200Y-112272311D01*
X140609200Y-112416089D01*
X140649707Y-112554044D01*
X140675514Y-112594200D01*
X139778564Y-112594200D01*
X139835769Y-112807692D01*
X139935599Y-113021776D01*
X140071093Y-113215281D01*
X140114423Y-113258611D01*
X140147908Y-113319934D01*
X140142924Y-113389626D01*
X140101052Y-113445559D01*
X140074196Y-113460853D01*
X139956357Y-113509664D01*
X139830917Y-113605917D01*
X139734663Y-113731359D01*
X139674156Y-113877437D01*
X139674156Y-113877438D01*
X139658700Y-113994839D01*
X139658700Y-113998891D01*
X139658700Y-113998892D01*
X139658700Y-115769505D01*
X139658700Y-115769520D01*
X139658701Y-115773560D01*
X139659229Y-115777573D01*
X139659230Y-115777584D01*
X139674155Y-115890960D01*
X139734664Y-116037041D01*
X139830917Y-116162482D01*
X139956358Y-116258735D01*
X139956359Y-116258736D01*
X140102438Y-116319244D01*
X140219839Y-116334700D01*
X141998560Y-116334699D01*
X142115962Y-116319244D01*
X142262041Y-116258736D01*
X142387482Y-116162482D01*
X142483736Y-116037041D01*
X142544244Y-115890962D01*
X142559700Y-115773561D01*
X142559699Y-113994840D01*
X142544244Y-113877438D01*
X142483736Y-113731359D01*
X142461339Y-113702170D01*
X142387482Y-113605917D01*
X142262041Y-113509664D01*
X142144203Y-113460854D01*
X142089800Y-113417013D01*
X142067735Y-113350719D01*
X142085014Y-113283020D01*
X142103976Y-113258611D01*
X142147307Y-113215280D01*
X142282800Y-113021776D01*
X142382630Y-112807692D01*
X142439836Y-112594200D01*
X141542886Y-112594200D01*
X141568693Y-112554044D01*
X141609200Y-112416089D01*
X141609200Y-112272311D01*
X141568693Y-112134356D01*
X141542886Y-112094200D01*
X142439836Y-112094200D01*
X142439835Y-112094199D01*
X142382630Y-111880707D01*
X142282799Y-111666621D01*
X142147309Y-111473121D01*
X141980281Y-111306093D01*
X141883663Y-111238440D01*
X141840038Y-111183863D01*
X141833947Y-111125000D01*
X150226259Y-111125000D01*
X150245576Y-111321133D01*
X150302785Y-111509726D01*
X150302786Y-111509727D01*
X150395690Y-111683538D01*
X150520717Y-111835883D01*
X150673062Y-111960910D01*
X150846873Y-112053814D01*
X151035468Y-112111024D01*
X151231600Y-112130341D01*
X151427732Y-112111024D01*
X151616327Y-112053814D01*
X151790138Y-111960910D01*
X151942483Y-111835883D01*
X152067510Y-111683538D01*
X152160414Y-111509727D01*
X152199624Y-111380467D01*
X152230600Y-111328787D01*
X158561390Y-104997996D01*
X158568770Y-104991192D01*
X158609100Y-104956937D01*
X158657114Y-104893774D01*
X158659131Y-104891193D01*
X158708842Y-104829353D01*
X158708844Y-104829347D01*
X158708916Y-104829259D01*
X158721000Y-104809779D01*
X158721051Y-104809666D01*
X158721054Y-104809664D01*
X158754356Y-104737679D01*
X158755795Y-104734677D01*
X158791037Y-104663621D01*
X158791038Y-104663616D01*
X158791095Y-104663502D01*
X158798706Y-104641883D01*
X158815779Y-104564318D01*
X158816546Y-104561045D01*
X158835711Y-104483984D01*
X158838500Y-104461219D01*
X158838500Y-104381825D01*
X158838545Y-104378468D01*
X158840696Y-104299049D01*
X158838500Y-104275947D01*
X158838500Y-99243482D01*
X158858185Y-99176443D01*
X158910989Y-99130688D01*
X158932573Y-99123148D01*
X158933021Y-99123037D01*
X159098753Y-99040842D01*
X159242940Y-98924940D01*
X159358842Y-98780753D01*
X159441037Y-98615021D01*
X159482076Y-98450000D01*
X160144001Y-98450000D01*
X160144001Y-98571829D01*
X160144321Y-98578111D01*
X160154493Y-98677695D01*
X160209642Y-98844122D01*
X160301683Y-98993345D01*
X160425654Y-99117316D01*
X160574877Y-99209357D01*
X160741303Y-99264506D01*
X160840890Y-99274680D01*
X160847168Y-99274999D01*
X161293999Y-99274999D01*
X161294000Y-99274998D01*
X161294000Y-98450000D01*
X161794000Y-98450000D01*
X161794000Y-99274999D01*
X162240829Y-99274999D01*
X162247111Y-99274678D01*
X162346695Y-99264506D01*
X162513122Y-99209357D01*
X162662345Y-99117316D01*
X162786316Y-98993345D01*
X162878357Y-98844122D01*
X162933506Y-98677696D01*
X162943680Y-98578109D01*
X162944000Y-98571831D01*
X162944000Y-98450000D01*
X161794000Y-98450000D01*
X161294000Y-98450000D01*
X160144001Y-98450000D01*
X159482076Y-98450000D01*
X159485683Y-98435495D01*
X159488500Y-98393954D01*
X159488500Y-97950000D01*
X160144000Y-97950000D01*
X161294000Y-97950000D01*
X161294000Y-97125000D01*
X161794000Y-97125000D01*
X161794000Y-97950000D01*
X162943999Y-97950000D01*
X162943999Y-97828170D01*
X162943678Y-97821888D01*
X162933506Y-97722304D01*
X162878357Y-97555877D01*
X162786316Y-97406654D01*
X162662345Y-97282683D01*
X162513122Y-97190642D01*
X162346696Y-97135493D01*
X162247109Y-97125319D01*
X162240832Y-97125000D01*
X161794000Y-97125000D01*
X161294000Y-97125000D01*
X160847171Y-97125000D01*
X160840888Y-97125321D01*
X160741304Y-97135493D01*
X160574877Y-97190642D01*
X160425654Y-97282683D01*
X160301683Y-97406654D01*
X160209642Y-97555877D01*
X160154493Y-97722303D01*
X160144319Y-97821890D01*
X160144000Y-97828168D01*
X160144000Y-97950000D01*
X159488500Y-97950000D01*
X159488500Y-97748650D01*
X159508185Y-97681611D01*
X159524819Y-97660969D01*
X160120728Y-97065060D01*
X160724245Y-96461542D01*
X160785566Y-96428059D01*
X160816120Y-96425296D01*
X160817952Y-96425358D01*
X160820046Y-96425500D01*
X160822145Y-96425500D01*
X162265856Y-96425500D01*
X162267954Y-96425500D01*
X162309495Y-96422683D01*
X162489021Y-96378037D01*
X162654753Y-96295842D01*
X162798940Y-96179940D01*
X162825568Y-96146812D01*
X162882911Y-96106894D01*
X162922215Y-96100500D01*
X163267698Y-96100500D01*
X163326151Y-96115142D01*
X163445273Y-96178814D01*
X163633868Y-96236024D01*
X163830000Y-96255341D01*
X164026132Y-96236024D01*
X164214727Y-96178814D01*
X164388538Y-96085910D01*
X164540883Y-95960883D01*
X164665910Y-95808538D01*
X164758814Y-95634727D01*
X164816024Y-95446132D01*
X164835341Y-95250000D01*
X164816024Y-95053868D01*
X164758814Y-94865273D01*
X164665910Y-94691462D01*
X164540883Y-94539117D01*
X164388538Y-94414090D01*
X164274597Y-94353187D01*
X164214726Y-94321185D01*
X164026133Y-94263976D01*
X163928066Y-94254317D01*
X163830000Y-94244659D01*
X163829999Y-94244659D01*
X163633866Y-94263976D01*
X163445273Y-94321185D01*
X163326151Y-94384858D01*
X163267698Y-94399500D01*
X162922215Y-94399500D01*
X162855176Y-94379815D01*
X162825568Y-94353187D01*
X162798941Y-94320061D01*
X162798940Y-94320060D01*
X162654753Y-94204158D01*
X162614566Y-94184227D01*
X162489022Y-94121963D01*
X162309494Y-94077316D01*
X162270045Y-94074641D01*
X162270021Y-94074640D01*
X162267954Y-94074500D01*
X160820046Y-94074500D01*
X160817979Y-94074640D01*
X160817954Y-94074641D01*
X160778505Y-94077316D01*
X160598977Y-94121963D01*
X160433248Y-94204157D01*
X160289060Y-94320060D01*
X160173157Y-94464248D01*
X160090962Y-94629980D01*
X160079651Y-94675460D01*
X160046998Y-94733212D01*
X159521529Y-95258681D01*
X159460206Y-95292166D01*
X159433848Y-95295000D01*
X158238000Y-95295000D01*
X158238000Y-96119999D01*
X158360849Y-96119999D01*
X158427888Y-96139684D01*
X158473643Y-96192488D01*
X158483587Y-96261646D01*
X158454562Y-96325202D01*
X158448530Y-96331680D01*
X157997030Y-96783181D01*
X157935707Y-96816666D01*
X157909349Y-96819500D01*
X157264046Y-96819500D01*
X157261979Y-96819640D01*
X157261954Y-96819641D01*
X157222505Y-96822316D01*
X157042977Y-96866963D01*
X156877248Y-96949157D01*
X156733060Y-97065060D01*
X156617157Y-97209248D01*
X156534963Y-97374977D01*
X156490316Y-97554505D01*
X156487641Y-97593954D01*
X156487640Y-97593979D01*
X156487500Y-97596046D01*
X156487500Y-98393954D01*
X156487640Y-98396021D01*
X156487641Y-98396045D01*
X156490316Y-98435494D01*
X156534963Y-98615022D01*
X156604758Y-98755751D01*
X156617158Y-98780753D01*
X156733060Y-98924940D01*
X156877247Y-99040842D01*
X157042979Y-99123037D01*
X157043421Y-99123147D01*
X157044651Y-99123866D01*
X157055061Y-99129029D01*
X157054704Y-99129747D01*
X157103729Y-99158424D01*
X157135391Y-99220708D01*
X157137500Y-99243482D01*
X157137500Y-103964948D01*
X157117815Y-104031987D01*
X157101181Y-104052629D01*
X151027812Y-110125997D01*
X150976127Y-110156976D01*
X150846872Y-110196185D01*
X150673063Y-110289089D01*
X150520717Y-110414117D01*
X150395689Y-110566463D01*
X150302785Y-110740273D01*
X150245576Y-110928866D01*
X150226259Y-111125000D01*
X141833947Y-111125000D01*
X141832846Y-111114364D01*
X141864368Y-111052010D01*
X141895771Y-111027810D01*
X141905267Y-111022672D01*
X142094964Y-110875025D01*
X142257771Y-110698169D01*
X142257770Y-110698169D01*
X142260949Y-110694717D01*
X142320836Y-110658727D01*
X142352179Y-110654700D01*
X143454005Y-110654700D01*
X143464068Y-110655109D01*
X143467735Y-110655407D01*
X143516778Y-110659401D01*
X143595359Y-110648693D01*
X143598685Y-110648286D01*
X143631194Y-110644751D01*
X143677642Y-110639701D01*
X143699962Y-110634469D01*
X143700074Y-110634427D01*
X143700079Y-110634427D01*
X143774594Y-110607051D01*
X143777644Y-110605977D01*
X143852832Y-110580644D01*
X143852835Y-110580641D01*
X143852951Y-110580603D01*
X143873631Y-110570692D01*
X143873721Y-110570633D01*
X143873727Y-110570632D01*
X143940615Y-110527877D01*
X143943353Y-110526178D01*
X144011347Y-110485270D01*
X144011346Y-110485270D01*
X144011447Y-110485210D01*
X144029510Y-110471089D01*
X144029597Y-110471001D01*
X144029600Y-110471000D01*
X144085702Y-110414896D01*
X144088033Y-110412627D01*
X144145652Y-110358049D01*
X144145653Y-110358047D01*
X144145738Y-110357967D01*
X144160516Y-110340082D01*
X151703390Y-102797207D01*
X151710770Y-102790403D01*
X151751100Y-102756148D01*
X151799107Y-102692993D01*
X151801125Y-102690412D01*
X151850842Y-102628565D01*
X151850844Y-102628559D01*
X151850919Y-102628467D01*
X151862999Y-102608991D01*
X151863050Y-102608879D01*
X151863054Y-102608875D01*
X151896371Y-102536858D01*
X151897814Y-102533850D01*
X151933036Y-102462832D01*
X151933037Y-102462827D01*
X151933095Y-102462711D01*
X151940708Y-102441088D01*
X151957779Y-102363529D01*
X151958546Y-102360254D01*
X151977711Y-102283196D01*
X151980500Y-102260430D01*
X151980500Y-102181036D01*
X151980545Y-102177682D01*
X151981079Y-102157948D01*
X151995676Y-102102848D01*
X152058814Y-101984727D01*
X152116024Y-101796132D01*
X152135341Y-101600000D01*
X152116024Y-101403868D01*
X152058814Y-101215273D01*
X151965910Y-101041462D01*
X151840883Y-100889117D01*
X151688538Y-100764090D01*
X151666091Y-100752092D01*
X151514726Y-100671185D01*
X151326133Y-100613976D01*
X151228065Y-100604317D01*
X151130000Y-100594659D01*
X151129999Y-100594659D01*
X150933866Y-100613976D01*
X150745273Y-100671185D01*
X150571463Y-100764089D01*
X150419117Y-100889117D01*
X150294089Y-101041463D01*
X150201185Y-101215273D01*
X150143976Y-101403866D01*
X150124659Y-101600000D01*
X150143976Y-101796132D01*
X150158456Y-101843869D01*
X150159079Y-101913736D01*
X150127476Y-101967544D01*
X143177641Y-108917381D01*
X143116318Y-108950866D01*
X143089960Y-108953700D01*
X142352179Y-108953700D01*
X142285140Y-108934015D01*
X142260949Y-108913683D01*
X142236074Y-108886662D01*
X142094964Y-108733375D01*
X142069465Y-108713529D01*
X141964786Y-108632053D01*
X141923973Y-108575343D01*
X141920298Y-108505570D01*
X141954930Y-108444887D01*
X141964786Y-108436347D01*
X142003155Y-108406482D01*
X142094964Y-108335025D01*
X142257771Y-108158169D01*
X142389249Y-107956928D01*
X142485810Y-107736791D01*
X142544820Y-107503763D01*
X142564671Y-107264200D01*
X142550081Y-107088131D01*
X142564161Y-107019696D01*
X142585973Y-106990214D01*
X150058676Y-99517511D01*
X150119997Y-99484028D01*
X150189689Y-99489012D01*
X150245622Y-99530884D01*
X150255713Y-99546740D01*
X150294090Y-99618538D01*
X150419117Y-99770883D01*
X150571462Y-99895910D01*
X150745273Y-99988814D01*
X150933868Y-100046024D01*
X151130000Y-100065341D01*
X151326132Y-100046024D01*
X151514727Y-99988814D01*
X151633848Y-99925142D01*
X151692302Y-99910500D01*
X152679894Y-99910500D01*
X152689957Y-99910909D01*
X152693624Y-99911207D01*
X152742667Y-99915201D01*
X152821248Y-99904493D01*
X152824574Y-99904086D01*
X152857083Y-99900551D01*
X152903531Y-99895501D01*
X152925851Y-99890269D01*
X152925963Y-99890227D01*
X152925968Y-99890227D01*
X153000483Y-99862851D01*
X153003533Y-99861777D01*
X153078721Y-99836444D01*
X153078724Y-99836441D01*
X153078840Y-99836403D01*
X153099520Y-99826492D01*
X153099610Y-99826433D01*
X153099616Y-99826432D01*
X153166504Y-99783677D01*
X153169242Y-99781978D01*
X153237236Y-99741070D01*
X153237235Y-99741070D01*
X153237336Y-99741010D01*
X153255399Y-99726889D01*
X153255486Y-99726801D01*
X153255489Y-99726800D01*
X153311591Y-99670696D01*
X153313922Y-99668427D01*
X153371541Y-99613849D01*
X153371542Y-99613847D01*
X153371629Y-99613765D01*
X153386404Y-99595883D01*
X153800469Y-99181819D01*
X153861793Y-99148334D01*
X153888151Y-99145500D01*
X154493856Y-99145500D01*
X154495954Y-99145500D01*
X154537495Y-99142683D01*
X154717021Y-99098037D01*
X154882753Y-99015842D01*
X155026940Y-98899940D01*
X155142842Y-98755753D01*
X155225037Y-98590021D01*
X155269683Y-98410495D01*
X155272500Y-98368954D01*
X155272500Y-97596046D01*
X155269683Y-97554505D01*
X155225037Y-97374979D01*
X155142842Y-97209247D01*
X155026940Y-97065060D01*
X154882753Y-96949158D01*
X154882751Y-96949157D01*
X154717022Y-96866963D01*
X154537494Y-96822316D01*
X154498045Y-96819641D01*
X154498021Y-96819640D01*
X154495954Y-96819500D01*
X153098046Y-96819500D01*
X153095979Y-96819640D01*
X153095954Y-96819641D01*
X153056505Y-96822316D01*
X152876977Y-96866963D01*
X152711248Y-96949157D01*
X152567060Y-97065060D01*
X152451157Y-97209248D01*
X152440140Y-97231462D01*
X152368963Y-97374979D01*
X152361086Y-97406654D01*
X152333598Y-97517184D01*
X152298315Y-97577491D01*
X152236030Y-97609149D01*
X152166516Y-97602108D01*
X152111844Y-97558602D01*
X152094604Y-97523258D01*
X152058814Y-97405273D01*
X151965910Y-97231462D01*
X151840883Y-97079117D01*
X151688538Y-96954090D01*
X151666091Y-96942092D01*
X151514726Y-96861185D01*
X151326133Y-96803976D01*
X151117847Y-96783462D01*
X151118145Y-96780428D01*
X151068229Y-96770958D01*
X151037047Y-96748259D01*
X149811484Y-95522696D01*
X149596288Y-95307500D01*
X152422001Y-95307500D01*
X152422001Y-95416829D01*
X152422321Y-95423111D01*
X152432493Y-95522695D01*
X152487642Y-95689122D01*
X152579683Y-95838345D01*
X152703654Y-95962316D01*
X152852877Y-96054357D01*
X153019303Y-96109506D01*
X153118890Y-96119680D01*
X153125168Y-96119999D01*
X153546999Y-96119999D01*
X153547000Y-96119998D01*
X153547000Y-95307500D01*
X154047000Y-95307500D01*
X154047000Y-96119999D01*
X154468829Y-96119999D01*
X154475111Y-96119678D01*
X154574695Y-96109506D01*
X154741122Y-96054357D01*
X154890345Y-95962316D01*
X155014316Y-95838345D01*
X155106357Y-95689122D01*
X155161506Y-95522696D01*
X155171680Y-95423109D01*
X155172000Y-95416831D01*
X155172000Y-95307500D01*
X154047000Y-95307500D01*
X153547000Y-95307500D01*
X152422001Y-95307500D01*
X149596288Y-95307500D01*
X149583788Y-95295000D01*
X156588001Y-95295000D01*
X156588001Y-95416829D01*
X156588321Y-95423111D01*
X156598493Y-95522695D01*
X156653642Y-95689122D01*
X156745683Y-95838345D01*
X156869654Y-95962316D01*
X157018877Y-96054357D01*
X157185303Y-96109506D01*
X157284890Y-96119680D01*
X157291168Y-96119999D01*
X157737999Y-96119999D01*
X157737999Y-96119998D01*
X157738000Y-95295000D01*
X156588001Y-95295000D01*
X149583788Y-95295000D01*
X149096289Y-94807500D01*
X152422000Y-94807500D01*
X153547000Y-94807500D01*
X153547000Y-93995000D01*
X154047000Y-93995000D01*
X154047000Y-94807500D01*
X155171999Y-94807500D01*
X155171999Y-94795000D01*
X156588000Y-94795000D01*
X157738000Y-94795000D01*
X157738000Y-93970000D01*
X158238000Y-93970000D01*
X158238000Y-94795000D01*
X159387999Y-94795000D01*
X159387999Y-94673170D01*
X159387678Y-94666888D01*
X159377506Y-94567304D01*
X159322357Y-94400877D01*
X159230316Y-94251654D01*
X159106345Y-94127683D01*
X158957122Y-94035642D01*
X158790696Y-93980493D01*
X158691109Y-93970319D01*
X158684832Y-93970000D01*
X158238000Y-93970000D01*
X157738000Y-93970000D01*
X157291171Y-93970000D01*
X157284888Y-93970321D01*
X157185304Y-93980493D01*
X157018877Y-94035642D01*
X156869654Y-94127683D01*
X156745683Y-94251654D01*
X156653642Y-94400877D01*
X156598493Y-94567303D01*
X156588319Y-94666890D01*
X156588000Y-94673168D01*
X156588000Y-94795000D01*
X155171999Y-94795000D01*
X155171999Y-94698170D01*
X155171678Y-94691888D01*
X155161506Y-94592304D01*
X155106357Y-94425877D01*
X155014316Y-94276654D01*
X154890345Y-94152683D01*
X154741122Y-94060642D01*
X154574696Y-94005493D01*
X154475109Y-93995319D01*
X154468832Y-93995000D01*
X154047000Y-93995000D01*
X153547000Y-93995000D01*
X153125171Y-93995000D01*
X153118888Y-93995321D01*
X153019304Y-94005493D01*
X152852877Y-94060642D01*
X152703654Y-94152683D01*
X152579683Y-94276654D01*
X152487642Y-94425877D01*
X152432493Y-94592303D01*
X152422319Y-94691890D01*
X152422000Y-94698168D01*
X152422000Y-94807500D01*
X149096289Y-94807500D01*
X148581819Y-94293030D01*
X148548334Y-94231707D01*
X148545500Y-94205349D01*
X148545500Y-93834000D01*
X148565185Y-93766961D01*
X148617989Y-93721206D01*
X148669500Y-93710000D01*
X165945000Y-93710000D01*
X165945000Y-87760000D01*
X148669500Y-87760000D01*
X148602461Y-87740315D01*
X148556706Y-87687511D01*
X148545500Y-87636000D01*
X148545500Y-86433310D01*
X148565185Y-86366271D01*
X148581819Y-86345629D01*
X154588143Y-80339305D01*
X161133397Y-73794050D01*
X161140777Y-73787246D01*
X161181100Y-73752997D01*
X161229169Y-73689761D01*
X161231075Y-73687323D01*
X161280841Y-73625414D01*
X161280842Y-73625411D01*
X161280923Y-73625311D01*
X161293000Y-73605840D01*
X161326350Y-73533754D01*
X161327803Y-73530722D01*
X161363088Y-73459577D01*
X161370706Y-73437940D01*
X161370729Y-73437831D01*
X161370732Y-73437827D01*
X161387792Y-73360315D01*
X161388530Y-73357166D01*
X161407684Y-73280155D01*
X161407684Y-73280151D01*
X161407711Y-73280043D01*
X161410500Y-73257279D01*
X161410500Y-73177886D01*
X161410545Y-73174529D01*
X161412696Y-73095108D01*
X161410500Y-73072010D01*
X161410500Y-70046724D01*
X161430185Y-69979685D01*
X161458334Y-69948874D01*
X161545764Y-69880825D01*
X161708571Y-69703969D01*
X161726191Y-69676998D01*
X161779334Y-69631643D01*
X161848565Y-69622218D01*
X161911901Y-69651718D01*
X161933807Y-69676997D01*
X161933810Y-69677001D01*
X161951429Y-69703969D01*
X162114236Y-69880825D01*
X162114239Y-69880827D01*
X162303927Y-70028468D01*
X162303929Y-70028469D01*
X162303933Y-70028472D01*
X162515344Y-70142882D01*
X162742703Y-70220934D01*
X162979808Y-70260500D01*
X162979809Y-70260500D01*
X163220191Y-70260500D01*
X163220192Y-70260500D01*
X163457297Y-70220934D01*
X163684656Y-70142882D01*
X163896067Y-70028472D01*
X164085764Y-69880825D01*
X164248571Y-69703969D01*
X164266193Y-69676997D01*
X164319337Y-69631642D01*
X164388568Y-69622218D01*
X164451904Y-69651719D01*
X164473807Y-69676996D01*
X164491429Y-69703969D01*
X164654236Y-69880825D01*
X164654239Y-69880827D01*
X164843927Y-70028468D01*
X164843929Y-70028469D01*
X164843933Y-70028472D01*
X165055344Y-70142882D01*
X165282703Y-70220934D01*
X165519808Y-70260500D01*
X165519809Y-70260500D01*
X165760191Y-70260500D01*
X165760192Y-70260500D01*
X165997297Y-70220934D01*
X166224656Y-70142882D01*
X166436067Y-70028472D01*
X166625764Y-69880825D01*
X166788571Y-69703969D01*
X166920049Y-69502728D01*
X167016610Y-69282591D01*
X167075620Y-69049563D01*
X167095471Y-68810000D01*
X167075620Y-68570437D01*
X167016610Y-68337409D01*
X166920049Y-68117272D01*
X166788571Y-67916031D01*
X166625764Y-67739175D01*
X166598443Y-67717910D01*
X166436072Y-67591531D01*
X166436068Y-67591528D01*
X166436067Y-67591528D01*
X166224656Y-67477118D01*
X166224655Y-67477117D01*
X166224652Y-67477116D01*
X165997299Y-67399066D01*
X165839227Y-67372688D01*
X165760192Y-67359500D01*
X165519808Y-67359500D01*
X165460531Y-67369391D01*
X165282700Y-67399066D01*
X165055347Y-67477116D01*
X164843927Y-67591531D01*
X164654239Y-67739172D01*
X164654236Y-67739174D01*
X164654236Y-67739175D01*
X164626468Y-67769338D01*
X164491426Y-67916033D01*
X164473808Y-67943000D01*
X164420662Y-67988357D01*
X164351430Y-67997780D01*
X164288095Y-67968278D01*
X164266192Y-67943000D01*
X164248573Y-67916033D01*
X164230059Y-67895922D01*
X164085764Y-67739175D01*
X164058443Y-67717910D01*
X163896072Y-67591531D01*
X163896068Y-67591528D01*
X163896067Y-67591528D01*
X163684656Y-67477118D01*
X163684655Y-67477117D01*
X163684652Y-67477116D01*
X163457299Y-67399066D01*
X163299227Y-67372688D01*
X163220192Y-67359500D01*
X162979808Y-67359500D01*
X162920531Y-67369391D01*
X162742700Y-67399066D01*
X162515347Y-67477116D01*
X162303927Y-67591531D01*
X162114239Y-67739172D01*
X162114236Y-67739174D01*
X162114236Y-67739175D01*
X162086468Y-67769338D01*
X161951426Y-67916033D01*
X161933808Y-67943000D01*
X161880662Y-67988357D01*
X161811430Y-67997780D01*
X161748095Y-67968278D01*
X161726192Y-67943000D01*
X161708573Y-67916033D01*
X161690059Y-67895922D01*
X161545764Y-67739175D01*
X161518443Y-67717910D01*
X161356072Y-67591531D01*
X161356068Y-67591528D01*
X161356067Y-67591528D01*
X161144656Y-67477118D01*
X161144655Y-67477117D01*
X161144652Y-67477116D01*
X160917299Y-67399066D01*
X160759227Y-67372688D01*
X160680192Y-67359500D01*
X160439808Y-67359500D01*
X160380531Y-67369391D01*
X160202700Y-67399066D01*
X159975347Y-67477116D01*
X159763927Y-67591531D01*
X159574239Y-67739172D01*
X159574236Y-67739174D01*
X159574236Y-67739175D01*
X159546468Y-67769338D01*
X159411426Y-67916033D01*
X159393808Y-67943000D01*
X159340662Y-67988357D01*
X159271430Y-67997780D01*
X159208095Y-67968278D01*
X159186192Y-67943000D01*
X159168573Y-67916033D01*
X159150059Y-67895922D01*
X159005764Y-67739175D01*
X158978443Y-67717910D01*
X158816072Y-67591531D01*
X158816068Y-67591528D01*
X158816067Y-67591528D01*
X158604656Y-67477118D01*
X158604655Y-67477117D01*
X158604652Y-67477116D01*
X158377299Y-67399066D01*
X158219227Y-67372688D01*
X158140192Y-67359500D01*
X157899808Y-67359500D01*
X157840531Y-67369391D01*
X157662700Y-67399066D01*
X157435347Y-67477116D01*
X157223927Y-67591531D01*
X157034238Y-67739172D01*
X156991035Y-67786103D01*
X156931147Y-67822093D01*
X156861309Y-67819992D01*
X156803694Y-67780467D01*
X156783623Y-67745450D01*
X156773351Y-67717910D01*
X156687188Y-67602811D01*
X156572089Y-67516647D01*
X156437371Y-67466400D01*
X156381132Y-67460354D01*
X156374518Y-67460000D01*
X155730000Y-67460000D01*
X155730000Y-68374498D01*
X155622315Y-68325320D01*
X155515763Y-68310000D01*
X155444237Y-68310000D01*
X155337685Y-68325320D01*
X155230000Y-68374498D01*
X155230000Y-67460000D01*
X154585482Y-67460000D01*
X154578867Y-67460354D01*
X154522628Y-67466400D01*
X154387910Y-67516647D01*
X154272811Y-67602811D01*
X154186647Y-67717910D01*
X154136400Y-67852628D01*
X154130354Y-67908867D01*
X154130000Y-67915481D01*
X154130000Y-68560000D01*
X155046314Y-68560000D01*
X155020507Y-68600156D01*
X154980000Y-68738111D01*
X154980000Y-68881889D01*
X155020507Y-69019844D01*
X155046314Y-69060000D01*
X154130000Y-69060000D01*
X154130000Y-69704518D01*
X154130354Y-69711132D01*
X154136400Y-69767371D01*
X154186647Y-69902089D01*
X154272811Y-70017188D01*
X154387910Y-70103352D01*
X154522628Y-70153599D01*
X154578867Y-70159645D01*
X154585482Y-70160000D01*
X155230000Y-70160000D01*
X155230000Y-69245501D01*
X155337685Y-69294680D01*
X155444237Y-69310000D01*
X155515763Y-69310000D01*
X155622315Y-69294680D01*
X155730000Y-69245501D01*
X155730000Y-70160000D01*
X156374518Y-70160000D01*
X156381132Y-70159645D01*
X156437371Y-70153599D01*
X156572089Y-70103352D01*
X156687188Y-70017188D01*
X156773352Y-69902088D01*
X156783625Y-69874547D01*
X156825496Y-69818613D01*
X156890960Y-69794196D01*
X156959233Y-69809047D01*
X156991037Y-69833898D01*
X157028456Y-69874547D01*
X157034236Y-69880825D01*
X157121664Y-69948872D01*
X157162475Y-70005580D01*
X157169500Y-70046724D01*
X157169500Y-74240349D01*
X157149815Y-74307388D01*
X157133181Y-74328030D01*
X152355180Y-79106031D01*
X152293857Y-79139516D01*
X152224165Y-79134532D01*
X152168232Y-79092660D01*
X152143815Y-79027196D01*
X152143499Y-79018350D01*
X152143499Y-78568694D01*
X152143499Y-78568692D01*
X152143499Y-78564640D01*
X152128044Y-78447238D01*
X152067536Y-78301159D01*
X152014469Y-78232000D01*
X151971282Y-78175717D01*
X151845839Y-78079462D01*
X151825823Y-78071171D01*
X151771420Y-78027330D01*
X151749356Y-77961035D01*
X151766636Y-77893336D01*
X151782048Y-77872628D01*
X151841567Y-77807973D01*
X151841571Y-77807969D01*
X151973049Y-77606728D01*
X152069610Y-77386591D01*
X152128620Y-77153563D01*
X152148471Y-76914000D01*
X152128620Y-76674437D01*
X152069610Y-76441409D01*
X151973049Y-76221272D01*
X151841571Y-76020031D01*
X151678764Y-75843175D01*
X151653265Y-75823329D01*
X151548586Y-75741853D01*
X151507773Y-75685143D01*
X151504098Y-75615370D01*
X151538730Y-75554687D01*
X151548586Y-75546147D01*
X151586955Y-75516282D01*
X151678764Y-75444825D01*
X151841571Y-75267969D01*
X151973049Y-75066728D01*
X152069610Y-74846591D01*
X152128620Y-74613563D01*
X152148471Y-74374000D01*
X152128620Y-74134437D01*
X152069610Y-73901409D01*
X151973049Y-73681272D01*
X151841571Y-73480031D01*
X151678764Y-73303175D01*
X151513480Y-73174529D01*
X151489069Y-73155529D01*
X151479569Y-73150388D01*
X151429979Y-73101167D01*
X151414872Y-73032951D01*
X151439044Y-72967395D01*
X151467464Y-72939759D01*
X151564081Y-72872106D01*
X151731106Y-72705081D01*
X151866600Y-72511576D01*
X151966430Y-72297492D01*
X152023636Y-72084000D01*
X151126686Y-72084000D01*
X151152493Y-72043844D01*
X151193000Y-71905889D01*
X151193000Y-71762111D01*
X151152493Y-71624156D01*
X151126686Y-71584000D01*
X152023636Y-71584000D01*
X152023635Y-71583999D01*
X151966430Y-71370507D01*
X151866599Y-71156421D01*
X151731109Y-70962921D01*
X151564081Y-70795893D01*
X151370576Y-70660399D01*
X151156492Y-70560569D01*
X150943000Y-70503364D01*
X150943000Y-71398498D01*
X150835315Y-71349320D01*
X150728763Y-71334000D01*
X150657237Y-71334000D01*
X150550685Y-71349320D01*
X150443000Y-71398498D01*
X150443000Y-70503364D01*
X150442999Y-70503364D01*
X150229507Y-70560569D01*
X150015421Y-70660400D01*
X149821921Y-70795890D01*
X149654890Y-70962921D01*
X149519400Y-71156421D01*
X149419569Y-71370507D01*
X149362364Y-71583999D01*
X149362364Y-71584000D01*
X150259314Y-71584000D01*
X150233507Y-71624156D01*
X150193000Y-71762111D01*
X150193000Y-71905889D01*
X150233507Y-72043844D01*
X150259314Y-72084000D01*
X149362364Y-72084000D01*
X149419569Y-72297492D01*
X149519399Y-72511576D01*
X149654893Y-72705081D01*
X149821922Y-72872110D01*
X149918535Y-72939760D01*
X149962160Y-72994337D01*
X149969352Y-73063835D01*
X149937830Y-73126190D01*
X149906433Y-73150386D01*
X149896933Y-73155527D01*
X149707239Y-73303172D01*
X149707236Y-73303174D01*
X149707236Y-73303175D01*
X149544429Y-73480031D01*
X149412951Y-73681272D01*
X149412950Y-73681274D01*
X149316391Y-73901407D01*
X149257379Y-74134441D01*
X149237528Y-74374000D01*
X149257379Y-74613558D01*
X149257379Y-74613561D01*
X149257380Y-74613563D01*
X149316390Y-74846591D01*
X149412951Y-75066728D01*
X149544429Y-75267969D01*
X149707236Y-75444825D01*
X149707239Y-75444827D01*
X149837414Y-75546147D01*
X149878227Y-75602857D01*
X149881902Y-75672630D01*
X149847270Y-75733313D01*
X149837414Y-75741853D01*
X149707239Y-75843172D01*
X149544430Y-76020030D01*
X149412950Y-76221274D01*
X149316391Y-76441407D01*
X149257379Y-76674441D01*
X149237528Y-76914000D01*
X149257379Y-77153558D01*
X149257379Y-77153561D01*
X149257380Y-77153563D01*
X149316390Y-77386591D01*
X149412951Y-77606728D01*
X149544429Y-77807969D01*
X149603952Y-77872628D01*
X149634874Y-77935283D01*
X149627014Y-78004709D01*
X149582867Y-78058864D01*
X149560177Y-78071171D01*
X149540160Y-78079462D01*
X149414717Y-78175717D01*
X149318463Y-78301159D01*
X149257956Y-78447237D01*
X149257956Y-78447238D01*
X149242500Y-78564639D01*
X149242500Y-78568691D01*
X149242500Y-78568692D01*
X149242500Y-80339305D01*
X149242500Y-80339320D01*
X149242501Y-80343360D01*
X149243029Y-80347373D01*
X149243030Y-80347384D01*
X149257955Y-80460760D01*
X149318464Y-80606841D01*
X149414717Y-80732282D01*
X149540158Y-80828536D01*
X149540159Y-80828536D01*
X149686238Y-80889044D01*
X149803639Y-80904500D01*
X150257349Y-80904499D01*
X150324387Y-80924183D01*
X150370142Y-80976987D01*
X150380086Y-81046146D01*
X150351061Y-81109702D01*
X150345029Y-81116180D01*
X146371610Y-85089599D01*
X146364208Y-85096424D01*
X146323898Y-85130664D01*
X146275922Y-85193773D01*
X146273859Y-85196412D01*
X146224086Y-85258335D01*
X146211998Y-85277824D01*
X146178644Y-85349916D01*
X146177194Y-85352941D01*
X146141908Y-85424090D01*
X146134293Y-85445719D01*
X146117219Y-85523283D01*
X146116453Y-85526549D01*
X146097289Y-85603610D01*
X146094500Y-85626390D01*
X146094500Y-85705772D01*
X146094455Y-85709129D01*
X146092303Y-85788550D01*
X146094500Y-85811650D01*
X146094500Y-93824348D01*
X146074815Y-93891387D01*
X146058181Y-93912029D01*
X134554610Y-105415599D01*
X134547208Y-105422424D01*
X134506898Y-105456664D01*
X134458922Y-105519773D01*
X134456859Y-105522412D01*
X134407086Y-105584335D01*
X134394998Y-105603824D01*
X134361644Y-105675916D01*
X134360194Y-105678941D01*
X134324908Y-105750090D01*
X134317293Y-105771719D01*
X134300219Y-105849283D01*
X134299453Y-105852549D01*
X134280289Y-105929610D01*
X134277500Y-105952390D01*
X134277500Y-106031772D01*
X134277454Y-106035132D01*
X134276126Y-106084129D01*
X134254633Y-106150610D01*
X134200609Y-106194918D01*
X134131206Y-106202984D01*
X134076011Y-106178623D01*
X133905267Y-106045728D01*
X133693856Y-105931318D01*
X133693855Y-105931317D01*
X133693852Y-105931316D01*
X133466499Y-105853266D01*
X133275715Y-105821430D01*
X133229392Y-105813700D01*
X132989008Y-105813700D01*
X132942685Y-105821430D01*
X132751900Y-105853266D01*
X132524547Y-105931316D01*
X132313127Y-106045731D01*
X132123439Y-106193372D01*
X132123436Y-106193374D01*
X132123436Y-106193375D01*
X131960629Y-106370231D01*
X131829151Y-106571472D01*
X131829150Y-106571474D01*
X131732591Y-106791607D01*
X131673579Y-107024641D01*
X131653728Y-107264200D01*
X131673579Y-107503758D01*
X131673579Y-107503761D01*
X131673580Y-107503763D01*
X131732590Y-107736791D01*
X131829151Y-107956928D01*
X131960629Y-108158169D01*
X132123436Y-108335025D01*
X132123439Y-108335027D01*
X132253614Y-108436347D01*
X132294427Y-108493057D01*
X132298102Y-108562830D01*
X132263470Y-108623513D01*
X132253614Y-108632053D01*
X132123439Y-108733372D01*
X131960630Y-108910230D01*
X131829150Y-109111474D01*
X131732591Y-109331607D01*
X131673579Y-109564641D01*
X131653728Y-109804199D01*
X104140000Y-109804199D01*
X104140000Y-96774000D01*
X136777972Y-96774000D01*
X136796857Y-97038027D01*
X136853121Y-97296673D01*
X136853123Y-97296678D01*
X136945626Y-97544689D01*
X136972480Y-97593868D01*
X137072482Y-97777009D01*
X137110781Y-97828170D01*
X137231113Y-97988915D01*
X137418285Y-98176087D01*
X137462920Y-98209500D01*
X137630190Y-98334717D01*
X137692891Y-98368954D01*
X137862511Y-98461574D01*
X138110522Y-98554077D01*
X138110525Y-98554077D01*
X138110526Y-98554078D01*
X138158867Y-98564593D01*
X138369174Y-98610343D01*
X138633200Y-98629227D01*
X138897226Y-98610343D01*
X139155878Y-98554077D01*
X139403889Y-98461574D01*
X139636211Y-98334716D01*
X139848115Y-98176087D01*
X140035287Y-97988915D01*
X140193916Y-97777011D01*
X140320774Y-97544689D01*
X140413277Y-97296678D01*
X140469543Y-97038026D01*
X140488427Y-96774000D01*
X140469543Y-96509974D01*
X140413277Y-96251322D01*
X140320774Y-96003311D01*
X140230695Y-95838345D01*
X140193917Y-95770990D01*
X140132631Y-95689122D01*
X140035287Y-95559085D01*
X139848115Y-95371913D01*
X139700007Y-95261041D01*
X139636209Y-95213282D01*
X139470098Y-95122579D01*
X139403889Y-95086426D01*
X139155878Y-94993923D01*
X139155873Y-94993921D01*
X138897227Y-94937657D01*
X138633200Y-94918772D01*
X138369172Y-94937657D01*
X138110526Y-94993921D01*
X137986516Y-95040174D01*
X137862511Y-95086426D01*
X137862508Y-95086427D01*
X137862507Y-95086428D01*
X137630190Y-95213282D01*
X137418282Y-95371915D01*
X137231115Y-95559082D01*
X137072482Y-95770990D01*
X136968011Y-95962316D01*
X136945626Y-96003311D01*
X136903915Y-96115142D01*
X136853121Y-96251326D01*
X136796857Y-96509972D01*
X136777972Y-96774000D01*
X104140000Y-96774000D01*
X104140000Y-94993000D01*
X104159685Y-94925961D01*
X104212489Y-94880206D01*
X104264000Y-94869000D01*
X135255000Y-94869000D01*
X135284195Y-92329000D01*
X136777972Y-92329000D01*
X136796857Y-92593027D01*
X136853121Y-92851673D01*
X136853123Y-92851678D01*
X136945626Y-93099689D01*
X136945628Y-93099692D01*
X137072482Y-93332009D01*
X137151798Y-93437962D01*
X137231113Y-93543915D01*
X137418285Y-93731087D01*
X137555761Y-93834000D01*
X137630190Y-93889717D01*
X137671052Y-93912029D01*
X137862511Y-94016574D01*
X138110522Y-94109077D01*
X138110525Y-94109077D01*
X138110526Y-94109078D01*
X138158867Y-94119593D01*
X138369174Y-94165343D01*
X138633200Y-94184227D01*
X138897226Y-94165343D01*
X139155878Y-94109077D01*
X139403889Y-94016574D01*
X139636211Y-93889716D01*
X139848115Y-93731087D01*
X140035287Y-93543915D01*
X140193916Y-93332011D01*
X140320774Y-93099689D01*
X140413277Y-92851678D01*
X140469543Y-92593026D01*
X140488427Y-92329000D01*
X140469543Y-92064974D01*
X140413277Y-91806322D01*
X140320774Y-91558311D01*
X140193916Y-91325989D01*
X140035287Y-91114085D01*
X139848115Y-90926913D01*
X139742163Y-90847598D01*
X139636209Y-90768282D01*
X139470098Y-90677579D01*
X139403889Y-90641426D01*
X139155878Y-90548923D01*
X139155873Y-90548921D01*
X138897227Y-90492657D01*
X138633200Y-90473772D01*
X138369172Y-90492657D01*
X138110526Y-90548921D01*
X137986516Y-90595174D01*
X137862511Y-90641426D01*
X137862508Y-90641427D01*
X137862507Y-90641428D01*
X137630190Y-90768282D01*
X137418282Y-90926915D01*
X137231115Y-91114082D01*
X137072482Y-91325990D01*
X136945628Y-91558307D01*
X136945626Y-91558311D01*
X136899374Y-91682316D01*
X136853121Y-91806326D01*
X136796857Y-92064972D01*
X136777972Y-92329000D01*
X135284195Y-92329000D01*
X135380591Y-83942574D01*
X135401045Y-83875766D01*
X135454371Y-83830621D01*
X135504583Y-83820000D01*
X141224000Y-83820000D01*
X141224000Y-78283362D01*
X141243685Y-78216323D01*
X141260319Y-78195681D01*
X149606000Y-69850000D01*
X153633465Y-65696678D01*
X153694265Y-65662254D01*
X153722484Y-65659000D01*
X161290000Y-65659000D01*
X161290000Y-53721563D01*
X161309685Y-53654524D01*
X161362489Y-53608769D01*
X161414000Y-53597564D01*
X166313910Y-53597869D01*
G37*
%TD.AperFunction*%
%TD*%
D29*
X105664000Y-126238000D02*
G75*
G03*
X105664000Y-126238000I-1524000J0D01*
G01*
X101600000Y-50934000D02*
X170976000Y-50934000D01*
X170976000Y-128778000D01*
X101600000Y-128778000D01*
X101600000Y-50934000D01*
X105664000Y-53594000D02*
G75*
G03*
X105664000Y-53594000I-1524000J0D01*
G01*
X169926000Y-126238000D02*
G75*
G03*
X169926000Y-126238000I-1524000J0D01*
G01*
X169926000Y-53594000D02*
G75*
G03*
X169926000Y-53594000I-1524000J0D01*
G01*
M02*
