%TF.GenerationSoftware,KiCad,Pcbnew,7.0.2*%
%TF.CreationDate,2023-08-24T00:14:34+05:00*%
%TF.ProjectId,IOTV,494f5456-2e6b-4696-9361-645f70636258,3*%
%TF.SameCoordinates,Original*%
%TF.FileFunction,Legend,Bot*%
%TF.FilePolarity,Positive*%
%FSLAX46Y46*%
G04 Gerber Fmt 4.6, Leading zero omitted, Abs format (unit mm)*
G04 Created by KiCad (PCBNEW 7.0.2) date 2023-08-24 00:14:34*
%MOMM*%
%LPD*%
G01*
G04 APERTURE LIST*
%ADD10C,0.300000*%
%ADD11C,0.375000*%
%ADD12C,0.150000*%
%ADD13C,0.010000*%
%TA.AperFunction,Profile*%
%ADD14C,0.150000*%
%TD*%
G04 APERTURE END LIST*
D10*
X122197857Y-113100428D02*
X122197857Y-112100428D01*
X122197857Y-112386142D02*
X122126428Y-112243285D01*
X122126428Y-112243285D02*
X122055000Y-112171857D01*
X122055000Y-112171857D02*
X121912142Y-112100428D01*
X121912142Y-112100428D02*
X121769285Y-112100428D01*
X120697857Y-113029000D02*
X120840714Y-113100428D01*
X120840714Y-113100428D02*
X121126429Y-113100428D01*
X121126429Y-113100428D02*
X121269286Y-113029000D01*
X121269286Y-113029000D02*
X121340714Y-112886142D01*
X121340714Y-112886142D02*
X121340714Y-112314714D01*
X121340714Y-112314714D02*
X121269286Y-112171857D01*
X121269286Y-112171857D02*
X121126429Y-112100428D01*
X121126429Y-112100428D02*
X120840714Y-112100428D01*
X120840714Y-112100428D02*
X120697857Y-112171857D01*
X120697857Y-112171857D02*
X120626429Y-112314714D01*
X120626429Y-112314714D02*
X120626429Y-112457571D01*
X120626429Y-112457571D02*
X121340714Y-112600428D01*
X120126429Y-112100428D02*
X119769286Y-113100428D01*
X119769286Y-113100428D02*
X119412143Y-112100428D01*
X118840715Y-112957571D02*
X118769286Y-113029000D01*
X118769286Y-113029000D02*
X118840715Y-113100428D01*
X118840715Y-113100428D02*
X118912143Y-113029000D01*
X118912143Y-113029000D02*
X118840715Y-112957571D01*
X118840715Y-112957571D02*
X118840715Y-113100428D01*
X116197857Y-113100428D02*
X117055000Y-113100428D01*
X116626429Y-113100428D02*
X116626429Y-111600428D01*
X116626429Y-111600428D02*
X116769286Y-111814714D01*
X116769286Y-111814714D02*
X116912143Y-111957571D01*
X116912143Y-111957571D02*
X117055000Y-112029000D01*
X115555001Y-112957571D02*
X115483572Y-113029000D01*
X115483572Y-113029000D02*
X115555001Y-113100428D01*
X115555001Y-113100428D02*
X115626429Y-113029000D01*
X115626429Y-113029000D02*
X115555001Y-112957571D01*
X115555001Y-112957571D02*
X115555001Y-113100428D01*
X114912143Y-111743285D02*
X114840715Y-111671857D01*
X114840715Y-111671857D02*
X114697858Y-111600428D01*
X114697858Y-111600428D02*
X114340715Y-111600428D01*
X114340715Y-111600428D02*
X114197858Y-111671857D01*
X114197858Y-111671857D02*
X114126429Y-111743285D01*
X114126429Y-111743285D02*
X114055000Y-111886142D01*
X114055000Y-111886142D02*
X114055000Y-112029000D01*
X114055000Y-112029000D02*
X114126429Y-112243285D01*
X114126429Y-112243285D02*
X114983572Y-113100428D01*
X114983572Y-113100428D02*
X114055000Y-113100428D01*
D11*
X123431428Y-108655428D02*
X123431428Y-107155428D01*
X122431427Y-107155428D02*
X122145713Y-107155428D01*
X122145713Y-107155428D02*
X122002856Y-107226857D01*
X122002856Y-107226857D02*
X121859999Y-107369714D01*
X121859999Y-107369714D02*
X121788570Y-107655428D01*
X121788570Y-107655428D02*
X121788570Y-108155428D01*
X121788570Y-108155428D02*
X121859999Y-108441142D01*
X121859999Y-108441142D02*
X122002856Y-108584000D01*
X122002856Y-108584000D02*
X122145713Y-108655428D01*
X122145713Y-108655428D02*
X122431427Y-108655428D01*
X122431427Y-108655428D02*
X122574285Y-108584000D01*
X122574285Y-108584000D02*
X122717142Y-108441142D01*
X122717142Y-108441142D02*
X122788570Y-108155428D01*
X122788570Y-108155428D02*
X122788570Y-107655428D01*
X122788570Y-107655428D02*
X122717142Y-107369714D01*
X122717142Y-107369714D02*
X122574285Y-107226857D01*
X122574285Y-107226857D02*
X122431427Y-107155428D01*
X121359998Y-107155428D02*
X120502856Y-107155428D01*
X120931427Y-108655428D02*
X120931427Y-107155428D01*
X120217141Y-107155428D02*
X119717141Y-108655428D01*
X119717141Y-108655428D02*
X119217141Y-107155428D01*
X117574285Y-108655428D02*
X117574285Y-107155428D01*
X116859999Y-108655428D02*
X116859999Y-107155428D01*
X116859999Y-107155428D02*
X116502856Y-107155428D01*
X116502856Y-107155428D02*
X116288570Y-107226857D01*
X116288570Y-107226857D02*
X116145713Y-107369714D01*
X116145713Y-107369714D02*
X116074284Y-107512571D01*
X116074284Y-107512571D02*
X116002856Y-107798285D01*
X116002856Y-107798285D02*
X116002856Y-108012571D01*
X116002856Y-108012571D02*
X116074284Y-108298285D01*
X116074284Y-108298285D02*
X116145713Y-108441142D01*
X116145713Y-108441142D02*
X116288570Y-108584000D01*
X116288570Y-108584000D02*
X116502856Y-108655428D01*
X116502856Y-108655428D02*
X116859999Y-108655428D01*
X115359999Y-108084000D02*
X114217142Y-108084000D01*
X112788570Y-107155428D02*
X113502856Y-107155428D01*
X113502856Y-107155428D02*
X113574284Y-107869714D01*
X113574284Y-107869714D02*
X113502856Y-107798285D01*
X113502856Y-107798285D02*
X113359999Y-107726857D01*
X113359999Y-107726857D02*
X113002856Y-107726857D01*
X113002856Y-107726857D02*
X112859999Y-107798285D01*
X112859999Y-107798285D02*
X112788570Y-107869714D01*
X112788570Y-107869714D02*
X112717141Y-108012571D01*
X112717141Y-108012571D02*
X112717141Y-108369714D01*
X112717141Y-108369714D02*
X112788570Y-108512571D01*
X112788570Y-108512571D02*
X112859999Y-108584000D01*
X112859999Y-108584000D02*
X113002856Y-108655428D01*
X113002856Y-108655428D02*
X113359999Y-108655428D01*
X113359999Y-108655428D02*
X113502856Y-108584000D01*
X113502856Y-108584000D02*
X113574284Y-108512571D01*
D12*
%TO.C,C1*%
X161710666Y-93839380D02*
X161758285Y-93887000D01*
X161758285Y-93887000D02*
X161901142Y-93934619D01*
X161901142Y-93934619D02*
X161996380Y-93934619D01*
X161996380Y-93934619D02*
X162139237Y-93887000D01*
X162139237Y-93887000D02*
X162234475Y-93791761D01*
X162234475Y-93791761D02*
X162282094Y-93696523D01*
X162282094Y-93696523D02*
X162329713Y-93506047D01*
X162329713Y-93506047D02*
X162329713Y-93363190D01*
X162329713Y-93363190D02*
X162282094Y-93172714D01*
X162282094Y-93172714D02*
X162234475Y-93077476D01*
X162234475Y-93077476D02*
X162139237Y-92982238D01*
X162139237Y-92982238D02*
X161996380Y-92934619D01*
X161996380Y-92934619D02*
X161901142Y-92934619D01*
X161901142Y-92934619D02*
X161758285Y-92982238D01*
X161758285Y-92982238D02*
X161710666Y-93029857D01*
X160758285Y-93934619D02*
X161329713Y-93934619D01*
X161043999Y-93934619D02*
X161043999Y-92934619D01*
X161043999Y-92934619D02*
X161139237Y-93077476D01*
X161139237Y-93077476D02*
X161234475Y-93172714D01*
X161234475Y-93172714D02*
X161329713Y-93220333D01*
%TO.C,R1*%
X153836666Y-93934619D02*
X154169999Y-93458428D01*
X154408094Y-93934619D02*
X154408094Y-92934619D01*
X154408094Y-92934619D02*
X154027142Y-92934619D01*
X154027142Y-92934619D02*
X153931904Y-92982238D01*
X153931904Y-92982238D02*
X153884285Y-93029857D01*
X153884285Y-93029857D02*
X153836666Y-93125095D01*
X153836666Y-93125095D02*
X153836666Y-93267952D01*
X153836666Y-93267952D02*
X153884285Y-93363190D01*
X153884285Y-93363190D02*
X153931904Y-93410809D01*
X153931904Y-93410809D02*
X154027142Y-93458428D01*
X154027142Y-93458428D02*
X154408094Y-93458428D01*
X152884285Y-93934619D02*
X153455713Y-93934619D01*
X153169999Y-93934619D02*
X153169999Y-92934619D01*
X153169999Y-92934619D02*
X153265237Y-93077476D01*
X153265237Y-93077476D02*
X153360475Y-93172714D01*
X153360475Y-93172714D02*
X153455713Y-93220333D01*
%TO.C,C2*%
X158154666Y-93839380D02*
X158202285Y-93887000D01*
X158202285Y-93887000D02*
X158345142Y-93934619D01*
X158345142Y-93934619D02*
X158440380Y-93934619D01*
X158440380Y-93934619D02*
X158583237Y-93887000D01*
X158583237Y-93887000D02*
X158678475Y-93791761D01*
X158678475Y-93791761D02*
X158726094Y-93696523D01*
X158726094Y-93696523D02*
X158773713Y-93506047D01*
X158773713Y-93506047D02*
X158773713Y-93363190D01*
X158773713Y-93363190D02*
X158726094Y-93172714D01*
X158726094Y-93172714D02*
X158678475Y-93077476D01*
X158678475Y-93077476D02*
X158583237Y-92982238D01*
X158583237Y-92982238D02*
X158440380Y-92934619D01*
X158440380Y-92934619D02*
X158345142Y-92934619D01*
X158345142Y-92934619D02*
X158202285Y-92982238D01*
X158202285Y-92982238D02*
X158154666Y-93029857D01*
X157773713Y-93029857D02*
X157726094Y-92982238D01*
X157726094Y-92982238D02*
X157630856Y-92934619D01*
X157630856Y-92934619D02*
X157392761Y-92934619D01*
X157392761Y-92934619D02*
X157297523Y-92982238D01*
X157297523Y-92982238D02*
X157249904Y-93029857D01*
X157249904Y-93029857D02*
X157202285Y-93125095D01*
X157202285Y-93125095D02*
X157202285Y-93220333D01*
X157202285Y-93220333D02*
X157249904Y-93363190D01*
X157249904Y-93363190D02*
X157821332Y-93934619D01*
X157821332Y-93934619D02*
X157202285Y-93934619D01*
%TO.C,logo*%
D13*
X114600406Y-102858949D02*
X114626127Y-102874647D01*
X114652778Y-102896227D01*
X114652778Y-103543684D01*
X114626127Y-103565264D01*
X114594767Y-103582739D01*
X114558966Y-103583575D01*
X114527528Y-103563082D01*
X114523652Y-103558416D01*
X114518186Y-103548949D01*
X114513979Y-103535267D01*
X114510867Y-103514748D01*
X114508687Y-103484768D01*
X114507276Y-103442704D01*
X114506471Y-103385932D01*
X114506107Y-103311830D01*
X114506022Y-103217773D01*
X114506022Y-102896227D01*
X114532673Y-102874647D01*
X114556386Y-102859877D01*
X114579400Y-102853067D01*
X114600406Y-102858949D01*
G36*
X114600406Y-102858949D02*
G01*
X114626127Y-102874647D01*
X114652778Y-102896227D01*
X114652778Y-103543684D01*
X114626127Y-103565264D01*
X114594767Y-103582739D01*
X114558966Y-103583575D01*
X114527528Y-103563082D01*
X114523652Y-103558416D01*
X114518186Y-103548949D01*
X114513979Y-103535267D01*
X114510867Y-103514748D01*
X114508687Y-103484768D01*
X114507276Y-103442704D01*
X114506471Y-103385932D01*
X114506107Y-103311830D01*
X114506022Y-103217773D01*
X114506022Y-102896227D01*
X114532673Y-102874647D01*
X114556386Y-102859877D01*
X114579400Y-102853067D01*
X114600406Y-102858949D01*
G37*
X121731137Y-102857463D02*
X121765291Y-102880776D01*
X121793000Y-102908485D01*
X121793000Y-103221537D01*
X121792959Y-103305567D01*
X121792701Y-103379789D01*
X121792030Y-103436541D01*
X121790752Y-103478512D01*
X121788673Y-103508389D01*
X121785599Y-103528861D01*
X121781334Y-103542614D01*
X121775684Y-103552337D01*
X121768455Y-103560717D01*
X121736991Y-103582181D01*
X121701826Y-103583947D01*
X121668822Y-103564267D01*
X121663516Y-103558398D01*
X121658066Y-103549314D01*
X121653900Y-103535973D01*
X121650846Y-103515757D01*
X121648732Y-103486049D01*
X121647386Y-103444232D01*
X121646638Y-103387689D01*
X121646314Y-103313802D01*
X121646245Y-103219956D01*
X121646284Y-103144294D01*
X121646539Y-103066385D01*
X121647183Y-103006375D01*
X121648387Y-102961648D01*
X121650324Y-102929585D01*
X121653164Y-102907571D01*
X121657079Y-102892987D01*
X121662242Y-102883218D01*
X121668822Y-102875645D01*
X121698006Y-102856623D01*
X121731137Y-102857463D01*
G36*
X121731137Y-102857463D02*
G01*
X121765291Y-102880776D01*
X121793000Y-102908485D01*
X121793000Y-103221537D01*
X121792959Y-103305567D01*
X121792701Y-103379789D01*
X121792030Y-103436541D01*
X121790752Y-103478512D01*
X121788673Y-103508389D01*
X121785599Y-103528861D01*
X121781334Y-103542614D01*
X121775684Y-103552337D01*
X121768455Y-103560717D01*
X121736991Y-103582181D01*
X121701826Y-103583947D01*
X121668822Y-103564267D01*
X121663516Y-103558398D01*
X121658066Y-103549314D01*
X121653900Y-103535973D01*
X121650846Y-103515757D01*
X121648732Y-103486049D01*
X121647386Y-103444232D01*
X121646638Y-103387689D01*
X121646314Y-103313802D01*
X121646245Y-103219956D01*
X121646284Y-103144294D01*
X121646539Y-103066385D01*
X121647183Y-103006375D01*
X121648387Y-102961648D01*
X121650324Y-102929585D01*
X121653164Y-102907571D01*
X121657079Y-102892987D01*
X121662242Y-102883218D01*
X121668822Y-102875645D01*
X121698006Y-102856623D01*
X121731137Y-102857463D01*
G37*
X121199562Y-97616850D02*
X121282313Y-97644053D01*
X121357406Y-97689484D01*
X121429298Y-97755302D01*
X121467846Y-97799567D01*
X121507256Y-97857961D01*
X121532446Y-97918586D01*
X121545861Y-97987865D01*
X121549948Y-98072222D01*
X121549669Y-98118307D01*
X121547460Y-98159450D01*
X121541894Y-98191582D01*
X121531586Y-98222122D01*
X121515148Y-98258489D01*
X121501200Y-98285728D01*
X121442665Y-98371429D01*
X121370619Y-98440617D01*
X121286947Y-98491741D01*
X121193531Y-98523250D01*
X121160434Y-98530225D01*
X121119960Y-98537094D01*
X121086999Y-98538919D01*
X121052698Y-98535947D01*
X121008200Y-98528426D01*
X120956934Y-98516002D01*
X120866434Y-98478112D01*
X120787345Y-98423836D01*
X120721528Y-98355770D01*
X120670840Y-98276511D01*
X120637140Y-98188654D01*
X120622286Y-98094795D01*
X120628136Y-97997530D01*
X120654399Y-97901220D01*
X120699418Y-97812494D01*
X120760373Y-97737419D01*
X120835184Y-97677641D01*
X120921768Y-97634809D01*
X121018043Y-97610571D01*
X121121928Y-97606576D01*
X121199562Y-97616850D01*
G36*
X121199562Y-97616850D02*
G01*
X121282313Y-97644053D01*
X121357406Y-97689484D01*
X121429298Y-97755302D01*
X121467846Y-97799567D01*
X121507256Y-97857961D01*
X121532446Y-97918586D01*
X121545861Y-97987865D01*
X121549948Y-98072222D01*
X121549669Y-98118307D01*
X121547460Y-98159450D01*
X121541894Y-98191582D01*
X121531586Y-98222122D01*
X121515148Y-98258489D01*
X121501200Y-98285728D01*
X121442665Y-98371429D01*
X121370619Y-98440617D01*
X121286947Y-98491741D01*
X121193531Y-98523250D01*
X121160434Y-98530225D01*
X121119960Y-98537094D01*
X121086999Y-98538919D01*
X121052698Y-98535947D01*
X121008200Y-98528426D01*
X120956934Y-98516002D01*
X120866434Y-98478112D01*
X120787345Y-98423836D01*
X120721528Y-98355770D01*
X120670840Y-98276511D01*
X120637140Y-98188654D01*
X120622286Y-98094795D01*
X120628136Y-97997530D01*
X120654399Y-97901220D01*
X120699418Y-97812494D01*
X120760373Y-97737419D01*
X120835184Y-97677641D01*
X120921768Y-97634809D01*
X121018043Y-97610571D01*
X121121928Y-97606576D01*
X121199562Y-97616850D01*
G37*
X113900767Y-102853068D02*
X113994890Y-102853158D01*
X114069405Y-102853498D01*
X114126811Y-102854239D01*
X114169611Y-102855535D01*
X114200304Y-102857537D01*
X114221391Y-102860396D01*
X114235373Y-102864266D01*
X114244750Y-102869298D01*
X114252022Y-102875645D01*
X114270828Y-102908362D01*
X114272275Y-102945939D01*
X114255917Y-102979178D01*
X114254557Y-102980631D01*
X114243354Y-102988992D01*
X114226252Y-102994547D01*
X114199082Y-102997840D01*
X114157678Y-102999418D01*
X114097873Y-102999822D01*
X113958511Y-102999822D01*
X113958511Y-103263589D01*
X113958436Y-103339417D01*
X113958028Y-103406083D01*
X113957046Y-103455867D01*
X113955250Y-103491784D01*
X113952399Y-103516850D01*
X113948253Y-103534081D01*
X113942571Y-103546492D01*
X113935114Y-103557100D01*
X113932824Y-103559906D01*
X113901646Y-103582548D01*
X113867266Y-103584112D01*
X113834334Y-103564267D01*
X113827355Y-103556191D01*
X113821883Y-103545593D01*
X113817863Y-103529749D01*
X113815072Y-103505773D01*
X113813288Y-103470774D01*
X113812289Y-103421864D01*
X113811852Y-103356154D01*
X113811756Y-103270756D01*
X113811756Y-102999822D01*
X113665820Y-102999822D01*
X113654720Y-102999821D01*
X113598202Y-102999596D01*
X113559358Y-102998457D01*
X113533965Y-102995657D01*
X113517804Y-102990450D01*
X113506652Y-102982089D01*
X113496289Y-102969826D01*
X113480441Y-102939138D01*
X113483543Y-102905358D01*
X113509187Y-102872822D01*
X113514129Y-102869105D01*
X113524338Y-102864269D01*
X113539764Y-102860506D01*
X113562886Y-102857683D01*
X113596183Y-102855670D01*
X113642137Y-102854333D01*
X113703228Y-102853542D01*
X113781935Y-102853163D01*
X113880740Y-102853067D01*
X113900767Y-102853068D01*
G36*
X113900767Y-102853068D02*
G01*
X113994890Y-102853158D01*
X114069405Y-102853498D01*
X114126811Y-102854239D01*
X114169611Y-102855535D01*
X114200304Y-102857537D01*
X114221391Y-102860396D01*
X114235373Y-102864266D01*
X114244750Y-102869298D01*
X114252022Y-102875645D01*
X114270828Y-102908362D01*
X114272275Y-102945939D01*
X114255917Y-102979178D01*
X114254557Y-102980631D01*
X114243354Y-102988992D01*
X114226252Y-102994547D01*
X114199082Y-102997840D01*
X114157678Y-102999418D01*
X114097873Y-102999822D01*
X113958511Y-102999822D01*
X113958511Y-103263589D01*
X113958436Y-103339417D01*
X113958028Y-103406083D01*
X113957046Y-103455867D01*
X113955250Y-103491784D01*
X113952399Y-103516850D01*
X113948253Y-103534081D01*
X113942571Y-103546492D01*
X113935114Y-103557100D01*
X113932824Y-103559906D01*
X113901646Y-103582548D01*
X113867266Y-103584112D01*
X113834334Y-103564267D01*
X113827355Y-103556191D01*
X113821883Y-103545593D01*
X113817863Y-103529749D01*
X113815072Y-103505773D01*
X113813288Y-103470774D01*
X113812289Y-103421864D01*
X113811852Y-103356154D01*
X113811756Y-103270756D01*
X113811756Y-102999822D01*
X113665820Y-102999822D01*
X113654720Y-102999821D01*
X113598202Y-102999596D01*
X113559358Y-102998457D01*
X113533965Y-102995657D01*
X113517804Y-102990450D01*
X113506652Y-102982089D01*
X113496289Y-102969826D01*
X113480441Y-102939138D01*
X113483543Y-102905358D01*
X113509187Y-102872822D01*
X113514129Y-102869105D01*
X113524338Y-102864269D01*
X113539764Y-102860506D01*
X113562886Y-102857683D01*
X113596183Y-102855670D01*
X113642137Y-102854333D01*
X113703228Y-102853542D01*
X113781935Y-102853163D01*
X113880740Y-102853067D01*
X113900767Y-102853068D01*
G37*
X113224734Y-102875645D02*
X113230366Y-102881835D01*
X113235456Y-102890041D01*
X113239543Y-102901817D01*
X113242721Y-102919276D01*
X113245087Y-102944530D01*
X113246738Y-102979690D01*
X113247769Y-103026869D01*
X113248277Y-103088177D01*
X113248359Y-103165727D01*
X113248109Y-103261631D01*
X113247625Y-103378000D01*
X113247557Y-103392175D01*
X113246971Y-103453937D01*
X113245648Y-103497620D01*
X113243103Y-103527001D01*
X113238848Y-103545855D01*
X113232396Y-103557959D01*
X113223262Y-103567089D01*
X113189804Y-103584506D01*
X113154856Y-103581604D01*
X113123953Y-103557100D01*
X113114944Y-103543897D01*
X113107492Y-103525361D01*
X113103124Y-103499333D01*
X113101069Y-103460787D01*
X113100556Y-103404700D01*
X113100556Y-103282045D01*
X112603845Y-103282045D01*
X112603845Y-103416871D01*
X112603772Y-103452662D01*
X112603009Y-103498992D01*
X112600833Y-103529526D01*
X112596536Y-103548557D01*
X112589412Y-103560374D01*
X112578755Y-103569271D01*
X112546504Y-103584341D01*
X112511217Y-103581673D01*
X112480486Y-103557100D01*
X112475831Y-103550845D01*
X112469895Y-103540321D01*
X112465364Y-103526391D01*
X112462048Y-103506317D01*
X112459759Y-103477360D01*
X112458308Y-103436780D01*
X112457505Y-103381840D01*
X112457162Y-103309799D01*
X112457089Y-103217920D01*
X112457089Y-102908485D01*
X112484798Y-102880776D01*
X112516177Y-102858533D01*
X112549406Y-102855844D01*
X112581267Y-102875645D01*
X112589553Y-102885415D01*
X112596965Y-102901307D01*
X112601302Y-102925275D01*
X112603338Y-102962148D01*
X112603845Y-103016756D01*
X112603845Y-103135289D01*
X113100556Y-103135289D01*
X113100556Y-103019776D01*
X113100994Y-102968078D01*
X113102958Y-102933554D01*
X113107474Y-102910978D01*
X113115567Y-102895126D01*
X113128265Y-102880776D01*
X113159643Y-102858533D01*
X113192872Y-102855844D01*
X113224734Y-102875645D01*
G36*
X113224734Y-102875645D02*
G01*
X113230366Y-102881835D01*
X113235456Y-102890041D01*
X113239543Y-102901817D01*
X113242721Y-102919276D01*
X113245087Y-102944530D01*
X113246738Y-102979690D01*
X113247769Y-103026869D01*
X113248277Y-103088177D01*
X113248359Y-103165727D01*
X113248109Y-103261631D01*
X113247625Y-103378000D01*
X113247557Y-103392175D01*
X113246971Y-103453937D01*
X113245648Y-103497620D01*
X113243103Y-103527001D01*
X113238848Y-103545855D01*
X113232396Y-103557959D01*
X113223262Y-103567089D01*
X113189804Y-103584506D01*
X113154856Y-103581604D01*
X113123953Y-103557100D01*
X113114944Y-103543897D01*
X113107492Y-103525361D01*
X113103124Y-103499333D01*
X113101069Y-103460787D01*
X113100556Y-103404700D01*
X113100556Y-103282045D01*
X112603845Y-103282045D01*
X112603845Y-103416871D01*
X112603772Y-103452662D01*
X112603009Y-103498992D01*
X112600833Y-103529526D01*
X112596536Y-103548557D01*
X112589412Y-103560374D01*
X112578755Y-103569271D01*
X112546504Y-103584341D01*
X112511217Y-103581673D01*
X112480486Y-103557100D01*
X112475831Y-103550845D01*
X112469895Y-103540321D01*
X112465364Y-103526391D01*
X112462048Y-103506317D01*
X112459759Y-103477360D01*
X112458308Y-103436780D01*
X112457505Y-103381840D01*
X112457162Y-103309799D01*
X112457089Y-103217920D01*
X112457089Y-102908485D01*
X112484798Y-102880776D01*
X112516177Y-102858533D01*
X112549406Y-102855844D01*
X112581267Y-102875645D01*
X112589553Y-102885415D01*
X112596965Y-102901307D01*
X112601302Y-102925275D01*
X112603338Y-102962148D01*
X112603845Y-103016756D01*
X112603845Y-103135289D01*
X113100556Y-103135289D01*
X113100556Y-103019776D01*
X113100994Y-102968078D01*
X113102958Y-102933554D01*
X113107474Y-102910978D01*
X113115567Y-102895126D01*
X113128265Y-102880776D01*
X113159643Y-102858533D01*
X113192872Y-102855844D01*
X113224734Y-102875645D01*
G37*
X117930133Y-103464396D02*
X117928163Y-103497175D01*
X117925235Y-103520095D01*
X117921158Y-103535897D01*
X117915743Y-103547319D01*
X117908803Y-103557100D01*
X117885406Y-103586845D01*
X117719714Y-103586251D01*
X117684918Y-103585953D01*
X117586435Y-103582522D01*
X117505473Y-103574839D01*
X117438379Y-103562282D01*
X117381496Y-103544227D01*
X117331169Y-103520052D01*
X117327810Y-103518135D01*
X117269998Y-103481417D01*
X117227644Y-103444451D01*
X117194828Y-103400966D01*
X117165628Y-103344689D01*
X117161346Y-103335073D01*
X117138769Y-103271887D01*
X117133034Y-103226333D01*
X117282279Y-103226333D01*
X117287892Y-103251061D01*
X117293618Y-103266939D01*
X117326548Y-103326847D01*
X117373886Y-103372600D01*
X117437652Y-103405736D01*
X117519861Y-103427790D01*
X117522655Y-103428292D01*
X117568940Y-103434255D01*
X117625336Y-103438483D01*
X117680274Y-103440089D01*
X117774156Y-103440089D01*
X117774156Y-102999822D01*
X117686667Y-103000270D01*
X117619747Y-103002746D01*
X117527349Y-103013998D01*
X117448034Y-103033537D01*
X117386060Y-103060511D01*
X117355120Y-103081240D01*
X117327000Y-103111006D01*
X117303660Y-103153434D01*
X117296533Y-103169400D01*
X117284709Y-103201902D01*
X117282279Y-103226333D01*
X117133034Y-103226333D01*
X117131797Y-103216509D01*
X117140399Y-103161483D01*
X117164541Y-103099351D01*
X117165337Y-103097658D01*
X117205788Y-103028236D01*
X117256473Y-102971638D01*
X117319198Y-102927070D01*
X117395774Y-102893741D01*
X117488009Y-102870861D01*
X117597712Y-102857636D01*
X117726691Y-102853275D01*
X117730263Y-102853270D01*
X117790283Y-102853410D01*
X117832214Y-102854446D01*
X117860328Y-102857040D01*
X117878897Y-102861853D01*
X117892194Y-102869544D01*
X117904491Y-102880776D01*
X117932200Y-102908485D01*
X117932200Y-103217920D01*
X117932175Y-103279526D01*
X117931950Y-103358311D01*
X117931332Y-103419021D01*
X117930775Y-103440089D01*
X117930133Y-103464396D01*
G36*
X117930133Y-103464396D02*
G01*
X117928163Y-103497175D01*
X117925235Y-103520095D01*
X117921158Y-103535897D01*
X117915743Y-103547319D01*
X117908803Y-103557100D01*
X117885406Y-103586845D01*
X117719714Y-103586251D01*
X117684918Y-103585953D01*
X117586435Y-103582522D01*
X117505473Y-103574839D01*
X117438379Y-103562282D01*
X117381496Y-103544227D01*
X117331169Y-103520052D01*
X117327810Y-103518135D01*
X117269998Y-103481417D01*
X117227644Y-103444451D01*
X117194828Y-103400966D01*
X117165628Y-103344689D01*
X117161346Y-103335073D01*
X117138769Y-103271887D01*
X117133034Y-103226333D01*
X117282279Y-103226333D01*
X117287892Y-103251061D01*
X117293618Y-103266939D01*
X117326548Y-103326847D01*
X117373886Y-103372600D01*
X117437652Y-103405736D01*
X117519861Y-103427790D01*
X117522655Y-103428292D01*
X117568940Y-103434255D01*
X117625336Y-103438483D01*
X117680274Y-103440089D01*
X117774156Y-103440089D01*
X117774156Y-102999822D01*
X117686667Y-103000270D01*
X117619747Y-103002746D01*
X117527349Y-103013998D01*
X117448034Y-103033537D01*
X117386060Y-103060511D01*
X117355120Y-103081240D01*
X117327000Y-103111006D01*
X117303660Y-103153434D01*
X117296533Y-103169400D01*
X117284709Y-103201902D01*
X117282279Y-103226333D01*
X117133034Y-103226333D01*
X117131797Y-103216509D01*
X117140399Y-103161483D01*
X117164541Y-103099351D01*
X117165337Y-103097658D01*
X117205788Y-103028236D01*
X117256473Y-102971638D01*
X117319198Y-102927070D01*
X117395774Y-102893741D01*
X117488009Y-102870861D01*
X117597712Y-102857636D01*
X117726691Y-102853275D01*
X117730263Y-102853270D01*
X117790283Y-102853410D01*
X117832214Y-102854446D01*
X117860328Y-102857040D01*
X117878897Y-102861853D01*
X117892194Y-102869544D01*
X117904491Y-102880776D01*
X117932200Y-102908485D01*
X117932200Y-103217920D01*
X117932175Y-103279526D01*
X117931950Y-103358311D01*
X117931332Y-103419021D01*
X117930775Y-103440089D01*
X117930133Y-103464396D01*
G37*
X125021817Y-103038427D02*
X125021870Y-103119041D01*
X125021622Y-103219956D01*
X125021583Y-103295617D01*
X125021328Y-103373526D01*
X125020684Y-103433536D01*
X125019480Y-103478264D01*
X125017543Y-103510326D01*
X125014703Y-103532340D01*
X125010788Y-103546924D01*
X125005626Y-103556694D01*
X124999045Y-103564267D01*
X124992077Y-103570501D01*
X124979079Y-103577801D01*
X124959931Y-103582554D01*
X124930528Y-103585292D01*
X124886762Y-103586545D01*
X124824528Y-103586845D01*
X124775582Y-103586469D01*
X124668722Y-103582041D01*
X124579494Y-103571953D01*
X124504696Y-103555365D01*
X124441125Y-103531435D01*
X124385579Y-103499321D01*
X124334854Y-103458182D01*
X124328866Y-103452330D01*
X124291999Y-103403821D01*
X124260899Y-103343013D01*
X124239417Y-103278769D01*
X124234136Y-103240026D01*
X124381353Y-103240026D01*
X124399635Y-103290961D01*
X124429305Y-103336878D01*
X124476002Y-103379287D01*
X124537392Y-103409090D01*
X124616538Y-103428226D01*
X124618028Y-103428464D01*
X124666999Y-103434256D01*
X124725693Y-103438396D01*
X124781734Y-103440004D01*
X124874867Y-103440089D01*
X124874867Y-102999822D01*
X124798667Y-102999808D01*
X124795639Y-102999817D01*
X124744519Y-103001782D01*
X124684416Y-103006507D01*
X124627708Y-103013035D01*
X124577750Y-103022331D01*
X124502998Y-103048600D01*
X124445489Y-103087899D01*
X124403988Y-103140933D01*
X124382771Y-103192200D01*
X124381353Y-103240026D01*
X124234136Y-103240026D01*
X124231400Y-103219956D01*
X124232679Y-103198739D01*
X124244991Y-103141323D01*
X124267520Y-103081413D01*
X124296750Y-103027363D01*
X124329167Y-102987532D01*
X124348708Y-102970510D01*
X124403420Y-102931322D01*
X124463723Y-102901193D01*
X124532919Y-102879232D01*
X124614311Y-102864550D01*
X124711200Y-102856259D01*
X124826889Y-102853467D01*
X124866371Y-102853066D01*
X124912082Y-102852653D01*
X124947883Y-102854457D01*
X124974974Y-102860739D01*
X124994556Y-102873759D01*
X125007830Y-102895778D01*
X125015998Y-102929055D01*
X125020260Y-102975851D01*
X125020857Y-102999822D01*
X125021817Y-103038427D01*
G36*
X125021817Y-103038427D02*
G01*
X125021870Y-103119041D01*
X125021622Y-103219956D01*
X125021583Y-103295617D01*
X125021328Y-103373526D01*
X125020684Y-103433536D01*
X125019480Y-103478264D01*
X125017543Y-103510326D01*
X125014703Y-103532340D01*
X125010788Y-103546924D01*
X125005626Y-103556694D01*
X124999045Y-103564267D01*
X124992077Y-103570501D01*
X124979079Y-103577801D01*
X124959931Y-103582554D01*
X124930528Y-103585292D01*
X124886762Y-103586545D01*
X124824528Y-103586845D01*
X124775582Y-103586469D01*
X124668722Y-103582041D01*
X124579494Y-103571953D01*
X124504696Y-103555365D01*
X124441125Y-103531435D01*
X124385579Y-103499321D01*
X124334854Y-103458182D01*
X124328866Y-103452330D01*
X124291999Y-103403821D01*
X124260899Y-103343013D01*
X124239417Y-103278769D01*
X124234136Y-103240026D01*
X124381353Y-103240026D01*
X124399635Y-103290961D01*
X124429305Y-103336878D01*
X124476002Y-103379287D01*
X124537392Y-103409090D01*
X124616538Y-103428226D01*
X124618028Y-103428464D01*
X124666999Y-103434256D01*
X124725693Y-103438396D01*
X124781734Y-103440004D01*
X124874867Y-103440089D01*
X124874867Y-102999822D01*
X124798667Y-102999808D01*
X124795639Y-102999817D01*
X124744519Y-103001782D01*
X124684416Y-103006507D01*
X124627708Y-103013035D01*
X124577750Y-103022331D01*
X124502998Y-103048600D01*
X124445489Y-103087899D01*
X124403988Y-103140933D01*
X124382771Y-103192200D01*
X124381353Y-103240026D01*
X124234136Y-103240026D01*
X124231400Y-103219956D01*
X124232679Y-103198739D01*
X124244991Y-103141323D01*
X124267520Y-103081413D01*
X124296750Y-103027363D01*
X124329167Y-102987532D01*
X124348708Y-102970510D01*
X124403420Y-102931322D01*
X124463723Y-102901193D01*
X124532919Y-102879232D01*
X124614311Y-102864550D01*
X124711200Y-102856259D01*
X124826889Y-102853467D01*
X124866371Y-102853066D01*
X124912082Y-102852653D01*
X124947883Y-102854457D01*
X124974974Y-102860739D01*
X124994556Y-102873759D01*
X125007830Y-102895778D01*
X125015998Y-102929055D01*
X125020260Y-102975851D01*
X125020857Y-102999822D01*
X125021817Y-103038427D01*
G37*
X120076893Y-102851892D02*
X120088301Y-102858029D01*
X120098850Y-102868691D01*
X120110136Y-102882811D01*
X120114589Y-102888772D01*
X120120588Y-102899268D01*
X120125167Y-102913093D01*
X120128519Y-102932998D01*
X120130833Y-102961732D01*
X120132301Y-103002045D01*
X120133113Y-103056687D01*
X120133460Y-103128407D01*
X120133534Y-103219956D01*
X120133511Y-103278486D01*
X120133292Y-103357573D01*
X120132683Y-103418516D01*
X120131492Y-103464062D01*
X120129529Y-103496963D01*
X120126603Y-103519968D01*
X120122523Y-103535826D01*
X120117097Y-103547286D01*
X120110136Y-103557100D01*
X120079708Y-103581493D01*
X120044765Y-103584372D01*
X120007784Y-103565282D01*
X120003600Y-103561807D01*
X119995424Y-103553279D01*
X119989364Y-103541728D01*
X119984981Y-103523896D01*
X119981839Y-103496524D01*
X119979502Y-103456354D01*
X119977531Y-103400128D01*
X119975489Y-103324589D01*
X119969845Y-103105458D01*
X119704556Y-103346099D01*
X119630722Y-103412875D01*
X119565542Y-103470991D01*
X119513348Y-103515949D01*
X119472273Y-103548871D01*
X119440455Y-103570879D01*
X119416026Y-103583094D01*
X119397124Y-103586639D01*
X119381883Y-103582636D01*
X119368439Y-103572207D01*
X119354927Y-103556474D01*
X119348682Y-103547991D01*
X119343050Y-103537413D01*
X119338839Y-103523255D01*
X119335887Y-103502803D01*
X119334032Y-103473342D01*
X119333113Y-103432161D01*
X119332968Y-103376544D01*
X119333435Y-103303779D01*
X119334352Y-103211151D01*
X119337667Y-102896199D01*
X119364318Y-102874633D01*
X119390383Y-102858441D01*
X119423241Y-102855670D01*
X119457772Y-102874623D01*
X119462084Y-102878208D01*
X119470216Y-102886737D01*
X119476245Y-102898329D01*
X119480606Y-102916235D01*
X119483734Y-102943706D01*
X119486063Y-102983994D01*
X119488029Y-103040351D01*
X119490067Y-103116029D01*
X119495711Y-103335878D01*
X119676334Y-103172084D01*
X119763072Y-103093451D01*
X119838843Y-103025058D01*
X119900980Y-102969708D01*
X119951078Y-102926338D01*
X119990735Y-102893881D01*
X120021548Y-102871273D01*
X120045114Y-102857448D01*
X120063030Y-102851343D01*
X120076893Y-102851892D01*
G36*
X120076893Y-102851892D02*
G01*
X120088301Y-102858029D01*
X120098850Y-102868691D01*
X120110136Y-102882811D01*
X120114589Y-102888772D01*
X120120588Y-102899268D01*
X120125167Y-102913093D01*
X120128519Y-102932998D01*
X120130833Y-102961732D01*
X120132301Y-103002045D01*
X120133113Y-103056687D01*
X120133460Y-103128407D01*
X120133534Y-103219956D01*
X120133511Y-103278486D01*
X120133292Y-103357573D01*
X120132683Y-103418516D01*
X120131492Y-103464062D01*
X120129529Y-103496963D01*
X120126603Y-103519968D01*
X120122523Y-103535826D01*
X120117097Y-103547286D01*
X120110136Y-103557100D01*
X120079708Y-103581493D01*
X120044765Y-103584372D01*
X120007784Y-103565282D01*
X120003600Y-103561807D01*
X119995424Y-103553279D01*
X119989364Y-103541728D01*
X119984981Y-103523896D01*
X119981839Y-103496524D01*
X119979502Y-103456354D01*
X119977531Y-103400128D01*
X119975489Y-103324589D01*
X119969845Y-103105458D01*
X119704556Y-103346099D01*
X119630722Y-103412875D01*
X119565542Y-103470991D01*
X119513348Y-103515949D01*
X119472273Y-103548871D01*
X119440455Y-103570879D01*
X119416026Y-103583094D01*
X119397124Y-103586639D01*
X119381883Y-103582636D01*
X119368439Y-103572207D01*
X119354927Y-103556474D01*
X119348682Y-103547991D01*
X119343050Y-103537413D01*
X119338839Y-103523255D01*
X119335887Y-103502803D01*
X119334032Y-103473342D01*
X119333113Y-103432161D01*
X119332968Y-103376544D01*
X119333435Y-103303779D01*
X119334352Y-103211151D01*
X119337667Y-102896199D01*
X119364318Y-102874633D01*
X119390383Y-102858441D01*
X119423241Y-102855670D01*
X119457772Y-102874623D01*
X119462084Y-102878208D01*
X119470216Y-102886737D01*
X119476245Y-102898329D01*
X119480606Y-102916235D01*
X119483734Y-102943706D01*
X119486063Y-102983994D01*
X119488029Y-103040351D01*
X119490067Y-103116029D01*
X119495711Y-103335878D01*
X119676334Y-103172084D01*
X119763072Y-103093451D01*
X119838843Y-103025058D01*
X119900980Y-102969708D01*
X119951078Y-102926338D01*
X119990735Y-102893881D01*
X120021548Y-102871273D01*
X120045114Y-102857448D01*
X120063030Y-102851343D01*
X120076893Y-102851892D01*
G37*
X120874150Y-102858179D02*
X120980157Y-102874494D01*
X121073969Y-102902545D01*
X121152765Y-102941452D01*
X121213719Y-102990334D01*
X121239789Y-103023195D01*
X121269297Y-103072394D01*
X121294568Y-103126252D01*
X121312218Y-103177419D01*
X121318858Y-103218544D01*
X121317298Y-103238259D01*
X121304357Y-103289592D01*
X121281194Y-103346118D01*
X121251302Y-103400035D01*
X121218173Y-103443539D01*
X121207977Y-103453887D01*
X121140892Y-103505662D01*
X121060766Y-103545554D01*
X120974556Y-103569956D01*
X120919592Y-103578068D01*
X120826139Y-103584673D01*
X120736358Y-103582586D01*
X120653869Y-103572340D01*
X120582286Y-103554470D01*
X120525228Y-103529508D01*
X120486311Y-103497988D01*
X120484936Y-103496012D01*
X120477848Y-103470786D01*
X120473609Y-103423535D01*
X120472200Y-103354071D01*
X120473060Y-103291838D01*
X120477780Y-103244456D01*
X120489470Y-103212353D01*
X120511239Y-103192800D01*
X120546198Y-103183070D01*
X120597456Y-103180433D01*
X120668123Y-103182161D01*
X120716743Y-103185173D01*
X120766939Y-103193366D01*
X120799433Y-103207419D01*
X120816892Y-103228654D01*
X120821983Y-103258394D01*
X120821877Y-103262936D01*
X120813175Y-103297730D01*
X120789165Y-103321147D01*
X120747900Y-103334347D01*
X120687431Y-103338489D01*
X120618956Y-103338489D01*
X120618956Y-103376841D01*
X120619006Y-103385976D01*
X120621227Y-103403227D01*
X120630494Y-103413521D01*
X120651875Y-103420459D01*
X120690436Y-103427641D01*
X120695910Y-103428575D01*
X120792860Y-103438478D01*
X120882852Y-103435559D01*
X120963760Y-103420829D01*
X121033459Y-103395299D01*
X121089824Y-103359978D01*
X121130729Y-103315879D01*
X121154051Y-103264012D01*
X121157663Y-103205388D01*
X121152145Y-103176494D01*
X121125461Y-103120604D01*
X121079273Y-103074945D01*
X121014291Y-103040108D01*
X120931229Y-103016690D01*
X120906555Y-103012241D01*
X120817226Y-103001742D01*
X120737419Y-103002971D01*
X120659326Y-103015906D01*
X120624183Y-103022696D01*
X120578745Y-103023713D01*
X120547430Y-103011182D01*
X120527277Y-102984395D01*
X120520893Y-102956148D01*
X120530379Y-102924924D01*
X120539708Y-102911499D01*
X120573943Y-102887967D01*
X120626565Y-102870095D01*
X120695081Y-102858599D01*
X120777000Y-102854192D01*
X120874150Y-102858179D01*
G36*
X120874150Y-102858179D02*
G01*
X120980157Y-102874494D01*
X121073969Y-102902545D01*
X121152765Y-102941452D01*
X121213719Y-102990334D01*
X121239789Y-103023195D01*
X121269297Y-103072394D01*
X121294568Y-103126252D01*
X121312218Y-103177419D01*
X121318858Y-103218544D01*
X121317298Y-103238259D01*
X121304357Y-103289592D01*
X121281194Y-103346118D01*
X121251302Y-103400035D01*
X121218173Y-103443539D01*
X121207977Y-103453887D01*
X121140892Y-103505662D01*
X121060766Y-103545554D01*
X120974556Y-103569956D01*
X120919592Y-103578068D01*
X120826139Y-103584673D01*
X120736358Y-103582586D01*
X120653869Y-103572340D01*
X120582286Y-103554470D01*
X120525228Y-103529508D01*
X120486311Y-103497988D01*
X120484936Y-103496012D01*
X120477848Y-103470786D01*
X120473609Y-103423535D01*
X120472200Y-103354071D01*
X120473060Y-103291838D01*
X120477780Y-103244456D01*
X120489470Y-103212353D01*
X120511239Y-103192800D01*
X120546198Y-103183070D01*
X120597456Y-103180433D01*
X120668123Y-103182161D01*
X120716743Y-103185173D01*
X120766939Y-103193366D01*
X120799433Y-103207419D01*
X120816892Y-103228654D01*
X120821983Y-103258394D01*
X120821877Y-103262936D01*
X120813175Y-103297730D01*
X120789165Y-103321147D01*
X120747900Y-103334347D01*
X120687431Y-103338489D01*
X120618956Y-103338489D01*
X120618956Y-103376841D01*
X120619006Y-103385976D01*
X120621227Y-103403227D01*
X120630494Y-103413521D01*
X120651875Y-103420459D01*
X120690436Y-103427641D01*
X120695910Y-103428575D01*
X120792860Y-103438478D01*
X120882852Y-103435559D01*
X120963760Y-103420829D01*
X121033459Y-103395299D01*
X121089824Y-103359978D01*
X121130729Y-103315879D01*
X121154051Y-103264012D01*
X121157663Y-103205388D01*
X121152145Y-103176494D01*
X121125461Y-103120604D01*
X121079273Y-103074945D01*
X121014291Y-103040108D01*
X120931229Y-103016690D01*
X120906555Y-103012241D01*
X120817226Y-103001742D01*
X120737419Y-103002971D01*
X120659326Y-103015906D01*
X120624183Y-103022696D01*
X120578745Y-103023713D01*
X120547430Y-103011182D01*
X120527277Y-102984395D01*
X120520893Y-102956148D01*
X120530379Y-102924924D01*
X120539708Y-102911499D01*
X120573943Y-102887967D01*
X120626565Y-102870095D01*
X120695081Y-102858599D01*
X120777000Y-102854192D01*
X120874150Y-102858179D01*
G37*
X118924803Y-102882811D02*
X118929752Y-102889495D01*
X118935596Y-102900066D01*
X118940057Y-102914153D01*
X118943321Y-102934478D01*
X118945574Y-102963765D01*
X118947002Y-103004737D01*
X118947792Y-103060117D01*
X118948129Y-103132628D01*
X118948200Y-103224994D01*
X118948171Y-103290911D01*
X118947939Y-103369228D01*
X118947319Y-103429496D01*
X118946126Y-103474393D01*
X118944179Y-103506602D01*
X118941294Y-103528800D01*
X118937288Y-103543669D01*
X118931979Y-103553889D01*
X118925183Y-103562138D01*
X118920668Y-103566795D01*
X118912438Y-103573282D01*
X118901078Y-103578194D01*
X118883810Y-103581749D01*
X118857855Y-103584167D01*
X118820436Y-103585667D01*
X118768773Y-103586467D01*
X118700089Y-103586787D01*
X118611606Y-103586845D01*
X118591931Y-103586838D01*
X118504906Y-103586572D01*
X118437254Y-103585806D01*
X118386299Y-103584392D01*
X118349367Y-103582180D01*
X118323783Y-103579022D01*
X118306871Y-103574769D01*
X118295957Y-103569271D01*
X118285464Y-103559285D01*
X118272203Y-103528168D01*
X118273386Y-103492280D01*
X118289550Y-103460733D01*
X118291739Y-103458457D01*
X118300427Y-103452189D01*
X118313769Y-103447523D01*
X118334752Y-103444227D01*
X118366363Y-103442068D01*
X118411590Y-103440814D01*
X118473420Y-103440231D01*
X118554839Y-103440089D01*
X118801445Y-103440089D01*
X118801445Y-103282045D01*
X118639006Y-103282045D01*
X118603338Y-103281964D01*
X118547568Y-103281167D01*
X118508430Y-103279162D01*
X118481976Y-103275521D01*
X118464259Y-103269812D01*
X118451329Y-103261607D01*
X118447686Y-103258423D01*
X118429278Y-103227448D01*
X118428644Y-103191112D01*
X118446183Y-103157493D01*
X118446245Y-103157424D01*
X118455916Y-103148798D01*
X118469209Y-103142742D01*
X118489917Y-103138811D01*
X118521828Y-103136556D01*
X118568734Y-103135531D01*
X118634424Y-103135289D01*
X118802571Y-103135289D01*
X118799186Y-103070378D01*
X118795800Y-103005467D01*
X118553723Y-103002414D01*
X118528707Y-103002086D01*
X118447087Y-103000606D01*
X118384768Y-102998222D01*
X118339154Y-102994227D01*
X118307652Y-102987913D01*
X118287667Y-102978574D01*
X118276604Y-102965503D01*
X118271869Y-102947992D01*
X118270867Y-102925335D01*
X118270873Y-102922970D01*
X118272027Y-102902939D01*
X118276824Y-102887146D01*
X118287632Y-102875090D01*
X118306817Y-102866267D01*
X118336745Y-102860175D01*
X118379783Y-102856311D01*
X118438299Y-102854174D01*
X118514657Y-102853260D01*
X118611226Y-102853067D01*
X118901406Y-102853067D01*
X118924803Y-102882811D01*
G36*
X118924803Y-102882811D02*
G01*
X118929752Y-102889495D01*
X118935596Y-102900066D01*
X118940057Y-102914153D01*
X118943321Y-102934478D01*
X118945574Y-102963765D01*
X118947002Y-103004737D01*
X118947792Y-103060117D01*
X118948129Y-103132628D01*
X118948200Y-103224994D01*
X118948171Y-103290911D01*
X118947939Y-103369228D01*
X118947319Y-103429496D01*
X118946126Y-103474393D01*
X118944179Y-103506602D01*
X118941294Y-103528800D01*
X118937288Y-103543669D01*
X118931979Y-103553889D01*
X118925183Y-103562138D01*
X118920668Y-103566795D01*
X118912438Y-103573282D01*
X118901078Y-103578194D01*
X118883810Y-103581749D01*
X118857855Y-103584167D01*
X118820436Y-103585667D01*
X118768773Y-103586467D01*
X118700089Y-103586787D01*
X118611606Y-103586845D01*
X118591931Y-103586838D01*
X118504906Y-103586572D01*
X118437254Y-103585806D01*
X118386299Y-103584392D01*
X118349367Y-103582180D01*
X118323783Y-103579022D01*
X118306871Y-103574769D01*
X118295957Y-103569271D01*
X118285464Y-103559285D01*
X118272203Y-103528168D01*
X118273386Y-103492280D01*
X118289550Y-103460733D01*
X118291739Y-103458457D01*
X118300427Y-103452189D01*
X118313769Y-103447523D01*
X118334752Y-103444227D01*
X118366363Y-103442068D01*
X118411590Y-103440814D01*
X118473420Y-103440231D01*
X118554839Y-103440089D01*
X118801445Y-103440089D01*
X118801445Y-103282045D01*
X118639006Y-103282045D01*
X118603338Y-103281964D01*
X118547568Y-103281167D01*
X118508430Y-103279162D01*
X118481976Y-103275521D01*
X118464259Y-103269812D01*
X118451329Y-103261607D01*
X118447686Y-103258423D01*
X118429278Y-103227448D01*
X118428644Y-103191112D01*
X118446183Y-103157493D01*
X118446245Y-103157424D01*
X118455916Y-103148798D01*
X118469209Y-103142742D01*
X118489917Y-103138811D01*
X118521828Y-103136556D01*
X118568734Y-103135531D01*
X118634424Y-103135289D01*
X118802571Y-103135289D01*
X118799186Y-103070378D01*
X118795800Y-103005467D01*
X118553723Y-103002414D01*
X118528707Y-103002086D01*
X118447087Y-103000606D01*
X118384768Y-102998222D01*
X118339154Y-102994227D01*
X118307652Y-102987913D01*
X118287667Y-102978574D01*
X118276604Y-102965503D01*
X118271869Y-102947992D01*
X118270867Y-102925335D01*
X118270873Y-102922970D01*
X118272027Y-102902939D01*
X118276824Y-102887146D01*
X118287632Y-102875090D01*
X118306817Y-102866267D01*
X118336745Y-102860175D01*
X118379783Y-102856311D01*
X118438299Y-102854174D01*
X118514657Y-102853260D01*
X118611226Y-102853067D01*
X118901406Y-102853067D01*
X118924803Y-102882811D01*
G37*
X123601734Y-102853083D02*
X123678831Y-102853275D01*
X123737777Y-102853860D01*
X123781364Y-102855051D01*
X123812383Y-102857064D01*
X123833625Y-102860112D01*
X123847882Y-102864409D01*
X123857945Y-102870172D01*
X123866606Y-102877612D01*
X123868391Y-102879293D01*
X123875635Y-102886832D01*
X123881277Y-102895850D01*
X123885517Y-102908984D01*
X123888556Y-102928872D01*
X123890594Y-102958151D01*
X123891830Y-102999458D01*
X123892465Y-103055431D01*
X123892700Y-103128707D01*
X123892734Y-103221923D01*
X123892697Y-103294713D01*
X123892448Y-103372889D01*
X123891812Y-103433103D01*
X123890615Y-103477982D01*
X123888684Y-103510152D01*
X123885846Y-103532239D01*
X123881927Y-103546870D01*
X123876755Y-103556670D01*
X123870156Y-103564267D01*
X123866822Y-103567444D01*
X123858300Y-103573554D01*
X123846298Y-103578229D01*
X123828087Y-103581659D01*
X123800940Y-103584036D01*
X123762129Y-103585552D01*
X123708924Y-103586398D01*
X123638598Y-103586765D01*
X123548422Y-103586845D01*
X123506314Y-103586833D01*
X123425167Y-103586651D01*
X123362675Y-103586098D01*
X123316109Y-103584982D01*
X123282741Y-103583113D01*
X123259844Y-103580298D01*
X123244688Y-103576346D01*
X123234546Y-103571066D01*
X123226689Y-103564267D01*
X123211963Y-103542667D01*
X123204111Y-103513467D01*
X123209610Y-103489560D01*
X123226689Y-103462667D01*
X123231668Y-103458059D01*
X123241443Y-103451772D01*
X123255559Y-103447146D01*
X123277054Y-103443930D01*
X123308968Y-103441870D01*
X123354342Y-103440712D01*
X123416213Y-103440202D01*
X123497622Y-103440089D01*
X123745978Y-103440089D01*
X123745978Y-103282045D01*
X123584801Y-103282045D01*
X123548983Y-103281899D01*
X123483359Y-103280176D01*
X123436118Y-103275741D01*
X123404383Y-103267637D01*
X123385277Y-103254906D01*
X123375923Y-103236592D01*
X123373445Y-103211738D01*
X123374242Y-103191482D01*
X123379494Y-103169656D01*
X123392288Y-103154304D01*
X123415628Y-103144309D01*
X123452517Y-103138553D01*
X123505959Y-103135919D01*
X123578958Y-103135289D01*
X123747105Y-103135289D01*
X123743719Y-103070378D01*
X123740334Y-103005467D01*
X123492617Y-103002418D01*
X123430026Y-103001539D01*
X123361565Y-103000095D01*
X123310661Y-102998164D01*
X123274408Y-102995514D01*
X123249901Y-102991910D01*
X123234235Y-102987121D01*
X123224506Y-102980913D01*
X123218491Y-102974510D01*
X123205482Y-102942828D01*
X123209043Y-102907142D01*
X123228818Y-102876084D01*
X123232069Y-102873161D01*
X123241049Y-102866810D01*
X123253153Y-102861957D01*
X123271159Y-102858403D01*
X123297847Y-102855946D01*
X123335997Y-102854385D01*
X123388386Y-102853518D01*
X123457794Y-102853146D01*
X123547001Y-102853067D01*
X123601734Y-102853083D01*
G36*
X123601734Y-102853083D02*
G01*
X123678831Y-102853275D01*
X123737777Y-102853860D01*
X123781364Y-102855051D01*
X123812383Y-102857064D01*
X123833625Y-102860112D01*
X123847882Y-102864409D01*
X123857945Y-102870172D01*
X123866606Y-102877612D01*
X123868391Y-102879293D01*
X123875635Y-102886832D01*
X123881277Y-102895850D01*
X123885517Y-102908984D01*
X123888556Y-102928872D01*
X123890594Y-102958151D01*
X123891830Y-102999458D01*
X123892465Y-103055431D01*
X123892700Y-103128707D01*
X123892734Y-103221923D01*
X123892697Y-103294713D01*
X123892448Y-103372889D01*
X123891812Y-103433103D01*
X123890615Y-103477982D01*
X123888684Y-103510152D01*
X123885846Y-103532239D01*
X123881927Y-103546870D01*
X123876755Y-103556670D01*
X123870156Y-103564267D01*
X123866822Y-103567444D01*
X123858300Y-103573554D01*
X123846298Y-103578229D01*
X123828087Y-103581659D01*
X123800940Y-103584036D01*
X123762129Y-103585552D01*
X123708924Y-103586398D01*
X123638598Y-103586765D01*
X123548422Y-103586845D01*
X123506314Y-103586833D01*
X123425167Y-103586651D01*
X123362675Y-103586098D01*
X123316109Y-103584982D01*
X123282741Y-103583113D01*
X123259844Y-103580298D01*
X123244688Y-103576346D01*
X123234546Y-103571066D01*
X123226689Y-103564267D01*
X123211963Y-103542667D01*
X123204111Y-103513467D01*
X123209610Y-103489560D01*
X123226689Y-103462667D01*
X123231668Y-103458059D01*
X123241443Y-103451772D01*
X123255559Y-103447146D01*
X123277054Y-103443930D01*
X123308968Y-103441870D01*
X123354342Y-103440712D01*
X123416213Y-103440202D01*
X123497622Y-103440089D01*
X123745978Y-103440089D01*
X123745978Y-103282045D01*
X123584801Y-103282045D01*
X123548983Y-103281899D01*
X123483359Y-103280176D01*
X123436118Y-103275741D01*
X123404383Y-103267637D01*
X123385277Y-103254906D01*
X123375923Y-103236592D01*
X123373445Y-103211738D01*
X123374242Y-103191482D01*
X123379494Y-103169656D01*
X123392288Y-103154304D01*
X123415628Y-103144309D01*
X123452517Y-103138553D01*
X123505959Y-103135919D01*
X123578958Y-103135289D01*
X123747105Y-103135289D01*
X123743719Y-103070378D01*
X123740334Y-103005467D01*
X123492617Y-103002418D01*
X123430026Y-103001539D01*
X123361565Y-103000095D01*
X123310661Y-102998164D01*
X123274408Y-102995514D01*
X123249901Y-102991910D01*
X123234235Y-102987121D01*
X123224506Y-102980913D01*
X123218491Y-102974510D01*
X123205482Y-102942828D01*
X123209043Y-102907142D01*
X123228818Y-102876084D01*
X123232069Y-102873161D01*
X123241049Y-102866810D01*
X123253153Y-102861957D01*
X123271159Y-102858403D01*
X123297847Y-102855946D01*
X123335997Y-102854385D01*
X123388386Y-102853518D01*
X123457794Y-102853146D01*
X123547001Y-102853067D01*
X123601734Y-102853083D01*
G37*
X115034702Y-102862478D02*
X115052663Y-102880989D01*
X115073263Y-102912071D01*
X115098095Y-102957756D01*
X115128750Y-103020078D01*
X115166820Y-103101071D01*
X115181454Y-103132454D01*
X115211203Y-103195638D01*
X115237297Y-103250244D01*
X115258292Y-103293290D01*
X115272739Y-103321793D01*
X115279191Y-103332770D01*
X115280550Y-103332189D01*
X115290542Y-103318242D01*
X115307833Y-103288704D01*
X115330430Y-103247087D01*
X115356338Y-103196903D01*
X115372311Y-103165414D01*
X115401261Y-103110061D01*
X115423749Y-103071044D01*
X115441965Y-103045566D01*
X115458096Y-103030831D01*
X115474330Y-103024042D01*
X115492857Y-103022400D01*
X115503360Y-103022875D01*
X115519476Y-103027082D01*
X115534790Y-103037946D01*
X115551388Y-103058219D01*
X115571357Y-103090654D01*
X115596783Y-103138004D01*
X115629752Y-103203022D01*
X115639485Y-103222277D01*
X115663943Y-103268946D01*
X115684178Y-103305109D01*
X115698311Y-103327497D01*
X115704460Y-103332845D01*
X115705827Y-103329573D01*
X115715202Y-103308664D01*
X115732062Y-103271725D01*
X115754979Y-103221874D01*
X115782520Y-103162226D01*
X115813255Y-103095898D01*
X115839970Y-103038677D01*
X115869593Y-102976688D01*
X115892664Y-102930949D01*
X115910643Y-102898908D01*
X115924990Y-102878014D01*
X115937166Y-102865718D01*
X115948632Y-102859466D01*
X115958042Y-102856574D01*
X115983147Y-102856425D01*
X116010290Y-102871768D01*
X116011590Y-102872753D01*
X116033674Y-102895388D01*
X116044723Y-102917613D01*
X116044769Y-102918253D01*
X116040228Y-102935915D01*
X116027364Y-102970481D01*
X116007605Y-103018826D01*
X115982381Y-103077825D01*
X115953119Y-103144355D01*
X115921250Y-103215291D01*
X115888201Y-103287507D01*
X115855401Y-103357880D01*
X115824280Y-103423285D01*
X115796265Y-103480597D01*
X115772786Y-103526692D01*
X115755272Y-103558446D01*
X115745151Y-103572733D01*
X115710743Y-103586102D01*
X115669046Y-103579741D01*
X115663681Y-103575044D01*
X115647852Y-103552893D01*
X115625650Y-103516132D01*
X115599233Y-103468415D01*
X115570760Y-103413393D01*
X115490986Y-103254150D01*
X115417799Y-103400742D01*
X115408103Y-103420032D01*
X115381125Y-103472380D01*
X115357096Y-103517170D01*
X115338332Y-103550154D01*
X115327146Y-103567089D01*
X115326000Y-103568332D01*
X115297879Y-103583619D01*
X115262817Y-103585302D01*
X115231776Y-103572733D01*
X115229350Y-103569884D01*
X115217090Y-103549259D01*
X115197352Y-103511708D01*
X115171448Y-103459880D01*
X115140685Y-103396423D01*
X115106375Y-103323985D01*
X115069825Y-103245216D01*
X115049585Y-103201093D01*
X115012812Y-103120365D01*
X114984355Y-103056687D01*
X114963331Y-103007752D01*
X114948854Y-102971257D01*
X114940039Y-102944895D01*
X114936004Y-102926361D01*
X114935862Y-102913352D01*
X114938730Y-102903561D01*
X114953387Y-102882678D01*
X114979990Y-102862377D01*
X114980745Y-102862035D01*
X115000335Y-102855034D01*
X115017790Y-102854504D01*
X115034702Y-102862478D01*
G36*
X115034702Y-102862478D02*
G01*
X115052663Y-102880989D01*
X115073263Y-102912071D01*
X115098095Y-102957756D01*
X115128750Y-103020078D01*
X115166820Y-103101071D01*
X115181454Y-103132454D01*
X115211203Y-103195638D01*
X115237297Y-103250244D01*
X115258292Y-103293290D01*
X115272739Y-103321793D01*
X115279191Y-103332770D01*
X115280550Y-103332189D01*
X115290542Y-103318242D01*
X115307833Y-103288704D01*
X115330430Y-103247087D01*
X115356338Y-103196903D01*
X115372311Y-103165414D01*
X115401261Y-103110061D01*
X115423749Y-103071044D01*
X115441965Y-103045566D01*
X115458096Y-103030831D01*
X115474330Y-103024042D01*
X115492857Y-103022400D01*
X115503360Y-103022875D01*
X115519476Y-103027082D01*
X115534790Y-103037946D01*
X115551388Y-103058219D01*
X115571357Y-103090654D01*
X115596783Y-103138004D01*
X115629752Y-103203022D01*
X115639485Y-103222277D01*
X115663943Y-103268946D01*
X115684178Y-103305109D01*
X115698311Y-103327497D01*
X115704460Y-103332845D01*
X115705827Y-103329573D01*
X115715202Y-103308664D01*
X115732062Y-103271725D01*
X115754979Y-103221874D01*
X115782520Y-103162226D01*
X115813255Y-103095898D01*
X115839970Y-103038677D01*
X115869593Y-102976688D01*
X115892664Y-102930949D01*
X115910643Y-102898908D01*
X115924990Y-102878014D01*
X115937166Y-102865718D01*
X115948632Y-102859466D01*
X115958042Y-102856574D01*
X115983147Y-102856425D01*
X116010290Y-102871768D01*
X116011590Y-102872753D01*
X116033674Y-102895388D01*
X116044723Y-102917613D01*
X116044769Y-102918253D01*
X116040228Y-102935915D01*
X116027364Y-102970481D01*
X116007605Y-103018826D01*
X115982381Y-103077825D01*
X115953119Y-103144355D01*
X115921250Y-103215291D01*
X115888201Y-103287507D01*
X115855401Y-103357880D01*
X115824280Y-103423285D01*
X115796265Y-103480597D01*
X115772786Y-103526692D01*
X115755272Y-103558446D01*
X115745151Y-103572733D01*
X115710743Y-103586102D01*
X115669046Y-103579741D01*
X115663681Y-103575044D01*
X115647852Y-103552893D01*
X115625650Y-103516132D01*
X115599233Y-103468415D01*
X115570760Y-103413393D01*
X115490986Y-103254150D01*
X115417799Y-103400742D01*
X115408103Y-103420032D01*
X115381125Y-103472380D01*
X115357096Y-103517170D01*
X115338332Y-103550154D01*
X115327146Y-103567089D01*
X115326000Y-103568332D01*
X115297879Y-103583619D01*
X115262817Y-103585302D01*
X115231776Y-103572733D01*
X115229350Y-103569884D01*
X115217090Y-103549259D01*
X115197352Y-103511708D01*
X115171448Y-103459880D01*
X115140685Y-103396423D01*
X115106375Y-103323985D01*
X115069825Y-103245216D01*
X115049585Y-103201093D01*
X115012812Y-103120365D01*
X114984355Y-103056687D01*
X114963331Y-103007752D01*
X114948854Y-102971257D01*
X114940039Y-102944895D01*
X114936004Y-102926361D01*
X114935862Y-102913352D01*
X114938730Y-102903561D01*
X114953387Y-102882678D01*
X114979990Y-102862377D01*
X114980745Y-102862035D01*
X115000335Y-102855034D01*
X115017790Y-102854504D01*
X115034702Y-102862478D01*
G37*
X122585853Y-102853936D02*
X122652100Y-102859366D01*
X122707400Y-102868964D01*
X122758283Y-102883825D01*
X122829595Y-102916958D01*
X122880752Y-102959640D01*
X122911575Y-103011705D01*
X122921889Y-103072983D01*
X122920952Y-103104232D01*
X122915160Y-103129029D01*
X122900353Y-103150699D01*
X122872380Y-103178049D01*
X122864402Y-103185378D01*
X122840692Y-103206281D01*
X122818298Y-103223251D01*
X122794265Y-103237205D01*
X122765637Y-103249056D01*
X122729460Y-103259720D01*
X122682780Y-103270111D01*
X122622641Y-103281146D01*
X122546090Y-103293738D01*
X122450171Y-103308804D01*
X122431808Y-103311838D01*
X122369478Y-103325458D01*
X122324260Y-103341192D01*
X122297976Y-103358263D01*
X122292447Y-103375897D01*
X122295068Y-103380168D01*
X122313000Y-103395233D01*
X122341126Y-103411867D01*
X122353926Y-103417857D01*
X122375224Y-103425050D01*
X122401610Y-103429827D01*
X122437454Y-103432646D01*
X122487128Y-103433964D01*
X122555000Y-103434237D01*
X122572785Y-103434164D01*
X122640406Y-103433053D01*
X122705345Y-103430828D01*
X122760970Y-103427762D01*
X122800651Y-103424127D01*
X122836162Y-103420059D01*
X122865415Y-103419276D01*
X122884315Y-103423876D01*
X122899429Y-103434551D01*
X122903085Y-103438144D01*
X122919427Y-103469918D01*
X122918107Y-103505572D01*
X122899150Y-103536190D01*
X122878780Y-103547796D01*
X122842796Y-103560491D01*
X122800372Y-103570541D01*
X122796922Y-103571140D01*
X122754252Y-103576356D01*
X122696866Y-103580730D01*
X122631849Y-103583818D01*
X122566289Y-103585177D01*
X122550057Y-103585218D01*
X122451744Y-103582741D01*
X122371692Y-103574735D01*
X122306513Y-103560203D01*
X122252817Y-103538149D01*
X122207216Y-103507576D01*
X122166323Y-103467486D01*
X122146202Y-103441259D01*
X122134576Y-103411712D01*
X122131667Y-103371995D01*
X122131808Y-103360026D01*
X122135681Y-103327345D01*
X122148065Y-103300819D01*
X122173230Y-103269971D01*
X122194442Y-103247831D01*
X122220838Y-103225285D01*
X122250555Y-103206917D01*
X122286785Y-103191661D01*
X122332717Y-103178449D01*
X122391544Y-103166214D01*
X122466456Y-103153889D01*
X122560645Y-103140406D01*
X122605957Y-103133396D01*
X122673911Y-103118837D01*
X122723047Y-103102337D01*
X122752614Y-103084439D01*
X122761864Y-103065685D01*
X122750048Y-103046615D01*
X122716416Y-103027771D01*
X122713370Y-103026557D01*
X122667011Y-103014479D01*
X122604361Y-103006279D01*
X122530927Y-103002119D01*
X122452217Y-103002161D01*
X122373739Y-103006569D01*
X122301000Y-103015505D01*
X122297073Y-103016154D01*
X122248257Y-103023861D01*
X122216005Y-103027473D01*
X122195008Y-103026876D01*
X122179954Y-103021954D01*
X122165534Y-103012596D01*
X122164364Y-103011725D01*
X122139847Y-102981351D01*
X122135054Y-102945850D01*
X122150860Y-102911269D01*
X122155406Y-102906813D01*
X122185020Y-102891673D01*
X122232002Y-102878550D01*
X122292306Y-102867750D01*
X122361888Y-102859581D01*
X122436703Y-102854351D01*
X122512706Y-102852367D01*
X122585853Y-102853936D01*
G36*
X122585853Y-102853936D02*
G01*
X122652100Y-102859366D01*
X122707400Y-102868964D01*
X122758283Y-102883825D01*
X122829595Y-102916958D01*
X122880752Y-102959640D01*
X122911575Y-103011705D01*
X122921889Y-103072983D01*
X122920952Y-103104232D01*
X122915160Y-103129029D01*
X122900353Y-103150699D01*
X122872380Y-103178049D01*
X122864402Y-103185378D01*
X122840692Y-103206281D01*
X122818298Y-103223251D01*
X122794265Y-103237205D01*
X122765637Y-103249056D01*
X122729460Y-103259720D01*
X122682780Y-103270111D01*
X122622641Y-103281146D01*
X122546090Y-103293738D01*
X122450171Y-103308804D01*
X122431808Y-103311838D01*
X122369478Y-103325458D01*
X122324260Y-103341192D01*
X122297976Y-103358263D01*
X122292447Y-103375897D01*
X122295068Y-103380168D01*
X122313000Y-103395233D01*
X122341126Y-103411867D01*
X122353926Y-103417857D01*
X122375224Y-103425050D01*
X122401610Y-103429827D01*
X122437454Y-103432646D01*
X122487128Y-103433964D01*
X122555000Y-103434237D01*
X122572785Y-103434164D01*
X122640406Y-103433053D01*
X122705345Y-103430828D01*
X122760970Y-103427762D01*
X122800651Y-103424127D01*
X122836162Y-103420059D01*
X122865415Y-103419276D01*
X122884315Y-103423876D01*
X122899429Y-103434551D01*
X122903085Y-103438144D01*
X122919427Y-103469918D01*
X122918107Y-103505572D01*
X122899150Y-103536190D01*
X122878780Y-103547796D01*
X122842796Y-103560491D01*
X122800372Y-103570541D01*
X122796922Y-103571140D01*
X122754252Y-103576356D01*
X122696866Y-103580730D01*
X122631849Y-103583818D01*
X122566289Y-103585177D01*
X122550057Y-103585218D01*
X122451744Y-103582741D01*
X122371692Y-103574735D01*
X122306513Y-103560203D01*
X122252817Y-103538149D01*
X122207216Y-103507576D01*
X122166323Y-103467486D01*
X122146202Y-103441259D01*
X122134576Y-103411712D01*
X122131667Y-103371995D01*
X122131808Y-103360026D01*
X122135681Y-103327345D01*
X122148065Y-103300819D01*
X122173230Y-103269971D01*
X122194442Y-103247831D01*
X122220838Y-103225285D01*
X122250555Y-103206917D01*
X122286785Y-103191661D01*
X122332717Y-103178449D01*
X122391544Y-103166214D01*
X122466456Y-103153889D01*
X122560645Y-103140406D01*
X122605957Y-103133396D01*
X122673911Y-103118837D01*
X122723047Y-103102337D01*
X122752614Y-103084439D01*
X122761864Y-103065685D01*
X122750048Y-103046615D01*
X122716416Y-103027771D01*
X122713370Y-103026557D01*
X122667011Y-103014479D01*
X122604361Y-103006279D01*
X122530927Y-103002119D01*
X122452217Y-103002161D01*
X122373739Y-103006569D01*
X122301000Y-103015505D01*
X122297073Y-103016154D01*
X122248257Y-103023861D01*
X122216005Y-103027473D01*
X122195008Y-103026876D01*
X122179954Y-103021954D01*
X122165534Y-103012596D01*
X122164364Y-103011725D01*
X122139847Y-102981351D01*
X122135054Y-102945850D01*
X122150860Y-102911269D01*
X122155406Y-102906813D01*
X122185020Y-102891673D01*
X122232002Y-102878550D01*
X122292306Y-102867750D01*
X122361888Y-102859581D01*
X122436703Y-102854351D01*
X122512706Y-102852367D01*
X122585853Y-102853936D01*
G37*
X118733711Y-98546033D02*
X118829268Y-98563523D01*
X118993558Y-98608564D01*
X119147589Y-98671656D01*
X119293509Y-98753915D01*
X119433466Y-98856457D01*
X119569608Y-98980399D01*
X119613473Y-99025661D01*
X119725758Y-99157865D01*
X119818972Y-99295832D01*
X119895719Y-99443750D01*
X119958603Y-99605803D01*
X119962420Y-99617391D01*
X120012507Y-99803392D01*
X120045899Y-99999521D01*
X120062584Y-100201568D01*
X120062551Y-100405325D01*
X120045791Y-100606581D01*
X120012292Y-100801128D01*
X119962044Y-100984756D01*
X119918190Y-101102053D01*
X119840348Y-101264951D01*
X119746828Y-101418866D01*
X119639822Y-101560671D01*
X119521519Y-101687239D01*
X119394111Y-101795441D01*
X119316606Y-101848120D01*
X119189725Y-101917750D01*
X119052243Y-101976468D01*
X118910716Y-102021587D01*
X118771702Y-102050422D01*
X118757597Y-102052106D01*
X118714153Y-102055434D01*
X118656723Y-102058275D01*
X118591122Y-102060373D01*
X118523167Y-102061468D01*
X118396378Y-102059140D01*
X118248673Y-102046136D01*
X118110779Y-102021133D01*
X117977014Y-101983318D01*
X117953562Y-101974889D01*
X117905612Y-101955408D01*
X117849140Y-101930473D01*
X117787379Y-101901722D01*
X117723563Y-101870790D01*
X117660926Y-101839315D01*
X117602703Y-101808934D01*
X117552127Y-101781283D01*
X117512433Y-101757999D01*
X117486854Y-101740718D01*
X117478625Y-101731079D01*
X117480076Y-101727984D01*
X117491250Y-101708079D01*
X117512134Y-101672420D01*
X117541265Y-101623459D01*
X117577181Y-101563646D01*
X117618420Y-101495433D01*
X117663517Y-101421271D01*
X117844785Y-101124008D01*
X117891315Y-101168539D01*
X117982723Y-101246865D01*
X118096334Y-101321439D01*
X118214122Y-101375474D01*
X118334559Y-101408290D01*
X118456117Y-101419211D01*
X118497585Y-101417868D01*
X118615080Y-101399612D01*
X118725089Y-101360617D01*
X118826430Y-101301670D01*
X118917921Y-101223557D01*
X118998380Y-101127064D01*
X119066627Y-101012978D01*
X119082908Y-100978724D01*
X119128982Y-100855240D01*
X119164106Y-100716918D01*
X119188197Y-100567561D01*
X119201173Y-100410973D01*
X119202949Y-100250956D01*
X119193443Y-100091314D01*
X119172572Y-99935850D01*
X119140252Y-99788366D01*
X119096399Y-99652667D01*
X119058982Y-99566076D01*
X118994185Y-99452688D01*
X118918772Y-99359070D01*
X118832418Y-99284959D01*
X118734795Y-99230094D01*
X118625577Y-99194212D01*
X118504439Y-99177051D01*
X118435038Y-99175880D01*
X118312168Y-99190141D01*
X118196664Y-99225241D01*
X118089953Y-99280682D01*
X117993464Y-99355964D01*
X117977720Y-99370440D01*
X117947150Y-99396962D01*
X117924809Y-99414138D01*
X117914691Y-99418787D01*
X117912706Y-99416597D01*
X117898241Y-99397721D01*
X117874400Y-99364397D01*
X117843029Y-99319380D01*
X117805974Y-99265425D01*
X117765083Y-99205285D01*
X117722202Y-99141718D01*
X117679178Y-99077476D01*
X117637857Y-99015315D01*
X117600086Y-98957991D01*
X117567712Y-98908257D01*
X117542582Y-98868868D01*
X117526542Y-98842580D01*
X117521439Y-98832147D01*
X117526050Y-98827941D01*
X117545267Y-98822933D01*
X117554838Y-98820386D01*
X117582809Y-98809249D01*
X117624448Y-98790802D01*
X117675995Y-98766725D01*
X117733690Y-98738699D01*
X117744957Y-98733154D01*
X117922687Y-98653889D01*
X118092490Y-98594385D01*
X118256430Y-98554245D01*
X118416571Y-98533071D01*
X118574977Y-98530466D01*
X118733711Y-98546033D01*
G36*
X118733711Y-98546033D02*
G01*
X118829268Y-98563523D01*
X118993558Y-98608564D01*
X119147589Y-98671656D01*
X119293509Y-98753915D01*
X119433466Y-98856457D01*
X119569608Y-98980399D01*
X119613473Y-99025661D01*
X119725758Y-99157865D01*
X119818972Y-99295832D01*
X119895719Y-99443750D01*
X119958603Y-99605803D01*
X119962420Y-99617391D01*
X120012507Y-99803392D01*
X120045899Y-99999521D01*
X120062584Y-100201568D01*
X120062551Y-100405325D01*
X120045791Y-100606581D01*
X120012292Y-100801128D01*
X119962044Y-100984756D01*
X119918190Y-101102053D01*
X119840348Y-101264951D01*
X119746828Y-101418866D01*
X119639822Y-101560671D01*
X119521519Y-101687239D01*
X119394111Y-101795441D01*
X119316606Y-101848120D01*
X119189725Y-101917750D01*
X119052243Y-101976468D01*
X118910716Y-102021587D01*
X118771702Y-102050422D01*
X118757597Y-102052106D01*
X118714153Y-102055434D01*
X118656723Y-102058275D01*
X118591122Y-102060373D01*
X118523167Y-102061468D01*
X118396378Y-102059140D01*
X118248673Y-102046136D01*
X118110779Y-102021133D01*
X117977014Y-101983318D01*
X117953562Y-101974889D01*
X117905612Y-101955408D01*
X117849140Y-101930473D01*
X117787379Y-101901722D01*
X117723563Y-101870790D01*
X117660926Y-101839315D01*
X117602703Y-101808934D01*
X117552127Y-101781283D01*
X117512433Y-101757999D01*
X117486854Y-101740718D01*
X117478625Y-101731079D01*
X117480076Y-101727984D01*
X117491250Y-101708079D01*
X117512134Y-101672420D01*
X117541265Y-101623459D01*
X117577181Y-101563646D01*
X117618420Y-101495433D01*
X117663517Y-101421271D01*
X117844785Y-101124008D01*
X117891315Y-101168539D01*
X117982723Y-101246865D01*
X118096334Y-101321439D01*
X118214122Y-101375474D01*
X118334559Y-101408290D01*
X118456117Y-101419211D01*
X118497585Y-101417868D01*
X118615080Y-101399612D01*
X118725089Y-101360617D01*
X118826430Y-101301670D01*
X118917921Y-101223557D01*
X118998380Y-101127064D01*
X119066627Y-101012978D01*
X119082908Y-100978724D01*
X119128982Y-100855240D01*
X119164106Y-100716918D01*
X119188197Y-100567561D01*
X119201173Y-100410973D01*
X119202949Y-100250956D01*
X119193443Y-100091314D01*
X119172572Y-99935850D01*
X119140252Y-99788366D01*
X119096399Y-99652667D01*
X119058982Y-99566076D01*
X118994185Y-99452688D01*
X118918772Y-99359070D01*
X118832418Y-99284959D01*
X118734795Y-99230094D01*
X118625577Y-99194212D01*
X118504439Y-99177051D01*
X118435038Y-99175880D01*
X118312168Y-99190141D01*
X118196664Y-99225241D01*
X118089953Y-99280682D01*
X117993464Y-99355964D01*
X117977720Y-99370440D01*
X117947150Y-99396962D01*
X117924809Y-99414138D01*
X117914691Y-99418787D01*
X117912706Y-99416597D01*
X117898241Y-99397721D01*
X117874400Y-99364397D01*
X117843029Y-99319380D01*
X117805974Y-99265425D01*
X117765083Y-99205285D01*
X117722202Y-99141718D01*
X117679178Y-99077476D01*
X117637857Y-99015315D01*
X117600086Y-98957991D01*
X117567712Y-98908257D01*
X117542582Y-98868868D01*
X117526542Y-98842580D01*
X117521439Y-98832147D01*
X117526050Y-98827941D01*
X117545267Y-98822933D01*
X117554838Y-98820386D01*
X117582809Y-98809249D01*
X117624448Y-98790802D01*
X117675995Y-98766725D01*
X117733690Y-98738699D01*
X117744957Y-98733154D01*
X117922687Y-98653889D01*
X118092490Y-98594385D01*
X118256430Y-98554245D01*
X118416571Y-98533071D01*
X118574977Y-98530466D01*
X118733711Y-98546033D01*
G37*
X114930994Y-100826711D02*
X114930268Y-100904158D01*
X114921689Y-101055594D01*
X114902833Y-101192283D01*
X114872837Y-101318276D01*
X114830836Y-101437625D01*
X114775969Y-101554381D01*
X114709167Y-101665179D01*
X114618363Y-101778739D01*
X114514708Y-101874211D01*
X114398887Y-101951073D01*
X114271586Y-102008797D01*
X114133489Y-102046858D01*
X114095793Y-102052666D01*
X114016752Y-102058396D01*
X113928629Y-102058583D01*
X113839236Y-102053539D01*
X113756384Y-102043578D01*
X113687887Y-102029012D01*
X113657035Y-102019364D01*
X113579730Y-101989123D01*
X113502679Y-101951617D01*
X113433200Y-101910614D01*
X113378615Y-101869879D01*
X113355916Y-101850505D01*
X113333201Y-101832662D01*
X113321779Y-101825778D01*
X113320537Y-101827424D01*
X113317728Y-101845205D01*
X113315776Y-101878370D01*
X113315045Y-101921733D01*
X113315045Y-102017689D01*
X112456896Y-102017689D01*
X112491161Y-101956974D01*
X112496355Y-101947868D01*
X112504715Y-101933249D01*
X112512288Y-101919173D01*
X112519112Y-101904540D01*
X112525227Y-101888249D01*
X112530673Y-101869198D01*
X112535487Y-101846286D01*
X112539708Y-101818413D01*
X112543377Y-101784478D01*
X112546531Y-101743379D01*
X112549211Y-101694015D01*
X112551454Y-101635286D01*
X112553299Y-101566090D01*
X112554787Y-101485326D01*
X112555955Y-101391894D01*
X112556678Y-101304721D01*
X113360200Y-101304721D01*
X113430756Y-101351089D01*
X113471417Y-101374791D01*
X113525546Y-101400639D01*
X113574689Y-101418829D01*
X113638165Y-101434551D01*
X113734331Y-101445541D01*
X113818900Y-101437365D01*
X113892219Y-101409805D01*
X113954637Y-101362642D01*
X114006502Y-101295658D01*
X114048160Y-101208633D01*
X114079962Y-101101350D01*
X114082545Y-101089009D01*
X114091000Y-101027772D01*
X114096663Y-100950692D01*
X114099576Y-100863002D01*
X114099783Y-100769934D01*
X114097330Y-100676720D01*
X114092261Y-100588594D01*
X114084619Y-100510788D01*
X114074448Y-100448533D01*
X114073167Y-100442666D01*
X114044126Y-100332121D01*
X114009610Y-100241575D01*
X113968456Y-100168953D01*
X113919499Y-100112181D01*
X113861574Y-100069184D01*
X113829620Y-100053615D01*
X113756784Y-100034722D01*
X113675443Y-100031465D01*
X113590319Y-100043389D01*
X113506133Y-100070040D01*
X113427608Y-100110962D01*
X113360200Y-100154530D01*
X113360200Y-101304721D01*
X112556678Y-101304721D01*
X112556844Y-101284692D01*
X112557491Y-101162620D01*
X112557936Y-101024576D01*
X112558218Y-100869459D01*
X112558375Y-100696168D01*
X112558448Y-100503603D01*
X112558474Y-100290662D01*
X112558493Y-100056245D01*
X112558689Y-98371378D01*
X113464017Y-98371378D01*
X113439585Y-98408067D01*
X113433318Y-98417647D01*
X113407208Y-98463981D01*
X113389469Y-98511102D01*
X113377908Y-98566251D01*
X113370331Y-98636667D01*
X113369839Y-98643650D01*
X113368062Y-98681641D01*
X113366444Y-98735576D01*
X113364999Y-98802703D01*
X113363740Y-98880271D01*
X113362680Y-98965528D01*
X113361829Y-99055724D01*
X113361203Y-99148107D01*
X113360812Y-99239925D01*
X113360670Y-99328427D01*
X113360790Y-99410862D01*
X113361183Y-99484479D01*
X113361862Y-99546526D01*
X113362841Y-99594251D01*
X113364132Y-99624904D01*
X113365747Y-99635733D01*
X113373957Y-99631333D01*
X113395647Y-99616362D01*
X113425014Y-99594448D01*
X113473879Y-99560236D01*
X113562125Y-99513714D01*
X113660916Y-99480046D01*
X113773510Y-99458231D01*
X113903164Y-99447265D01*
X113995670Y-99446219D01*
X114117011Y-99456014D01*
X114227099Y-99480174D01*
X114330389Y-99519785D01*
X114431338Y-99575932D01*
X114476503Y-99606883D01*
X114581911Y-99698115D01*
X114673538Y-99807106D01*
X114751332Y-99933726D01*
X114815241Y-100077845D01*
X114865214Y-100239332D01*
X114901198Y-100418059D01*
X114923143Y-100613895D01*
X114928900Y-100769934D01*
X114930994Y-100826711D01*
G36*
X114930994Y-100826711D02*
G01*
X114930268Y-100904158D01*
X114921689Y-101055594D01*
X114902833Y-101192283D01*
X114872837Y-101318276D01*
X114830836Y-101437625D01*
X114775969Y-101554381D01*
X114709167Y-101665179D01*
X114618363Y-101778739D01*
X114514708Y-101874211D01*
X114398887Y-101951073D01*
X114271586Y-102008797D01*
X114133489Y-102046858D01*
X114095793Y-102052666D01*
X114016752Y-102058396D01*
X113928629Y-102058583D01*
X113839236Y-102053539D01*
X113756384Y-102043578D01*
X113687887Y-102029012D01*
X113657035Y-102019364D01*
X113579730Y-101989123D01*
X113502679Y-101951617D01*
X113433200Y-101910614D01*
X113378615Y-101869879D01*
X113355916Y-101850505D01*
X113333201Y-101832662D01*
X113321779Y-101825778D01*
X113320537Y-101827424D01*
X113317728Y-101845205D01*
X113315776Y-101878370D01*
X113315045Y-101921733D01*
X113315045Y-102017689D01*
X112456896Y-102017689D01*
X112491161Y-101956974D01*
X112496355Y-101947868D01*
X112504715Y-101933249D01*
X112512288Y-101919173D01*
X112519112Y-101904540D01*
X112525227Y-101888249D01*
X112530673Y-101869198D01*
X112535487Y-101846286D01*
X112539708Y-101818413D01*
X112543377Y-101784478D01*
X112546531Y-101743379D01*
X112549211Y-101694015D01*
X112551454Y-101635286D01*
X112553299Y-101566090D01*
X112554787Y-101485326D01*
X112555955Y-101391894D01*
X112556678Y-101304721D01*
X113360200Y-101304721D01*
X113430756Y-101351089D01*
X113471417Y-101374791D01*
X113525546Y-101400639D01*
X113574689Y-101418829D01*
X113638165Y-101434551D01*
X113734331Y-101445541D01*
X113818900Y-101437365D01*
X113892219Y-101409805D01*
X113954637Y-101362642D01*
X114006502Y-101295658D01*
X114048160Y-101208633D01*
X114079962Y-101101350D01*
X114082545Y-101089009D01*
X114091000Y-101027772D01*
X114096663Y-100950692D01*
X114099576Y-100863002D01*
X114099783Y-100769934D01*
X114097330Y-100676720D01*
X114092261Y-100588594D01*
X114084619Y-100510788D01*
X114074448Y-100448533D01*
X114073167Y-100442666D01*
X114044126Y-100332121D01*
X114009610Y-100241575D01*
X113968456Y-100168953D01*
X113919499Y-100112181D01*
X113861574Y-100069184D01*
X113829620Y-100053615D01*
X113756784Y-100034722D01*
X113675443Y-100031465D01*
X113590319Y-100043389D01*
X113506133Y-100070040D01*
X113427608Y-100110962D01*
X113360200Y-100154530D01*
X113360200Y-101304721D01*
X112556678Y-101304721D01*
X112556844Y-101284692D01*
X112557491Y-101162620D01*
X112557936Y-101024576D01*
X112558218Y-100869459D01*
X112558375Y-100696168D01*
X112558448Y-100503603D01*
X112558474Y-100290662D01*
X112558493Y-100056245D01*
X112558689Y-98371378D01*
X113464017Y-98371378D01*
X113439585Y-98408067D01*
X113433318Y-98417647D01*
X113407208Y-98463981D01*
X113389469Y-98511102D01*
X113377908Y-98566251D01*
X113370331Y-98636667D01*
X113369839Y-98643650D01*
X113368062Y-98681641D01*
X113366444Y-98735576D01*
X113364999Y-98802703D01*
X113363740Y-98880271D01*
X113362680Y-98965528D01*
X113361829Y-99055724D01*
X113361203Y-99148107D01*
X113360812Y-99239925D01*
X113360670Y-99328427D01*
X113360790Y-99410862D01*
X113361183Y-99484479D01*
X113361862Y-99546526D01*
X113362841Y-99594251D01*
X113364132Y-99624904D01*
X113365747Y-99635733D01*
X113373957Y-99631333D01*
X113395647Y-99616362D01*
X113425014Y-99594448D01*
X113473879Y-99560236D01*
X113562125Y-99513714D01*
X113660916Y-99480046D01*
X113773510Y-99458231D01*
X113903164Y-99447265D01*
X113995670Y-99446219D01*
X114117011Y-99456014D01*
X114227099Y-99480174D01*
X114330389Y-99519785D01*
X114431338Y-99575932D01*
X114476503Y-99606883D01*
X114581911Y-99698115D01*
X114673538Y-99807106D01*
X114751332Y-99933726D01*
X114815241Y-100077845D01*
X114865214Y-100239332D01*
X114901198Y-100418059D01*
X114923143Y-100613895D01*
X114928900Y-100769934D01*
X114930994Y-100826711D01*
G37*
X117472755Y-101227467D02*
X117472261Y-101261363D01*
X117468632Y-101336202D01*
X117461022Y-101398401D01*
X117448688Y-101454984D01*
X117404313Y-101581076D01*
X117341400Y-101695679D01*
X117261238Y-101796568D01*
X117164740Y-101882924D01*
X117052822Y-101953932D01*
X116926397Y-102008776D01*
X116786378Y-102046638D01*
X116750149Y-102052351D01*
X116671155Y-102058313D01*
X116582841Y-102058646D01*
X116493075Y-102053659D01*
X116409722Y-102043666D01*
X116340651Y-102028978D01*
X116254187Y-101998749D01*
X116144286Y-101944057D01*
X116046956Y-101876543D01*
X115984867Y-101825556D01*
X115981605Y-101921622D01*
X115978343Y-102017689D01*
X115555450Y-102017689D01*
X115544543Y-102017686D01*
X115450056Y-102017380D01*
X115363331Y-102016616D01*
X115286837Y-102015451D01*
X115223043Y-102013942D01*
X115174418Y-102012147D01*
X115143433Y-102010121D01*
X115132556Y-102007922D01*
X115132578Y-102007463D01*
X115139614Y-101991910D01*
X115155434Y-101969071D01*
X115159734Y-101963638D01*
X115170777Y-101949606D01*
X115180311Y-101936186D01*
X115188461Y-101921722D01*
X115195352Y-101904556D01*
X115201111Y-101883034D01*
X115205862Y-101855498D01*
X115209731Y-101820292D01*
X115212844Y-101775760D01*
X115215325Y-101720246D01*
X115217300Y-101652093D01*
X115218894Y-101569645D01*
X115220234Y-101471246D01*
X115221444Y-101355239D01*
X115221896Y-101304462D01*
X116024378Y-101304462D01*
X116069048Y-101360973D01*
X116081785Y-101376212D01*
X116128604Y-101418844D01*
X116189255Y-101454672D01*
X116199897Y-101459850D01*
X116238676Y-101476745D01*
X116273692Y-101486909D01*
X116313722Y-101492325D01*
X116367541Y-101494978D01*
X116385648Y-101495383D01*
X116461011Y-101492540D01*
X116521743Y-101480620D01*
X116573452Y-101458037D01*
X116621746Y-101423211D01*
X116626803Y-101418798D01*
X116675272Y-101363160D01*
X116703459Y-101299333D01*
X116712752Y-101224282D01*
X116705520Y-101152693D01*
X116680796Y-101089645D01*
X116636249Y-101031758D01*
X116581319Y-100984808D01*
X116508894Y-100944961D01*
X116422340Y-100917263D01*
X116319670Y-100901096D01*
X116198894Y-100895842D01*
X116190007Y-100895857D01*
X116134660Y-100896655D01*
X116087736Y-100898488D01*
X116053953Y-100901111D01*
X116038028Y-100904274D01*
X116033943Y-100910741D01*
X116029572Y-100932875D01*
X116026604Y-100971988D01*
X116024914Y-101029939D01*
X116024378Y-101108586D01*
X116024378Y-101304462D01*
X115221896Y-101304462D01*
X115222649Y-101219968D01*
X115223975Y-101063778D01*
X115225228Y-100921012D01*
X115226651Y-100775942D01*
X115228176Y-100650027D01*
X115229933Y-100541436D01*
X115232051Y-100448334D01*
X115234660Y-100368891D01*
X115237890Y-100301273D01*
X115241869Y-100243649D01*
X115246728Y-100194185D01*
X115252597Y-100151050D01*
X115259604Y-100112410D01*
X115267880Y-100076434D01*
X115277554Y-100041289D01*
X115288756Y-100005142D01*
X115301616Y-99966161D01*
X115317090Y-99923091D01*
X115359994Y-99830871D01*
X115413735Y-99751099D01*
X115482576Y-99676965D01*
X115560185Y-99613405D01*
X115664761Y-99551725D01*
X115784244Y-99504202D01*
X115919508Y-99470567D01*
X116071426Y-99450552D01*
X116240872Y-99443889D01*
X116298890Y-99444287D01*
X116364398Y-99446335D01*
X116425693Y-99450704D01*
X116487097Y-99458035D01*
X116552932Y-99468969D01*
X116627520Y-99484147D01*
X116715184Y-99504209D01*
X116820245Y-99529797D01*
X116848806Y-99536820D01*
X116924054Y-99554776D01*
X116994388Y-99570820D01*
X117055567Y-99584028D01*
X117103354Y-99593474D01*
X117133511Y-99598231D01*
X117161783Y-99601910D01*
X117188060Y-99607187D01*
X117198059Y-99611942D01*
X117194952Y-99620781D01*
X117184194Y-99648072D01*
X117166864Y-99690906D01*
X117144126Y-99746425D01*
X117117147Y-99811772D01*
X117087090Y-99884089D01*
X117080493Y-99899879D01*
X117041907Y-99990484D01*
X117010768Y-100060217D01*
X116986917Y-100109405D01*
X116970198Y-100138374D01*
X116960454Y-100147452D01*
X116952766Y-100145405D01*
X116926415Y-100135760D01*
X116887982Y-100120190D01*
X116842822Y-100100815D01*
X116748293Y-100062814D01*
X116611480Y-100021780D01*
X116470289Y-99996612D01*
X116432314Y-99992611D01*
X116329059Y-99990447D01*
X116241952Y-100003622D01*
X116170129Y-100032756D01*
X116112731Y-100078466D01*
X116068896Y-100141372D01*
X116037762Y-100222092D01*
X116018470Y-100321245D01*
X116011050Y-100380224D01*
X116172936Y-100373445D01*
X116299495Y-100371813D01*
X116450951Y-100378194D01*
X116599396Y-100392777D01*
X116735578Y-100414882D01*
X116800245Y-100429821D01*
X116932490Y-100472741D01*
X117054762Y-100529340D01*
X117164685Y-100598017D01*
X117259883Y-100677170D01*
X117337980Y-100765196D01*
X117396599Y-100860493D01*
X117420595Y-100912864D01*
X117446232Y-100983590D01*
X117462478Y-101054812D01*
X117470822Y-101133712D01*
X117472690Y-101224282D01*
X117472755Y-101227467D01*
G36*
X117472755Y-101227467D02*
G01*
X117472261Y-101261363D01*
X117468632Y-101336202D01*
X117461022Y-101398401D01*
X117448688Y-101454984D01*
X117404313Y-101581076D01*
X117341400Y-101695679D01*
X117261238Y-101796568D01*
X117164740Y-101882924D01*
X117052822Y-101953932D01*
X116926397Y-102008776D01*
X116786378Y-102046638D01*
X116750149Y-102052351D01*
X116671155Y-102058313D01*
X116582841Y-102058646D01*
X116493075Y-102053659D01*
X116409722Y-102043666D01*
X116340651Y-102028978D01*
X116254187Y-101998749D01*
X116144286Y-101944057D01*
X116046956Y-101876543D01*
X115984867Y-101825556D01*
X115981605Y-101921622D01*
X115978343Y-102017689D01*
X115555450Y-102017689D01*
X115544543Y-102017686D01*
X115450056Y-102017380D01*
X115363331Y-102016616D01*
X115286837Y-102015451D01*
X115223043Y-102013942D01*
X115174418Y-102012147D01*
X115143433Y-102010121D01*
X115132556Y-102007922D01*
X115132578Y-102007463D01*
X115139614Y-101991910D01*
X115155434Y-101969071D01*
X115159734Y-101963638D01*
X115170777Y-101949606D01*
X115180311Y-101936186D01*
X115188461Y-101921722D01*
X115195352Y-101904556D01*
X115201111Y-101883034D01*
X115205862Y-101855498D01*
X115209731Y-101820292D01*
X115212844Y-101775760D01*
X115215325Y-101720246D01*
X115217300Y-101652093D01*
X115218894Y-101569645D01*
X115220234Y-101471246D01*
X115221444Y-101355239D01*
X115221896Y-101304462D01*
X116024378Y-101304462D01*
X116069048Y-101360973D01*
X116081785Y-101376212D01*
X116128604Y-101418844D01*
X116189255Y-101454672D01*
X116199897Y-101459850D01*
X116238676Y-101476745D01*
X116273692Y-101486909D01*
X116313722Y-101492325D01*
X116367541Y-101494978D01*
X116385648Y-101495383D01*
X116461011Y-101492540D01*
X116521743Y-101480620D01*
X116573452Y-101458037D01*
X116621746Y-101423211D01*
X116626803Y-101418798D01*
X116675272Y-101363160D01*
X116703459Y-101299333D01*
X116712752Y-101224282D01*
X116705520Y-101152693D01*
X116680796Y-101089645D01*
X116636249Y-101031758D01*
X116581319Y-100984808D01*
X116508894Y-100944961D01*
X116422340Y-100917263D01*
X116319670Y-100901096D01*
X116198894Y-100895842D01*
X116190007Y-100895857D01*
X116134660Y-100896655D01*
X116087736Y-100898488D01*
X116053953Y-100901111D01*
X116038028Y-100904274D01*
X116033943Y-100910741D01*
X116029572Y-100932875D01*
X116026604Y-100971988D01*
X116024914Y-101029939D01*
X116024378Y-101108586D01*
X116024378Y-101304462D01*
X115221896Y-101304462D01*
X115222649Y-101219968D01*
X115223975Y-101063778D01*
X115225228Y-100921012D01*
X115226651Y-100775942D01*
X115228176Y-100650027D01*
X115229933Y-100541436D01*
X115232051Y-100448334D01*
X115234660Y-100368891D01*
X115237890Y-100301273D01*
X115241869Y-100243649D01*
X115246728Y-100194185D01*
X115252597Y-100151050D01*
X115259604Y-100112410D01*
X115267880Y-100076434D01*
X115277554Y-100041289D01*
X115288756Y-100005142D01*
X115301616Y-99966161D01*
X115317090Y-99923091D01*
X115359994Y-99830871D01*
X115413735Y-99751099D01*
X115482576Y-99676965D01*
X115560185Y-99613405D01*
X115664761Y-99551725D01*
X115784244Y-99504202D01*
X115919508Y-99470567D01*
X116071426Y-99450552D01*
X116240872Y-99443889D01*
X116298890Y-99444287D01*
X116364398Y-99446335D01*
X116425693Y-99450704D01*
X116487097Y-99458035D01*
X116552932Y-99468969D01*
X116627520Y-99484147D01*
X116715184Y-99504209D01*
X116820245Y-99529797D01*
X116848806Y-99536820D01*
X116924054Y-99554776D01*
X116994388Y-99570820D01*
X117055567Y-99584028D01*
X117103354Y-99593474D01*
X117133511Y-99598231D01*
X117161783Y-99601910D01*
X117188060Y-99607187D01*
X117198059Y-99611942D01*
X117194952Y-99620781D01*
X117184194Y-99648072D01*
X117166864Y-99690906D01*
X117144126Y-99746425D01*
X117117147Y-99811772D01*
X117087090Y-99884089D01*
X117080493Y-99899879D01*
X117041907Y-99990484D01*
X117010768Y-100060217D01*
X116986917Y-100109405D01*
X116970198Y-100138374D01*
X116960454Y-100147452D01*
X116952766Y-100145405D01*
X116926415Y-100135760D01*
X116887982Y-100120190D01*
X116842822Y-100100815D01*
X116748293Y-100062814D01*
X116611480Y-100021780D01*
X116470289Y-99996612D01*
X116432314Y-99992611D01*
X116329059Y-99990447D01*
X116241952Y-100003622D01*
X116170129Y-100032756D01*
X116112731Y-100078466D01*
X116068896Y-100141372D01*
X116037762Y-100222092D01*
X116018470Y-100321245D01*
X116011050Y-100380224D01*
X116172936Y-100373445D01*
X116299495Y-100371813D01*
X116450951Y-100378194D01*
X116599396Y-100392777D01*
X116735578Y-100414882D01*
X116800245Y-100429821D01*
X116932490Y-100472741D01*
X117054762Y-100529340D01*
X117164685Y-100598017D01*
X117259883Y-100677170D01*
X117337980Y-100765196D01*
X117396599Y-100860493D01*
X117420595Y-100912864D01*
X117446232Y-100983590D01*
X117462478Y-101054812D01*
X117470822Y-101133712D01*
X117472690Y-101224282D01*
X117472755Y-101227467D01*
G37*
X125020614Y-98695792D02*
X125021059Y-98827011D01*
X125021362Y-98974216D01*
X125021548Y-99138349D01*
X125021642Y-99320352D01*
X125021671Y-99521165D01*
X125021661Y-99741732D01*
X125021636Y-99982992D01*
X125021622Y-100245889D01*
X125021622Y-100288040D01*
X125021646Y-100548668D01*
X125021685Y-100787796D01*
X125021708Y-101006360D01*
X125021687Y-101205295D01*
X125021593Y-101385535D01*
X125021395Y-101548015D01*
X125021063Y-101693670D01*
X125020569Y-101823434D01*
X125019883Y-101938243D01*
X125018976Y-102039030D01*
X125017817Y-102126730D01*
X125016378Y-102202279D01*
X125014629Y-102266611D01*
X125012540Y-102320661D01*
X125010083Y-102365363D01*
X125007227Y-102401652D01*
X125003943Y-102430463D01*
X125000202Y-102452731D01*
X124995974Y-102469390D01*
X124991229Y-102481375D01*
X124985939Y-102489621D01*
X124980073Y-102495062D01*
X124973602Y-102498634D01*
X124966497Y-102501270D01*
X124958728Y-102503906D01*
X124950266Y-102507477D01*
X124945908Y-102509145D01*
X124937395Y-102511111D01*
X124924694Y-102512911D01*
X124906885Y-102514555D01*
X124883049Y-102516047D01*
X124852266Y-102517397D01*
X124813617Y-102518611D01*
X124766182Y-102519697D01*
X124709043Y-102520661D01*
X124641279Y-102521511D01*
X124561971Y-102522253D01*
X124470199Y-102522897D01*
X124365044Y-102523447D01*
X124245587Y-102523913D01*
X124110908Y-102524300D01*
X123960088Y-102524616D01*
X123792206Y-102524869D01*
X123606345Y-102525066D01*
X123401583Y-102525213D01*
X123177002Y-102525318D01*
X122931682Y-102525389D01*
X122664704Y-102525432D01*
X122626321Y-102525437D01*
X122360922Y-102525480D01*
X122117050Y-102525525D01*
X121893783Y-102525548D01*
X121690196Y-102525524D01*
X121505367Y-102525430D01*
X121338373Y-102525243D01*
X121188290Y-102524939D01*
X121054196Y-102524494D01*
X120935166Y-102523885D01*
X120830279Y-102523089D01*
X120738610Y-102522080D01*
X120659237Y-102520837D01*
X120591237Y-102519335D01*
X120533686Y-102517551D01*
X120485662Y-102515461D01*
X120446240Y-102513042D01*
X120414499Y-102510270D01*
X120389514Y-102507121D01*
X120370364Y-102503572D01*
X120356123Y-102499598D01*
X120345871Y-102495178D01*
X120338682Y-102490286D01*
X120333635Y-102484900D01*
X120329805Y-102478996D01*
X120326271Y-102472549D01*
X120322108Y-102465537D01*
X120321025Y-102463687D01*
X120318813Y-102458180D01*
X120316786Y-102449868D01*
X120314938Y-102437809D01*
X120313261Y-102421063D01*
X120311745Y-102398687D01*
X120310383Y-102369740D01*
X120309167Y-102333280D01*
X120308089Y-102288367D01*
X120307140Y-102234057D01*
X120306312Y-102169410D01*
X120305597Y-102093484D01*
X120304987Y-102005338D01*
X120304942Y-101996493D01*
X120596378Y-101996493D01*
X120600260Y-101997765D01*
X120623520Y-101999791D01*
X120665874Y-102001626D01*
X120725132Y-102003227D01*
X120799107Y-102004549D01*
X120885610Y-102005548D01*
X120982452Y-102006180D01*
X121087445Y-102006400D01*
X121785651Y-102006400D01*
X122940090Y-102006400D01*
X122939456Y-101930200D01*
X122940574Y-101888160D01*
X122946304Y-101852334D01*
X122958890Y-101814772D01*
X122980568Y-101766577D01*
X122983789Y-101759897D01*
X123009188Y-101710359D01*
X123035996Y-101662369D01*
X123058917Y-101625466D01*
X123063485Y-101618834D01*
X123085516Y-101587593D01*
X123117693Y-101542654D01*
X123158457Y-101486147D01*
X123206245Y-101420204D01*
X123259498Y-101346957D01*
X123316655Y-101268536D01*
X123376155Y-101187072D01*
X123436437Y-101104698D01*
X123495940Y-101023544D01*
X123553105Y-100945742D01*
X123606370Y-100873423D01*
X123654174Y-100808718D01*
X123694957Y-100753759D01*
X123727158Y-100710676D01*
X123749216Y-100681602D01*
X123759571Y-100668667D01*
X123764044Y-100664351D01*
X123768236Y-100662312D01*
X123771643Y-100664926D01*
X123774325Y-100673986D01*
X123776341Y-100691285D01*
X123777748Y-100718614D01*
X123778605Y-100757765D01*
X123778970Y-100810533D01*
X123778903Y-100878707D01*
X123778460Y-100964082D01*
X123777702Y-101068449D01*
X123776685Y-101193600D01*
X123776308Y-101238300D01*
X123775169Y-101359395D01*
X123773972Y-101460688D01*
X123772636Y-101544262D01*
X123771077Y-101612204D01*
X123769215Y-101666599D01*
X123766966Y-101709532D01*
X123764248Y-101743089D01*
X123760979Y-101769355D01*
X123757078Y-101790416D01*
X123752461Y-101808357D01*
X123744192Y-101834770D01*
X123720583Y-101896772D01*
X123694685Y-101949573D01*
X123669535Y-101986645D01*
X123668339Y-101988075D01*
X123666168Y-101992424D01*
X123668328Y-101996026D01*
X123676644Y-101998951D01*
X123692940Y-102001269D01*
X123719041Y-102003051D01*
X123756771Y-102004367D01*
X123807956Y-102005286D01*
X123874420Y-102005878D01*
X123957987Y-102006215D01*
X124060483Y-102006365D01*
X124183732Y-102006400D01*
X124715296Y-102006400D01*
X124676523Y-101948783D01*
X124670432Y-101939893D01*
X124659976Y-101925069D01*
X124650579Y-101911422D01*
X124642183Y-101897765D01*
X124634733Y-101882911D01*
X124628173Y-101865670D01*
X124622446Y-101844855D01*
X124617495Y-101819280D01*
X124613266Y-101787755D01*
X124609701Y-101749093D01*
X124606744Y-101702107D01*
X124604340Y-101645608D01*
X124602431Y-101578409D01*
X124600962Y-101499322D01*
X124599876Y-101407160D01*
X124599118Y-101300734D01*
X124598630Y-101178857D01*
X124598358Y-101040341D01*
X124598243Y-100883999D01*
X124598231Y-100708642D01*
X124598265Y-100513082D01*
X124598289Y-100296133D01*
X124598280Y-100173513D01*
X124598243Y-99968447D01*
X124598227Y-99784116D01*
X124598288Y-99619334D01*
X124598484Y-99472916D01*
X124598870Y-99343674D01*
X124599505Y-99230422D01*
X124600444Y-99131975D01*
X124601745Y-99047144D01*
X124603464Y-98974744D01*
X124605659Y-98913589D01*
X124608385Y-98862492D01*
X124611701Y-98820267D01*
X124615662Y-98785727D01*
X124620325Y-98757686D01*
X124625747Y-98734958D01*
X124631986Y-98716356D01*
X124639097Y-98700693D01*
X124647138Y-98686784D01*
X124656166Y-98673441D01*
X124666236Y-98659479D01*
X124677407Y-98643711D01*
X124717197Y-98585867D01*
X123657314Y-98585867D01*
X123695311Y-98648966D01*
X123709993Y-98674005D01*
X123724531Y-98701586D01*
X123736627Y-98729700D01*
X123746532Y-98760551D01*
X123754494Y-98796344D01*
X123760761Y-98839283D01*
X123765582Y-98891574D01*
X123769206Y-98955419D01*
X123771881Y-99033025D01*
X123773857Y-99126594D01*
X123775382Y-99238333D01*
X123776704Y-99370445D01*
X123777613Y-99490434D01*
X123778020Y-99607063D01*
X123777767Y-99702531D01*
X123776857Y-99776556D01*
X123775293Y-99828855D01*
X123773079Y-99859149D01*
X123770220Y-99867156D01*
X123767161Y-99863858D01*
X123749006Y-99842408D01*
X123719275Y-99805889D01*
X123679639Y-99756442D01*
X123631771Y-99696207D01*
X123577343Y-99627327D01*
X123518027Y-99551943D01*
X123455495Y-99472196D01*
X123391421Y-99390228D01*
X123327475Y-99308180D01*
X123265331Y-99228194D01*
X123206661Y-99152411D01*
X123153137Y-99082973D01*
X123106430Y-99022021D01*
X123068214Y-98971696D01*
X123040161Y-98934140D01*
X123023943Y-98911495D01*
X122978635Y-98839212D01*
X122938661Y-98759463D01*
X122917130Y-98691188D01*
X122913827Y-98633844D01*
X122919116Y-98585867D01*
X121787356Y-98586117D01*
X121826867Y-98616722D01*
X121836248Y-98624089D01*
X121899183Y-98678438D01*
X121967997Y-98746259D01*
X122044596Y-98829516D01*
X122130888Y-98930178D01*
X122148052Y-98950847D01*
X122188833Y-99000409D01*
X122238588Y-99061326D01*
X122295955Y-99131898D01*
X122359569Y-99210424D01*
X122428069Y-99295204D01*
X122500090Y-99384537D01*
X122574270Y-99476722D01*
X122589517Y-99495702D01*
X122649246Y-99570060D01*
X122723653Y-99662848D01*
X122796131Y-99753388D01*
X122865314Y-99839978D01*
X122929841Y-99920918D01*
X122988347Y-99994506D01*
X123039470Y-100059044D01*
X123081847Y-100112829D01*
X123114115Y-100154162D01*
X123134910Y-100181342D01*
X123142869Y-100192668D01*
X123141111Y-100196771D01*
X123128230Y-100217334D01*
X123103885Y-100253561D01*
X123069247Y-100303824D01*
X123025486Y-100366492D01*
X122973775Y-100439936D01*
X122915284Y-100522527D01*
X122851184Y-100612636D01*
X122782646Y-100708631D01*
X122710843Y-100808885D01*
X122636944Y-100911768D01*
X122562121Y-101015650D01*
X122487545Y-101118901D01*
X122414387Y-101219892D01*
X122343819Y-101316994D01*
X122277011Y-101408577D01*
X122215135Y-101493011D01*
X122159361Y-101568667D01*
X122110862Y-101633916D01*
X122070807Y-101687128D01*
X122040369Y-101726673D01*
X122019944Y-101752026D01*
X121973899Y-101806295D01*
X121923612Y-101862775D01*
X121876815Y-101912669D01*
X121785651Y-102006400D01*
X121087445Y-102006400D01*
X121156356Y-102006349D01*
X121254607Y-102006091D01*
X121344030Y-102005637D01*
X121422333Y-102005010D01*
X121487223Y-102004235D01*
X121536411Y-102003335D01*
X121567604Y-102002334D01*
X121578511Y-102001257D01*
X121577322Y-101998037D01*
X121567176Y-101980452D01*
X121550040Y-101954158D01*
X121541540Y-101941691D01*
X121532329Y-101927622D01*
X121524233Y-101913351D01*
X121517185Y-101897479D01*
X121511117Y-101878609D01*
X121505961Y-101855341D01*
X121501651Y-101826278D01*
X121498119Y-101790021D01*
X121495297Y-101745170D01*
X121493118Y-101690328D01*
X121491514Y-101624097D01*
X121490419Y-101545077D01*
X121489765Y-101451871D01*
X121489484Y-101343079D01*
X121489509Y-101217303D01*
X121489772Y-101073145D01*
X121490206Y-100909207D01*
X121490745Y-100724089D01*
X121491279Y-100545232D01*
X121491805Y-100386374D01*
X121492350Y-100247316D01*
X121492945Y-100126665D01*
X121493619Y-100023028D01*
X121494403Y-99935011D01*
X121495326Y-99861223D01*
X121496419Y-99800269D01*
X121497712Y-99750757D01*
X121499235Y-99711293D01*
X121501019Y-99680484D01*
X121503092Y-99656938D01*
X121505486Y-99639260D01*
X121508230Y-99626059D01*
X121511356Y-99615940D01*
X121514892Y-99607511D01*
X121518791Y-99599375D01*
X121538438Y-99562544D01*
X121557225Y-99532391D01*
X121558272Y-99530908D01*
X121572602Y-99508659D01*
X121578511Y-99495702D01*
X121577504Y-99495249D01*
X121560305Y-99493803D01*
X121523656Y-99492480D01*
X121469962Y-99491316D01*
X121401630Y-99490347D01*
X121321064Y-99489611D01*
X121230670Y-99489142D01*
X121132853Y-99488978D01*
X120687195Y-99488978D01*
X120684120Y-100665845D01*
X120681045Y-101842711D01*
X120654407Y-101901622D01*
X120642485Y-101926183D01*
X120625246Y-101956434D01*
X120612074Y-101973560D01*
X120604076Y-101981591D01*
X120596378Y-101996493D01*
X120304942Y-101996493D01*
X120304474Y-101904029D01*
X120304050Y-101788617D01*
X120303706Y-101658160D01*
X120303434Y-101511716D01*
X120303227Y-101348344D01*
X120303076Y-101167101D01*
X120302972Y-100967048D01*
X120302908Y-100747241D01*
X120302876Y-100506739D01*
X120302867Y-100244602D01*
X120302867Y-98053031D01*
X120341249Y-98014649D01*
X120368355Y-97990911D01*
X120395253Y-97979111D01*
X120431560Y-97976267D01*
X120483489Y-97976267D01*
X120483489Y-98064206D01*
X120485427Y-98114102D01*
X120504199Y-98224523D01*
X120541217Y-98325987D01*
X120594369Y-98417152D01*
X120661546Y-98496673D01*
X120740638Y-98563205D01*
X120829534Y-98615406D01*
X120926125Y-98651930D01*
X121028300Y-98671434D01*
X121133950Y-98672573D01*
X121240964Y-98654005D01*
X121347232Y-98614384D01*
X121444219Y-98556516D01*
X121529293Y-98481684D01*
X121598015Y-98393615D01*
X121648918Y-98294616D01*
X121680535Y-98186993D01*
X121691400Y-98073054D01*
X121691400Y-97976267D01*
X123311753Y-97976267D01*
X123522897Y-97976280D01*
X123727020Y-97976330D01*
X123910686Y-97976430D01*
X124074991Y-97976592D01*
X124221029Y-97976829D01*
X124349894Y-97977153D01*
X124462683Y-97977575D01*
X124560488Y-97978109D01*
X124644404Y-97978767D01*
X124715527Y-97979561D01*
X124774950Y-97980504D01*
X124823768Y-97981608D01*
X124863077Y-97982884D01*
X124893969Y-97984347D01*
X124917541Y-97986007D01*
X124934886Y-97987878D01*
X124947099Y-97989972D01*
X124955275Y-97992300D01*
X124960508Y-97994876D01*
X124966504Y-97998445D01*
X124973279Y-98001978D01*
X124979478Y-98005488D01*
X124985126Y-98009918D01*
X124990247Y-98016208D01*
X124994869Y-98025301D01*
X124999015Y-98038139D01*
X125002713Y-98055662D01*
X125005987Y-98078813D01*
X125008863Y-98108534D01*
X125011367Y-98145765D01*
X125013524Y-98191449D01*
X125015360Y-98246527D01*
X125016900Y-98311941D01*
X125018170Y-98388633D01*
X125019195Y-98477544D01*
X125020001Y-98579617D01*
X125020034Y-98585867D01*
X125020614Y-98695792D01*
G36*
X125020614Y-98695792D02*
G01*
X125021059Y-98827011D01*
X125021362Y-98974216D01*
X125021548Y-99138349D01*
X125021642Y-99320352D01*
X125021671Y-99521165D01*
X125021661Y-99741732D01*
X125021636Y-99982992D01*
X125021622Y-100245889D01*
X125021622Y-100288040D01*
X125021646Y-100548668D01*
X125021685Y-100787796D01*
X125021708Y-101006360D01*
X125021687Y-101205295D01*
X125021593Y-101385535D01*
X125021395Y-101548015D01*
X125021063Y-101693670D01*
X125020569Y-101823434D01*
X125019883Y-101938243D01*
X125018976Y-102039030D01*
X125017817Y-102126730D01*
X125016378Y-102202279D01*
X125014629Y-102266611D01*
X125012540Y-102320661D01*
X125010083Y-102365363D01*
X125007227Y-102401652D01*
X125003943Y-102430463D01*
X125000202Y-102452731D01*
X124995974Y-102469390D01*
X124991229Y-102481375D01*
X124985939Y-102489621D01*
X124980073Y-102495062D01*
X124973602Y-102498634D01*
X124966497Y-102501270D01*
X124958728Y-102503906D01*
X124950266Y-102507477D01*
X124945908Y-102509145D01*
X124937395Y-102511111D01*
X124924694Y-102512911D01*
X124906885Y-102514555D01*
X124883049Y-102516047D01*
X124852266Y-102517397D01*
X124813617Y-102518611D01*
X124766182Y-102519697D01*
X124709043Y-102520661D01*
X124641279Y-102521511D01*
X124561971Y-102522253D01*
X124470199Y-102522897D01*
X124365044Y-102523447D01*
X124245587Y-102523913D01*
X124110908Y-102524300D01*
X123960088Y-102524616D01*
X123792206Y-102524869D01*
X123606345Y-102525066D01*
X123401583Y-102525213D01*
X123177002Y-102525318D01*
X122931682Y-102525389D01*
X122664704Y-102525432D01*
X122626321Y-102525437D01*
X122360922Y-102525480D01*
X122117050Y-102525525D01*
X121893783Y-102525548D01*
X121690196Y-102525524D01*
X121505367Y-102525430D01*
X121338373Y-102525243D01*
X121188290Y-102524939D01*
X121054196Y-102524494D01*
X120935166Y-102523885D01*
X120830279Y-102523089D01*
X120738610Y-102522080D01*
X120659237Y-102520837D01*
X120591237Y-102519335D01*
X120533686Y-102517551D01*
X120485662Y-102515461D01*
X120446240Y-102513042D01*
X120414499Y-102510270D01*
X120389514Y-102507121D01*
X120370364Y-102503572D01*
X120356123Y-102499598D01*
X120345871Y-102495178D01*
X120338682Y-102490286D01*
X120333635Y-102484900D01*
X120329805Y-102478996D01*
X120326271Y-102472549D01*
X120322108Y-102465537D01*
X120321025Y-102463687D01*
X120318813Y-102458180D01*
X120316786Y-102449868D01*
X120314938Y-102437809D01*
X120313261Y-102421063D01*
X120311745Y-102398687D01*
X120310383Y-102369740D01*
X120309167Y-102333280D01*
X120308089Y-102288367D01*
X120307140Y-102234057D01*
X120306312Y-102169410D01*
X120305597Y-102093484D01*
X120304987Y-102005338D01*
X120304942Y-101996493D01*
X120596378Y-101996493D01*
X120600260Y-101997765D01*
X120623520Y-101999791D01*
X120665874Y-102001626D01*
X120725132Y-102003227D01*
X120799107Y-102004549D01*
X120885610Y-102005548D01*
X120982452Y-102006180D01*
X121087445Y-102006400D01*
X121785651Y-102006400D01*
X122940090Y-102006400D01*
X122939456Y-101930200D01*
X122940574Y-101888160D01*
X122946304Y-101852334D01*
X122958890Y-101814772D01*
X122980568Y-101766577D01*
X122983789Y-101759897D01*
X123009188Y-101710359D01*
X123035996Y-101662369D01*
X123058917Y-101625466D01*
X123063485Y-101618834D01*
X123085516Y-101587593D01*
X123117693Y-101542654D01*
X123158457Y-101486147D01*
X123206245Y-101420204D01*
X123259498Y-101346957D01*
X123316655Y-101268536D01*
X123376155Y-101187072D01*
X123436437Y-101104698D01*
X123495940Y-101023544D01*
X123553105Y-100945742D01*
X123606370Y-100873423D01*
X123654174Y-100808718D01*
X123694957Y-100753759D01*
X123727158Y-100710676D01*
X123749216Y-100681602D01*
X123759571Y-100668667D01*
X123764044Y-100664351D01*
X123768236Y-100662312D01*
X123771643Y-100664926D01*
X123774325Y-100673986D01*
X123776341Y-100691285D01*
X123777748Y-100718614D01*
X123778605Y-100757765D01*
X123778970Y-100810533D01*
X123778903Y-100878707D01*
X123778460Y-100964082D01*
X123777702Y-101068449D01*
X123776685Y-101193600D01*
X123776308Y-101238300D01*
X123775169Y-101359395D01*
X123773972Y-101460688D01*
X123772636Y-101544262D01*
X123771077Y-101612204D01*
X123769215Y-101666599D01*
X123766966Y-101709532D01*
X123764248Y-101743089D01*
X123760979Y-101769355D01*
X123757078Y-101790416D01*
X123752461Y-101808357D01*
X123744192Y-101834770D01*
X123720583Y-101896772D01*
X123694685Y-101949573D01*
X123669535Y-101986645D01*
X123668339Y-101988075D01*
X123666168Y-101992424D01*
X123668328Y-101996026D01*
X123676644Y-101998951D01*
X123692940Y-102001269D01*
X123719041Y-102003051D01*
X123756771Y-102004367D01*
X123807956Y-102005286D01*
X123874420Y-102005878D01*
X123957987Y-102006215D01*
X124060483Y-102006365D01*
X124183732Y-102006400D01*
X124715296Y-102006400D01*
X124676523Y-101948783D01*
X124670432Y-101939893D01*
X124659976Y-101925069D01*
X124650579Y-101911422D01*
X124642183Y-101897765D01*
X124634733Y-101882911D01*
X124628173Y-101865670D01*
X124622446Y-101844855D01*
X124617495Y-101819280D01*
X124613266Y-101787755D01*
X124609701Y-101749093D01*
X124606744Y-101702107D01*
X124604340Y-101645608D01*
X124602431Y-101578409D01*
X124600962Y-101499322D01*
X124599876Y-101407160D01*
X124599118Y-101300734D01*
X124598630Y-101178857D01*
X124598358Y-101040341D01*
X124598243Y-100883999D01*
X124598231Y-100708642D01*
X124598265Y-100513082D01*
X124598289Y-100296133D01*
X124598280Y-100173513D01*
X124598243Y-99968447D01*
X124598227Y-99784116D01*
X124598288Y-99619334D01*
X124598484Y-99472916D01*
X124598870Y-99343674D01*
X124599505Y-99230422D01*
X124600444Y-99131975D01*
X124601745Y-99047144D01*
X124603464Y-98974744D01*
X124605659Y-98913589D01*
X124608385Y-98862492D01*
X124611701Y-98820267D01*
X124615662Y-98785727D01*
X124620325Y-98757686D01*
X124625747Y-98734958D01*
X124631986Y-98716356D01*
X124639097Y-98700693D01*
X124647138Y-98686784D01*
X124656166Y-98673441D01*
X124666236Y-98659479D01*
X124677407Y-98643711D01*
X124717197Y-98585867D01*
X123657314Y-98585867D01*
X123695311Y-98648966D01*
X123709993Y-98674005D01*
X123724531Y-98701586D01*
X123736627Y-98729700D01*
X123746532Y-98760551D01*
X123754494Y-98796344D01*
X123760761Y-98839283D01*
X123765582Y-98891574D01*
X123769206Y-98955419D01*
X123771881Y-99033025D01*
X123773857Y-99126594D01*
X123775382Y-99238333D01*
X123776704Y-99370445D01*
X123777613Y-99490434D01*
X123778020Y-99607063D01*
X123777767Y-99702531D01*
X123776857Y-99776556D01*
X123775293Y-99828855D01*
X123773079Y-99859149D01*
X123770220Y-99867156D01*
X123767161Y-99863858D01*
X123749006Y-99842408D01*
X123719275Y-99805889D01*
X123679639Y-99756442D01*
X123631771Y-99696207D01*
X123577343Y-99627327D01*
X123518027Y-99551943D01*
X123455495Y-99472196D01*
X123391421Y-99390228D01*
X123327475Y-99308180D01*
X123265331Y-99228194D01*
X123206661Y-99152411D01*
X123153137Y-99082973D01*
X123106430Y-99022021D01*
X123068214Y-98971696D01*
X123040161Y-98934140D01*
X123023943Y-98911495D01*
X122978635Y-98839212D01*
X122938661Y-98759463D01*
X122917130Y-98691188D01*
X122913827Y-98633844D01*
X122919116Y-98585867D01*
X121787356Y-98586117D01*
X121826867Y-98616722D01*
X121836248Y-98624089D01*
X121899183Y-98678438D01*
X121967997Y-98746259D01*
X122044596Y-98829516D01*
X122130888Y-98930178D01*
X122148052Y-98950847D01*
X122188833Y-99000409D01*
X122238588Y-99061326D01*
X122295955Y-99131898D01*
X122359569Y-99210424D01*
X122428069Y-99295204D01*
X122500090Y-99384537D01*
X122574270Y-99476722D01*
X122589517Y-99495702D01*
X122649246Y-99570060D01*
X122723653Y-99662848D01*
X122796131Y-99753388D01*
X122865314Y-99839978D01*
X122929841Y-99920918D01*
X122988347Y-99994506D01*
X123039470Y-100059044D01*
X123081847Y-100112829D01*
X123114115Y-100154162D01*
X123134910Y-100181342D01*
X123142869Y-100192668D01*
X123141111Y-100196771D01*
X123128230Y-100217334D01*
X123103885Y-100253561D01*
X123069247Y-100303824D01*
X123025486Y-100366492D01*
X122973775Y-100439936D01*
X122915284Y-100522527D01*
X122851184Y-100612636D01*
X122782646Y-100708631D01*
X122710843Y-100808885D01*
X122636944Y-100911768D01*
X122562121Y-101015650D01*
X122487545Y-101118901D01*
X122414387Y-101219892D01*
X122343819Y-101316994D01*
X122277011Y-101408577D01*
X122215135Y-101493011D01*
X122159361Y-101568667D01*
X122110862Y-101633916D01*
X122070807Y-101687128D01*
X122040369Y-101726673D01*
X122019944Y-101752026D01*
X121973899Y-101806295D01*
X121923612Y-101862775D01*
X121876815Y-101912669D01*
X121785651Y-102006400D01*
X121087445Y-102006400D01*
X121156356Y-102006349D01*
X121254607Y-102006091D01*
X121344030Y-102005637D01*
X121422333Y-102005010D01*
X121487223Y-102004235D01*
X121536411Y-102003335D01*
X121567604Y-102002334D01*
X121578511Y-102001257D01*
X121577322Y-101998037D01*
X121567176Y-101980452D01*
X121550040Y-101954158D01*
X121541540Y-101941691D01*
X121532329Y-101927622D01*
X121524233Y-101913351D01*
X121517185Y-101897479D01*
X121511117Y-101878609D01*
X121505961Y-101855341D01*
X121501651Y-101826278D01*
X121498119Y-101790021D01*
X121495297Y-101745170D01*
X121493118Y-101690328D01*
X121491514Y-101624097D01*
X121490419Y-101545077D01*
X121489765Y-101451871D01*
X121489484Y-101343079D01*
X121489509Y-101217303D01*
X121489772Y-101073145D01*
X121490206Y-100909207D01*
X121490745Y-100724089D01*
X121491279Y-100545232D01*
X121491805Y-100386374D01*
X121492350Y-100247316D01*
X121492945Y-100126665D01*
X121493619Y-100023028D01*
X121494403Y-99935011D01*
X121495326Y-99861223D01*
X121496419Y-99800269D01*
X121497712Y-99750757D01*
X121499235Y-99711293D01*
X121501019Y-99680484D01*
X121503092Y-99656938D01*
X121505486Y-99639260D01*
X121508230Y-99626059D01*
X121511356Y-99615940D01*
X121514892Y-99607511D01*
X121518791Y-99599375D01*
X121538438Y-99562544D01*
X121557225Y-99532391D01*
X121558272Y-99530908D01*
X121572602Y-99508659D01*
X121578511Y-99495702D01*
X121577504Y-99495249D01*
X121560305Y-99493803D01*
X121523656Y-99492480D01*
X121469962Y-99491316D01*
X121401630Y-99490347D01*
X121321064Y-99489611D01*
X121230670Y-99489142D01*
X121132853Y-99488978D01*
X120687195Y-99488978D01*
X120684120Y-100665845D01*
X120681045Y-101842711D01*
X120654407Y-101901622D01*
X120642485Y-101926183D01*
X120625246Y-101956434D01*
X120612074Y-101973560D01*
X120604076Y-101981591D01*
X120596378Y-101996493D01*
X120304942Y-101996493D01*
X120304474Y-101904029D01*
X120304050Y-101788617D01*
X120303706Y-101658160D01*
X120303434Y-101511716D01*
X120303227Y-101348344D01*
X120303076Y-101167101D01*
X120302972Y-100967048D01*
X120302908Y-100747241D01*
X120302876Y-100506739D01*
X120302867Y-100244602D01*
X120302867Y-98053031D01*
X120341249Y-98014649D01*
X120368355Y-97990911D01*
X120395253Y-97979111D01*
X120431560Y-97976267D01*
X120483489Y-97976267D01*
X120483489Y-98064206D01*
X120485427Y-98114102D01*
X120504199Y-98224523D01*
X120541217Y-98325987D01*
X120594369Y-98417152D01*
X120661546Y-98496673D01*
X120740638Y-98563205D01*
X120829534Y-98615406D01*
X120926125Y-98651930D01*
X121028300Y-98671434D01*
X121133950Y-98672573D01*
X121240964Y-98654005D01*
X121347232Y-98614384D01*
X121444219Y-98556516D01*
X121529293Y-98481684D01*
X121598015Y-98393615D01*
X121648918Y-98294616D01*
X121680535Y-98186993D01*
X121691400Y-98073054D01*
X121691400Y-97976267D01*
X123311753Y-97976267D01*
X123522897Y-97976280D01*
X123727020Y-97976330D01*
X123910686Y-97976430D01*
X124074991Y-97976592D01*
X124221029Y-97976829D01*
X124349894Y-97977153D01*
X124462683Y-97977575D01*
X124560488Y-97978109D01*
X124644404Y-97978767D01*
X124715527Y-97979561D01*
X124774950Y-97980504D01*
X124823768Y-97981608D01*
X124863077Y-97982884D01*
X124893969Y-97984347D01*
X124917541Y-97986007D01*
X124934886Y-97987878D01*
X124947099Y-97989972D01*
X124955275Y-97992300D01*
X124960508Y-97994876D01*
X124966504Y-97998445D01*
X124973279Y-98001978D01*
X124979478Y-98005488D01*
X124985126Y-98009918D01*
X124990247Y-98016208D01*
X124994869Y-98025301D01*
X124999015Y-98038139D01*
X125002713Y-98055662D01*
X125005987Y-98078813D01*
X125008863Y-98108534D01*
X125011367Y-98145765D01*
X125013524Y-98191449D01*
X125015360Y-98246527D01*
X125016900Y-98311941D01*
X125018170Y-98388633D01*
X125019195Y-98477544D01*
X125020001Y-98579617D01*
X125020034Y-98585867D01*
X125020614Y-98695792D01*
G37*
D12*
%TO.C,C1*%
X160634000Y-97436252D02*
X160634000Y-96013748D01*
X162454000Y-97436252D02*
X162454000Y-96013748D01*
%TO.C,R1*%
X154707000Y-95792936D02*
X154707000Y-97247064D01*
X152887000Y-95792936D02*
X152887000Y-97247064D01*
%TO.C,C2*%
X158898000Y-95808748D02*
X158898000Y-97231252D01*
X157078000Y-95808748D02*
X157078000Y-97231252D01*
%TD*%
D14*
X105664000Y-126238000D02*
G75*
G03*
X105664000Y-126238000I-1524000J0D01*
G01*
X101600000Y-50934000D02*
X170976000Y-50934000D01*
X170976000Y-128778000D01*
X101600000Y-128778000D01*
X101600000Y-50934000D01*
X105664000Y-53594000D02*
G75*
G03*
X105664000Y-53594000I-1524000J0D01*
G01*
X169926000Y-126238000D02*
G75*
G03*
X169926000Y-126238000I-1524000J0D01*
G01*
X169926000Y-53594000D02*
G75*
G03*
X169926000Y-53594000I-1524000J0D01*
G01*
M02*
